<?xml version="1.0" encoding="UTF-8" standalone="no"?>
<svg
   xmlns:dc="http://purl.org/dc/elements/1.1/"
   xmlns:cc="http://creativecommons.org/ns#"
   xmlns:rdf="http://www.w3.org/1999/02/22-rdf-syntax-ns#"
   xmlns:svg="http://www.w3.org/2000/svg"
   xmlns="http://www.w3.org/2000/svg"
   xmlns:sodipodi="http://sodipodi.sourceforge.net/DTD/sodipodi-0.dtd"
   xmlns:inkscape="http://www.inkscape.org/namespaces/inkscape"
   width="862"
   height="862"
   viewBox="0 0 862 862"
   version="1.1"
   id="svg272"
   sodipodi:docname="logo.svg"
   inkscape:version="1.0.2 (e86c870879, 2021-01-15)">
  <metadata
     id="metadata276">
    <rdf:RDF>
      <cc:Work
         rdf:about="">
        <dc:format>image/svg+xml</dc:format>
        <dc:type
           rdf:resource="http://purl.org/dc/dcmitype/StillImage" />
      </cc:Work>
    </rdf:RDF>
  </metadata>
  <sodipodi:namedview
     pagecolor="#ffffff"
     bordercolor="#666666"
     borderopacity="1"
     objecttolerance="10"
     gridtolerance="10"
     guidetolerance="10"
     inkscape:pageopacity="0"
     inkscape:pageshadow="2"
     inkscape:window-width="1846"
     inkscape:window-height="1054"
     id="namedview274"
     showgrid="false"
     inkscape:zoom="0.7169505"
     inkscape:cx="536.85257"
     inkscape:cy="555.71634"
     inkscape:window-x="74"
     inkscape:window-y="840"
     inkscape:window-maximized="1"
     inkscape:current-layer="svg272" />
  <defs
     id="defs5">
    <clipPath
       id="clip-Fadroma-862x862-transperant">
      <rect
         width="862"
         height="862"
         id="rect2" />
    </clipPath>
  </defs>
  <g
     id="Fadroma-862x862-transperant"
     clip-path="url(#clip-Fadroma-862x862-transperant)"
     transform="translate(-17.170824,-33.363393)">
    <g
       id="Group_125"
       data-name="Group 125"
       transform="translate(-981.319,178.836)">
      <g
         id="Group_124"
         data-name="Group 124"
         transform="translate(1146.524,71.177)">
        <g
           id="Path_172"
           data-name="Path 172"
           transform="rotate(-17,531.88109,-787.59101)"
           fill="#ffffff">
          <path
             d="M 36.148399,247.91888 0.51456541,107.69823 25.162659,1.6522644 74.311234,123.09393 Z"
             stroke="none"
             id="path7" />
          <path
             d="M 25.291935,3.3045502 1.0291138,107.69296 36.192791,246.06352 73.78125,123.11725 25.291935,3.3045502 M 25.033352,0 74.841194,123.07066 36.104008,249.77426 7.6293945e-6,107.70351 Z"
             stroke="none"
             fill="#832df4"
             id="path9" />
        </g>
        <g
           id="Path_160"
           data-name="Path 160"
           transform="translate(130.782,70.039)"
           fill="#ffffff">
          <path
             d="m 105.47849,162.00751 -33.085485,-57.73685 38.508505,-154.382366 46.60235,39.1923 z"
             stroke="none"
             id="path12" />
          <path
             d="M 111.19278,-49.21344 72.926819,104.19657 105.33449,160.75058 156.93027,-10.748466 111.19278,-49.21344 m -0.58253,-1.796524 47.46717,39.919609 -52.45495,174.354775 -33.763278,-58.91964 z"
             stroke="none"
             fill="#832df4"
             id="path14" />
        </g>
        <g
           id="Path_161"
           data-name="Path 161"
           transform="translate(271.157,64.444)"
           fill="#ffffff">
          <path
             d="M -34.118324,164.55762 14.291335,-0.00468286 145.51624,-19.667198 V 143.31149 Z"
             stroke="none"
             id="path17" />
          <path
             d="M 144.51622,-18.50618 15.070587,0.88972473 -32.731491,163.38663 144.51622,142.42281 V -18.50618 m 2,-2.322006 V 144.20018 L -35.505188,165.72861 13.51207,-0.89909363 Z"
             stroke="none"
             fill="#832df4"
             id="path19" />
        </g>
        <g
           id="Path_163"
           data-name="Path 163"
           transform="translate(167.131,20.417)"
           fill="#ffffff">
          <path
             d="M 117.13253,52.826744 66.695557,8.4470396 V -8.1787672 L 117.13253,35.603298 Z"
             stroke="none"
             id="path22" />
          <path
             d="M 116.63253,51.720779 V 35.831383 L 67.195557,-7.0826278 V 8.2209797 L 116.63253,51.720779 m 1,2.211911 L 66.195557,8.6730814 V -9.274889 l 51.436973,44.650122 z"
             stroke="none"
             fill="#832df4"
             id="path24" />
        </g>
        <g
           id="Path_169"
           data-name="Path 169"
           transform="translate(237.972,62.321)"
           fill="#ffffff">
          <path
             d="m 2.6636553,107.10577 c -3.56914546,0 -7.1091271,-3.43292 -9.4502907,-6.31278 -2.6638002,-3.276724 -4.3916006,-6.57923 -4.4087456,-6.612211 l -0.02716,-0.05225 -0.03116,-0.04995 c -0.01542,-0.02482 -1.628182,-2.639183 -3.140728,-6.757995 -0.883563,-2.406037 -1.561018,-4.848549 -2.013527,-7.259697 -0.562109,-2.99511 -0.776655,-5.949852 -0.637655,-8.782128 C -16.416544,58.443504 1.1823826,-7.4631143 1.3600734,-8.1273327 l 0.021145,-0.079 0.012418,-0.080818 c 0.0036,-0.023274 0.3797454,-2.4216183 1.2014182,-4.7604363 0.8529239,-2.427702 1.7398961,-3.554412 2.3957251,-3.863721 2.8432264,2.089362 16.7123273,12.3814467 23.9793843,19.6120478 3.489491,3.4719818 5.589909,6.1714723 6.61018,8.4954732 0.857964,1.954273 0.852184,3.462 0.845509,5.207783 -3.21e-4,0.08241 -6.34e-4,0.165073 -8.62e-4,0.248041 L 9.3407764,102.47758 c -1.105606,1.63622 -2.2687659,2.85446 -3.4593029,3.62267 -1.0486002,0.67662 -2.1011455,1.00552 -3.2178182,1.00552 z"
             stroke="none"
             id="path27" />
          <path
             d="m 5.1216002,-14.950127 c -0.3653155,0.559601 -0.8556767,1.537117 -1.3500672,3.120949 -0.6085195,1.9495622 -0.8928995,3.7546007 -0.8952799,3.7698442 l -0.024839,0.1616592 -0.04228,0.1579819 c -0.04446,0.1662369 -4.4992408,16.8337784 -8.97406,34.8856967 -7.4337801,29.988861 -9.2053601,40.591957 -9.3824991,44.206299 -0.301819,6.150039 1.211441,11.756881 2.534038,15.377479 1.442339,3.948319 2.983311,6.474953 3.0339011,6.557335 l 0.057039,0.09026 0.05678,0.109223 c 0.016901,0.03238 1.7200203,3.274002 4.3017005,6.432243 2.9977608,3.667267 5.91971974,5.686927 8.2276211,5.686927 0.8192787,0 1.6058188,-0.25055 2.4045391,-0.76593 0.9785118,-0.63139 1.9558611,-1.6481 2.9089194,-3.02539 L 34.925777,16.418442 c 2.7e-5,-0.0067 5e-5,-0.01348 7.7e-5,-0.02022 0.0065,-1.704323 0.01124,-2.935738 -0.718979,-4.59906 C 33.277412,9.6819839 31.218393,7.0536804 27.912174,3.7640457 21.367208,-2.7480774 9.3593025,-11.807472 5.1216002,-14.950127 m 0.2347736,-3.552566 c 0,0 16.4111392,11.9208983 24.6717782,20.1400984 8.260643,8.2192001 7.896481,11.3362956 7.896481,15.2467806 L 10.706794,103.13316 c -2.6304734,3.97642 -5.3872673,5.4726 -8.0431416,5.4726 -8.0512752,0 -15.1899584,-13.733156 -15.1899584,-13.733156 0,0 -6.655539,-10.666679 -6.017519,-23.667358 0.644218,-13.143841 18.4548777,-79.7202454 18.4548777,-79.7202454 0,0 1.5348206,-9.9876936 5.4453211,-9.9876936 z"
             stroke="none"
             fill="#832df4"
             id="path29" />
        </g>
        <g
           id="Path_164"
           data-name="Path 164"
           transform="translate(218.117,-11.86)"
           fill="#ffffff">
          <path
             d="M 67.644463,69.97937 15.22659,23.535112 137.82722,12.372569 207.83376,53.619965 Z"
             stroke="none"
             id="path32" />
          <path
             d="M 137.71214,12.885101 16.424149,23.928131 67.808685,69.456818 206.29849,53.295731 137.71214,12.885101 m 0.23012,-1.025085 71.42676,42.084179 L 67.480286,70.501923 14.029068,23.142071 Z"
             stroke="none"
             fill="#832df4"
             id="path34" />
        </g>
        <g
           id="Group_122"
           data-name="Group 122"
           transform="translate(258.291,40.346)">
          <path
             id="Path_191"
             data-name="Path 191"
             d="M 0,0 V 150.715"
             transform="translate(71.437,26.74)"
             fill="none"
             stroke="#832df4"
             stroke-width="5" />
          <g
             id="Path_165"
             data-name="Path 165"
             transform="translate(-86.612,63.862)"
             fill="#ffffff">
            <path
               d="m 92.817642,-33.305698 -4.004997,-4.168522 c -0.167923,-0.237133 -1.700211,-2.497101 -1.700211,-5.915463 0,-2.87072 1.065323,-6.617965 1.551461,-8.178329 l 4.52594,4.149261 c -0.333985,0.963558 -1.255242,3.928013 -1.255242,7.307808 0,2.466221 0.490875,5.097008 0.883049,6.805245 z"
               stroke="none"
               id="path38" />
            <path
               d="m 88.912437,-50.661839 c -0.521698,1.785683 -1.300018,4.854958 -1.300018,7.272156 0,3.166291 1.375649,5.289006 1.587219,5.596565 l 2.775788,2.889122 c -0.288796,-1.554027 -0.540833,-3.421676 -0.540833,-5.206947 0,-3.140251 0.778824,-5.9333 1.17804,-7.158657 l -3.700196,-3.392239 m -0.484367,-1.800693 5.345314,4.90044 c 0,0 -1.338791,3.457939 -1.338791,7.451149 0,3.993202 1.338791,8.521683 1.338791,8.521683 l -5.345314,-5.563553 c 0,0 -1.815651,-2.409439 -1.815651,-6.23687 0,-3.82743 1.815651,-9.072849 1.815651,-9.072849 z"
               stroke="none"
               fill="#832df4"
               id="path40" />
          </g>
          <g
             id="Path_162"
             data-name="Path 162"
             transform="translate(6.42,1.154)"
             fill="#ffffff">
            <path
               d="M 20.611078,31.77866 V 15.232951 L 161.33846,-0.03995557 V 16.505753 Z"
               stroke="none"
               id="path43" />
            <path
               d="M 160.33846,1.0744267 21.611084,16.130274 V 30.664257 L 160.33846,15.608431 V 1.0744267 m 2,-2.2287961 V 17.403112 L 19.611084,32.893051 V 14.335592 Z"
               stroke="none"
               fill="#832df4"
               id="path45" />
          </g>
          <g
             id="Path_166"
             data-name="Path 166"
             transform="translate(7.144,35.089)"
             fill="#ffffff">
            <path
               d="m 0.34242246,-3.4014766 c -0.37075658,-1.1069477 -1.33552483,-4.2901151 -1.33552483,-7.4357664 0,-3.284804 1.04848027,-6.618516 1.37959835,-7.589221 L 14.482577,-20.258972 v 13.6958712 z"
               stroke="none"
               id="path48" />
            <path
               d="m 13.982576,-19.689772 -13.22097264,1.718754 c -0.39351559,1.209831 -1.25470639,4.193705 -1.25470639,7.133775 0,2.7365941 0.75115872,5.5119123 1.17070198,6.8484697 L 13.982576,-6.9636497 V -19.689772 m 1,-1.138422 V -6.1625519 L 0.01718712,-2.8164234 c 0,0 -1.51029012,-4.0042591 -1.51029012,-8.0208196 0,-4.01656 1.51029012,-8.045421 1.51029012,-8.045421 z"
               stroke="none"
               fill="#832df4"
               id="path50" />
          </g>
          <g
             id="Path_167"
             data-name="Path 167"
             transform="translate(4.848,-2.386)"
             fill="#ffffff">
            <path
               d="m 2.5750713,18.431627 -4.3413702,-4.095751 13.2493459,-1.705822 5.02808,3.88818 z"
               stroke="none"
               id="path53" />
            <path
               d="M 11.341206,13.152435 -0.65499592,14.696918 2.7441158,17.903719 15.262747,16.184937 11.341206,13.152435 m 0.283653,-1.044769 6.134621,4.74386 -15.3534713,2.108 -5.2836294,-4.984699 z"
               stroke="none"
               fill="#832df4"
               id="path55" />
          </g>
        </g>
        <g
           id="Group_123"
           data-name="Group 123"
           transform="translate(0,19.881)">
          <g
             id="Path_183"
             data-name="Path 183"
             transform="translate(53.997,194.642)"
             fill="#ffffff">
            <path
               d="M 51.273113,110.17484 H -32.603683 L -9.399807,-5.0486665 50.995697,18.698357 c 0.737858,1.306057 6.060097,10.819751 11.317188,22.670017 3.30698,7.454449 5.941258,14.360634 7.829663,20.526756 2.353103,7.683521 3.546226,14.224613 3.546226,19.44157 0,5.173478 -1.176086,9.905396 -3.495598,14.064309 -1.85746,3.330459 -4.450233,6.307591 -7.70626,8.848741 -5.254326,4.10068 -10.582695,5.74036 -11.213803,5.92509 z"
               stroke="none"
               id="path59" />
            <path
               d="M -9.0274391,-4.3649902 -31.992962,109.67484 H 51.20126 c 0.842189,-0.25185 5.911708,-1.87381 10.950378,-5.79771 3.210033,-2.49983 5.765217,-5.427354 7.59457,-8.70125 2.28431,-4.088119 3.442558,-8.744285 3.442558,-13.83918 0,-5.166229 -1.185264,-11.656478 -3.52288,-19.290462 C 67.783997,55.900467 65.157608,49.014576 61.859684,41.579823 56.782101,30.133011 51.64238,20.868233 50.647346,19.09864 L -9.0274391,-4.3649902 M -9.7721634,-5.7323303 51.343346,18.297775 c 0,0 22.84542,39.94466 22.84542,63.038925 0,23.09425 -22.84542,29.33814 -22.84542,29.33814 H -33.21442 Z"
               stroke="none"
               fill="#832df4"
               id="path61" />
          </g>
          <g
             id="Path_165-2"
             data-name="Path 165"
             transform="translate(140.315,53.816)"
             fill="#ffffff">
            <path
               d="m 92.091377,-37.020134 -3.261001,-3.394138 c -0.19439,-0.362442 -1.353508,-2.637158 -1.353508,-5.31527 0,-2.174919 0.756134,-4.673984 1.161697,-5.857853 l 3.534973,3.240757 c -0.155334,0.639344 -0.469719,2.24321 -0.469719,4.750847 0,2.11554 0.229454,4.904869 0.387558,6.575657 z"
               stroke="none"
               id="path64" />
            <path
               d="m 88.872658,-50.694458 c -0.397087,1.280403 -0.89579,3.2332 -0.89579,4.964916 0,2.445988 1.018173,4.549736 1.262596,5.019375 l 2.226585,2.317486 c -0.132202,-1.594166 -0.26223,-3.575745 -0.26223,-5.20311 0,-2.230976 0.247505,-3.776565 0.418434,-4.577919 l -2.749595,-2.520748 m -0.448784,-1.768074 4.310852,3.952061 c 0,0 -0.530907,1.694278 -0.530907,4.91468 0,3.22041 0.530907,7.96695 0.530907,7.96695 l -4.310852,-4.48684 c 0,0 -1.447006,-2.527141 -1.447006,-5.613861 0,-3.086712 1.447006,-6.73299 1.447006,-6.73299 z"
               stroke="none"
               fill="#832df4"
               id="path66" />
          </g>
          <g
             id="Path_166-2"
             data-name="Path 166"
             transform="translate(233.038,24.489)"
             fill="#ffffff">
            <path
               d="m 0.39135829,-6.8994904 c -0.25706591,-1.2020053 -0.88867703,-4.4116146 -0.88867703,-6.9271186 0,-2.481378 0.61322842,-4.328966 0.86104187,-4.974151 L 11.580641,-20.258978 v 10.8576509 z"
               stroke="none"
               id="path69" />
            <path
               d="m 11.080641,-19.689768 -10.35236284,1.345823 c -0.26893806,0.773987 -0.72559643,2.400115 -0.72559643,4.517336 0,2.18028 0.48652935,4.9054073 0.77476502,6.3284477 L 11.080641,-9.8018742 v -9.8878938 m 1,-1.138422 V -9.0007782 L 0.01148129,-6.3022079 c 0,0 -1.00879956,-4.2851601 -1.00879956,-7.5244011 0,-3.23924 1.00879956,-5.432569 1.00879956,-5.432569 z"
               stroke="none"
               fill="#832df4"
               id="path71" />
          </g>
          <g
             id="Path_167-2"
             data-name="Path 167"
             transform="translate(231.741,-12.108)"
             fill="#ffffff">
            <path
               d="M 1.5525337,17.1056 -1.7662988,13.97453 8.6764002,12.630049 12.517261,15.60016 Z"
               stroke="none"
               id="path74" />
            <path
               d="m 8.5345573,13.152431 -9.1895618,1.183141 2.3765821,2.242122 9.5472954,-1.31083 -2.7343157,-2.114433 M 8.8182106,12.107662 13.7656,15.933452 1.3834705,17.633503 -2.8776293,13.613482 Z"
               stroke="none"
               fill="#832df4"
               id="path76" />
          </g>
          <g
             id="Path_176"
             data-name="Path 176"
             transform="translate(-8.197,194.884)"
             fill="#ffffff">
            <path
               d="M 176.95847,181.63452 125.37642,71.626511 216.52025,-43.250809 245.68733,-4.675087 Z"
               stroke="none"
               id="path79" />
            <path
               d="M 176.90335,180.33923 245.1236,-4.5916338 216.51073,-42.434368 125.9606,71.694641 176.90335,180.33923 m 0.11023,2.59056 -52.22135,-111.371433 91.73752,-115.625618 29.7213,39.3087042 z"
               stroke="none"
               fill="#832df4"
               id="path81" />
          </g>
          <g
             id="Path_178"
             data-name="Path 178"
             transform="translate(0.192,190.419)"
             fill="#ffffff">
            <path
               d="M 22.164108,114.62385 H 0.60757965 L 23.300121,-1.1021357 h 21.556546 z"
               stroke="none"
               id="path84" />
            <path
               d="M 23.71159,-0.60214996 1.2151222,114.12383 H 21.75264 L 44.249092,-0.60214996 H 23.71159 M 22.888638,-1.60215 H 45.464222 L 22.575592,115.12383 H -7.6293945e-6 Z"
               stroke="none"
               fill="#832df4"
               id="path86" />
          </g>
          <g
             id="Path_179"
             data-name="Path 179"
             transform="translate(9.476,323.623)"
             fill="#ffffff">
            <path
               d="M 153.61229,84.696442 H 29.972427 L -8.7565002,-19.451931 H 83.905403 Z"
               stroke="none"
               id="path89" />
            <path
               d="M -8.0371399,-18.951927 30.319946,84.196442 H 152.67596 L 83.638397,-18.951927 H -8.0371399 m -1.4387665,-1 H 84.172409 L 154.54857,85.196442 H 29.624908 Z"
               stroke="none"
               fill="#832df4"
               id="path91" />
          </g>
          <g
             id="Path_177"
             data-name="Path 177"
             transform="translate(201.522,210.457)"
             fill="#ffffff">
            <path
               d="M -20.23321,135.31512 30.649771,-4.1272397 94.626839,-8.1666136 62.529491,131.00037 Z"
               stroke="none"
               id="path94" />
            <path
               d="M 93.350891,-7.0840759 31.365108,-3.1704254 -18.77562,134.23778 61.72451,130.04097 93.350891,-7.0840759 M 95.902756,-9.249176 63.334473,131.95975 -21.690865,136.39247 29.934414,-5.0840759 Z"
               stroke="none"
               fill="#832df4"
               id="path96" />
          </g>
          <g
             id="Path_182"
             data-name="Path 182"
             transform="translate(98.215,274.223)"
             fill="#ffffff">
            <path
               d="M 66.058609,134.09676 H -32.606754 L -5.2986012,-5.0422435 65.778748,23.633318 c 0.801597,1.454512 7.097847,12.983068 13.316719,27.366495 3.887237,8.990692 6.983894,17.320622 9.20391,24.758396 2.768036,9.273766 4.171547,17.170677 4.171547,23.471367 0,6.257544 -1.386909,11.981334 -4.122223,17.012364 -2.189506,4.02715 -5.244941,7.62638 -9.081466,10.69774 -6.212479,4.97342 -12.510903,6.94838 -13.208626,7.15708 z"
               stroke="none"
               id="path99" />
            <path
               d="M -4.9244995,-4.3521729 -31.999084,133.59676 h 97.983696 c 0.940399,-0.28817 7.014389,-2.27045 12.998672,-7.07027 3.777184,-3.02956 6.783943,-6.57671 8.936783,-10.54293 2.68795,-4.95211 4.050857,-10.58897 4.050857,-16.753984 0,-6.251182 -1.396019,-14.098396 -4.149253,-23.323692 C 85.607864,68.488121 82.518799,60.178162 78.640266,51.206871 72.612701,37.26474 66.511261,26.007111 65.426453,24.030319 L -4.9244995,-4.3521729 M -5.672699,-5.7323303 66.130417,23.236015 c 0,0 26.840507,48.153374 26.840507,75.993561 0,27.840184 -26.840507,35.367184 -26.840507,35.367184 h -99.344841 z"
               stroke="none"
               fill="#832df4"
               id="path101" />
          </g>
          <g
             id="Path_185"
             data-name="Path 185"
             transform="translate(38.919,269.213)"
             fill="#ffffff">
            <path
               d="M 26.899288,139.10677 H 0.60756767 L 28.100933,-1.1021428 h 26.291721 z"
               stroke="none"
               id="path104" />
            <path
               d="M 28.512407,-0.60214233 1.2151299,138.60677 H 26.487814 L 53.785091,-0.60214233 H 28.512407 M 27.689457,-1.6021423 H 55.000221 L 27.310764,139.60677 H 0 Z"
               stroke="none"
               fill="#832df4"
               id="path106" />
          </g>
          <path
             id="Path_186"
             data-name="Path 186"
             d="m 2.723,0 h 62.156 l 20.773,12 17.16,33.234 5.694,11.785 L 62.447,29.494 0,32.152 Z"
             transform="rotate(16,-662.31466,946.82357)"
             fill="#ffffff"
             stroke="#832df4"
             stroke-width="2" />
        </g>
        <g
           id="Path_174"
           data-name="Path 174"
           transform="matrix(0.966,0,-0.058,0.974,402.346,240.77)"
           fill="#ffffff">
          <path
             d="m 77.018394,127.86124 c -3.847633,0 -8.310768,-0.4083 -13.265419,-1.21355 -6.134273,-0.99696 -13.057281,-2.61053 -20.577785,-4.79615 -3.613564,-1.12541 -8.246254,-3.55167 -12.710779,-6.65713 C 25.055277,111.43189 19.95031,106.75147 15.701393,101.65911 10.556211,95.492592 6.6479769,88.76326 4.0852599,81.658028 1.0906267,73.355263 -0.03568996,64.576607 0.73759335,55.565926 1.1360267,50.923309 2.0534933,46.446442 3.4644933,42.259727 4.7679601,38.392109 6.5245266,34.677109 8.6853933,31.217909 12.452527,25.187344 17.54631,19.759426 23.825211,15.084926 28.723026,11.438643 34.354927,8.2367764 40.564476,5.5682592 44.628761,3.8216593 48.77816,2.3608928 53.24976,1.1024928 c 1.420581,-0.39978336 3.287517,-0.60248338 5.548935,-0.60248338 5.485981,0 13.348117,1.17445008 23.367961,3.49074998 8.555291,1.9772658 24.601694,7.6094896 27.362734,8.5866546 L 86.458687,126.56231 c -0.718811,0.30891 -3.487961,1.29893 -9.440293,1.29893 z"
             stroke="none"
             id="path111" />
          <path
             d="M 58.798679,1 C 56.583061,1 54.761719,1.1964111 53.385208,1.5837708 48.934937,2.8361969 44.805809,4.2897949 40.761879,6.0276337 34.588173,8.6807404 28.990318,11.862991 24.123787,15.485992 17.895027,20.123161 12.84346,25.505264 9.1094437,31.482811 c -2.1402512,3.426216 -3.8800736,7.10582 -5.1711274,10.9366 -1.3982696,4.148895 -2.3075408,8.586418 -2.7025451,13.189277 -0.76707461,8.938179 0.3498764,17.645378 3.3198395,25.879685 2.5428543,7.050186 6.4219973,13.728821 11.5296863,19.850417 4.22071,5.05853 9.291656,9.70779 14.664619,13.44515 4.422417,3.07617 9.002991,5.47723 12.569111,6.58871 7.498974,2.17918 14.401321,3.78804 20.514164,4.78151 4.928177,0.80096 9.364326,1.20707 13.185181,1.20707 5.339881,0 8.057998,-0.80391 9.003669,-1.16206 L 108.95311,12.90416 C 105.2924,11.613861 90.229935,6.367485 82.054047,4.4779053 72.071083,2.1701355 64.246841,1 58.798679,1 m 0,-1 c 6.51128,0 15.403454,1.6363983 23.480603,3.5035934 9.470947,2.1888886 27.826228,8.7477646 27.826228,8.7477646 L 86.898972,126.90741 c 0,0 -2.588898,1.45383 -9.8806,1.45383 -6.745102,0 -17.514077,-1.24308 -33.987381,-6.03092 C 29.531387,118.1291 -3.1082611,94.53157 0.23942566,55.523178 3.5871201,16.514793 41.36599,3.9274139 53.114319,0.62117004 54.650936,0.18873596 56.587791,0 58.798679,0 Z"
             stroke="none"
             fill="#832df4"
             id="path113" />
        </g>
        <g
           id="Ellipse_5"
           data-name="Ellipse 5"
           transform="matrix(0.965,0.101,-0.152,0.968,446.616,245.593)"
           fill="#ffffff"
           stroke="#832df4"
           stroke-width="1">
          <ellipse
             cx="54.622002"
             cy="59.173"
             rx="54.622002"
             ry="59.173"
             stroke="none"
             id="ellipse116" />
          <ellipse
             cx="54.622002"
             cy="59.173"
             rx="54.122002"
             ry="58.673"
             fill="none"
             id="ellipse118" />
        </g>
        <g
           id="Path_168"
           data-name="Path 168"
           transform="rotate(16,-111.89169,1065.779)"
           fill="#ffffff">
          <path
             d="M 5.5845041,96.969322 C 4.2551265,96.856422 3.2918773,95.160049 2.7112453,93.729187 2.0211139,92.028496 1.7095078,90.280571 1.6443478,89.883224 1.6153822,88.43116 1.2983353,71.646233 1.7129738,53.87006 1.9660739,43.019386 2.4380453,33.931675 3.1157739,26.859373 4.1493311,16.07386 5.4782596,11.969102 6.4111023,10.424873 8.3873596,7.1532593 11.060145,4.7472591 14.355188,3.2736878 16.986889,2.0967593 20.025589,1.5000021 23.38686,1.5000021 c 3.96933,0 7.317846,0.8358732 8.729267,1.2486656 l 20.693275,72.1660053 0.026,0.0907 0.03717,0.08672 c 0.07724,0.180259 0.258156,0.602371 -0.359371,1.4655 -0.568745,0.794975 -1.64423,1.725471 -3.196602,2.76564 -3.183899,2.13343 -8.019356,4.517715 -13.618328,7.278488 -0.552628,0.272484 -1.112541,0.548584 -1.678955,0.828415 C 22.86455,92.941071 7.4331002,96.548332 5.5845041,96.969322 Z"
             stroke="none"
             id="path121" />
          <path
             d="m 23.386873,2.9999847 c -3.148847,0 -5.981516,0.5527878 -8.419317,1.6429902 C 11.956989,5.9893341 9.5101585,8.1955872 7.6950226,11.20047 6.9974403,12.355255 5.668972,15.943207 4.6093254,26.998375 3.9350243,34.033337 3.4651566,43.082787 3.2127914,53.895355 2.8071365,71.275993 3.102417,87.712959 3.1418686,89.742928 c 0.085083,0.489296 0.3794441,2.00801 0.9756737,3.46241 0.5903778,1.440086 1.1669731,2.062179 1.467453,2.224647 2.8646965,-0.665794 17.2681747,-4.156357 27.7699277,-9.344696 0.566715,-0.279984 1.126934,-0.556221 1.679852,-0.82885 4.791515,-2.362617 8.9296,-4.403038 11.991466,-6.255867 1.497765,-0.906349 2.652699,-1.721832 3.432717,-2.42382 0.612632,-0.551338 0.861114,-0.91153 0.956318,-1.081986 L 51.367489,75.32814 30.906994,3.9738541 C 29.315392,3.5645218 26.547228,2.9999847 23.386873,2.9999847 m 4e-6,-2.9999923293945 c 5.563818,0 9.949015,1.5605621293945 9.949015,1.5605621293945 L 54.251274,74.501221 c 1.716332,4.004783 -7.435982,8.280235 -19.567551,14.273735 -12.131534,5.993515 -28.9586482,9.700317 -28.9586482,9.700317 -4.3570671,-1.5e-5 -5.5783501,-8.459816 -5.5783501,-8.459816 0,0 -1.4829826,-69.666466 4.9804497,-80.3661726 C 9.8312607,1.8618851 17.311577,-7.6293945e-6 23.386877,-7.6293945e-6 Z"
             stroke="none"
             fill="#832df4"
             id="path123" />
        </g>
        <g
           id="Path_170"
           data-name="Path 170"
           transform="translate(347.363,72.595)"
           fill="#ffffff">
          <path
             d="m 8.2738142,116.62019 c -3.3389049,-0.0295 -6.4737451,-1.34362 -8.83798015,-3.70784 -2.39136665,-2.39138 -3.70834985,-5.57087 -3.70834985,-8.95279 V 15.451998 c 0,-3.3819 1.3169832,-6.5613997 3.70836654,-8.9527667 C 1.8272173,4.1078482 5.0067005,2.7908647 8.3886175,2.7908647 h 0.1100998 l 0.1089001,-0.016066 40.8184466,-6.024242 c 3.341911,0.027492 6.479503,1.3417925 8.845638,3.70790857 2.391365,2.39138323 3.708347,5.57086643 3.708347,8.95278343 V 97.477768 c 0,3.381912 -1.316982,6.561392 -3.708347,8.952782 -2.391384,2.39136 -5.57087,3.70835 -8.952786,3.70835 h -0.11803 l -0.116585,0.0185 z"
             stroke="none"
             id="path126" />
          <path
             d="M 49.526398,-1.7480164 8.8266373,4.2587051 8.608799,4.2908554 H 8.3886185 c -2.9812546,0 -5.7840538,1.1609573 -7.89212802,3.2690125 -2.10805508,2.108078 -3.26901628,4.9108731 -3.26901628,7.8921281 v 88.507564 c 0,2.98126 1.1609612,5.78405 3.26901628,7.89211 2.05557632,2.05556 4.77166752,3.21061 7.66970442,3.26686 l 40.6834751,-6.4427 0.233166,-0.0369 h 0.236073 c 2.981254,0 5.784053,-1.16097 7.892128,-3.26902 2.108055,-2.10807 3.269016,-4.91088 3.269016,-7.89213 V 9.411232 c 0,-2.9812546 -1.160961,-5.78405 -3.269016,-7.8921051 -2.059052,-2.05903626 -4.781094,-3.2145157 -7.684639,-3.2671433 m -0.207489,-3.0018768 c 7.820984,0 14.161144,6.3401489 14.161144,14.1611252 V 97.47776 c 0,7.82098 -6.34016,14.16115 -14.161144,14.16115 l -40.9302905,6.48178 c -7.82098392,0 -14.1611443,-6.34015 -14.1611443,-14.16113 V 15.451996 c 0,-7.8209764 6.34016038,-14.1611406 14.1611443,-14.1611406 z"
             stroke="none"
             fill="#832df4"
             id="path128" />
        </g>
        <path
           id="Path_180"
           data-name="Path 180"
           d="M 45.256,0.186 -39.818,91"
           transform="translate(186.795,203.642)"
           fill="none"
           stroke="#832df4"
           stroke-width="14" />
        <path
           id="Path_181"
           data-name="Path 181"
           d="M 152.224,1.057 59.215,73.007"
           transform="translate(60.72,178.364)"
           fill="none"
           stroke="#832df4"
           stroke-width="10" />
        <g
           id="Path_171"
           data-name="Path 171"
           transform="translate(360.579,217.979)"
           fill="#ffffff">
          <path
             d="M 1.0000063,131.6951 V -2.8850567 L 204.35254,-27.372925 V 103.16822 l -21.93034,3.86941 V 42.917233 42.163837 l -0.72417,-0.207817 -61.76457,-17.72442 -0.40761,-0.116974 -0.36745,0.21171 -58.931158,33.951656 -0.50079,0.288502 v 0.577972 64.796624 z"
             stroke="none"
             id="path133" />
          <path
             d="M 203.35255,-26.245239 1.9999847,-1.99823 V 130.55438 L 58.726471,123.06446 V 59.144485 57.988571 l 1.001572,-0.577057 58.931147,-33.951668 0.73488,-0.423362 0.8152,0.233917 61.76458,17.724419 1.44833,0.415638 v 1.506778 62.928494 l 19.93037,-3.51654 V -26.245239 m 2,-2.255295 V 104.00721 l -23.93037,4.22231 V 42.917236 L 119.6576,25.192818 60.726471,59.144485 V 124.81773 L -1.5258789e-5,132.83578 V -3.7718506 Z"
             stroke="none"
             fill="#832df4"
             id="path135" />
        </g>
        <g
           id="Rectangle_9"
           data-name="Rectangle 9"
           transform="rotate(-45,423.25686,-9.8527335)"
           fill="#ffffff"
           stroke="#832df4"
           stroke-width="1">
          <rect
             width="34.390999"
             height="18.207001"
             stroke="none"
             id="rect138"
             x="0"
             y="0" />
          <rect
             x="0.5"
             y="0.5"
             width="33.390999"
             height="17.207001"
             fill="none"
             id="rect140" />
        </g>
        <g
           id="Rectangle_10"
           data-name="Rectangle 10"
           transform="rotate(-34,464.37354,-52.118994)"
           fill="#ffffff"
           stroke="#832df4"
           stroke-width="1">
          <rect
             width="26.299"
             height="13.15"
             stroke="none"
             id="rect143"
             x="0"
             y="0" />
          <rect
             x="0.5"
             y="0.5"
             width="25.299"
             height="12.15"
             fill="none"
             id="rect145" />
        </g>
        <line
           id="Line_3"
           data-name="Line 3"
           x2="18.207001"
           y2="28.322001"
           transform="rotate(-11,1435.7002,-439.2096)"
           fill="none"
           stroke="#832df4"
           stroke-width="7"
           opacity="0.996"
           x1="0"
           y1="0" />
        <g
           id="Path_188"
           data-name="Path 188"
           transform="matrix(0.839,-0.545,0.545,0.839,89.437,260.646)"
           fill="#ffffff">
          <path
             d="M 30.640432,17.241014 H 5.8775978 C 5.5916333,17.139589 4.3659911,16.656912 3.1703925,15.463204 2.3773825,14.671464 1.7501124,13.723564 1.3060025,12.645834 0.74670243,11.288605 0.47609246,9.7168541 0.50168246,7.9742441 0.52713245,6.2402143 0.82582247,4.7684641 1.3894324,3.5998843 1.8300325,2.6863642 2.4342725,1.9541243 3.1853724,1.4235142 4.4748926,0.51252431 5.7819023,0.50002432 5.7949524,0.50000429 H 30.640432 V 9.3710346 Z"
             stroke="none"
             id="path149" />
          <path
             d="M 5.7971001,1.0000038 C 5.7631912,1.0005951 4.5837746,1.0294056 3.4335518,1.8606939 1.8628006,2.9959145 1.0445824,5.055274 1.0016212,7.9815845 0.9576817,10.974674 1.7944508,13.360994 3.4887123,15.074254 c 1.0466328,1.058372 2.1229706,1.530576 2.478199,1.66676 H 30.140432 V 9.3710346 1.0000038 H 5.7971001 M 5.7948799,1.9073486e-6 c 8.335e-4,0 0.00124,1.9073487e-6 0.00124,1.9073487e-6 H 31.140432 V 9.3710346 17.741014 H 5.7961216 c 0,0 -5.91187096,-1.772649 -5.79438973,-9.7741094 C 0.11819077,0.03431511 5.6988354,1.9073486e-6 5.7948799,1.9073486e-6 Z"
             stroke="none"
             fill="#832df4"
             id="path151" />
        </g>
      </g>
      <g
         id="Path_173"
         data-name="Path 173"
         transform="translate(1599.742,202.484)"
         fill="#ffffff">
        <path
           d="M -35.971119,76.74913 V 5.9898353 L 27.644289,-0.38322461 111.04504,57.945663 Z"
           stroke="none"
           id="path155" />
        <path
           d="M 27.509663,0.13277435 -35.471138,6.4422607 V 76.181107 L 109.69817,57.613853 27.509663,0.13277435 M 27.778942,-0.89920807 112.39188,58.277473 -36.471138,77.317154 V 5.5374298 Z"
           stroke="none"
           fill="#832df4"
           id="path157" />
      </g>
      <g
         id="Ellipse_6"
         data-name="Ellipse 6"
         transform="matrix(0.966,0.259,-0.259,0.966,1611.379,325.984)"
         fill="#ffffff"
         stroke="#832df4"
         stroke-width="1">
        <ellipse
           cx="38.943001"
           cy="43.494999"
           rx="38.943001"
           ry="43.494999"
           stroke="none"
           id="ellipse160" />
        <ellipse
           cx="38.943001"
           cy="43.494999"
           rx="38.443001"
           ry="42.994999"
           fill="none"
           id="ellipse162" />
      </g>
      <g
         id="Path_175"
         data-name="Path 175"
         transform="matrix(0.941,0.235,-0.289,0.932,1358.826,341.783)"
         fill="#ffffff">
        <path
           d="m 70.877907,124.3633 c -3.537232,0 -7.640885,-0.39685 -12.196968,-1.17955 -5.642288,-0.9693 -12.010868,-2.53831 -18.928841,-4.66343 -3.320385,-1.09307 -7.578327,-3.45055 -11.683107,-6.46859 -4.97555,-3.65827 -9.671534,-8.2093 -13.580284,-13.161105 C 9.7544565,92.893059 6.1582403,86.347679 3.7999237,79.436325 1.0435902,71.358513 0.00690688,62.817513 0.71870691,54.050594 1.4250402,45.350761 3.8859735,37.381413 8.033124,30.363913 c 3.46565,-5.864317 8.151383,-11.142268 13.926999,-15.687251 4.504618,-3.544817 9.684366,-6.6575504 15.39535,-9.2517667 3.737934,-1.6979332 7.554134,-3.1180167 11.666717,-4.3413832 1.301602,-0.3871834 3.013649,-0.58351675 5.088616,-0.58351675 5.043468,0 12.2737,1.14184995 21.489849,3.39384995 7.851661,1.9181149 22.564819,7.3745487 25.156045,8.3436897 L 79.526299,123.11147 c -0.674706,0.30373 -3.21682,1.25183 -8.648392,1.25183 z"
           stroke="none"
           id="path165" />
        <path
           d="m 54.110775,0.99999237 c -2.026653,0 -3.690735,0.18933873 -4.946033,0.56273653 -4.090401,1.2167816 -7.885602,2.6289978 -11.602467,4.3173981 -5.674519,2.5776367 -10.819805,5.669418 -15.29295,9.189453 -5.726783,4.506569 -10.371704,9.7379 -13.8057477,15.548714 -4.108284,6.951721 -6.5463562,14.849083 -7.246521,23.472748 -0.70619967,8.698204 0.3219986,17.171257 3.0560684,25.183815 2.3399506,6.857559 5.9090123,13.353027 10.6080473,19.305969 3.881371,4.917094 8.544052,9.435974 13.484001,13.068054 4.061997,2.9866 8.266678,5.31693 11.538296,6.39489 6.89571,2.11809 13.242134,3.68173 18.862106,4.64719 4.528164,0.7779 8.603329,1.17234 12.112278,1.17234 4.839081,0 7.323159,-0.76023 8.207749,-1.10891 L 100.18619,12.558311 C 96.755791,11.28067 82.973709,6.2097397 75.481972,4.3795471 66.304642,2.1370468 59.114342,0.99999237 54.110775,0.99999237 m -4e-6,-0.9999999993945 c 5.992161,0 14.1754,1.5918274293945 21.608566,3.4081344293945 8.715851,2.1292343 25.607723,8.5093692 25.607723,8.5093692 L 79.970741,123.44908 c 0,0 -2.382515,1.41421 -9.092872,1.41421 -6.207337,0 -16.117722,-1.2092 -31.277645,-5.86656 C 27.176926,114.91 -2.8604584,91.955513 0.22033691,54.010132 3.3011246,16.064758 38.067989,3.8203812 48.879623,0.60424805 50.293736,0.18359375 52.076153,-7.6293945e-6 54.110771,-7.6293945e-6 Z"
           stroke="none"
           fill="#832df4"
           id="path167" />
      </g>
      <g
         id="Ellipse_7"
         data-name="Ellipse 7"
         transform="matrix(0.912,0.332,-0.382,0.902,1384.586,348.691)"
         fill="#ffffff"
         stroke="#832df4"
         stroke-width="1">
        <ellipse
           cx="54.622002"
           cy="59.173"
           rx="54.622002"
           ry="59.173"
           stroke="none"
           id="ellipse170" />
        <ellipse
           cx="54.622002"
           cy="59.173"
           rx="54.122002"
           ry="58.673"
           fill="none"
           id="ellipse172" />
      </g>
      <g
         id="Ellipse_8"
         data-name="Ellipse 8"
         transform="matrix(0.856,0.514,-0.515,0.857,1402.591,361.87)"
         fill="#ffffff"
         stroke="#832df4"
         stroke-width="1">
        <ellipse
           cx="38.943001"
           cy="43.494999"
           rx="38.943001"
           ry="43.494999"
           stroke="none"
           id="ellipse175" />
        <ellipse
           cx="38.943001"
           cy="43.494999"
           rx="38.443001"
           ry="42.994999"
           fill="none"
           id="ellipse177" />
      </g>
      <g
         id="Path_184"
         data-name="Path 184"
         transform="translate(1193.27,282.377)"
         fill="#ffffff">
        <path
           d="m 116.24075,105.9373 -67.821278,-28.260939 -0.0798,-0.03326 -0.08635,-0.0045 L 21.017948,76.210068 -22.170744,-1.8086225 H -0.35144007 L 58.821281,22.626614 Z"
           stroke="none"
           id="path180" />
        <path
           d="m -21.322487,-1.3086243 42.64354,77.0338903 26.958465,1.413986 0.172657,0.0091 0.159599,0.06649 L 114.86505,104.82238 58.493599,23.032257 -0.45063019,-1.3086243 H -21.322487 m -1.696556,-1 H -0.25228119 L 59.148956,22.220978 117.61641,107.05222 48.227139,78.137886 20.71479,76.694855 Z"
           stroke="none"
           fill="#832df4"
           id="path182" />
      </g>
      <g
         id="Path_189"
         data-name="Path 189"
         transform="rotate(-30,1197.8041,-2385.3333)"
         fill="#ffffff">
        <path
           d="m 5.1001925,22.019266 c -0.8991107,-0.9925 -4.60019313,-5.309397 -4.60019313,-9.101148 0,-3.9441209 4.02335803,-7.5401196 4.66456003,-8.0878592 L 23.50564,0.60924751 25.814806,16.750118 Z"
           stroke="none"
           id="path185" />
        <path
           d="M 23.087713,1.2185078 5.3967228,5.2899075 C 5.0355568,5.6048908 4.1453247,6.4220963 3.2535286,7.5554876 2.2254791,8.8620377 1,10.852987 1,12.918118 c 0,1.655269 0.7884998,3.713649 2.2802601,5.952619 0.7666645,1.150686 1.5428181,2.081068 1.9902153,2.589291 L 25.256233,16.376278 23.087713,1.2185078 M 23.923569,-1.9073486e-6 26.373379,17.123959 4.9352798,22.577137 C 4.9352798,22.577137 0,17.469917 0,12.918118 0,8.3663273 4.9352798,4.369957 4.9352798,4.369957 Z"
           stroke="none"
           fill="#832df4"
           id="path187" />
      </g>
      <g
         id="Path_190"
         data-name="Path 190"
         transform="matrix(0.899,-0.438,0.438,0.899,1333.655,252.765)"
         fill="#ffffff">
        <path
           d="M 4.6851997,19.333357 C 3.8694956,18.433138 0.50000185,14.505053 0.50000185,11.060861 c 0,-3.5414637 3.58105185,-6.778108 4.21961265,-7.3268339 L 23.228334,0.57351559 26.480322,15.698482 Z"
           stroke="none"
           id="path190" />
        <path
           d="M 22.840216,1.1470203 4.941246,4.203413 C 4.5931053,4.5099716 3.8160057,5.2334156 3.0366421,6.2239208 1.3533421,8.3632307 1.0000019,10.03507 1.0000019,11.060861 c 0,3.058605 2.865736,6.586877 3.8745766,7.734006 L 25.881382,15.291462 22.840216,1.1470203 M 23.616451,0 l 3.462811,16.105501 -22.5777609,3.7654 c 0,0 -4.5014991926514,-4.65832 -4.5014991926514,-8.81004 C 1.9073486e-6,6.9091406 4.5015011,3.2640305 4.5015011,3.2640305 Z"
           stroke="none"
           fill="#832df4"
           id="path192" />
      </g>
      <path
         id="Path_192"
         data-name="Path 192"
         d="M 32.337,60.56 2.735,11.337"
         transform="translate(1266.901,294.166)"
         fill="none"
         stroke="#832df4"
         stroke-width="5" />
      <line
         id="Line_5"
         data-name="Line 5"
         x1="32.368"
         y2="29.334"
         transform="translate(1240.57,306.174)"
         fill="none"
         stroke="#832df4"
         stroke-width="5"
         y1="0"
         x2="0" />
      <path
         id="Path_193"
         data-name="Path 193"
         d="M 28.552,54.267 2.735,11.337"
         transform="translate(1242.955,265.057)"
         fill="none"
         stroke="#832df4"
         stroke-width="5" />
      <g
         id="Rectangle_12"
         data-name="Rectangle 12"
         transform="matrix(0.799,-0.602,0.602,0.799,1264.646,319.742)"
         fill="#ffffff"
         stroke="#832df4"
         stroke-width="1">
        <rect
           width="11.127"
           height="6.0689998"
           stroke="none"
           id="rect198"
           x="0"
           y="0" />
        <rect
           x="0.5"
           y="0.5"
           width="10.127"
           height="5.0689998"
           fill="none"
           id="rect200" />
      </g>
      <path
         id="Path_194"
         data-name="Path 194"
         d="M 28.023,0.507 0,25.578"
         transform="translate(1220.34,276.984)"
         fill="none"
         stroke="#832df4"
         stroke-width="5" />
      <g
         id="Ellipse_9"
         data-name="Ellipse 9"
         transform="translate(1241.076,274.311)"
         fill="#ffffff"
         stroke="#832df4"
         stroke-width="1">
        <circle
           cx="4.552"
           cy="4.552"
           r="4.552"
           stroke="none"
           id="circle204" />
        <circle
           cx="4.552"
           cy="4.552"
           r="4.052"
           fill="none"
           id="circle206" />
      </g>
      <g
         id="Ellipse_10"
         data-name="Ellipse 10"
         transform="translate(1266.364,303.645)"
         fill="#ffffff"
         stroke="#832df4"
         stroke-width="1">
        <circle
           cx="4.552"
           cy="4.552"
           r="4.552"
           stroke="none"
           id="circle209" />
        <circle
           cx="4.552"
           cy="4.552"
           r="4.052"
           fill="none"
           id="circle211" />
      </g>
      <g
         id="Rectangle_11"
         data-name="Rectangle 11"
         transform="rotate(-41,1123.3983,-1550.911)"
         fill="#ffffff"
         stroke="#832df4"
         stroke-width="1">
        <rect
           width="11.127"
           height="6.0689998"
           stroke="none"
           id="rect214"
           x="0"
           y="0" />
        <rect
           x="0.5"
           y="0.5"
           width="10.127"
           height="5.0689998"
           fill="none"
           id="rect216" />
      </g>
      <g
         id="Rectangle_13"
         data-name="Rectangle 13"
         transform="translate(1236.018,324.887)"
         fill="#ffffff"
         stroke="#832df4"
         stroke-width="1">
        <rect
           width="14.161"
           height="15.173"
           stroke="none"
           id="rect219"
           x="0"
           y="0" />
        <rect
           x="0.5"
           y="0.5"
           width="13.161"
           height="14.173"
           fill="none"
           id="rect221" />
      </g>
      <g
         id="Path_195"
         data-name="Path 195"
         transform="translate(1229.989,324.848)"
         fill="#ffffff">
        <path
           d="M 5.5297389,13.353748 3.9163191,10.573784 V -1.8923421 l 1.6134198,2.10089957 z"
           stroke="none"
           id="path224" />
        <path
           d="M 4.4163194,-0.42035484 V 10.439212 L 5.0297389,11.49615 V 0.37840366 l -0.6134195,-0.7987585 m -1,-2.94396116 2.61342,3.40303995 V 15.211364 l -2.61342,-4.50299 z"
           stroke="none"
           fill="#832df4"
           id="path226" />
      </g>
      <g
         id="Path_196"
         data-name="Path 196"
         transform="translate(1239.99,320.85)"
         fill="#ffffff">
        <path
           d="M -3.6232986,4.5411358 -5.5538244,1.3376958 4.4231162,1.6847606 8.328783,4.2410011 Z"
           stroke="none"
           id="path229" />
        <path
           d="M -4.6495943,1.8694558 -3.3451524,4.0339956 6.713542,3.7814074 4.2661567,2.1796055 -4.6495943,1.8694558 M -6.458065,0.80593586 4.5800653,1.1899157 9.9440155,4.7005959 -3.9014549,5.0482755 Z"
           stroke="none"
           fill="#832df4"
           id="path231" />
      </g>
      <g
         id="Rectangle_14"
         data-name="Rectangle 14"
         transform="translate(1213.765,296.565)"
         fill="#ffffff"
         stroke="#832df4"
         stroke-width="1">
        <rect
           width="11.127"
           height="12.138"
           stroke="none"
           id="rect234"
           x="0"
           y="0" />
        <rect
           x="0.5"
           y="0.5"
           width="10.127"
           height="11.138"
           fill="none"
           id="rect236" />
      </g>
      <g
         id="Path_198"
         data-name="Path 198"
         transform="translate(1218.295,293.248)"
         fill="#ffffff">
        <path
           d="M 5.4664416,3.7423019 H -3.6236207 L -5.4339104,1.3356979 2.6580963,1.5691751 Z"
           stroke="none"
           id="path239" />
        <path
           d="m -4.4097519,1.8654537 1.0356894,1.3768482 h 7.377345 L 2.4809027,2.0642686 -4.4097519,1.8654537 m -2.0483136,-1.05951164 9.29337,0.26813984 4.09431,3.16822 H -3.8731756 Z"
           stroke="none"
           fill="#832df4"
           id="path241" />
      </g>
      <g
         id="Path_197"
         data-name="Path 197"
         transform="translate(1208.317,297.279)"
         fill="#ffffff">
        <path
           d="M 5.0332379,9.8247089 3.9163177,7.9002309 v -9.7925791 l 1.1169202,1.45438299 z"
           stroke="none"
           id="path244" />
        <path
           d="M 4.4163175,-0.42036438 V 7.7656584 L 4.5332379,7.967114 V -0.2681179 L 4.4163175,-0.42036438 m -1,-2.94395442 2.11692,2.75651927 V 11.682321 l -2.11692,-3.6475004 z"
           stroke="none"
           fill="#832df4"
           id="path246" />
      </g>
      <g
         id="Ellipse_19"
         data-name="Ellipse 19"
         transform="matrix(0.97,0.242,-0.242,0.97,1619.111,343.731)"
         fill="#ffffff"
         stroke="#832df4"
         stroke-width="2">
        <ellipse
           cx="26.805"
           cy="29.84"
           rx="26.805"
           ry="29.84"
           stroke="none"
           id="ellipse249" />
        <ellipse
           cx="26.805"
           cy="29.84"
           rx="25.805"
           ry="28.84"
           fill="none"
           id="ellipse251" />
      </g>
      <g
         id="Ellipse_20"
         data-name="Ellipse 20"
         transform="matrix(0.856,0.514,-0.515,0.857,1406.685,378.996)"
         fill="#ffffff"
         stroke="#832df4"
         stroke-width="2">
        <ellipse
           cx="27.816999"
           cy="30.344999"
           rx="27.816999"
           ry="30.344999"
           stroke="none"
           id="ellipse254" />
        <ellipse
           cx="27.816999"
           cy="30.344999"
           rx="26.816999"
           ry="29.344999"
           fill="none"
           id="ellipse256" />
      </g>
      <g
         id="Group_130"
         data-name="Group 130"
         transform="translate(1599.604,150.662)">
        <g
           id="Path_224"
           data-name="Path 224"
           transform="translate(2.31,7.269)"
           fill="#ffffff">
          <path
             d="m 11.786701,62.875771 c -7.3910687,0 -10.6415724,-3.174626 -11.27109239,-3.878758 L 5.4605055,0.50000083 H 18.492155 L 23.354952,58.993309 c -0.280008,0.306175 -1.065888,1.080044 -2.471901,1.849854 -1.666889,0.912639 -4.571079,2.006027 -8.9406,2.032138 -0.05179,3.09e-4 -0.10436,4.7e-4 -0.15575,4.7e-4 z"
             stroke="none"
             id="path259" />
          <path
             d="M 5.9200191,1 1.0326176,58.816975 c 0.3416538,0.349792 1.0625114,0.998996 2.2324428,1.642276 2.8808708,1.584019 6.2242108,1.91652 8.5216406,1.91652 0.05038,0 0.10191,-1.49e-4 0.152761,-4.58e-4 4.227559,-0.02527 7.034529,-1.068291 8.64486,-1.938832 1.18033,-0.638088 1.907495,-1.279071 2.253698,-1.626098 L 18.031998,1 H 5.9200191 M 5.0009804,0 H 18.952312 l 4.918269,59.16058 c 0,0 -3.18986,4.16251 -11.92514,4.21471 -0.05278,3.17e-4 -0.106359,4.77e-4 -0.15874,4.77e-4 C 3.1704979,63.375767 1.9073486e-6,59.16058 1.9073486e-6,59.16058 Z"
             stroke="none"
             fill="#832df4"
             id="path261" />
        </g>
        <g
           id="Rectangle_17"
           data-name="Rectangle 17"
           fill="none"
           stroke="#832df4"
           stroke-width="1">
          <rect
             width="28.490999"
             height="8.3400002"
             stroke="none"
             id="rect264"
             x="0"
             y="0" />
          <rect
             x="0.5"
             y="0.5"
             width="27.490999"
             height="7.3400002"
             fill="none"
             id="rect266" />
        </g>
      </g>
    </g>
  </g>
</svg>
