<?xml version="1.0" standalone="no"?>
<!DOCTYPE svg PUBLIC "-//W3C//DTD SVG 1.1//EN" "http://www.w3.org/Graphics/SVG/1.1/DTD/svg11.dtd" >
<svg xmlns="http://www.w3.org/2000/svg" xmlns:xlink="http://www.w3.org/1999/xlink" version="1.1">
<metadata>
Created by FontForge 20201107 at Sun Oct  4 15:41:22 2020
 By Reinhart Previano Koentjoro
Copyright c 2009--2017 The Cantarell Authors
</metadata>
<defs>
<font id="Cantarell-Bold" horiz-adv-x="0" >
  <font-face 
    font-family="Cantarell"
    font-weight="700"
    font-stretch="normal"
    units-per-em="1000"
    panose-1="0 0 0 0 0 0 0 0 0 0"
    ascent="800"
    descent="-200"
    x-height="486"
    cap-height="694"
    bbox="-200 -257 1495 1165"
    underline-thickness="50"
    underline-position="-125"
    stemh="111"
    stemv="123"
    unicode-range="U+0020-FB02"
  />
<missing-glyph horiz-adv-x="500" 
d="M50 -217v956h400v-956h-400zM100 -167h300v856h-300v-856z" />
    <glyph glyph-name="f_f" unicode="ff" horiz-adv-x="724" 
d="M92 0v384h-75v102h75v66c0 118 78 197 194 197c41 0 79 -11 110 -29l-26 -92c-18 10 -49 15 -74 15c-53 0 -81 -28 -81 -80v-77h140v-102h-140v-384h-123zM454 0v384h-75v102h75v66c0 118 78 197 194 197c40 0 79 -11 110 -29l-26 -92c-18 10 -49 15 -74 15
c-53 0 -81 -28 -81 -80v-77h140v-102h-140v-384h-123z" />
    <glyph glyph-name="f_f_i" unicode="ffi" horiz-adv-x="995" 
d="M92 0v384h-75v102h75v66c0 118 78 197 194 197c41 0 79 -11 110 -29l-26 -92c-18 10 -49 15 -74 15c-53 0 -81 -28 -81 -80v-77h140v-102h-140v-384h-123zM454 0v384h-75v102h75v66c0 118 78 197 194 197c40 0 79 -11 110 -29l-26 -92c-18 10 -49 15 -74 15
c-53 0 -81 -28 -81 -80v-77h140v-102h-140v-384h-123zM860 576c-48 0 -78 30 -78 78s30 79 78 79s79 -31 79 -79s-31 -78 -79 -78zM796 0v486h127v-486h-127z" />
    <glyph glyph-name="f_f_l" unicode="ffl" horiz-adv-x="1015" 
d="M92 0v384h-75v102h75v66c0 118 78 197 194 197c41 0 79 -11 110 -29l-26 -92c-18 10 -49 15 -74 15c-53 0 -81 -28 -81 -80v-77h140v-102h-140v-384h-123zM454 0v384h-75v102h75v66c0 118 78 197 194 197c40 0 79 -11 110 -29l-26 -92c-18 10 -49 15 -74 15
c-53 0 -81 -28 -81 -80v-77h140v-102h-140v-384h-123zM923 -7c-85 0 -136 51 -136 135v611h126v-595c0 -34 16 -54 45 -54c9 0 20 2 31 6l27 -85c-27 -12 -62 -18 -93 -18z" />
    <glyph glyph-name="fi" unicode="fi" horiz-adv-x="633" 
d="M92 0v384h-75v102h75v66c0 118 78 197 194 197c41 0 79 -11 110 -29l-26 -92c-18 10 -49 15 -74 15c-53 0 -81 -28 -81 -80v-77h140v-102h-140v-384h-123zM498 576c-48 0 -78 30 -78 78s30 79 78 79s79 -31 79 -79s-31 -78 -79 -78zM434 0v486h127v-486h-127z" />
    <glyph glyph-name="fl" unicode="fl" horiz-adv-x="653" 
d="M92 0v384h-75v102h75v66c0 118 78 197 194 197c41 0 79 -11 110 -29l-26 -92c-18 10 -49 15 -74 15c-53 0 -81 -28 -81 -80v-77h140v-102h-140v-384h-123zM561 -7c-85 0 -136 51 -136 135v611h126v-595c0 -34 16 -54 45 -54c9 0 20 2 31 6l27 -85
c-27 -12 -62 -18 -93 -18z" />
    <glyph glyph-name=".notdef" horiz-adv-x="500" 
d="M50 -217v956h400v-956h-400zM100 -167h300v856h-300v-856z" />
    <glyph glyph-name="A" unicode="A" horiz-adv-x="693" 
d="M16 0l254 694h165l241 -694h-143l-57 174h-266l-57 -174h-137zM248 289h191l-95 294z" />
    <glyph glyph-name="Aacute" unicode="&#xc1;" horiz-adv-x="693" 
d="M330 739l-50 68l163 144l74 -100zM16 0l254 694h165l241 -694h-143l-57 174h-266l-57 -174h-137zM248 289h191l-95 294z" />
    <glyph glyph-name="Abreve" unicode="&#x102;" horiz-adv-x="693" 
d="M339 749c-91 0 -163 56 -177 143l95 57c7 -60 46 -101 97 -101c52 0 91 39 97 102l60 -41c-15 -97 -83 -160 -172 -160zM16 0l254 694h165l241 -694h-143l-57 174h-266l-57 -174h-137zM248 289h191l-95 294z" />
    <glyph glyph-name="uni1EAE" unicode="&#x1eae;" horiz-adv-x="693" 
d="M370 920l-52 48l126 163l84 -76zM344 737c-88 0 -155 48 -164 118l90 51c11 -46 50 -77 97 -77c52 0 93 32 103 79l55 -40c-20 -79 -93 -131 -181 -131zM16 0l254 694h165l241 -694h-143l-57 174h-266l-57 -174h-137zM248 289h191l-95 294z" />
    <glyph glyph-name="uni1EB6" unicode="&#x1eb6;" horiz-adv-x="693" 
d="M339 749c-91 0 -163 56 -177 143l95 57c7 -60 46 -101 97 -101c52 0 91 39 97 102l60 -41c-15 -97 -83 -160 -172 -160zM16 0l254 694h165l241 -694h-143l-57 174h-266l-57 -174h-137zM248 289h191l-95 294zM346 -210c-48 0 -78 30 -78 78s30 79 78 79s79 -31 79 -79
s-31 -78 -79 -78z" />
    <glyph glyph-name="uni1EB0" unicode="&#x1eb0;" horiz-adv-x="693" 
d="M344 922l-145 129l92 79l111 -158zM344 737c-88 0 -155 48 -164 118l90 51c11 -46 50 -77 97 -77c52 0 93 32 103 79l55 -40c-20 -79 -93 -131 -181 -131zM16 0l254 694h165l241 -694h-143l-57 174h-266l-57 -174h-137zM248 289h191l-95 294z" />
    <glyph glyph-name="uni1EB2" unicode="&#x1eb2;" horiz-adv-x="693" 
d="M339 933l-18 58c31 10 53 29 54 45c1 14 -13 24 -38 24c-16 0 -38 -5 -64 -14l-24 74c41 16 86 25 120 25c68 0 110 -34 106 -83c-3 -50 -53 -100 -136 -129zM344 737c-88 0 -155 48 -164 118l90 51c11 -46 50 -77 97 -77c52 0 93 32 103 79l55 -40
c-20 -79 -93 -131 -181 -131zM16 0l254 694h165l241 -694h-143l-57 174h-266l-57 -174h-137zM248 289h191l-95 294z" />
    <glyph glyph-name="uni1EB4" unicode="&#x1eb4;" horiz-adv-x="693" 
d="M254 979l-73 18c20 73 70 117 124 117c52 0 78 -39 112 -39c21 0 40 15 50 40l73 -19c-16 -71 -69 -112 -129 -112c-59 0 -76 36 -108 36c-20 0 -38 -15 -49 -41zM344 737c-88 0 -155 48 -164 118l90 51c11 -46 50 -77 97 -77c52 0 93 32 103 79l55 -40
c-20 -79 -93 -131 -181 -131zM16 0l254 694h165l241 -694h-143l-57 174h-266l-57 -174h-137zM248 289h191l-95 294z" />
    <glyph glyph-name="uni01CD" unicode="&#x1cd;" horiz-adv-x="693" 
d="M315 748l-141 131l75 67l104 -97l110 96l52 -44l-135 -153h-65zM16 0l254 694h165l241 -694h-143l-57 174h-266l-57 -174h-137zM248 289h191l-95 294z" />
    <glyph glyph-name="Acircumflex" unicode="&#xc2;" horiz-adv-x="693" 
d="M185 788l137 155h64l138 -132l-71 -67l-106 91l-110 -91zM16 0l254 694h165l241 -694h-143l-57 174h-266l-57 -174h-137zM248 289h191l-95 294z" />
    <glyph glyph-name="uni1EA4" unicode="&#x1ea4;" horiz-adv-x="693" 
d="M540 879l-53 47l126 164l85 -76zM186 775l147 130h64l130 -107l-75 -67l-102 72l-114 -71zM16 0l254 694h165l241 -694h-143l-57 174h-266l-57 -174h-137zM248 289h191l-95 294z" />
    <glyph glyph-name="uni1EAC" unicode="&#x1eac;" horiz-adv-x="693" 
d="M185 788l137 155h64l138 -132l-71 -67l-106 91l-110 -91zM16 0l254 694h165l241 -694h-143l-57 174h-266l-57 -174h-137zM248 289h191l-95 294zM346 -210c-48 0 -78 30 -78 78s30 79 78 79s79 -31 79 -79s-31 -78 -79 -78z" />
    <glyph glyph-name="uni1EA6" unicode="&#x1ea6;" horiz-adv-x="693" 
d="M514 881l-145 129l92 79l111 -158zM186 775l147 130h64l130 -107l-75 -67l-102 72l-114 -71zM16 0l254 694h165l241 -694h-143l-57 174h-266l-57 -174h-137zM248 289h191l-95 294z" />
    <glyph glyph-name="uni1EA8" unicode="&#x1ea8;" horiz-adv-x="693" 
d="M509 892l-18 58c31 10 52 28 53 45c1 14 -12 24 -37 24c-17 0 -38 -5 -65 -14l-24 74c42 16 86 25 121 25c68 0 109 -34 106 -83c-4 -50 -53 -100 -136 -129zM186 775l147 130h64l130 -107l-75 -67l-102 72l-114 -71zM16 0l254 694h165l241 -694h-143l-57 174h-266
l-57 -174h-137zM248 289h191l-95 294z" />
    <glyph glyph-name="uni1EAA" unicode="&#x1eaa;" horiz-adv-x="693" 
d="M258 996l-73 18c20 73 70 117 124 117c52 0 78 -39 112 -39c21 0 40 15 50 40l73 -19c-16 -71 -69 -112 -129 -112c-59 0 -76 36 -108 36c-20 0 -38 -15 -49 -41zM186 775l147 130h64l130 -107l-75 -67l-102 72l-114 -71zM16 0l254 694h165l241 -694h-143l-57 174h-266
l-57 -174h-137zM248 289h191l-95 294z" />
    <glyph glyph-name="uni0200" unicode="&#x200;" horiz-adv-x="693" 
d="M491 751l-153 127l90 85l121 -157zM268 751l-153 127l90 85l121 -157zM16 0l254 694h165l241 -694h-143l-57 174h-266l-57 -174h-137zM248 289h191l-95 294z" />
    <glyph glyph-name="Adieresis" unicode="&#xc4;" horiz-adv-x="693" 
d="M229 762c-48 0 -79 30 -79 78s31 79 79 79s78 -31 78 -79s-30 -78 -78 -78zM454 762c-47 0 -78 30 -78 78s31 79 78 79c48 0 79 -31 79 -79s-31 -78 -79 -78zM16 0l254 694h165l241 -694h-143l-57 174h-266l-57 -174h-137zM248 289h191l-95 294z" />
    <glyph glyph-name="uni1EA0" unicode="&#x1ea0;" horiz-adv-x="693" 
d="M16 0l254 694h165l241 -694h-143l-57 174h-266l-57 -174h-137zM248 289h191l-95 294zM346 -210c-48 0 -78 30 -78 78s30 79 78 79s79 -31 79 -79s-31 -78 -79 -78z" />
    <glyph glyph-name="Agrave" unicode="&#xc0;" horiz-adv-x="693" 
d="M362 739l-187 112l75 100l163 -144zM16 0l254 694h165l241 -694h-143l-57 174h-266l-57 -174h-137zM248 289h191l-95 294z" />
    <glyph glyph-name="uni1EA2" unicode="&#x1ea2;" horiz-adv-x="693" 
d="M328 742l-22 60c32 15 51 39 51 63c0 20 -16 32 -40 32c-17 0 -40 -6 -63 -18l-29 78c40 22 82 32 118 32c69 0 112 -38 112 -95c0 -60 -46 -116 -127 -152zM16 0l254 694h165l241 -694h-143l-57 174h-266l-57 -174h-137zM248 289h191l-95 294z" />
    <glyph glyph-name="uni0202" unicode="&#x202;" horiz-adv-x="693" 
d="M243 732l-60 41c15 97 81 160 169 160c87 0 160 -55 173 -143l-95 -57c-6 61 -45 102 -94 102c-48 0 -87 -39 -93 -103zM16 0l254 694h165l241 -694h-143l-57 174h-266l-57 -174h-137zM248 289h191l-95 294z" />
    <glyph glyph-name="Amacron" unicode="&#x100;" horiz-adv-x="693" 
d="M179 778v102h337v-102h-337zM16 0l254 694h165l241 -694h-143l-57 174h-266l-57 -174h-137zM248 289h191l-95 294z" />
    <glyph glyph-name="Aogonek" unicode="&#x104;" horiz-adv-x="693" 
d="M16 0l254 694h165l241 -694c-67 -28 -109 -75 -109 -120c0 -29 19 -50 49 -50c12 0 31 4 45 10l10 -71c-26 -15 -57 -23 -92 -23c-80 0 -129 44 -129 109c0 61 41 113 111 145h-28l-57 174h-266l-57 -174h-137zM248 289h191l-95 294z" />
    <glyph glyph-name="Aring" unicode="&#xc5;" horiz-adv-x="693" 
d="M345 740c-69 0 -116 47 -116 117c0 71 47 118 119 118c69 0 116 -46 116 -115c0 -72 -47 -120 -119 -120zM348 813c26 0 43 18 43 44c0 27 -18 45 -46 45c-25 0 -43 -17 -43 -42c0 -28 19 -47 46 -47zM16 0l254 694h165l241 -694h-143l-57 174h-266l-57 -174h-137z
M248 289h191l-95 294z" />
    <glyph glyph-name="Aringacute" unicode="&#x1fa;" horiz-adv-x="693" 
d="M342 740c-70 0 -116 47 -116 117c0 71 47 118 119 118c30 0 57 -9 76 -26l132 82l57 -112l-150 -56v-3c0 -72 -47 -120 -118 -120zM345 813c25 0 43 18 43 44c0 27 -19 45 -46 45c-26 0 -43 -17 -43 -42c0 -28 18 -47 46 -47zM16 0l254 694h165l241 -694h-143l-57 174
h-266l-57 -174h-137zM248 289h191l-95 294z" />
    <glyph glyph-name="Atilde" unicode="&#xc3;" horiz-adv-x="693" 
d="M242 755l-81 20c17 83 66 131 125 131c57 0 87 -47 123 -47c22 0 41 17 51 49l80 -21c-13 -80 -65 -127 -131 -127c-62 0 -83 45 -119 45c-20 0 -39 -18 -48 -50zM16 0l254 694h165l241 -694h-143l-57 174h-266l-57 -174h-137zM248 289h191l-95 294z" />
    <glyph glyph-name="AE" unicode="&#xc6;" horiz-adv-x="1001" 
d="M15 0l420 694h513v-113h-339v-168h312v-113h-312v-187h339v-113h-468v175h-222l-101 -175h-142zM327 294h153v265z" />
    <glyph glyph-name="AEacute" unicode="&#x1fc;" horiz-adv-x="1001" 
d="M523 739l-50 68l163 144l74 -100zM15 0l420 694h513v-113h-339v-168h312v-113h-312v-187h339v-113h-468v175h-222l-101 -175h-142zM327 294h153v265z" />
    <glyph glyph-name="B" unicode="B" horiz-adv-x="654" 
d="M85 0v694h230c160 0 247 -58 247 -165c0 -55 -27 -106 -71 -135c80 -29 126 -92 126 -179c0 -132 -105 -215 -273 -215h-259zM213 590v-180h162c39 22 56 50 56 86c0 60 -45 94 -126 94h-92zM213 104h148c84 0 123 30 123 94c0 67 -46 111 -121 111h-150v-205z" />
    <glyph glyph-name="C" unicode="C" horiz-adv-x="638" 
d="M393 -10c-209 0 -350 141 -350 351c0 218 149 363 369 363c69 0 137 -15 196 -43l-36 -100c-45 18 -108 29 -164 29c-146 0 -232 -84 -232 -231c0 -156 95 -256 248 -256c48 0 104 10 149 27l29 -93c-59 -29 -138 -47 -209 -47z" />
    <glyph glyph-name="Cacute" unicode="&#x106;" horiz-adv-x="638" 
d="M345 739l-50 68l163 144l74 -100zM393 -10c-209 0 -350 141 -350 351c0 218 149 363 369 363c69 0 137 -15 196 -43l-36 -100c-45 18 -108 29 -164 29c-146 0 -232 -84 -232 -231c0 -156 95 -256 248 -256c48 0 104 10 149 27l29 -93c-59 -29 -138 -47 -209 -47z" />
    <glyph glyph-name="Ccaron" unicode="&#x10c;" horiz-adv-x="638" 
d="M330 748l-141 131l75 67l104 -97l110 96l52 -44l-135 -153h-65zM393 -10c-209 0 -350 141 -350 351c0 218 149 363 369 363c69 0 137 -15 196 -43l-36 -100c-45 18 -108 29 -164 29c-146 0 -232 -84 -232 -231c0 -156 95 -256 248 -256c48 0 104 10 149 27l29 -93
c-59 -29 -138 -47 -209 -47z" />
    <glyph glyph-name="Ccedilla" unicode="&#xc7;" horiz-adv-x="638" 
d="M357 -257c-40 0 -79 8 -107 23l17 71c22 -10 56 -16 81 -16c33 0 51 11 51 30c0 28 -35 46 -101 50l18 96c-166 30 -273 161 -273 344c0 218 149 363 369 363c69 0 137 -15 196 -43l-36 -100c-45 18 -108 29 -164 29c-146 0 -232 -84 -232 -231c0 -156 95 -256 248 -256
c48 0 104 10 149 27l29 -93c-57 -28 -131 -46 -200 -47l-8 -41c75 -11 111 -43 111 -97c0 -68 -56 -109 -148 -109z" />
    <glyph glyph-name="uni1E08" unicode="&#x1e08;" horiz-adv-x="638" 
d="M345 739l-50 68l163 144l74 -100zM357 -257c-40 0 -79 8 -107 23l17 71c22 -10 56 -16 81 -16c33 0 51 11 51 30c0 28 -35 46 -101 50l18 96c-166 30 -273 161 -273 344c0 218 149 363 369 363c69 0 137 -15 196 -43l-36 -100c-45 18 -108 29 -164 29
c-146 0 -232 -84 -232 -231c0 -156 95 -256 248 -256c48 0 104 10 149 27l29 -93c-57 -28 -131 -46 -200 -47l-8 -41c75 -11 111 -43 111 -97c0 -68 -56 -109 -148 -109z" />
    <glyph glyph-name="Ccircumflex" unicode="&#x108;" horiz-adv-x="638" 
d="M200 788l137 155h64l138 -132l-71 -67l-106 91l-110 -91zM393 -10c-209 0 -350 141 -350 351c0 218 149 363 369 363c69 0 137 -15 196 -43l-36 -100c-45 18 -108 29 -164 29c-146 0 -232 -84 -232 -231c0 -156 95 -256 248 -256c48 0 104 10 149 27l29 -93
c-59 -29 -138 -47 -209 -47z" />
    <glyph glyph-name="Cdotaccent" unicode="&#x10a;" horiz-adv-x="638" 
d="M345 762c-48 0 -79 31 -79 79s31 79 79 79s78 -31 78 -79s-30 -79 -78 -79zM393 -10c-209 0 -350 141 -350 351c0 218 149 363 369 363c69 0 137 -15 196 -43l-36 -100c-45 18 -108 29 -164 29c-146 0 -232 -84 -232 -231c0 -156 95 -256 248 -256c48 0 104 10 149 27
l29 -93c-59 -29 -138 -47 -209 -47z" />
    <glyph glyph-name="D" unicode="D" horiz-adv-x="734" 
d="M85 0v694h244c226 0 360 -124 360 -333c0 -221 -150 -361 -374 -361h-230zM213 111h117c145 0 226 84 226 233c0 151 -86 239 -237 239h-106v-472z" />
    <glyph glyph-name="uni01C4" unicode="&#x1c4;" horiz-adv-x="1385" 
d="M1031 748l-140 131l75 67l104 -97l110 96l51 -44l-135 -153h-65zM85 0v694h244c226 0 360 -124 360 -333c0 -221 -150 -361 -374 -361h-230zM768 0v83l395 498h-379v113h556v-78l-399 -503h408v-113h-581zM213 111h117c145 0 226 84 226 233c0 151 -86 239 -237 239h-106
v-472z" />
    <glyph glyph-name="Eth" unicode="&#xd0;" horiz-adv-x="734" 
d="M85 0v299h-85v93h85v302h244c226 0 360 -124 360 -333c0 -221 -150 -361 -374 -361h-230zM213 111h117c145 0 226 84 226 233c0 151 -86 239 -237 239h-106v-191h134v-93h-134v-188z" />
    <glyph glyph-name="Dcaron" unicode="&#x10e;" horiz-adv-x="734" 
d="M303 748l-140 131l75 67l104 -97l110 96l51 -44l-135 -153h-65zM85 0v694h244c226 0 360 -124 360 -333c0 -221 -150 -361 -374 -361h-230zM213 111h117c145 0 226 84 226 233c0 151 -86 239 -237 239h-106v-472z" />
    <glyph glyph-name="Dcroat" unicode="&#x110;" horiz-adv-x="734" 
d="M85 0v299h-85v93h85v302h244c226 0 360 -124 360 -333c0 -221 -150 -361 -374 -361h-230zM213 111h117c145 0 226 84 226 233c0 151 -86 239 -237 239h-106v-191h134v-93h-134v-188z" />
    <glyph glyph-name="uni1E0C" unicode="&#x1e0c;" horiz-adv-x="734" 
d="M85 0v694h244c226 0 360 -124 360 -333c0 -221 -150 -361 -374 -361h-230zM213 111h117c145 0 226 84 226 233c0 151 -86 239 -237 239h-106v-472zM346 -210c-47 0 -78 30 -78 78s31 79 78 79c48 0 79 -31 79 -79s-31 -78 -79 -78z" />
    <glyph glyph-name="uni1E0E" unicode="&#x1e0e;" horiz-adv-x="734" 
d="M85 0v694h244c226 0 360 -124 360 -333c0 -221 -150 -361 -374 -361h-230zM213 111h117c145 0 226 84 226 233c0 151 -86 239 -237 239h-106v-472zM179 -189v101h333v-101h-333z" />
    <glyph glyph-name="uni01C5" unicode="&#x1c5;" horiz-adv-x="1211" 
d="M942 557l-140 131l75 66l104 -97l110 97l51 -44l-135 -153h-65zM85 0v694h244c226 0 360 -124 360 -333c0 -221 -150 -361 -374 -361h-230zM213 111h117c145 0 226 84 226 233c0 151 -86 239 -237 239h-106v-472zM767 0v77l240 304h-240v105h402v-77l-240 -304h253v-105
h-415z" />
    <glyph glyph-name="E" unicode="E" horiz-adv-x="605" 
d="M85 0v694h468v-113h-339v-169h311v-113h-311v-186h339v-113h-468z" />
    <glyph glyph-name="Eacute" unicode="&#xc9;" horiz-adv-x="605" 
d="M307 739l-51 68l163 144l75 -100zM85 0v694h468v-113h-339v-169h311v-113h-311v-186h339v-113h-468z" />
    <glyph glyph-name="Ebreve" unicode="&#x114;" horiz-adv-x="605" 
d="M315 749c-91 0 -162 56 -176 143l94 57c7 -60 46 -101 98 -101c51 0 90 39 96 102l61 -41c-15 -97 -84 -160 -173 -160zM85 0v694h468v-113h-339v-169h311v-113h-311v-186h339v-113h-468z" />
    <glyph glyph-name="Ecaron" unicode="&#x11a;" horiz-adv-x="605" 
d="M292 748l-141 131l75 67l104 -97l110 96l51 -44l-134 -153h-65zM85 0v694h468v-113h-339v-169h311v-113h-311v-186h339v-113h-468z" />
    <glyph glyph-name="uni1E1C" unicode="&#x1e1c;" horiz-adv-x="605" 
d="M315 749c-91 0 -162 56 -176 143l94 57c7 -60 46 -101 98 -101c51 0 90 39 96 102l61 -41c-15 -97 -84 -160 -173 -160zM85 0v694h468v-113h-339v-169h311v-113h-311v-186h339v-113h-194l-10 -51c75 -11 111 -43 111 -97c0 -68 -55 -109 -148 -109c-40 0 -79 8 -107 23
l17 71c23 -10 56 -16 82 -16c33 0 51 11 51 30c0 28 -35 46 -102 50l19 99h-187z" />
    <glyph glyph-name="Ecircumflex" unicode="&#xca;" horiz-adv-x="605" 
d="M161 788l138 155h64l137 -132l-70 -67l-107 91l-109 -91zM85 0v694h468v-113h-339v-169h311v-113h-311v-186h339v-113h-468z" />
    <glyph glyph-name="uni1EBE" unicode="&#x1ebe;" horiz-adv-x="605" 
d="M516 879l-52 47l126 164l84 -76zM163 775l146 130h65l130 -107l-76 -67l-101 72l-115 -71zM85 0v694h468v-113h-339v-169h311v-113h-311v-186h339v-113h-468z" />
    <glyph glyph-name="uni1EC6" unicode="&#x1ec6;" horiz-adv-x="605" 
d="M161 788l138 155h64l137 -132l-70 -67l-107 91l-109 -91zM85 0v694h468v-113h-339v-169h311v-113h-311v-186h339v-113h-468zM317 -210c-48 0 -79 30 -79 78s31 79 79 79c47 0 78 -31 78 -79s-31 -78 -78 -78z" />
    <glyph glyph-name="uni1EC0" unicode="&#x1ec0;" horiz-adv-x="605" 
d="M491 881l-146 129l93 79l110 -158zM163 775l146 130h65l130 -107l-76 -67l-101 72l-115 -71zM85 0v694h468v-113h-339v-169h311v-113h-311v-186h339v-113h-468z" />
    <glyph glyph-name="uni1EC2" unicode="&#x1ec2;" horiz-adv-x="605" 
d="M485 892l-17 58c31 10 52 28 53 45c1 14 -13 24 -37 24c-17 0 -39 -5 -65 -14l-24 74c41 16 86 25 120 25c69 0 110 -34 106 -83c-3 -50 -53 -100 -136 -129zM163 775l146 130h65l130 -107l-76 -67l-101 72l-115 -71zM85 0v694h468v-113h-339v-169h311v-113h-311v-186
h339v-113h-468z" />
    <glyph glyph-name="uni1EC4" unicode="&#x1ec4;" horiz-adv-x="605" 
d="M235 996l-74 18c21 73 71 117 125 117c52 0 78 -39 111 -39c22 0 40 15 51 40l73 -19c-17 -71 -69 -112 -129 -112c-59 0 -76 36 -109 36c-19 0 -38 -15 -48 -41zM163 775l146 130h65l130 -107l-76 -67l-101 72l-115 -71zM85 0v694h468v-113h-339v-169h311v-113h-311
v-186h339v-113h-468z" />
    <glyph glyph-name="uni0204" unicode="&#x204;" horiz-adv-x="605" 
d="M468 751l-154 127l91 85l121 -157zM245 751l-154 127l90 85l122 -157zM85 0v694h468v-113h-339v-169h311v-113h-311v-186h339v-113h-468z" />
    <glyph glyph-name="Edieresis" unicode="&#xcb;" horiz-adv-x="605" 
d="M205 762c-47 0 -78 30 -78 78s31 79 78 79c48 0 79 -31 79 -79s-31 -78 -79 -78zM431 762c-48 0 -78 30 -78 78s30 79 78 79s78 -31 78 -79s-30 -78 -78 -78zM85 0v694h468v-113h-339v-169h311v-113h-311v-186h339v-113h-468z" />
    <glyph glyph-name="Edotaccent" unicode="&#x116;" horiz-adv-x="605" 
d="M306 762c-47 0 -78 31 -78 79s31 79 78 79c48 0 79 -31 79 -79s-31 -79 -79 -79zM85 0v694h468v-113h-339v-169h311v-113h-311v-186h339v-113h-468z" />
    <glyph glyph-name="uni1EB8" unicode="&#x1eb8;" horiz-adv-x="605" 
d="M85 0v694h468v-113h-339v-169h311v-113h-311v-186h339v-113h-468zM317 -210c-48 0 -79 30 -79 78s31 79 79 79c47 0 78 -31 78 -79s-31 -78 -78 -78z" />
    <glyph glyph-name="Egrave" unicode="&#xc8;" horiz-adv-x="605" 
d="M339 739l-187 112l74 100l163 -144zM85 0v694h468v-113h-339v-169h311v-113h-311v-186h339v-113h-468z" />
    <glyph glyph-name="uni1EBA" unicode="&#x1eba;" horiz-adv-x="605" 
d="M305 742l-22 60c31 15 50 39 50 63c0 20 -16 32 -39 32c-18 0 -40 -6 -63 -18l-30 78c40 22 83 32 119 32c68 0 112 -38 112 -95c0 -60 -46 -116 -127 -152zM85 0v694h468v-113h-339v-169h311v-113h-311v-186h339v-113h-468z" />
    <glyph glyph-name="uni0206" unicode="&#x206;" horiz-adv-x="605" 
d="M220 732l-61 41c15 97 81 160 170 160c87 0 159 -55 172 -143l-94 -57c-6 61 -46 102 -95 102c-48 0 -87 -39 -92 -103zM85 0v694h468v-113h-339v-169h311v-113h-311v-186h339v-113h-468z" />
    <glyph glyph-name="Emacron" unicode="&#x112;" horiz-adv-x="605" 
d="M156 778v102h337v-102h-337zM85 0v694h468v-113h-339v-169h311v-113h-311v-186h339v-113h-468z" />
    <glyph glyph-name="uni1E16" unicode="&#x1e16;" horiz-adv-x="605" 
d="M307 925l-51 68l163 144l75 -100zM156 778v102h337v-102h-337zM85 0v694h468v-113h-339v-169h311v-113h-311v-186h339v-113h-468z" />
    <glyph glyph-name="uni1E14" unicode="&#x1e14;" horiz-adv-x="605" 
d="M339 925l-187 112l74 100l163 -144zM156 778v102h337v-102h-337zM85 0v694h468v-113h-339v-169h311v-113h-311v-186h339v-113h-468z" />
    <glyph glyph-name="Eogonek" unicode="&#x118;" horiz-adv-x="605" 
d="M85 0v694h468v-113h-339v-169h311v-113h-311v-186h339v-113c-67 -28 -109 -75 -109 -120c0 -29 19 -50 49 -50c12 0 31 4 45 10l10 -71c-26 -15 -57 -23 -92 -23c-80 0 -129 44 -129 109c0 61 41 113 111 145h-353z" />
    <glyph glyph-name="uni1EBC" unicode="&#x1ebc;" horiz-adv-x="605" 
d="M218 755l-80 20c16 83 66 131 125 131c56 0 86 -47 122 -47c23 0 42 17 52 49l79 -21c-12 -80 -64 -127 -130 -127c-63 0 -84 45 -119 45c-20 0 -39 -18 -49 -50zM85 0v694h468v-113h-339v-169h311v-113h-311v-186h339v-113h-468z" />
    <glyph glyph-name="F" unicode="F" horiz-adv-x="583" 
d="M85 0v694h464v-113h-333v-179h300v-113h-300v-289h-131z" />
    <glyph glyph-name="G" unicode="G" horiz-adv-x="725" 
d="M400 -10c-214 0 -356 140 -356 350c0 218 151 364 384 364c78 0 154 -16 214 -45l-37 -101c-53 19 -124 32 -185 32c-155 0 -241 -85 -241 -235c0 -155 92 -252 238 -252c47 0 91 10 126 30v147h-171v110h296v-308c-74 -61 -165 -92 -268 -92z" />
    <glyph glyph-name="Gbreve" unicode="&#x11e;" horiz-adv-x="725" 
d="M379 749c-91 0 -163 56 -177 143l95 57c7 -60 46 -101 98 -101c51 0 90 39 96 102l61 -41c-16 -97 -84 -160 -173 -160zM400 -10c-214 0 -356 140 -356 350c0 218 151 364 384 364c78 0 154 -16 214 -45l-37 -101c-53 19 -124 32 -185 32c-155 0 -241 -85 -241 -235
c0 -155 92 -252 238 -252c47 0 91 10 126 30v147h-171v110h296v-308c-74 -61 -165 -92 -268 -92z" />
    <glyph glyph-name="Gcaron" unicode="&#x1e6;" horiz-adv-x="725" 
d="M355 748l-140 131l75 67l104 -97l110 96l51 -44l-135 -153h-65zM400 -10c-214 0 -356 140 -356 350c0 218 151 364 384 364c78 0 154 -16 214 -45l-37 -101c-53 19 -124 32 -185 32c-155 0 -241 -85 -241 -235c0 -155 92 -252 238 -252c47 0 91 10 126 30v147h-171v110
h296v-308c-74 -61 -165 -92 -268 -92z" />
    <glyph glyph-name="Gcircumflex" unicode="&#x11c;" horiz-adv-x="725" 
d="M225 788l137 155h65l137 -132l-70 -67l-107 91l-109 -91zM400 -10c-214 0 -356 140 -356 350c0 218 151 364 384 364c78 0 154 -16 214 -45l-37 -101c-53 19 -124 32 -185 32c-155 0 -241 -85 -241 -235c0 -155 92 -252 238 -252c47 0 91 10 126 30v147h-171v110h296
v-308c-74 -61 -165 -92 -268 -92z" />
    <glyph glyph-name="uni0122" unicode="&#x122;" horiz-adv-x="725" 
d="M400 -10c-214 0 -356 140 -356 350c0 218 151 364 384 364c78 0 154 -16 214 -45l-37 -101c-53 19 -124 32 -185 32c-155 0 -241 -85 -241 -235c0 -155 92 -252 238 -252c47 0 91 10 126 30v147h-171v110h296v-308c-74 -61 -165 -92 -268 -92zM289 -227
c17 37 28 100 28 167h119c0 -62 -20 -118 -60 -167h-87z" />
    <glyph glyph-name="Gdotaccent" unicode="&#x120;" horiz-adv-x="725" 
d="M370 762c-47 0 -78 31 -78 79s31 79 78 79c48 0 79 -31 79 -79s-31 -79 -79 -79zM400 -10c-214 0 -356 140 -356 350c0 218 151 364 384 364c78 0 154 -16 214 -45l-37 -101c-53 19 -124 32 -185 32c-155 0 -241 -85 -241 -235c0 -155 92 -252 238 -252
c47 0 91 10 126 30v147h-171v110h296v-308c-74 -61 -165 -92 -268 -92z" />
    <glyph glyph-name="uni1E20" unicode="&#x1e20;" horiz-adv-x="725" 
d="M219 778v102h337v-102h-337zM400 -10c-214 0 -356 140 -356 350c0 218 151 364 384 364c78 0 154 -16 214 -45l-37 -101c-53 19 -124 32 -185 32c-155 0 -241 -85 -241 -235c0 -155 92 -252 238 -252c47 0 91 10 126 30v147h-171v110h296v-308c-74 -61 -165 -92 -268 -92
z" />
    <glyph glyph-name="H" unicode="H" horiz-adv-x="750" 
d="M85 0v694h131v-281h318v281h131v-694h-131v298h-318v-298h-131z" />
    <glyph glyph-name="Hbar" unicode="&#x126;" horiz-adv-x="750" 
d="M85 0v503h-75v99h75v92h131v-92h318v92h131v-92h74v-99h-74v-503h-131v298h-318v-298h-131zM216 413h318v90h-318v-90z" />
    <glyph glyph-name="uni1E2A" unicode="&#x1e2a;" horiz-adv-x="750" 
d="M85 0v694h131v-281h318v281h131v-694h-131v298h-318v-298h-131zM374 -220c-82 0 -150 49 -178 123l87 54c22 -51 60 -81 107 -81c49 0 83 27 100 81l64 -35c-27 -90 -91 -142 -180 -142z" />
    <glyph glyph-name="Hcircumflex" unicode="&#x124;" horiz-adv-x="750" 
d="M214 788l137 155h64l138 -132l-71 -67l-106 91l-110 -91zM85 0v694h131v-281h318v281h131v-694h-131v298h-318v-298h-131z" />
    <glyph glyph-name="uni1E24" unicode="&#x1e24;" horiz-adv-x="750" 
d="M85 0v694h131v-281h318v281h131v-694h-131v298h-318v-298h-131zM375 -210c-48 0 -78 30 -78 78s30 79 78 79s79 -31 79 -79s-31 -78 -79 -78z" />
    <glyph glyph-name="I" unicode="I" horiz-adv-x="301" 
d="M85 0v694h131v-694h-131z" />
    <glyph glyph-name="Iacute" unicode="&#xcd;" horiz-adv-x="301" 
d="M135 739l-51 68l163 144l75 -100zM85 0v694h131v-694h-131z" />
    <glyph glyph-name="Ibreve" unicode="&#x12c;" horiz-adv-x="301" 
d="M143 749c-91 0 -163 56 -177 143l95 57c7 -60 46 -101 98 -101c51 0 90 39 96 102l60 -41c-15 -97 -83 -160 -172 -160zM85 0v694h131v-694h-131z" />
    <glyph glyph-name="uni01CF" unicode="&#x1cf;" horiz-adv-x="301" 
d="M119 748l-140 131l75 67l104 -97l110 96l51 -44l-135 -153h-65zM85 0v694h131v-694h-131z" />
    <glyph glyph-name="Icircumflex" unicode="&#xce;" horiz-adv-x="301" 
d="M-11 788l137 155h65l137 -132l-70 -67l-107 91l-109 -91zM85 0v694h131v-694h-131z" />
    <glyph glyph-name="uni0208" unicode="&#x208;" horiz-adv-x="301" 
d="M296 751l-154 127l90 85l122 -157zM73 751l-154 127l90 85l122 -157zM85 0v694h131v-694h-131z" />
    <glyph glyph-name="Idieresis" unicode="&#xcf;" horiz-adv-x="301" 
d="M33 762c-47 0 -78 30 -78 78s31 79 78 79c48 0 79 -31 79 -79s-31 -78 -79 -78zM259 762c-48 0 -79 30 -79 78s31 79 79 79s78 -31 78 -79s-30 -78 -78 -78zM85 0v694h131v-694h-131z" />
    <glyph glyph-name="uni1E2E" unicode="&#x1e2e;" horiz-adv-x="301" 
d="M135 926l-51 69l163 143l75 -99zM33 762c-47 0 -78 30 -78 78s31 79 78 79c48 0 79 -31 79 -79s-31 -78 -79 -78zM259 762c-48 0 -79 30 -79 78s31 79 79 79s78 -31 78 -79s-30 -78 -78 -78zM85 0v694h131v-694h-131z" />
    <glyph glyph-name="Idotaccent" unicode="&#x130;" horiz-adv-x="301" 
d="M134 762c-47 0 -78 31 -78 79s31 79 78 79c48 0 79 -31 79 -79s-31 -79 -79 -79zM85 0v694h131v-694h-131z" />
    <glyph glyph-name="uni1ECA" unicode="&#x1eca;" horiz-adv-x="301" 
d="M85 0v694h131v-694h-131zM151 -210c-48 0 -79 30 -79 78s31 79 79 79c47 0 78 -31 78 -79s-31 -78 -78 -78z" />
    <glyph glyph-name="Igrave" unicode="&#xcc;" horiz-adv-x="301" 
d="M167 739l-187 112l74 100l163 -144zM85 0v694h131v-694h-131z" />
    <glyph glyph-name="uni1EC8" unicode="&#x1ec8;" horiz-adv-x="301" 
d="M132 742l-21 60c31 15 50 39 50 63c0 20 -16 32 -39 32c-18 0 -40 -6 -64 -18l-29 78c40 22 83 32 119 32c68 0 112 -38 112 -95c0 -60 -46 -116 -128 -152zM85 0v694h131v-694h-131z" />
    <glyph glyph-name="uni020A" unicode="&#x20a;" horiz-adv-x="301" 
d="M48 732l-61 41c15 97 81 160 170 160c87 0 159 -55 172 -143l-95 -57c-6 61 -45 102 -94 102c-48 0 -87 -39 -92 -103zM85 0v694h131v-694h-131z" />
    <glyph glyph-name="Imacron" unicode="&#x12a;" horiz-adv-x="301" 
d="M17 774v101h267v-101h-267zM85 0v694h131v-694h-131z" />
    <glyph glyph-name="Iogonek" unicode="&#x12e;" horiz-adv-x="301" 
d="M85 0v694h131v-694c-53 -26 -84 -69 -84 -119c0 -33 12 -52 34 -52c12 0 25 5 34 10l10 -70c-22 -14 -50 -23 -82 -23c-71 0 -113 43 -113 108c0 60 36 113 96 146h-26z" />
    <glyph glyph-name="Itilde" unicode="&#x128;" horiz-adv-x="301" 
d="M46 755l-80 20c16 83 66 131 125 131c56 0 86 -47 122 -47c22 0 41 17 51 49l80 -21c-12 -80 -64 -127 -130 -127c-63 0 -84 45 -119 45c-21 0 -40 -18 -49 -50zM85 0v694h131v-694h-131z" />
    <glyph glyph-name="J" unicode="J" horiz-adv-x="449" 
d="M159 -10c-49 0 -97 11 -139 35l37 100c27 -13 64 -21 93 -21c61 0 94 38 94 108v482h129v-472c0 -148 -78 -232 -214 -232z" />
    <glyph glyph-name="uni00A40301" horiz-adv-x="449" 
d="M291 739l-51 68l163 144l75 -100zM159 -10c-49 0 -97 11 -139 35l37 100c27 -13 64 -21 93 -21c61 0 94 38 94 108v482h129v-472c0 -148 -78 -232 -214 -232z" />
    <glyph glyph-name="Jcircumflex" unicode="&#x134;" horiz-adv-x="449" 
d="M145 788l137 155h65l137 -132l-71 -67l-106 91l-109 -91zM159 -10c-49 0 -97 11 -139 35l37 100c27 -13 64 -21 93 -21c61 0 94 38 94 108v482h129v-472c0 -148 -78 -232 -214 -232z" />
    <glyph glyph-name="K" unicode="K" horiz-adv-x="657" 
d="M86 0v694h131v-322l264 322h157l-271 -323l286 -371h-172l-264 351v-351h-131z" />
    <glyph glyph-name="uni1E30" unicode="&#x1e30;" horiz-adv-x="657" 
d="M312 739l-50 68l163 144l74 -100zM86 0v694h131v-322l264 322h157l-271 -323l286 -371h-172l-264 351v-351h-131z" />
    <glyph glyph-name="uni0136" unicode="&#x136;" horiz-adv-x="657" 
d="M86 0v694h131v-322l264 322h157l-271 -323l286 -371h-172l-264 351v-351h-131zM241 -227c17 37 28 100 28 167h119c0 -62 -20 -118 -61 -167h-86z" />
    <glyph glyph-name="L" unicode="L" horiz-adv-x="537" 
d="M85 0v694h129v-580h299v-114h-428z" />
    <glyph glyph-name="uni01C7" unicode="&#x1c7;" horiz-adv-x="986" 
d="M85 0v694h129v-580h299v-114h-428zM696 -10c-49 0 -97 11 -139 35l37 100c27 -13 64 -21 93 -21c61 0 94 38 94 108v482h129v-472c0 -148 -78 -232 -214 -232z" />
    <glyph glyph-name="Lacute" unicode="&#x139;" horiz-adv-x="537" 
d="M134 739l-51 68l163 144l75 -100zM85 0v694h129v-580h299v-114h-428z" />
    <glyph glyph-name="Lcaron" unicode="&#x13d;" horiz-adv-x="537" 
d="M356 544l-75 10l14 197l106 -13zM85 0v694h129v-580h299v-114h-428z" />
    <glyph glyph-name="uni013B" unicode="&#x13b;" horiz-adv-x="537" 
d="M85 0v694h129v-580h299v-114h-428zM197 -227c18 37 29 100 29 167h119c0 -62 -21 -118 -61 -167h-87z" />
    <glyph glyph-name="Ldot" unicode="&#x13f;" horiz-adv-x="537" 
d="M85 0v694h129v-580h299v-114h-428zM425 294c-51 0 -86 37 -86 85c0 51 35 88 86 88s85 -37 85 -88c0 -48 -34 -85 -85 -85z" />
    <glyph glyph-name="uni1E36" unicode="&#x1e36;" horiz-adv-x="537" 
d="M85 0v694h129v-580h299v-114h-428zM285 -210c-48 0 -79 30 -79 78s31 79 79 79c47 0 78 -31 78 -79s-31 -78 -78 -78z" />
    <glyph glyph-name="uni01C8" unicode="&#x1c8;" horiz-adv-x="808" 
d="M673 576c-48 0 -78 30 -78 78s30 79 78 79s79 -31 79 -79s-31 -78 -79 -78zM85 0v694h129v-580h299v-114h-428zM561 -230l-38 72c53 35 86 94 86 154v490h128v-484c0 -101 -68 -191 -176 -232z" />
    <glyph glyph-name="uni1E3A" unicode="&#x1e3a;" horiz-adv-x="537" 
d="M85 0v694h129v-580h299v-114h-428zM117 -189v101h334v-101h-334z" />
    <glyph glyph-name="Lslash" unicode="&#x141;" horiz-adv-x="537" 
d="M85 0v260l-41 -22l-51 85l92 50v321h129v-251l100 55l50 -87l-150 -81v-216h299v-114h-428z" />
    <glyph glyph-name="M" unicode="M" horiz-adv-x="888" 
d="M85 0v694h127l236 -450l230 450h125v-694h-125v480l-186 -373h-99l-183 359v-466h-125z" />
    <glyph glyph-name="uni1E42" unicode="&#x1e42;" horiz-adv-x="888" 
d="M85 0v694h127l236 -450l230 450h125v-694h-125v480l-186 -373h-99l-183 359v-466h-125zM445 -210c-48 0 -79 30 -79 78s31 79 79 79c47 0 78 -31 78 -79s-31 -78 -78 -78z" />
    <glyph glyph-name="N" unicode="N" horiz-adv-x="777" 
d="M85 0v694h148l335 -517l1 517h123v-694h-144l-341 518v-518h-122z" />
    <glyph glyph-name="uni01CA" unicode="&#x1ca;" horiz-adv-x="1226" 
d="M85 0v694h148l335 -517l1 517h123v-694h-144l-341 518v-518h-122zM937 -10c-50 0 -98 11 -140 35l37 100c27 -13 64 -21 93 -21c61 0 94 38 94 108v482h129v-472c0 -148 -78 -232 -213 -232z" />
    <glyph glyph-name="Nacute" unicode="&#x143;" horiz-adv-x="777" 
d="M372 739l-50 68l162 144l75 -100zM85 0v694h148l335 -517l1 517h123v-694h-144l-341 518v-518h-122z" />
    <glyph glyph-name="Ncaron" unicode="&#x147;" horiz-adv-x="777" 
d="M357 748l-141 131l75 67l104 -97l110 96l51 -44l-134 -153h-65zM85 0v694h148l335 -517l1 517h123v-694h-144l-341 518v-518h-122z" />
    <glyph glyph-name="uni0145" unicode="&#x145;" horiz-adv-x="777" 
d="M85 0v694h148l335 -517l1 517h123v-694h-144l-341 518v-518h-122zM301 -227c17 37 28 100 28 167h119c0 -62 -21 -118 -61 -167h-86z" />
    <glyph glyph-name="uni1E44" unicode="&#x1e44;" horiz-adv-x="777" 
d="M372 762c-48 0 -79 31 -79 79s31 79 79 79c47 0 78 -31 78 -79s-31 -79 -78 -79zM85 0v694h148l335 -517l1 517h123v-694h-144l-341 518v-518h-122z" />
    <glyph glyph-name="uni1E46" unicode="&#x1e46;" horiz-adv-x="777" 
d="M85 0v694h148l335 -517l1 517h123v-694h-144l-341 518v-518h-122zM388 -210c-48 0 -78 30 -78 78s30 79 78 79s78 -31 78 -79s-30 -78 -78 -78z" />
    <glyph glyph-name="Eng" unicode="&#x14a;" horiz-adv-x="780" 
d="M85 0v694h145l342 -511l1 511h122v-712c0 -101 -55 -189 -144 -221l-41 73c38 22 62 74 62 136v13l-365 527v-510h-122z" />
    <glyph glyph-name="uni01CB" unicode="&#x1cb;" horiz-adv-x="1048" 
d="M913 576c-48 0 -78 30 -78 78s30 79 78 79s79 -31 79 -79s-31 -78 -79 -78zM85 0v694h148l335 -517l1 517h123v-694h-144l-341 518v-518h-122zM801 -230l-38 72c53 35 86 94 86 154v490h128v-484c0 -101 -68 -191 -176 -232z" />
    <glyph glyph-name="uni1E48" unicode="&#x1e48;" horiz-adv-x="777" 
d="M85 0v694h148l335 -517l1 517h123v-694h-144l-341 518v-518h-122zM221 -189v101h333v-101h-333z" />
    <glyph glyph-name="Ntilde" unicode="&#xd1;" horiz-adv-x="777" 
d="M283 755l-80 20c17 83 66 131 125 131c56 0 87 -47 123 -47c22 0 41 17 51 49l79 -21c-12 -80 -64 -127 -130 -127c-62 0 -83 45 -119 45c-20 0 -39 -18 -49 -50zM85 0v694h148l335 -517l1 517h123v-694h-144l-341 518v-518h-122z" />
    <glyph glyph-name="O" unicode="O" horiz-adv-x="771" 
d="M378 -9c-200 0 -333 140 -333 351c0 217 137 362 343 362c203 0 338 -141 338 -351c0 -217 -139 -362 -348 -362zM388 103c122 0 204 96 204 239c0 150 -86 249 -214 249c-120 0 -199 -95 -199 -238c0 -150 83 -250 209 -250z" />
    <glyph glyph-name="Oacute" unicode="&#xd3;" horiz-adv-x="771" 
d="M369 739l-50 68l163 144l74 -100zM378 -9c-200 0 -333 140 -333 351c0 217 137 362 343 362c203 0 338 -141 338 -351c0 -217 -139 -362 -348 -362zM388 103c122 0 204 96 204 239c0 150 -86 249 -214 249c-120 0 -199 -95 -199 -238c0 -150 83 -250 209 -250z" />
    <glyph glyph-name="Obreve" unicode="&#x14e;" horiz-adv-x="771" 
d="M378 749c-91 0 -163 56 -177 143l95 57c7 -60 46 -101 97 -101c52 0 91 39 97 102l60 -41c-15 -97 -83 -160 -172 -160zM378 -9c-200 0 -333 140 -333 351c0 217 137 362 343 362c203 0 338 -141 338 -351c0 -217 -139 -362 -348 -362zM388 103c122 0 204 96 204 239
c0 150 -86 249 -214 249c-120 0 -199 -95 -199 -238c0 -150 83 -250 209 -250z" />
    <glyph glyph-name="uni01D1" unicode="&#x1d1;" horiz-adv-x="771" 
d="M354 748l-141 131l75 67l104 -97l110 96l52 -44l-135 -153h-65zM378 -9c-200 0 -333 140 -333 351c0 217 137 362 343 362c203 0 338 -141 338 -351c0 -217 -139 -362 -348 -362zM388 103c122 0 204 96 204 239c0 150 -86 249 -214 249c-120 0 -199 -95 -199 -238
c0 -150 83 -250 209 -250z" />
    <glyph glyph-name="Ocircumflex" unicode="&#xd4;" horiz-adv-x="771" 
d="M224 788l137 155h65l137 -132l-71 -67l-106 91l-110 -91zM378 -9c-200 0 -333 140 -333 351c0 217 137 362 343 362c203 0 338 -141 338 -351c0 -217 -139 -362 -348 -362zM388 103c122 0 204 96 204 239c0 150 -86 249 -214 249c-120 0 -199 -95 -199 -238
c0 -150 83 -250 209 -250z" />
    <glyph glyph-name="uni1ED0" unicode="&#x1ed0;" horiz-adv-x="771" 
d="M579 879l-53 47l127 164l84 -76zM226 775l146 130h64l130 -107l-75 -67l-102 72l-114 -71zM378 -9c-200 0 -333 140 -333 351c0 217 137 362 343 362c203 0 338 -141 338 -351c0 -217 -139 -362 -348 -362zM388 103c122 0 204 96 204 239c0 150 -86 249 -214 249
c-120 0 -199 -95 -199 -238c0 -150 83 -250 209 -250z" />
    <glyph glyph-name="uni1ED8" unicode="&#x1ed8;" horiz-adv-x="771" 
d="M224 788l137 155h65l137 -132l-71 -67l-106 91l-110 -91zM378 -9c-200 0 -333 140 -333 351c0 217 137 362 343 362c203 0 338 -141 338 -351c0 -217 -139 -362 -348 -362zM388 103c122 0 204 96 204 239c0 150 -86 249 -214 249c-120 0 -199 -95 -199 -238
c0 -150 83 -250 209 -250zM385 -210c-47 0 -78 30 -78 78s31 79 78 79c48 0 79 -31 79 -79s-31 -78 -79 -78z" />
    <glyph glyph-name="uni1ED2" unicode="&#x1ed2;" horiz-adv-x="771" 
d="M553 881l-145 129l92 79l111 -158zM226 775l146 130h64l130 -107l-75 -67l-102 72l-114 -71zM378 -9c-200 0 -333 140 -333 351c0 217 137 362 343 362c203 0 338 -141 338 -351c0 -217 -139 -362 -348 -362zM388 103c122 0 204 96 204 239c0 150 -86 249 -214 249
c-120 0 -199 -95 -199 -238c0 -150 83 -250 209 -250z" />
    <glyph glyph-name="uni1ED4" unicode="&#x1ed4;" horiz-adv-x="771" 
d="M548 892l-18 58c31 10 52 28 54 45c1 14 -13 24 -38 24c-17 0 -38 -5 -64 -14l-24 74c41 16 85 25 120 25c68 0 110 -34 106 -83c-3 -50 -53 -100 -136 -129zM226 775l146 130h64l130 -107l-75 -67l-102 72l-114 -71zM378 -9c-200 0 -333 140 -333 351
c0 217 137 362 343 362c203 0 338 -141 338 -351c0 -217 -139 -362 -348 -362zM388 103c122 0 204 96 204 239c0 150 -86 249 -214 249c-120 0 -199 -95 -199 -238c0 -150 83 -250 209 -250z" />
    <glyph glyph-name="uni1ED6" unicode="&#x1ed6;" horiz-adv-x="771" 
d="M297 996l-73 18c20 73 71 117 124 117s78 -39 112 -39c21 0 40 15 51 40l72 -19c-16 -71 -69 -112 -129 -112c-58 0 -75 36 -108 36c-20 0 -38 -15 -49 -41zM226 775l146 130h64l130 -107l-75 -67l-102 72l-114 -71zM378 -9c-200 0 -333 140 -333 351
c0 217 137 362 343 362c203 0 338 -141 338 -351c0 -217 -139 -362 -348 -362zM388 103c122 0 204 96 204 239c0 150 -86 249 -214 249c-120 0 -199 -95 -199 -238c0 -150 83 -250 209 -250z" />
    <glyph glyph-name="uni020C" unicode="&#x20c;" horiz-adv-x="771" 
d="M531 751l-154 127l90 85l122 -157zM307 751l-153 127l90 85l121 -157zM378 -9c-200 0 -333 140 -333 351c0 217 137 362 343 362c203 0 338 -141 338 -351c0 -217 -139 -362 -348 -362zM388 103c122 0 204 96 204 239c0 150 -86 249 -214 249c-120 0 -199 -95 -199 -238
c0 -150 83 -250 209 -250z" />
    <glyph glyph-name="Odieresis" unicode="&#xd6;" horiz-adv-x="771" 
d="M268 762c-48 0 -78 30 -78 78s30 79 78 79s79 -31 79 -79s-31 -78 -79 -78zM494 762c-48 0 -79 30 -79 78s31 79 79 79c47 0 78 -31 78 -79s-31 -78 -78 -78zM378 -9c-200 0 -333 140 -333 351c0 217 137 362 343 362c203 0 338 -141 338 -351
c0 -217 -139 -362 -348 -362zM388 103c122 0 204 96 204 239c0 150 -86 249 -214 249c-120 0 -199 -95 -199 -238c0 -150 83 -250 209 -250z" />
    <glyph glyph-name="uni022A" unicode="&#x22a;" horiz-adv-x="771" 
d="M218 966v102h337v-102h-337zM268 762c-48 0 -78 30 -78 78s30 79 78 79s79 -31 79 -79s-31 -78 -79 -78zM494 762c-48 0 -79 30 -79 78s31 79 79 79c47 0 78 -31 78 -79s-31 -78 -78 -78zM378 -9c-200 0 -333 140 -333 351c0 217 137 362 343 362
c203 0 338 -141 338 -351c0 -217 -139 -362 -348 -362zM388 103c122 0 204 96 204 239c0 150 -86 249 -214 249c-120 0 -199 -95 -199 -238c0 -150 83 -250 209 -250z" />
    <glyph glyph-name="uni0230" unicode="&#x230;" horiz-adv-x="771" 
d="M218 986v102h337v-102h-337zM369 762c-48 0 -78 31 -78 79s30 79 78 79s79 -31 79 -79s-31 -79 -79 -79zM378 -9c-200 0 -333 140 -333 351c0 217 137 362 343 362c203 0 338 -141 338 -351c0 -217 -139 -362 -348 -362zM388 103c122 0 204 96 204 239
c0 150 -86 249 -214 249c-120 0 -199 -95 -199 -238c0 -150 83 -250 209 -250z" />
    <glyph glyph-name="uni1ECC" unicode="&#x1ecc;" horiz-adv-x="771" 
d="M378 -9c-200 0 -333 140 -333 351c0 217 137 362 343 362c203 0 338 -141 338 -351c0 -217 -139 -362 -348 -362zM388 103c122 0 204 96 204 239c0 150 -86 249 -214 249c-120 0 -199 -95 -199 -238c0 -150 83 -250 209 -250zM385 -210c-47 0 -78 30 -78 78s31 79 78 79
c48 0 79 -31 79 -79s-31 -78 -79 -78z" />
    <glyph glyph-name="Ograve" unicode="&#xd2;" horiz-adv-x="771" 
d="M401 739l-187 112l75 100l163 -144zM378 -9c-200 0 -333 140 -333 351c0 217 137 362 343 362c203 0 338 -141 338 -351c0 -217 -139 -362 -348 -362zM388 103c122 0 204 96 204 239c0 150 -86 249 -214 249c-120 0 -199 -95 -199 -238c0 -150 83 -250 209 -250z" />
    <glyph glyph-name="uni1ECE" unicode="&#x1ece;" horiz-adv-x="771" 
d="M367 742l-21 60c31 15 50 39 50 63c0 20 -16 32 -40 32c-17 0 -39 -6 -63 -18l-29 78c40 22 83 32 119 32c68 0 111 -38 111 -95c0 -60 -46 -116 -127 -152zM378 -9c-200 0 -333 140 -333 351c0 217 137 362 343 362c203 0 338 -141 338 -351c0 -217 -139 -362 -348 -362
zM388 103c122 0 204 96 204 239c0 150 -86 249 -214 249c-120 0 -199 -95 -199 -238c0 -150 83 -250 209 -250z" />
    <glyph glyph-name="Ohorn" unicode="&#x1a0;" horiz-adv-x="841" 
d="M378 -9c-200 0 -333 140 -333 351c0 217 137 362 343 362c104 0 189 -37 249 -101c40 4 67 40 67 94c0 34 -10 68 -29 97h117c20 -29 29 -62 29 -100c0 -86 -51 -143 -137 -159c27 -51 42 -113 42 -182c0 -217 -139 -362 -348 -362zM388 103c122 0 204 96 204 239
c0 150 -86 249 -214 249c-120 0 -199 -95 -199 -238c0 -150 83 -250 209 -250z" />
    <glyph glyph-name="uni1EDA" unicode="&#x1eda;" horiz-adv-x="841" 
d="M369 739l-50 68l163 144l74 -100zM378 -9c-200 0 -333 140 -333 351c0 217 137 362 343 362c104 0 189 -37 249 -101c40 4 67 40 67 94c0 34 -10 68 -29 97h117c20 -29 29 -62 29 -100c0 -86 -51 -143 -137 -159c27 -51 42 -113 42 -182c0 -217 -139 -362 -348 -362z
M388 103c122 0 204 96 204 239c0 150 -86 249 -214 249c-120 0 -199 -95 -199 -238c0 -150 83 -250 209 -250z" />
    <glyph glyph-name="uni1EE2" unicode="&#x1ee2;" horiz-adv-x="841" 
d="M378 -9c-200 0 -333 140 -333 351c0 217 137 362 343 362c104 0 189 -37 249 -101c40 4 67 40 67 94c0 34 -10 68 -29 97h117c20 -29 29 -62 29 -100c0 -86 -51 -143 -137 -159c27 -51 42 -113 42 -182c0 -217 -139 -362 -348 -362zM388 103c122 0 204 96 204 239
c0 150 -86 249 -214 249c-120 0 -199 -95 -199 -238c0 -150 83 -250 209 -250zM385 -210c-47 0 -78 30 -78 78s31 79 78 79c48 0 79 -31 79 -79s-31 -78 -79 -78z" />
    <glyph glyph-name="uni1EDC" unicode="&#x1edc;" horiz-adv-x="841" 
d="M401 739l-187 112l75 100l163 -144zM378 -9c-200 0 -333 140 -333 351c0 217 137 362 343 362c104 0 189 -37 249 -101c40 4 67 40 67 94c0 34 -10 68 -29 97h117c20 -29 29 -62 29 -100c0 -86 -51 -143 -137 -159c27 -51 42 -113 42 -182c0 -217 -139 -362 -348 -362z
M388 103c122 0 204 96 204 239c0 150 -86 249 -214 249c-120 0 -199 -95 -199 -238c0 -150 83 -250 209 -250z" />
    <glyph glyph-name="uni1EDE" unicode="&#x1ede;" horiz-adv-x="841" 
d="M367 742l-21 60c31 15 50 39 50 63c0 20 -16 32 -40 32c-17 0 -39 -6 -63 -18l-29 78c40 22 83 32 119 32c68 0 111 -38 111 -95c0 -60 -46 -116 -127 -152zM378 -9c-200 0 -333 140 -333 351c0 217 137 362 343 362c104 0 189 -37 249 -101c40 4 67 40 67 94
c0 34 -10 68 -29 97h117c20 -29 29 -62 29 -100c0 -86 -51 -143 -137 -159c27 -51 42 -113 42 -182c0 -217 -139 -362 -348 -362zM388 103c122 0 204 96 204 239c0 150 -86 249 -214 249c-120 0 -199 -95 -199 -238c0 -150 83 -250 209 -250z" />
    <glyph glyph-name="uni1EE0" unicode="&#x1ee0;" horiz-adv-x="841" 
d="M281 755l-80 20c16 83 66 131 124 131c57 0 87 -47 123 -47c22 0 41 17 51 49l80 -21c-13 -80 -64 -127 -131 -127c-62 0 -83 45 -118 45c-21 0 -40 -18 -49 -50zM378 -9c-200 0 -333 140 -333 351c0 217 137 362 343 362c104 0 189 -37 249 -101c40 4 67 40 67 94
c0 34 -10 68 -29 97h117c20 -29 29 -62 29 -100c0 -86 -51 -143 -137 -159c27 -51 42 -113 42 -182c0 -217 -139 -362 -348 -362zM388 103c122 0 204 96 204 239c0 150 -86 249 -214 249c-120 0 -199 -95 -199 -238c0 -150 83 -250 209 -250z" />
    <glyph glyph-name="Ohungarumlaut" unicode="&#x150;" horiz-adv-x="771" 
d="M240 751l-58 55l122 157l90 -85zM463 751l-58 55l122 157l90 -85zM378 -9c-200 0 -333 140 -333 351c0 217 137 362 343 362c203 0 338 -141 338 -351c0 -217 -139 -362 -348 -362zM388 103c122 0 204 96 204 239c0 150 -86 249 -214 249c-120 0 -199 -95 -199 -238
c0 -150 83 -250 209 -250z" />
    <glyph glyph-name="uni020E" unicode="&#x20e;" horiz-adv-x="771" 
d="M282 732l-60 41c15 97 81 160 169 160s160 -55 173 -143l-95 -57c-6 61 -45 102 -94 102c-48 0 -87 -39 -93 -103zM378 -9c-200 0 -333 140 -333 351c0 217 137 362 343 362c203 0 338 -141 338 -351c0 -217 -139 -362 -348 -362zM388 103c122 0 204 96 204 239
c0 150 -86 249 -214 249c-120 0 -199 -95 -199 -238c0 -150 83 -250 209 -250z" />
    <glyph glyph-name="Omacron" unicode="&#x14c;" horiz-adv-x="771" 
d="M218 778v102h337v-102h-337zM378 -9c-200 0 -333 140 -333 351c0 217 137 362 343 362c203 0 338 -141 338 -351c0 -217 -139 -362 -348 -362zM388 103c122 0 204 96 204 239c0 150 -86 249 -214 249c-120 0 -199 -95 -199 -238c0 -150 83 -250 209 -250z" />
    <glyph glyph-name="uni1E52" unicode="&#x1e52;" horiz-adv-x="771" 
d="M369 925l-50 68l163 144l74 -100zM218 778v102h337v-102h-337zM378 -9c-200 0 -333 140 -333 351c0 217 137 362 343 362c203 0 338 -141 338 -351c0 -217 -139 -362 -348 -362zM388 103c122 0 204 96 204 239c0 150 -86 249 -214 249c-120 0 -199 -95 -199 -238
c0 -150 83 -250 209 -250z" />
    <glyph glyph-name="uni1E50" unicode="&#x1e50;" horiz-adv-x="771" 
d="M401 925l-187 112l75 100l163 -144zM218 778v102h337v-102h-337zM378 -9c-200 0 -333 140 -333 351c0 217 137 362 343 362c203 0 338 -141 338 -351c0 -217 -139 -362 -348 -362zM388 103c122 0 204 96 204 239c0 150 -86 249 -214 249c-120 0 -199 -95 -199 -238
c0 -150 83 -250 209 -250z" />
    <glyph glyph-name="uni01EA" unicode="&#x1ea;" horiz-adv-x="771" 
d="M408 -254c-80 0 -130 46 -130 114c0 51 29 98 80 132c-189 9 -313 147 -313 350c0 217 137 362 343 362c203 0 338 -141 338 -351c0 -180 -96 -311 -248 -349c-52 -31 -83 -76 -83 -118c0 -32 19 -56 49 -56c11 0 29 4 45 11l9 -71c-23 -15 -57 -24 -90 -24zM388 103
c122 0 204 96 204 239c0 150 -86 249 -214 249c-120 0 -199 -95 -199 -238c0 -150 83 -250 209 -250z" />
    <glyph glyph-name="Oslash" unicode="&#xd8;" horiz-adv-x="771" 
d="M179 -50l-76 49l48 74c-67 62 -106 155 -106 269c0 217 137 362 343 362c58 0 110 -12 155 -33l50 76l79 -49l-52 -79c67 -61 106 -153 106 -266c0 -217 -139 -362 -348 -362c-56 0 -107 11 -151 32zM179 353c0 -67 16 -124 46 -167l251 382c-29 15 -62 23 -98 23
c-120 0 -199 -95 -199 -238zM388 103c122 0 204 96 204 239c0 66 -16 122 -46 164l-251 -381c27 -14 59 -22 93 -22z" />
    <glyph glyph-name="Oslashacute" unicode="&#x1fe;" horiz-adv-x="771" 
d="M369 739l-50 68l163 144l74 -100zM179 -50l-76 49l48 74c-67 62 -106 155 -106 269c0 217 137 362 343 362c58 0 110 -12 155 -33l50 76l79 -49l-52 -79c67 -61 106 -153 106 -266c0 -217 -139 -362 -348 -362c-56 0 -107 11 -151 32zM179 353c0 -67 16 -124 46 -167
l251 382c-29 15 -62 23 -98 23c-120 0 -199 -95 -199 -238zM388 103c122 0 204 96 204 239c0 66 -16 122 -46 164l-251 -381c27 -14 59 -22 93 -22z" />
    <glyph glyph-name="Otilde" unicode="&#xd5;" horiz-adv-x="771" 
d="M281 755l-80 20c16 83 66 131 124 131c57 0 87 -47 123 -47c22 0 41 17 51 49l80 -21c-13 -80 -64 -127 -131 -127c-62 0 -83 45 -118 45c-21 0 -40 -18 -49 -50zM378 -9c-200 0 -333 140 -333 351c0 217 137 362 343 362c203 0 338 -141 338 -351
c0 -217 -139 -362 -348 -362zM388 103c122 0 204 96 204 239c0 150 -86 249 -214 249c-120 0 -199 -95 -199 -238c0 -150 83 -250 209 -250z" />
    <glyph glyph-name="uni1E4C" unicode="&#x1e4c;" horiz-adv-x="771" 
d="M370 953l-51 68l163 144l75 -100zM281 755l-80 20c16 83 66 131 124 131c57 0 87 -47 123 -47c22 0 41 17 51 49l80 -21c-13 -80 -64 -127 -131 -127c-62 0 -83 45 -118 45c-21 0 -40 -18 -49 -50zM378 -9c-200 0 -333 140 -333 351c0 217 137 362 343 362
c203 0 338 -141 338 -351c0 -217 -139 -362 -348 -362zM388 103c122 0 204 96 204 239c0 150 -86 249 -214 249c-120 0 -199 -95 -199 -238c0 -150 83 -250 209 -250z" />
    <glyph glyph-name="uni1E4E" unicode="&#x1e4e;" horiz-adv-x="771" 
d="M269 976c-48 0 -79 31 -79 78c0 49 31 79 79 79c47 0 78 -30 78 -79c0 -47 -31 -78 -78 -78zM494 976c-48 0 -78 31 -78 78c0 49 30 79 78 79s79 -30 79 -79c0 -47 -31 -78 -79 -78zM281 755l-80 20c16 83 66 131 124 131c57 0 87 -47 123 -47c22 0 41 17 51 49l80 -21
c-13 -80 -64 -127 -131 -127c-62 0 -83 45 -118 45c-21 0 -40 -18 -49 -50zM378 -9c-200 0 -333 140 -333 351c0 217 137 362 343 362c203 0 338 -141 338 -351c0 -217 -139 -362 -348 -362zM388 103c122 0 204 96 204 239c0 150 -86 249 -214 249
c-120 0 -199 -95 -199 -238c0 -150 83 -250 209 -250z" />
    <glyph glyph-name="uni022C" unicode="&#x22c;" horiz-adv-x="771" 
d="M219 992v102h337v-102h-337zM281 755l-80 20c16 83 66 131 124 131c57 0 87 -47 123 -47c22 0 41 17 51 49l80 -21c-13 -80 -64 -127 -131 -127c-62 0 -83 45 -118 45c-21 0 -40 -18 -49 -50zM378 -9c-200 0 -333 140 -333 351c0 217 137 362 343 362
c203 0 338 -141 338 -351c0 -217 -139 -362 -348 -362zM388 103c122 0 204 96 204 239c0 150 -86 249 -214 249c-120 0 -199 -95 -199 -238c0 -150 83 -250 209 -250z" />
    <glyph glyph-name="OE" unicode="&#x152;" horiz-adv-x="1028" 
d="M409 -9c-225 0 -364 138 -364 351c0 219 144 362 369 362c34 0 70 -4 102 -10h460v-113h-339v-168h311v-113h-311v-187h339v-113h-468c-31 -5 -66 -9 -99 -9zM179 353c0 -151 92 -250 234 -250c37 0 70 6 95 15v455c-28 12 -65 18 -104 18c-139 0 -225 -93 -225 -238z
" />
    <glyph glyph-name="P" unicode="P" horiz-adv-x="622" 
d="M85 0v694h238c162 0 264 -87 264 -226c0 -148 -114 -245 -286 -245h-87v-223h-129zM311 581h-97v-246h110c82 0 129 42 129 117c0 77 -57 129 -142 129z" />
    <glyph glyph-name="Thorn" unicode="&#xde;" horiz-adv-x="622" 
d="M85 0v694h129v-95h109c157 0 264 -94 264 -234c0 -143 -110 -238 -276 -238h-97v-127h-129zM314 486h-100v-246h110c84 0 129 40 129 115c0 80 -54 131 -139 131z" />
    <glyph glyph-name="Q" unicode="Q" horiz-adv-x="777" 
d="M378 -9c-200 0 -333 140 -333 351c0 217 137 362 343 362c203 0 338 -141 338 -351c0 -95 -27 -176 -74 -237l92 -87l-79 -77l-95 91c-53 -33 -118 -52 -192 -52zM388 103c36 0 68 8 96 22l-132 127l75 77l134 -127c21 38 32 85 32 140c0 153 -83 249 -215 249
c-123 0 -200 -92 -200 -238c0 -153 81 -250 210 -250z" />
    <glyph glyph-name="R" unicode="R" horiz-adv-x="654" 
d="M85 0v694h259c152 0 246 -74 246 -202c0 -94 -50 -168 -130 -206l174 -286h-155l-148 259h-117v-259h-129zM327 582h-113v-214h130c72 0 112 39 112 104c0 69 -48 110 -129 110z" />
    <glyph glyph-name="Racute" unicode="&#x154;" horiz-adv-x="654" 
d="M307 739l-51 68l163 144l75 -100zM85 0v694h259c152 0 246 -74 246 -202c0 -94 -50 -168 -130 -206l174 -286h-155l-148 259h-117v-259h-129zM327 582h-113v-214h130c72 0 112 39 112 104c0 69 -48 110 -129 110z" />
    <glyph glyph-name="Rcaron" unicode="&#x158;" horiz-adv-x="654" 
d="M291 748l-140 131l75 67l104 -97l110 96l51 -44l-135 -153h-65zM85 0v694h259c152 0 246 -74 246 -202c0 -94 -50 -168 -130 -206l174 -286h-155l-148 259h-117v-259h-129zM327 582h-113v-214h130c72 0 112 39 112 104c0 69 -48 110 -129 110z" />
    <glyph glyph-name="uni0156" unicode="&#x156;" horiz-adv-x="654" 
d="M85 0v694h259c152 0 246 -74 246 -202c0 -94 -50 -168 -130 -206l174 -286h-155l-148 259h-117v-259h-129zM327 582h-113v-214h130c72 0 112 39 112 104c0 69 -48 110 -129 110zM235 -227c18 37 29 100 29 167h119c0 -62 -21 -118 -61 -167h-87z" />
    <glyph glyph-name="uni0210" unicode="&#x210;" horiz-adv-x="654" 
d="M468 751l-154 127l90 85l122 -157zM245 751l-154 127l90 85l121 -157zM85 0v694h259c152 0 246 -74 246 -202c0 -94 -50 -168 -130 -206l174 -286h-155l-148 259h-117v-259h-129zM327 582h-113v-214h130c72 0 112 39 112 104c0 69 -48 110 -129 110z" />
    <glyph glyph-name="uni1E5A" unicode="&#x1e5a;" horiz-adv-x="654" 
d="M85 0v694h259c152 0 246 -74 246 -202c0 -94 -50 -168 -130 -206l174 -286h-155l-148 259h-117v-259h-129zM327 582h-113v-214h130c72 0 112 39 112 104c0 69 -48 110 -129 110zM323 -210c-48 0 -79 30 -79 78s31 79 79 79c47 0 78 -31 78 -79s-31 -78 -78 -78z" />
    <glyph glyph-name="uni0212" unicode="&#x212;" horiz-adv-x="654" 
d="M219 732l-60 41c15 97 81 160 169 160s160 -55 173 -143l-95 -57c-6 61 -45 102 -94 102c-48 0 -87 -39 -93 -103zM85 0v694h259c152 0 246 -74 246 -202c0 -94 -50 -168 -130 -206l174 -286h-155l-148 259h-117v-259h-129zM327 582h-113v-214h130c72 0 112 39 112 104
c0 69 -48 110 -129 110z" />
    <glyph glyph-name="uni1E5E" unicode="&#x1e5e;" horiz-adv-x="654" 
d="M85 0v694h259c152 0 246 -74 246 -202c0 -94 -50 -168 -130 -206l174 -286h-155l-148 259h-117v-259h-129zM327 582h-113v-214h130c72 0 112 39 112 104c0 69 -48 110 -129 110zM155 -189v101h334v-101h-334z" />
    <glyph glyph-name="S" unicode="S" horiz-adv-x="585" 
d="M277 -10c-80 0 -165 21 -239 55l36 104c69 -29 146 -43 209 -43c86 0 130 31 130 82c0 141 -364 63 -364 300c0 131 111 216 277 216c68 0 140 -15 199 -41l-37 -102c-49 19 -112 30 -170 30c-86 0 -135 -30 -135 -83c0 -140 365 -53 365 -304
c0 -130 -101 -214 -271 -214z" />
    <glyph glyph-name="Sacute" unicode="&#x15a;" horiz-adv-x="585" 
d="M271 739l-50 68l162 144l75 -100zM277 -10c-80 0 -165 21 -239 55l36 104c69 -29 146 -43 209 -43c86 0 130 31 130 82c0 141 -364 63 -364 300c0 131 111 216 277 216c68 0 140 -15 199 -41l-37 -102c-49 19 -112 30 -170 30c-86 0 -135 -30 -135 -83
c0 -140 365 -53 365 -304c0 -130 -101 -214 -271 -214z" />
    <glyph glyph-name="uni1E64" unicode="&#x1e64;" horiz-adv-x="585" 
d="M197 889c-48 0 -78 30 -78 78s30 79 78 79s79 -31 79 -79s-31 -78 -79 -78zM271 739l-50 68l162 144l75 -100zM277 -10c-80 0 -165 21 -239 55l36 104c69 -29 146 -43 209 -43c86 0 130 31 130 82c0 141 -364 63 -364 300c0 131 111 216 277 216c68 0 140 -15 199 -41
l-37 -102c-49 19 -112 30 -170 30c-86 0 -135 -30 -135 -83c0 -140 365 -53 365 -304c0 -130 -101 -214 -271 -214z" />
    <glyph glyph-name="uniA78B" unicode="&#xa78b;" horiz-adv-x="276" 
d="M88 88l-16 617h141l-16 -617h-109z" />
    <glyph glyph-name="Scaron" unicode="&#x160;" horiz-adv-x="585" 
d="M256 748l-141 131l75 67l104 -97l110 96l51 -44l-134 -153h-65zM277 -10c-80 0 -165 21 -239 55l36 104c69 -29 146 -43 209 -43c86 0 130 31 130 82c0 141 -364 63 -364 300c0 131 111 216 277 216c68 0 140 -15 199 -41l-37 -102c-49 19 -112 30 -170 30
c-86 0 -135 -30 -135 -83c0 -140 365 -53 365 -304c0 -130 -101 -214 -271 -214z" />
    <glyph glyph-name="uni1E66" unicode="&#x1e66;" horiz-adv-x="585" 
d="M289 931c-48 0 -79 30 -79 78s31 79 79 79c47 0 78 -31 78 -79s-31 -78 -78 -78zM256 748l-141 131l75 67l104 -97l110 96l51 -44l-134 -153h-65zM277 -10c-80 0 -165 21 -239 55l36 104c69 -29 146 -43 209 -43c86 0 130 31 130 82c0 141 -364 63 -364 300
c0 131 111 216 277 216c68 0 140 -15 199 -41l-37 -102c-49 19 -112 30 -170 30c-86 0 -135 -30 -135 -83c0 -140 365 -53 365 -304c0 -130 -101 -214 -271 -214z" />
    <glyph glyph-name="Scedilla" unicode="&#x15e;" horiz-adv-x="585" 
d="M286 -257c-40 0 -79 8 -107 23l17 71c23 -10 56 -16 82 -16c33 0 51 11 51 30c0 28 -35 46 -102 50l17 90c-70 5 -142 25 -206 54l36 104c69 -29 146 -43 209 -43c86 0 130 31 130 82c0 141 -364 63 -364 300c0 131 111 216 277 216c68 0 140 -15 199 -41l-37 -102
c-49 19 -112 30 -170 30c-86 0 -135 -30 -135 -83c0 -140 365 -53 365 -304c0 -116 -80 -195 -216 -211l-9 -44c75 -11 111 -43 111 -97c0 -68 -55 -109 -148 -109z" />
    <glyph glyph-name="Scircumflex" unicode="&#x15c;" horiz-adv-x="585" 
d="M126 788l137 155h64l137 -132l-70 -67l-107 91l-109 -91zM277 -10c-80 0 -165 21 -239 55l36 104c69 -29 146 -43 209 -43c86 0 130 31 130 82c0 141 -364 63 -364 300c0 131 111 216 277 216c68 0 140 -15 199 -41l-37 -102c-49 19 -112 30 -170 30
c-86 0 -135 -30 -135 -83c0 -140 365 -53 365 -304c0 -130 -101 -214 -271 -214z" />
    <glyph glyph-name="uni0218" unicode="&#x218;" horiz-adv-x="585" 
d="M277 -10c-80 0 -165 21 -239 55l36 104c69 -29 146 -43 209 -43c86 0 130 31 130 82c0 141 -364 63 -364 300c0 131 111 216 277 216c68 0 140 -15 199 -41l-37 -102c-49 19 -112 30 -170 30c-86 0 -135 -30 -135 -83c0 -140 365 -53 365 -304
c0 -130 -101 -214 -271 -214zM203 -227c18 37 29 100 29 167h119c0 -62 -21 -118 -61 -167h-87z" />
    <glyph glyph-name="uni1E60" unicode="&#x1e60;" horiz-adv-x="585" 
d="M271 762c-48 0 -79 31 -79 79s31 79 79 79c47 0 78 -31 78 -79s-31 -79 -78 -79zM277 -10c-80 0 -165 21 -239 55l36 104c69 -29 146 -43 209 -43c86 0 130 31 130 82c0 141 -364 63 -364 300c0 131 111 216 277 216c68 0 140 -15 199 -41l-37 -102
c-49 19 -112 30 -170 30c-86 0 -135 -30 -135 -83c0 -140 365 -53 365 -304c0 -130 -101 -214 -271 -214z" />
    <glyph glyph-name="uni1E62" unicode="&#x1e62;" horiz-adv-x="585" 
d="M277 -10c-80 0 -165 21 -239 55l36 104c69 -29 146 -43 209 -43c86 0 130 31 130 82c0 141 -364 63 -364 300c0 131 111 216 277 216c68 0 140 -15 199 -41l-37 -102c-49 19 -112 30 -170 30c-86 0 -135 -30 -135 -83c0 -140 365 -53 365 -304
c0 -130 -101 -214 -271 -214zM291 -210c-48 0 -79 30 -79 78s31 79 79 79c47 0 78 -31 78 -79s-31 -78 -78 -78z" />
    <glyph glyph-name="uni1E68" unicode="&#x1e68;" horiz-adv-x="585" 
d="M271 762c-48 0 -79 31 -79 79s31 79 79 79c47 0 78 -31 78 -79s-31 -79 -78 -79zM277 -10c-80 0 -165 21 -239 55l36 104c69 -29 146 -43 209 -43c86 0 130 31 130 82c0 141 -364 63 -364 300c0 131 111 216 277 216c68 0 140 -15 199 -41l-37 -102
c-49 19 -112 30 -170 30c-86 0 -135 -30 -135 -83c0 -140 365 -53 365 -304c0 -130 -101 -214 -271 -214zM291 -210c-48 0 -79 30 -79 78s31 79 79 79c47 0 78 -31 78 -79s-31 -78 -78 -78z" />
    <glyph glyph-name="uni1E9E" unicode="&#x1e9e;" horiz-adv-x="727" 
d="M447 -10c-57 0 -113 13 -162 37l39 101c36 -16 82 -26 121 -26c67 0 106 31 106 84c0 67 -70 114 -183 132l123 220c-26 34 -72 54 -128 54c-95 0 -155 -56 -155 -141v-451h-130v451c0 152 114 253 290 253c126 0 231 -51 272 -133l-106 -183c97 -30 151 -101 151 -193
c0 -122 -96 -205 -238 -205z" />
    <glyph glyph-name="uni018F" unicode="&#x18f;" horiz-adv-x="742" 
d="M319 702c230 0 372 -133 372 -353c0 -216 -138 -359 -339 -359c-181 0 -298 118 -298 295c0 33 2 73 6 107h492c-22 132 -111 198 -254 198c-66 0 -134 -15 -196 -43l-29 97c75 39 158 58 246 58zM363 102c115 0 182 61 193 184h-380c0 -122 69 -184 187 -184z" />
    <glyph glyph-name="T" unicode="T" horiz-adv-x="607" 
d="M239 0v581h-222v113h573v-113h-223v-581h-128z" />
    <glyph glyph-name="Tbar" unicode="&#x166;" horiz-adv-x="607" 
d="M239 0v290h-109v94h109v197h-222v113h573v-113h-223v-197h110v-94h-110v-290h-128z" />
    <glyph glyph-name="Tcaron" unicode="&#x164;" horiz-adv-x="607" 
d="M272 748l-141 131l75 67l104 -97l110 96l52 -44l-135 -153h-65zM239 0v581h-222v113h573v-113h-223v-581h-128z" />
    <glyph glyph-name="uni0162" unicode="&#x162;" horiz-adv-x="607" 
d="M239 0v581h-222v113h573v-113h-223v-581h-21l-9 -51c74 -11 111 -43 111 -97c0 -68 -56 -109 -148 -109c-41 0 -79 8 -107 23l17 71c22 -10 56 -16 81 -16c33 0 51 11 51 30c0 28 -35 46 -101 50l18 99h-20z" />
    <glyph glyph-name="uni021A" unicode="&#x21a;" horiz-adv-x="607" 
d="M239 0v581h-222v113h573v-113h-223v-581h-128zM217 -227c17 37 28 100 28 167h119c0 -62 -20 -118 -61 -167h-86z" />
    <glyph glyph-name="uni1E6C" unicode="&#x1e6c;" horiz-adv-x="607" 
d="M239 0v581h-222v113h573v-113h-223v-581h-128zM304 -210c-48 0 -78 30 -78 78s30 79 78 79s79 -31 79 -79s-31 -78 -79 -78z" />
    <glyph glyph-name="uni1E6E" unicode="&#x1e6e;" horiz-adv-x="607" 
d="M239 0v581h-222v113h573v-113h-223v-581h-128zM137 -189v101h333v-101h-333z" />
    <glyph glyph-name="U" unicode="U" horiz-adv-x="710" 
d="M348 -10c-170 0 -276 104 -276 270v434h129v-424c0 -105 59 -168 163 -168c93 0 148 56 148 150v442h127v-427c0 -167 -115 -277 -291 -277z" />
    <glyph glyph-name="Uacute" unicode="&#xda;" horiz-adv-x="710" 
d="M339 739l-50 68l162 144l75 -100zM348 -10c-170 0 -276 104 -276 270v434h129v-424c0 -105 59 -168 163 -168c93 0 148 56 148 150v442h127v-427c0 -167 -115 -277 -291 -277z" />
    <glyph glyph-name="Ubreve" unicode="&#x16c;" horiz-adv-x="710" 
d="M347 749c-90 0 -162 56 -176 143l95 57c6 -60 45 -101 97 -101c51 0 90 39 96 102l61 -41c-15 -97 -83 -160 -173 -160zM348 -10c-170 0 -276 104 -276 270v434h129v-424c0 -105 59 -168 163 -168c93 0 148 56 148 150v442h127v-427c0 -167 -115 -277 -291 -277z" />
    <glyph glyph-name="uni01D3" unicode="&#x1d3;" horiz-adv-x="710" 
d="M324 748l-141 131l75 67l104 -97l110 96l51 -44l-134 -153h-65zM348 -10c-170 0 -276 104 -276 270v434h129v-424c0 -105 59 -168 163 -168c93 0 148 56 148 150v442h127v-427c0 -167 -115 -277 -291 -277z" />
    <glyph glyph-name="Ucircumflex" unicode="&#xdb;" horiz-adv-x="710" 
d="M194 788l137 155h64l137 -132l-70 -67l-107 91l-109 -91zM348 -10c-170 0 -276 104 -276 270v434h129v-424c0 -105 59 -168 163 -168c93 0 148 56 148 150v442h127v-427c0 -167 -115 -277 -291 -277z" />
    <glyph glyph-name="uni0214" unicode="&#x214;" horiz-adv-x="710" 
d="M500 751l-153 127l90 85l121 -157zM277 751l-154 127l91 85l121 -157zM348 -10c-170 0 -276 104 -276 270v434h129v-424c0 -105 59 -168 163 -168c93 0 148 56 148 150v442h127v-427c0 -167 -115 -277 -291 -277z" />
    <glyph glyph-name="Udieresis" unicode="&#xdc;" horiz-adv-x="710" 
d="M238 762c-48 0 -79 30 -79 78s31 79 79 79c47 0 78 -31 78 -79s-31 -78 -78 -78zM463 762c-48 0 -78 30 -78 78s30 79 78 79s79 -31 79 -79s-31 -78 -79 -78zM348 -10c-170 0 -276 104 -276 270v434h129v-424c0 -105 59 -168 163 -168c93 0 148 56 148 150v442h127v-427
c0 -167 -115 -277 -291 -277z" />
    <glyph glyph-name="uni01D7" unicode="&#x1d7;" horiz-adv-x="710" 
d="M339 926l-50 69l162 143l75 -99zM238 762c-48 0 -79 30 -79 78s31 79 79 79c47 0 78 -31 78 -79s-31 -78 -78 -78zM463 762c-48 0 -78 30 -78 78s30 79 78 79s79 -31 79 -79s-31 -78 -79 -78zM348 -10c-170 0 -276 104 -276 270v434h129v-424c0 -105 59 -168 163 -168
c93 0 148 56 148 150v442h127v-427c0 -167 -115 -277 -291 -277z" />
    <glyph glyph-name="uni01D9" unicode="&#x1d9;" horiz-adv-x="710" 
d="M324 935l-141 132l75 66l104 -97l110 97l51 -44l-134 -154h-65zM238 762c-48 0 -79 30 -79 78s31 79 79 79c47 0 78 -31 78 -79s-31 -78 -78 -78zM463 762c-48 0 -78 30 -78 78s30 79 78 79s79 -31 79 -79s-31 -78 -79 -78zM348 -10c-170 0 -276 104 -276 270v434h129
v-424c0 -105 59 -168 163 -168c93 0 148 56 148 150v442h127v-427c0 -167 -115 -277 -291 -277z" />
    <glyph glyph-name="uni01DB" unicode="&#x1db;" horiz-adv-x="710" 
d="M371 926l-187 113l75 99l162 -143zM238 762c-48 0 -79 30 -79 78s31 79 79 79c47 0 78 -31 78 -79s-31 -78 -78 -78zM463 762c-48 0 -78 30 -78 78s30 79 78 79s79 -31 79 -79s-31 -78 -79 -78zM348 -10c-170 0 -276 104 -276 270v434h129v-424c0 -105 59 -168 163 -168
c93 0 148 56 148 150v442h127v-427c0 -167 -115 -277 -291 -277z" />
    <glyph glyph-name="uni01D5" unicode="&#x1d5;" horiz-adv-x="710" 
d="M188 966v102h337v-102h-337zM238 762c-48 0 -79 30 -79 78s31 79 79 79c47 0 78 -31 78 -79s-31 -78 -78 -78zM463 762c-48 0 -78 30 -78 78s30 79 78 79s79 -31 79 -79s-31 -78 -79 -78zM348 -10c-170 0 -276 104 -276 270v434h129v-424c0 -105 59 -168 163 -168
c93 0 148 56 148 150v442h127v-427c0 -167 -115 -277 -291 -277z" />
    <glyph glyph-name="uni1EE4" unicode="&#x1ee4;" horiz-adv-x="710" 
d="M348 -10c-170 0 -276 104 -276 270v434h129v-424c0 -105 59 -168 163 -168c93 0 148 56 148 150v442h127v-427c0 -167 -115 -277 -291 -277zM355 -210c-48 0 -78 30 -78 78s30 79 78 79s78 -31 78 -79s-30 -78 -78 -78z" />
    <glyph glyph-name="Ugrave" unicode="&#xd9;" horiz-adv-x="710" 
d="M371 739l-187 112l75 100l162 -144zM348 -10c-170 0 -276 104 -276 270v434h129v-424c0 -105 59 -168 163 -168c93 0 148 56 148 150v442h127v-427c0 -167 -115 -277 -291 -277z" />
    <glyph glyph-name="uni1EE6" unicode="&#x1ee6;" horiz-adv-x="710" 
d="M337 742l-22 60c32 15 50 39 50 63c0 20 -16 32 -39 32c-17 0 -40 -6 -63 -18l-29 78c40 22 82 32 118 32c68 0 112 -38 112 -95c0 -60 -46 -116 -127 -152zM348 -10c-170 0 -276 104 -276 270v434h129v-424c0 -105 59 -168 163 -168c93 0 148 56 148 150v442h127v-427
c0 -167 -115 -277 -291 -277z" />
    <glyph glyph-name="Uhorn" unicode="&#x1af;" horiz-adv-x="851" 
d="M348 -10c-170 0 -276 104 -276 270v434h129v-424c0 -105 59 -168 163 -168c93 0 148 56 148 150v442h127v-91c44 0 74 38 74 94c0 34 -11 68 -30 97h118c20 -29 29 -62 29 -100c0 -103 -74 -164 -191 -164v-263c0 -167 -115 -277 -291 -277z" />
    <glyph glyph-name="uni1EE8" unicode="&#x1ee8;" horiz-adv-x="851" 
d="M339 739l-50 68l162 144l75 -100zM348 -10c-170 0 -276 104 -276 270v434h129v-424c0 -105 59 -168 163 -168c93 0 148 56 148 150v442h127v-91c44 0 74 38 74 94c0 34 -11 68 -30 97h118c20 -29 29 -62 29 -100c0 -103 -74 -164 -191 -164v-263
c0 -167 -115 -277 -291 -277z" />
    <glyph glyph-name="uni1EF0" unicode="&#x1ef0;" horiz-adv-x="851" 
d="M348 -10c-170 0 -276 104 -276 270v434h129v-424c0 -105 59 -168 163 -168c93 0 148 56 148 150v442h127v-91c44 0 74 38 74 94c0 34 -11 68 -30 97h118c20 -29 29 -62 29 -100c0 -103 -74 -164 -191 -164v-263c0 -167 -115 -277 -291 -277zM355 -210
c-48 0 -78 30 -78 78s30 79 78 79s78 -31 78 -79s-30 -78 -78 -78z" />
    <glyph glyph-name="uni1EEA" unicode="&#x1eea;" horiz-adv-x="851" 
d="M371 739l-187 112l75 100l162 -144zM348 -10c-170 0 -276 104 -276 270v434h129v-424c0 -105 59 -168 163 -168c93 0 148 56 148 150v442h127v-91c44 0 74 38 74 94c0 34 -11 68 -30 97h118c20 -29 29 -62 29 -100c0 -103 -74 -164 -191 -164v-263
c0 -167 -115 -277 -291 -277z" />
    <glyph glyph-name="uni1EEC" unicode="&#x1eec;" horiz-adv-x="851" 
d="M337 742l-22 60c32 15 50 39 50 63c0 20 -16 32 -39 32c-17 0 -40 -6 -63 -18l-29 78c40 22 82 32 118 32c68 0 112 -38 112 -95c0 -60 -46 -116 -127 -152zM348 -10c-170 0 -276 104 -276 270v434h129v-424c0 -105 59 -168 163 -168c93 0 148 56 148 150v442h127v-91
c44 0 74 38 74 94c0 34 -11 68 -30 97h118c20 -29 29 -62 29 -100c0 -103 -74 -164 -191 -164v-263c0 -167 -115 -277 -291 -277z" />
    <glyph glyph-name="uni1EEE" unicode="&#x1eee;" horiz-adv-x="851" 
d="M250 755l-80 20c17 83 66 131 125 131c56 0 87 -47 122 -47c23 0 42 17 52 49l79 -21c-12 -80 -64 -127 -130 -127c-62 0 -83 45 -119 45c-20 0 -39 -18 -49 -50zM348 -10c-170 0 -276 104 -276 270v434h129v-424c0 -105 59 -168 163 -168c93 0 148 56 148 150v442h127
v-91c44 0 74 38 74 94c0 34 -11 68 -30 97h118c20 -29 29 -62 29 -100c0 -103 -74 -164 -191 -164v-263c0 -167 -115 -277 -291 -277z" />
    <glyph glyph-name="Uhungarumlaut" unicode="&#x170;" horiz-adv-x="710" 
d="M210 751l-58 55l121 157l90 -85zM433 751l-58 55l121 157l91 -85zM348 -10c-170 0 -276 104 -276 270v434h129v-424c0 -105 59 -168 163 -168c93 0 148 56 148 150v442h127v-427c0 -167 -115 -277 -291 -277z" />
    <glyph glyph-name="uni0216" unicode="&#x216;" horiz-adv-x="710" 
d="M252 732l-61 41c16 97 82 160 170 160c87 0 160 -55 173 -143l-95 -57c-6 61 -46 102 -95 102c-48 0 -87 -39 -92 -103zM348 -10c-170 0 -276 104 -276 270v434h129v-424c0 -105 59 -168 163 -168c93 0 148 56 148 150v442h127v-427c0 -167 -115 -277 -291 -277z" />
    <glyph glyph-name="Umacron" unicode="&#x16a;" horiz-adv-x="710" 
d="M188 778v102h337v-102h-337zM348 -10c-170 0 -276 104 -276 270v434h129v-424c0 -105 59 -168 163 -168c93 0 148 56 148 150v442h127v-427c0 -167 -115 -277 -291 -277z" />
    <glyph glyph-name="uni1E7A" unicode="&#x1e7a;" horiz-adv-x="710" 
d="M238 948c-48 0 -79 30 -79 78s31 79 79 79c47 0 78 -31 78 -79s-31 -78 -78 -78zM463 948c-48 0 -78 30 -78 78s30 79 78 79s79 -31 79 -79s-31 -78 -79 -78zM188 778v102h337v-102h-337zM348 -10c-170 0 -276 104 -276 270v434h129v-424c0 -105 59 -168 163 -168
c93 0 148 56 148 150v442h127v-427c0 -167 -115 -277 -291 -277z" />
    <glyph glyph-name="Uogonek" unicode="&#x172;" horiz-adv-x="710" 
d="M389 -254c-79 0 -129 46 -129 114c0 50 28 97 77 130c-164 5 -265 108 -265 270v434h129v-424c0 -105 59 -168 163 -168c93 0 148 56 148 150v442h127v-427c0 -122 -61 -214 -163 -254c-61 -31 -99 -80 -99 -127c0 -32 19 -56 48 -56c12 0 30 4 45 11l10 -71
c-23 -15 -57 -24 -91 -24z" />
    <glyph glyph-name="Uring" unicode="&#x16e;" horiz-adv-x="710" 
d="M354 740c-69 0 -116 47 -116 117c0 71 47 118 119 118c69 0 116 -46 116 -115c0 -72 -47 -120 -119 -120zM357 813c25 0 43 18 43 44c0 27 -19 45 -46 45c-25 0 -43 -17 -43 -42c0 -28 19 -47 46 -47zM348 -10c-170 0 -276 104 -276 270v434h129v-424
c0 -105 59 -168 163 -168c93 0 148 56 148 150v442h127v-427c0 -167 -115 -277 -291 -277z" />
    <glyph glyph-name="Utilde" unicode="&#x168;" horiz-adv-x="710" 
d="M250 755l-80 20c17 83 66 131 125 131c56 0 87 -47 122 -47c23 0 42 17 52 49l79 -21c-12 -80 -64 -127 -130 -127c-62 0 -83 45 -119 45c-20 0 -39 -18 -49 -50zM348 -10c-170 0 -276 104 -276 270v434h129v-424c0 -105 59 -168 163 -168c93 0 148 56 148 150v442h127
v-427c0 -167 -115 -277 -291 -277z" />
    <glyph glyph-name="uni1E78" unicode="&#x1e78;" horiz-adv-x="710" 
d="M339 953l-50 68l163 144l74 -100zM250 755l-80 20c17 83 66 131 125 131c56 0 87 -47 122 -47c23 0 42 17 52 49l79 -21c-12 -80 -64 -127 -130 -127c-62 0 -83 45 -119 45c-20 0 -39 -18 -49 -50zM348 -10c-170 0 -276 104 -276 270v434h129v-424
c0 -105 59 -168 163 -168c93 0 148 56 148 150v442h127v-427c0 -167 -115 -277 -291 -277z" />
    <glyph glyph-name="V" unicode="V" horiz-adv-x="657" 
d="M261 0l-249 694h150l172 -541l179 541h132l-250 -694h-134z" />
    <glyph glyph-name="W" unicode="W" horiz-adv-x="1021" 
d="M230 0l-215 694h146l142 -533l137 529h142l148 -521l146 525h130l-215 -694h-133l-153 517l-137 -517h-138z" />
    <glyph glyph-name="Wacute" unicode="&#x1e82;" horiz-adv-x="1021" 
d="M492 739l-51 68l163 144l75 -100zM230 0l-215 694h146l142 -533l137 529h142l148 -521l146 525h130l-215 -694h-133l-153 517l-137 -517h-138z" />
    <glyph glyph-name="Wcircumflex" unicode="&#x174;" horiz-adv-x="1021" 
d="M346 788l137 155h65l137 -132l-71 -67l-106 91l-109 -91zM230 0l-215 694h146l142 -533l137 529h142l148 -521l146 525h130l-215 -694h-133l-153 517l-137 -517h-138z" />
    <glyph glyph-name="Wdieresis" unicode="&#x1e84;" horiz-adv-x="1021" 
d="M390 762c-48 0 -78 30 -78 78s30 79 78 79s79 -31 79 -79s-31 -78 -79 -78zM616 762c-48 0 -79 30 -79 78s31 79 79 79s78 -31 78 -79s-30 -78 -78 -78zM230 0l-215 694h146l142 -533l137 529h142l148 -521l146 525h130l-215 -694h-133l-153 517l-137 -517h-138z" />
    <glyph glyph-name="Wgrave" unicode="&#x1e80;" horiz-adv-x="1021" 
d="M524 739l-187 112l74 100l163 -144zM230 0l-215 694h146l142 -533l137 529h142l148 -521l146 525h130l-215 -694h-133l-153 517l-137 -517h-138z" />
    <glyph glyph-name="X" unicode="X" horiz-adv-x="653" 
d="M9 0l245 361l-227 333h153l144 -227l145 227h149l-228 -329l255 -365h-155l-169 261l-163 -261h-149z" />
    <glyph glyph-name="Y" unicode="Y" horiz-adv-x="630" 
d="M254 0v274l-255 420h152l172 -308l164 308h143l-247 -422v-272h-129z" />
    <glyph glyph-name="Yacute" unicode="&#xdd;" horiz-adv-x="630" 
d="M301 739l-51 68l163 144l75 -100zM254 0v274l-255 420h152l172 -308l164 308h143l-247 -422v-272h-129z" />
    <glyph glyph-name="Ycircumflex" unicode="&#x176;" horiz-adv-x="630" 
d="M155 788l137 155h65l137 -132l-70 -67l-107 91l-109 -91zM254 0v274l-255 420h152l172 -308l164 308h143l-247 -422v-272h-129z" />
    <glyph glyph-name="Ydieresis" unicode="&#x178;" horiz-adv-x="630" 
d="M199 762c-47 0 -78 30 -78 78s31 79 78 79c48 0 79 -31 79 -79s-31 -78 -79 -78zM425 762c-48 0 -79 30 -79 78s31 79 79 79s78 -31 78 -79s-30 -78 -78 -78zM254 0v274l-255 420h152l172 -308l164 308h143l-247 -422v-272h-129z" />
    <glyph glyph-name="uni1E8E" unicode="&#x1e8e;" horiz-adv-x="630" 
d="M300 762c-47 0 -78 31 -78 79s31 79 78 79c48 0 79 -31 79 -79s-31 -79 -79 -79zM254 0v274l-255 420h152l172 -308l164 308h143l-247 -422v-272h-129z" />
    <glyph glyph-name="uni1EF4" unicode="&#x1ef4;" horiz-adv-x="630" 
d="M254 0v274l-255 420h152l172 -308l164 308h143l-247 -422v-272h-129zM317 -210c-48 0 -79 30 -79 78s31 79 79 79c47 0 78 -31 78 -79s-31 -78 -78 -78z" />
    <glyph glyph-name="Ygrave" unicode="&#x1ef2;" horiz-adv-x="630" 
d="M333 739l-187 112l74 100l163 -144zM254 0v274l-255 420h152l172 -308l164 308h143l-247 -422v-272h-129z" />
    <glyph glyph-name="uni1EF6" unicode="&#x1ef6;" horiz-adv-x="630" 
d="M298 742l-21 60c31 15 50 39 50 63c0 20 -16 32 -39 32c-18 0 -40 -6 -63 -18l-30 78c40 22 83 32 119 32c68 0 112 -38 112 -95c0 -60 -46 -116 -128 -152zM254 0v274l-255 420h152l172 -308l164 308h143l-247 -422v-272h-129z" />
    <glyph glyph-name="uni0232" unicode="&#x232;" horiz-adv-x="630" 
d="M149 778v102h337v-102h-337zM254 0v274l-255 420h152l172 -308l164 308h143l-247 -422v-272h-129z" />
    <glyph glyph-name="uni1EF8" unicode="&#x1ef8;" horiz-adv-x="630" 
d="M212 755l-80 20c16 83 66 131 125 131c56 0 86 -47 122 -47c23 0 41 17 51 49l80 -21c-12 -80 -64 -127 -130 -127c-63 0 -84 45 -119 45c-21 0 -39 -18 -49 -50zM254 0v274l-255 420h152l172 -308l164 308h143l-247 -422v-272h-129z" />
    <glyph glyph-name="Z" unicode="Z" horiz-adv-x="652" 
d="M35 0v83l395 498h-379v113h556v-78l-399 -503h408v-113h-581z" />
    <glyph glyph-name="Zacute" unicode="&#x179;" horiz-adv-x="652" 
d="M313 739l-50 68l163 144l74 -100zM35 0v83l395 498h-379v113h556v-78l-399 -503h408v-113h-581z" />
    <glyph glyph-name="Zcaron" unicode="&#x17d;" horiz-adv-x="652" 
d="M298 748l-141 131l75 67l104 -97l110 96l51 -44l-134 -153h-65zM35 0v83l395 498h-379v113h556v-78l-399 -503h408v-113h-581z" />
    <glyph glyph-name="Zdotaccent" unicode="&#x17b;" horiz-adv-x="652" 
d="M313 762c-48 0 -79 31 -79 79s31 79 79 79s78 -31 78 -79s-30 -79 -78 -79zM35 0v83l395 498h-379v113h556v-78l-399 -503h408v-113h-581z" />
    <glyph glyph-name="uni1E92" unicode="&#x1e92;" horiz-adv-x="652" 
d="M35 0v83l395 498h-379v113h556v-78l-399 -503h408v-113h-581zM329 -210c-48 0 -78 30 -78 78s30 79 78 79s79 -31 79 -79s-31 -78 -79 -78z" />
    <glyph glyph-name="a" unicode="a" horiz-adv-x="520" 
d="M202 -10c-102 0 -168 57 -168 145c0 103 93 151 304 154v13c0 58 -42 88 -120 88c-45 0 -94 -10 -144 -30l-30 89c57 30 131 47 201 47c143 0 218 -72 218 -204v-292h-91l-18 49c-37 -38 -90 -59 -152 -59zM162 152c0 -37 33 -62 82 -62c37 0 70 13 94 36v92
c-125 -2 -176 -22 -176 -66z" />
    <glyph glyph-name="aacute" unicode="&#xe1;" horiz-adv-x="520" 
d="M259 546l-60 48l111 168l96 -77zM202 -10c-102 0 -168 57 -168 145c0 103 93 151 304 154v13c0 58 -42 88 -120 88c-45 0 -94 -10 -144 -30l-30 89c57 30 131 47 201 47c143 0 218 -72 218 -204v-292h-91l-18 49c-37 -38 -90 -59 -152 -59zM162 152c0 -37 33 -62 82 -62
c37 0 70 13 94 36v92c-125 -2 -176 -22 -176 -66z" />
    <glyph glyph-name="abreve" unicode="&#x103;" horiz-adv-x="520" 
d="M251 551c-91 0 -163 55 -177 143l95 57c7 -61 46 -102 97 -102c52 0 91 39 97 103l60 -41c-15 -97 -83 -160 -172 -160zM202 -10c-102 0 -168 57 -168 145c0 103 93 151 304 154v13c0 58 -42 88 -120 88c-45 0 -94 -10 -144 -30l-30 89c57 30 131 47 201 47
c143 0 218 -72 218 -204v-292h-91l-18 49c-37 -38 -90 -59 -152 -59zM162 152c0 -37 33 -62 82 -62c37 0 70 13 94 36v92c-125 -2 -176 -22 -176 -66z" />
    <glyph glyph-name="uni1EAF" unicode="&#x1eaf;" horiz-adv-x="520" 
d="M259 669l-56 47l114 163l90 -76zM246 529c-88 0 -158 48 -171 119l86 50c14 -46 55 -77 102 -77c52 0 91 32 97 79l59 -40c-16 -79 -84 -131 -173 -131zM202 -10c-102 0 -168 57 -168 145c0 103 93 151 304 154v13c0 58 -42 88 -120 88c-45 0 -94 -10 -144 -30l-30 89
c57 30 131 47 201 47c143 0 218 -72 218 -204v-292h-91l-18 49c-37 -38 -90 -59 -152 -59zM162 152c0 -37 33 -62 82 -62c37 0 70 13 94 36v92c-125 -2 -176 -22 -176 -66z" />
    <glyph glyph-name="uni1EB7" unicode="&#x1eb7;" horiz-adv-x="520" 
d="M251 551c-91 0 -163 55 -177 143l95 57c7 -61 46 -102 97 -102c52 0 91 39 97 103l60 -41c-15 -97 -83 -160 -172 -160zM202 -10c-102 0 -168 57 -168 145c0 103 93 151 304 154v13c0 58 -42 88 -120 88c-45 0 -94 -10 -144 -30l-30 89c57 30 131 47 201 47
c143 0 218 -72 218 -204v-292h-91l-18 49c-37 -38 -90 -59 -152 -59zM162 152c0 -37 33 -62 82 -62c37 0 70 13 94 36v92c-125 -2 -176 -22 -176 -66zM264 -210c-48 0 -78 30 -78 78s30 79 78 79s79 -31 79 -79s-31 -78 -79 -78z" />
    <glyph glyph-name="uni1EB1" unicode="&#x1eb1;" horiz-adv-x="520" 
d="M258 670l-155 129l87 80l122 -158zM246 529c-88 0 -158 48 -171 119l86 50c14 -46 55 -77 102 -77c52 0 91 32 97 79l59 -40c-16 -79 -84 -131 -173 -131zM202 -10c-102 0 -168 57 -168 145c0 103 93 151 304 154v13c0 58 -42 88 -120 88c-45 0 -94 -10 -144 -30l-30 89
c57 30 131 47 201 47c143 0 218 -72 218 -204v-292h-91l-18 49c-37 -38 -90 -59 -152 -59zM162 152c0 -37 33 -62 82 -62c37 0 70 13 94 36v92c-125 -2 -176 -22 -176 -66z" />
    <glyph glyph-name="uni1EB3" unicode="&#x1eb3;" horiz-adv-x="520" 
d="M239 681l-21 58c30 10 50 29 50 45c0 14 -14 24 -39 24c-17 0 -38 -5 -64 -14l-29 74c40 16 84 25 119 25c68 0 112 -34 112 -83c0 -50 -47 -100 -128 -129zM246 529c-88 0 -158 48 -171 119l86 50c14 -46 55 -77 102 -77c52 0 91 32 97 79l59 -40
c-16 -79 -84 -131 -173 -131zM202 -10c-102 0 -168 57 -168 145c0 103 93 151 304 154v13c0 58 -42 88 -120 88c-45 0 -94 -10 -144 -30l-30 89c57 30 131 47 201 47c143 0 218 -72 218 -204v-292h-91l-18 49c-37 -38 -90 -59 -152 -59zM162 152c0 -37 33 -62 82 -62
c37 0 70 13 94 36v92c-125 -2 -176 -22 -176 -66z" />
    <glyph glyph-name="uni1EB5" unicode="&#x1eb5;" horiz-adv-x="520" 
d="M154 727l-75 18c16 73 63 117 117 117c52 0 80 -39 114 -39c21 0 39 15 48 40l74 -19c-12 -71 -61 -112 -121 -112c-59 0 -78 36 -111 36c-20 0 -37 -15 -46 -41zM246 529c-88 0 -158 48 -171 119l86 50c14 -46 55 -77 102 -77c52 0 91 32 97 79l59 -40
c-16 -79 -84 -131 -173 -131zM202 -10c-102 0 -168 57 -168 145c0 103 93 151 304 154v13c0 58 -42 88 -120 88c-45 0 -94 -10 -144 -30l-30 89c57 30 131 47 201 47c143 0 218 -72 218 -204v-292h-91l-18 49c-37 -38 -90 -59 -152 -59zM162 152c0 -37 33 -62 82 -62
c37 0 70 13 94 36v92c-125 -2 -176 -22 -176 -66z" />
    <glyph glyph-name="uni01CE" unicode="&#x1ce;" horiz-adv-x="520" 
d="M222 557l-141 131l75 66l104 -97l110 97l52 -44l-135 -153h-65zM202 -10c-102 0 -168 57 -168 145c0 103 93 151 304 154v13c0 58 -42 88 -120 88c-45 0 -94 -10 -144 -30l-30 89c57 30 131 47 201 47c143 0 218 -72 218 -204v-292h-91l-18 49c-37 -38 -90 -59 -152 -59z
M162 152c0 -37 33 -62 82 -62c37 0 70 13 94 36v92c-125 -2 -176 -22 -176 -66z" />
    <glyph glyph-name="acircumflex" unicode="&#xe2;" horiz-adv-x="520" 
d="M86 591l137 154h64l138 -132l-71 -67l-106 91l-110 -90zM202 -10c-102 0 -168 57 -168 145c0 103 93 151 304 154v13c0 58 -42 88 -120 88c-45 0 -94 -10 -144 -30l-30 89c57 30 131 47 201 47c143 0 218 -72 218 -204v-292h-91l-18 49c-37 -38 -90 -59 -152 -59z
M162 152c0 -37 33 -62 82 -62c37 0 70 13 94 36v92c-125 -2 -176 -22 -176 -66z" />
    <glyph glyph-name="uni1EA5" unicode="&#x1ea5;" horiz-adv-x="520" 
d="M413 651l-56 48l114 163l90 -76zM86 568l137 129h65l137 -107l-70 -67l-107 72l-109 -71zM202 -10c-102 0 -168 57 -168 145c0 103 93 151 304 154v13c0 58 -42 88 -120 88c-45 0 -94 -10 -144 -30l-30 89c57 30 131 47 201 47c143 0 218 -72 218 -204v-292h-91l-18 49
c-37 -38 -90 -59 -152 -59zM162 152c0 -37 33 -62 82 -62c37 0 70 13 94 36v92c-125 -2 -176 -22 -176 -66z" />
    <glyph glyph-name="uni1EAD" unicode="&#x1ead;" horiz-adv-x="520" 
d="M86 591l137 154h64l138 -132l-71 -67l-106 91l-110 -90zM202 -10c-102 0 -168 57 -168 145c0 103 93 151 304 154v13c0 58 -42 88 -120 88c-45 0 -94 -10 -144 -30l-30 89c57 30 131 47 201 47c143 0 218 -72 218 -204v-292h-91l-18 49c-37 -38 -90 -59 -152 -59z
M162 152c0 -37 33 -62 82 -62c37 0 70 13 94 36v92c-125 -2 -176 -22 -176 -66zM264 -210c-48 0 -78 30 -78 78s30 79 78 79s79 -31 79 -79s-31 -78 -79 -78z" />
    <glyph glyph-name="uni1EA7" unicode="&#x1ea7;" horiz-adv-x="520" 
d="M412 653l-155 129l87 79l122 -158zM86 568l137 129h65l137 -107l-70 -67l-107 72l-109 -71zM202 -10c-102 0 -168 57 -168 145c0 103 93 151 304 154v13c0 58 -42 88 -120 88c-45 0 -94 -10 -144 -30l-30 89c57 30 131 47 201 47c143 0 218 -72 218 -204v-292h-91l-18 49
c-37 -38 -90 -59 -152 -59zM162 152c0 -37 33 -62 82 -62c37 0 70 13 94 36v92c-125 -2 -176 -22 -176 -66z" />
    <glyph glyph-name="uni1EA9" unicode="&#x1ea9;" horiz-adv-x="520" 
d="M393 664l-21 58c30 9 50 28 50 45c0 14 -14 23 -39 23c-17 0 -38 -4 -64 -13l-29 73c40 17 84 25 119 25c68 0 112 -33 112 -82c0 -50 -46 -101 -128 -129zM86 568l137 129h65l137 -107l-70 -67l-107 72l-109 -71zM202 -10c-102 0 -168 57 -168 145c0 103 93 151 304 154
v13c0 58 -42 88 -120 88c-45 0 -94 -10 -144 -30l-30 89c57 30 131 47 201 47c143 0 218 -72 218 -204v-292h-91l-18 49c-37 -38 -90 -59 -152 -59zM162 152c0 -37 33 -62 82 -62c37 0 70 13 94 36v92c-125 -2 -176 -22 -176 -66z" />
    <glyph glyph-name="uni1EAB" unicode="&#x1eab;" horiz-adv-x="520" 
d="M154 727l-74 18c15 73 62 117 116 117c53 0 81 -39 115 -39c21 0 38 15 47 40l74 -19c-11 -71 -61 -112 -121 -112c-58 0 -78 36 -111 36c-19 0 -37 -15 -46 -41zM86 568l137 129h65l137 -107l-70 -67l-107 72l-109 -71zM202 -10c-102 0 -168 57 -168 145
c0 103 93 151 304 154v13c0 58 -42 88 -120 88c-45 0 -94 -10 -144 -30l-30 89c57 30 131 47 201 47c143 0 218 -72 218 -204v-292h-91l-18 49c-37 -38 -90 -59 -152 -59zM162 152c0 -37 33 -62 82 -62c37 0 70 13 94 36v92c-125 -2 -176 -22 -176 -66z" />
    <glyph glyph-name="uni0201" unicode="&#x201;" horiz-adv-x="520" 
d="M328 540l-121 162l107 60l81 -185zM133 540l-121 162l107 59l81 -184zM202 -10c-102 0 -168 57 -168 145c0 103 93 151 304 154v13c0 58 -42 88 -120 88c-45 0 -94 -10 -144 -30l-30 89c57 30 131 47 201 47c143 0 218 -72 218 -204v-292h-91l-18 49
c-37 -38 -90 -59 -152 -59zM162 152c0 -37 33 -62 82 -62c37 0 70 13 94 36v92c-125 -2 -176 -22 -176 -66z" />
    <glyph glyph-name="adieresis" unicode="&#xe4;" horiz-adv-x="520" 
d="M139 576c-48 0 -79 30 -79 78s31 79 79 79s78 -31 78 -79s-30 -78 -78 -78zM364 576c-47 0 -78 30 -78 78s31 79 78 79c48 0 79 -31 79 -79s-31 -78 -79 -78zM202 -10c-102 0 -168 57 -168 145c0 103 93 151 304 154v13c0 58 -42 88 -120 88c-45 0 -94 -10 -144 -30
l-30 89c57 30 131 47 201 47c143 0 218 -72 218 -204v-292h-91l-18 49c-37 -38 -90 -59 -152 -59zM162 152c0 -37 33 -62 82 -62c37 0 70 13 94 36v92c-125 -2 -176 -22 -176 -66z" />
    <glyph glyph-name="uni1EA1" unicode="&#x1ea1;" horiz-adv-x="520" 
d="M202 -10c-102 0 -168 57 -168 145c0 103 93 151 304 154v13c0 58 -42 88 -120 88c-45 0 -94 -10 -144 -30l-30 89c57 30 131 47 201 47c143 0 218 -72 218 -204v-292h-91l-18 49c-37 -38 -90 -59 -152 -59zM162 152c0 -37 33 -62 82 -62c37 0 70 13 94 36v92
c-125 -2 -176 -22 -176 -66zM264 -210c-48 0 -78 30 -78 78s30 79 78 79s79 -31 79 -79s-31 -78 -79 -78z" />
    <glyph glyph-name="agrave" unicode="&#xe0;" horiz-adv-x="520" 
d="M237 546l-147 139l95 77l112 -168zM202 -10c-102 0 -168 57 -168 145c0 103 93 151 304 154v13c0 58 -42 88 -120 88c-45 0 -94 -10 -144 -30l-30 89c57 30 131 47 201 47c143 0 218 -72 218 -204v-292h-91l-18 49c-37 -38 -90 -59 -152 -59zM162 152
c0 -37 33 -62 82 -62c37 0 70 13 94 36v92c-125 -2 -176 -22 -176 -66z" />
    <glyph glyph-name="uni1EA3" unicode="&#x1ea3;" horiz-adv-x="520" 
d="M230 547l-22 60c31 15 50 39 50 63c0 19 -16 32 -39 32c-18 0 -40 -7 -63 -19l-30 79c40 21 83 32 119 32c68 0 112 -38 112 -95c0 -60 -46 -117 -127 -152zM202 -10c-102 0 -168 57 -168 145c0 103 93 151 304 154v13c0 58 -42 88 -120 88c-45 0 -94 -10 -144 -30
l-30 89c57 30 131 47 201 47c143 0 218 -72 218 -204v-292h-91l-18 49c-37 -38 -90 -59 -152 -59zM162 152c0 -37 33 -62 82 -62c37 0 70 13 94 36v92c-125 -2 -176 -22 -176 -66z" />
    <glyph glyph-name="uni0203" unicode="&#x203;" horiz-adv-x="520" 
d="M149 551l-61 42c15 96 81 159 170 159c87 0 159 -55 172 -142l-94 -58c-6 61 -46 102 -95 102c-48 0 -87 -38 -92 -103zM202 -10c-102 0 -168 57 -168 145c0 103 93 151 304 154v13c0 58 -42 88 -120 88c-45 0 -94 -10 -144 -30l-30 89c57 30 131 47 201 47
c143 0 218 -72 218 -204v-292h-91l-18 49c-37 -38 -90 -59 -152 -59zM162 152c0 -37 33 -62 82 -62c37 0 70 13 94 36v92c-125 -2 -176 -22 -176 -66z" />
    <glyph glyph-name="amacron" unicode="&#x101;" horiz-adv-x="520" 
d="M83 591v102h337v-102h-337zM202 -10c-102 0 -168 57 -168 145c0 103 93 151 304 154v13c0 58 -42 88 -120 88c-45 0 -94 -10 -144 -30l-30 89c57 30 131 47 201 47c143 0 218 -72 218 -204v-292h-91l-18 49c-37 -38 -90 -59 -152 -59zM162 152c0 -37 33 -62 82 -62
c37 0 70 13 94 36v92c-125 -2 -176 -22 -176 -66z" />
    <glyph glyph-name="aogonek" unicode="&#x105;" horiz-adv-x="520" 
d="M202 -10c-102 0 -168 57 -168 145c0 103 93 151 304 154v13c0 58 -42 88 -120 88c-45 0 -94 -10 -144 -30l-30 89c57 30 131 47 201 47c143 0 218 -72 218 -204v-292c-66 -28 -109 -75 -109 -120c0 -29 20 -50 49 -50c12 0 31 4 45 10l10 -71c-25 -15 -57 -23 -91 -23
c-81 0 -130 44 -130 109c0 66 49 122 132 153l-15 41c-37 -38 -90 -59 -152 -59zM162 152c0 -37 33 -62 82 -62c37 0 70 13 94 36v92c-125 -2 -176 -22 -176 -66z" />
    <glyph glyph-name="aring" unicode="&#xe5;" horiz-adv-x="520" 
d="M251 551c-70 0 -116 47 -116 117s47 117 119 117c69 0 115 -46 115 -114c0 -72 -47 -120 -118 -120zM254 623c25 0 43 18 43 45s-19 45 -46 45c-26 0 -43 -17 -43 -42c0 -29 18 -48 46 -48zM202 -10c-102 0 -168 57 -168 145c0 103 93 151 304 154v13
c0 58 -42 88 -120 88c-45 0 -94 -10 -144 -30l-30 89c57 30 131 47 201 47c143 0 218 -72 218 -204v-292h-91l-18 49c-37 -38 -90 -59 -152 -59zM162 152c0 -37 33 -62 82 -62c37 0 70 13 94 36v92c-125 -2 -176 -22 -176 -66z" />
    <glyph glyph-name="aringacute" unicode="&#x1fb;" horiz-adv-x="520" 
d="M247 551c-69 0 -116 47 -116 117s47 117 119 117c13 0 25 -2 36 -5l78 119l96 -78l-105 -98c7 -15 11 -33 11 -52c0 -72 -47 -120 -119 -120zM250 623c26 0 43 18 43 45s-18 45 -46 45c-25 0 -43 -17 -43 -42c0 -29 19 -48 46 -48zM202 -10c-102 0 -168 57 -168 145
c0 103 93 151 304 154v13c0 58 -42 88 -120 88c-45 0 -94 -10 -144 -30l-30 89c57 30 131 47 201 47c143 0 218 -72 218 -204v-292h-91l-18 49c-37 -38 -90 -59 -152 -59zM162 152c0 -37 33 -62 82 -62c37 0 70 13 94 36v92c-125 -2 -176 -22 -176 -66z" />
    <glyph glyph-name="atilde" unicode="&#xe3;" horiz-adv-x="520" 
d="M146 561l-80 20c16 83 66 131 125 131c56 0 86 -47 122 -47c22 0 41 17 51 49l80 -21c-13 -80 -64 -127 -130 -127c-63 0 -84 45 -119 45c-21 0 -40 -18 -49 -50zM202 -10c-102 0 -168 57 -168 145c0 103 93 151 304 154v13c0 58 -42 88 -120 88c-45 0 -94 -10 -144 -30
l-30 89c57 30 131 47 201 47c143 0 218 -72 218 -204v-292h-91l-18 49c-37 -38 -90 -59 -152 -59zM162 152c0 -37 33 -62 82 -62c37 0 70 13 94 36v92c-125 -2 -176 -22 -176 -66z" />
    <glyph glyph-name="ae" unicode="&#xe6;" horiz-adv-x="815" 
d="M197 -10c-98 0 -163 53 -163 133c0 104 110 162 303 166v8c0 60 -41 92 -114 92c-47 0 -98 -14 -152 -40l-28 88c64 39 136 59 207 59s122 -21 152 -64c39 41 94 64 162 64c129 0 211 -84 211 -217c0 -23 -3 -55 -6 -70h-316c16 -79 71 -121 158 -121c39 0 79 9 122 25
l29 -89c-59 -23 -115 -34 -172 -34c-98 0 -169 32 -210 93c-44 -60 -107 -93 -183 -93zM555 396c-59 0 -97 -37 -105 -107h201c0 68 -35 107 -96 107zM162 146c0 -35 30 -56 79 -56c44 0 83 18 111 49c-7 22 -12 46 -13 73c-124 -2 -177 -21 -177 -66z" />
    <glyph glyph-name="aeacute" unicode="&#x1fd;" horiz-adv-x="815" 
d="M414 546l-59 48l111 168l95 -77zM197 -10c-98 0 -163 53 -163 133c0 104 110 162 303 166v8c0 60 -41 92 -114 92c-47 0 -98 -14 -152 -40l-28 88c64 39 136 59 207 59s122 -21 152 -64c39 41 94 64 162 64c129 0 211 -84 211 -217c0 -23 -3 -55 -6 -70h-316
c16 -79 71 -121 158 -121c39 0 79 9 122 25l29 -89c-59 -23 -115 -34 -172 -34c-98 0 -169 32 -210 93c-44 -60 -107 -93 -183 -93zM555 396c-59 0 -97 -37 -105 -107h201c0 68 -35 107 -96 107zM162 146c0 -35 30 -56 79 -56c44 0 83 18 111 49c-7 22 -12 46 -13 73
c-124 -2 -177 -21 -177 -66z" />
    <glyph glyph-name="b" unicode="b" horiz-adv-x="573" 
d="M68 0v739h124v-289c34 30 78 46 131 46c127 0 214 -99 214 -248c0 -154 -92 -258 -229 -258c-58 0 -104 19 -137 55l-21 -45h-82zM282 388c-37 0 -69 -13 -90 -39v-203c23 -31 58 -48 100 -48c73 0 116 54 116 141c0 92 -48 149 -126 149z" />
    <glyph glyph-name="c" unicode="c" horiz-adv-x="463" 
d="M278 -10c-153 0 -244 90 -244 242c0 160 102 264 259 264c50 0 101 -10 143 -29l-27 -101c-35 14 -76 22 -112 22c-87 0 -133 -50 -133 -142c0 -97 52 -153 142 -153c32 0 69 8 103 23l29 -88c-46 -25 -101 -38 -160 -38z" />
    <glyph glyph-name="cacute" unicode="&#x107;" horiz-adv-x="463" 
d="M261 546l-60 48l111 168l96 -77zM278 -10c-153 0 -244 90 -244 242c0 160 102 264 259 264c50 0 101 -10 143 -29l-27 -101c-35 14 -76 22 -112 22c-87 0 -133 -50 -133 -142c0 -97 52 -153 142 -153c32 0 69 8 103 23l29 -88c-46 -25 -101 -38 -160 -38z" />
    <glyph glyph-name="ccaron" unicode="&#x10d;" horiz-adv-x="463" 
d="M224 557l-141 131l75 66l104 -97l110 97l52 -44l-135 -153h-65zM278 -10c-153 0 -244 90 -244 242c0 160 102 264 259 264c50 0 101 -10 143 -29l-27 -101c-35 14 -76 22 -112 22c-87 0 -133 -50 -133 -142c0 -97 52 -153 142 -153c32 0 69 8 103 23l29 -88
c-46 -25 -101 -38 -160 -38z" />
    <glyph glyph-name="ccedilla" unicode="&#xe7;" horiz-adv-x="463" 
d="M278 -10h-2l-7 -41c74 -11 111 -43 111 -97c0 -68 -56 -109 -148 -109c-41 0 -80 8 -108 23l17 71c23 -10 56 -16 82 -16c33 0 51 11 51 30c0 28 -35 46 -102 50l19 100c-100 29 -157 110 -157 231c0 160 102 264 259 264c50 0 101 -10 143 -29l-27 -101
c-35 14 -76 22 -112 22c-87 0 -133 -50 -133 -142c0 -97 52 -153 142 -153c32 0 69 8 103 23l29 -88c-46 -25 -101 -38 -160 -38z" />
    <glyph glyph-name="uni1E09" unicode="&#x1e09;" horiz-adv-x="463" 
d="M261 546l-60 48l111 168l96 -77zM278 -10h-2l-7 -41c74 -11 111 -43 111 -97c0 -68 -56 -109 -148 -109c-41 0 -80 8 -108 23l17 71c23 -10 56 -16 82 -16c33 0 51 11 51 30c0 28 -35 46 -102 50l19 100c-100 29 -157 110 -157 231c0 160 102 264 259 264
c50 0 101 -10 143 -29l-27 -101c-35 14 -76 22 -112 22c-87 0 -133 -50 -133 -142c0 -97 52 -153 142 -153c32 0 69 8 103 23l29 -88c-46 -25 -101 -38 -160 -38z" />
    <glyph glyph-name="ccircumflex" unicode="&#x109;" horiz-adv-x="463" 
d="M88 591l137 154h64l138 -132l-71 -67l-106 91l-110 -90zM278 -10c-153 0 -244 90 -244 242c0 160 102 264 259 264c50 0 101 -10 143 -29l-27 -101c-35 14 -76 22 -112 22c-87 0 -133 -50 -133 -142c0 -97 52 -153 142 -153c32 0 69 8 103 23l29 -88
c-46 -25 -101 -38 -160 -38z" />
    <glyph glyph-name="cdotaccent" unicode="&#x10b;" horiz-adv-x="463" 
d="M254 576c-48 0 -79 30 -79 78s31 79 79 79c47 0 78 -31 78 -79s-31 -78 -78 -78zM278 -10c-153 0 -244 90 -244 242c0 160 102 264 259 264c50 0 101 -10 143 -29l-27 -101c-35 14 -76 22 -112 22c-87 0 -133 -50 -133 -142c0 -97 52 -153 142 -153c32 0 69 8 103 23
l29 -88c-46 -25 -101 -38 -160 -38z" />
    <glyph glyph-name="d" unicode="d" horiz-adv-x="573" 
d="M247 -10c-124 0 -211 99 -211 249c0 155 91 257 228 257c46 0 86 -13 117 -37v280h124v-739h-82l-27 57c-37 -43 -88 -67 -149 -67zM165 247c0 -91 47 -149 121 -149c40 0 73 16 95 44v199c-23 30 -58 47 -100 47c-73 0 -116 -54 -116 -141z" />
    <glyph glyph-name="eth" unicode="&#xf0;" horiz-adv-x="562" 
d="M269 -9c-140 0 -233 90 -233 224c0 139 88 233 219 233c51 0 96 -15 131 -40c-20 56 -61 109 -121 158l-102 -59l-39 67l72 40c-25 15 -52 29 -81 42l34 93c56 -21 107 -47 150 -76l108 61l38 -66l-80 -46c98 -89 148 -205 148 -343c0 -181 -90 -288 -244 -288zM280 97
c65 0 108 46 108 117c0 77 -47 128 -119 128c-65 0 -103 -42 -103 -115c0 -80 45 -130 114 -130z" />
    <glyph glyph-name="dcaron" unicode="&#x10f;" horiz-adv-x="630" 
d="M626 544l-74 10l13 197l106 -13zM247 -10c-124 0 -211 99 -211 249c0 155 91 257 228 257c46 0 86 -13 117 -37v280h124v-739h-82l-27 57c-37 -43 -88 -67 -149 -67zM165 247c0 -91 47 -149 121 -149c40 0 73 16 95 44v199c-23 30 -58 47 -100 47
c-73 0 -116 -54 -116 -141z" />
    <glyph glyph-name="dcroat" unicode="&#x111;" horiz-adv-x="573" 
d="M247 -10c-124 0 -211 99 -211 249c0 155 91 257 228 257c46 0 86 -13 117 -37v98h-127v83h127v99h124v-99h65v-83h-65v-557h-82l-27 57c-37 -43 -88 -67 -149 -67zM165 247c0 -91 47 -149 121 -149c40 0 73 16 95 44v199c-23 30 -58 47 -100 47c-73 0 -116 -54 -116 -141
z" />
    <glyph glyph-name="uni1E0D" unicode="&#x1e0d;" horiz-adv-x="573" 
d="M247 -10c-124 0 -211 99 -211 249c0 155 91 257 228 257c46 0 86 -13 117 -37v280h124v-739h-82l-27 57c-37 -43 -88 -67 -149 -67zM165 247c0 -91 47 -149 121 -149c40 0 73 16 95 44v199c-23 30 -58 47 -100 47c-73 0 -116 -54 -116 -141zM285 -210
c-47 0 -78 30 -78 78s31 79 78 79c48 0 79 -31 79 -79s-31 -78 -79 -78z" />
    <glyph glyph-name="uni1E0F" unicode="&#x1e0f;" horiz-adv-x="573" 
d="M247 -10c-124 0 -211 99 -211 249c0 155 91 257 228 257c46 0 86 -13 117 -37v280h124v-739h-82l-27 57c-37 -43 -88 -67 -149 -67zM165 247c0 -91 47 -149 121 -149c40 0 73 16 95 44v199c-23 30 -58 47 -100 47c-73 0 -116 -54 -116 -141zM118 -189v101h334v-101h-334z
" />
    <glyph glyph-name="uni01C6" unicode="&#x1c6;" horiz-adv-x="1050" 
d="M782 557l-141 131l75 66l104 -97l110 97l52 -44l-135 -153h-65zM247 -10c-124 0 -211 99 -211 249c0 155 91 257 228 257c46 0 86 -13 117 -37v280h124v-739h-82l-27 57c-37 -43 -88 -67 -149 -67zM606 0v77l240 304h-240v105h403v-77l-240 -304h252v-105h-415zM165 247
c0 -91 47 -149 121 -149c40 0 73 16 95 44v199c-23 30 -58 47 -100 47c-73 0 -116 -54 -116 -141z" />
    <glyph glyph-name="e" unicode="e" horiz-adv-x="526" 
d="M302 -10c-166 0 -268 96 -268 252c0 151 97 254 242 254c130 0 211 -83 211 -216c0 -22 -3 -52 -6 -72h-315c15 -80 68 -121 156 -121c41 0 84 9 123 25l28 -88c-52 -22 -114 -34 -171 -34zM267 398c-60 0 -96 -38 -104 -110h204c0 70 -37 110 -100 110z" />
    <glyph glyph-name="eacute" unicode="&#xe9;" horiz-adv-x="526" 
d="M275 546l-59 48l111 168l95 -77zM302 -10c-166 0 -268 96 -268 252c0 151 97 254 242 254c130 0 211 -83 211 -216c0 -22 -3 -52 -6 -72h-315c15 -80 68 -121 156 -121c41 0 84 9 123 25l28 -88c-52 -22 -114 -34 -171 -34zM267 398c-60 0 -96 -38 -104 -110h204
c0 70 -37 110 -100 110z" />
    <glyph glyph-name="ebreve" unicode="&#x115;" horiz-adv-x="526" 
d="M268 551c-91 0 -163 55 -177 143l95 57c7 -61 46 -102 97 -102c52 0 91 39 97 103l60 -41c-15 -97 -83 -160 -172 -160zM302 -10c-166 0 -268 96 -268 252c0 151 97 254 242 254c130 0 211 -83 211 -216c0 -22 -3 -52 -6 -72h-315c15 -80 68 -121 156 -121
c41 0 84 9 123 25l28 -88c-52 -22 -114 -34 -171 -34zM267 398c-60 0 -96 -38 -104 -110h204c0 70 -37 110 -100 110z" />
    <glyph glyph-name="ecaron" unicode="&#x11b;" horiz-adv-x="526" 
d="M239 557l-141 131l75 66l104 -97l110 97l51 -44l-134 -153h-65zM302 -10c-166 0 -268 96 -268 252c0 151 97 254 242 254c130 0 211 -83 211 -216c0 -22 -3 -52 -6 -72h-315c15 -80 68 -121 156 -121c41 0 84 9 123 25l28 -88c-52 -22 -114 -34 -171 -34zM267 398
c-60 0 -96 -38 -104 -110h204c0 70 -37 110 -100 110z" />
    <glyph glyph-name="uni1E1D" unicode="&#x1e1d;" horiz-adv-x="526" 
d="M268 551c-91 0 -163 55 -177 143l95 57c7 -61 46 -102 97 -102c52 0 91 39 97 103l60 -41c-15 -97 -83 -160 -172 -160zM271 -257c-41 0 -80 8 -108 23l17 71c23 -10 56 -16 82 -16c33 0 51 11 51 30c0 28 -35 46 -101 50l17 96c-122 24 -195 113 -195 245
c0 151 97 254 242 254c130 0 211 -83 211 -216c0 -22 -3 -52 -6 -72h-315c15 -80 68 -121 156 -121c41 0 84 9 123 25l28 -88c-48 -20 -104 -32 -158 -34l-7 -41c74 -11 111 -43 111 -97c0 -68 -56 -109 -148 -109zM267 398c-60 0 -96 -38 -104 -110h204
c0 70 -37 110 -100 110z" />
    <glyph glyph-name="ecircumflex" unicode="&#xea;" horiz-adv-x="526" 
d="M103 591l137 154h64l137 -132l-70 -67l-107 91l-109 -90zM302 -10c-166 0 -268 96 -268 252c0 151 97 254 242 254c130 0 211 -83 211 -216c0 -22 -3 -52 -6 -72h-315c15 -80 68 -121 156 -121c41 0 84 9 123 25l28 -88c-52 -22 -114 -34 -171 -34zM267 398
c-60 0 -96 -38 -104 -110h204c0 70 -37 110 -100 110z" />
    <glyph glyph-name="uni1EBF" unicode="&#x1ebf;" horiz-adv-x="526" 
d="M430 651l-56 48l114 163l90 -76zM103 568l137 129h65l137 -107l-71 -67l-106 72l-110 -71zM302 -10c-166 0 -268 96 -268 252c0 151 97 254 242 254c130 0 211 -83 211 -216c0 -22 -3 -52 -6 -72h-315c15 -80 68 -121 156 -121c41 0 84 9 123 25l28 -88
c-52 -22 -114 -34 -171 -34zM267 398c-60 0 -96 -38 -104 -110h204c0 70 -37 110 -100 110z" />
    <glyph glyph-name="uni1EC7" unicode="&#x1ec7;" horiz-adv-x="526" 
d="M103 591l137 154h64l137 -132l-70 -67l-107 91l-109 -90zM302 -10c-166 0 -268 96 -268 252c0 151 97 254 242 254c130 0 211 -83 211 -216c0 -22 -3 -52 -6 -72h-315c15 -80 68 -121 156 -121c41 0 84 9 123 25l28 -88c-52 -22 -114 -34 -171 -34zM267 398
c-60 0 -96 -38 -104 -110h204c0 70 -37 110 -100 110zM275 -210c-48 0 -79 30 -79 78s31 79 79 79s78 -31 78 -79s-30 -78 -78 -78z" />
    <glyph glyph-name="uni1EC1" unicode="&#x1ec1;" horiz-adv-x="526" 
d="M429 653l-155 129l87 79l121 -158zM103 568l137 129h65l137 -107l-71 -67l-106 72l-110 -71zM302 -10c-166 0 -268 96 -268 252c0 151 97 254 242 254c130 0 211 -83 211 -216c0 -22 -3 -52 -6 -72h-315c15 -80 68 -121 156 -121c41 0 84 9 123 25l28 -88
c-52 -22 -114 -34 -171 -34zM267 398c-60 0 -96 -38 -104 -110h204c0 70 -37 110 -100 110z" />
    <glyph glyph-name="uni1EC3" unicode="&#x1ec3;" horiz-adv-x="526" 
d="M410 664l-21 58c30 9 50 28 50 45c0 14 -15 23 -39 23c-17 0 -38 -4 -64 -13l-29 73c40 17 84 25 119 25c68 0 112 -33 112 -82c0 -50 -47 -101 -128 -129zM103 568l137 129h65l137 -107l-71 -67l-106 72l-110 -71zM302 -10c-166 0 -268 96 -268 252
c0 151 97 254 242 254c130 0 211 -83 211 -216c0 -22 -3 -52 -6 -72h-315c15 -80 68 -121 156 -121c41 0 84 9 123 25l28 -88c-52 -22 -114 -34 -171 -34zM267 398c-60 0 -96 -38 -104 -110h204c0 70 -37 110 -100 110z" />
    <glyph glyph-name="uni1EC5" unicode="&#x1ec5;" horiz-adv-x="526" 
d="M171 727l-74 18c15 73 62 117 116 117c52 0 81 -39 114 -39c22 0 39 15 48 40l74 -19c-11 -71 -61 -112 -121 -112c-58 0 -78 36 -111 36c-19 0 -37 -15 -46 -41zM103 568l137 129h65l137 -107l-71 -67l-106 72l-110 -71zM302 -10c-166 0 -268 96 -268 252
c0 151 97 254 242 254c130 0 211 -83 211 -216c0 -22 -3 -52 -6 -72h-315c15 -80 68 -121 156 -121c41 0 84 9 123 25l28 -88c-52 -22 -114 -34 -171 -34zM267 398c-60 0 -96 -38 -104 -110h204c0 70 -37 110 -100 110z" />
    <glyph glyph-name="uni0205" unicode="&#x205;" horiz-adv-x="526" 
d="M344 540l-120 162l107 60l81 -185zM149 540l-120 162l107 59l80 -184zM302 -10c-166 0 -268 96 -268 252c0 151 97 254 242 254c130 0 211 -83 211 -216c0 -22 -3 -52 -6 -72h-315c15 -80 68 -121 156 -121c41 0 84 9 123 25l28 -88c-52 -22 -114 -34 -171 -34zM267 398
c-60 0 -96 -38 -104 -110h204c0 70 -37 110 -100 110z" />
    <glyph glyph-name="edieresis" unicode="&#xeb;" horiz-adv-x="526" 
d="M156 576c-48 0 -79 30 -79 78s31 79 79 79c47 0 78 -31 78 -79s-31 -78 -78 -78zM381 576c-48 0 -78 30 -78 78s30 79 78 79s79 -31 79 -79s-31 -78 -79 -78zM302 -10c-166 0 -268 96 -268 252c0 151 97 254 242 254c130 0 211 -83 211 -216c0 -22 -3 -52 -6 -72h-315
c15 -80 68 -121 156 -121c41 0 84 9 123 25l28 -88c-52 -22 -114 -34 -171 -34zM267 398c-60 0 -96 -38 -104 -110h204c0 70 -37 110 -100 110z" />
    <glyph glyph-name="edotaccent" unicode="&#x117;" horiz-adv-x="526" 
d="M268 576c-47 0 -78 30 -78 78s31 79 78 79c48 0 79 -31 79 -79s-31 -78 -79 -78zM302 -10c-166 0 -268 96 -268 252c0 151 97 254 242 254c130 0 211 -83 211 -216c0 -22 -3 -52 -6 -72h-315c15 -80 68 -121 156 -121c41 0 84 9 123 25l28 -88c-52 -22 -114 -34 -171 -34
zM267 398c-60 0 -96 -38 -104 -110h204c0 70 -37 110 -100 110z" />
    <glyph glyph-name="uni1EB9" unicode="&#x1eb9;" horiz-adv-x="526" 
d="M302 -10c-166 0 -268 96 -268 252c0 151 97 254 242 254c130 0 211 -83 211 -216c0 -22 -3 -52 -6 -72h-315c15 -80 68 -121 156 -121c41 0 84 9 123 25l28 -88c-52 -22 -114 -34 -171 -34zM267 398c-60 0 -96 -38 -104 -110h204c0 70 -37 110 -100 110zM275 -210
c-48 0 -79 30 -79 78s31 79 79 79s78 -31 78 -79s-30 -78 -78 -78z" />
    <glyph glyph-name="egrave" unicode="&#xe8;" horiz-adv-x="526" 
d="M254 546l-147 139l95 77l111 -168zM302 -10c-166 0 -268 96 -268 252c0 151 97 254 242 254c130 0 211 -83 211 -216c0 -22 -3 -52 -6 -72h-315c15 -80 68 -121 156 -121c41 0 84 9 123 25l28 -88c-52 -22 -114 -34 -171 -34zM267 398c-60 0 -96 -38 -104 -110h204
c0 70 -37 110 -100 110z" />
    <glyph glyph-name="uni1EBB" unicode="&#x1ebb;" horiz-adv-x="526" 
d="M246 547l-21 60c31 15 50 39 50 63c0 19 -16 32 -39 32c-18 0 -40 -7 -64 -19l-29 79c40 21 83 32 119 32c68 0 112 -38 112 -95c0 -60 -46 -117 -128 -152zM302 -10c-166 0 -268 96 -268 252c0 151 97 254 242 254c130 0 211 -83 211 -216c0 -22 -3 -52 -6 -72h-315
c15 -80 68 -121 156 -121c41 0 84 9 123 25l28 -88c-52 -22 -114 -34 -171 -34zM267 398c-60 0 -96 -38 -104 -110h204c0 70 -37 110 -100 110z" />
    <glyph glyph-name="uni0207" unicode="&#x207;" horiz-adv-x="526" 
d="M166 551l-61 42c15 96 81 159 170 159c87 0 159 -55 172 -142l-95 -58c-6 61 -45 102 -94 102c-48 0 -87 -38 -92 -103zM302 -10c-166 0 -268 96 -268 252c0 151 97 254 242 254c130 0 211 -83 211 -216c0 -22 -3 -52 -6 -72h-315c15 -80 68 -121 156 -121
c41 0 84 9 123 25l28 -88c-52 -22 -114 -34 -171 -34zM267 398c-60 0 -96 -38 -104 -110h204c0 70 -37 110 -100 110z" />
    <glyph glyph-name="emacron" unicode="&#x113;" horiz-adv-x="526" 
d="M100 591v102h337v-102h-337zM302 -10c-166 0 -268 96 -268 252c0 151 97 254 242 254c130 0 211 -83 211 -216c0 -22 -3 -52 -6 -72h-315c15 -80 68 -121 156 -121c41 0 84 9 123 25l28 -88c-52 -22 -114 -34 -171 -34zM267 398c-60 0 -96 -38 -104 -110h204
c0 70 -37 110 -100 110z" />
    <glyph glyph-name="uni1E17" unicode="&#x1e17;" horiz-adv-x="526" 
d="M275 710l-59 48l111 168l95 -77zM100 557v101h337v-101h-337zM302 -10c-166 0 -268 96 -268 252c0 151 97 254 242 254c130 0 211 -83 211 -216c0 -22 -3 -52 -6 -72h-315c15 -80 68 -121 156 -121c41 0 84 9 123 25l28 -88c-52 -22 -114 -34 -171 -34zM267 398
c-60 0 -96 -38 -104 -110h204c0 70 -37 110 -100 110z" />
    <glyph glyph-name="uni1E15" unicode="&#x1e15;" horiz-adv-x="526" 
d="M254 710l-147 139l95 77l111 -168zM100 557v101h337v-101h-337zM302 -10c-166 0 -268 96 -268 252c0 151 97 254 242 254c130 0 211 -83 211 -216c0 -22 -3 -52 -6 -72h-315c15 -80 68 -121 156 -121c41 0 84 9 123 25l28 -88c-52 -22 -114 -34 -171 -34zM267 398
c-60 0 -96 -38 -104 -110h204c0 70 -37 110 -100 110z" />
    <glyph glyph-name="eogonek" unicode="&#x119;" horiz-adv-x="526" 
d="M302 -10c-166 0 -268 96 -268 252c0 151 97 254 242 254c130 0 211 -83 211 -216c0 -22 -3 -52 -6 -72h-315c15 -80 68 -121 156 -121c41 0 84 9 123 25l28 -88c-6 -3 -12 -5 -18 -7c-63 -34 -101 -82 -101 -129c0 -36 23 -59 51 -59c11 0 31 4 45 11l10 -71
c-25 -15 -57 -24 -92 -24c-80 0 -127 46 -127 115c0 51 27 95 82 131c-7 -1 -14 -1 -21 -1zM267 398c-60 0 -96 -38 -104 -110h204c0 70 -37 110 -100 110z" />
    <glyph glyph-name="uni1EBD" unicode="&#x1ebd;" horiz-adv-x="526" 
d="M163 561l-80 20c16 83 66 131 124 131c57 0 87 -47 123 -47c22 0 41 17 51 49l80 -21c-13 -80 -64 -127 -131 -127c-62 0 -83 45 -118 45c-21 0 -40 -18 -49 -50zM302 -10c-166 0 -268 96 -268 252c0 151 97 254 242 254c130 0 211 -83 211 -216c0 -22 -3 -52 -6 -72
h-315c15 -80 68 -121 156 -121c41 0 84 9 123 25l28 -88c-52 -22 -114 -34 -171 -34zM267 398c-60 0 -96 -38 -104 -110h204c0 70 -37 110 -100 110z" />
    <glyph glyph-name="uni0259" unicode="&#x259;" horiz-adv-x="526" 
d="M225 496c166 0 267 -95 267 -251c0 -152 -97 -255 -242 -255c-129 0 -210 84 -210 216c0 22 2 52 5 72h316c-15 80 -69 121 -157 121c-41 0 -84 -9 -123 -25l-28 88c53 22 114 34 172 34zM260 88c60 0 96 38 103 110h-203c0 -70 36 -110 100 -110z" />
    <glyph glyph-name="f" unicode="f" horiz-adv-x="362" 
d="M92 0v384h-75v102h75v66c0 118 78 197 194 197c41 0 79 -11 110 -29l-26 -92c-18 10 -49 15 -74 15c-53 0 -81 -28 -81 -80v-77h140v-102h-140v-384h-123z" />
    <glyph glyph-name="g" unicode="g" horiz-adv-x="574" 
d="M247 -10c-124 0 -210 98 -210 249c0 155 92 257 226 257c57 0 104 -18 137 -53l16 43h90v-478c0 -143 -102 -238 -257 -238c-55 0 -108 13 -160 38l25 95c43 -18 93 -28 134 -28c86 0 133 44 133 127v40c-35 -33 -81 -52 -134 -52zM166 247c0 -91 46 -149 120 -149
c40 0 73 15 95 42v199c-23 32 -58 49 -100 49c-72 0 -115 -54 -115 -141z" />
    <glyph glyph-name="gbreve" unicode="&#x11f;" horiz-adv-x="574" 
d="M270 551c-91 0 -163 55 -177 143l95 57c7 -61 46 -102 97 -102c52 0 91 39 97 103l60 -41c-15 -97 -83 -160 -172 -160zM247 -10c-124 0 -210 98 -210 249c0 155 92 257 226 257c57 0 104 -18 137 -53l16 43h90v-478c0 -143 -102 -238 -257 -238c-55 0 -108 13 -160 38
l25 95c43 -18 93 -28 134 -28c86 0 133 44 133 127v40c-35 -33 -81 -52 -134 -52zM166 247c0 -91 46 -149 120 -149c40 0 73 15 95 42v199c-23 32 -58 49 -100 49c-72 0 -115 -54 -115 -141z" />
    <glyph glyph-name="gcaron" unicode="&#x1e7;" horiz-adv-x="574" 
d="M241 557l-141 131l75 66l104 -97l110 97l52 -44l-135 -153h-65zM247 -10c-124 0 -210 98 -210 249c0 155 92 257 226 257c57 0 104 -18 137 -53l16 43h90v-478c0 -143 -102 -238 -257 -238c-55 0 -108 13 -160 38l25 95c43 -18 93 -28 134 -28c86 0 133 44 133 127v40
c-35 -33 -81 -52 -134 -52zM166 247c0 -91 46 -149 120 -149c40 0 73 15 95 42v199c-23 32 -58 49 -100 49c-72 0 -115 -54 -115 -141z" />
    <glyph glyph-name="gcircumflex" unicode="&#x11d;" horiz-adv-x="574" 
d="M105 591l137 154h65l137 -132l-71 -67l-106 91l-110 -90zM247 -10c-124 0 -210 98 -210 249c0 155 92 257 226 257c57 0 104 -18 137 -53l16 43h90v-478c0 -143 -102 -238 -257 -238c-55 0 -108 13 -160 38l25 95c43 -18 93 -28 134 -28c86 0 133 44 133 127v40
c-35 -33 -81 -52 -134 -52zM166 247c0 -91 46 -149 120 -149c40 0 73 15 95 42v199c-23 32 -58 49 -100 49c-72 0 -115 -54 -115 -141z" />
    <glyph glyph-name="uni0123" unicode="&#x123;" horiz-adv-x="574" 
d="M345 731c-16 -34 -28 -96 -28 -162h-122c0 70 16 121 49 162h101zM247 -10c-124 0 -210 98 -210 249c0 155 92 257 226 257c57 0 104 -18 137 -53l16 43h90v-478c0 -143 -102 -238 -257 -238c-55 0 -108 13 -160 38l25 95c43 -18 93 -28 134 -28c86 0 133 44 133 127v40
c-35 -33 -81 -52 -134 -52zM166 247c0 -91 46 -149 120 -149c40 0 73 15 95 42v199c-23 32 -58 49 -100 49c-72 0 -115 -54 -115 -141z" />
    <glyph glyph-name="gdotaccent" unicode="&#x121;" horiz-adv-x="574" 
d="M271 576c-48 0 -79 30 -79 78s31 79 79 79s78 -31 78 -79s-30 -78 -78 -78zM247 -10c-124 0 -210 98 -210 249c0 155 92 257 226 257c57 0 104 -18 137 -53l16 43h90v-478c0 -143 -102 -238 -257 -238c-55 0 -108 13 -160 38l25 95c43 -18 93 -28 134 -28
c86 0 133 44 133 127v40c-35 -33 -81 -52 -134 -52zM166 247c0 -91 46 -149 120 -149c40 0 73 15 95 42v199c-23 32 -58 49 -100 49c-72 0 -115 -54 -115 -141z" />
    <glyph glyph-name="uni1E21" unicode="&#x1e21;" horiz-adv-x="574" 
d="M102 591v102h337v-102h-337zM247 -10c-124 0 -210 98 -210 249c0 155 92 257 226 257c57 0 104 -18 137 -53l16 43h90v-478c0 -143 -102 -238 -257 -238c-55 0 -108 13 -160 38l25 95c43 -18 93 -28 134 -28c86 0 133 44 133 127v40c-35 -33 -81 -52 -134 -52zM166 247
c0 -91 46 -149 120 -149c40 0 73 15 95 42v199c-23 32 -58 49 -100 49c-72 0 -115 -54 -115 -141z" />
    <glyph glyph-name="h" unicode="h" horiz-adv-x="573" 
d="M68 0v739h126v-296c41 34 89 51 141 51c111 0 179 -72 179 -189v-305h-127v282c0 66 -32 101 -95 101c-37 0 -69 -12 -98 -39v-344h-126z" />
    <glyph glyph-name="hbar" unicode="&#x127;" horiz-adv-x="573" 
d="M68 0v552h-63v83h63v104h126v-104h126v-83h-126v-109c41 34 89 51 141 51c111 0 179 -72 179 -189v-305h-127v282c0 66 -32 101 -95 101c-37 0 -69 -12 -98 -39v-344h-126z" />
    <glyph glyph-name="uni1E2B" unicode="&#x1e2b;" horiz-adv-x="573" 
d="M68 0v739h126v-296c41 34 89 51 141 51c111 0 179 -72 179 -189v-305h-127v282c0 66 -32 101 -95 101c-37 0 -69 -12 -98 -39v-344h-126zM287 -220c-82 0 -150 49 -178 123l87 54c22 -51 60 -81 107 -81c49 0 83 27 100 81l64 -35c-27 -90 -91 -142 -180 -142z" />
    <glyph glyph-name="hcircumflex" unicode="&#x125;" horiz-adv-x="573" 
d="M140 833l137 155h65l137 -132l-71 -67l-106 91l-110 -91zM68 0v739h126v-296c41 34 89 51 141 51c111 0 179 -72 179 -189v-305h-127v282c0 66 -32 101 -95 101c-37 0 -69 -12 -98 -39v-344h-126z" />
    <glyph glyph-name="uni1E25" unicode="&#x1e25;" horiz-adv-x="573" 
d="M68 0v739h126v-296c41 34 89 51 141 51c111 0 179 -72 179 -189v-305h-127v282c0 66 -32 101 -95 101c-37 0 -69 -12 -98 -39v-344h-126zM288 -210c-48 0 -78 30 -78 78s30 79 78 79s79 -31 79 -79s-31 -78 -79 -78z" />
    <glyph glyph-name="i" unicode="i" horiz-adv-x="271" 
d="M136 576c-48 0 -78 30 -78 78s30 79 78 79s79 -31 79 -79s-31 -78 -79 -78zM72 0v486h127v-486h-127z" />
    <glyph glyph-name="dotlessi" unicode="&#x131;" horiz-adv-x="271" 
d="M72 0v486h127v-486h-127z" />
    <glyph glyph-name="iacute" unicode="&#xed;" horiz-adv-x="271" 
d="M143 546l-59 48l111 168l95 -77zM72 0v486h127v-486h-127z" />
    <glyph glyph-name="ibreve" unicode="&#x12d;" horiz-adv-x="271" 
d="M135 551c-91 0 -162 55 -176 143l94 57c7 -61 46 -102 98 -102c51 0 90 39 96 103l61 -41c-15 -97 -84 -160 -173 -160zM72 0v486h127v-486h-127z" />
    <glyph glyph-name="uni01D0" unicode="&#x1d0;" horiz-adv-x="271" 
d="M106 557l-140 131l75 66l104 -97l110 97l51 -44l-135 -153h-65zM72 0v486h127v-486h-127z" />
    <glyph glyph-name="icircumflex" unicode="&#xee;" horiz-adv-x="271" 
d="M-30 591l137 154h65l137 -132l-70 -67l-107 91l-109 -90zM72 0v486h127v-486h-127z" />
    <glyph glyph-name="uni0209" unicode="&#x209;" horiz-adv-x="271" 
d="M212 540l-121 162l108 60l80 -185zM17 540l-120 162l107 59l80 -184zM72 0v486h127v-486h-127z" />
    <glyph glyph-name="idieresis" unicode="&#xef;" horiz-adv-x="271" 
d="M23 576c-47 0 -78 30 -78 78s31 79 78 79c48 0 79 -31 79 -79s-31 -78 -79 -78zM249 576c-48 0 -79 30 -79 78s31 79 79 79s78 -31 78 -79s-30 -78 -78 -78zM72 0v486h127v-486h-127z" />
    <glyph glyph-name="uni1E2F" unicode="&#x1e2f;" horiz-adv-x="271" 
d="M143 700l-59 49l111 168l95 -77zM28 543c-43 0 -71 28 -71 71c0 45 28 72 71 72c44 0 72 -27 72 -72c0 -43 -28 -71 -72 -71zM244 543c-44 0 -71 28 -71 71c0 45 27 72 71 72s71 -27 71 -72c0 -43 -27 -71 -71 -71zM72 0v486h127v-486h-127z" />
    <glyph glyph-name="i.loclTRK" horiz-adv-x="271" 
d="M136 576c-48 0 -78 30 -78 78s30 79 78 79s79 -31 79 -79s-31 -78 -79 -78zM72 0v486h127v-486h-127z" />
    <glyph glyph-name="uni1ECB" unicode="&#x1ecb;" horiz-adv-x="271" 
d="M136 576c-48 0 -78 30 -78 78s30 79 78 79s79 -31 79 -79s-31 -78 -79 -78zM72 0v486h127v-486h-127zM141 -201c-45 0 -75 29 -75 75s30 75 75 75c46 0 75 -29 75 -75s-29 -75 -75 -75z" />
    <glyph glyph-name="igrave" unicode="&#xec;" horiz-adv-x="271" 
d="M122 546l-147 139l95 77l111 -168zM72 0v486h127v-486h-127z" />
    <glyph glyph-name="uni1EC9" unicode="&#x1ec9;" horiz-adv-x="271" 
d="M114 547l-22 60c32 15 51 39 51 63c0 19 -16 32 -40 32c-17 0 -39 -7 -63 -19l-29 79c40 21 83 32 119 32c68 0 111 -38 111 -95c0 -60 -46 -117 -127 -152zM72 0v486h127v-486h-127z" />
    <glyph glyph-name="uni020B" unicode="&#x20b;" horiz-adv-x="271" 
d="M33 551l-60 42c15 96 81 159 169 159s160 -55 173 -142l-95 -58c-6 61 -45 102 -94 102c-48 0 -87 -38 -93 -103zM72 0v486h127v-486h-127z" />
    <glyph glyph-name="imacron" unicode="&#x12b;" horiz-adv-x="271" 
d="M13 591v101h246v-101h-246zM72 0v486h127v-486h-127z" />
    <glyph glyph-name="iogonek" unicode="&#x12f;" horiz-adv-x="271" 
d="M136 576c-48 0 -78 30 -78 78s30 79 78 79s79 -31 79 -79s-31 -78 -79 -78zM72 0v486h127v-486c-53 -26 -84 -69 -84 -119c0 -33 12 -52 34 -52c13 0 26 5 35 10l10 -70c-22 -14 -51 -23 -82 -23c-72 0 -114 43 -114 108c0 60 36 113 96 146h-22z" />
    <glyph glyph-name="itilde" unicode="&#x129;" horiz-adv-x="271" 
d="M30 561l-80 20c17 83 66 131 125 131c57 0 87 -47 123 -47c22 0 41 17 51 49l79 -21c-12 -80 -64 -127 -130 -127c-62 0 -83 45 -119 45c-20 0 -39 -18 -49 -50zM72 0v486h127v-486h-127z" />
    <glyph glyph-name="j" unicode="j" horiz-adv-x="271" 
d="M136 576c-48 0 -78 30 -78 78s30 79 78 79s79 -31 79 -79s-31 -78 -79 -78zM24 -230l-38 72c53 35 86 94 86 154v490h128v-484c0 -101 -68 -191 -176 -232z" />
    <glyph glyph-name="uni0237" unicode="&#x237;" horiz-adv-x="271" 
d="M24 -230l-38 72c53 35 86 94 86 154v490h128v-484c0 -101 -68 -191 -176 -232z" />
    <glyph glyph-name="uni006A0301" horiz-adv-x="271" 
d="M143 546l-59 48l111 168l95 -77zM24 -230l-38 72c53 35 86 94 86 154v490h128v-484c0 -101 -68 -191 -176 -232z" />
    <glyph glyph-name="jcircumflex" unicode="&#x135;" horiz-adv-x="271" 
d="M-30 591l137 154h65l137 -132l-70 -67l-107 91l-109 -90zM24 -230l-38 72c53 35 86 94 86 154v490h128v-484c0 -101 -68 -191 -176 -232z" />
    <glyph glyph-name="k" unicode="k" horiz-adv-x="532" 
d="M68 0v739h126v-475l178 222h149l-182 -219l200 -267h-164l-181 249v-249h-126z" />
    <glyph glyph-name="uni1E31" unicode="&#x1e31;" horiz-adv-x="532" 
d="M232 784l-51 68l163 144l75 -100zM68 0v739h126v-475l178 222h149l-182 -219l200 -267h-164l-181 249v-249h-126z" />
    <glyph glyph-name="uni0137" unicode="&#x137;" horiz-adv-x="532" 
d="M68 0v739h126v-475l178 222h149l-182 -219l200 -267h-164l-181 249v-249h-126zM191 -227c17 37 28 100 28 167h119c0 -62 -21 -118 -61 -167h-86z" />
    <glyph glyph-name="kgreenlandic" unicode="&#x138;" horiz-adv-x="532" 
d="M68 0v486h128v-218l176 217h149l-182 -218l200 -268h-164l-179 245v-244h-128z" />
    <glyph glyph-name="l" unicode="l" horiz-adv-x="291" 
d="M199 -7c-85 0 -136 51 -136 135v611h126v-595c0 -34 16 -54 45 -54c9 0 20 2 31 6l27 -85c-27 -12 -62 -18 -93 -18z" />
    <glyph glyph-name="lacute" unicode="&#x13a;" horiz-adv-x="291" 
d="M108 784l-50 68l163 144l74 -100zM199 -7c-85 0 -136 51 -136 135v611h126v-595c0 -34 16 -54 45 -54c9 0 20 2 31 6l27 -85c-27 -12 -62 -18 -93 -18z" />
    <glyph glyph-name="lcaron" unicode="&#x13e;" horiz-adv-x="326" 
d="M313 544l-74 10l13 197l106 -13zM199 -7c-85 0 -136 51 -136 135v611h126v-595c0 -34 16 -54 45 -54c9 0 20 2 31 6l27 -85c-27 -12 -62 -18 -93 -18z" />
    <glyph glyph-name="uni013C" unicode="&#x13c;" horiz-adv-x="291" 
d="M199 -7c-85 0 -136 51 -136 135v611h126v-595c0 -34 16 -54 45 -54c9 0 20 2 31 6l27 -85c-27 -12 -62 -18 -93 -18zM77 -227c17 37 28 100 28 167h119c0 -62 -21 -118 -61 -167h-86z" />
    <glyph glyph-name="ldot" unicode="&#x140;" horiz-adv-x="291" 
d="M199 -7c-85 0 -136 51 -136 135v611h126v-595c0 -34 16 -54 45 -54c9 0 20 2 31 6l27 -85c-27 -12 -62 -18 -93 -18zM272 303c-39 0 -65 27 -65 66s26 66 65 66s65 -27 65 -66s-26 -66 -65 -66z" />
    <glyph glyph-name="uni1E37" unicode="&#x1e37;" horiz-adv-x="291" 
d="M199 -7c-85 0 -136 51 -136 135v611h126v-595c0 -34 16 -54 45 -54c9 0 20 2 31 6l27 -85c-27 -12 -62 -18 -93 -18zM164 -210c-48 0 -78 30 -78 78s30 79 78 79s79 -31 79 -79s-31 -78 -79 -78z" />
    <glyph glyph-name="uni01C9" unicode="&#x1c9;" horiz-adv-x="562" 
d="M199 -7c-85 0 -136 51 -136 135v611h126v-595c0 -34 16 -54 45 -54c9 0 20 2 31 6l27 -85c-27 -12 -62 -18 -93 -18zM427 576c-48 0 -78 30 -78 78s30 79 78 79s79 -31 79 -79s-31 -78 -79 -78zM315 -230l-38 72c53 35 86 94 86 154v490h128v-484
c0 -101 -68 -191 -176 -232z" />
    <glyph glyph-name="uni1E3B" unicode="&#x1e3b;" horiz-adv-x="291" 
d="M199 -7c-85 0 -136 51 -136 135v611h126v-595c0 -34 16 -54 45 -54c9 0 20 2 31 6l27 -85c-27 -12 -62 -18 -93 -18zM26 -189v101h276v-101h-276z" />
    <glyph glyph-name="lslash" unicode="&#x142;" horiz-adv-x="291" 
d="M199 -7c-85 0 -136 51 -136 135v163l-38 -20l-46 78l84 45v345h126v-278l71 38l44 -79l-115 -62v-214c0 -34 16 -54 45 -54c9 0 20 2 31 6l27 -85c-27 -12 -62 -18 -93 -18z" />
    <glyph glyph-name="m" unicode="m" horiz-adv-x="894" 
d="M68 0v486h91l22 -50c43 37 98 58 156 58c66 0 118 -27 148 -74c44 47 105 74 172 74c110 0 179 -73 179 -189v-305h-127v282c0 60 -28 101 -96 101c-37 0 -71 -12 -101 -36c2 -13 4 -27 4 -42v-305h-127v282c0 57 -26 101 -96 101c-36 0 -69 -11 -97 -33v-350h-128z" />
    <glyph glyph-name="uni1E43" unicode="&#x1e43;" horiz-adv-x="894" 
d="M68 0v486h91l22 -50c43 37 98 58 156 58c66 0 118 -27 148 -74c44 47 105 74 172 74c110 0 179 -73 179 -189v-305h-127v282c0 60 -28 101 -96 101c-37 0 -71 -12 -101 -36c2 -13 4 -27 4 -42v-305h-127v282c0 57 -26 101 -96 101c-36 0 -69 -11 -97 -33v-350h-128z
M455 -210c-47 0 -78 30 -78 78s31 79 78 79c48 0 79 -31 79 -79s-31 -78 -79 -78z" />
    <glyph glyph-name="n" unicode="n" horiz-adv-x="574" 
d="M68 0v486h91l23 -53c43 40 98 61 157 61c109 0 177 -74 177 -194v-300h-128v282c0 66 -31 101 -93 101c-37 0 -71 -12 -99 -35v-348h-128z" />
    <glyph glyph-name="nacute" unicode="&#x144;" horiz-adv-x="574" 
d="M298 546l-59 48l111 168l95 -77zM68 0v486h91l23 -53c43 40 98 61 157 61c109 0 177 -74 177 -194v-300h-128v282c0 66 -31 101 -93 101c-37 0 -71 -12 -99 -35v-348h-128z" />
    <glyph glyph-name="ncaron" unicode="&#x148;" horiz-adv-x="574" 
d="M261 557l-140 131l75 66l104 -97l110 97l51 -44l-135 -153h-65zM68 0v486h91l23 -53c43 40 98 61 157 61c109 0 177 -74 177 -194v-300h-128v282c0 66 -31 101 -93 101c-37 0 -71 -12 -99 -35v-348h-128z" />
    <glyph glyph-name="uni0146" unicode="&#x146;" horiz-adv-x="574" 
d="M68 0v486h91l23 -53c43 40 98 61 157 61c109 0 177 -74 177 -194v-300h-128v282c0 66 -31 101 -93 101c-37 0 -71 -12 -99 -35v-348h-128zM204 -227c17 37 28 100 28 167h119c0 -62 -20 -118 -61 -167h-86z" />
    <glyph glyph-name="uni1E45" unicode="&#x1e45;" horiz-adv-x="574" 
d="M291 576c-48 0 -78 30 -78 78s30 79 78 79s79 -31 79 -79s-31 -78 -79 -78zM68 0v486h91l23 -53c43 40 98 61 157 61c109 0 177 -74 177 -194v-300h-128v282c0 66 -31 101 -93 101c-37 0 -71 -12 -99 -35v-348h-128z" />
    <glyph glyph-name="uni1E47" unicode="&#x1e47;" horiz-adv-x="574" 
d="M68 0v486h91l23 -53c43 40 98 61 157 61c109 0 177 -74 177 -194v-300h-128v282c0 66 -31 101 -93 101c-37 0 -71 -12 -99 -35v-348h-128zM291 -210c-48 0 -78 30 -78 78s30 79 78 79s79 -31 79 -79s-31 -78 -79 -78z" />
    <glyph glyph-name="eng" unicode="&#x14b;" horiz-adv-x="574" 
d="M68 0v486h91l23 -53c43 40 98 61 157 61c108 0 177 -72 177 -184v-328c0 -94 -59 -178 -149 -209l-41 73c38 21 62 70 62 124v312c0 66 -31 101 -93 101c-37 0 -71 -12 -99 -35v-348h-128z" />
    <glyph glyph-name="uni01CC" unicode="&#x1cc;" horiz-adv-x="846" 
d="M710 576c-47 0 -78 30 -78 78s31 79 78 79c48 0 79 -31 79 -79s-31 -78 -79 -78zM68 0v486h91l23 -53c43 40 98 61 157 61c109 0 177 -74 177 -194v-300h-128v282c0 66 -31 101 -93 101c-37 0 -71 -12 -99 -35v-348h-128zM598 -230l-38 72c53 35 86 94 86 154v490h128
v-484c0 -101 -68 -191 -176 -232z" />
    <glyph glyph-name="uni1E49" unicode="&#x1e49;" horiz-adv-x="574" 
d="M68 0v486h91l23 -53c43 40 98 61 157 61c109 0 177 -74 177 -194v-300h-128v282c0 66 -31 101 -93 101c-37 0 -71 -12 -99 -35v-348h-128zM124 -189v101h333v-101h-333z" />
    <glyph glyph-name="ntilde" unicode="&#xf1;" horiz-adv-x="574" 
d="M185 561l-80 20c17 83 66 131 125 131c56 0 87 -47 122 -47c23 0 42 17 52 49l79 -21c-12 -80 -64 -127 -130 -127c-62 0 -83 45 -119 45c-20 0 -39 -18 -49 -50zM68 0v486h91l23 -53c43 40 98 61 157 61c109 0 177 -74 177 -194v-300h-128v282c0 66 -31 101 -93 101
c-37 0 -71 -12 -99 -35v-348h-128z" />
    <glyph glyph-name="o" unicode="o" horiz-adv-x="566" 
d="M275 -10c-147 0 -241 97 -241 245c0 157 103 261 257 261c146 0 241 -96 241 -245c0 -156 -103 -261 -257 -261zM286 98c72 0 117 54 117 140c0 91 -49 150 -124 150c-72 0 -116 -54 -116 -142c0 -90 48 -148 123 -148z" />
    <glyph glyph-name="oacute" unicode="&#xf3;" horiz-adv-x="566" 
d="M290 546l-60 48l111 168l95 -77zM275 -10c-147 0 -241 97 -241 245c0 157 103 261 257 261c146 0 241 -96 241 -245c0 -156 -103 -261 -257 -261zM286 98c72 0 117 54 117 140c0 91 -49 150 -124 150c-72 0 -116 -54 -116 -142c0 -90 48 -148 123 -148z" />
    <glyph glyph-name="obreve" unicode="&#x14f;" horiz-adv-x="566" 
d="M282 551c-91 0 -163 55 -177 143l95 57c7 -61 46 -102 97 -102c52 0 91 39 97 103l60 -41c-15 -97 -83 -160 -172 -160zM275 -10c-147 0 -241 97 -241 245c0 157 103 261 257 261c146 0 241 -96 241 -245c0 -156 -103 -261 -257 -261zM286 98c72 0 117 54 117 140
c0 91 -49 150 -124 150c-72 0 -116 -54 -116 -142c0 -90 48 -148 123 -148z" />
    <glyph glyph-name="uni01D2" unicode="&#x1d2;" horiz-adv-x="566" 
d="M253 557l-141 131l75 66l104 -97l110 97l51 -44l-134 -153h-65zM275 -10c-147 0 -241 97 -241 245c0 157 103 261 257 261c146 0 241 -96 241 -245c0 -156 -103 -261 -257 -261zM286 98c72 0 117 54 117 140c0 91 -49 150 -124 150c-72 0 -116 -54 -116 -142
c0 -90 48 -148 123 -148z" />
    <glyph glyph-name="ocircumflex" unicode="&#xf4;" horiz-adv-x="566" 
d="M117 591l137 154h64l137 -132l-70 -67l-107 91l-109 -90zM275 -10c-147 0 -241 97 -241 245c0 157 103 261 257 261c146 0 241 -96 241 -245c0 -156 -103 -261 -257 -261zM286 98c72 0 117 54 117 140c0 91 -49 150 -124 150c-72 0 -116 -54 -116 -142
c0 -90 48 -148 123 -148z" />
    <glyph glyph-name="uni1ED1" unicode="&#x1ed1;" horiz-adv-x="566" 
d="M444 651l-56 48l114 163l90 -76zM117 568l137 129h65l137 -107l-71 -67l-106 72l-110 -71zM275 -10c-147 0 -241 97 -241 245c0 157 103 261 257 261c146 0 241 -96 241 -245c0 -156 -103 -261 -257 -261zM286 98c72 0 117 54 117 140c0 91 -49 150 -124 150
c-72 0 -116 -54 -116 -142c0 -90 48 -148 123 -148z" />
    <glyph glyph-name="uni1ED9" unicode="&#x1ed9;" horiz-adv-x="566" 
d="M117 591l137 154h64l137 -132l-70 -67l-107 91l-109 -90zM275 -10c-147 0 -241 97 -241 245c0 157 103 261 257 261c146 0 241 -96 241 -245c0 -156 -103 -261 -257 -261zM286 98c72 0 117 54 117 140c0 91 -49 150 -124 150c-72 0 -116 -54 -116 -142
c0 -90 48 -148 123 -148zM282 -210c-47 0 -78 30 -78 78s31 79 78 79c48 0 79 -31 79 -79s-31 -78 -79 -78z" />
    <glyph glyph-name="uni1ED3" unicode="&#x1ed3;" horiz-adv-x="566" 
d="M443 653l-155 129l87 79l121 -158zM117 568l137 129h65l137 -107l-71 -67l-106 72l-110 -71zM275 -10c-147 0 -241 97 -241 245c0 157 103 261 257 261c146 0 241 -96 241 -245c0 -156 -103 -261 -257 -261zM286 98c72 0 117 54 117 140c0 91 -49 150 -124 150
c-72 0 -116 -54 -116 -142c0 -90 48 -148 123 -148z" />
    <glyph glyph-name="uni1ED5" unicode="&#x1ed5;" horiz-adv-x="566" 
d="M424 664l-21 58c30 9 50 28 50 45c0 14 -15 23 -39 23c-17 0 -38 -4 -64 -13l-29 73c40 17 84 25 119 25c68 0 112 -33 112 -82c0 -50 -47 -101 -128 -129zM117 568l137 129h65l137 -107l-71 -67l-106 72l-110 -71zM275 -10c-147 0 -241 97 -241 245
c0 157 103 261 257 261c146 0 241 -96 241 -245c0 -156 -103 -261 -257 -261zM286 98c72 0 117 54 117 140c0 91 -49 150 -124 150c-72 0 -116 -54 -116 -142c0 -90 48 -148 123 -148z" />
    <glyph glyph-name="uni1ED7" unicode="&#x1ed7;" horiz-adv-x="566" 
d="M185 727l-74 18c15 73 62 117 116 117c52 0 81 -39 114 -39c22 0 39 15 48 40l74 -19c-11 -71 -61 -112 -121 -112c-58 0 -78 36 -111 36c-19 0 -37 -15 -46 -41zM117 568l137 129h65l137 -107l-71 -67l-106 72l-110 -71zM275 -10c-147 0 -241 97 -241 245
c0 157 103 261 257 261c146 0 241 -96 241 -245c0 -156 -103 -261 -257 -261zM286 98c72 0 117 54 117 140c0 91 -49 150 -124 150c-72 0 -116 -54 -116 -142c0 -90 48 -148 123 -148z" />
    <glyph glyph-name="uni020D" unicode="&#x20d;" horiz-adv-x="566" 
d="M359 540l-121 162l107 60l81 -185zM163 540l-120 162l107 59l81 -184zM275 -10c-147 0 -241 97 -241 245c0 157 103 261 257 261c146 0 241 -96 241 -245c0 -156 -103 -261 -257 -261zM286 98c72 0 117 54 117 140c0 91 -49 150 -124 150c-72 0 -116 -54 -116 -142
c0 -90 48 -148 123 -148z" />
    <glyph glyph-name="odieresis" unicode="&#xf6;" horiz-adv-x="566" 
d="M170 576c-48 0 -79 30 -79 78s31 79 79 79c47 0 78 -31 78 -79s-31 -78 -78 -78zM395 576c-47 0 -78 30 -78 78s31 79 78 79c48 0 79 -31 79 -79s-31 -78 -79 -78zM275 -10c-147 0 -241 97 -241 245c0 157 103 261 257 261c146 0 241 -96 241 -245
c0 -156 -103 -261 -257 -261zM286 98c72 0 117 54 117 140c0 91 -49 150 -124 150c-72 0 -116 -54 -116 -142c0 -90 48 -148 123 -148z" />
    <glyph glyph-name="uni022B" unicode="&#x22b;" horiz-adv-x="566" 
d="M114 746v102h337v-102h-337zM175 543c-44 0 -72 28 -72 71c0 45 28 72 72 72c43 0 71 -27 71 -72c0 -43 -28 -71 -71 -71zM390 543c-43 0 -71 28 -71 71c0 45 28 72 71 72c44 0 72 -27 72 -72c0 -43 -28 -71 -72 -71zM275 -10c-147 0 -241 97 -241 245
c0 157 103 261 257 261c146 0 241 -96 241 -245c0 -156 -103 -261 -257 -261zM286 98c72 0 117 54 117 140c0 91 -49 150 -124 150c-72 0 -116 -54 -116 -142c0 -90 48 -148 123 -148z" />
    <glyph glyph-name="uni0231" unicode="&#x231;" horiz-adv-x="566" 
d="M114 746v102h337v-102h-337zM282 543c-43 0 -71 28 -71 71c0 45 28 72 71 72c44 0 72 -27 72 -72c0 -43 -28 -71 -72 -71zM275 -10c-147 0 -241 97 -241 245c0 157 103 261 257 261c146 0 241 -96 241 -245c0 -156 -103 -261 -257 -261zM286 98c72 0 117 54 117 140
c0 91 -49 150 -124 150c-72 0 -116 -54 -116 -142c0 -90 48 -148 123 -148z" />
    <glyph glyph-name="uni1ECD" unicode="&#x1ecd;" horiz-adv-x="566" 
d="M275 -10c-147 0 -241 97 -241 245c0 157 103 261 257 261c146 0 241 -96 241 -245c0 -156 -103 -261 -257 -261zM286 98c72 0 117 54 117 140c0 91 -49 150 -124 150c-72 0 -116 -54 -116 -142c0 -90 48 -148 123 -148zM282 -210c-47 0 -78 30 -78 78s31 79 78 79
c48 0 79 -31 79 -79s-31 -78 -79 -78z" />
    <glyph glyph-name="ograve" unicode="&#xf2;" horiz-adv-x="566" 
d="M268 546l-147 139l95 77l111 -168zM275 -10c-147 0 -241 97 -241 245c0 157 103 261 257 261c146 0 241 -96 241 -245c0 -156 -103 -261 -257 -261zM286 98c72 0 117 54 117 140c0 91 -49 150 -124 150c-72 0 -116 -54 -116 -142c0 -90 48 -148 123 -148z" />
    <glyph glyph-name="uni1ECF" unicode="&#x1ecf;" horiz-adv-x="566" 
d="M260 547l-21 60c31 15 50 39 50 63c0 19 -16 32 -39 32c-18 0 -40 -7 -64 -19l-29 79c40 21 83 32 119 32c68 0 112 -38 112 -95c0 -60 -46 -117 -128 -152zM275 -10c-147 0 -241 97 -241 245c0 157 103 261 257 261c146 0 241 -96 241 -245c0 -156 -103 -261 -257 -261z
M286 98c72 0 117 54 117 140c0 91 -49 150 -124 150c-72 0 -116 -54 -116 -142c0 -90 48 -148 123 -148z" />
    <glyph glyph-name="ohorn" unicode="&#x1a1;" horiz-adv-x="656" 
d="M275 -10c-147 0 -241 97 -241 245c0 157 103 261 257 261c87 0 156 -34 197 -94c27 14 43 45 43 87c0 34 -10 68 -29 97h117c20 -28 30 -62 30 -99c0 -83 -48 -139 -127 -158c6 -24 10 -50 10 -78c0 -156 -103 -261 -257 -261zM286 98c72 0 117 54 117 140
c0 91 -49 150 -124 150c-72 0 -116 -54 -116 -142c0 -90 48 -148 123 -148z" />
    <glyph glyph-name="uni1EDB" unicode="&#x1edb;" horiz-adv-x="656" 
d="M290 546l-60 48l111 168l95 -77zM275 -10c-147 0 -241 97 -241 245c0 157 103 261 257 261c87 0 156 -34 197 -94c27 14 43 45 43 87c0 34 -10 68 -29 97h117c20 -28 30 -62 30 -99c0 -83 -48 -139 -127 -158c6 -24 10 -50 10 -78c0 -156 -103 -261 -257 -261zM286 98
c72 0 117 54 117 140c0 91 -49 150 -124 150c-72 0 -116 -54 -116 -142c0 -90 48 -148 123 -148z" />
    <glyph glyph-name="uni1EE3" unicode="&#x1ee3;" horiz-adv-x="656" 
d="M275 -10c-147 0 -241 97 -241 245c0 157 103 261 257 261c87 0 156 -34 197 -94c27 14 43 45 43 87c0 34 -10 68 -29 97h117c20 -28 30 -62 30 -99c0 -83 -48 -139 -127 -158c6 -24 10 -50 10 -78c0 -156 -103 -261 -257 -261zM286 98c72 0 117 54 117 140
c0 91 -49 150 -124 150c-72 0 -116 -54 -116 -142c0 -90 48 -148 123 -148zM282 -210c-47 0 -78 30 -78 78s31 79 78 79c48 0 79 -31 79 -79s-31 -78 -79 -78z" />
    <glyph glyph-name="uni1EDD" unicode="&#x1edd;" horiz-adv-x="656" 
d="M268 546l-147 139l95 77l111 -168zM275 -10c-147 0 -241 97 -241 245c0 157 103 261 257 261c87 0 156 -34 197 -94c27 14 43 45 43 87c0 34 -10 68 -29 97h117c20 -28 30 -62 30 -99c0 -83 -48 -139 -127 -158c6 -24 10 -50 10 -78c0 -156 -103 -261 -257 -261zM286 98
c72 0 117 54 117 140c0 91 -49 150 -124 150c-72 0 -116 -54 -116 -142c0 -90 48 -148 123 -148z" />
    <glyph glyph-name="uni1EDF" unicode="&#x1edf;" horiz-adv-x="656" 
d="M260 547l-21 60c31 15 50 39 50 63c0 19 -16 32 -39 32c-18 0 -40 -7 -64 -19l-29 79c40 21 83 32 119 32c68 0 112 -38 112 -95c0 -60 -46 -117 -128 -152zM275 -10c-147 0 -241 97 -241 245c0 157 103 261 257 261c87 0 156 -34 197 -94c27 14 43 45 43 87
c0 34 -10 68 -29 97h117c20 -28 30 -62 30 -99c0 -83 -48 -139 -127 -158c6 -24 10 -50 10 -78c0 -156 -103 -261 -257 -261zM286 98c72 0 117 54 117 140c0 91 -49 150 -124 150c-72 0 -116 -54 -116 -142c0 -90 48 -148 123 -148z" />
    <glyph glyph-name="uni1EE1" unicode="&#x1ee1;" horiz-adv-x="656" 
d="M177 561l-80 20c16 83 66 131 124 131c57 0 87 -47 123 -47c22 0 41 17 51 49l80 -21c-13 -80 -64 -127 -131 -127c-62 0 -83 45 -118 45c-21 0 -40 -18 -49 -50zM275 -10c-147 0 -241 97 -241 245c0 157 103 261 257 261c87 0 156 -34 197 -94c27 14 43 45 43 87
c0 34 -10 68 -29 97h117c20 -28 30 -62 30 -99c0 -83 -48 -139 -127 -158c6 -24 10 -50 10 -78c0 -156 -103 -261 -257 -261zM286 98c72 0 117 54 117 140c0 91 -49 150 -124 150c-72 0 -116 -54 -116 -142c0 -90 48 -148 123 -148z" />
    <glyph glyph-name="ohungarumlaut" unicode="&#x151;" horiz-adv-x="566" 
d="M198 540l-67 37l80 185l108 -60zM393 540l-67 37l80 184l107 -59zM275 -10c-147 0 -241 97 -241 245c0 157 103 261 257 261c146 0 241 -96 241 -245c0 -156 -103 -261 -257 -261zM286 98c72 0 117 54 117 140c0 91 -49 150 -124 150c-72 0 -116 -54 -116 -142
c0 -90 48 -148 123 -148z" />
    <glyph glyph-name="uni020F" unicode="&#x20f;" horiz-adv-x="566" 
d="M180 551l-61 42c15 96 81 159 170 159c87 0 159 -55 172 -142l-95 -58c-6 61 -45 102 -94 102c-48 0 -87 -38 -92 -103zM275 -10c-147 0 -241 97 -241 245c0 157 103 261 257 261c146 0 241 -96 241 -245c0 -156 -103 -261 -257 -261zM286 98c72 0 117 54 117 140
c0 91 -49 150 -124 150c-72 0 -116 -54 -116 -142c0 -90 48 -148 123 -148z" />
    <glyph glyph-name="omacron" unicode="&#x14d;" horiz-adv-x="566" 
d="M114 591v102h337v-102h-337zM275 -10c-147 0 -241 97 -241 245c0 157 103 261 257 261c146 0 241 -96 241 -245c0 -156 -103 -261 -257 -261zM286 98c72 0 117 54 117 140c0 91 -49 150 -124 150c-72 0 -116 -54 -116 -142c0 -90 48 -148 123 -148z" />
    <glyph glyph-name="uni1E53" unicode="&#x1e53;" horiz-adv-x="566" 
d="M290 710l-60 48l111 168l95 -77zM114 557v101h337v-101h-337zM275 -10c-147 0 -241 97 -241 245c0 157 103 261 257 261c146 0 241 -96 241 -245c0 -156 -103 -261 -257 -261zM286 98c72 0 117 54 117 140c0 91 -49 150 -124 150c-72 0 -116 -54 -116 -142
c0 -90 48 -148 123 -148z" />
    <glyph glyph-name="uni1E51" unicode="&#x1e51;" horiz-adv-x="566" 
d="M268 710l-147 139l95 77l111 -168zM114 557v101h337v-101h-337zM275 -10c-147 0 -241 97 -241 245c0 157 103 261 257 261c146 0 241 -96 241 -245c0 -156 -103 -261 -257 -261zM286 98c72 0 117 54 117 140c0 91 -49 150 -124 150c-72 0 -116 -54 -116 -142
c0 -90 48 -148 123 -148z" />
    <glyph glyph-name="uni01EB" unicode="&#x1eb;" horiz-adv-x="566" 
d="M305 -255c-79 0 -126 46 -126 115c0 51 27 95 81 130c-138 7 -226 102 -226 245c0 157 103 261 257 261c146 0 241 -96 241 -245c0 -119 -60 -208 -156 -244c-53 -32 -84 -76 -84 -119c0 -36 23 -59 51 -59c11 0 31 4 45 11l10 -71c-25 -15 -57 -24 -93 -24zM286 98
c72 0 117 54 117 140c0 91 -49 150 -124 150c-72 0 -116 -54 -116 -142c0 -90 48 -148 123 -148z" />
    <glyph glyph-name="oslash" unicode="&#xf8;" horiz-adv-x="568" 
d="M119 -60l-57 36l49 72c-48 43 -75 108 -75 187c0 157 102 261 256 261c39 0 75 -7 105 -20l48 71l60 -36l-48 -71c48 -43 76 -109 76 -189c0 -156 -103 -261 -256 -261c-41 0 -78 7 -110 21zM163 246c0 -35 7 -65 21 -89l148 221c-16 7 -33 10 -51 10
c-73 0 -118 -54 -118 -142zM288 98c73 0 118 54 118 140c0 37 -8 68 -23 93l-149 -221c16 -8 34 -12 54 -12z" />
    <glyph glyph-name="oslashacute" unicode="&#x1ff;" horiz-adv-x="568" 
d="M292 546l-59 48l111 168l95 -77zM119 -60l-57 36l49 72c-48 43 -75 108 -75 187c0 157 102 261 256 261c39 0 75 -7 105 -20l48 71l60 -36l-48 -71c48 -43 76 -109 76 -189c0 -156 -103 -261 -256 -261c-41 0 -78 7 -110 21zM163 246c0 -35 7 -65 21 -89l148 221
c-16 7 -33 10 -51 10c-73 0 -118 -54 -118 -142zM288 98c73 0 118 54 118 140c0 37 -8 68 -23 93l-149 -221c16 -8 34 -12 54 -12z" />
    <glyph glyph-name="otilde" unicode="&#xf5;" horiz-adv-x="566" 
d="M177 561l-80 20c16 83 66 131 124 131c57 0 87 -47 123 -47c22 0 41 17 51 49l80 -21c-13 -80 -64 -127 -131 -127c-62 0 -83 45 -118 45c-21 0 -40 -18 -49 -50zM275 -10c-147 0 -241 97 -241 245c0 157 103 261 257 261c146 0 241 -96 241 -245
c0 -156 -103 -261 -257 -261zM286 98c72 0 117 54 117 140c0 91 -49 150 -124 150c-72 0 -116 -54 -116 -142c0 -90 48 -148 123 -148z" />
    <glyph glyph-name="uni1E4D" unicode="&#x1e4d;" horiz-adv-x="566" 
d="M290 731l-60 49l111 167l95 -77zM177 561l-80 20c16 83 66 131 124 131c57 0 87 -47 123 -47c22 0 41 17 51 49l80 -21c-13 -80 -64 -127 -131 -127c-62 0 -83 45 -118 45c-21 0 -40 -18 -49 -50zM275 -10c-147 0 -241 97 -241 245c0 157 103 261 257 261
c146 0 241 -96 241 -245c0 -156 -103 -261 -257 -261zM286 98c72 0 117 54 117 140c0 91 -49 150 -124 150c-72 0 -116 -54 -116 -142c0 -90 48 -148 123 -148z" />
    <glyph glyph-name="uni1E4F" unicode="&#x1e4f;" horiz-adv-x="566" 
d="M170 761c-48 0 -79 31 -79 79s31 79 79 79c47 0 78 -31 78 -79s-31 -79 -78 -79zM395 761c-47 0 -78 31 -78 79s31 79 78 79c48 0 79 -31 79 -79s-31 -79 -79 -79zM177 561l-80 20c16 83 66 131 124 131c57 0 87 -47 123 -47c22 0 41 17 51 49l80 -21
c-13 -80 -64 -127 -131 -127c-62 0 -83 45 -118 45c-21 0 -40 -18 -49 -50zM275 -10c-147 0 -241 97 -241 245c0 157 103 261 257 261c146 0 241 -96 241 -245c0 -156 -103 -261 -257 -261zM286 98c72 0 117 54 117 140c0 91 -49 150 -124 150c-72 0 -116 -54 -116 -142
c0 -90 48 -148 123 -148z" />
    <glyph glyph-name="uni022D" unicode="&#x22d;" horiz-adv-x="566" 
d="M114 777v102h337v-102h-337zM177 561l-80 20c16 83 66 131 124 131c57 0 87 -47 123 -47c22 0 41 17 51 49l80 -21c-13 -80 -64 -127 -131 -127c-62 0 -83 45 -118 45c-21 0 -40 -18 -49 -50zM275 -10c-147 0 -241 97 -241 245c0 157 103 261 257 261
c146 0 241 -96 241 -245c0 -156 -103 -261 -257 -261zM286 98c72 0 117 54 117 140c0 91 -49 150 -124 150c-72 0 -116 -54 -116 -142c0 -90 48 -148 123 -148z" />
    <glyph glyph-name="oe" unicode="&#x153;" horiz-adv-x="895" 
d="M267 -10c-140 0 -233 99 -233 247c0 154 101 259 247 259c78 0 139 -31 177 -86c43 54 110 86 189 86c126 0 208 -83 208 -216c0 -22 -2 -52 -5 -72h-315c15 -80 68 -121 156 -121c40 0 80 8 123 25l28 -88c-60 -23 -116 -34 -170 -34c-95 0 -171 34 -217 92
c-41 -58 -106 -92 -188 -92zM636 398c-60 0 -96 -37 -104 -110h203c0 71 -38 110 -99 110zM286 98c71 0 117 56 117 140c0 90 -50 150 -124 150c-71 0 -116 -55 -116 -142c0 -89 50 -148 123 -148z" />
    <glyph glyph-name="p" unicode="p" horiz-adv-x="573" 
d="M68 -217v703h86l23 -54c37 41 89 64 148 64c125 0 212 -100 212 -245c0 -153 -94 -261 -225 -261c-48 0 -89 15 -120 43v-250h-124zM289 388c-37 0 -72 -15 -97 -41v-194c22 -34 60 -55 103 -55c71 0 113 55 113 143c0 91 -46 147 -119 147z" />
    <glyph glyph-name="thorn" unicode="&#xfe;" horiz-adv-x="571" 
d="M68 -217v956h123v-286c33 28 76 43 126 43c129 0 218 -101 218 -247c0 -152 -94 -259 -228 -259c-46 0 -85 13 -116 38v-245h-123zM282 388c-38 0 -69 -14 -91 -40v-205c23 -29 57 -45 98 -45c74 0 117 56 117 140c0 90 -48 150 -124 150z" />
    <glyph glyph-name="q" unicode="q" horiz-adv-x="574" 
d="M248 -10c-126 0 -211 100 -211 250c0 154 91 256 227 256c57 0 104 -18 137 -53l18 43h86v-703h-124v259c-34 -33 -80 -52 -133 -52zM166 247c0 -91 46 -149 121 -149c40 0 72 15 94 42v199c-22 31 -57 49 -99 49c-73 0 -116 -54 -116 -141z" />
    <glyph glyph-name="r" unicode="r" horiz-adv-x="407" 
d="M69 0v486h101l12 -72c37 48 91 77 149 77c26 0 53 -6 75 -17l-29 -112c-19 9 -43 14 -66 14c-45 0 -86 -20 -115 -55v-321h-127z" />
    <glyph glyph-name="racute" unicode="&#x155;" horiz-adv-x="407" 
d="M227 546l-59 48l111 168l95 -77zM69 0v486h101l12 -72c37 48 91 77 149 77c26 0 53 -6 75 -17l-29 -112c-19 9 -43 14 -66 14c-45 0 -86 -20 -115 -55v-321h-127z" />
    <glyph glyph-name="rcaron" unicode="&#x159;" horiz-adv-x="407" 
d="M191 557l-141 131l75 66l104 -97l110 97l51 -44l-134 -153h-65zM69 0v486h101l12 -72c37 48 91 77 149 77c26 0 53 -6 75 -17l-29 -112c-19 9 -43 14 -66 14c-45 0 -86 -20 -115 -55v-321h-127z" />
    <glyph glyph-name="uni0157" unicode="&#x157;" horiz-adv-x="407" 
d="M69 0v486h101l12 -72c37 48 91 77 149 77c26 0 53 -6 75 -17l-29 -112c-19 9 -43 14 -66 14c-45 0 -86 -20 -115 -55v-321h-127zM45 -227c17 37 28 100 28 167h119c0 -62 -20 -118 -61 -167h-86z" />
    <glyph glyph-name="uni0211" unicode="&#x211;" horiz-adv-x="407" 
d="M296 540l-120 162l107 60l80 -185zM101 540l-120 162l107 59l80 -184zM69 0v486h101l12 -72c37 48 91 77 149 77c26 0 53 -6 75 -17l-29 -112c-19 9 -43 14 -66 14c-45 0 -86 -20 -115 -55v-321h-127z" />
    <glyph glyph-name="uni1E5B" unicode="&#x1e5b;" horiz-adv-x="407" 
d="M69 0v486h101l12 -72c37 48 91 77 149 77c26 0 53 -6 75 -17l-29 -112c-19 9 -43 14 -66 14c-45 0 -86 -20 -115 -55v-321h-127zM132 -210c-48 0 -78 30 -78 78s30 79 78 79s79 -31 79 -79s-31 -78 -79 -78z" />
    <glyph glyph-name="uni0213" unicode="&#x213;" horiz-adv-x="407" 
d="M117 551l-60 42c15 96 81 159 169 159s160 -55 173 -142l-95 -58c-6 61 -45 102 -94 102c-48 0 -87 -38 -93 -103zM69 0v486h101l12 -72c37 48 91 77 149 77c26 0 53 -6 75 -17l-29 -112c-19 9 -43 14 -66 14c-45 0 -86 -20 -115 -55v-321h-127z" />
    <glyph glyph-name="uni1E5F" unicode="&#x1e5f;" horiz-adv-x="407" 
d="M69 0v486h101l12 -72c37 48 91 77 149 77c26 0 53 -6 75 -17l-29 -112c-19 9 -43 14 -66 14c-45 0 -86 -20 -115 -55v-321h-127zM-6 -189v101h276v-101h-276z" />
    <glyph glyph-name="s" unicode="s" horiz-adv-x="471" 
d="M227 -10c-66 0 -137 14 -193 38l28 95c51 -20 116 -33 163 -33c55 0 87 19 87 50c0 88 -271 19 -271 200c0 100 81 156 220 156c55 0 112 -9 157 -25l-26 -96c-45 13 -93 21 -133 21c-60 0 -94 -18 -94 -47c0 -82 274 -21 274 -203c0 -97 -78 -156 -212 -156z" />
    <glyph glyph-name="sacute" unicode="&#x15b;" horiz-adv-x="471" 
d="M242 546l-60 48l111 168l95 -77zM227 -10c-66 0 -137 14 -193 38l28 95c51 -20 116 -33 163 -33c55 0 87 19 87 50c0 88 -271 19 -271 200c0 100 81 156 220 156c55 0 112 -9 157 -25l-26 -96c-45 13 -93 21 -133 21c-60 0 -94 -18 -94 -47c0 -82 274 -21 274 -203
c0 -97 -78 -156 -212 -156z" />
    <glyph glyph-name="uni1E65" unicode="&#x1e65;" horiz-adv-x="471" 
d="M176 700c-44 0 -72 28 -72 72s28 71 72 71c43 0 71 -27 71 -71s-28 -72 -71 -72zM242 549l-56 48l114 163l90 -76zM227 -10c-66 0 -137 14 -193 38l28 95c51 -20 116 -33 163 -33c55 0 87 19 87 50c0 88 -271 19 -271 200c0 100 81 156 220 156c55 0 112 -9 157 -25
l-26 -96c-45 13 -93 21 -133 21c-60 0 -94 -18 -94 -47c0 -82 274 -21 274 -203c0 -97 -78 -156 -212 -156z" />
    <glyph glyph-name="uniA78C" unicode="&#xa78c;" horiz-adv-x="159" 
d="M32 301l-16 400h136l-16 -400h-104z" />
    <glyph glyph-name="scaron" unicode="&#x161;" horiz-adv-x="471" 
d="M205 557l-141 131l75 66l104 -97l110 97l51 -44l-134 -153h-65zM227 -10c-66 0 -137 14 -193 38l28 95c51 -20 116 -33 163 -33c55 0 87 19 87 50c0 88 -271 19 -271 200c0 100 81 156 220 156c55 0 112 -9 157 -25l-26 -96c-45 13 -93 21 -133 21c-60 0 -94 -18 -94 -47
c0 -82 274 -21 274 -203c0 -97 -78 -156 -212 -156z" />
    <glyph glyph-name="uni1E67" unicode="&#x1e67;" horiz-adv-x="471" 
d="M235 713c-44 0 -72 28 -72 72s28 72 72 72c43 0 71 -28 71 -72s-28 -72 -71 -72zM406 674l-136 -137h-72l-135 107l72 69l111 -78l113 80zM227 -10c-66 0 -137 14 -193 38l28 95c51 -20 116 -33 163 -33c55 0 87 19 87 50c0 88 -271 19 -271 200c0 100 81 156 220 156
c55 0 112 -9 157 -25l-26 -96c-45 13 -93 21 -133 21c-60 0 -94 -18 -94 -47c0 -82 274 -21 274 -203c0 -97 -78 -156 -212 -156z" />
    <glyph glyph-name="scedilla" unicode="&#x15f;" horiz-adv-x="471" 
d="M234 -257c-41 0 -79 8 -107 23l17 71c22 -10 56 -16 81 -16c33 0 51 11 51 30c0 28 -35 46 -101 50l17 90c-56 4 -112 17 -158 37l28 95c51 -20 116 -33 163 -33c55 0 87 19 87 50c0 88 -271 19 -271 200c0 100 81 156 220 156c55 0 112 -9 157 -25l-26 -96
c-45 13 -93 21 -133 21c-60 0 -94 -18 -94 -47c0 -82 274 -21 274 -203c0 -84 -58 -139 -160 -153l-8 -44c74 -11 111 -43 111 -97c0 -68 -56 -109 -148 -109z" />
    <glyph glyph-name="scircumflex" unicode="&#x15d;" horiz-adv-x="471" 
d="M69 591l137 154h64l138 -132l-71 -67l-106 91l-110 -90zM227 -10c-66 0 -137 14 -193 38l28 95c51 -20 116 -33 163 -33c55 0 87 19 87 50c0 88 -271 19 -271 200c0 100 81 156 220 156c55 0 112 -9 157 -25l-26 -96c-45 13 -93 21 -133 21c-60 0 -94 -18 -94 -47
c0 -82 274 -21 274 -203c0 -97 -78 -156 -212 -156z" />
    <glyph glyph-name="uni0219" unicode="&#x219;" horiz-adv-x="471" 
d="M227 -10c-66 0 -137 14 -193 38l28 95c51 -20 116 -33 163 -33c55 0 87 19 87 50c0 88 -271 19 -271 200c0 100 81 156 220 156c55 0 112 -9 157 -25l-26 -96c-45 13 -93 21 -133 21c-60 0 -94 -18 -94 -47c0 -82 274 -21 274 -203c0 -97 -78 -156 -212 -156zM151 -227
c17 37 28 100 28 167h119c0 -62 -21 -118 -61 -167h-86z" />
    <glyph glyph-name="uni1E61" unicode="&#x1e61;" horiz-adv-x="471" 
d="M235 576c-48 0 -79 30 -79 78s31 79 79 79c47 0 78 -31 78 -79s-31 -78 -78 -78zM227 -10c-66 0 -137 14 -193 38l28 95c51 -20 116 -33 163 -33c55 0 87 19 87 50c0 88 -271 19 -271 200c0 100 81 156 220 156c55 0 112 -9 157 -25l-26 -96c-45 13 -93 21 -133 21
c-60 0 -94 -18 -94 -47c0 -82 274 -21 274 -203c0 -97 -78 -156 -212 -156z" />
    <glyph glyph-name="uni1E63" unicode="&#x1e63;" horiz-adv-x="471" 
d="M227 -10c-66 0 -137 14 -193 38l28 95c51 -20 116 -33 163 -33c55 0 87 19 87 50c0 88 -271 19 -271 200c0 100 81 156 220 156c55 0 112 -9 157 -25l-26 -96c-45 13 -93 21 -133 21c-60 0 -94 -18 -94 -47c0 -82 274 -21 274 -203c0 -97 -78 -156 -212 -156zM238 -210
c-48 0 -78 30 -78 78s30 79 78 79s79 -31 79 -79s-31 -78 -79 -78z" />
    <glyph glyph-name="uni1E69" unicode="&#x1e69;" horiz-adv-x="471" 
d="M235 576c-48 0 -79 30 -79 78s31 79 79 79c47 0 78 -31 78 -79s-31 -78 -78 -78zM227 -10c-66 0 -137 14 -193 38l28 95c51 -20 116 -33 163 -33c55 0 87 19 87 50c0 88 -271 19 -271 200c0 100 81 156 220 156c55 0 112 -9 157 -25l-26 -96c-45 13 -93 21 -133 21
c-60 0 -94 -18 -94 -47c0 -82 274 -21 274 -203c0 -97 -78 -156 -212 -156zM238 -210c-48 0 -78 30 -78 78s30 79 78 79s79 -31 79 -79s-31 -78 -79 -78z" />
    <glyph glyph-name="germandbls" unicode="&#xdf;" horiz-adv-x="630" 
d="M388 -10c-50 0 -99 12 -144 35l30 99c38 -19 78 -28 113 -28c51 0 87 24 87 57c0 80 -179 86 -179 217c0 98 101 115 101 188c0 47 -43 83 -103 83c-59 0 -93 -37 -93 -102v-539h-128v535c0 128 91 214 229 214c129 0 224 -75 224 -177c0 -105 -101 -123 -101 -181
c0 -78 179 -78 179 -227c0 -103 -87 -174 -215 -174z" />
    <glyph glyph-name="t" unicode="t" horiz-adv-x="379" 
d="M258 -7c-108 0 -173 62 -173 160v231h-68v102h68v141h126v-141h122v-102h-122v-223c0 -42 29 -69 75 -69c15 0 32 3 46 9l26 -91c-31 -10 -67 -17 -100 -17z" />
    <glyph glyph-name="tbar" unicode="&#x167;" horiz-adv-x="379" 
d="M17 203v83h68v98h-68v102h68v141h126v-141h122v-102h-122v-98h122v-83h-122v-42c0 -42 29 -69 75 -69c15 0 32 3 46 9l26 -91c-31 -10 -67 -17 -100 -17c-108 0 -173 62 -173 160v50h-68z" />
    <glyph glyph-name="tcaron" unicode="&#x165;" horiz-adv-x="379" 
d="M336 544l-75 10l14 197l106 -13zM258 -7c-108 0 -173 62 -173 160v231h-68v102h68v141h126v-141h122v-102h-122v-223c0 -42 29 -69 75 -69c15 0 32 3 46 9l26 -91c-31 -10 -67 -17 -100 -17z" />
    <glyph glyph-name="uni0163" unicode="&#x163;" horiz-adv-x="379" 
d="M258 -7h-3l-7 -42c74 -11 111 -43 111 -96c0 -68 -56 -110 -148 -110c-41 0 -80 8 -108 24l17 71c23 -10 56 -16 82 -16c33 0 51 11 51 30c0 27 -35 45 -102 50l20 106c-55 25 -86 75 -86 143v231h-68v102h68v141h126v-141h122v-102h-122v-223c0 -42 29 -69 75 -69
c15 0 32 3 46 9l26 -91c-31 -10 -67 -17 -100 -17z" />
    <glyph glyph-name="uni021B" unicode="&#x21b;" horiz-adv-x="379" 
d="M258 -7c-108 0 -173 62 -173 160v231h-68v102h68v141h126v-141h122v-102h-122v-223c0 -42 29 -69 75 -69c15 0 32 3 46 9l26 -91c-31 -10 -67 -17 -100 -17zM127 -225c18 37 29 101 29 167h119c0 -62 -21 -118 -61 -167h-87z" />
    <glyph glyph-name="uni1E97" unicode="&#x1e97;" horiz-adv-x="379" 
d="M34 717c-48 0 -78 30 -78 78s30 79 78 79s79 -31 79 -79s-31 -78 -79 -78zM260 717c-48 0 -79 30 -79 78s31 79 79 79c47 0 78 -31 78 -79s-31 -78 -78 -78zM258 -7c-108 0 -173 62 -173 160v231h-68v102h68v141h126v-141h122v-102h-122v-223c0 -42 29 -69 75 -69
c15 0 32 3 46 9l26 -91c-31 -10 -67 -17 -100 -17z" />
    <glyph glyph-name="uni1E6D" unicode="&#x1e6d;" horiz-adv-x="379" 
d="M258 -7c-108 0 -173 62 -173 160v231h-68v102h68v141h126v-141h122v-102h-122v-223c0 -42 29 -69 75 -69c15 0 32 3 46 9l26 -91c-31 -10 -67 -17 -100 -17zM215 -208c-48 0 -79 31 -79 79s31 79 79 79c47 0 78 -31 78 -79s-31 -79 -78 -79z" />
    <glyph glyph-name="uni1E6F" unicode="&#x1e6f;" horiz-adv-x="379" 
d="M258 -7c-108 0 -173 62 -173 160v231h-68v102h68v141h126v-141h122v-102h-122v-223c0 -42 29 -69 75 -69c15 0 32 3 46 9l26 -91c-31 -10 -67 -17 -100 -17zM48 -186v100h333v-100h-333z" />
    <glyph glyph-name="u" unicode="u" horiz-adv-x="567" 
d="M186 486v-282c0 -57 25 -101 91 -101c35 0 67 13 95 35v348h127v-486h-91l-22 53c-43 -40 -98 -61 -154 -61c-104 0 -173 72 -173 184v310h127z" />
    <glyph glyph-name="uacute" unicode="&#xfa;" horiz-adv-x="567" 
d="M285 546l-60 48l111 168l95 -77zM186 486v-282c0 -57 25 -101 91 -101c35 0 67 13 95 35v348h127v-486h-91l-22 53c-43 -40 -98 -61 -154 -61c-104 0 -173 72 -173 184v310h127z" />
    <glyph glyph-name="ubreve" unicode="&#x16d;" horiz-adv-x="567" 
d="M277 551c-91 0 -163 55 -177 143l95 57c7 -61 46 -102 97 -102c52 0 91 39 97 103l60 -41c-15 -97 -83 -160 -172 -160zM186 486v-282c0 -57 25 -101 91 -101c35 0 67 13 95 35v348h127v-486h-91l-22 53c-43 -40 -98 -61 -154 -61c-104 0 -173 72 -173 184v310h127z" />
    <glyph glyph-name="uni01D4" unicode="&#x1d4;" horiz-adv-x="567" 
d="M248 557l-141 131l75 66l104 -97l110 97l52 -44l-135 -153h-65zM186 486v-282c0 -57 25 -101 91 -101c35 0 67 13 95 35v348h127v-486h-91l-22 53c-43 -40 -98 -61 -154 -61c-104 0 -173 72 -173 184v310h127z" />
    <glyph glyph-name="ucircumflex" unicode="&#xfb;" horiz-adv-x="567" 
d="M112 591l137 154h64l138 -132l-71 -67l-106 91l-110 -90zM186 486v-282c0 -57 25 -101 91 -101c35 0 67 13 95 35v348h127v-486h-91l-22 53c-43 -40 -98 -61 -154 -61c-104 0 -173 72 -173 184v310h127z" />
    <glyph glyph-name="uni0215" unicode="&#x215;" horiz-adv-x="567" 
d="M354 540l-121 162l107 60l81 -185zM159 540l-121 162l107 59l81 -184zM186 486v-282c0 -57 25 -101 91 -101c35 0 67 13 95 35v348h127v-486h-91l-22 53c-43 -40 -98 -61 -154 -61c-104 0 -173 72 -173 184v310h127z" />
    <glyph glyph-name="udieresis" unicode="&#xfc;" horiz-adv-x="567" 
d="M165 576c-48 0 -79 30 -79 78s31 79 79 79s78 -31 78 -79s-30 -78 -78 -78zM390 576c-47 0 -78 30 -78 78s31 79 78 79c48 0 79 -31 79 -79s-31 -78 -79 -78zM186 486v-282c0 -57 25 -101 91 -101c35 0 67 13 95 35v348h127v-486h-91l-22 53c-43 -40 -98 -61 -154 -61
c-104 0 -173 72 -173 184v310h127z" />
    <glyph glyph-name="uni01D8" unicode="&#x1d8;" horiz-adv-x="567" 
d="M285 700l-60 49l111 168l95 -77zM170 543c-44 0 -72 28 -72 71c0 45 28 72 72 72s71 -27 71 -72c0 -43 -27 -71 -71 -71zM385 543c-43 0 -71 28 -71 71c0 45 28 72 71 72c44 0 72 -27 72 -72c0 -43 -28 -71 -72 -71zM186 486v-282c0 -57 25 -101 91 -101
c35 0 67 13 95 35v348h127v-486h-91l-22 53c-43 -40 -98 -61 -154 -61c-104 0 -173 72 -173 184v310h127z" />
    <glyph glyph-name="uni01DA" unicode="&#x1da;" horiz-adv-x="567" 
d="M248 711l-141 132l75 66l104 -97l110 97l52 -44l-135 -154h-65zM170 543c-44 0 -72 28 -72 71c0 45 28 72 72 72s71 -27 71 -72c0 -43 -27 -71 -71 -71zM385 543c-43 0 -71 28 -71 71c0 45 28 72 71 72c44 0 72 -27 72 -72c0 -43 -28 -71 -72 -71zM186 486v-282
c0 -57 25 -101 91 -101c35 0 67 13 95 35v348h127v-486h-91l-22 53c-43 -40 -98 -61 -154 -61c-104 0 -173 72 -173 184v310h127z" />
    <glyph glyph-name="uni01DC" unicode="&#x1dc;" horiz-adv-x="567" 
d="M263 700l-147 140l95 77l112 -168zM170 543c-44 0 -72 28 -72 71c0 45 28 72 72 72s71 -27 71 -72c0 -43 -27 -71 -71 -71zM385 543c-43 0 -71 28 -71 71c0 45 28 72 71 72c44 0 72 -27 72 -72c0 -43 -28 -71 -72 -71zM186 486v-282c0 -57 25 -101 91 -101
c35 0 67 13 95 35v348h127v-486h-91l-22 53c-43 -40 -98 -61 -154 -61c-104 0 -173 72 -173 184v310h127z" />
    <glyph glyph-name="uni01D6" unicode="&#x1d6;" horiz-adv-x="567" 
d="M109 746v102h337v-102h-337zM170 543c-44 0 -72 28 -72 71c0 45 28 72 72 72s71 -27 71 -72c0 -43 -27 -71 -71 -71zM385 543c-43 0 -71 28 -71 71c0 45 28 72 71 72c44 0 72 -27 72 -72c0 -43 -28 -71 -72 -71zM186 486v-282c0 -57 25 -101 91 -101c35 0 67 13 95 35
v348h127v-486h-91l-22 53c-43 -40 -98 -61 -154 -61c-104 0 -173 72 -173 184v310h127z" />
    <glyph glyph-name="uni1EE5" unicode="&#x1ee5;" horiz-adv-x="567" 
d="M186 486v-282c0 -57 25 -101 91 -101c35 0 67 13 95 35v348h127v-486h-91l-22 53c-43 -40 -98 -61 -154 -61c-104 0 -173 72 -173 184v310h127zM278 -210c-48 0 -79 30 -79 78s31 79 79 79c47 0 78 -31 78 -79s-31 -78 -78 -78z" />
    <glyph glyph-name="ugrave" unicode="&#xf9;" horiz-adv-x="567" 
d="M263 546l-147 139l95 77l112 -168zM186 486v-282c0 -57 25 -101 91 -101c35 0 67 13 95 35v348h127v-486h-91l-22 53c-43 -40 -98 -61 -154 -61c-104 0 -173 72 -173 184v310h127z" />
    <glyph glyph-name="uni1EE7" unicode="&#x1ee7;" horiz-adv-x="567" 
d="M255 547l-21 60c31 15 50 39 50 63c0 19 -16 32 -39 32c-18 0 -40 -7 -63 -19l-30 79c40 21 83 32 119 32c68 0 112 -38 112 -95c0 -60 -46 -117 -128 -152zM186 486v-282c0 -57 25 -101 91 -101c35 0 67 13 95 35v348h127v-486h-91l-22 53c-43 -40 -98 -61 -154 -61
c-104 0 -173 72 -173 184v310h127z" />
    <glyph glyph-name="uhorn" unicode="&#x1b0;" horiz-adv-x="691" 
d="M186 486v-282c0 -57 25 -101 91 -101c35 0 67 13 95 35v348h127v-90c40 4 66 40 66 93c0 34 -10 68 -29 97h117c20 -28 30 -62 30 -99c0 -102 -71 -162 -184 -165v-322h-91l-22 53c-43 -40 -98 -61 -154 -61c-104 0 -173 72 -173 184v310h127z" />
    <glyph glyph-name="uni1EE9" unicode="&#x1ee9;" horiz-adv-x="691" 
d="M285 546l-60 48l111 168l95 -77zM186 486v-282c0 -57 25 -101 91 -101c35 0 67 13 95 35v348h127v-90c40 4 66 40 66 93c0 34 -10 68 -29 97h117c20 -28 30 -62 30 -99c0 -102 -71 -162 -184 -165v-322h-91l-22 53c-43 -40 -98 -61 -154 -61c-104 0 -173 72 -173 184v310
h127z" />
    <glyph glyph-name="uni1EF1" unicode="&#x1ef1;" horiz-adv-x="691" 
d="M186 486v-282c0 -57 25 -101 91 -101c35 0 67 13 95 35v348h127v-90c40 4 66 40 66 93c0 34 -10 68 -29 97h117c20 -28 30 -62 30 -99c0 -102 -71 -162 -184 -165v-322h-91l-22 53c-43 -40 -98 -61 -154 -61c-104 0 -173 72 -173 184v310h127zM278 -210
c-48 0 -79 30 -79 78s31 79 79 79c47 0 78 -31 78 -79s-31 -78 -78 -78z" />
    <glyph glyph-name="uni1EEB" unicode="&#x1eeb;" horiz-adv-x="691" 
d="M263 546l-147 139l95 77l112 -168zM186 486v-282c0 -57 25 -101 91 -101c35 0 67 13 95 35v348h127v-90c40 4 66 40 66 93c0 34 -10 68 -29 97h117c20 -28 30 -62 30 -99c0 -102 -71 -162 -184 -165v-322h-91l-22 53c-43 -40 -98 -61 -154 -61c-104 0 -173 72 -173 184
v310h127z" />
    <glyph glyph-name="uni1EED" unicode="&#x1eed;" horiz-adv-x="691" 
d="M255 547l-21 60c31 15 50 39 50 63c0 19 -16 32 -39 32c-18 0 -40 -7 -63 -19l-30 79c40 21 83 32 119 32c68 0 112 -38 112 -95c0 -60 -46 -117 -128 -152zM186 486v-282c0 -57 25 -101 91 -101c35 0 67 13 95 35v348h127v-90c40 4 66 40 66 93c0 34 -10 68 -29 97h117
c20 -28 30 -62 30 -99c0 -102 -71 -162 -184 -165v-322h-91l-22 53c-43 -40 -98 -61 -154 -61c-104 0 -173 72 -173 184v310h127z" />
    <glyph glyph-name="uni1EEF" unicode="&#x1eef;" horiz-adv-x="691" 
d="M172 561l-80 20c16 83 66 131 125 131c56 0 86 -47 122 -47c22 0 41 17 51 49l80 -21c-13 -80 -64 -127 -130 -127c-63 0 -84 45 -119 45c-21 0 -40 -18 -49 -50zM186 486v-282c0 -57 25 -101 91 -101c35 0 67 13 95 35v348h127v-90c40 4 66 40 66 93c0 34 -10 68 -29 97
h117c20 -28 30 -62 30 -99c0 -102 -71 -162 -184 -165v-322h-91l-22 53c-43 -40 -98 -61 -154 -61c-104 0 -173 72 -173 184v310h127z" />
    <glyph glyph-name="uhungarumlaut" unicode="&#x171;" horiz-adv-x="567" 
d="M194 540l-68 37l81 185l107 -60zM388 540l-67 37l81 184l106 -59zM186 486v-282c0 -57 25 -101 91 -101c35 0 67 13 95 35v348h127v-486h-91l-22 53c-43 -40 -98 -61 -154 -61c-104 0 -173 72 -173 184v310h127z" />
    <glyph glyph-name="uni0217" unicode="&#x217;" horiz-adv-x="567" 
d="M175 551l-61 42c15 96 81 159 170 159c87 0 159 -55 172 -142l-94 -58c-6 61 -46 102 -95 102c-48 0 -87 -38 -92 -103zM186 486v-282c0 -57 25 -101 91 -101c35 0 67 13 95 35v348h127v-486h-91l-22 53c-43 -40 -98 -61 -154 -61c-104 0 -173 72 -173 184v310h127z" />
    <glyph glyph-name="umacron" unicode="&#x16b;" horiz-adv-x="567" 
d="M109 591v102h337v-102h-337zM186 486v-282c0 -57 25 -101 91 -101c35 0 67 13 95 35v348h127v-486h-91l-22 53c-43 -40 -98 -61 -154 -61c-104 0 -173 72 -173 184v310h127z" />
    <glyph glyph-name="uni1E7B" unicode="&#x1e7b;" horiz-adv-x="567" 
d="M165 740c-48 0 -79 30 -79 78s31 79 79 79s78 -31 78 -79s-30 -78 -78 -78zM390 740c-47 0 -78 30 -78 78s31 79 78 79c48 0 79 -31 79 -79s-31 -78 -79 -78zM109 557v101h337v-101h-337zM186 486v-282c0 -57 25 -101 91 -101c35 0 67 13 95 35v348h127v-486h-91l-22 53
c-43 -40 -98 -61 -154 -61c-104 0 -173 72 -173 184v310h127z" />
    <glyph glyph-name="uogonek" unicode="&#x173;" horiz-adv-x="567" 
d="M403 -254c-81 0 -130 44 -130 109c0 66 49 122 131 153l-18 45c-43 -40 -98 -61 -154 -61c-104 0 -173 72 -173 184v310h127v-282c0 -57 25 -101 91 -101c35 0 67 13 95 35v348h127v-486c-66 -28 -109 -75 -109 -120c0 -29 20 -50 49 -50c12 0 31 4 45 10l10 -71
c-26 -15 -57 -23 -91 -23z" />
    <glyph glyph-name="uring" unicode="&#x16f;" horiz-adv-x="567" 
d="M277 551c-70 0 -116 47 -116 117s47 117 119 117c69 0 115 -46 115 -114c0 -72 -47 -120 -118 -120zM280 623c25 0 43 18 43 45s-19 45 -46 45c-26 0 -43 -17 -43 -42c0 -29 18 -48 46 -48zM186 486v-282c0 -57 25 -101 91 -101c35 0 67 13 95 35v348h127v-486h-91
l-22 53c-43 -40 -98 -61 -154 -61c-104 0 -173 72 -173 184v310h127z" />
    <glyph glyph-name="utilde" unicode="&#x169;" horiz-adv-x="567" 
d="M172 561l-80 20c16 83 66 131 125 131c56 0 86 -47 122 -47c22 0 41 17 51 49l80 -21c-13 -80 -64 -127 -130 -127c-63 0 -84 45 -119 45c-21 0 -40 -18 -49 -50zM186 486v-282c0 -57 25 -101 91 -101c35 0 67 13 95 35v348h127v-486h-91l-22 53
c-43 -40 -98 -61 -154 -61c-104 0 -173 72 -173 184v310h127z" />
    <glyph glyph-name="uni1E79" unicode="&#x1e79;" horiz-adv-x="567" 
d="M285 731l-60 49l111 167l95 -77zM172 561l-80 20c16 83 66 131 125 131c56 0 86 -47 122 -47c22 0 41 17 51 49l80 -21c-13 -80 -64 -127 -130 -127c-63 0 -84 45 -119 45c-21 0 -40 -18 -49 -50zM186 486v-282c0 -57 25 -101 91 -101c35 0 67 13 95 35v348h127v-486h-91
l-22 53c-43 -40 -98 -61 -154 -61c-104 0 -173 72 -173 184v310h127z" />
    <glyph glyph-name="v" unicode="v" horiz-adv-x="508" 
d="M191 0l-189 486h140l115 -364l121 364h128l-189 -486h-126z" />
    <glyph glyph-name="w" unicode="w" horiz-adv-x="816" 
d="M181 0l-178 486h140l104 -356l101 354h128l103 -348l108 350h125l-174 -486h-127l-110 343l-101 -343h-119z" />
    <glyph glyph-name="wacute" unicode="&#x1e83;" horiz-adv-x="816" 
d="M420 546l-60 48l111 168l96 -77zM181 0l-178 486h140l104 -356l101 354h128l103 -348l108 350h125l-174 -486h-127l-110 343l-101 -343h-119z" />
    <glyph glyph-name="wcircumflex" unicode="&#x175;" horiz-adv-x="816" 
d="M247 591l137 154h65l137 -132l-71 -67l-106 91l-110 -90zM181 0l-178 486h140l104 -356l101 354h128l103 -348l108 350h125l-174 -486h-127l-110 343l-101 -343h-119z" />
    <glyph glyph-name="wdieresis" unicode="&#x1e85;" horiz-adv-x="816" 
d="M300 576c-48 0 -78 30 -78 78s30 79 78 79s78 -31 78 -79s-30 -78 -78 -78zM526 576c-48 0 -79 30 -79 78s31 79 79 79c47 0 78 -31 78 -79s-31 -78 -78 -78zM181 0l-178 486h140l104 -356l101 354h128l103 -348l108 350h125l-174 -486h-127l-110 343l-101 -343h-119z
" />
    <glyph glyph-name="wgrave" unicode="&#x1e81;" horiz-adv-x="816" 
d="M398 546l-147 139l96 77l111 -168zM181 0l-178 486h140l104 -356l101 354h128l103 -348l108 350h125l-174 -486h-127l-110 343l-101 -343h-119z" />
    <glyph glyph-name="x" unicode="x" horiz-adv-x="497" 
d="M4 0l178 238l-180 248h147l101 -154l105 154h142l-186 -242l175 -244h-146l-98 148l-100 -148h-138z" />
    <glyph glyph-name="y" unicode="y" horiz-adv-x="508" 
d="M103 -217l88 217l-189 486h141l115 -364l120 364h127l-186 -486l-78 -217h-138z" />
    <glyph glyph-name="yacute" unicode="&#xfd;" horiz-adv-x="508" 
d="M254 546l-60 48l112 168l95 -77zM103 -217l88 217l-189 486h141l115 -364l120 364h127l-186 -486l-78 -217h-138z" />
    <glyph glyph-name="ycircumflex" unicode="&#x177;" horiz-adv-x="508" 
d="M81 591l137 154h65l137 -132l-71 -67l-106 91l-110 -90zM103 -217l88 217l-189 486h141l115 -364l120 364h127l-186 -486l-78 -217h-138z" />
    <glyph glyph-name="ydieresis" unicode="&#xff;" horiz-adv-x="508" 
d="M134 576c-48 0 -78 30 -78 78s30 79 78 79s79 -31 79 -79s-31 -78 -79 -78zM360 576c-48 0 -79 30 -79 78s31 79 79 79c47 0 78 -31 78 -79s-31 -78 -78 -78zM103 -217l88 217l-189 486h141l115 -364l120 364h127l-186 -486l-78 -217h-138z" />
    <glyph glyph-name="uni1E8F" unicode="&#x1e8f;" horiz-adv-x="508" 
d="M247 576c-48 0 -79 30 -79 78s31 79 79 79s78 -31 78 -79s-30 -78 -78 -78zM103 -217l88 217l-189 486h141l115 -364l120 364h127l-186 -486l-78 -217h-138z" />
    <glyph glyph-name="uni1EF5" unicode="&#x1ef5;" horiz-adv-x="508" 
d="M103 -217l88 217l-189 486h141l115 -364l120 364h127l-186 -486l-78 -217h-138zM413 -210c-48 0 -78 30 -78 78s30 79 78 79s79 -31 79 -79s-31 -78 -79 -78z" />
    <glyph glyph-name="ygrave" unicode="&#x1ef3;" horiz-adv-x="508" 
d="M232 546l-147 139l96 77l111 -168zM103 -217l88 217l-189 486h141l115 -364l120 364h127l-186 -486l-78 -217h-138z" />
    <glyph glyph-name="uni1EF7" unicode="&#x1ef7;" horiz-adv-x="508" 
d="M225 547l-22 60c31 15 50 39 50 63c0 19 -16 32 -39 32c-17 0 -40 -7 -63 -19l-29 79c40 21 82 32 118 32c68 0 112 -38 112 -95c0 -60 -46 -117 -127 -152zM103 -217l88 217l-189 486h141l115 -364l120 364h127l-186 -486l-78 -217h-138z" />
    <glyph glyph-name="uni0233" unicode="&#x233;" horiz-adv-x="508" 
d="M78 591v102h337v-102h-337zM103 -217l88 217l-189 486h141l115 -364l120 364h127l-186 -486l-78 -217h-138z" />
    <glyph glyph-name="uni1EF9" unicode="&#x1ef9;" horiz-adv-x="508" 
d="M141 561l-80 20c16 83 66 131 125 131c56 0 86 -47 122 -47c23 0 42 17 52 49l79 -21c-12 -80 -64 -127 -130 -127c-63 0 -84 45 -119 45c-20 0 -39 -18 -49 -50zM103 -217l88 217l-189 486h141l115 -364l120 364h127l-186 -486l-78 -217h-138z" />
    <glyph glyph-name="z" unicode="z" horiz-adv-x="477" 
d="M33 0v77l240 304h-240v105h403v-77l-240 -304h252v-105h-415z" />
    <glyph glyph-name="zacute" unicode="&#x17a;" horiz-adv-x="477" 
d="M246 546l-60 48l111 168l96 -77zM33 0v77l240 304h-240v105h403v-77l-240 -304h252v-105h-415z" />
    <glyph glyph-name="zcaron" unicode="&#x17e;" horiz-adv-x="477" 
d="M209 557l-141 131l75 66l104 -97l110 97l52 -44l-135 -153h-65zM33 0v77l240 304h-240v105h403v-77l-240 -304h252v-105h-415z" />
    <glyph glyph-name="zdotaccent" unicode="&#x17c;" horiz-adv-x="477" 
d="M239 576c-48 0 -79 30 -79 78s31 79 79 79c47 0 78 -31 78 -79s-31 -78 -78 -78zM33 0v77l240 304h-240v105h403v-77l-240 -304h252v-105h-415z" />
    <glyph glyph-name="uni1E93" unicode="&#x1e93;" horiz-adv-x="477" 
d="M33 0v77l240 304h-240v105h403v-77l-240 -304h252v-105h-415zM239 -210c-48 0 -79 30 -79 78s31 79 79 79c47 0 78 -31 78 -79s-31 -78 -78 -78z" />
    <glyph glyph-name="ordfeminine" unicode="&#xaa;" horiz-adv-x="414" 
d="M163 371c-77 0 -126 42 -126 108c0 77 70 113 227 115v10c0 44 -32 66 -89 66c-31 0 -69 -6 -108 -22l-23 67c43 22 99 35 151 35c108 0 164 -55 164 -154v-218h-69l-14 37c-28 -29 -67 -44 -113 -44zM134 492c0 -28 26 -46 61 -46c26 0 51 10 69 27v68
c-93 -2 -130 -16 -130 -49z" />
    <glyph glyph-name="ordmasculine" unicode="&#xba;" horiz-adv-x="444" 
d="M217 371c-110 0 -181 72 -181 183c0 117 77 196 192 196c109 0 180 -72 180 -184c0 -117 -78 -195 -191 -195zM225 449c54 0 88 42 88 107c0 69 -37 115 -94 115c-54 0 -88 -43 -88 -109c0 -68 37 -113 94 -113z" />
    <glyph glyph-name="uni0410" unicode="&#x410;" horiz-adv-x="693" 
d="M16 0l254 694h165l241 -694h-143l-57 174h-266l-57 -174h-137zM248 289h191l-95 294z" />
    <glyph glyph-name="uni0411" unicode="&#x411;" horiz-adv-x="640" 
d="M85 0v694h444v-112h-316v-156h163c139 0 230 -81 230 -204c0 -134 -108 -222 -273 -222h-248zM213 105h137c81 0 123 34 123 100c0 71 -49 118 -121 118h-139v-218z" />
    <glyph glyph-name="uni0412" unicode="&#x412;" horiz-adv-x="654" 
d="M85 0v694h230c160 0 247 -58 247 -165c0 -55 -27 -106 -71 -135c80 -29 126 -92 126 -179c0 -132 -105 -215 -273 -215h-259zM213 590v-180h162c39 22 56 50 56 86c0 60 -45 94 -126 94h-92zM213 104h148c84 0 123 30 123 94c0 67 -46 111 -121 111h-150v-205z" />
    <glyph glyph-name="uni0413" unicode="&#x413;" horiz-adv-x="552" 
d="M86 0v694h453v-116h-323v-578h-130z" />
    <glyph glyph-name="uni0403" unicode="&#x403;" horiz-adv-x="552" 
d="M269 739l-50 68l162 144l75 -100zM86 0v694h453v-116h-323v-578h-130z" />
    <glyph glyph-name="uni0490" unicode="&#x490;" horiz-adv-x="551" 
d="M86 0v694h353v163h100v-276h-323v-581h-130z" />
    <glyph glyph-name="uni0414" unicode="&#x414;" horiz-adv-x="808" 
d="M24 -183v295h66c63 15 96 96 96 239v343h475v-582h122v-295h-120v183h-519v-183h-120zM310 353c0 -111 -24 -192 -72 -241h296v472h-224v-231z" />
    <glyph glyph-name="uni0415" unicode="&#x415;" horiz-adv-x="605" 
d="M85 0v694h468v-113h-339v-169h311v-113h-311v-186h339v-113h-468z" />
    <glyph glyph-name="uni0400" unicode="&#x400;" horiz-adv-x="605" 
d="M320 739l-187 112l75 100l162 -144zM85 0v694h468v-113h-339v-169h311v-113h-311v-186h339v-113h-468z" />
    <glyph glyph-name="uni0401" unicode="&#x401;" horiz-adv-x="605" 
d="M187 762c-48 0 -79 30 -79 78s31 79 79 79c47 0 78 -31 78 -79s-31 -78 -78 -78zM412 762c-47 0 -78 30 -78 78s31 79 78 79c48 0 79 -31 79 -79s-31 -78 -79 -78zM85 0v694h468v-113h-339v-169h311v-113h-311v-186h339v-113h-468z" />
    <glyph glyph-name="uni0416" unicode="&#x416;" horiz-adv-x="1003" 
d="M11 0l220 354l-205 340h153l165 -281h95v281h129v-281h93l170 281h150l-206 -326l216 -368h-149l-175 300h-99v-300h-129v300h-102l-180 -300h-146z" />
    <glyph glyph-name="uni0417" unicode="&#x417;" horiz-adv-x="599" 
d="M259 -10c-80 0 -153 17 -226 52l30 106c65 -29 142 -43 203 -43c92 0 148 34 148 96c0 65 -62 101 -173 101h-101v104h114c86 0 141 36 141 95c0 55 -51 88 -139 88c-59 0 -117 -15 -181 -42l-29 100c68 36 149 57 233 57c157 0 255 -70 255 -182
c0 -79 -48 -136 -123 -153c89 -20 141 -81 141 -165c0 -130 -116 -214 -293 -214z" />
    <glyph glyph-name="uni0418" unicode="&#x418;" horiz-adv-x="767" 
d="M85 0v694h128v-512l326 512h143v-694h-128v511l-330 -511h-139z" />
    <glyph glyph-name="uni0419" unicode="&#x419;" horiz-adv-x="767" 
d="M390 754c-104 0 -178 55 -194 147l90 48c10 -64 56 -106 111 -106c56 0 95 38 108 105l89 -43c-14 -93 -92 -151 -204 -151zM85 0v694h128v-512l326 512h143v-694h-128v511l-330 -511h-139z" />
    <glyph glyph-name="uni040D" unicode="&#x40d;" horiz-adv-x="767" 
d="M400 739l-187 112l74 100l163 -144zM85 0v694h128v-512l326 512h143v-694h-128v511l-330 -511h-139z" />
    <glyph glyph-name="uni041A" unicode="&#x41a;" horiz-adv-x="668" 
d="M85 0v694h129v-278h112l186 278h140l-220 -325l231 -369h-147l-190 304h-112v-304h-129z" />
    <glyph glyph-name="uni040C" unicode="&#x40c;" horiz-adv-x="668" 
d="M309 739l-50 68l162 144l75 -100zM85 0v694h129v-278h112l186 278h140l-220 -325l231 -369h-147l-190 304h-112v-304h-129z" />
    <glyph glyph-name="uni041B" unicode="&#x41b;" horiz-adv-x="758" 
d="M129 -10c-47 0 -88 13 -121 35l34 97c20 -12 45 -19 66 -19c58 0 87 48 87 148v443h478v-694h-127v583h-229v-315c0 -187 -61 -278 -188 -278z" />
    <glyph glyph-name="uni041C" unicode="&#x41c;" horiz-adv-x="888" 
d="M85 0v694h127l236 -450l230 450h125v-694h-125v480l-186 -373h-99l-183 359v-466h-125z" />
    <glyph glyph-name="uni041D" unicode="&#x41d;" horiz-adv-x="750" 
d="M85 0v694h131v-281h318v281h131v-694h-131v298h-318v-298h-131z" />
    <glyph glyph-name="uni041E" unicode="&#x41e;" horiz-adv-x="771" 
d="M378 -9c-200 0 -333 140 -333 351c0 217 137 362 343 362c203 0 338 -141 338 -351c0 -217 -139 -362 -348 -362zM388 103c122 0 204 96 204 239c0 150 -86 249 -214 249c-120 0 -199 -95 -199 -238c0 -150 83 -250 209 -250z" />
    <glyph glyph-name="uni041F" unicode="&#x41f;" horiz-adv-x="730" 
d="M85 0v694h560v-694h-127v583h-306v-583h-127z" />
    <glyph glyph-name="uni0420" unicode="&#x420;" horiz-adv-x="622" 
d="M85 0v694h238c162 0 264 -87 264 -226c0 -148 -114 -245 -286 -245h-87v-223h-129zM311 581h-97v-246h110c82 0 129 42 129 117c0 77 -57 129 -142 129z" />
    <glyph glyph-name="uni0421" unicode="&#x421;" horiz-adv-x="638" 
d="M393 -10c-209 0 -350 141 -350 351c0 218 149 363 369 363c69 0 137 -15 196 -43l-36 -100c-45 18 -108 29 -164 29c-146 0 -232 -84 -232 -231c0 -156 95 -256 248 -256c48 0 104 10 149 27l29 -93c-59 -29 -138 -47 -209 -47z" />
    <glyph glyph-name="uni0422" unicode="&#x422;" horiz-adv-x="607" 
d="M239 0v581h-222v113h573v-113h-223v-581h-128z" />
    <glyph glyph-name="uni0423" unicode="&#x423;" horiz-adv-x="641" 
d="M140 0l130 240l-264 454h155l180 -335l162 335h131l-353 -694h-141z" />
    <glyph glyph-name="uni040E" unicode="&#x40e;" horiz-adv-x="641" 
d="M328 754c-105 0 -179 55 -195 147l90 48c10 -64 56 -106 111 -106c56 0 96 38 108 105l89 -43c-14 -93 -92 -151 -203 -151zM140 0l130 240l-264 454h155l180 -335l162 335h131l-353 -694h-141z" />
    <glyph glyph-name="uni0424" unicode="&#x424;" horiz-adv-x="820" 
d="M346 -20v80c-195 17 -308 120 -308 284c0 166 113 271 308 290v80h127v-79c195 -17 309 -120 309 -284c0 -166 -113 -271 -309 -290v-81h-127zM167 351c0 -97 65 -161 179 -178v351c-114 -16 -179 -78 -179 -173zM653 343c0 97 -65 162 -180 179v-351
c115 16 180 77 180 172z" />
    <glyph glyph-name="uni0425" unicode="&#x425;" horiz-adv-x="653" 
d="M9 0l245 361l-227 333h153l144 -227l145 227h149l-228 -329l255 -365h-155l-169 261l-163 -261h-149z" />
    <glyph glyph-name="uni0427" unicode="&#x427;" horiz-adv-x="655" 
d="M263 245c-129 0 -214 72 -214 190v259h128v-236c0 -66 48 -101 128 -101c49 0 99 13 138 33v304h127v-694h-127v295c-52 -32 -119 -50 -180 -50z" />
    <glyph glyph-name="uni0426" unicode="&#x426;" horiz-adv-x="782" 
d="M638 -183v183h-553v694h128v-582h293v582h127v-582h125v-295h-120z" />
    <glyph glyph-name="uni0428" unicode="&#x428;" horiz-adv-x="1044" 
d="M85 0v694h128v-582h245v582h128v-582h245v582h128v-694h-874z" />
    <glyph glyph-name="uni0429" unicode="&#x429;" horiz-adv-x="1105" 
d="M961 -183v183h-876v694h127v-582h246v582h127v-582h247v582h127v-582h122v-295h-120z" />
    <glyph glyph-name="uni040F" unicode="&#x40f;" horiz-adv-x="752" 
d="M321 -187v187h-236v694h128v-582h326v582h128v-694h-226v-187h-120z" />
    <glyph glyph-name="uni042C" unicode="&#x42c;" horiz-adv-x="638" 
d="M85 0v694h128v-253h161c135 0 230 -87 230 -212c0 -141 -105 -229 -272 -229h-247zM213 105h136c78 0 121 38 121 107c0 74 -49 126 -120 126h-137v-233z" />
    <glyph glyph-name="uni042A" unicode="&#x42a;" horiz-adv-x="744" 
d="M202 0v582h-178v112h306v-253h156c131 0 223 -87 223 -211c0 -142 -102 -230 -265 -230h-242zM330 105h130c75 0 115 38 115 108c0 73 -47 125 -114 125h-131v-233z" />
    <glyph glyph-name="uni042B" unicode="&#x42b;" horiz-adv-x="885" 
d="M85 0v694h128v-253h143c136 0 230 -87 230 -211c0 -142 -104 -230 -273 -230h-228zM669 -2v694h130v-694h-130zM213 105h117c80 0 123 38 123 108c0 73 -50 125 -121 125h-119v-233z" />
    <glyph glyph-name="uni0409" unicode="&#x409;" horiz-adv-x="1101" 
d="M129 -10c-47 0 -88 13 -121 35l34 97c20 -12 45 -19 66 -19c58 0 87 48 87 148v443h478v-258h164c138 0 231 -84 231 -209c0 -135 -111 -227 -273 -227h-249v583h-229v-315c0 -187 -61 -278 -188 -278zM813 333h-140v-228h138c80 0 123 37 123 105c0 72 -50 123 -121 123
z" />
    <glyph glyph-name="uni040A" unicode="&#x40a;" horiz-adv-x="1087" 
d="M85 0v694h131v-281h318v281h131v-258h158c138 0 231 -84 231 -209c0 -135 -110 -227 -273 -227h-247v298h-318v-298h-131zM799 333h-134v-228h133c79 0 122 37 122 105c0 72 -50 123 -121 123z" />
    <glyph glyph-name="uni0405" unicode="&#x405;" horiz-adv-x="585" 
d="M277 -10c-80 0 -165 21 -239 55l36 104c69 -29 146 -43 209 -43c86 0 130 31 130 82c0 141 -364 63 -364 300c0 131 111 216 277 216c68 0 140 -15 199 -41l-37 -102c-49 19 -112 30 -170 30c-86 0 -135 -30 -135 -83c0 -140 365 -53 365 -304
c0 -130 -101 -214 -271 -214z" />
    <glyph glyph-name="uni0404" unicode="&#x404;" horiz-adv-x="656" 
d="M403 -10c-213 0 -359 141 -359 351c0 218 154 363 378 363c71 0 142 -15 202 -43l-36 -100c-48 18 -115 29 -169 29c-136 0 -223 -68 -239 -188h356v-105h-353c23 -120 116 -194 251 -194c48 0 109 10 155 27l29 -93c-60 -29 -140 -47 -215 -47z" />
    <glyph glyph-name="uni042D" unicode="&#x42d;" horiz-adv-x="658" 
d="M246 -10c-75 0 -157 16 -213 43l36 100c53 -18 120 -29 179 -29c141 0 219 67 231 196h-354v105h349c-24 118 -110 185 -243 185c-51 0 -115 -10 -163 -27l-28 94c62 29 146 47 221 47c213 0 353 -140 353 -353c0 -217 -145 -361 -368 -361z" />
    <glyph glyph-name="uni0406" unicode="&#x406;" horiz-adv-x="301" 
d="M85 0v694h131v-694h-131z" />
    <glyph glyph-name="uni0407" unicode="&#x407;" horiz-adv-x="301" 
d="M33 762c-47 0 -78 30 -78 78s31 79 78 79c48 0 79 -31 79 -79s-31 -78 -79 -78zM259 762c-48 0 -79 30 -79 78s31 79 79 79s78 -31 78 -79s-30 -78 -78 -78zM85 0v694h131v-694h-131z" />
    <glyph glyph-name="uni0408" unicode="&#x408;" horiz-adv-x="449" 
d="M159 -10c-49 0 -97 11 -139 35l37 100c27 -13 64 -21 93 -21c61 0 94 38 94 108v482h129v-472c0 -148 -78 -232 -214 -232z" />
    <glyph glyph-name="uni040B" unicode="&#x40b;" horiz-adv-x="802" 
d="M236 0v581h-212v113h574v-113h-234v-194c51 27 111 42 172 42c134 0 220 -72 220 -190v-239h-127v217c0 66 -48 101 -135 101c-46 0 -91 -10 -130 -27v-291h-128z" />
    <glyph glyph-name="uni042E" unicode="&#x42e;" horiz-adv-x="1050" 
d="M85 0v694h131v-281h123c24 180 146 291 327 291c204 0 338 -140 338 -352c0 -216 -139 -361 -347 -361c-185 0 -305 116 -321 307h-120v-298h-131zM666 103c123 0 205 95 205 240c0 148 -86 248 -212 248c-122 0 -195 -89 -195 -239c0 -153 78 -249 202 -249z" />
    <glyph glyph-name="uni042F" unicode="&#x42f;" horiz-adv-x="656" 
d="M31 0l171 256c-96 26 -151 96 -151 198c0 141 106 240 258 240h261v-694h-129v245h-105l-150 -245h-155zM309 349h132v233h-150c-65 0 -107 -41 -107 -109c0 -74 51 -124 125 -124z" />
    <glyph glyph-name="uni0402" unicode="&#x402;" horiz-adv-x="803" 
d="M239 0v581h-215v113h578v-113h-236v-192c52 40 117 63 185 63c131 0 218 -83 218 -208c0 -144 -111 -241 -284 -249l-10 101c100 9 163 61 163 136c0 65 -52 109 -129 109c-51 0 -103 -20 -143 -52v-289h-127z" />
    <glyph glyph-name="uni0462" unicode="&#x462;" horiz-adv-x="708" 
d="M143 0v508h-116v97h116v89h128v-89h157v-97h-157v-72h173c138 0 231 -84 231 -209c0 -135 -110 -227 -273 -227h-259zM271 105h147c80 0 123 37 123 105c0 72 -50 123 -121 123h-149v-228z" />
    <glyph glyph-name="uni046A" unicode="&#x46a;" horiz-adv-x="796" 
d="M159 0h-125c0 223 73 350 229 393l-166 190v111h598v-111l-172 -185c164 -39 240 -167 240 -398h-125c0 181 -56 278 -177 303v-303h-126v305c-120 -21 -176 -119 -176 -305zM252 586l142 -176h2l143 176h-287z" />
    <glyph glyph-name="uni0472" unicode="&#x472;" horiz-adv-x="771" 
d="M378 -9c-200 0 -333 140 -333 351c0 217 137 362 343 362c203 0 338 -141 338 -351c0 -217 -139 -362 -348 -362zM378 591c-107 0 -183 -76 -197 -195h407c-18 119 -98 195 -210 195zM388 103c109 0 186 76 201 195h-406c18 -119 96 -195 205 -195z" />
    <glyph glyph-name="uni0474" unicode="&#x474;" horiz-adv-x="729" 
d="M268 0l-248 694h149l171 -536l105 348c39 129 123 197 246 197l15 -122c-74 0 -121 -42 -153 -134l-150 -447h-135z" />
    <glyph glyph-name="uni0492" unicode="&#x492;" horiz-adv-x="570" 
d="M115 0v281h-97v93h97v320h443v-113h-313v-207h160v-93h-160v-281h-130z" />
    <glyph glyph-name="uni0494" unicode="&#x494;" horiz-adv-x="686" 
d="M85 0v694h444v-113h-316v-234c51 35 116 54 181 54c154 0 254 -109 254 -279c0 -193 -128 -328 -344 -363l-16 80c144 20 230 115 230 255c0 122 -65 197 -172 197c-48 0 -95 -16 -133 -42v-249h-128z" />
    <glyph glyph-name="uni0496" unicode="&#x496;" horiz-adv-x="1063" 
d="M20 0l219 354l-204 340h153l165 -281h95v281h129v-281h93l169 281h151l-206 -326l156 -266l33 10l64 -172l-82 -123l-37 96l-32 87h-35l-175 300h-99v-300h-129v300h-102l-180 -300h-146z" />
    <glyph glyph-name="uni0498" unicode="&#x498;" horiz-adv-x="599" 
d="M295 -257c-40 0 -79 8 -107 23l17 71c23 -10 56 -16 82 -16c33 0 51 11 51 30c0 28 -35 46 -102 50l17 89c-78 1 -149 18 -220 52l30 106c65 -29 142 -43 203 -43c92 0 148 34 148 96c0 65 -62 101 -173 101h-101v104h114c86 0 141 36 141 95c0 55 -51 88 -139 88
c-59 0 -117 -15 -181 -42l-29 100c68 36 149 57 233 57c157 0 255 -70 255 -182c0 -79 -48 -136 -123 -153c89 -20 141 -81 141 -165c0 -109 -81 -185 -211 -207l-9 -48c75 -11 111 -43 111 -97c0 -68 -55 -109 -148 -109z" />
    <glyph glyph-name="uni049A" unicode="&#x49a;" horiz-adv-x="728" 
d="M85 0v694h130v-278h111l187 278h140l-220 -325l167 -268l37 11l65 -172l-83 -123l-37 96l-32 87h-34l-190 304h-111v-304h-130z" />
    <glyph glyph-name="uni049C" unicode="&#x49c;" horiz-adv-x="697" 
d="M85 0v694h130v-278h50v134h80v-134h24l169 278h140l-200 -325l211 -369h-147l-173 304h-24v-132h-80v132h-50v-304h-130z" />
    <glyph glyph-name="uni04A0" unicode="&#x4a0;" horiz-adv-x="763" 
d="M180 0v581h-170v113h299v-278h112l186 278h140l-220 -325l231 -369h-148l-189 304h-112v-304h-129z" />
    <glyph glyph-name="uni04A2" unicode="&#x4a2;" horiz-adv-x="799" 
d="M85 0v694h131v-281h318v281h131v-598l52 16l65 -172l-83 -123l-37 96l-32 87h-96v298h-318v-298h-131z" />
    <glyph glyph-name="uni04A4" unicode="&#x4a4;" horiz-adv-x="942" 
d="M86 0v694h130v-281h319v281h392v-113h-261v-581h-131v298h-319v-298h-130z" />
    <glyph glyph-name="uni04AA" unicode="&#x4aa;" horiz-adv-x="638" 
d="M300 -183v183c-157 36 -257 164 -257 341c0 218 149 363 369 363c69 0 137 -15 196 -43l-36 -100c-45 18 -108 29 -164 29c-146 0 -232 -84 -232 -231c0 -156 95 -256 248 -256c48 0 104 10 149 27l29 -93c-52 -26 -118 -42 -181 -46v-174h-121z" />
    <glyph glyph-name="Ustraitcy" unicode="&#x4ae;" horiz-adv-x="630" 
d="M254 0v274l-255 420h152l172 -308l164 308h143l-247 -422v-272h-129z" />
    <glyph glyph-name="Ustraitstrokecy" unicode="&#x4b0;" horiz-adv-x="630" 
d="M79 205v93h161l-241 396h152l172 -308l164 308h143l-231 -396h166v-93h-182v-205h-129v205h-175z" />
    <glyph glyph-name="uni04B2" unicode="&#x4b2;" horiz-adv-x="712" 
d="M18 0l245 361l-227 333h153l144 -227l144 227h150l-228 -329l185 -264l38 11l65 -172l-83 -123l-37 96l-32 87h-36l-170 261l-162 -261h-149z" />
    <glyph glyph-name="uni04B6" unicode="&#x4b6;" horiz-adv-x="711" 
d="M263 245c-129 0 -214 72 -214 190v259h128v-236c0 -66 48 -101 128 -101c49 0 99 13 138 33v304h127v-597l52 15l65 -172l-83 -123l-37 96l-32 87h-92v295c-52 -32 -119 -50 -180 -50z" />
    <glyph glyph-name="uni04B8" unicode="&#x4b8;" horiz-adv-x="675" 
d="M280 120v125h-6c-137 0 -225 72 -225 190v259h127v-237c0 -57 37 -90 104 -99v140h85v-138c35 5 69 15 99 30v304h126v-694h-126v295c-30 -17 -64 -30 -99 -39v-136h-85z" />
    <glyph glyph-name="uni04BA" unicode="&#x4ba;" horiz-adv-x="650" 
d="M84 0v660h128v-273c51 27 111 42 171 42c134 0 220 -72 220 -190v-239h-127v217c0 66 -48 101 -134 101c-46 0 -91 -10 -130 -27v-291h-128z" />
    <glyph glyph-name="uni04C0" unicode="&#x4c0;" horiz-adv-x="301" 
d="M85 0v694h131v-694h-131z" />
    <glyph glyph-name="uni04C1" unicode="&#x4c1;" horiz-adv-x="1003" 
d="M509 754c-104 0 -178 55 -194 147l90 48c10 -64 55 -106 111 -106c55 0 95 38 108 105l89 -43c-14 -93 -92 -151 -204 -151zM11 0l220 354l-205 340h153l165 -281h95v281h129v-281h93l170 281h150l-206 -326l216 -368h-149l-175 300h-99v-300h-129v300h-102l-180 -300
h-146z" />
    <glyph glyph-name="uni04CB" unicode="&#x4cb;" horiz-adv-x="655" 
d="M263 245c-129 0 -214 72 -214 190v259h128v-236c0 -66 48 -101 128 -101c49 0 99 13 138 33v304h127v-694h-80v-183h-119v295h72v183c-52 -32 -119 -50 -180 -50z" />
    <glyph glyph-name="uni04D0" unicode="&#x4d0;" horiz-adv-x="693" 
d="M353 754c-105 0 -178 55 -194 147l90 48c10 -64 55 -106 111 -106c55 0 95 38 108 105l88 -43c-13 -93 -91 -151 -203 -151zM16 0l254 694h165l241 -694h-143l-57 174h-266l-57 -174h-137zM248 289h191l-95 294z" />
    <glyph glyph-name="uni04D2" unicode="&#x4d2;" horiz-adv-x="693" 
d="M229 762c-48 0 -79 30 -79 78s31 79 79 79s78 -31 78 -79s-30 -78 -78 -78zM454 762c-47 0 -78 30 -78 78s31 79 78 79c48 0 79 -31 79 -79s-31 -78 -79 -78zM16 0l254 694h165l241 -694h-143l-57 174h-266l-57 -174h-137zM248 289h191l-95 294z" />
    <glyph glyph-name="uni04D4" unicode="&#x4d4;" horiz-adv-x="1001" 
d="M15 0l420 694h513v-113h-339v-168h312v-113h-312v-187h339v-113h-468v175h-222l-101 -175h-142zM327 294h153v265z" />
    <glyph glyph-name="uni04D6" unicode="&#x4d6;" horiz-adv-x="605" 
d="M311 754c-105 0 -179 55 -195 147l91 48c10 -64 55 -106 111 -106c55 0 95 38 108 105l88 -43c-13 -93 -92 -151 -203 -151zM85 0v694h468v-113h-339v-169h311v-113h-311v-186h339v-113h-468z" />
    <glyph glyph-name="uni04D8" unicode="&#x4d8;" horiz-adv-x="742" 
d="M319 702c230 0 372 -133 372 -353c0 -216 -138 -359 -339 -359c-181 0 -298 118 -298 295c0 33 2 73 6 107h492c-22 132 -111 198 -254 198c-66 0 -134 -15 -196 -43l-29 97c75 39 158 58 246 58zM363 102c115 0 182 61 193 184h-380c0 -122 69 -184 187 -184z" />
    <glyph glyph-name="uni04DC" unicode="&#x4dc;" horiz-adv-x="1003" 
d="M385 762c-48 0 -78 30 -78 78s30 79 78 79s79 -31 79 -79s-31 -78 -79 -78zM611 762c-48 0 -79 30 -79 78s31 79 79 79c47 0 78 -31 78 -79s-31 -78 -78 -78zM11 0l220 354l-205 340h153l165 -281h95v281h129v-281h93l170 281h150l-206 -326l216 -368h-149l-175 300h-99
v-300h-129v300h-102l-180 -300h-146z" />
    <glyph glyph-name="uni04DE" unicode="&#x4de;" horiz-adv-x="599" 
d="M182 762c-48 0 -78 30 -78 78s30 79 78 79s79 -31 79 -79s-31 -78 -79 -78zM408 762c-48 0 -79 30 -79 78s31 79 79 79c47 0 78 -31 78 -79s-31 -78 -78 -78zM259 -10c-80 0 -153 17 -226 52l30 106c65 -29 142 -43 203 -43c92 0 148 34 148 96c0 65 -62 101 -173 101
h-101v104h114c86 0 141 36 141 95c0 55 -51 88 -139 88c-59 0 -117 -15 -181 -42l-29 100c68 36 149 57 233 57c157 0 255 -70 255 -182c0 -79 -48 -136 -123 -153c89 -20 141 -81 141 -165c0 -130 -116 -214 -293 -214z" />
    <glyph glyph-name="uni04E2" unicode="&#x4e2;" horiz-adv-x="767" 
d="M216 778v102h337v-102h-337zM85 0v694h128v-512l326 512h143v-694h-128v511l-330 -511h-139z" />
    <glyph glyph-name="uni04E4" unicode="&#x4e4;" horiz-adv-x="767" 
d="M266 762c-48 0 -78 30 -78 78s30 79 78 79s79 -31 79 -79s-31 -78 -79 -78zM492 762c-48 0 -79 30 -79 78s31 79 79 79s78 -31 78 -79s-30 -78 -78 -78zM85 0v694h128v-512l326 512h143v-694h-128v511l-330 -511h-139z" />
    <glyph glyph-name="uni04E6" unicode="&#x4e6;" horiz-adv-x="771" 
d="M270 762c-48 0 -79 30 -79 78s31 79 79 79c47 0 78 -31 78 -79s-31 -78 -78 -78zM495 762c-48 0 -78 30 -78 78s30 79 78 79s79 -31 79 -79s-31 -78 -79 -78zM378 -9c-200 0 -333 140 -333 351c0 217 137 362 343 362c203 0 338 -141 338 -351
c0 -217 -139 -362 -348 -362zM388 103c122 0 204 96 204 239c0 150 -86 249 -214 249c-120 0 -199 -95 -199 -238c0 -150 83 -250 209 -250z" />
    <glyph glyph-name="uni04E8" unicode="&#x4e8;" horiz-adv-x="771" 
d="M378 -9c-200 0 -333 140 -333 351c0 217 137 362 343 362c203 0 338 -141 338 -351c0 -217 -139 -362 -348 -362zM378 591c-107 0 -183 -76 -197 -195h407c-18 119 -98 195 -210 195zM388 103c109 0 186 76 201 195h-406c18 -119 96 -195 205 -195z" />
    <glyph glyph-name="uni04EE" unicode="&#x4ee;" horiz-adv-x="641" 
d="M153 778v102h337v-102h-337zM140 0l130 240l-264 454h155l180 -335l162 335h131l-353 -694h-141z" />
    <glyph glyph-name="uni04F0" unicode="&#x4f0;" horiz-adv-x="641" 
d="M203 762c-47 0 -78 30 -78 78s31 79 78 79c48 0 79 -31 79 -79s-31 -78 -79 -78zM429 762c-48 0 -79 30 -79 78s31 79 79 79s78 -31 78 -79s-30 -78 -78 -78zM140 0l130 240l-264 454h155l180 -335l162 335h131l-353 -694h-141z" />
    <glyph glyph-name="uni04F2" unicode="&#x4f2;" horiz-adv-x="641" 
d="M175 751l-57 55l121 157l90 -85zM399 751l-58 55l121 157l90 -85zM140 0l130 240l-264 454h155l180 -335l162 335h131l-353 -694h-141z" />
    <glyph glyph-name="uni04F4" unicode="&#x4f4;" horiz-adv-x="655" 
d="M212 762c-48 0 -79 30 -79 78s31 79 79 79c47 0 78 -31 78 -79s-31 -78 -78 -78zM437 762c-48 0 -78 30 -78 78s30 79 78 79s79 -31 79 -79s-31 -78 -79 -78zM263 245c-129 0 -214 72 -214 190v259h128v-236c0 -66 48 -101 128 -101c49 0 99 13 138 33v304h127v-694h-127
v295c-52 -32 -119 -50 -180 -50z" />
    <glyph glyph-name="uni04F6" unicode="&#x4f6;" horiz-adv-x="552" 
d="M86 0v694h453v-116h-323v-475l31 9l65 -172l-83 -123l-37 96l-32 87h-74z" />
    <glyph glyph-name="uni04F8" unicode="&#x4f8;" horiz-adv-x="885" 
d="M333 762c-48 0 -78 30 -78 78s30 79 78 79s78 -31 78 -79s-30 -78 -78 -78zM559 762c-48 0 -79 30 -79 78s31 79 79 79c47 0 78 -31 78 -79s-31 -78 -78 -78zM85 0v694h128v-253h143c136 0 230 -87 230 -211c0 -142 -104 -230 -273 -230h-228zM669 -2v694h130v-694h-130z
M213 105h117c80 0 123 38 123 108c0 73 -50 125 -121 125h-119v-233z" />
    <glyph glyph-name="uni051A" unicode="&#x51a;" horiz-adv-x="777" 
d="M378 -9c-200 0 -333 140 -333 351c0 217 137 362 343 362c203 0 338 -141 338 -351c0 -95 -27 -176 -74 -237l92 -87l-79 -77l-95 91c-53 -33 -118 -52 -192 -52zM388 103c36 0 68 8 96 22l-132 127l75 77l134 -127c21 38 32 85 32 140c0 153 -83 249 -215 249
c-123 0 -200 -92 -200 -238c0 -153 81 -250 210 -250z" />
    <glyph glyph-name="uni051C" unicode="&#x51c;" horiz-adv-x="1021" 
d="M230 0l-215 694h146l142 -533l137 529h142l148 -521l146 525h130l-215 -694h-133l-153 517l-137 -517h-138z" />
    <glyph glyph-name="uni0430" unicode="&#x430;" horiz-adv-x="520" 
d="M202 -10c-102 0 -168 57 -168 145c0 103 93 151 304 154v13c0 58 -42 88 -120 88c-45 0 -94 -10 -144 -30l-30 89c57 30 131 47 201 47c143 0 218 -72 218 -204v-292h-91l-18 49c-37 -38 -90 -59 -152 -59zM162 152c0 -37 33 -62 82 -62c37 0 70 13 94 36v92
c-125 -2 -176 -22 -176 -66z" />
    <glyph glyph-name="uni0431" unicode="&#x431;" horiz-adv-x="562" 
d="M295 -10c-159 0 -250 119 -250 342c0 253 69 362 238 362c64 0 111 17 138 51l81 -56c-44 -74 -103 -108 -187 -108c-102 0 -137 -47 -142 -200c42 52 97 79 162 79c119 0 193 -85 193 -216c0 -157 -90 -254 -233 -254zM294 355c-46 0 -89 -27 -118 -76
c11 -117 56 -180 128 -180c61 0 97 50 97 131c0 77 -42 125 -107 125z" />
    <glyph glyph-name="uni0432" unicode="&#x432;" horiz-adv-x="530" 
d="M68 0v486h221c117 0 180 -40 180 -116c0 -41 -18 -75 -51 -95c51 -22 78 -62 78 -118c0 -94 -80 -157 -203 -157h-225zM314 293h2c20 12 29 28 29 48c0 37 -27 55 -75 55h-78v-103h122zM192 90h103c32 0 74 10 74 55c0 39 -28 62 -76 62h-101v-117z" />
    <glyph glyph-name="uni0433" unicode="&#x433;" horiz-adv-x="441" 
d="M69 0v486h367v-102h-240v-384h-127z" />
    <glyph glyph-name="uni0453" unicode="&#x453;" horiz-adv-x="441" 
d="M233 546l-60 48l111 168l95 -77zM69 0v486h367v-102h-240v-384h-127z" />
    <glyph glyph-name="uni0491" unicode="&#x491;" horiz-adv-x="451" 
d="M69 0v486h261v132h116v-234h-250v-384h-127z" />
    <glyph glyph-name="uni0434" unicode="&#x434;" horiz-adv-x="601" 
d="M13 -131v231h43c45 9 68 67 68 164v222h375v-386h89v-231h-114v131h-347v-131h-114zM234 267c0 -75 -16 -131 -48 -167h194v284h-146v-117z" />
    <glyph glyph-name="uni0435" unicode="&#x435;" horiz-adv-x="526" 
d="M302 -10c-166 0 -268 96 -268 252c0 151 97 254 242 254c130 0 211 -83 211 -216c0 -22 -3 -52 -6 -72h-315c15 -80 68 -121 156 -121c41 0 84 9 123 25l28 -88c-52 -22 -114 -34 -171 -34zM267 398c-60 0 -96 -38 -104 -110h204c0 70 -37 110 -100 110z" />
    <glyph glyph-name="uni0450" unicode="&#x450;" horiz-adv-x="526" 
d="M249 546l-146 139l95 77l111 -168zM302 -10c-166 0 -268 96 -268 252c0 151 97 254 242 254c130 0 211 -83 211 -216c0 -22 -3 -52 -6 -72h-315c15 -80 68 -121 156 -121c41 0 84 9 123 25l28 -88c-52 -22 -114 -34 -171 -34zM267 398c-60 0 -96 -38 -104 -110h204
c0 70 -37 110 -100 110z" />
    <glyph glyph-name="uni0451" unicode="&#x451;" horiz-adv-x="526" 
d="M151 576c-48 0 -78 30 -78 78s30 79 78 79s79 -31 79 -79s-31 -78 -79 -78zM377 576c-48 0 -79 30 -79 78s31 79 79 79s78 -31 78 -79s-30 -78 -78 -78zM302 -10c-166 0 -268 96 -268 252c0 151 97 254 242 254c130 0 211 -83 211 -216c0 -22 -3 -52 -6 -72h-315
c15 -80 68 -121 156 -121c41 0 84 9 123 25l28 -88c-52 -22 -114 -34 -171 -34zM267 398c-60 0 -96 -38 -104 -110h204c0 70 -37 110 -100 110z" />
    <glyph glyph-name="uni0436" unicode="&#x436;" horiz-adv-x="788" 
d="M0 0l164 241l-152 245h139l113 -186h72v186h118v-186h72l116 186h137l-152 -230l159 -256h-135l-123 199h-74v-199h-118v199h-74l-129 -199h-133z" />
    <glyph glyph-name="uni0437" unicode="&#x437;" horiz-adv-x="474" 
d="M200 -7c-65 0 -122 12 -175 35l28 94c44 -16 105 -27 154 -27c67 0 104 19 104 53s-45 54 -125 54h-65v89h72c64 0 105 21 105 53c0 31 -36 50 -98 50c-44 0 -91 -10 -142 -29l-26 89c57 28 124 42 188 42c124 0 203 -50 203 -130c0 -56 -37 -94 -94 -106
c69 -13 109 -53 109 -112c0 -93 -95 -155 -238 -155z" />
    <glyph glyph-name="uni0438" unicode="&#x438;" horiz-adv-x="585" 
d="M68 0v486h117v-320l218 320h113v-486h-115v320l-222 -320h-111z" />
    <glyph glyph-name="uni0439" unicode="&#x439;" horiz-adv-x="585" 
d="M296 556c-105 0 -178 55 -194 146l90 48c10 -64 55 -106 111 -106c55 0 95 39 108 105l88 -43c-13 -93 -91 -150 -203 -150zM68 0v486h117v-320l218 320h113v-486h-115v320l-222 -320h-111z" />
    <glyph glyph-name="uni045D" unicode="&#x45d;" horiz-adv-x="585" 
d="M278 546l-147 139l95 77l111 -168zM68 0v486h117v-320l218 320h113v-486h-115v320l-222 -320h-111z" />
    <glyph glyph-name="uni043A" unicode="&#x43a;" horiz-adv-x="537" 
d="M69 0v486h124v-187h86l115 187h135l-150 -228l157 -258h-141l-114 197h-88v-197h-124z" />
    <glyph glyph-name="uni045C" unicode="&#x45c;" horiz-adv-x="537" 
d="M282 546l-60 48l111 168l96 -77zM69 0v486h124v-187h86l115 187h135l-150 -228l157 -258h-141l-114 197h-88v-197h-124z" />
    <glyph glyph-name="uni043B" unicode="&#x43b;" horiz-adv-x="593" 
d="M97 -14c-33 0 -64 10 -89 28l22 89c17 -9 36 -15 46 -15c43 0 60 56 60 114v285h389v-487h-124v382h-150v-173c0 -130 -55 -223 -154 -223z" />
    <glyph glyph-name="uni043C" unicode="&#x43c;" horiz-adv-x="663" 
d="M68 0v486h111l157 -290l149 290h110v-486h-110v298l-119 -223h-70l-119 213v-288h-109z" />
    <glyph glyph-name="uni043D" unicode="&#x43d;" horiz-adv-x="585" 
d="M68 0v488h125v-188h199v188h125v-488h-125v198h-199v-198h-125z" />
    <glyph glyph-name="uni043E" unicode="&#x43e;" horiz-adv-x="566" 
d="M275 -10c-147 0 -241 97 -241 245c0 157 103 261 257 261c146 0 241 -96 241 -245c0 -156 -103 -261 -257 -261zM286 98c72 0 117 54 117 140c0 91 -49 150 -124 150c-72 0 -116 -54 -116 -142c0 -90 48 -148 123 -148z" />
    <glyph glyph-name="uni043F" unicode="&#x43f;" horiz-adv-x="572" 
d="M68 0v486h435v-486h-119v383h-196v-383h-120z" />
    <glyph glyph-name="uni0440" unicode="&#x440;" horiz-adv-x="573" 
d="M68 -217v703h86l23 -54c37 41 89 64 148 64c125 0 212 -100 212 -245c0 -153 -94 -261 -225 -261c-48 0 -89 15 -120 43v-250h-124zM289 388c-37 0 -72 -15 -97 -41v-194c22 -34 60 -55 103 -55c71 0 113 55 113 143c0 91 -46 147 -119 147z" />
    <glyph glyph-name="uni0441" unicode="&#x441;" horiz-adv-x="463" 
d="M278 -10c-153 0 -244 90 -244 242c0 160 102 264 259 264c50 0 101 -10 143 -29l-27 -101c-35 14 -76 22 -112 22c-87 0 -133 -50 -133 -142c0 -97 52 -153 142 -153c32 0 69 8 103 23l29 -88c-46 -25 -101 -38 -160 -38z" />
    <glyph glyph-name="uni0442" unicode="&#x442;" horiz-adv-x="480" 
d="M179 0v384h-174v102h470v-102h-176v-384h-120z" />
    <glyph glyph-name="uni0443" unicode="&#x443;" horiz-adv-x="508" 
d="M103 -217l88 217l-189 486h141l115 -364l120 364h127l-186 -486l-78 -217h-138z" />
    <glyph glyph-name="uni045E" unicode="&#x45e;" horiz-adv-x="508" 
d="M264 556c-105 0 -178 55 -194 146l90 48c10 -64 55 -106 111 -106c55 0 95 39 108 105l88 -43c-13 -93 -91 -150 -203 -150zM103 -217l88 217l-189 486h141l115 -364l120 364h127l-186 -486l-78 -217h-138z" />
    <glyph glyph-name="uni0444" unicode="&#x444;" horiz-adv-x="792" 
d="M230 -5c-114 0 -193 101 -193 244c0 146 86 247 210 247c34 0 65 -9 91 -26v279h117v-285c29 21 64 32 104 32c116 0 196 -98 196 -238c0 -150 -86 -253 -210 -253c-35 0 -64 8 -90 23v-235h-117v250c-30 -25 -66 -38 -108 -38zM164 247c0 -89 41 -146 106 -146
c26 0 50 10 68 27v223c-19 19 -45 29 -73 29c-61 0 -101 -53 -101 -133zM517 380c-23 0 -45 -8 -62 -23v-227c20 -19 44 -29 71 -29c63 0 102 53 102 138s-44 141 -111 141z" />
    <glyph glyph-name="uni0445" unicode="&#x445;" horiz-adv-x="497" 
d="M4 0l178 238l-180 248h147l101 -154l105 154h142l-186 -242l175 -244h-146l-98 148l-100 -148h-138z" />
    <glyph glyph-name="uni0447" unicode="&#x447;" horiz-adv-x="545" 
d="M210 166c-107 0 -177 55 -177 142v178h124v-141c0 -42 40 -69 97 -69c31 0 68 8 98 20v190h125v-486h-125v202c-41 -23 -92 -36 -142 -36z" />
    <glyph glyph-name="uni0446" unicode="&#x446;" horiz-adv-x="612" 
d="M481 -131v131h-413v486h124v-386h178v386h123v-386h103v-231h-115z" />
    <glyph glyph-name="uni0448" unicode="&#x448;" horiz-adv-x="831" 
d="M68 0v486h122v-386h165v386h121v-386h166v386h121v-486h-695z" />
    <glyph glyph-name="uni0449" unicode="&#x449;" horiz-adv-x="861" 
d="M735 -131v131h-667v486h121v-386h167v386h120v-386h168v386h121v-386h87v-231h-117z" />
    <glyph glyph-name="uni045F" unicode="&#x45f;" horiz-adv-x="587" 
d="M238 -132v132h-170v486h124v-382h203v382h124v-486h-165v-132h-116z" />
    <glyph glyph-name="uni044C" unicode="&#x44c;" horiz-adv-x="513" 
d="M68 0v486h121v-154h118c109 0 183 -62 183 -156c0 -110 -83 -176 -221 -176h-201zM189 97h96c49 0 79 25 79 68s-34 72 -82 72h-93v-140z" />
    <glyph glyph-name="uni044A" unicode="&#x44a;" horiz-adv-x="571" 
d="M143 0v384h-130v102h251v-153h101c111 0 183 -63 183 -157c0 -110 -82 -176 -220 -176h-185zM264 97h80c49 0 79 25 79 68s-34 72 -82 72h-77v-140z" />
    <glyph glyph-name="uni044B" unicode="&#x44b;" horiz-adv-x="739" 
d="M547 -2v488h123v-488h-123zM68 0v486h121v-154h103c110 0 185 -62 185 -156c0 -110 -83 -176 -222 -176h-187zM189 97h82c50 0 80 25 80 68s-35 72 -84 72h-78v-140z" />
    <glyph glyph-name="uni0459" unicode="&#x459;" horiz-adv-x="858" 
d="M97 -14c-33 0 -64 10 -89 28l22 89c17 -9 36 -15 46 -15c43 0 60 56 60 114v285h389v-155h127c109 0 183 -62 183 -156c0 -110 -83 -176 -221 -176h-213v382h-150v-173c0 -130 -55 -223 -154 -223zM627 237h-102v-140h105c49 0 79 25 79 68s-34 72 -82 72z" />
    <glyph glyph-name="uni045A" unicode="&#x45a;" horiz-adv-x="847" 
d="M68 0v488h125v-188h199v188h125v-156h124c109 0 184 -62 184 -156c0 -110 -83 -176 -221 -176h-212v198h-199v-198h-125zM617 237h-100v-140h103c49 0 79 25 79 68s-35 72 -82 72z" />
    <glyph glyph-name="uni0455" unicode="&#x455;" horiz-adv-x="471" 
d="M227 -10c-66 0 -137 14 -193 38l28 95c51 -20 116 -33 163 -33c55 0 87 19 87 50c0 88 -271 19 -271 200c0 100 81 156 220 156c55 0 112 -9 157 -25l-26 -96c-45 13 -93 21 -133 21c-60 0 -94 -18 -94 -47c0 -82 274 -21 274 -203c0 -97 -78 -156 -212 -156z" />
    <glyph glyph-name="uni0454" unicode="&#x454;" horiz-adv-x="488" 
d="M289 -10c-159 0 -255 90 -255 241c0 160 109 265 273 265c50 0 107 -11 152 -30l-26 -95c-36 14 -85 23 -124 23c-78 0 -130 -34 -147 -97h233v-89h-236c13 -77 70 -121 157 -121c39 0 81 9 118 24l27 -83c-48 -25 -110 -38 -172 -38z" />
    <glyph glyph-name="uni044D" unicode="&#x44d;" horiz-adv-x="482" 
d="M191 -7c-49 0 -120 10 -167 31l31 87c32 -11 99 -19 138 -19c83 0 128 36 137 112h-234v91h229c-18 67 -67 102 -147 102c-30 0 -93 -6 -124 -17l-24 83c39 19 122 33 177 33c148 0 240 -93 240 -247c0 -159 -98 -256 -256 -256z" />
    <glyph glyph-name="uni0456" unicode="&#x456;" horiz-adv-x="271" 
d="M136 576c-48 0 -78 30 -78 78s30 79 78 79s79 -31 79 -79s-31 -78 -79 -78zM72 0v486h127v-486h-127z" />
    <glyph glyph-name="uni0457" unicode="&#x457;" horiz-adv-x="271" 
d="M23 576c-47 0 -78 30 -78 78s31 79 78 79c48 0 79 -31 79 -79s-31 -78 -79 -78zM249 576c-48 0 -79 30 -79 78s31 79 79 79s78 -31 78 -79s-30 -78 -78 -78zM72 0v486h127v-486h-127z" />
    <glyph glyph-name="uni0458" unicode="&#x458;" horiz-adv-x="271" 
d="M136 576c-48 0 -78 30 -78 78s30 79 78 79s79 -31 79 -79s-31 -78 -79 -78zM24 -230l-38 72c53 35 86 94 86 154v490h128v-484c0 -101 -68 -191 -176 -232z" />
    <glyph glyph-name="uni045B" unicode="&#x45b;" horiz-adv-x="573" 
d="M68 0v552h-63v83h63v104h126v-104h126v-83h-126v-109c41 34 89 51 141 51c111 0 179 -72 179 -189v-305h-127v282c0 66 -32 101 -95 101c-37 0 -69 -12 -98 -39v-344h-126z" />
    <glyph glyph-name="uni044E" unicode="&#x44e;" horiz-adv-x="796" 
d="M68 0v486h120v-191h95c20 124 106 198 235 198c146 0 244 -98 244 -247c0 -152 -101 -253 -251 -253c-130 0 -214 76 -230 203h-93v-196h-120zM518 96c74 0 121 58 121 144c0 88 -50 150 -126 150c-70 0 -112 -54 -112 -144c0 -92 46 -150 117 -150z" />
    <glyph glyph-name="uni044F" unicode="&#x44f;" horiz-adv-x="528" 
d="M19 0l136 173c-74 20 -117 70 -117 143c0 102 84 170 209 170h212v-486h-119v164h-61l-116 -164h-144zM247 257h93v126h-109c-43 0 -70 -22 -70 -60c0 -41 34 -66 86 -66z" />
    <glyph glyph-name="uni0452" unicode="&#x452;" horiz-adv-x="573" 
d="M68 0v552h-63v83h63v104h126v-104h126v-83h-126v-109c41 34 89 51 141 51c111 0 179 -72 179 -189v-305h1v-18c0 -94 -59 -178 -148 -209l-41 73c37 21 62 70 62 124v30h-1v282c0 66 -32 101 -95 101c-37 0 -69 -12 -98 -39v-344h-126z" />
    <glyph glyph-name="uni0463" unicode="&#x463;" horiz-adv-x="520" 
d="M80 0v441h-71v101h71v197h116v-197h139v-101h-139v-109h118c109 0 183 -62 183 -156c0 -110 -83 -176 -221 -176h-196zM196 97h96c49 0 79 25 79 68s-34 72 -82 72h-93v-140z" />
    <glyph glyph-name="uni046B" unicode="&#x46b;" horiz-adv-x="632" 
d="M136 0h-113c0 152 55 242 174 275l-123 114v97h480v-97l-129 -110c126 -29 185 -121 185 -279h-113c0 114 -40 177 -127 195v-195h-109v197c-85 -16 -125 -79 -125 -197zM215 392l94 -102h7l95 102h-196z" />
    <glyph glyph-name="uni0473" unicode="&#x473;" horiz-adv-x="566" 
d="M275 -10c-147 0 -241 97 -241 245c0 157 103 261 257 261c146 0 241 -96 241 -245c0 -156 -103 -261 -257 -261zM279 388c-60 0 -101 -39 -113 -104h232c-14 65 -57 104 -119 104zM286 98c61 0 103 39 114 103h-232c13 -64 57 -103 118 -103z" />
    <glyph glyph-name="uni0475" unicode="&#x475;" horiz-adv-x="519" 
d="M180 0l-172 486h135l103 -346l61 213c25 91 89 140 187 140l14 -110c-60 0 -88 -31 -105 -81l-100 -302h-123z" />
    <glyph glyph-name="uni0493" unicode="&#x493;" horiz-adv-x="472" 
d="M98 0v196h-82v94h82v196h368v-102h-241v-94h159v-94h-159v-196h-127z" />
    <glyph glyph-name="uni0495" unicode="&#x495;" horiz-adv-x="554" 
d="M68 0v486h351v-102h-229v-130c38 24 84 38 133 38c126 0 210 -92 210 -233c0 -154 -100 -262 -273 -293l-16 75c102 20 162 93 162 194c0 94 -51 156 -129 156c-31 0 -61 -10 -87 -27v-164h-122z" />
    <glyph glyph-name="uni0497" unicode="&#x497;" horiz-adv-x="821" 
d="M0 0l164 241l-152 245h139l113 -186h72v186h118v-186h72l116 186h137l-152 -230l98 -158h80v-226h-111v128h-43l-123 199h-74v-199h-118v199h-74l-129 -199h-133z" />
    <glyph glyph-name="uni0499" unicode="&#x499;" horiz-adv-x="474" 
d="M233 -257c-41 0 -79 8 -107 23l17 71c22 -10 56 -16 81 -16c33 0 51 11 51 30c0 28 -35 46 -101 50l17 92c-61 1 -115 13 -166 35l28 94c44 -16 105 -27 154 -27c67 0 104 19 104 53s-45 54 -125 54h-65v89h72c64 0 105 21 105 53c0 31 -36 50 -98 50
c-44 0 -91 -10 -142 -29l-26 89c57 28 124 42 188 42c124 0 203 -50 203 -130c0 -56 -37 -94 -94 -106c69 -13 109 -53 109 -112c0 -75 -61 -129 -159 -148l-9 -51c74 -11 111 -43 111 -97c0 -68 -56 -109 -148 -109z" />
    <glyph glyph-name="uni049B" unicode="&#x49b;" horiz-adv-x="570" 
d="M69 0v486h124v-187h86l115 187h135l-150 -228l97 -160h79v-226h-112v128h-48l-114 197h-88v-197h-124z" />
    <glyph glyph-name="uni049D" unicode="&#x49d;" horiz-adv-x="556" 
d="M69 0v486h124v-187h30v115h72v-115h8l111 187h135l-140 -228l147 -258h-141l-110 197h-10v-116h-72v116h-30v-197h-124z" />
    <glyph glyph-name="uni04A1" unicode="&#x4a1;" horiz-adv-x="633" 
d="M166 0v385h-165v101h289v-187h81l119 187h135l-149 -228l156 -258h-140l-119 197h-83v-197h-124z" />
    <glyph glyph-name="uni04A3" unicode="&#x4a3;" horiz-adv-x="611" 
d="M68 0v488h125v-188h199v188h125v-390h81v-226h-112v128h-94v198h-199v-198h-125z" />
    <glyph glyph-name="uni04A5" unicode="&#x4a5;" horiz-adv-x="702" 
d="M69 0v486h125v-188h199v188h305v-101h-180v-385h-125v196h-199v-196h-125z" />
    <glyph glyph-name="uni04AB" unicode="&#x4ab;" horiz-adv-x="463" 
d="M207 -128v125c-110 25 -173 108 -173 235c0 160 102 264 259 264c50 0 101 -10 143 -29l-27 -101c-35 14 -76 22 -112 22c-87 0 -133 -50 -133 -142c0 -97 52 -153 142 -153c32 0 69 8 103 23l29 -88c-34 -19 -73 -30 -115 -35v-121h-116z" />
    <glyph glyph-name="ustraitcy" unicode="&#x4af;" horiz-adv-x="518" 
d="M196 0l-189 486h141l114 -364l122 364h128l-189 -486h7v-217h-127v217h-7z" />
    <glyph glyph-name="uni04B3" unicode="&#x4b3;" horiz-adv-x="523" 
d="M4 0l178 238l-180 248h147l101 -154l105 154h142l-186 -242l104 -146h86v-226h-111v128h-50l-98 148l-100 -148h-138z" />
    <glyph glyph-name="uni04B7" unicode="&#x4b7;" horiz-adv-x="575" 
d="M210 166c-107 0 -177 55 -177 142v178h124v-141c0 -42 40 -69 97 -69c31 0 68 8 98 20v190h125v-388h80v-226h-112v128h-93v202c-41 -23 -92 -36 -142 -36z" />
    <glyph glyph-name="uni04B9" unicode="&#x4b9;" horiz-adv-x="550" 
d="M220 60v107c-2 -1 -5 -1 -8 -1c-108 0 -179 55 -179 142v178h124v-141c0 -33 25 -56 63 -65v118h73v-119c22 3 44 9 63 17v190h125v-486h-125v202c-19 -11 -41 -19 -63 -25v-117h-73z" />
    <glyph glyph-name="uni04BB" unicode="&#x4bb;" horiz-adv-x="573" 
d="M68 0v739h126v-296c41 34 89 51 141 51c111 0 179 -72 179 -189v-305h-127v282c0 66 -32 101 -95 101c-37 0 -69 -12 -98 -39v-344h-126z" />
    <glyph glyph-name="uni04CF" unicode="&#x4cf;" horiz-adv-x="301" 
d="M85 0v694h131v-694h-131z" />
    <glyph glyph-name="uni04C2" unicode="&#x4c2;" horiz-adv-x="788" 
d="M398 556c-105 0 -179 55 -195 146l91 48c9 -64 55 -106 110 -106c56 0 96 39 108 105l89 -43c-13 -93 -92 -150 -203 -150zM0 0l164 241l-152 245h139l113 -186h72v186h118v-186h72l116 186h137l-152 -230l159 -256h-135l-123 199h-74v-199h-118v199h-74l-129 -199h-133z
" />
    <glyph glyph-name="uni04CC" unicode="&#x4cc;" horiz-adv-x="545" 
d="M210 166c-107 0 -177 55 -177 142v178h124v-141c0 -42 40 -69 97 -69c31 0 68 8 98 20v190h125v-486h-94v-128h-115v226h84v104c-41 -23 -92 -36 -142 -36z" />
    <glyph glyph-name="uni04D1" unicode="&#x4d1;" horiz-adv-x="520" 
d="M265 556c-105 0 -179 55 -195 146l90 48c10 -64 56 -106 111 -106c56 0 96 39 108 105l89 -43c-14 -93 -92 -150 -203 -150zM202 -10c-102 0 -168 57 -168 145c0 103 93 151 304 154v13c0 58 -42 88 -120 88c-45 0 -94 -10 -144 -30l-30 89c57 30 131 47 201 47
c143 0 218 -72 218 -204v-292h-91l-18 49c-37 -38 -90 -59 -152 -59zM162 152c0 -37 33 -62 82 -62c37 0 70 13 94 36v92c-125 -2 -176 -22 -176 -66z" />
    <glyph glyph-name="uni04D3" unicode="&#x4d3;" horiz-adv-x="520" 
d="M148 576c-47 0 -78 30 -78 78s31 79 78 79c48 0 79 -31 79 -79s-31 -78 -79 -78zM374 576c-48 0 -79 30 -79 78s31 79 79 79s78 -31 78 -79s-30 -78 -78 -78zM202 -10c-102 0 -168 57 -168 145c0 103 93 151 304 154v13c0 58 -42 88 -120 88c-45 0 -94 -10 -144 -30
l-30 89c57 30 131 47 201 47c143 0 218 -72 218 -204v-292h-91l-18 49c-37 -38 -90 -59 -152 -59zM162 152c0 -37 33 -62 82 -62c37 0 70 13 94 36v92c-125 -2 -176 -22 -176 -66z" />
    <glyph glyph-name="uni04D5" unicode="&#x4d5;" horiz-adv-x="815" 
d="M197 -10c-98 0 -163 53 -163 133c0 104 110 162 303 166v8c0 60 -41 92 -114 92c-47 0 -98 -14 -152 -40l-28 88c64 39 136 59 207 59s122 -21 152 -64c39 41 94 64 162 64c129 0 211 -84 211 -217c0 -23 -3 -55 -6 -70h-316c16 -79 71 -121 158 -121c39 0 79 9 122 25
l29 -89c-59 -23 -115 -34 -172 -34c-98 0 -169 32 -210 93c-44 -60 -107 -93 -183 -93zM555 396c-59 0 -97 -37 -105 -107h201c0 68 -35 107 -96 107zM162 146c0 -35 30 -56 79 -56c44 0 83 18 111 49c-7 22 -12 46 -13 73c-124 -2 -177 -21 -177 -66z" />
    <glyph glyph-name="uni04D7" unicode="&#x4d7;" horiz-adv-x="526" 
d="M268 556c-105 0 -179 55 -195 146l90 48c10 -64 56 -106 111 -106c56 0 96 39 108 105l89 -43c-14 -93 -92 -150 -203 -150zM302 -10c-166 0 -268 96 -268 252c0 151 97 254 242 254c130 0 211 -83 211 -216c0 -22 -3 -52 -6 -72h-315c15 -80 68 -121 156 -121
c41 0 84 9 123 25l28 -88c-52 -22 -114 -34 -171 -34zM267 398c-60 0 -96 -38 -104 -110h204c0 70 -37 110 -100 110z" />
    <glyph glyph-name="uni04D9" unicode="&#x4d9;" horiz-adv-x="526" 
d="M225 496c166 0 267 -95 267 -251c0 -152 -97 -255 -242 -255c-129 0 -210 84 -210 216c0 22 2 52 5 72h316c-15 80 -69 121 -157 121c-41 0 -84 -9 -123 -25l-28 88c53 22 114 34 172 34zM260 88c60 0 96 38 103 110h-203c0 -70 36 -110 100 -110z" />
    <glyph glyph-name="uni04DD" unicode="&#x4dd;" horiz-adv-x="788" 
d="M282 576c-48 0 -79 30 -79 78s31 79 79 79c47 0 78 -31 78 -79s-31 -78 -78 -78zM507 576c-48 0 -78 30 -78 78s30 79 78 79s79 -31 79 -79s-31 -78 -79 -78zM0 0l164 241l-152 245h139l113 -186h72v186h118v-186h72l116 186h137l-152 -230l159 -256h-135l-123 199h-74
v-199h-118v199h-74l-129 -199h-133z" />
    <glyph glyph-name="uni04DF" unicode="&#x4df;" horiz-adv-x="474" 
d="M124 576c-48 0 -78 30 -78 78s30 79 78 79s79 -31 79 -79s-31 -78 -79 -78zM350 576c-48 0 -79 30 -79 78s31 79 79 79c47 0 78 -31 78 -79s-31 -78 -78 -78zM200 -7c-65 0 -122 12 -175 35l28 94c44 -16 105 -27 154 -27c67 0 104 19 104 53s-45 54 -125 54h-65v89h72
c64 0 105 21 105 53c0 31 -36 50 -98 50c-44 0 -91 -10 -142 -29l-26 89c57 28 124 42 188 42c124 0 203 -50 203 -130c0 -56 -37 -94 -94 -106c69 -13 109 -53 109 -112c0 -93 -95 -155 -238 -155z" />
    <glyph glyph-name="uni04E3" unicode="&#x4e3;" horiz-adv-x="585" 
d="M124 591v102h337v-102h-337zM68 0v486h117v-320l218 320h113v-486h-115v320l-222 -320h-111z" />
    <glyph glyph-name="uni04E5" unicode="&#x4e5;" horiz-adv-x="585" 
d="M180 576c-48 0 -79 30 -79 78s31 79 79 79s78 -31 78 -79s-30 -78 -78 -78zM405 576c-47 0 -78 30 -78 78s31 79 78 79c48 0 79 -31 79 -79s-31 -78 -79 -78zM68 0v486h117v-320l218 320h113v-486h-115v320l-222 -320h-111z" />
    <glyph glyph-name="uni04E7" unicode="&#x4e7;" horiz-adv-x="566" 
d="M172 576c-48 0 -79 30 -79 78s31 79 79 79c47 0 78 -31 78 -79s-31 -78 -78 -78zM397 576c-47 0 -78 30 -78 78s31 79 78 79c48 0 79 -31 79 -79s-31 -78 -79 -78zM275 -10c-147 0 -241 97 -241 245c0 157 103 261 257 261c146 0 241 -96 241 -245
c0 -156 -103 -261 -257 -261zM286 98c72 0 117 54 117 140c0 91 -49 150 -124 150c-72 0 -116 -54 -116 -142c0 -90 48 -148 123 -148z" />
    <glyph glyph-name="uni04E9" unicode="&#x4e9;" horiz-adv-x="566" 
d="M275 -10c-147 0 -241 97 -241 245c0 157 103 261 257 261c146 0 241 -96 241 -245c0 -156 -103 -261 -257 -261zM279 388c-60 0 -101 -39 -113 -104h232c-14 65 -57 104 -119 104zM286 98c61 0 103 39 114 103h-232c13 -64 57 -103 118 -103z" />
    <glyph glyph-name="uni04EF" unicode="&#x4ef;" horiz-adv-x="508" 
d="M92 591v102h337v-102h-337zM103 -217l88 217l-189 486h141l115 -364l120 364h127l-186 -486l-78 -217h-138z" />
    <glyph glyph-name="uni04F1" unicode="&#x4f1;" horiz-adv-x="508" 
d="M148 576c-48 0 -79 30 -79 78s31 79 79 79s78 -31 78 -79s-30 -78 -78 -78zM373 576c-47 0 -78 30 -78 78s31 79 78 79c48 0 79 -31 79 -79s-31 -78 -79 -78zM103 -217l88 217l-189 486h141l115 -364l120 364h127l-186 -486l-78 -217h-138z" />
    <glyph glyph-name="uni04F3" unicode="&#x4f3;" horiz-adv-x="508" 
d="M177 540l-68 37l81 185l107 -60zM371 540l-67 37l81 184l106 -59zM103 -217l88 217l-189 486h141l115 -364l120 364h127l-186 -486l-78 -217h-138z" />
    <glyph glyph-name="uni04F5" unicode="&#x4f5;" horiz-adv-x="545" 
d="M160 576c-47 0 -78 30 -78 78s31 79 78 79c48 0 79 -31 79 -79s-31 -78 -79 -78zM386 576c-48 0 -79 30 -79 78s31 79 79 79s78 -31 78 -79s-30 -78 -78 -78zM210 166c-107 0 -177 55 -177 142v178h124v-141c0 -42 40 -69 97 -69c31 0 68 8 98 20v190h125v-486h-125v202
c-41 -23 -92 -36 -142 -36z" />
    <glyph glyph-name="uni04F7" unicode="&#x4f7;" horiz-adv-x="441" 
d="M69 0v486h367v-102h-240v-286h90v-226h-111v128h-106z" />
    <glyph glyph-name="uni04F9" unicode="&#x4f9;" horiz-adv-x="739" 
d="M257 576c-48 0 -78 30 -78 78s30 79 78 79s79 -31 79 -79s-31 -78 -79 -78zM483 576c-48 0 -79 30 -79 78s31 79 79 79c47 0 78 -31 78 -79s-31 -78 -78 -78zM547 -2v488h123v-488h-123zM68 0v486h121v-154h103c110 0 185 -62 185 -156c0 -110 -83 -176 -222 -176h-187z
M189 97h82c50 0 80 25 80 68s-35 72 -84 72h-78v-140z" />
    <glyph glyph-name="uni051B" unicode="&#x51b;" horiz-adv-x="574" 
d="M248 -10c-126 0 -211 100 -211 250c0 154 91 256 227 256c57 0 104 -18 137 -53l18 43h86v-703h-124v259c-34 -33 -80 -52 -133 -52zM166 247c0 -91 46 -149 121 -149c40 0 72 15 94 42v199c-22 31 -57 49 -99 49c-73 0 -116 -54 -116 -141z" />
    <glyph glyph-name="uni051D" unicode="&#x51d;" horiz-adv-x="816" 
d="M181 0l-178 486h140l104 -356l101 354h128l103 -348l108 350h125l-174 -486h-127l-110 343l-101 -343h-119z" />
    <glyph glyph-name="pi" unicode="&#x3c0;" horiz-adv-x="652" 
d="M104 0v384h-86v102h587v-102h-91v-221c0 -45 17 -70 49 -70c12 0 26 4 39 9l22 -88c-30 -14 -61 -23 -94 -23c-90 0 -144 58 -144 158v235h-154v-384h-128z" />
    <glyph glyph-name="zero" unicode="0" horiz-adv-x="636" 
d="M316 -10c-165 0 -270 137 -270 353c0 222 107 361 276 361c163 0 268 -136 268 -353c0 -221 -107 -361 -274 -361zM321 101c84 0 136 93 136 242c0 154 -54 250 -140 250c-85 0 -138 -93 -138 -242c0 -154 54 -250 142 -250z" />
    <glyph glyph-name="one" unicode="1" horiz-adv-x="472" 
d="M52 0v110h136v427l-114 -64l-49 90l215 131h77v-584h134v-110h-399z" />
    <glyph glyph-name="two" unicode="2" horiz-adv-x="547" 
d="M46 0v89c212 192 306 297 306 390c0 68 -48 112 -125 112c-54 0 -113 -22 -165 -61l-35 93c59 52 139 81 225 81c143 0 234 -80 234 -205c0 -116 -79 -230 -256 -387h279v-112h-463z" />
    <glyph glyph-name="three" unicode="3" horiz-adv-x="569" 
d="M249 -10c-79 0 -149 17 -219 52l29 102c61 -28 134 -43 197 -43c91 0 144 32 144 87c0 69 -78 112 -202 112h-33v102h34c101 0 162 38 162 101c0 55 -49 90 -124 90c-50 0 -108 -16 -169 -44l-29 96c70 39 149 59 225 59c141 0 231 -71 231 -182
c0 -77 -45 -137 -116 -156c94 -22 154 -89 154 -177c0 -119 -114 -199 -284 -199z" />
    <glyph glyph-name="four" unicode="4" horiz-adv-x="621" 
d="M349 -7v151h-328v67l331 483h121v-442l124 -1v-107h-124v-151h-124zM155 252h194v290z" />
    </font>
</defs>
</svg>
