<?xml version="1.0" standalone="no"?>
<!DOCTYPE svg PUBLIC "-//W3C//DTD SVG 1.1//EN" "http://www.w3.org/Graphics/SVG/1.1/DTD/svg11.dtd" >
<svg xmlns="http://www.w3.org/2000/svg" xmlns:xlink="http://www.w3.org/1999/xlink" version="1.1">
<metadata>
Created by FontForge 20201107 at Fri Dec 31 21:23:37 2021
 By Reinhart Previano Koentjoro
Copyright c 2009--2017 The Cantarell Authors
</metadata>
<defs>
<font id="Cantarell-BoldItalic" horiz-adv-x="715" >
  <font-face 
    font-family="Cantarell"
    font-weight="700"
    font-style="italic"
    font-stretch="normal"
    units-per-em="1000"
    panose-1="0 0 0 0 0 0 0 0 0 0"
    ascent="800"
    descent="-200"
    x-height="462"
    cap-height="694"
    bbox="-120 -257 1455.04 1165"
    underline-thickness="50"
    underline-position="-125"
    stemh="111"
    stemv="123"
    unicode-range="U+0020-FB02"
  />
<missing-glyph horiz-adv-x="463" 
d="M-5 -217l221 956h372l-221 -956h-372zM53 -167h279l198 856h-279z" />
    <glyph glyph-name="fi" unicode="fi" horiz-adv-x="548" 
d="M70 -35l91 395h-64l23 102h64l17 72c30 129 117 215 218 215c36 0 66 -11 89 -29l-43 -92c-13 10 -39 15 -60 15c-45 0 -77 -32 -91 -92l-20 -89h120l-24 -102h-120l-88 -384c-27 -115 -112 -193 -213 -193c-36 0 -66 11 -89 29l43 91c13 -10 39 -14 60 -14
c45 0 76 27 87 76zM565 576c-43 0 -62 30 -51 78s44 79 87 79s63 -31 52 -79s-45 -78 -88 -78zM374 -5l108 467h113l-108 -467h-113z" />
    <glyph glyph-name="fl" unicode="fl" horiz-adv-x="561" 
d="M71 -31l90 391h-64l23 102h64l17 72c30 129 117 215 218 215c36 0 66 -11 89 -29l-44 -94c-13 12 -38 17 -59 17c-45 0 -77 -32 -91 -92l-20 -89h120l-24 -102h-120l-87 -380c-27 -118 -113 -197 -214 -197c-36 0 -66 11 -89 29l43 92c13 -10 39 -15 60 -15
c45 0 76 28 88 80zM484 -7c-74 0 -107 51 -88 135l142 611h112l-138 -595c-8 -34 1 -54 26 -54c8 0 18 2 28 6l4 -85c-26 -12 -59 -18 -86 -18z" />
    <glyph glyph-name="f_f" unicode="ff" horiz-adv-x="619" 
d="M70 -35l91 395h-64l23 102h64l17 72c30 129 117 215 218 215c36 0 66 -11 89 -29l-44 -94c-13 12 -38 17 -59 17c-45 0 -77 -32 -91 -92l-20 -89h120l-24 -102h-120l-88 -384c-27 -115 -112 -193 -213 -193c-35 0 -66 11 -89 29l43 91c13 -10 39 -14 60 -14
c45 0 76 27 87 76zM384 -35l91 395h-64l23 102h64l17 72c30 129 117 215 218 215c35 0 66 -11 89 -29l-44 -94c-13 12 -38 17 -59 17c-45 0 -77 -32 -91 -92l-20 -89h119l-23 -102h-120l-89 -384c-27 -115 -112 -193 -213 -193c-36 0 -66 11 -89 29l44 91
c13 -10 39 -14 60 -14c45 0 76 27 87 76z" />
    <glyph glyph-name="f_f_i" unicode="ffi" horiz-adv-x="862" 
d="M70 -35l91 395h-64l23 102h64l17 72c30 129 117 215 218 215c36 0 66 -11 89 -29l-43 -92c-13 10 -39 15 -60 15c-45 0 -77 -32 -91 -92l-20 -89h120l-24 -102h-120l-88 -384c-27 -115 -112 -193 -213 -193c-35 0 -66 11 -89 29l43 91c13 -10 39 -14 60 -14
c45 0 76 27 87 76zM384 -35l91 395h-64l23 102h64l17 72c30 129 117 215 218 215c35 0 66 -11 89 -29l-43 -92c-13 10 -39 15 -60 15c-45 0 -77 -32 -91 -92l-20 -89h119l-23 -102h-120l-89 -384c-27 -115 -112 -193 -213 -193c-36 0 -66 11 -89 29l44 91
c13 -10 39 -14 60 -14c45 0 76 27 87 76zM879 576c-43 0 -62 30 -51 78s44 79 87 79s63 -31 52 -79s-45 -78 -88 -78zM688 -5l108 467h113l-108 -467h-113z" />
    <glyph glyph-name="f_f_l" unicode="ffl" horiz-adv-x="875" 
d="M71 -31l90 391h-64l23 102h64l17 72c30 129 117 215 218 215c36 0 66 -11 89 -29l-44 -94c-13 12 -38 17 -59 17c-45 0 -77 -32 -91 -92l-20 -89h120l-24 -102h-120l-87 -380c-27 -118 -113 -197 -214 -197c-35 0 -66 11 -89 29l43 92c13 -10 39 -15 60 -15
c45 0 76 28 88 80zM385 -31l90 391h-64l23 102h64l17 72c30 129 117 215 218 215c35 0 66 -11 89 -29l-44 -94c-13 12 -38 17 -59 17c-45 0 -77 -32 -91 -92l-20 -89h119l-23 -102h-120l-88 -380c-27 -118 -113 -197 -214 -197c-36 0 -66 11 -89 29l44 92
c13 -10 39 -15 60 -15c45 0 76 28 88 80zM798 -7c-74 0 -107 51 -88 135l141 611h112l-137 -595c-8 -34 1 -54 26 -54c8 0 18 2 28 6l3 -85c-26 -12 -58 -18 -85 -18z" />
    <glyph glyph-name=".notdef" horiz-adv-x="463" 
d="M-5 -217l221 956h372l-221 -956h-372zM53 -167h279l198 856h-279z" />
    <glyph glyph-name="space" unicode=" " horiz-adv-x="171" 
 />
    <glyph glyph-name="exclam" unicode="!" horiz-adv-x="233" 
d="M124 235l93 459h119l-119 -459h-93zM114 -10c-48 0 -71 37 -60 85c12 51 52 88 100 88c47 0 71 -37 59 -88c-11 -48 -52 -85 -99 -85z" />
    <glyph glyph-name="quotedbl" unicode="&#x22;" horiz-adv-x="441" 
d="M179 414l52 285h125l-80 -285h-97zM370 414l51 285h127l-81 -285h-97z" />
    <glyph glyph-name="numbersign" unicode="#" horiz-adv-x="625" 
d="M132 0l39 166h-106l21 94h106l41 176h-106l22 95h106l38 163h108l-38 -163h148l37 163h108l-37 -163h103l-22 -95h-103l-41 -176h103l-21 -94h-104l-38 -166h-108l38 166h-147l-39 -166h-108zM300 260h148l41 176h-148z" />
    <glyph glyph-name="dollar" unicode="$" horiz-adv-x="577" 
d="M204 -151l33 142c-64 5 -127 25 -179 54l57 104c57 -29 126 -43 185 -43c79 0 127 31 139 82c33 141 -324 63 -269 300c25 108 114 185 230 208l32 142h111l-31 -136c52 -4 101 -18 141 -39l-58 -102c-42 19 -98 30 -151 30c-81 0 -133 -30 -145 -83
c-32 -140 328 -53 270 -304c-25 -107 -106 -182 -220 -206l-34 -149h-111z" />
    <glyph glyph-name="percent" unicode="%" horiz-adv-x="934" 
d="M277 260c-102 0 -148 85 -117 220c32 138 119 224 224 224c102 0 148 -84 117 -218c-32 -139 -120 -226 -224 -226zM234 0l512 694h118l-522 -694h-108zM302 353c40 0 76 48 94 126c19 82 5 132 -37 132c-40 0 -76 -47 -94 -125c-19 -82 -5 -133 37 -133zM713 -6
c-102 0 -149 84 -118 220c32 137 119 224 224 224c102 0 148 -85 117 -219c-32 -138 -119 -225 -223 -225zM737 87c40 0 76 47 94 126c19 82 4 131 -37 131s-76 -47 -94 -125c-19 -82 -5 -132 37 -132z" />
    <glyph glyph-name="ampersand" unicode="&#x26;" horiz-adv-x="648" 
d="M540 -10c-25 27 -49 53 -70 78c-72 -52 -145 -79 -216 -79c-126 0 -193 83 -165 205c22 97 89 151 162 189c-17 49 -18 91 -8 134c26 112 117 187 227 187c104 0 160 -66 138 -161c-25 -107 -125 -149 -220 -190c24 -40 60 -87 110 -144c32 35 65 77 99 127l70 -52
c-35 -54 -72 -101 -110 -141c20 -22 43 -46 67 -72zM352 517c-6 -28 -7 -56 2 -87c72 30 133 57 145 110c9 37 -14 64 -56 64c-46 0 -78 -30 -91 -87zM205 201c-15 -65 22 -109 89 -109c38 0 78 14 120 42c-56 67 -97 123 -125 170c-41 -25 -73 -56 -84 -103z" />
    <glyph glyph-name="quotesingle" unicode="'" horiz-adv-x="250" 
d="M172 414l51 285h127l-81 -285h-97z" />
    <glyph glyph-name="parenleft" unicode="(" horiz-adv-x="283" 
d="M132 -192c-60 133 -70 290 -28 470c39 170 125 331 248 471l72 -46c-100 -133 -168 -267 -202 -416c-38 -165 -37 -306 3 -431z" />
    <glyph glyph-name="parenright" unicode=")" horiz-adv-x="282" 
d="M62 -192l-71 48c98 125 166 266 204 431c34 149 28 283 -11 416l94 46c59 -140 68 -301 29 -471c-42 -180 -124 -337 -245 -470z" />
    <glyph glyph-name="asterisk" unicode="*" horiz-adv-x="433" 
d="M228 277l63 160l-143 -102l-25 90l160 62l-130 64l68 89l93 -102l11 161h104l-62 -162l143 98l27 -89l-161 -59l129 -65l-69 -89l-92 101l-13 -157h-103z" />
    <glyph glyph-name="plus" unicode="+" horiz-adv-x="578" 
d="M251 60l49 213h-190l26 113h190l48 206h108l-48 -206h185l-26 -113h-185l-49 -213h-108z" />
    <glyph glyph-name="comma" unicode="," horiz-adv-x="255" 
d="M-4 -176c43 85 81 192 103 286h119c-18 -79 -67 -185 -130 -286h-92z" />
    <glyph glyph-name="hyphen" unicode="-" horiz-adv-x="393" 
d="M109 204l24 104h270l-24 -104h-270z" />
    <glyph glyph-name="period" unicode="." horiz-adv-x="255" 
d="M126 -10c-48 0 -71 37 -60 85c12 51 52 88 100 88c47 0 71 -37 59 -88c-11 -48 -52 -85 -99 -85z" />
    <glyph glyph-name="slash" unicode="/" horiz-adv-x="326" 
d="M-20 -115l394 854h117l-402 -854h-109z" />
    <glyph glyph-name="zero" unicode="0" horiz-adv-x="589" 
d="M291 -10c-153 0 -220 137 -170 353c51 222 183 361 340 361c152 0 218 -136 168 -353c-51 -221 -183 -361 -338 -361zM321 101c78 0 148 93 182 242c36 154 8 250 -72 250c-79 0 -150 -93 -184 -242c-36 -154 -8 -250 74 -250z" />
    <glyph glyph-name="one" unicode="1" horiz-adv-x="438" 
d="M48 0l25 110h127l98 427l-120 -64l-25 90l230 131h72l-135 -584h124l-25 -110h-371z" />
    <glyph glyph-name="two" unicode="2" horiz-adv-x="507" 
d="M42 0l21 89c241 192 353 297 374 390c16 68 -18 112 -90 112c-50 0 -111 -22 -168 -61l-11 93c67 52 148 81 228 81c133 0 200 -80 171 -205c-27 -116 -127 -230 -328 -387h260l-26 -112h-431z" />
    <glyph glyph-name="three" unicode="3" horiz-adv-x="527" 
d="M229 -10c-73 0 -135 17 -192 52l51 102c50 -28 114 -43 173 -43c85 0 141 32 154 87c16 69 -47 112 -162 112h-31l24 102h31c94 0 159 38 174 101c13 55 -24 90 -94 90c-46 0 -105 -16 -168 -44l-4 96c74 39 151 59 222 59c131 0 199 -71 173 -182
c-18 -77 -74 -137 -144 -156c82 -22 123 -89 103 -177c-27 -119 -152 -199 -310 -199z" />
    <glyph glyph-name="four" unicode="4" horiz-adv-x="576" 
d="M323 -7l34 151h-305l16 67l419 483h113l-102 -442l115 -1l-25 -107h-115l-35 -151h-115zM202 252h180l67 290z" />
    <glyph glyph-name="five" unicode="5" horiz-adv-x="524" 
d="M227 -10c-71 0 -132 18 -185 52l57 101c42 -26 100 -41 156 -41c84 0 142 39 158 107c17 74 -33 118 -137 118c-37 0 -90 -6 -136 -15l104 382h373l-26 -112h-258l-43 -156c19 4 39 6 61 6c151 0 220 -78 190 -209c-33 -144 -156 -233 -314 -233z" />
    <glyph glyph-name="six" unicode="6" horiz-adv-x="554" 
d="M284 -10c-153 0 -217 118 -166 339c55 239 195 375 386 375c65 0 120 -16 155 -42l-54 -98c-32 20 -82 33 -127 33c-109 0 -190 -81 -232 -241c54 52 115 79 180 79c113 0 170 -85 141 -212c-32 -139 -146 -233 -283 -233zM363 330c-46 0 -94 -25 -134 -69
c-10 -105 21 -162 91 -162c62 0 110 43 125 110c17 73 -16 121 -82 121z" />
    <glyph glyph-name="seven" unicode="7" horiz-adv-x="495" 
d="M87 0l383 582h-316l26 112h456l-17 -73l-406 -621h-126z" />
    <glyph glyph-name="eight" unicode="8" horiz-adv-x="555" 
d="M274 -10c-142 0 -221 76 -195 189c18 77 76 137 157 166c-48 32 -80 79 -61 162c27 118 134 197 270 197c126 0 198 -69 174 -171c-16 -71 -72 -131 -151 -165c66 -33 119 -80 96 -178c-28 -120 -142 -200 -290 -200zM295 518c-13 -58 31 -85 88 -111
c58 14 103 54 114 103c12 53 -22 89 -85 89c-61 0 -106 -33 -117 -81zM203 200c-14 -62 28 -104 108 -104c72 0 121 33 133 85c16 69 -54 93 -128 124c-59 -15 -101 -54 -113 -105z" />
    <glyph glyph-name="nine" unicode="9" horiz-adv-x="555" 
d="M431 704c153 0 218 -118 167 -339c-55 -239 -195 -375 -386 -375c-65 0 -120 16 -155 42l54 98c32 -20 81 -33 126 -33c109 0 191 81 233 241c-54 -52 -115 -79 -180 -79c-113 0 -170 85 -141 212c32 139 145 233 282 233zM270 485c-17 -73 17 -121 83 -121
c46 0 94 25 134 69c10 105 -21 162 -91 162c-62 0 -111 -43 -126 -110z" />
    <glyph glyph-name="colon" unicode=":" horiz-adv-x="255" 
d="M200 313c-48 0 -71 37 -60 86c12 50 52 87 100 87c47 0 71 -37 59 -87c-11 -49 -52 -86 -99 -86zM126 -10c-48 0 -71 37 -60 85c12 51 52 88 100 88c47 0 71 -37 59 -88c-11 -48 -52 -85 -99 -85z" />
    <glyph glyph-name="semicolon" unicode=";" horiz-adv-x="255" 
d="M195 313c-48 0 -71 37 -60 86c12 50 52 87 100 87c47 0 71 -37 59 -87c-11 -49 -52 -86 -99 -86zM-7 -176c42 85 80 192 102 286h120c-18 -79 -67 -185 -131 -286h-91z" />
    <glyph glyph-name="less" unicode="&#x3c;" horiz-adv-x="543" 
d="M620 618l-29 -129l-324 -132l261 -138l-31 -135l-375 220l24 104z" />
    <glyph glyph-name="equal" unicode="=" horiz-adv-x="637" 
d="M182 388l26 111h452l-26 -111h-452zM127 148l26 111h452l-26 -111h-452z" />
    <glyph glyph-name="greater" unicode="&#x3e;" horiz-adv-x="539" 
d="M84 78l28 123l330 133l-266 146l30 130l377 -225l-23 -99z" />
    <glyph glyph-name="question" unicode="?" horiz-adv-x="401" 
d="M190 232l10 40c27 117 164 157 184 244c11 47 -21 76 -91 76c-44 0 -91 -11 -141 -34l-5 97c65 31 138 49 203 49c126 0 187 -65 163 -171c-33 -144 -176 -179 -195 -261l-10 -40h-118zM198 -10c-46 0 -71 36 -60 85c12 52 54 88 100 88c47 0 71 -36 59 -88
c-11 -49 -52 -85 -99 -85z" />
    <glyph glyph-name="at" unicode="@" horiz-adv-x="911" 
d="M428 43c-99 0 -148 81 -120 202c33 141 147 240 257 240c46 0 77 -17 92 -48l19 36h89l-86 -291c-8 -35 7 -56 32 -56c49 0 97 70 120 168c43 188 -42 313 -221 313c-192 0 -353 -143 -400 -348c-46 -201 45 -335 225 -335c55 0 113 12 163 35l5 -84
c-61 -28 -129 -44 -200 -44c-230 0 -352 165 -293 422c62 267 276 451 530 451c230 0 349 -153 295 -388c-38 -165 -141 -277 -255 -277c-52 0 -89 23 -105 62c-45 -36 -97 -58 -147 -58zM431 257c-17 -73 4 -119 51 -119c28 0 63 18 89 46l41 141c-4 40 -31 66 -65 66
c-51 0 -98 -56 -116 -134z" />
    <glyph glyph-name="A" unicode="A" horiz-adv-x="643" 
d="M15 0l396 694h153l64 -694h-133l-12 174h-248l-93 -174h-127zM297 289h178l-21 294z" />
    <glyph glyph-name="B" unicode="B" horiz-adv-x="605" 
d="M77 0l161 694h213c149 0 217 -58 192 -165c-13 -55 -49 -106 -97 -135c68 -29 96 -92 76 -179c-30 -132 -148 -215 -304 -215h-241zM333 590l-42 -180h151c41 22 64 50 72 86c14 60 -21 94 -96 94h-85zM220 104h138c78 0 121 30 136 94c15 67 -17 111 -87 111h-139z" />
    <glyph glyph-name="C" unicode="C" horiz-adv-x="591" 
d="M362 -10c-194 0 -292 141 -244 351c50 218 222 363 427 363c64 0 124 -15 172 -43l-56 -100c-38 18 -94 29 -146 29c-136 0 -235 -84 -269 -231c-36 -156 29 -256 171 -256c45 0 99 10 145 27l6 -93c-62 -29 -140 -47 -206 -47z" />
    <glyph glyph-name="D" unicode="D" horiz-adv-x="680" 
d="M77 0l161 694h226c210 0 306 -124 258 -333c-51 -221 -223 -361 -431 -361h-214zM222 111h109c135 0 230 84 264 233c35 151 -25 239 -165 239h-99z" />
    <glyph glyph-name="E" unicode="E" horiz-adv-x="559" 
d="M77 0l161 694h435l-26 -113h-316l-39 -169h290l-26 -113h-290l-43 -186h316l-26 -113h-436z" />
    <glyph glyph-name="F" unicode="F" horiz-adv-x="539" 
d="M77 0l161 694h431l-26 -113h-310l-41 -179h279l-26 -113h-279l-67 -289h-122z" />
    <glyph glyph-name="G" unicode="G" horiz-adv-x="672" 
d="M369 -10c-199 0 -298 140 -250 350c50 218 224 364 441 364c73 0 139 -16 188 -45l-57 -101c-45 19 -108 32 -165 32c-144 0 -243 -85 -278 -235c-36 -155 27 -252 163 -252c44 0 87 10 124 30l34 147h-159l25 110h275l-71 -308c-83 -61 -174 -92 -270 -92z" />
    <glyph glyph-name="H" unicode="H" horiz-adv-x="694" 
d="M77 0l161 694h121l-64 -281h295l65 281h122l-160 -694h-122l69 298h-296l-69 -298h-122z" />
    <glyph glyph-name="I" unicode="I" horiz-adv-x="276" 
d="M77 0l161 694h121l-160 -694h-122z" />
    <glyph glyph-name="J" unicode="J" horiz-adv-x="415" 
d="M145 -10c-46 0 -87 11 -121 35l57 100c22 -13 55 -21 82 -21c57 0 96 38 112 108l112 482h120l-109 -472c-34 -148 -127 -232 -253 -232z" />
    <glyph glyph-name="K" unicode="K" horiz-adv-x="609" 
d="M78 0l160 694h122l-74 -322l320 322h146l-327 -323l181 -371h-160l-165 351l-81 -351h-122z" />
    <glyph glyph-name="L" unicode="L" horiz-adv-x="497" 
d="M77 0l161 694h120l-134 -580h278l-27 -114h-398z" />
    <glyph glyph-name="M" unicode="M" horiz-adv-x="822" 
d="M77 0l161 694h118l115 -450l318 450h116l-160 -694h-116l111 480l-259 -373h-93l-87 359l-107 -466h-117z" />
    <glyph glyph-name="N" unicode="N" horiz-adv-x="719" 
d="M77 0l161 694h137l192 -517l121 517h114l-160 -694h-134l-198 518l-119 -518h-114z" />
    <glyph glyph-name="O" unicode="O" 
d="M349 -9c-186 0 -278 140 -229 351c50 217 210 362 402 362c189 0 282 -141 234 -351c-50 -217 -213 -362 -407 -362zM384 103c113 0 212 96 245 239c35 150 -23 249 -142 249c-112 0 -207 -95 -240 -238c-35 -150 20 -250 137 -250z" />
    <glyph glyph-name="P" unicode="P" horiz-adv-x="576" 
d="M77 0l161 694h221c151 0 225 -87 193 -226c-34 -148 -162 -245 -322 -245h-81l-52 -223h-120zM422 581h-91l-56 -246h102c76 0 130 42 147 117c18 77 -23 129 -102 129z" />
    <glyph glyph-name="Q" unicode="Q" horiz-adv-x="721" 
d="M349 -9c-186 0 -278 140 -229 351c50 217 210 362 402 362c189 0 282 -141 234 -351c-22 -95 -66 -176 -124 -237l66 -87l-92 -77l-67 91c-57 -33 -121 -52 -190 -52zM384 103c33 0 65 8 94 22l-93 127l87 77l95 -127c28 38 50 85 63 140c35 153 -20 249 -143 249
c-114 0 -207 -92 -241 -238c-35 -153 18 -250 138 -250z" />
    <glyph glyph-name="R" unicode="R" horiz-adv-x="606" 
d="M77 0l161 694h240c141 0 213 -74 183 -202c-22 -94 -86 -168 -169 -206l96 -286h-144l-78 259h-109l-60 -259h-120zM437 582h-105l-50 -214h121c67 0 113 39 128 104c16 69 -19 110 -94 110z" />
    <glyph glyph-name="S" unicode="S" horiz-adv-x="542" 
d="M255 -10c-74 0 -149 21 -210 55l57 104c57 -29 126 -43 185 -43c80 0 128 31 140 82c33 141 -325 63 -270 300c30 131 154 216 308 216c63 0 127 -15 176 -41l-58 -102c-41 19 -98 30 -152 30c-80 0 -132 -30 -144 -83c-32 -140 327 -53 269 -304
c-30 -130 -143 -214 -301 -214z" />
    <glyph glyph-name="T" unicode="T" horiz-adv-x="563" 
d="M222 0l134 581h-206l26 113h533l-27 -113h-207l-134 -581h-119z" />
    <glyph glyph-name="U" unicode="U" horiz-adv-x="657" 
d="M320 -10c-158 0 -232 104 -194 270l100 434h120l-98 -424c-24 -105 16 -168 113 -168c86 0 150 56 172 150l102 442h118l-99 -427c-39 -167 -170 -277 -334 -277z" />
    <glyph glyph-name="V" unicode="V" horiz-adv-x="610" 
d="M242 0l-71 694h140l35 -541l291 541h123l-393 -694h-125z" />
    <glyph glyph-name="W" unicode="W" horiz-adv-x="948" 
d="M214 0l-40 694h136l9 -533l249 529h132l18 -521l257 525h121l-361 -694h-123l-23 517l-247 -517h-128z" />
    <glyph glyph-name="X" unicode="X" horiz-adv-x="606" 
d="M8 0l311 361l-134 333h142l82 -227l187 227h139l-288 -329l153 -365h-144l-97 261l-212 -261h-139z" />
    <glyph glyph-name="Y" unicode="Y" horiz-adv-x="585" 
d="M236 0l63 274l-140 420h142l89 -308l223 308h133l-327 -422l-63 -272h-120z" />
    <glyph glyph-name="Z" unicode="Z" horiz-adv-x="604" 
d="M32 0l19 83l482 498h-352l26 113h517l-18 -78l-487 -503h379l-26 -113h-540z" />
    <glyph glyph-name="bracketleft" unicode="[" horiz-adv-x="345" 
d="M33 -180l212 919h247l-24 -101h-137l-166 -717h138l-23 -101h-247z" />
    <glyph glyph-name="backslash" unicode="\" horiz-adv-x="335" 
d="M301 -115h-107l-9 854h116v-854z" />
    <glyph glyph-name="bracketright" unicode="]" horiz-adv-x="349" 
d="M230 -180h-246l23 101h138l165 717h-137l23 101h247z" />
    <glyph glyph-name="asciicircum" unicode="^" horiz-adv-x="596" 
d="M175 203l-81 44l314 450h94l115 -440l-125 -54l-79 329z" />
    <glyph glyph-name="underscore" unicode="_" horiz-adv-x="536" 
d="M37 -109l25 109h413l-25 -109h-413z" />
    <glyph glyph-name="grave" unicode="`" horiz-adv-x="253" 
d="M291 546l-105 139l107 77l65 -168z" />
    <glyph glyph-name="a" unicode="a" horiz-adv-x="458" 
d="M173 -10c-89 0 -133 54 -114 138c23 98 115 144 299 147l2 12c12 52 -18 79 -86 79c-39 0 -84 -9 -131 -27l-7 86c57 30 126 47 187 47c125 0 175 -68 146 -194l-64 -278h-81l-5 49c-41 -38 -92 -59 -146 -59zM177 145c-8 -33 15 -55 57 -55c32 0 63 11 88 32l19 82
c-107 -2 -155 -20 -164 -59z" />
    <glyph glyph-name="b" unicode="b" horiz-adv-x="504" 
d="M59 0l170 739h111l-73 -313c36 30 79 46 125 46c110 0 164 -94 131 -236c-34 -147 -137 -246 -256 -246c-50 0 -86 19 -106 55l-29 -45h-73zM330 364c-32 0 -62 -12 -85 -36l-43 -186c13 -28 39 -44 75 -44c62 0 111 49 129 129c19 84 -9 137 -76 137z" />
    <glyph glyph-name="c" unicode="c" horiz-adv-x="402" 
d="M238 -10c-133 0 -191 85 -158 230c35 152 147 252 283 252c43 0 85 -10 117 -29l-46 -99c-27 13 -60 20 -91 20c-74 0 -125 -47 -144 -131c-21 -89 12 -140 89 -140c27 0 61 7 93 21l5 -86c-46 -25 -97 -38 -148 -38z" />
    <glyph glyph-name="d" unicode="d" horiz-adv-x="504" 
d="M212 -10c-108 0 -161 94 -128 237c34 148 135 245 254 245c40 0 72 -13 93 -37l70 304h111l-171 -739h-73l-11 57c-42 -43 -92 -67 -145 -67zM200 235c-19 -83 9 -137 72 -137c34 0 66 14 91 40l42 183c-13 27 -40 43 -76 43c-62 0 -111 -49 -129 -129z" />
    <glyph glyph-name="e" unicode="e" horiz-adv-x="461" 
d="M261 -10c-145 0 -212 91 -178 240c33 144 140 242 267 242c114 0 166 -80 137 -208c-5 -21 -15 -50 -22 -69h-273c-4 -72 34 -108 110 -108c35 0 75 8 112 22l5 -85c-51 -22 -108 -34 -158 -34zM320 374c-51 0 -90 -35 -112 -99h174c14 63 -8 99 -62 99z" />
    <glyph glyph-name="f" unicode="f" horiz-adv-x="306" 
d="M70 -35l91 395h-64l23 102h64l17 72c30 129 117 215 218 215c36 0 66 -11 89 -29l-44 -94c-13 12 -38 17 -59 17c-45 0 -77 -32 -91 -92l-20 -89h120l-24 -102h-120l-88 -384c-27 -115 -112 -193 -213 -193c-36 0 -66 11 -89 29l43 91c13 -10 39 -14 60 -14
c45 0 76 27 87 76z" />
    <glyph glyph-name="g" unicode="g" horiz-adv-x="505" 
d="M212 -10c-108 0 -161 93 -128 237c34 148 136 245 253 245c50 0 86 -18 107 -53l25 43h79l-106 -462c-32 -138 -142 -230 -277 -230c-48 0 -91 13 -131 38l44 95c33 -18 74 -28 109 -28c74 0 125 44 144 127l9 40c-38 -33 -82 -52 -128 -52zM201 235
c-19 -83 8 -137 71 -137c34 0 65 13 90 38l42 183c-13 29 -39 45 -75 45c-62 0 -110 -49 -128 -129z" />
    <glyph glyph-name="h" unicode="h" horiz-adv-x="505" 
d="M59 0l170 739h113l-74 -320c43 34 89 51 134 51c96 0 140 -69 114 -180l-67 -290h-113l61 264c14 62 -5 95 -59 95c-32 0 -62 -12 -93 -37l-74 -322h-112z" />
    <glyph glyph-name="i" unicode="i" horiz-adv-x="242" 
d="M253 576c-43 0 -63 30 -52 78s45 79 88 79s63 -31 52 -79s-45 -78 -88 -78zM63 0l112 486h113l-112 -486h-113z" />
    <glyph glyph-name="j" unicode="j" horiz-adv-x="238" 
d="M252 576c-43 0 -63 30 -52 78s45 79 88 79s63 -31 52 -79s-45 -78 -88 -78zM-33 -230l-16 72c54 35 96 94 110 154l113 490h114l-112 -484c-23 -101 -104 -191 -209 -232z" />
    <glyph glyph-name="k" unicode="k" horiz-adv-x="462" 
d="M59 0l170 739h113l-110 -475l203 222h128l-206 -219l109 -267h-140l-98 249l-57 -249h-112z" />
    <glyph glyph-name="l" unicode="l" horiz-adv-x="256" 
d="M172 -7c-74 0 -107 51 -88 135l141 611h112l-137 -595c-8 -34 1 -54 26 -54c8 0 18 2 28 6l3 -85c-26 -12 -58 -18 -85 -18z" />
    <glyph glyph-name="m" unicode="m" horiz-adv-x="784" 
d="M59 0l106 462h81l8 -50c46 37 99 58 149 58c57 0 97 -27 112 -74c49 47 108 74 166 74c96 0 140 -70 115 -180l-67 -290h-113l61 264c13 56 -2 95 -60 95c-32 0 -64 -12 -95 -34c-1 -12 -2 -25 -5 -39l-66 -286h-113l61 264c12 53 0 95 -60 95c-31 0 -62 -10 -91 -31
l-75 -328h-114z" />
    <glyph glyph-name="n" unicode="n" horiz-adv-x="506" 
d="M59 0l106 462h81l9 -53c47 40 99 61 150 61c95 0 138 -71 112 -185l-66 -285h-114l61 264c14 62 -5 95 -58 95c-32 0 -63 -11 -92 -33l-75 -326h-114z" />
    <glyph glyph-name="o" unicode="o" horiz-adv-x="496" 
d="M238 -10c-128 0 -190 92 -157 233c35 149 148 249 282 249c127 0 189 -92 156 -234c-34 -149 -147 -248 -281 -248zM272 98c62 0 112 49 130 128c19 83 -11 138 -75 138c-62 0 -110 -49 -129 -130c-19 -82 10 -136 74 -136z" />
    <glyph glyph-name="p" unicode="p" horiz-adv-x="504" 
d="M9 -217l156 679h77l8 -54c42 41 92 64 143 64c109 0 163 -96 131 -234c-34 -146 -139 -248 -253 -248c-42 0 -74 15 -94 43l-58 -250h-110zM336 364c-32 0 -65 -14 -92 -38l-41 -178c12 -31 40 -50 77 -50c61 0 108 50 127 131c19 83 -9 135 -71 135z" />
    <glyph glyph-name="q" unicode="q" horiz-adv-x="505" 
d="M213 -10c-109 0 -161 95 -128 238c34 147 135 244 253 244c50 0 86 -18 107 -53l26 43h77l-157 -679h-110l59 259c-37 -33 -81 -52 -127 -52zM201 235c-19 -83 8 -137 72 -137c34 0 64 13 89 38l42 183c-12 28 -38 45 -74 45c-62 0 -111 -49 -129 -129z" />
    <glyph glyph-name="r" unicode="r" horiz-adv-x="355" 
d="M60 0l106 462h90l-6 -72c43 48 96 77 146 77c22 0 44 -6 60 -17l-50 -111c-14 8 -34 13 -54 13c-38 0 -78 -19 -110 -52l-69 -300h-113z" />
    <glyph glyph-name="s" unicode="s" horiz-adv-x="415" 
d="M196 -10c-58 0 -116 14 -160 38l46 92c40 -18 94 -30 135 -30c48 0 79 18 86 47c19 83 -232 18 -193 188c22 94 105 147 227 147c48 0 96 -9 132 -25l-45 -95c-36 12 -76 20 -111 20c-52 0 -86 -17 -92 -44c-18 -77 235 -20 195 -191c-21 -91 -103 -147 -220 -147z" />
    <glyph glyph-name="t" unicode="t" horiz-adv-x="330" 
d="M222 -7c-94 0 -137 58 -116 150l50 217h-58l23 102h58l39 165h112l-38 -165h104l-24 -102h-104l-47 -205c-9 -39 10 -63 49 -63c13 0 29 2 42 8l1 -90c-29 -10 -62 -17 -91 -17z" />
    <glyph glyph-name="u" unicode="u" horiz-adv-x="500" 
d="M271 462l-61 -264c-12 -53 0 -95 56 -95c30 0 60 12 89 33l75 326h113l-107 -462h-81l-7 53c-47 -40 -99 -61 -148 -61c-91 0 -135 69 -110 175l68 295h113z" />
    <glyph glyph-name="v" unicode="v" horiz-adv-x="434" 
d="M163 0l-55 462h120l19 -346l183 346h109l-268 -462h-108z" />
    <glyph glyph-name="w" unicode="w" horiz-adv-x="697" 
d="M155 0l-46 462h120l11 -338l164 336h109l12 -331l169 333h107l-255 -462h-109l-19 326l-161 -326h-102z" />
    <glyph glyph-name="x" unicode="x" horiz-adv-x="424" 
d="M3 0l205 226l-100 236h126l53 -147l123 147h122l-213 -230l97 -232h-125l-52 141l-118 -141h-118z" />
    <glyph glyph-name="y" unicode="y" horiz-adv-x="434" 
d="M38 -217l124 209l-54 470h121l17 -352l184 352h108l-267 -470l-115 -209h-118z" />
    <glyph glyph-name="z" unicode="z" horiz-adv-x="410" 
d="M29 0l17 77l270 280h-205l24 105h345l-18 -77l-270 -280h216l-25 -105h-354z" />
    <glyph glyph-name="braceleft" unicode="{" horiz-adv-x="375" 
d="M310 -178c-152 0 -203 66 -180 167l31 135c15 67 -16 129 -85 156l9 37c69 21 138 76 151 131l27 118c26 114 111 183 261 183l-24 -106c-78 0 -115 -33 -128 -88l-22 -97c-16 -71 -74 -136 -140 -159v-1c60 -15 85 -79 65 -164l-27 -119c-13 -55 11 -87 87 -87z" />
    <glyph glyph-name="bar" unicode="|" horiz-adv-x="299" 
d="M56 -160l208 902h114l-209 -902h-113z" />
    <glyph glyph-name="braceright" unicode="}" horiz-adv-x="373" 
d="M198 749c151 0 202 -66 179 -167l-31 -135c-15 -67 16 -129 85 -156l-8 -37c-68 -21 -139 -76 -152 -131l-27 -118c-26 -114 -111 -183 -260 -183l25 106c77 0 114 33 127 88l23 97c16 71 72 136 139 159l1 1c-60 15 -86 79 -66 164l28 119c13 55 -12 87 -87 87z" />
    <glyph glyph-name="asciitilde" unicode="~" horiz-adv-x="602" 
d="M182 235l-60 33c47 90 123 153 195 153c78 0 89 -74 151 -74c33 0 73 24 99 67l65 -33c-48 -93 -133 -154 -204 -154c-79 0 -96 74 -153 74c-33 0 -70 -27 -93 -66z" />
    <glyph glyph-name="uni00A0" unicode="&#xa0;" horiz-adv-x="171" 
 />
    <glyph glyph-name="exclamdown" unicode="&#xa1;" horiz-adv-x="235" 
d="M227 489c47 0 70 -37 59 -86c-12 -51 -52 -87 -99 -87s-71 36 -59 87c11 49 52 86 99 86zM124 244h92l-92 -459h-119z" />
    <glyph glyph-name="cent" unicode="&#xa2;" horiz-adv-x="483" 
d="M187 -151l34 147c-101 21 -144 106 -114 236s115 223 223 253l35 151h111l-33 -142c34 -4 66 -13 92 -27l-48 -101c-29 14 -66 22 -99 22c-80 0 -136 -50 -157 -142c-22 -97 13 -153 97 -153c31 0 66 8 102 23l6 -88c-33 -17 -68 -28 -105 -34l-33 -145h-111z" />
    <glyph glyph-name="sterling" unicode="&#xa3;" horiz-adv-x="579" 
d="M60 0l27 115c51 16 86 69 103 141l10 49h-67l21 91h67l16 70c32 143 150 238 312 238c47 0 87 -8 122 -25l-54 -106c-32 12 -69 19 -102 19c-86 0 -141 -46 -157 -116l-20 -80h183l-21 -91h-183l-9 -39c-19 -82 -47 -133 -94 -151h338l-27 -115h-465z" />
    <glyph glyph-name="currency" unicode="&#xa4;" horiz-adv-x="632" 
d="M133 55l-45 65l92 78c-13 36 -15 81 -3 132c12 53 35 99 65 136l-61 87l81 69l61 -87c38 21 84 33 130 33c43 0 78 -10 105 -30l96 82l49 -69l-94 -80c11 -35 12 -79 1 -128c-13 -55 -36 -102 -68 -140l62 -85l-80 -69l-61 87c-38 -21 -82 -33 -128 -33
c-45 0 -81 11 -108 31zM372 225c56 0 103 43 118 108c15 67 -14 113 -75 113c-56 0 -102 -42 -117 -106c-16 -69 14 -115 74 -115z" />
    <glyph glyph-name="yen" unicode="&#xa5;" horiz-adv-x="667" 
d="M120 97l21 90h178l21 91h-178l21 90h140l-124 326h142l93 -288l219 288h133l-267 -326h141l-21 -90h-179l-21 -91h179l-21 -90h-178l-23 -97h-120l23 97h-179z" />
    <glyph glyph-name="brokenbar" unicode="&#xa6;" horiz-adv-x="302" 
d="M188 412l76 330h117l-76 -330h-117zM56 -160l79 341h117l-79 -341h-117z" />
    <glyph glyph-name="section" unicode="&#xa7;" horiz-adv-x="505" 
d="M224 -61c-60 0 -121 15 -165 40l49 99c40 -22 96 -36 145 -36c52 0 87 20 95 53c22 97 -246 39 -207 210c12 50 43 90 91 115c-32 22 -52 56 -38 118c24 102 117 166 244 166c49 0 97 -10 137 -30l-48 -98c-37 15 -84 25 -123 25c-47 0 -82 -20 -89 -50
c-20 -87 246 -37 207 -207c-12 -50 -43 -90 -91 -115c32 -23 50 -59 35 -124c-24 -104 -113 -166 -242 -166zM263 328c-9 -40 34 -50 84 -64c27 9 46 28 52 54c9 41 -30 54 -78 68c-28 -10 -52 -32 -58 -58z" />
    <glyph glyph-name="dieresis" unicode="&#xa8;" horiz-adv-x="465" 
d="M256 576c-45 0 -66 30 -55 78s47 79 92 79c44 0 65 -31 54 -79s-47 -78 -91 -78zM466 576c-45 0 -66 30 -55 78s46 79 91 79s66 -31 55 -79s-46 -78 -91 -78z" />
    <glyph glyph-name="copyright" unicode="&#xa9;" horiz-adv-x="784" 
d="M387 -7c-200 0 -301 140 -253 349c50 217 219 362 424 362c201 0 302 -141 253 -352c-50 -215 -219 -359 -424 -359zM413 70c156 0 286 109 324 272c39 171 -43 285 -204 285c-157 0 -288 -110 -326 -275c-39 -169 44 -282 206 -282zM434 134c-121 0 -182 84 -153 210
c30 132 137 219 267 219c39 0 75 -8 104 -23l-54 -100c-21 11 -50 17 -76 17c-61 0 -107 -39 -122 -103c-16 -70 18 -115 85 -115c21 0 49 5 70 13l4 -93c-36 -15 -84 -25 -125 -25z" />
    <glyph glyph-name="ordfeminine" unicode="&#xaa;" horiz-adv-x="383" 
d="M237 371c-72 0 -108 42 -93 108c18 77 92 113 238 115l2 10c10 44 -14 66 -67 66c-29 0 -66 -6 -106 -22l-6 67c45 22 101 35 149 35c100 0 140 -55 117 -154l-51 -218h-64l-4 37c-33 -29 -72 -44 -115 -44zM237 492c-6 -28 14 -46 47 -46c24 0 49 10 70 27l16 68
c-87 -2 -125 -16 -133 -49z" />
    <glyph glyph-name="guillemotleft" unicode="&#xab;" horiz-adv-x="518" 
d="M161 28l-81 214l183 211h112l-174 -208l81 -217h-121zM383 28l-83 214l184 211h112l-174 -208l81 -217h-120z" />
    <glyph glyph-name="logicalnot" unicode="&#xac;" horiz-adv-x="621" 
d="M130 306l23 101h470l-24 -101l-36 -159h-117l37 159h-353z" />
    <glyph glyph-name="uni00AD" unicode="&#xad;" horiz-adv-x="393" 
d="M104 204l24 104h270l-24 -104h-270z" />
    <glyph glyph-name="registered" unicode="&#xae;" horiz-adv-x="580" 
d="M351 272c-135 0 -206 96 -173 238c33 145 151 246 289 246c135 0 205 -98 172 -241c-33 -144 -150 -243 -288 -243zM370 331c102 0 188 72 213 179c26 111 -29 187 -134 187c-102 0 -190 -74 -215 -181c-25 -109 31 -185 136 -185zM284 380l65 278h101
c59 0 89 -34 77 -88c-8 -33 -28 -61 -56 -78l33 -112h-76l-23 93h-32l-22 -93h-67zM431 595h-30l-14 -61h33c20 0 33 12 37 30c4 19 -6 31 -26 31z" />
    <glyph glyph-name="macron" unicode="&#xaf;" horiz-adv-x="443" 
d="M200 591l24 102h313l-23 -102h-314z" />
    <glyph glyph-name="degree" unicode="&#xb0;" horiz-adv-x="421" 
d="M303 408c-84 0 -127 60 -106 150c21 92 94 154 180 154c84 0 125 -60 104 -151c-21 -92 -92 -153 -178 -153zM327 496c36 0 64 25 73 62c9 40 -9 67 -47 67c-36 0 -65 -25 -74 -64s10 -65 48 -65z" />
    <glyph glyph-name="plusminus" unicode="&#xb1;" horiz-adv-x="568" 
d="M273 174l41 178h-174l25 106h174l42 181h98l-42 -181h177l-24 -106h-177l-41 -178h-99zM68 37l23 99h449l-23 -99h-449z" />
    <glyph glyph-name="uni00B2" unicode="&#xb2;" horiz-adv-x="397" 
d="M122 370l19 80c159 107 247 180 260 238c9 41 -20 65 -66 65c-36 0 -79 -14 -122 -40l-8 83c52 37 113 57 174 57c103 0 155 -58 135 -146c-18 -77 -86 -154 -213 -239h173l-23 -98h-329z" />
    <glyph glyph-name="uni00B3" unicode="&#xb3;" horiz-adv-x="407" 
d="M257 363c-51 0 -96 10 -141 35l44 88c38 -17 85 -26 128 -26c56 0 93 16 100 45c9 38 -45 62 -140 62l20 86c81 0 132 22 140 56c7 29 -20 46 -66 46c-35 0 -76 -10 -122 -28l-4 84c56 27 115 42 170 42c101 0 153 -49 135 -128c-12 -52 -51 -91 -101 -104
c59 -14 89 -60 76 -118c-19 -84 -114 -140 -239 -140z" />
    <glyph glyph-name="acute" unicode="&#xb4;" horiz-adv-x="252" 
d="M213 546l-45 48l142 168l72 -77z" />
    <glyph glyph-name="uni00B5" unicode="&#xb5;" horiz-adv-x="559" 
d="M38 -217l157 679h110l-68 -294c6 -41 34 -65 75 -65c30 0 58 12 88 39l74 320h113l-107 -462h-90l-1 43c-38 -35 -78 -51 -113 -51c-31 0 -56 12 -71 37l-57 -246h-110z" />
    <glyph glyph-name="paragraph" unicode="&#xb6;" horiz-adv-x="687" 
d="M207 -174l94 407c-122 0 -181 98 -149 236s143 225 279 225h323l-200 -868h-113l176 763h-123l-176 -763h-111z" />
    <glyph glyph-name="periodcentered" unicode="&#xb7;" horiz-adv-x="256" 
d="M170 180c-48 0 -72 36 -61 85c12 51 53 88 101 88c47 0 70 -37 58 -88c-11 -49 -51 -85 -98 -85z" />
    <glyph glyph-name="cedilla" unicode="&#xb8;" horiz-adv-x="299" 
d="M73 -257c-37 0 -71 8 -94 23l32 71c19 -10 49 -16 73 -16c31 0 50 11 54 30c6 28 -22 46 -83 50l45 111h81l-26 -63c67 -11 93 -43 81 -97c-16 -68 -77 -109 -163 -109z" />
    <glyph glyph-name="uni00B9" unicode="&#xb9;" horiz-adv-x="334" 
d="M127 370l22 97h93l57 244l-85 -40l-20 81l178 94h63l-88 -379h84l-22 -97h-282z" />
    <glyph glyph-name="ordmasculine" unicode="&#xba;" horiz-adv-x="411" 
d="M287 371c-102 0 -152 72 -126 183c27 117 116 196 223 196c101 0 151 -72 125 -184c-27 -117 -117 -195 -222 -195zM312 449c50 0 92 42 107 107c16 69 -8 115 -61 115c-50 0 -92 -43 -107 -109c-16 -68 8 -113 61 -113z" />
    <glyph glyph-name="guillemotright" unicode="&#xbb;" horiz-adv-x="510" 
d="M248 28l173 210l-83 215h120l85 -211l-184 -214h-111zM36 28l174 210l-84 215h120l86 -211l-185 -214h-111z" />
    <glyph glyph-name="onequarter" unicode="&#xbc;" horiz-adv-x="1070" 
d="M101 260l23 97h93l56 244l-84 -40l-21 81l178 94h63l-87 -379h84l-23 -97h-282zM290 0l433 694h116l-444 -694h-105zM867 -3l20 90h-222l14 60l301 329h99l-67 -293h84l-22 -96h-84l-21 -90h-102zM798 184l111 -1l39 168z" />
    <glyph glyph-name="onehalf" unicode="&#xbd;" horiz-adv-x="1030" 
d="M101 260l23 97h93l56 244l-84 -40l-21 81l178 94h63l-87 -379h84l-23 -97h-282zM290 0l433 694h116l-444 -694h-105zM669 0l19 80c159 107 246 180 259 238c9 41 -19 65 -66 65c-36 0 -78 -14 -121 -40l-8 83c51 37 112 57 173 57c103 0 156 -58 136 -146
c-18 -77 -87 -154 -214 -239h173l-23 -98h-328z" />
    <glyph glyph-name="threequarters" unicode="&#xbe;" horiz-adv-x="1143" 
d="M232 253c-51 0 -97 10 -142 35l45 88c38 -17 85 -26 128 -26c56 0 92 16 99 45c9 38 -44 62 -139 62l20 86c81 0 131 22 139 56c7 29 -19 46 -65 46c-35 0 -76 -10 -122 -28l-4 84c56 27 115 42 170 42c101 0 153 -49 135 -128c-12 -52 -51 -91 -101 -104
c59 -14 89 -60 76 -118c-19 -84 -114 -140 -239 -140zM363 0l433 694h115l-443 -694h-105zM939 -3l21 90h-222l14 60l300 329h100l-68 -293h85l-22 -96h-85l-21 -90h-102zM871 184l111 -1l39 168z" />
    <glyph glyph-name="questiondown" unicode="&#xbf;" horiz-adv-x="391" 
d="M317 489c46 0 72 -36 61 -85c-12 -52 -54 -88 -101 -88s-71 36 -59 88c11 49 53 85 99 85zM325 247l-10 -40c-27 -117 -164 -157 -184 -244c-11 -47 22 -76 91 -76c44 0 91 11 141 34l5 -97c-65 -31 -138 -49 -203 -49c-126 0 -186 65 -162 171c33 144 176 179 195 261
l9 40h118z" />
    <glyph glyph-name="Agrave" unicode="&#xc0;" horiz-adv-x="643" 
d="M507 739l-148 112l93 100l118 -144zM15 0l396 694h153l64 -694h-133l-12 174h-248l-93 -174h-127zM297 289h178l-21 294z" />
    <glyph glyph-name="Aacute" unicode="&#xc1;" horiz-adv-x="643" 
d="M477 739l-31 68l185 144l46 -100zM15 0l396 694h153l64 -694h-133l-12 174h-248l-93 -174h-127zM297 289h178l-21 294z" />
    <glyph glyph-name="Acircumflex" unicode="&#xc2;" horiz-adv-x="643" 
d="M354 788l163 155h59l98 -132l-81 -67l-78 91l-123 -91zM15 0l396 694h153l64 -694h-133l-12 174h-248l-93 -174h-127zM297 289h178l-21 294z" />
    <glyph glyph-name="Atilde" unicode="&#xc3;" horiz-adv-x="643" 
d="M399 755l-71 20c35 83 92 131 147 131c53 0 70 -47 103 -47c20 0 42 17 59 49l70 -21c-31 -80 -90 -127 -151 -127c-58 0 -68 45 -101 45c-19 0 -40 -18 -56 -50zM15 0l396 694h153l64 -694h-133l-12 174h-248l-93 -174h-127zM297 289h178l-21 294z" />
    <glyph glyph-name="Adieresis" unicode="&#xc4;" horiz-adv-x="643" 
d="M389 762c-45 0 -67 30 -56 78s47 79 92 79s65 -31 54 -79s-45 -78 -90 -78zM598 762c-44 0 -66 30 -55 78s47 79 91 79c45 0 66 -31 55 -79s-46 -78 -91 -78zM15 0l396 694h153l64 -694h-133l-12 174h-248l-93 -174h-127zM297 289h178l-21 294z" />
    <glyph glyph-name="Aring" unicode="&#xc5;" horiz-adv-x="643" 
d="M491 740c-64 0 -96 47 -80 117c16 71 70 118 137 118c64 0 98 -46 82 -115c-17 -72 -72 -120 -139 -120zM511 813c24 0 44 18 50 44c6 27 -6 45 -32 45c-23 0 -44 -17 -50 -42c-6 -28 7 -47 32 -47zM15 0l396 694h153l64 -694h-133l-12 174h-248l-93 -174h-127zM297 289
h178l-21 294z" />
    <glyph glyph-name="AE" unicode="&#xc6;" horiz-adv-x="929" 
d="M14 0l550 694h478l-27 -113h-315l-39 -168h291l-27 -113h-290l-43 -187h315l-26 -113h-435l41 175h-207l-134 -175h-132zM372 294h142l61 265z" />
    <glyph glyph-name="Ccedilla" unicode="&#xc7;" horiz-adv-x="591" 
d="M272 -257c-37 0 -71 8 -94 23l32 71c18 -10 48 -16 71 -16c31 0 51 11 55 30c6 28 -23 46 -83 50l39 96c-147 30 -216 161 -174 344c50 218 222 363 427 363c64 0 124 -15 172 -43l-56 -100c-38 18 -94 29 -146 29c-136 0 -235 -84 -269 -231c-36 -156 29 -256 171 -256
c45 0 99 10 145 27l6 -93c-59 -28 -133 -46 -197 -47l-17 -41c67 -11 93 -43 81 -97c-16 -68 -77 -109 -163 -109z" />
    <glyph glyph-name="Egrave" unicode="&#xc8;" horiz-adv-x="559" 
d="M484 739l-148 112l92 100l118 -144zM77 0l161 694h435l-26 -113h-316l-39 -169h290l-26 -113h-290l-43 -186h316l-26 -113h-436z" />
    <glyph glyph-name="Eacute" unicode="&#xc9;" horiz-adv-x="559" 
d="M454 739l-31 68l185 144l46 -100zM77 0l161 694h435l-26 -113h-316l-39 -169h290l-26 -113h-290l-43 -186h316l-26 -113h-436z" />
    <glyph glyph-name="Ecircumflex" unicode="&#xca;" horiz-adv-x="559" 
d="M330 788l164 155h60l97 -132l-81 -67l-79 91l-122 -91zM77 0l161 694h435l-26 -113h-316l-39 -169h290l-26 -113h-290l-43 -186h316l-26 -113h-436z" />
    <glyph glyph-name="Edieresis" unicode="&#xcb;" horiz-adv-x="559" 
d="M365 762c-44 0 -66 30 -55 78s47 79 91 79c45 0 66 -31 55 -79s-46 -78 -91 -78zM575 762c-45 0 -65 30 -54 78s45 79 90 79s66 -31 55 -79s-46 -78 -91 -78zM77 0l161 694h435l-26 -113h-316l-39 -169h290l-26 -113h-290l-43 -186h316l-26 -113h-436z" />
    <glyph glyph-name="Igrave" unicode="&#xcc;" horiz-adv-x="278" 
d="M326 739l-148 112l92 100l119 -144zM79 0l161 694h122l-161 -694h-122z" />
    <glyph glyph-name="Iacute" unicode="&#xcd;" horiz-adv-x="278" 
d="M294 739l-31 68l185 144l46 -100zM77 0l161 694h121l-160 -694h-122z" />
    <glyph glyph-name="Icircumflex" unicode="&#xce;" horiz-adv-x="280" 
d="M172 788l163 155h61l96 -132l-80 -67l-79 91l-122 -91zM79 0l160 694h122l-160 -694h-122z" />
    <glyph glyph-name="Idieresis" unicode="&#xcf;" horiz-adv-x="281" 
d="M208 762c-44 0 -66 30 -55 78s47 79 91 79c45 0 66 -31 55 -79s-46 -78 -91 -78zM418 762c-45 0 -67 30 -56 78s47 79 92 79s65 -31 54 -79s-45 -78 -90 -78zM80 0l160 694h122l-160 -694h-122z" />
    <glyph glyph-name="Eth" unicode="&#xd0;" horiz-adv-x="681" 
d="M79 0l69 299h-79l21 93h80l69 302h227c210 0 306 -124 258 -333c-51 -221 -223 -361 -431 -361h-214zM224 111h109c135 0 229 84 263 233c35 151 -25 239 -165 239h-98l-44 -191h124l-21 -93h-125z" />
    <glyph glyph-name="Ntilde" unicode="&#xd1;" horiz-adv-x="719" 
d="M436 755l-70 20c35 83 92 131 147 131c52 0 70 -47 103 -47c20 0 42 17 59 49l68 -21c-30 -80 -89 -127 -150 -127c-58 0 -67 45 -100 45c-19 0 -40 -18 -57 -50zM77 0l161 694h137l192 -517l121 517h114l-160 -694h-134l-198 518l-119 -518h-114z" />
    <glyph glyph-name="Ograve" unicode="&#xd2;" 
d="M543 739l-148 112l92 100l119 -144zM349 -9c-186 0 -278 140 -229 351c50 217 210 362 402 362c189 0 282 -141 234 -351c-50 -217 -213 -362 -407 -362zM384 103c113 0 212 96 245 239c35 150 -23 249 -142 249c-112 0 -207 -95 -240 -238c-35 -150 20 -250 137 -250z
" />
    <glyph glyph-name="Oacute" unicode="&#xd3;" 
d="M513 739l-31 68l185 144l46 -100zM349 -9c-186 0 -278 140 -229 351c50 217 210 362 402 362c189 0 282 -141 234 -351c-50 -217 -213 -362 -407 -362zM384 103c113 0 212 96 245 239c35 150 -23 249 -142 249c-112 0 -207 -95 -240 -238c-35 -150 20 -250 137 -250z" />
    <glyph glyph-name="Ocircumflex" unicode="&#xd4;" 
d="M389 788l164 155h60l97 -132l-82 -67l-77 91l-123 -91zM349 -9c-186 0 -278 140 -229 351c50 217 210 362 402 362c189 0 282 -141 234 -351c-50 -217 -213 -362 -407 -362zM384 103c113 0 212 96 245 239c35 150 -23 249 -142 249c-112 0 -207 -95 -240 -238
c-35 -150 20 -250 137 -250z" />
    <glyph glyph-name="Otilde" unicode="&#xd5;" 
d="M435 755l-70 20c34 83 92 131 146 131c53 0 70 -47 103 -47c20 0 42 17 59 49l69 -21c-31 -80 -89 -127 -151 -127c-58 0 -66 45 -99 45c-20 0 -41 -18 -57 -50zM349 -9c-186 0 -278 140 -229 351c50 217 210 362 402 362c189 0 282 -141 234 -351
c-50 -217 -213 -362 -407 -362zM384 103c113 0 212 96 245 239c35 150 -23 249 -142 249c-112 0 -207 -95 -240 -238c-35 -150 20 -250 137 -250z" />
    <glyph glyph-name="Odieresis" unicode="&#xd6;" 
d="M424 762c-45 0 -65 30 -54 78s46 79 91 79s66 -31 55 -79s-47 -78 -92 -78zM634 762c-45 0 -66 30 -55 78s47 79 92 79c44 0 65 -31 54 -79s-47 -78 -91 -78zM349 -9c-186 0 -278 140 -229 351c50 217 210 362 402 362c189 0 282 -141 234 -351
c-50 -217 -213 -362 -407 -362zM384 103c113 0 212 96 245 239c35 150 -23 249 -142 249c-112 0 -207 -95 -240 -238c-35 -150 20 -250 137 -250z" />
    <glyph glyph-name="multiply" unicode="&#xd7;" horiz-adv-x="534" 
d="M132 66l-56 80l189 165l-104 157l95 82l104 -156l177 155l58 -82l-180 -156l110 -165l-96 -82l-109 165z" />
    <glyph glyph-name="Oslash" unicode="&#xd8;" 
d="M154 -50l-59 49l61 74c-48 62 -62 155 -36 269c50 217 210 362 402 362c54 0 100 -12 137 -33l64 76l62 -49l-66 -79c48 -61 63 -153 37 -266c-50 -217 -213 -362 -407 -362c-52 0 -97 11 -133 32zM247 353c-15 -67 -14 -124 4 -167l322 382c-24 15 -53 23 -86 23
c-112 0 -207 -95 -240 -238zM384 103c113 0 212 96 245 239c15 66 13 122 -5 164l-322 -381c22 -14 50 -22 82 -22z" />
    <glyph glyph-name="Ugrave" unicode="&#xd9;" horiz-adv-x="657" 
d="M514 739l-148 112l93 100l117 -144zM320 -10c-158 0 -232 104 -194 270l100 434h120l-98 -424c-24 -105 16 -168 113 -168c86 0 150 56 172 150l102 442h118l-99 -427c-39 -167 -170 -277 -334 -277z" />
    <glyph glyph-name="Uacute" unicode="&#xda;" horiz-adv-x="657" 
d="M484 739l-30 68l184 144l46 -100zM320 -10c-158 0 -232 104 -194 270l100 434h120l-98 -424c-24 -105 16 -168 113 -168c86 0 150 56 172 150l102 442h118l-99 -427c-39 -167 -170 -277 -334 -277z" />
    <glyph glyph-name="Ucircumflex" unicode="&#xdb;" horiz-adv-x="657" 
d="M361 788l163 155h60l97 -132l-81 -67l-79 91l-122 -91zM320 -10c-158 0 -232 104 -194 270l100 434h120l-98 -424c-24 -105 16 -168 113 -168c86 0 150 56 172 150l102 442h118l-99 -427c-39 -167 -170 -277 -334 -277z" />
    <glyph glyph-name="Udieresis" unicode="&#xdc;" horiz-adv-x="657" 
d="M396 762c-45 0 -67 30 -56 78s47 79 92 79c44 0 65 -31 54 -79s-46 -78 -90 -78zM605 762c-45 0 -65 30 -54 78s45 79 90 79s67 -31 56 -79s-47 -78 -92 -78zM320 -10c-158 0 -232 104 -194 270l100 434h120l-98 -424c-24 -105 16 -168 113 -168c86 0 150 56 172 150
l102 442h118l-99 -427c-39 -167 -170 -277 -334 -277z" />
    <glyph glyph-name="Yacute" unicode="&#xdd;" horiz-adv-x="585" 
d="M451 739l-32 68l185 144l46 -100zM236 0l63 274l-140 420h142l89 -308l223 308h133l-327 -422l-63 -272h-120z" />
    <glyph glyph-name="Thorn" unicode="&#xde;" horiz-adv-x="576" 
d="M77 0l161 694h120l-22 -95h101c146 0 223 -94 191 -234c-33 -143 -157 -238 -311 -238h-90l-30 -127h-120zM403 486h-93l-57 -246h102c78 0 130 40 147 115c18 80 -20 131 -99 131z" />
    <glyph glyph-name="germandbls" unicode="&#xdf;" horiz-adv-x="558" 
d="M339 -10c-44 0 -84 12 -119 35l48 99c29 -19 63 -28 94 -28c45 0 82 24 90 57c18 80 -139 86 -109 217c23 98 116 115 133 188c11 47 -19 83 -71 83s-89 -37 -104 -102l-125 -539h-114l124 535c30 128 129 214 251 214c114 0 181 -75 157 -177
c-24 -105 -118 -123 -131 -181c-18 -78 140 -78 106 -227c-24 -103 -117 -174 -230 -174z" />
    <glyph glyph-name="agrave" unicode="&#xe0;" horiz-adv-x="458" 
d="M329 526l-93 152l103 84l53 -183zM173 -10c-89 0 -133 54 -114 138c23 98 115 144 299 147l2 12c12 52 -18 79 -86 79c-39 0 -84 -9 -131 -27l-7 86c57 30 126 47 187 47c125 0 175 -68 146 -194l-64 -278h-81l-5 49c-41 -38 -92 -59 -146 -59zM177 145
c-8 -33 15 -55 57 -55c32 0 63 11 88 32l19 82c-107 -2 -155 -20 -164 -59z" />
    <glyph glyph-name="aacute" unicode="&#xe1;" horiz-adv-x="458" 
d="M348 526l-39 53l137 183l65 -84zM173 -10c-89 0 -133 54 -114 138c23 98 115 144 299 147l2 12c12 52 -18 79 -86 79c-39 0 -84 -9 -131 -27l-7 86c57 30 126 47 187 47c125 0 175 -68 146 -194l-64 -278h-81l-5 49c-41 -38 -92 -59 -146 -59zM177 145
c-8 -33 15 -55 57 -55c32 0 63 11 88 32l19 82c-107 -2 -155 -20 -164 -59z" />
    <glyph glyph-name="acircumflex" unicode="&#xe2;" horiz-adv-x="458" 
d="M209 576l158 169h55l88 -145l-80 -73l-69 99l-117 -98zM173 -10c-89 0 -133 54 -114 138c23 98 115 144 299 147l2 12c12 52 -18 79 -86 79c-39 0 -84 -9 -131 -27l-7 86c57 30 126 47 187 47c125 0 175 -68 146 -194l-64 -278h-81l-5 49c-41 -38 -92 -59 -146 -59z
M177 145c-8 -33 15 -55 57 -55c32 0 63 11 88 32l19 82c-107 -2 -155 -20 -164 -59z" />
    <glyph glyph-name="atilde" unicode="&#xe3;" horiz-adv-x="458" 
d="M258 559l-66 21c33 83 88 131 139 131c49 0 64 -47 95 -47c19 0 40 18 56 50l66 -22c-30 -80 -85 -127 -142 -127c-55 0 -63 45 -93 45c-18 0 -40 -18 -55 -51zM173 -10c-89 0 -133 54 -114 138c23 98 115 144 299 147l2 12c12 52 -18 79 -86 79c-39 0 -84 -9 -131 -27
l-7 86c57 30 126 47 187 47c125 0 175 -68 146 -194l-64 -278h-81l-5 49c-41 -38 -92 -59 -146 -59zM177 145c-8 -33 15 -55 57 -55c32 0 63 11 88 32l19 82c-107 -2 -155 -20 -164 -59z" />
    <glyph glyph-name="adieresis" unicode="&#xe4;" horiz-adv-x="461" 
d="M256 576c-43 0 -63 30 -52 78s45 79 88 79s62 -31 51 -79s-44 -78 -87 -78zM454 576c-42 0 -63 30 -52 78s46 79 88 79c43 0 63 -31 52 -79s-45 -78 -88 -78zM175 -10c-90 0 -135 54 -116 138c23 98 115 144 302 147l3 12c12 52 -19 79 -88 79c-40 0 -85 -9 -133 -27
l-7 86c57 30 127 47 189 47c126 0 177 -68 148 -194l-64 -278h-81l-5 49c-41 -38 -93 -59 -148 -59zM177 145c-8 -33 16 -55 59 -55c32 0 64 11 90 32l19 82c-110 -2 -159 -20 -168 -59z" />
    <glyph glyph-name="aring" unicode="&#xe5;" horiz-adv-x="460" 
d="M345 536c-61 0 -90 49 -73 124s70 125 133 125c61 0 90 -49 73 -121c-18 -77 -71 -128 -133 -128zM364 608c21 0 42 20 49 52s-4 53 -27 53c-22 0 -41 -20 -48 -49c-8 -34 2 -56 26 -56zM175 -10c-90 0 -135 54 -116 138c23 98 116 144 302 147l2 12c12 52 -18 79 -87 79
c-40 0 -85 -9 -133 -27l-7 86c57 30 127 47 189 47c126 0 176 -68 147 -194l-64 -278h-81l-5 49c-41 -38 -92 -59 -147 -59zM177 145c-8 -33 16 -55 59 -55c32 0 63 11 89 32l19 82c-109 -2 -158 -20 -167 -59z" />
    <glyph glyph-name="ae" unicode="&#xe6;" horiz-adv-x="713" 
d="M169 -10c-86 0 -131 51 -113 127c23 99 132 155 301 159l1 7c12 53 -17 82 -80 82c-41 0 -88 -13 -140 -36l-5 84c65 39 132 59 194 59s102 -21 118 -64c43 41 97 64 156 64c112 0 165 -81 135 -209c-5 -22 -14 -53 -20 -67h-275c-2 -70 37 -108 112 -108
c34 0 70 8 111 22l6 -86c-57 -23 -108 -34 -158 -34c-85 0 -140 32 -162 93c-52 -60 -115 -93 -181 -93zM569 372c-51 0 -91 -33 -112 -96h172c14 61 -8 96 -60 96zM176 140c-7 -31 14 -50 56 -50c38 0 75 16 105 44c-2 20 -1 41 4 65c-107 -2 -156 -19 -165 -59z" />
    <glyph glyph-name="ccedilla" unicode="&#xe7;" horiz-adv-x="406" 
d="M240 -10h-1l-16 -41c63 -11 88 -43 76 -97c-16 -68 -74 -109 -154 -109c-36 0 -68 8 -89 23l31 71c18 -10 45 -16 67 -16c28 0 47 11 51 30c6 28 -20 46 -76 50l39 100c-82 28 -115 105 -88 220c35 152 148 251 285 251c44 0 87 -10 119 -29l-46 -99
c-27 13 -62 20 -93 20c-76 0 -127 -47 -146 -131c-21 -89 13 -140 91 -140c28 0 62 7 95 21l5 -86c-46 -25 -98 -38 -150 -38z" />
    <glyph glyph-name="egrave" unicode="&#xe8;" horiz-adv-x="461" 
d="M344 526l-93 152l103 84l52 -183zM261 -10c-145 0 -212 91 -178 240c33 144 140 242 267 242c114 0 166 -80 137 -208c-5 -21 -15 -50 -22 -69h-273c-4 -72 34 -108 110 -108c35 0 75 8 112 22l5 -85c-51 -22 -108 -34 -158 -34zM320 374c-51 0 -90 -35 -112 -99h174
c14 63 -8 99 -62 99z" />
    <glyph glyph-name="eacute" unicode="&#xe9;" horiz-adv-x="461" 
d="M362 526l-39 53l137 183l64 -84zM261 -10c-145 0 -212 91 -178 240c33 144 140 242 267 242c114 0 166 -80 137 -208c-5 -21 -15 -50 -22 -69h-273c-4 -72 34 -108 110 -108c35 0 75 8 112 22l5 -85c-51 -22 -108 -34 -158 -34zM320 374c-51 0 -90 -35 -112 -99h174
c14 63 -8 99 -62 99z" />
    <glyph glyph-name="ecircumflex" unicode="&#xea;" horiz-adv-x="461" 
d="M224 576l158 169h55l86 -145l-79 -73l-69 99l-116 -98zM261 -10c-145 0 -212 91 -178 240c33 144 140 242 267 242c114 0 166 -80 137 -208c-5 -21 -15 -50 -22 -69h-273c-4 -72 34 -108 110 -108c35 0 75 8 112 22l5 -85c-51 -22 -108 -34 -158 -34zM320 374
c-51 0 -90 -35 -112 -99h174c14 63 -8 99 -62 99z" />
    <glyph glyph-name="edieresis" unicode="&#xeb;" horiz-adv-x="466" 
d="M271 576c-43 0 -63 30 -52 78s45 79 88 79c42 0 62 -31 51 -79s-45 -78 -87 -78zM469 576c-43 0 -63 30 -52 78s45 79 88 79s63 -31 52 -79s-45 -78 -88 -78zM264 -10c-147 0 -215 91 -181 240c33 144 141 242 269 242c115 0 168 -80 139 -208c-5 -21 -14 -50 -21 -69
h-278c-3 -72 35 -108 113 -108c36 0 75 8 113 22l5 -85c-51 -22 -109 -34 -159 -34zM322 374c-53 0 -92 -35 -114 -99h179c14 63 -10 99 -65 99z" />
    <glyph glyph-name="igrave" unicode="&#xec;" horiz-adv-x="238" 
d="M232 546l-95 139l99 77l59 -168zM61 0l113 486h113l-113 -486h-113z" />
    <glyph glyph-name="iacute" unicode="&#xed;" horiz-adv-x="238" 
d="M252 546l-42 48l138 168l63 -77zM62 0l113 486h112l-112 -486h-113z" />
    <glyph glyph-name="icircumflex" unicode="&#xee;" horiz-adv-x="231" 
d="M111 591l153 154h58l88 -132l-75 -67l-73 91l-116 -90zM61 0l112 486h114l-113 -486h-113z" />
    <glyph glyph-name="idieresis" unicode="&#xef;" horiz-adv-x="237" 
d="M152 576c-42 0 -62 30 -51 78s46 79 88 79c43 0 63 -31 52 -79s-46 -78 -89 -78zM353 576c-43 0 -63 30 -52 78s46 79 89 79s62 -31 51 -79s-45 -78 -88 -78zM63 0l112 486h113l-112 -486h-113z" />
    <glyph glyph-name="eth" unicode="&#xf0;" horiz-adv-x="493" 
d="M233 -9c-122 0 -183 90 -152 224c32 139 130 233 244 233c44 0 79 -15 104 -40c-4 56 -27 109 -67 158l-101 -59l-19 67l72 40c-18 15 -39 29 -61 42l52 93c43 -21 81 -47 111 -76l107 61l19 -66l-81 -46c66 -89 83 -205 51 -343c-42 -181 -144 -288 -279 -288zM267 97
c56 0 103 46 119 117c18 77 -10 128 -72 128c-56 0 -98 -42 -115 -115c-18 -80 9 -130 68 -130z" />
    <glyph glyph-name="ntilde" unicode="&#xf1;" horiz-adv-x="506" 
d="M292 559l-66 21c34 83 87 131 138 131c49 0 66 -47 96 -47c20 0 40 18 56 50l65 -22c-29 -80 -85 -127 -142 -127c-54 0 -62 45 -93 45c-17 0 -38 -18 -54 -51zM59 0l106 462h81l9 -53c47 40 99 61 150 61c95 0 138 -71 112 -185l-66 -285h-114l61 264
c14 62 -5 95 -58 95c-32 0 -63 -11 -92 -33l-75 -326h-114z" />
    <glyph glyph-name="ograve" unicode="&#xf2;" horiz-adv-x="496" 
d="M355 526l-92 152l102 84l53 -183zM238 -10c-128 0 -190 92 -157 233c35 149 148 249 282 249c127 0 189 -92 156 -234c-34 -149 -147 -248 -281 -248zM272 98c62 0 112 49 130 128c19 83 -11 138 -75 138c-62 0 -110 -49 -129 -130c-19 -82 10 -136 74 -136z" />
    <glyph glyph-name="oacute" unicode="&#xf3;" horiz-adv-x="496" 
d="M374 526l-39 53l137 183l63 -84zM238 -10c-128 0 -190 92 -157 233c35 149 148 249 282 249c127 0 189 -92 156 -234c-34 -149 -147 -248 -281 -248zM272 98c62 0 112 49 130 128c19 83 -11 138 -75 138c-62 0 -110 -49 -129 -130c-19 -82 10 -136 74 -136z" />
    <glyph glyph-name="ocircumflex" unicode="&#xf4;" horiz-adv-x="496" 
d="M236 576l158 169h55l85 -145l-78 -73l-69 99l-116 -98zM238 -10c-128 0 -190 92 -157 233c35 149 148 249 282 249c127 0 189 -92 156 -234c-34 -149 -147 -248 -281 -248zM272 98c62 0 112 49 130 128c19 83 -11 138 -75 138c-62 0 -110 -49 -129 -130
c-19 -82 10 -136 74 -136z" />
    <glyph glyph-name="otilde" unicode="&#xf5;" horiz-adv-x="496" 
d="M285 559l-66 21c33 83 88 131 138 131c49 0 64 -47 95 -47c19 0 39 18 55 50l66 -22c-30 -80 -84 -127 -142 -127c-54 0 -62 45 -92 45c-18 0 -39 -18 -54 -51zM238 -10c-128 0 -190 92 -157 233c35 149 148 249 282 249c127 0 189 -92 156 -234
c-34 -149 -147 -248 -281 -248zM272 98c62 0 112 49 130 128c19 83 -11 138 -75 138c-62 0 -110 -49 -129 -130c-19 -82 10 -136 74 -136z" />
    <glyph glyph-name="odieresis" unicode="&#xf6;" horiz-adv-x="501" 
d="M283 576c-43 0 -63 30 -52 78s46 79 89 79c42 0 62 -31 51 -79s-46 -78 -88 -78zM481 576c-42 0 -62 30 -51 78s46 79 88 79c43 0 63 -31 52 -79s-46 -78 -89 -78zM240 -10c-130 0 -192 92 -159 233c35 149 149 249 285 249c129 0 192 -92 159 -234
c-34 -149 -149 -248 -285 -248zM275 98c63 0 115 49 133 128c19 83 -12 138 -78 138c-63 0 -113 -49 -132 -130c-19 -82 11 -136 77 -136z" />
    <glyph glyph-name="divide" unicode="&#xf7;" horiz-adv-x="572" 
d="M391 459c-45 0 -66 31 -55 79s47 79 92 79s65 -31 54 -79s-46 -79 -91 -79zM110 284l24 102h481l-23 -102h-482zM298 53c-45 0 -67 31 -56 78c11 49 47 79 92 79s65 -30 54 -79c-11 -47 -45 -78 -90 -78z" />
    <glyph glyph-name="oslash" unicode="&#xf8;" horiz-adv-x="498" 
d="M91 -60l-43 33l60 71c-33 41 -42 104 -25 179c35 150 145 249 279 249c34 0 64 -7 87 -20l64 95l41 -53l-61 -78c33 -41 44 -105 26 -181c-34 -149 -146 -249 -279 -249c-36 0 -66 7 -91 21zM198 232c-8 -32 -8 -61 -1 -83l173 205c-12 6 -26 10 -41 10
c-62 0 -112 -50 -131 -132zM273 94c62 0 113 50 131 130c8 34 8 64 0 87l-175 -205c12 -7 27 -12 44 -12z" />
    <glyph glyph-name="ugrave" unicode="&#xf9;" horiz-adv-x="500" 
d="M356 546l-96 139l101 77l57 -168zM276 486l-65 -282c-13 -57 -1 -101 55 -101c30 0 60 13 89 35l80 348h113l-112 -486h-81l-7 53c-47 -40 -99 -61 -148 -61c-91 0 -134 72 -108 184l71 310h113z" />
    <glyph glyph-name="uacute" unicode="&#xfa;" horiz-adv-x="500" 
d="M375 546l-40 48l133 168l66 -77zM276 486l-65 -282c-13 -57 -1 -101 55 -101c30 0 60 13 89 35l80 348h113l-112 -486h-81l-7 53c-47 -40 -99 -61 -148 -61c-91 0 -134 72 -108 184l71 310h113z" />
    <glyph glyph-name="ucircumflex" unicode="&#xfb;" horiz-adv-x="500" 
d="M235 591l155 154h55l90 -132l-79 -67l-70 91l-115 -90zM276 486l-65 -282c-13 -57 -1 -101 55 -101c30 0 60 13 89 35l80 348h113l-112 -486h-81l-7 53c-47 -40 -99 -61 -148 -61c-91 0 -134 72 -108 184l71 310h113z" />
    <glyph glyph-name="udieresis" unicode="&#xfc;" horiz-adv-x="503" 
d="M278 576c-43 0 -63 30 -52 78s46 79 89 79s62 -31 51 -79s-45 -78 -88 -78zM476 576c-42 0 -62 30 -51 78s45 79 87 79c43 0 64 -31 53 -79s-46 -78 -89 -78zM276 486l-65 -282c-13 -57 -1 -101 57 -101c31 0 61 13 91 35l80 348h113l-112 -486h-81l-7 53
c-47 -40 -101 -61 -150 -61c-92 0 -136 72 -110 184l71 310h113z" />
    <glyph glyph-name="yacute" unicode="&#xfd;" horiz-adv-x="434" 
d="M343 546l-40 48l135 168l63 -77zM38 -217l125 217l-49 486h120l15 -364l186 364h109l-271 -486l-117 -217h-118z" />
    <glyph glyph-name="thorn" unicode="&#xfe;" horiz-adv-x="502" 
d="M9 -217l220 956h110l-72 -310c35 28 77 43 120 43c112 0 167 -96 135 -235c-33 -145 -139 -247 -255 -247c-40 0 -71 13 -92 38l-57 -245h-109zM330 364c-33 0 -62 -13 -86 -37l-44 -188c14 -27 40 -41 75 -41c63 0 111 51 129 128c19 82 -9 138 -74 138z" />
    <glyph glyph-name="ydieresis" unicode="&#xff;" horiz-adv-x="445" 
d="M250 576c-43 0 -62 30 -51 78s45 79 88 79s63 -31 52 -79s-46 -78 -89 -78zM449 576c-43 0 -63 30 -52 78s45 79 88 79c42 0 62 -31 51 -79s-45 -78 -87 -78zM40 -217l128 217l-54 486h124l16 -364l190 364h111l-275 -486l-119 -217h-121z" />
    <glyph glyph-name="Amacron" unicode="&#x100;" horiz-adv-x="643" 
d="M346 778l23 102h314l-24 -102h-313zM15 0l396 694h153l64 -694h-133l-12 174h-248l-93 -174h-127zM297 289h178l-21 294z" />
    <glyph glyph-name="amacron" unicode="&#x101;" horiz-adv-x="458" 
d="M209 591l24 102h294l-24 -102h-294zM173 -10c-89 0 -133 54 -114 138c23 98 115 144 299 147l2 12c12 52 -18 79 -86 79c-39 0 -84 -9 -131 -27l-7 86c57 30 126 47 187 47c125 0 175 -68 146 -194l-64 -278h-81l-5 49c-41 -38 -92 -59 -146 -59zM177 145
c-8 -33 15 -55 57 -55c32 0 63 11 88 32l19 82c-107 -2 -155 -20 -164 -59z" />
    <glyph glyph-name="Abreve" unicode="&#x102;" horiz-adv-x="643" 
d="M488 749c-85 0 -139 56 -132 143l102 57c-7 -60 20 -101 67 -101c48 0 93 39 113 102l47 -41c-36 -97 -114 -160 -197 -160zM15 0l396 694h153l64 -694h-133l-12 174h-248l-93 -174h-127zM297 289h178l-21 294z" />
    <glyph glyph-name="abreve" unicode="&#x103;" horiz-adv-x="458" 
d="M343 535c-79 0 -129 58 -120 150l100 66c-10 -70 12 -118 56 -118c45 0 89 45 111 119l42 -47c-37 -103 -111 -170 -189 -170zM173 -10c-89 0 -133 54 -114 138c23 98 115 144 299 147l2 12c12 52 -18 79 -86 79c-39 0 -84 -9 -131 -27l-7 86c57 30 126 47 187 47
c125 0 175 -68 146 -194l-64 -278h-81l-5 49c-41 -38 -92 -59 -146 -59zM177 145c-8 -33 15 -55 57 -55c32 0 63 11 88 32l19 82c-107 -2 -155 -20 -164 -59z" />
    <glyph glyph-name="Aogonek" unicode="&#x104;" horiz-adv-x="643" 
d="M15 0l396 694h153l64 -694c-69 -28 -119 -75 -129 -120c-7 -29 6 -50 34 -50c11 0 30 4 44 10l-7 -71c-28 -15 -57 -23 -90 -23c-74 0 -110 44 -95 109c14 61 64 113 136 145h-26l-12 174h-248l-93 -174h-127zM297 289h178l-21 294z" />
    <glyph glyph-name="aogonek" unicode="&#x105;" horiz-adv-x="461" 
d="M175 -10c-90 0 -135 54 -116 138c23 98 115 144 302 147l3 12c12 52 -19 79 -88 79c-40 0 -85 -9 -133 -27l-7 86c57 30 127 47 189 47c126 0 177 -68 148 -194l-64 -278c-65 -28 -115 -75 -125 -120c-7 -29 6 -50 32 -50c11 0 28 4 42 10l-7 -71
c-26 -15 -56 -23 -86 -23c-72 0 -106 44 -91 109c15 66 72 122 153 153l-4 41c-41 -38 -93 -59 -148 -59zM177 145c-8 -33 16 -55 59 -55c32 0 64 11 90 32l19 82c-110 -2 -159 -20 -168 -59z" />
    <glyph glyph-name="Cacute" unicode="&#x106;" horiz-adv-x="591" 
d="M491 739l-31 68l185 144l45 -100zM362 -10c-194 0 -292 141 -244 351c50 218 222 363 427 363c64 0 124 -15 172 -43l-56 -100c-38 18 -94 29 -146 29c-136 0 -235 -84 -269 -231c-36 -156 29 -256 171 -256c45 0 99 10 145 27l6 -93c-62 -29 -140 -47 -206 -47z" />
    <glyph glyph-name="cacute" unicode="&#x107;" horiz-adv-x="402" 
d="M350 526l-40 53l138 183l62 -84zM238 -10c-133 0 -191 85 -158 230c35 152 147 252 283 252c43 0 85 -10 117 -29l-46 -99c-27 13 -60 20 -91 20c-74 0 -125 -47 -144 -131c-21 -89 12 -140 89 -140c27 0 61 7 93 21l5 -86c-46 -25 -97 -38 -148 -38z" />
    <glyph glyph-name="Ccircumflex" unicode="&#x108;" horiz-adv-x="591" 
d="M367 788l163 155h60l98 -132l-82 -67l-77 91l-124 -91zM362 -10c-194 0 -292 141 -244 351c50 218 222 363 427 363c64 0 124 -15 172 -43l-56 -100c-38 18 -94 29 -146 29c-136 0 -235 -84 -269 -231c-36 -156 29 -256 171 -256c45 0 99 10 145 27l6 -93
c-62 -29 -140 -47 -206 -47z" />
    <glyph glyph-name="ccircumflex" unicode="&#x109;" horiz-adv-x="402" 
d="M210 576l159 169h55l85 -145l-78 -73l-68 99l-117 -98zM238 -10c-133 0 -191 85 -158 230c35 152 147 252 283 252c43 0 85 -10 117 -29l-46 -99c-27 13 -60 20 -91 20c-74 0 -125 -47 -144 -131c-21 -89 12 -140 89 -140c27 0 61 7 93 21l5 -86
c-46 -25 -97 -38 -148 -38z" />
    <glyph glyph-name="Cdotaccent" unicode="&#x10a;" horiz-adv-x="591" 
d="M496 762c-45 0 -66 31 -55 79s46 79 91 79s66 -31 55 -79s-46 -79 -91 -79zM362 -10c-194 0 -292 141 -244 351c50 218 222 363 427 363c64 0 124 -15 172 -43l-56 -100c-38 18 -94 29 -146 29c-136 0 -235 -84 -269 -231c-36 -156 29 -256 171 -256c45 0 99 10 145 27
l6 -93c-62 -29 -140 -47 -206 -47z" />
    <glyph glyph-name="cdotaccent" unicode="&#x10b;" horiz-adv-x="408" 
d="M358 576c-43 0 -63 30 -52 78s45 79 88 79c42 0 62 -31 51 -79s-45 -78 -87 -78zM242 -10c-135 0 -195 85 -162 230c35 152 148 252 286 252c44 0 86 -10 119 -29l-46 -99c-28 13 -61 20 -93 20c-76 0 -128 -47 -147 -131c-21 -89 13 -140 92 -140c28 0 62 7 95 21l5 -86
c-46 -25 -97 -38 -149 -38z" />
    <glyph glyph-name="Ccaron" unicode="&#x10c;" horiz-adv-x="591" 
d="M479 748l-101 131l85 67l74 -97l125 96l38 -44l-161 -153h-60zM362 -10c-194 0 -292 141 -244 351c50 218 222 363 427 363c64 0 124 -15 172 -43l-56 -100c-38 18 -94 29 -146 29c-136 0 -235 -84 -269 -231c-36 -156 29 -256 171 -256c45 0 99 10 145 27l6 -93
c-62 -29 -140 -47 -206 -47z" />
    <glyph glyph-name="ccaron" unicode="&#x10d;" horiz-adv-x="402" 
d="M321 538l-91 144l84 72l64 -106l119 106l33 -48l-154 -168h-55zM238 -10c-133 0 -191 85 -158 230c35 152 147 252 283 252c43 0 85 -10 117 -29l-46 -99c-27 13 -60 20 -91 20c-74 0 -125 -47 -144 -131c-21 -89 12 -140 89 -140c27 0 61 7 93 21l5 -86
c-46 -25 -97 -38 -148 -38z" />
    <glyph glyph-name="Dcaron" unicode="&#x10e;" horiz-adv-x="680" 
d="M453 748l-100 131l85 67l74 -97l125 96l37 -44l-161 -153h-60zM77 0l161 694h226c210 0 306 -124 258 -333c-51 -221 -223 -361 -431 -361h-214zM222 111h109c135 0 230 84 264 233c35 151 -25 239 -165 239h-99z" />
    <glyph glyph-name="dcaron" unicode="&#x10f;" horiz-adv-x="549" 
d="M668 524l-63 11l61 216l90 -14zM212 -10c-108 0 -161 94 -128 237c34 148 135 245 254 245c40 0 72 -13 93 -37l70 303h110l-170 -738h-73l-11 57c-42 -43 -92 -67 -145 -67zM200 235c-19 -83 9 -137 72 -137c34 0 66 14 91 40l42 183c-13 27 -40 43 -76 43
c-62 0 -111 -49 -129 -129z" />
    <glyph glyph-name="Dcroat" unicode="&#x110;" horiz-adv-x="681" 
d="M79 0l69 299h-79l21 93h80l69 302h227c210 0 306 -124 258 -333c-51 -221 -223 -361 -431 -361h-214zM224 111h109c135 0 229 84 263 233c35 151 -25 239 -165 239h-98l-44 -191h124l-21 -93h-125z" />
    <glyph glyph-name="dcroat" unicode="&#x111;" horiz-adv-x="500" 
d="M212 -10c-108 0 -161 94 -128 237c34 148 135 245 254 245c40 0 72 -13 93 -37l25 107h-109l19 83h109l26 114h111l-27 -114h56l-19 -83h-56l-125 -542h-73l-11 57c-42 -43 -92 -67 -145 -67zM200 235c-19 -83 9 -137 72 -137c34 0 66 14 91 40l42 183
c-13 27 -40 43 -76 43c-62 0 -111 -49 -129 -129z" />
    <glyph glyph-name="Emacron" unicode="&#x112;" horiz-adv-x="559" 
d="M323 778l24 102h313l-24 -102h-313zM77 0l161 694h435l-26 -113h-316l-39 -169h290l-26 -113h-290l-43 -186h316l-26 -113h-436z" />
    <glyph glyph-name="emacron" unicode="&#x113;" horiz-adv-x="461" 
d="M225 591l23 102h293l-23 -102h-293zM261 -10c-145 0 -212 91 -178 240c33 144 140 242 267 242c114 0 166 -80 137 -208c-5 -21 -15 -50 -22 -69h-273c-4 -72 34 -108 110 -108c35 0 75 8 112 22l5 -85c-51 -22 -108 -34 -158 -34zM320 374c-51 0 -90 -35 -112 -99h174
c14 63 -8 99 -62 99z" />
    <glyph glyph-name="Ebreve" unicode="&#x114;" horiz-adv-x="559" 
d="M464 749c-85 0 -137 56 -130 143l100 57c-7 -60 20 -101 68 -101c47 0 93 39 113 102l47 -41c-36 -97 -115 -160 -198 -160zM77 0l161 694h435l-26 -113h-316l-39 -169h290l-26 -113h-290l-43 -186h316l-26 -113h-436z" />
    <glyph glyph-name="ebreve" unicode="&#x115;" horiz-adv-x="461" 
d="M358 535c-79 0 -129 58 -120 150l99 66c-10 -70 12 -118 56 -118c45 0 89 45 111 119l43 -47c-37 -103 -112 -170 -189 -170zM261 -10c-145 0 -212 91 -178 240c33 144 140 242 267 242c114 0 166 -80 137 -208c-5 -21 -15 -50 -22 -69h-273c-4 -72 34 -108 110 -108
c35 0 75 8 112 22l5 -85c-51 -22 -108 -34 -158 -34zM320 374c-51 0 -90 -35 -112 -99h174c14 63 -8 99 -62 99z" />
    <glyph glyph-name="Edotaccent" unicode="&#x116;" horiz-adv-x="559" 
d="M459 762c-44 0 -66 31 -55 79s47 79 91 79c45 0 67 -31 56 -79s-47 -79 -92 -79zM77 0l161 694h435l-26 -113h-316l-39 -169h290l-26 -113h-290l-43 -186h316l-26 -113h-436z" />
    <glyph glyph-name="edotaccent" unicode="&#x117;" horiz-adv-x="467" 
d="M370 576c-42 0 -63 30 -52 78s46 79 88 79c43 0 63 -31 52 -79s-45 -78 -88 -78zM265 -10c-147 0 -216 91 -182 240c33 144 141 242 270 242c115 0 168 -80 139 -208c-5 -21 -14 -50 -21 -69h-279c-3 -72 35 -108 113 -108c36 0 76 8 114 22l5 -85
c-51 -22 -108 -34 -159 -34zM322 374c-53 0 -92 -35 -114 -99h180c14 63 -10 99 -66 99z" />
    <glyph glyph-name="Eogonek" unicode="&#x118;" horiz-adv-x="559" 
d="M77 0l161 694h435l-26 -113h-316l-39 -169h290l-26 -113h-290l-43 -186h316l-26 -113c-69 -28 -119 -75 -129 -120c-7 -29 6 -50 34 -50c11 0 30 4 44 10l-7 -71c-28 -15 -58 -23 -91 -23c-74 0 -110 44 -95 109c14 61 65 113 137 145h-329z" />
    <glyph glyph-name="eogonek" unicode="&#x119;" horiz-adv-x="466" 
d="M263 -10c-146 0 -214 91 -180 240c33 144 141 242 269 242c115 0 168 -80 139 -208c-5 -21 -15 -50 -22 -69h-277c-3 -72 35 -108 112 -108c36 0 75 8 113 22l6 -85c-6 -3 -12 -5 -18 -7c-64 -34 -108 -82 -119 -129c-8 -36 6 -59 31 -59c10 0 29 4 43 11l-8 -71
c-26 -15 -56 -24 -87 -24c-71 0 -102 46 -86 115c12 51 46 95 103 131c-6 -1 -13 -1 -19 -1zM322 374c-53 0 -92 -35 -114 -99h178c14 63 -9 99 -64 99z" />
    <glyph glyph-name="Ecaron" unicode="&#x11a;" horiz-adv-x="559" 
d="M443 748l-101 131l85 67l74 -97l125 96l37 -44l-160 -153h-60zM77 0l161 694h435l-26 -113h-316l-39 -169h290l-26 -113h-290l-43 -186h316l-26 -113h-436z" />
    <glyph glyph-name="ecaron" unicode="&#x11b;" horiz-adv-x="461" 
d="M334 538l-90 144l83 72l64 -106l120 106l34 -48l-156 -168h-55zM261 -10c-145 0 -212 91 -178 240c33 144 140 242 267 242c114 0 166 -80 137 -208c-5 -21 -15 -50 -22 -69h-273c-4 -72 34 -108 110 -108c35 0 75 8 112 22l5 -85c-51 -22 -108 -34 -158 -34zM320 374
c-51 0 -90 -35 -112 -99h174c14 63 -8 99 -62 99z" />
    <glyph glyph-name="Gcircumflex" unicode="&#x11c;" horiz-adv-x="672" 
d="M390 788l163 155h61l97 -132l-81 -67l-78 91l-123 -91zM369 -10c-199 0 -298 140 -250 350c50 218 224 364 441 364c73 0 139 -16 188 -45l-57 -101c-45 19 -108 32 -165 32c-144 0 -243 -85 -278 -235c-36 -155 27 -252 163 -252c44 0 87 10 124 30l34 147h-159l25 110
h275l-71 -308c-83 -61 -174 -92 -270 -92z" />
    <glyph glyph-name="gcircumflex" unicode="&#x11d;" horiz-adv-x="505" 
d="M226 576l158 169h55l86 -145l-80 -73l-67 99l-117 -98zM212 -10c-108 0 -161 93 -128 237c34 148 136 245 253 245c50 0 86 -18 107 -53l25 43h79l-106 -462c-32 -138 -142 -230 -277 -230c-48 0 -91 13 -131 38l44 95c33 -18 74 -28 109 -28c74 0 125 44 144 127l9 40
c-38 -33 -82 -52 -128 -52zM201 235c-19 -83 8 -137 71 -137c34 0 65 13 90 38l42 183c-13 29 -39 45 -75 45c-62 0 -110 -49 -128 -129z" />
    <glyph glyph-name="Gbreve" unicode="&#x11e;" horiz-adv-x="672" 
d="M525 749c-85 0 -139 56 -132 143l101 57c-7 -60 20 -101 68 -101c47 0 93 39 113 102l47 -41c-37 -97 -114 -160 -197 -160zM369 -10c-199 0 -298 140 -250 350c50 218 224 364 441 364c73 0 139 -16 188 -45l-57 -101c-45 19 -108 32 -165 32c-144 0 -243 -85 -278 -235
c-36 -155 27 -252 163 -252c44 0 87 10 124 30l34 147h-159l25 110h275l-71 -308c-83 -61 -174 -92 -270 -92z" />
    <glyph glyph-name="gbreve" unicode="&#x11f;" horiz-adv-x="505" 
d="M359 535c-79 0 -128 58 -119 150l99 66c-10 -70 12 -118 56 -118c45 0 88 45 110 119l43 -47c-37 -103 -112 -170 -189 -170zM212 -10c-108 0 -161 93 -128 237c34 148 136 245 253 245c50 0 86 -18 107 -53l25 43h79l-106 -462c-32 -138 -142 -230 -277 -230
c-48 0 -91 13 -131 38l44 95c33 -18 74 -28 109 -28c74 0 125 44 144 127l9 40c-38 -33 -82 -52 -128 -52zM201 235c-19 -83 8 -137 71 -137c34 0 65 13 90 38l42 183c-13 29 -39 45 -75 45c-62 0 -110 -49 -128 -129z" />
    <glyph glyph-name="Gdotaccent" unicode="&#x120;" horiz-adv-x="672" 
d="M519 762c-44 0 -65 31 -54 79s47 79 91 79c45 0 66 -31 55 -79s-47 -79 -92 -79zM369 -10c-199 0 -298 140 -250 350c50 218 224 364 441 364c73 0 139 -16 188 -45l-57 -101c-45 19 -108 32 -165 32c-144 0 -243 -85 -278 -235c-36 -155 27 -252 163 -252
c44 0 87 10 124 30l34 147h-159l25 110h275l-71 -308c-83 -61 -174 -92 -270 -92z" />
    <glyph glyph-name="gdotaccent" unicode="&#x121;" horiz-adv-x="510" 
d="M372 576c-43 0 -63 30 -52 78s46 79 89 79s62 -31 51 -79s-45 -78 -88 -78zM215 -10c-110 0 -164 93 -131 237c34 148 138 245 257 245c50 0 88 -18 109 -53l24 43h80l-107 -462c-32 -138 -143 -230 -280 -230c-49 0 -93 13 -133 38l44 95c34 -18 76 -28 112 -28
c76 0 128 44 147 127l9 40c-39 -33 -84 -52 -131 -52zM201 235c-19 -83 9 -137 74 -137c35 0 68 13 93 38l42 183c-13 29 -41 45 -78 45c-63 0 -113 -49 -131 -129z" />
    <glyph glyph-name="uni0122" unicode="&#x122;" horiz-adv-x="672" 
d="M369 -10c-199 0 -298 140 -250 350c50 218 224 364 441 364c73 0 139 -16 188 -45l-57 -101c-45 19 -108 32 -165 32c-144 0 -243 -85 -278 -235c-36 -155 27 -252 163 -252c44 0 87 10 124 30l34 147h-159l25 110h275l-71 -308c-83 -61 -174 -92 -270 -92zM215 -227
c24 37 50 100 65 167h111c-14 -62 -46 -118 -95 -167h-81z" />
    <glyph glyph-name="uni0123" unicode="&#x123;" horiz-adv-x="508" 
d="M473 731c-22 -38 -48 -106 -65 -179h-109c18 77 45 134 85 179h89zM215 -10c-109 0 -164 93 -131 237c34 148 138 245 256 245c50 0 88 -18 109 -53l24 43h80l-107 -462c-32 -138 -143 -230 -280 -230c-49 0 -92 13 -132 38l44 95c34 -18 75 -28 111 -28
c76 0 127 44 146 127l10 40c-38 -33 -83 -52 -130 -52zM201 235c-19 -83 8 -137 73 -137c35 0 67 13 92 38l43 183c-13 29 -41 45 -78 45c-63 0 -112 -49 -130 -129z" />
    <glyph glyph-name="Hcircumflex" unicode="&#x124;" horiz-adv-x="694" 
d="M379 788l163 155h60l98 -132l-82 -67l-77 91l-124 -91zM77 0l161 694h121l-64 -281h295l65 281h122l-160 -694h-122l69 298h-296l-69 -298h-122z" />
    <glyph glyph-name="hcircumflex" unicode="&#x125;" horiz-adv-x="505" 
d="M313 825l157 163h56l88 -138l-79 -71l-70 96l-116 -96zM59 0l168 727h112l-71 -308c43 34 89 51 134 51c96 0 140 -69 114 -180l-67 -290h-113l61 264c14 62 -5 95 -59 95c-32 0 -62 -12 -93 -37l-74 -322h-112z" />
    <glyph glyph-name="Hbar" unicode="&#x126;" horiz-adv-x="697" 
d="M79 0l116 503h-70l23 99h70l21 92h122l-21 -92h295l22 92h121l-21 -92h69l-23 -99h-69l-116 -503h-122l69 298h-296l-68 -298h-122zM296 413h296l21 90h-296z" />
    <glyph glyph-name="hbar" unicode="&#x127;" horiz-adv-x="501" 
d="M58 0l124 536h-54l19 83h54l28 120h112l-28 -120h108l-19 -83h-108l-27 -117c43 34 89 51 134 51c96 0 140 -69 114 -180l-67 -290h-113l61 264c14 62 -5 95 -59 95c-32 0 -61 -12 -92 -37l-75 -322h-112z" />
    <glyph glyph-name="Itilde" unicode="&#x128;" horiz-adv-x="281" 
d="M218 755l-70 20c34 83 91 131 146 131c52 0 70 -47 103 -47c20 0 42 17 59 49l69 -21c-30 -80 -89 -127 -150 -127c-59 0 -67 45 -100 45c-20 0 -41 -18 -57 -50zM80 0l160 694h122l-160 -694h-122z" />
    <glyph glyph-name="itilde" unicode="&#x129;" horiz-adv-x="229" 
d="M155 561l-64 20c34 83 88 131 139 131c50 0 65 -47 96 -47c19 0 40 17 56 49l62 -21c-29 -80 -85 -127 -142 -127c-54 0 -62 45 -93 45c-17 0 -38 -18 -54 -50zM61 0l112 486h113l-112 -486h-113z" />
    <glyph glyph-name="Imacron" unicode="&#x12a;" horiz-adv-x="279" 
d="M194 774l23 101h249l-24 -101h-248zM79 0l160 694h122l-160 -694h-122z" />
    <glyph glyph-name="imacron" unicode="&#x12b;" horiz-adv-x="236" 
d="M148 591l23 101h215l-24 -101h-214zM62 0l112 486h113l-112 -486h-113z" />
    <glyph glyph-name="Ibreve" unicode="&#x12c;" horiz-adv-x="280" 
d="M307 749c-85 0 -139 56 -132 143l102 57c-7 -60 19 -101 67 -101c47 0 93 39 113 102l46 -41c-36 -97 -113 -160 -196 -160zM80 0l160 694h122l-160 -694h-122z" />
    <glyph glyph-name="ibreve" unicode="&#x12d;" horiz-adv-x="233" 
d="M246 551c-80 0 -129 55 -121 143l93 57c-8 -61 17 -102 63 -102c45 0 88 39 108 103l45 -41c-36 -97 -110 -160 -188 -160zM61 0l112 486h113l-112 -486h-113z" />
    <glyph glyph-name="Iogonek" unicode="&#x12e;" horiz-adv-x="277" 
d="M79 0l160 694h122l-160 -694c-55 -26 -94 -69 -106 -119c-8 -33 0 -52 20 -52c11 0 24 5 34 10l-7 -70c-24 -14 -52 -23 -82 -23c-66 0 -95 43 -80 108c14 60 60 113 123 146h-24z" />
    <glyph glyph-name="iogonek" unicode="&#x12f;" horiz-adv-x="241" 
d="M254 576c-43 0 -62 30 -51 78s44 79 87 79s63 -31 52 -79s-45 -78 -88 -78zM64 0l112 486h113l-112 -486c-53 -26 -90 -69 -102 -119c-8 -33 -2 -52 18 -52c12 0 25 5 34 10l-8 -70c-23 -14 -50 -23 -78 -23c-64 0 -92 43 -77 108c14 60 59 113 120 146h-20z" />
    <glyph glyph-name="Idotaccent" unicode="&#x130;" horiz-adv-x="277" 
d="M299 762c-44 0 -65 31 -54 79s47 79 91 79c45 0 66 -31 55 -79s-47 -79 -92 -79zM78 0l160 694h122l-160 -694h-122z" />
    <glyph glyph-name="dotlessi" unicode="&#x131;" horiz-adv-x="243" 
d="M62 0l107 462h113l-107 -462h-113z" />
    <glyph glyph-name="Jcircumflex" unicode="&#x134;" horiz-adv-x="417" 
d="M316 788l164 155h60l97 -132l-82 -67l-77 91l-122 -91zM145 -10c-46 0 -87 11 -121 35l57 100c22 -13 55 -21 82 -21c57 0 96 38 112 108l112 482h120l-109 -472c-34 -148 -127 -232 -253 -232z" />
    <glyph glyph-name="jcircumflex" unicode="&#x135;" horiz-adv-x="231" 
d="M111 591l153 154h58l88 -132l-75 -67l-73 91l-116 -90zM-33 -230l-16 72c53 35 95 94 109 154l113 490h114l-111 -484c-23 -101 -104 -191 -209 -232z" />
    <glyph glyph-name="uni0136" unicode="&#x136;" horiz-adv-x="609" 
d="M78 0l160 694h122l-74 -322l320 322h146l-327 -323l181 -371h-160l-165 351l-81 -351h-122zM170 -227c24 37 50 100 65 167h110c-14 -62 -46 -118 -95 -167h-80z" />
    <glyph glyph-name="uni0137" unicode="&#x137;" horiz-adv-x="465" 
d="M59 0l170 739h113l-110 -475l207 222h128l-206 -219l109 -267h-140l-102 249l-57 -249h-112zM116 -227c23 37 48 100 63 167h105c-14 -62 -45 -118 -92 -167h-76z" />
    <glyph glyph-name="kgreenlandic" unicode="&#x138;" horiz-adv-x="462" 
d="M59 0l106 462h114l-48 -207l199 206h127l-203 -207l112 -255h-140l-100 233l-53 -232h-114z" />
    <glyph glyph-name="Lacute" unicode="&#x139;" horiz-adv-x="497" 
d="M294 739l-32 68l185 144l46 -100zM77 0l161 694h120l-134 -580h278l-27 -114h-398z" />
    <glyph glyph-name="lacute" unicode="&#x13a;" horiz-adv-x="256" 
d="M276 784l-29 68l177 144l40 -100zM172 -7c-74 0 -107 51 -88 135l141 611h112l-137 -595c-8 -34 1 -54 26 -54c8 0 18 2 28 6l3 -85c-26 -12 -58 -18 -85 -18z" />
    <glyph glyph-name="uni013B" unicode="&#x13b;" horiz-adv-x="497" 
d="M77 0l161 694h120l-134 -580h278l-27 -114h-398zM129 -227c25 37 51 100 66 167h110c-14 -62 -46 -118 -95 -167h-81z" />
    <glyph glyph-name="uni013C" unicode="&#x13c;" horiz-adv-x="256" 
d="M172 -7c-75 0 -107 51 -88 135l141 611h112l-137 -595c-8 -34 2 -54 27 -54c8 0 18 2 28 6l3 -85c-27 -12 -59 -18 -86 -18zM15 -227c24 37 48 100 63 167h106c-14 -62 -46 -118 -93 -167h-76z" />
    <glyph glyph-name="Lcaron" unicode="&#x13d;" horiz-adv-x="497" 
d="M455 544l-67 10l58 197l96 -13zM77 0l161 694h120l-134 -580h278l-27 -114h-398z" />
    <glyph glyph-name="lcaron" unicode="&#x13e;" horiz-adv-x="286" 
d="M401 544l-64 10l57 197l90 -13zM173 -7c-75 0 -108 51 -89 135l141 611h112l-137 -595c-8 -34 1 -54 26 -54c8 0 19 2 29 6l4 -85c-27 -12 -59 -18 -86 -18z" />
    <glyph glyph-name="Ldot" unicode="&#x13f;" horiz-adv-x="497" 
d="M77 0l161 694h120l-134 -580h278l-27 -114h-398zM461 294c-47 0 -71 37 -60 85c12 51 53 88 100 88s71 -37 59 -88c-11 -48 -52 -85 -99 -85z" />
    <glyph glyph-name="ldot" unicode="&#x140;" horiz-adv-x="258" 
d="M174 -7c-75 0 -109 51 -90 135l141 611h112l-137 -595c-8 -34 1 -54 27 -54c8 0 18 2 29 6l4 -85c-27 -12 -58 -18 -86 -18zM310 303c-35 0 -52 27 -43 66s38 66 73 66s52 -27 43 -66s-38 -66 -73 -66z" />
    <glyph glyph-name="Lslash" unicode="&#x141;" horiz-adv-x="499" 
d="M79 0l60 260l-43 -22l-28 85l97 50l74 321h120l-58 -251l106 55l27 -87l-159 -81l-50 -216h279l-27 -114h-398z" />
    <glyph glyph-name="lslash" unicode="&#x142;" horiz-adv-x="251" 
d="M171 -7c-74 0 -107 51 -88 135l38 163l-37 -20l-22 78l83 45l79 345h112l-64 -278l70 38l19 -79l-113 -62l-49 -214c-8 -34 1 -54 26 -54c8 0 18 2 28 6l3 -85c-26 -12 -58 -18 -85 -18z" />
    <glyph glyph-name="Nacute" unicode="&#x143;" horiz-adv-x="719" 
d="M515 739l-31 68l184 144l47 -100zM77 0l161 694h137l192 -517l121 517h114l-160 -694h-134l-198 518l-119 -518h-114z" />
    <glyph glyph-name="nacute" unicode="&#x144;" horiz-adv-x="506" 
d="M381 526l-38 53l137 183l64 -84zM59 0l106 462h81l9 -53c47 40 99 61 150 61c95 0 138 -71 112 -185l-66 -285h-114l61 264c14 62 -5 95 -58 95c-32 0 -63 -11 -92 -33l-75 -326h-114z" />
    <glyph glyph-name="uni0145" unicode="&#x145;" horiz-adv-x="719" 
d="M77 0l161 694h137l192 -517l121 517h114l-160 -694h-134l-198 518l-119 -518h-114zM226 -227c24 37 49 100 64 167h111c-14 -62 -46 -118 -95 -167h-80z" />
    <glyph glyph-name="uni0146" unicode="&#x146;" horiz-adv-x="510" 
d="M57 -9l108 471h81l9 -53c47 40 100 61 152 61c96 0 140 -72 113 -188l-67 -291h-114l63 271c15 63 -6 97 -60 97c-32 0 -64 -12 -94 -34l-77 -334h-114zM127 -227c23 36 46 96 61 160h106c-14 -60 -44 -113 -91 -160h-76z" />
    <glyph glyph-name="Ncaron" unicode="&#x147;" horiz-adv-x="719" 
d="M503 748l-101 131l85 67l75 -97l124 96l37 -44l-160 -153h-60zM77 0l161 694h137l192 -517l121 517h114l-160 -694h-134l-198 518l-119 -518h-114z" />
    <glyph glyph-name="ncaron" unicode="&#x148;" horiz-adv-x="506" 
d="M353 539l-90 143l84 72l64 -106l120 106l34 -48l-157 -167h-55zM59 0l106 462h81l9 -53c47 40 99 61 150 61c95 0 138 -71 112 -185l-66 -285h-114l61 264c14 62 -5 95 -58 95c-32 0 -63 -11 -92 -33l-75 -326h-114z" />
    <glyph glyph-name="Eng" unicode="&#x14a;" horiz-adv-x="721" 
d="M77 0l161 694h134l201 -511l118 511h114l-165 -712c-23 -101 -94 -189 -184 -221l-22 73c40 22 75 74 89 136l3 13l-217 527l-118 -510h-114z" />
    <glyph glyph-name="eng" unicode="&#x14b;" horiz-adv-x="506" 
d="M57 -9l108 471h81l9 -53c46 40 98 61 148 61c95 0 140 -70 115 -178l-73 -317c-21 -91 -91 -172 -178 -202l-19 70c37 20 68 67 80 119l69 300c15 63 -4 97 -57 97c-32 0 -63 -12 -92 -34l-77 -334h-114z" />
    <glyph glyph-name="Omacron" unicode="&#x14c;" 
d="M381 778l24 102h313l-23 -102h-314zM349 -9c-186 0 -278 140 -229 351c50 217 210 362 402 362c189 0 282 -141 234 -351c-50 -217 -213 -362 -407 -362zM384 103c113 0 212 96 245 239c35 150 -23 249 -142 249c-112 0 -207 -95 -240 -238c-35 -150 20 -250 137 -250z
" />
    <glyph glyph-name="omacron" unicode="&#x14d;" horiz-adv-x="496" 
d="M237 591l24 102h291l-23 -102h-292zM238 -10c-128 0 -190 92 -157 233c35 149 148 249 282 249c127 0 189 -92 156 -234c-34 -149 -147 -248 -281 -248zM272 98c62 0 112 49 130 128c19 83 -11 138 -75 138c-62 0 -110 -49 -129 -130c-19 -82 10 -136 74 -136z" />
    <glyph glyph-name="Obreve" unicode="&#x14e;" 
d="M524 749c-85 0 -139 56 -132 143l101 57c-7 -60 20 -101 67 -101c48 0 94 39 114 102l46 -41c-36 -97 -113 -160 -196 -160zM349 -9c-186 0 -278 140 -229 351c50 217 210 362 402 362c189 0 282 -141 234 -351c-50 -217 -213 -362 -407 -362zM384 103
c113 0 212 96 245 239c35 150 -23 249 -142 249c-112 0 -207 -95 -240 -238c-35 -150 20 -250 137 -250z" />
    <glyph glyph-name="obreve" unicode="&#x14f;" horiz-adv-x="496" 
d="M370 535c-79 0 -128 58 -119 150l98 66c-10 -70 12 -118 56 -118s88 45 110 119l43 -47c-37 -103 -111 -170 -188 -170zM238 -10c-128 0 -190 92 -157 233c35 149 147 249 282 249c128 0 190 -92 157 -234c-34 -149 -147 -248 -282 -248zM272 98c62 0 112 49 130 128
c19 83 -10 138 -74 138c-62 0 -111 -49 -130 -130c-19 -82 10 -136 74 -136z" />
    <glyph glyph-name="Ohungarumlaut" unicode="&#x150;" 
d="M396 751l-42 55l150 157l64 -85zM603 751l-41 55l150 157l64 -85zM349 -9c-186 0 -278 140 -229 351c50 217 210 362 402 362c189 0 282 -141 234 -351c-50 -217 -213 -362 -407 -362zM384 103c113 0 212 96 245 239c35 150 -23 249 -142 249c-112 0 -207 -95 -240 -238
c-35 -150 20 -250 137 -250z" />
    <glyph glyph-name="ohungarumlaut" unicode="&#x151;" horiz-adv-x="496" 
d="M294 520l-49 40l116 202l77 -65zM461 520l-48 40l115 201l80 -64zM238 -10c-128 0 -190 92 -157 233c35 149 148 249 282 249c127 0 189 -92 156 -234c-34 -149 -147 -248 -281 -248zM272 98c62 0 112 49 130 128c19 83 -11 138 -75 138c-62 0 -110 -49 -129 -130
c-19 -82 10 -136 74 -136z" />
    <glyph glyph-name="OE" unicode="&#x152;" horiz-adv-x="954" 
d="M377 -9c-209 0 -306 138 -257 351c51 219 218 362 427 362c32 0 64 -4 92 -10h428l-26 -113h-315l-39 -168h289l-26 -113h-289l-43 -187h315l-26 -113h-435c-30 -5 -64 -9 -95 -9zM247 353c-35 -151 28 -250 160 -250c34 0 67 6 92 15l105 455c-23 12 -57 18 -93 18
c-129 0 -231 -93 -264 -238z" />
    <glyph glyph-name="oe" unicode="&#x153;" horiz-adv-x="782" 
d="M230 -10c-122 0 -182 94 -149 235c34 147 145 247 272 247c68 0 115 -31 135 -86c50 54 115 86 184 86c110 0 163 -80 134 -208c-5 -21 -13 -50 -20 -69h-274c-4 -72 34 -108 110 -108c35 0 71 7 112 23l5 -86c-58 -23 -109 -34 -156 -34c-83 0 -141 34 -168 92
c-49 -58 -114 -92 -185 -92zM640 374c-51 0 -90 -34 -112 -99h174c15 64 -10 99 -62 99zM272 98c61 0 112 51 130 128c19 82 -12 138 -75 138c-61 0 -111 -50 -129 -130c-19 -82 12 -136 74 -136z" />
    <glyph glyph-name="Racute" unicode="&#x154;" horiz-adv-x="606" 
d="M454 739l-31 68l185 144l46 -100zM77 0l161 694h240c141 0 213 -74 183 -202c-22 -94 -86 -168 -169 -206l96 -286h-144l-78 259h-109l-60 -259h-120zM437 582h-105l-50 -214h121c67 0 113 39 128 104c16 69 -19 110 -94 110z" />
    <glyph glyph-name="racute" unicode="&#x155;" horiz-adv-x="355" 
d="M321 527l-40 52l139 183l61 -84zM60 0l106 462h90l-6 -72c43 48 96 77 146 77c22 0 44 -6 60 -17l-50 -111c-14 8 -34 13 -54 13c-38 0 -78 -19 -110 -52l-69 -300h-113z" />
    <glyph glyph-name="uni0156" unicode="&#x156;" horiz-adv-x="606" 
d="M77 0l161 694h240c141 0 213 -74 183 -202c-22 -94 -86 -168 -169 -206l96 -286h-144l-78 259h-109l-60 -259h-120zM437 582h-105l-50 -214h121c67 0 113 39 128 104c16 69 -19 110 -94 110zM164 -227c25 37 51 100 66 167h111c-14 -62 -47 -118 -96 -167h-81z" />
    <glyph glyph-name="uni0157" unicode="&#x157;" horiz-adv-x="354" 
d="M57 -9l109 471h90l-6 -72c43 48 95 77 145 77c22 0 45 -6 61 -17l-51 -112c-14 9 -33 14 -53 14c-38 0 -78 -19 -111 -53l-71 -308h-113zM-14 -227c23 36 47 96 62 160h106c-14 -60 -45 -113 -92 -160h-76z" />
    <glyph glyph-name="Rcaron" unicode="&#x158;" horiz-adv-x="606" 
d="M442 748l-100 131l85 67l74 -97l125 96l37 -44l-161 -153h-60zM77 0l161 694h240c141 0 213 -74 183 -202c-22 -94 -86 -168 -169 -206l96 -286h-144l-78 259h-109l-60 -259h-120zM437 582h-105l-50 -214h121c67 0 113 39 128 104c16 69 -19 110 -94 110z" />
    <glyph glyph-name="rcaron" unicode="&#x159;" horiz-adv-x="354" 
d="M293 539l-92 143l82 72l67 -106l119 106l32 -48l-153 -167h-55zM60 0l106 462h90l-6 -72c43 48 96 77 146 77c22 0 44 -6 60 -17l-51 -111c-14 8 -33 13 -53 13c-38 0 -78 -19 -110 -52l-69 -300h-113z" />
    <glyph glyph-name="Sacute" unicode="&#x15a;" horiz-adv-x="542" 
d="M422 739l-31 68l184 144l47 -100zM255 -10c-74 0 -149 21 -210 55l57 104c57 -29 126 -43 185 -43c80 0 128 31 140 82c33 141 -325 63 -270 300c30 131 154 216 308 216c63 0 127 -15 176 -41l-58 -102c-41 19 -98 30 -152 30c-80 0 -132 -30 -144 -83
c-32 -140 327 -53 269 -304c-30 -130 -143 -214 -301 -214z" />
    <glyph glyph-name="sacute" unicode="&#x15b;" horiz-adv-x="415" 
d="M333 526l-39 53l137 183l65 -84zM196 -10c-58 0 -116 14 -160 38l46 92c40 -18 94 -30 135 -30c48 0 79 18 86 47c19 83 -232 18 -193 188c22 94 105 147 227 147c48 0 96 -9 132 -25l-45 -95c-36 12 -76 20 -111 20c-52 0 -86 -17 -92 -44c-18 -77 235 -20 195 -191
c-21 -91 -103 -147 -220 -147z" />
    <glyph glyph-name="Scircumflex" unicode="&#x15c;" horiz-adv-x="542" 
d="M298 788l164 155h59l97 -132l-81 -67l-78 91l-122 -91zM255 -10c-74 0 -149 21 -210 55l57 104c57 -29 126 -43 185 -43c80 0 128 31 140 82c33 141 -325 63 -270 300c30 131 154 216 308 216c63 0 127 -15 176 -41l-58 -102c-41 19 -98 30 -152 30
c-80 0 -132 -30 -144 -83c-32 -140 327 -53 269 -304c-30 -130 -143 -214 -301 -214z" />
    <glyph glyph-name="scircumflex" unicode="&#x15d;" horiz-adv-x="415" 
d="M193 576l160 169h55l88 -145l-81 -73l-68 99l-119 -98zM196 -10c-58 0 -116 14 -160 38l46 92c40 -18 94 -30 135 -30c48 0 79 18 86 47c19 83 -232 18 -193 188c22 94 105 147 227 147c48 0 96 -9 132 -25l-45 -95c-36 12 -76 20 -111 20c-52 0 -86 -17 -92 -44
c-18 -77 235 -20 195 -191c-21 -91 -103 -147 -220 -147z" />
    <glyph glyph-name="Scedilla" unicode="&#x15e;" horiz-adv-x="542" 
d="M206 -257c-37 0 -71 8 -94 23l32 71c19 -10 48 -16 72 -16c31 0 51 11 55 30c6 28 -23 46 -84 50l37 90c-64 5 -126 25 -179 54l57 104c57 -29 126 -43 185 -43c80 0 128 31 140 82c33 141 -325 63 -270 300c30 131 154 216 308 216c63 0 127 -15 176 -41l-58 -102
c-41 19 -98 30 -152 30c-80 0 -132 -30 -144 -83c-32 -140 327 -53 269 -304c-27 -116 -120 -195 -250 -211l-18 -44c67 -11 93 -43 81 -97c-16 -68 -77 -109 -163 -109z" />
    <glyph glyph-name="scedilla" unicode="&#x15f;" horiz-adv-x="418" 
d="M147 -257c-36 0 -68 8 -89 23l31 71c17 -10 46 -16 68 -16c29 0 48 11 52 30c6 28 -21 46 -78 50l36 90c-49 4 -95 17 -131 37l46 92c41 -18 95 -30 137 -30c49 0 81 18 88 47c19 83 -236 18 -197 188c22 94 106 147 229 147c49 0 98 -9 134 -25l-45 -95
c-37 12 -78 20 -113 20c-53 0 -88 -17 -94 -44c-18 -77 238 -20 199 -191c-18 -79 -81 -131 -175 -144l-18 -44c63 -11 89 -43 77 -97c-16 -68 -76 -109 -157 -109z" />
    <glyph glyph-name="Scaron" unicode="&#x160;" horiz-adv-x="542" 
d="M410 748l-101 131l85 67l75 -97l124 96l37 -44l-160 -153h-60zM255 -10c-74 0 -149 21 -210 55l57 104c57 -29 126 -43 185 -43c80 0 128 31 140 82c33 141 -325 63 -270 300c30 131 154 216 308 216c63 0 127 -15 176 -41l-58 -102c-41 19 -98 30 -152 30
c-80 0 -132 -30 -144 -83c-32 -140 327 -53 269 -304c-30 -130 -143 -214 -301 -214z" />
    <glyph glyph-name="scaron" unicode="&#x161;" horiz-adv-x="415" 
d="M304 538l-91 144l84 72l65 -106l120 106l34 -48l-156 -168h-56zM196 -10c-58 0 -116 14 -160 38l46 92c40 -18 94 -30 135 -30c48 0 79 18 86 47c19 83 -232 18 -193 188c22 94 105 147 227 147c48 0 96 -9 132 -25l-45 -95c-36 12 -76 20 -111 20c-52 0 -86 -17 -92 -44
c-18 -77 235 -20 195 -191c-21 -91 -103 -147 -220 -147z" />
    <glyph glyph-name="uni0162" unicode="&#x162;" horiz-adv-x="563" 
d="M222 0l134 581h-206l26 113h533l-27 -113h-207l-134 -581h-20l-20 -51c66 -11 93 -43 81 -97c-16 -68 -77 -109 -163 -109c-38 0 -71 8 -94 23l32 71c18 -10 49 -16 72 -16c31 0 50 11 54 30c6 28 -22 46 -82 50l40 99h-19z" />
    <glyph glyph-name="uni0163" unicode="&#x163;" horiz-adv-x="334" 
d="M224 -7h-3l-16 -42c63 -11 89 -43 77 -96c-16 -68 -76 -110 -157 -110c-36 0 -68 8 -89 24l31 71c18 -10 45 -16 68 -16c29 0 48 11 52 30c6 27 -20 45 -78 50l43 106c-44 23 -61 70 -46 134l50 216h-58l23 102h58l39 165h112l-38 -165h107l-24 -102h-107l-47 -205
c-9 -39 11 -63 51 -63c13 0 28 2 42 8l3 -90c-30 -10 -64 -17 -93 -17z" />
    <glyph glyph-name="Tcaron" unicode="&#x164;" horiz-adv-x="563" 
d="M425 748l-101 131l86 67l74 -97l124 96l39 -44l-161 -153h-61zM222 0l134 581h-206l26 113h533l-27 -113h-207l-134 -581h-119z" />
    <glyph glyph-name="tcaron" unicode="&#x165;" horiz-adv-x="331" 
d="M416 525l-64 11l62 215l89 -14zM224 -7c-95 0 -139 58 -118 150l50 217h-58l23 102h58l36 154h112l-35 -154h106l-23 -102h-107l-47 -205c-9 -39 11 -63 51 -63c13 0 28 2 42 8l2 -90c-30 -10 -63 -17 -92 -17z" />
    <glyph glyph-name="Tbar" unicode="&#x166;" horiz-adv-x="563" 
d="M222 0l67 290h-101l21 94h102l45 197h-206l26 113h533l-27 -113h-207l-45 -197h102l-22 -94h-102l-67 -290h-119z" />
    <glyph glyph-name="tbar" unicode="&#x167;" horiz-adv-x="336" 
d="M59 190l19 83h60l20 87h-60l23 102h61l38 165h112l-38 -165h109l-24 -102h-109l-20 -87h109l-19 -83h-109l-8 -37c-9 -37 11 -61 52 -61c13 0 29 3 43 8l2 -90c-30 -10 -64 -17 -93 -17c-96 0 -140 58 -119 150l11 47h-60z" />
    <glyph glyph-name="Utilde" unicode="&#x168;" horiz-adv-x="657" 
d="M405 755l-69 20c35 83 91 131 146 131c52 0 70 -47 103 -47c21 0 42 17 59 49l69 -21c-30 -80 -89 -127 -150 -127c-58 0 -68 45 -101 45c-19 0 -40 -18 -57 -50zM320 -10c-158 0 -232 104 -194 270l100 434h120l-98 -424c-24 -105 16 -168 113 -168c86 0 150 56 172 150
l102 442h118l-99 -427c-39 -167 -170 -277 -334 -277z" />
    <glyph glyph-name="utilde" unicode="&#x169;" horiz-adv-x="500" 
d="M281 561l-66 20c33 83 87 131 138 131c49 0 64 -47 95 -47c19 0 40 17 56 49l66 -21c-30 -80 -85 -127 -142 -127c-55 0 -63 45 -93 45c-18 0 -39 -18 -54 -50zM276 486l-65 -282c-13 -57 -1 -101 55 -101c30 0 60 13 89 35l80 348h113l-112 -486h-81l-7 53
c-47 -40 -99 -61 -148 -61c-91 0 -134 72 -108 184l71 310h113z" />
    <glyph glyph-name="Umacron" unicode="&#x16a;" horiz-adv-x="657" 
d="M353 778l24 102h313l-24 -102h-313zM320 -10c-158 0 -232 104 -194 270l100 434h120l-98 -424c-24 -105 16 -168 113 -168c86 0 150 56 172 150l102 442h118l-99 -427c-39 -167 -170 -277 -334 -277z" />
    <glyph glyph-name="umacron" unicode="&#x16b;" horiz-adv-x="500" 
d="M232 591l24 102h293l-23 -102h-294zM276 486l-65 -282c-13 -57 -1 -101 55 -101c30 0 60 13 89 35l80 348h113l-112 -486h-81l-7 53c-47 -40 -99 -61 -148 -61c-91 0 -134 72 -108 184l71 310h113z" />
    <glyph glyph-name="Ubreve" unicode="&#x16c;" horiz-adv-x="657" 
d="M494 749c-84 0 -137 56 -130 143l101 57c-8 -60 19 -101 67 -101c47 0 93 39 113 102l47 -41c-36 -97 -114 -160 -198 -160zM320 -10c-158 0 -232 104 -194 270l100 434h120l-98 -424c-24 -105 16 -168 113 -168c86 0 150 56 172 150l102 442h118l-99 -427
c-39 -167 -170 -277 -334 -277z" />
    <glyph glyph-name="ubreve" unicode="&#x16d;" horiz-adv-x="500" 
d="M369 551c-79 0 -129 55 -121 143l97 57c-8 -61 16 -102 60 -102c45 0 87 39 107 103l44 -41c-35 -97 -109 -160 -187 -160zM276 486l-65 -282c-13 -57 -1 -101 55 -101c30 0 60 13 89 35l80 348h113l-112 -486h-81l-7 53c-47 -40 -99 -61 -148 -61
c-91 0 -134 72 -108 184l71 310h113z" />
    <glyph glyph-name="Uring" unicode="&#x16e;" horiz-adv-x="657" 
d="M499 740c-64 0 -97 47 -81 117c16 71 71 118 138 118c64 0 97 -46 81 -115c-17 -72 -71 -120 -138 -120zM518 813c23 0 44 18 50 44c6 27 -7 45 -32 45c-23 0 -44 -17 -50 -42c-6 -28 7 -47 32 -47zM320 -10c-158 0 -232 104 -194 270l100 434h120l-98 -424
c-24 -105 16 -168 113 -168c86 0 150 56 172 150l102 442h118l-99 -427c-39 -167 -170 -277 -334 -277z" />
    <glyph glyph-name="uring" unicode="&#x16f;" horiz-adv-x="503" 
d="M371 551c-61 0 -91 47 -75 117s68 117 131 117c61 0 91 -46 75 -114c-17 -72 -69 -120 -131 -120zM390 623c21 0 41 18 47 45s-6 45 -29 45c-22 0 -40 -17 -46 -42c-7 -29 4 -48 28 -48zM276 486l-65 -282c-13 -57 -2 -101 56 -101c31 0 61 13 91 35l81 348h113
l-113 -486h-80l-8 53c-47 -40 -100 -61 -149 -61c-92 0 -136 72 -110 184l71 310h113z" />
    <glyph glyph-name="Uhungarumlaut" unicode="&#x170;" horiz-adv-x="657" 
d="M367 751l-41 55l149 157l64 -85zM575 751l-42 55l149 157l65 -85zM320 -10c-158 0 -232 104 -194 270l100 434h120l-98 -424c-24 -105 16 -168 113 -168c86 0 150 56 172 150l102 442h118l-99 -427c-39 -167 -170 -277 -334 -277z" />
    <glyph glyph-name="uhungarumlaut" unicode="&#x171;" horiz-adv-x="499" 
d="M296 540l-52 37l114 185l78 -60zM462 540l-49 37l113 184l80 -59zM276 486l-65 -282c-13 -57 -1 -101 55 -101c30 0 60 13 89 35l80 348h113l-112 -486h-81l-7 53c-47 -40 -99 -61 -148 -61c-91 0 -134 72 -108 184l71 310h113z" />
    <glyph glyph-name="Uogonek" unicode="&#x172;" horiz-adv-x="657" 
d="M302 -254c-73 0 -110 46 -94 114c12 50 49 97 102 130c-151 5 -221 108 -184 270l100 434h120l-98 -424c-24 -105 16 -168 113 -168c86 0 150 56 172 150l102 442h118l-99 -427c-28 -122 -106 -214 -210 -254c-64 -31 -110 -80 -121 -127c-7 -32 5 -56 32 -56
c11 0 28 4 44 11l-7 -71c-25 -15 -58 -24 -90 -24z" />
    <glyph glyph-name="uogonek" unicode="&#x173;" horiz-adv-x="504" 
d="M296 -254c-72 0 -106 44 -91 109c15 66 72 122 152 153l-6 45c-47 -40 -100 -61 -149 -61c-92 0 -137 69 -112 175l68 295h113l-61 -264c-12 -53 -1 -95 57 -95c31 0 62 12 91 33l75 326h113l-106 -462c-65 -28 -115 -75 -125 -120c-7 -29 6 -50 32 -50c11 0 28 4 42 10
l-7 -71c-27 -15 -56 -23 -86 -23z" />
    <glyph glyph-name="Wcircumflex" unicode="&#x174;" horiz-adv-x="948" 
d="M503 788l164 155h60l97 -132l-82 -67l-77 91l-122 -91zM214 0l-40 694h136l9 -533l249 529h132l18 -521l257 525h121l-361 -694h-123l-23 517l-247 -517h-128z" />
    <glyph glyph-name="wcircumflex" unicode="&#x175;" horiz-adv-x="697" 
d="M348 591l152 154h56l87 -132l-77 -67l-69 91l-115 -90zM155 0l-40 486h119l7 -356l168 354h110l7 -348l174 350h106l-260 -486h-109l-15 343l-165 -343h-102z" />
    <glyph glyph-name="Ycircumflex" unicode="&#x176;" horiz-adv-x="585" 
d="M326 788l163 155h61l97 -132l-81 -67l-78 91l-123 -91zM236 0l63 274l-140 420h142l89 -308l223 308h133l-327 -422l-63 -272h-120z" />
    <glyph glyph-name="ycircumflex" unicode="&#x177;" horiz-adv-x="434" 
d="M206 591l152 154h56l87 -132l-77 -67l-69 91l-115 -90zM38 -217l125 217l-49 486h120l15 -364l186 364h109l-271 -486l-117 -217h-118z" />
    <glyph glyph-name="Ydieresis" unicode="&#x178;" horiz-adv-x="585" 
d="M361 762c-44 0 -66 30 -55 78s47 79 91 79c45 0 66 -31 55 -79s-46 -78 -91 -78zM571 762c-45 0 -66 30 -55 78s46 79 91 79s66 -31 55 -79s-46 -78 -91 -78zM236 0l63 274l-140 420h142l89 -308l223 308h133l-327 -422l-63 -272h-120z" />
    <glyph glyph-name="Zacute" unicode="&#x179;" horiz-adv-x="604" 
d="M461 739l-31 68l185 144l46 -100zM32 0l19 83l482 498h-352l26 113h517l-18 -78l-487 -503h379l-26 -113h-540z" />
    <glyph glyph-name="zacute" unicode="&#x17a;" horiz-adv-x="410" 
d="M332 527l-39 52l137 183l63 -84zM29 0l17 77l270 280h-205l24 105h345l-18 -77l-270 -280h216l-25 -105h-354z" />
    <glyph glyph-name="Zdotaccent" unicode="&#x17b;" horiz-adv-x="604" 
d="M466 762c-45 0 -66 31 -55 79s47 79 92 79s65 -31 54 -79s-46 -79 -91 -79zM32 0l19 83l482 498h-352l26 113h517l-18 -78l-487 -503h379l-26 -113h-540z" />
    <glyph glyph-name="zdotaccent" unicode="&#x17c;" horiz-adv-x="416" 
d="M340 576c-43 0 -63 30 -52 78s46 79 89 79c42 0 62 -31 51 -79s-46 -78 -88 -78zM29 0l17 77l274 280h-209l24 105h350l-18 -77l-274 -280h220l-24 -105h-360z" />
    <glyph glyph-name="Zcaron" unicode="&#x17d;" horiz-adv-x="604" 
d="M449 748l-101 131l85 67l75 -97l124 96l38 -44l-160 -153h-61zM32 0l19 83l482 498h-352l26 113h517l-18 -78l-487 -503h379l-26 -113h-540z" />
    <glyph glyph-name="zcaron" unicode="&#x17e;" horiz-adv-x="410" 
d="M303 539l-87 143l81 72l64 -106l119 106l33 -48l-154 -167h-56zM29 0l17 77l270 280h-205l24 105h345l-18 -77l-270 -280h216l-25 -105h-354z" />
    <glyph glyph-name="uni018F" unicode="&#x18f;" horiz-adv-x="687" 
d="M458 702c214 0 315 -133 264 -353c-50 -216 -211 -359 -398 -359c-168 0 -250 118 -209 295c8 33 18 73 30 107h458c10 132 -58 198 -191 198c-61 0 -128 -15 -192 -43l-5 97c79 39 161 58 243 58zM360 102c107 0 183 61 222 184h-353c-28 -122 21 -184 131 -184z" />
    <glyph glyph-name="florin" unicode="&#x192;" horiz-adv-x="425" 
d="M39 -227l-19 70c36 20 68 67 80 119l92 398h-65l24 102h65l15 66c31 135 119 221 227 221c36 0 69 -9 92 -25l-47 -102c-19 14 -44 21 -65 21c-43 0 -75 -34 -89 -96l-19 -85h122l-24 -102h-122l-89 -386c-21 -90 -92 -171 -178 -201z" />
    <glyph glyph-name="Ohorn" unicode="&#x1a0;" horiz-adv-x="780" 
d="M349 -9c-186 0 -278 140 -229 351c50 217 210 362 402 362c97 0 168 -37 209 -101c38 4 72 40 84 94c8 34 6 68 -5 97h109c12 -29 13 -62 4 -100c-20 -86 -80 -143 -164 -159c13 -51 13 -113 -3 -182c-50 -217 -213 -362 -407 -362zM384 103c113 0 212 96 245 239
c35 150 -23 249 -142 249c-112 0 -207 -95 -240 -238c-35 -150 20 -250 137 -250z" />
    <glyph glyph-name="ohorn" unicode="&#x1a1;" horiz-adv-x="576" 
d="M238 -10c-128 0 -190 92 -157 233c35 149 147 249 281 249c76 0 128 -34 150 -94c28 16 50 50 61 98c9 38 9 77 0 110h104c11 -30 11 -66 2 -106c-21 -89 -77 -150 -152 -170c0 -23 -2 -48 -8 -74c-34 -147 -147 -246 -281 -246zM272 98c62 0 112 49 130 128
c19 83 -11 138 -75 138c-62 0 -110 -49 -129 -130c-19 -82 10 -136 74 -136z" />
    <glyph glyph-name="Uhorn" unicode="&#x1af;" horiz-adv-x="789" 
d="M320 -10c-158 0 -232 104 -194 270l100 434h120l-98 -424c-24 -105 16 -168 113 -168c86 0 150 56 172 150l102 442h118l-21 -91c41 0 78 38 91 94c8 34 5 68 -6 97h110c12 -29 13 -62 4 -100c-24 -103 -107 -164 -216 -164l-61 -263c-39 -167 -170 -277 -334 -277z" />
    <glyph glyph-name="uhorn" unicode="&#x1b0;" horiz-adv-x="606" 
d="M276 486l-65 -282c-13 -57 -1 -101 55 -101c30 0 60 13 89 35l80 348h113l-20 -90c35 4 66 40 78 93c8 34 7 68 -3 97h103c11 -28 13 -62 4 -99c-24 -102 -100 -162 -200 -165l-74 -322h-81l-7 53c-47 -40 -99 -61 -148 -61c-91 0 -134 72 -108 184l71 310h113z" />
    <glyph glyph-name="uni01C4" unicode="&#x1c4;" horiz-adv-x="1285" 
d="M1130 748l-100 131l85 67l74 -97l125 96l37 -44l-161 -153h-60zM77 0l161 694h226c210 0 306 -124 258 -333c-51 -221 -223 -361 -431 -361h-214zM713 0l19 83l482 498h-352l26 113h517l-18 -78l-487 -503h379l-26 -113h-540zM222 111h109c135 0 230 84 264 233
c35 151 -25 239 -165 239h-99z" />
    <glyph glyph-name="uni01C5" unicode="&#x1c5;" horiz-adv-x="1123" 
d="M1003 557l-100 131l85 66l74 -97l125 97l37 -44l-161 -153h-60zM77 0l161 694h226c210 0 306 -124 258 -333c-51 -221 -223 -361 -431 -361h-214zM222 111h109c135 0 230 84 264 233c35 151 -25 239 -165 239h-99zM712 0l17 77l294 304h-223l24 105h374l-18 -77
l-293 -304h235l-24 -105h-386z" />
    <glyph glyph-name="uni01C6" unicode="&#x1c6;" horiz-adv-x="910" 
d="M802 538l-87 144l80 72l65 -106l118 106l34 -48l-154 -168h-56zM212 -10c-108 0 -161 94 -128 237c34 148 135 245 254 245c40 0 72 -13 93 -37l70 303h110l-170 -738h-73l-11 57c-42 -43 -92 -67 -145 -67zM527 0l18 77l270 280h-205l24 105h344l-17 -77l-270 -280h215
l-24 -105h-355zM200 235c-19 -83 9 -137 72 -137c34 0 66 15 91 41l42 181c-13 28 -40 44 -76 44c-62 0 -111 -49 -129 -129z" />
    <glyph glyph-name="uni01C7" unicode="&#x1c7;" horiz-adv-x="913" 
d="M77 0l161 694h120l-134 -580h278l-27 -114h-398zM643 -10c-46 0 -87 11 -121 35l58 100c22 -13 54 -21 81 -21c57 0 97 38 113 108l111 482h120l-109 -472c-34 -148 -127 -232 -253 -232z" />
    <glyph glyph-name="uni01C8" unicode="&#x1c8;" horiz-adv-x="748" 
d="M757 576c-45 0 -65 30 -54 78s45 79 90 79s67 -31 56 -79s-47 -78 -92 -78zM77 0l161 694h120l-134 -580h278l-27 -114h-398zM467 -230l-19 72c57 35 102 94 116 154l113 490h119l-112 -484c-23 -101 -107 -191 -217 -232z" />
    <glyph glyph-name="uni01C9" unicode="&#x1c9;" horiz-adv-x="496" 
d="M172 -7c-74 0 -107 51 -88 135l141 611h112l-137 -595c-8 -34 1 -54 26 -54c8 0 18 2 28 6l3 -85c-26 -12 -58 -18 -85 -18zM506 576c-43 0 -62 30 -51 78s44 79 87 79s63 -31 52 -79s-45 -78 -88 -78zM221 -230l-16 72c54 35 96 94 110 154l113 490h114l-112 -484
c-23 -101 -104 -191 -209 -232z" />
    <glyph glyph-name="uni01CA" unicode="&#x1ca;" horiz-adv-x="1136" 
d="M77 0l161 694h137l192 -517l121 517h114l-160 -694h-134l-198 518l-119 -518h-114zM867 -10c-46 0 -88 11 -122 35l58 100c22 -13 54 -21 81 -21c57 0 97 38 113 108l111 482h120l-109 -472c-34 -148 -126 -232 -252 -232z" />
    <glyph glyph-name="uni01CB" unicode="&#x1cb;" horiz-adv-x="971" 
d="M980 576c-45 0 -65 30 -54 78s46 79 91 79s66 -31 55 -79s-47 -78 -92 -78zM77 0l161 694h137l192 -517l121 517h114l-160 -694h-134l-198 518l-119 -518h-114zM690 -230l-19 72c57 35 102 94 116 154l113 490h119l-112 -484c-23 -101 -107 -191 -217 -232z" />
    <glyph glyph-name="uni01CC" unicode="&#x1cc;" horiz-adv-x="744" 
d="M752 576c-42 0 -62 30 -51 78s46 79 88 79c43 0 63 -31 52 -79s-46 -78 -89 -78zM57 -9l108 471h81l9 -53c47 40 99 61 150 61c95 0 138 -72 111 -188l-67 -291h-114l62 271c15 63 -4 97 -57 97c-32 0 -63 -12 -92 -34l-77 -334h-114zM468 -230l-17 69
c54 34 96 91 109 149l109 474h114l-108 -468c-23 -98 -102 -184 -207 -224z" />
    <glyph glyph-name="uni01CD" unicode="&#x1cd;" horiz-adv-x="643" 
d="M465 748l-101 131l86 67l74 -97l124 96l39 -44l-161 -153h-61zM15 0l396 694h153l64 -694h-133l-12 174h-248l-93 -174h-127zM297 289h178l-21 294z" />
    <glyph glyph-name="uni01CE" unicode="&#x1ce;" horiz-adv-x="458" 
d="M319 538l-90 144l83 72l65 -106l119 106l36 -48l-158 -168h-55zM173 -10c-89 0 -133 54 -114 138c23 98 115 144 299 147l2 12c12 52 -18 79 -86 79c-39 0 -84 -9 -131 -27l-7 86c57 30 126 47 187 47c125 0 175 -68 146 -194l-64 -278h-81l-5 49
c-41 -38 -92 -59 -146 -59zM177 145c-8 -33 15 -55 57 -55c32 0 63 11 88 32l19 82c-107 -2 -155 -20 -164 -59z" />
    <glyph glyph-name="uni01CF" unicode="&#x1cf;" horiz-adv-x="280" 
d="M284 748l-100 131l85 67l74 -97l125 96l37 -44l-161 -153h-60zM79 0l161 694h122l-161 -694h-122z" />
    <glyph glyph-name="uni01D0" unicode="&#x1d0;" horiz-adv-x="231" 
d="M220 557l-91 131l80 66l69 -97l118 97l34 -44l-152 -153h-58zM61 0l112 486h113l-112 -486h-113z" />
    <glyph glyph-name="uni01D1" unicode="&#x1d1;" 
d="M501 748l-101 131l85 67l75 -97l124 96l38 -44l-161 -153h-60zM349 -9c-186 0 -278 140 -229 351c50 217 210 362 402 362c189 0 282 -141 234 -351c-50 -217 -213 -362 -407 -362zM384 103c113 0 212 96 245 239c35 150 -23 249 -142 249c-112 0 -207 -95 -240 -238
c-35 -150 20 -250 137 -250z" />
    <glyph glyph-name="uni01D2" unicode="&#x1d2;" horiz-adv-x="496" 
d="M345 538l-89 144l83 72l64 -106l119 106l34 -48l-155 -168h-56zM238 -10c-128 0 -190 92 -157 233c35 149 148 249 282 249c127 0 189 -92 156 -234c-34 -149 -147 -248 -281 -248zM272 98c62 0 112 49 130 128c19 83 -11 138 -75 138c-62 0 -110 -49 -129 -130
c-19 -82 10 -136 74 -136z" />
    <glyph glyph-name="uni01D3" unicode="&#x1d3;" horiz-adv-x="657" 
d="M473 748l-101 131l85 67l74 -97l125 96l37 -44l-160 -153h-60zM320 -10c-158 0 -232 104 -194 270l100 434h120l-98 -424c-24 -105 16 -168 113 -168c86 0 150 56 172 150l102 442h118l-99 -427c-39 -167 -170 -277 -334 -277z" />
    <glyph glyph-name="uni01D4" unicode="&#x1d4;" horiz-adv-x="500" 
d="M346 557l-93 131l82 66l66 -97l118 97l36 -44l-154 -153h-55zM276 486l-65 -282c-13 -57 -1 -101 55 -101c30 0 60 13 89 35l80 348h113l-112 -486h-81l-7 53c-47 -40 -99 -61 -148 -61c-91 0 -134 72 -108 184l71 310h113z" />
    <glyph glyph-name="uni01D5" unicode="&#x1d5;" horiz-adv-x="657" 
d="M396 966l24 102h313l-23 -102h-314zM396 762c-45 0 -67 30 -56 78s47 79 92 79c44 0 65 -31 54 -79s-46 -78 -90 -78zM605 762c-45 0 -65 30 -54 78s45 79 90 79s67 -31 56 -79s-47 -78 -92 -78zM320 -10c-158 0 -232 104 -194 270l100 434h120l-98 -424
c-24 -105 16 -168 113 -168c86 0 150 56 172 150l102 442h118l-99 -427c-39 -167 -170 -277 -334 -277z" />
    <glyph glyph-name="uni01D6" unicode="&#x1d6;" horiz-adv-x="503" 
d="M268 746l23 102h298l-24 -102h-297zM275 543c-39 0 -57 28 -47 71c10 45 41 72 80 72s57 -27 47 -72c-10 -43 -41 -71 -80 -71zM464 543c-38 0 -57 28 -47 71c10 45 42 72 80 72c39 0 58 -27 48 -72c-10 -43 -42 -71 -81 -71zM276 486l-65 -282c-13 -57 -1 -101 57 -101
c31 0 61 13 91 35l80 348h113l-112 -486h-81l-7 53c-47 -40 -101 -61 -150 -61c-92 0 -136 72 -110 184l71 310h113z" />
    <glyph glyph-name="uni01D7" unicode="&#x1d7;" horiz-adv-x="657" 
d="M528 926l-31 69l184 143l47 -99zM396 762c-45 0 -67 30 -56 78s47 79 92 79c44 0 65 -31 54 -79s-46 -78 -90 -78zM605 762c-45 0 -65 30 -54 78s45 79 90 79s67 -31 56 -79s-47 -78 -92 -78zM320 -10c-158 0 -232 104 -194 270l100 434h120l-98 -424
c-24 -105 16 -168 113 -168c86 0 150 56 172 150l102 442h118l-99 -427c-39 -167 -170 -277 -334 -277z" />
    <glyph glyph-name="uni01D8" unicode="&#x1d8;" horiz-adv-x="503" 
d="M412 700l-40 49l135 168l67 -77zM275 543c-39 0 -57 28 -47 71c10 45 41 72 80 72s57 -27 47 -72c-10 -43 -41 -71 -80 -71zM464 543c-38 0 -57 28 -47 71c10 45 42 72 80 72c39 0 58 -27 48 -72c-10 -43 -42 -71 -81 -71zM276 486l-65 -282c-13 -57 -1 -101 57 -101
c31 0 61 13 91 35l80 348h113l-112 -486h-81l-7 53c-47 -40 -101 -61 -150 -61c-92 0 -136 72 -110 184l71 310h113z" />
    <glyph glyph-name="uni01D9" unicode="&#x1d9;" horiz-adv-x="657" 
d="M516 935l-101 132l85 66l74 -97l125 97l37 -44l-160 -154h-60zM396 762c-45 0 -67 30 -56 78s47 79 92 79c44 0 65 -31 54 -79s-46 -78 -90 -78zM605 762c-45 0 -65 30 -54 78s45 79 90 79s67 -31 56 -79s-47 -78 -92 -78zM320 -10c-158 0 -232 104 -194 270l100 434h120
l-98 -424c-24 -105 16 -168 113 -168c86 0 150 56 172 150l102 442h118l-99 -427c-39 -167 -170 -277 -334 -277z" />
    <glyph glyph-name="uni01DA" unicode="&#x1da;" horiz-adv-x="503" 
d="M383 711l-95 132l82 66l69 -97l119 97l36 -44l-155 -154h-56zM275 543c-39 0 -57 28 -47 71c10 45 41 72 80 72s57 -27 47 -72c-10 -43 -41 -71 -80 -71zM464 543c-38 0 -57 28 -47 71c10 45 42 72 80 72c39 0 58 -27 48 -72c-10 -43 -42 -71 -81 -71zM276 486l-65 -282
c-13 -57 -1 -101 57 -101c31 0 61 13 91 35l80 348h113l-112 -486h-81l-7 53c-47 -40 -101 -61 -150 -61c-92 0 -136 72 -110 184l71 310h113z" />
    <glyph glyph-name="uni01DB" unicode="&#x1db;" horiz-adv-x="657" 
d="M557 926l-147 113l92 99l118 -143zM396 762c-45 0 -67 30 -56 78s47 79 92 79c44 0 65 -31 54 -79s-46 -78 -90 -78zM605 762c-45 0 -65 30 -54 78s45 79 90 79s67 -31 56 -79s-47 -78 -92 -78zM320 -10c-158 0 -232 104 -194 270l100 434h120l-98 -424
c-24 -105 16 -168 113 -168c86 0 150 56 172 150l102 442h118l-99 -427c-39 -167 -170 -277 -334 -277z" />
    <glyph glyph-name="uni01DC" unicode="&#x1dc;" horiz-adv-x="503" 
d="M393 700l-97 140l102 77l58 -168zM275 543c-39 0 -57 28 -47 71c10 45 41 72 80 72s57 -27 47 -72c-10 -43 -41 -71 -80 -71zM464 543c-38 0 -57 28 -47 71c10 45 42 72 80 72c39 0 58 -27 48 -72c-10 -43 -42 -71 -81 -71zM276 486l-65 -282c-13 -57 -1 -101 57 -101
c31 0 61 13 91 35l80 348h113l-112 -486h-81l-7 53c-47 -40 -101 -61 -150 -61c-92 0 -136 72 -110 184l71 310h113z" />
    <glyph glyph-name="Gcaron" unicode="&#x1e6;" horiz-adv-x="672" 
d="M502 748l-100 131l85 67l75 -97l124 96l37 -44l-161 -153h-60zM369 -10c-199 0 -298 140 -250 350c50 218 224 364 441 364c73 0 139 -16 188 -45l-57 -101c-45 19 -108 32 -165 32c-144 0 -243 -85 -278 -235c-36 -155 27 -252 163 -252c44 0 87 10 124 30l34 147h-159
l25 110h275l-71 -308c-83 -61 -174 -92 -270 -92z" />
    <glyph glyph-name="gcaron" unicode="&#x1e7;" horiz-adv-x="505" 
d="M335 538l-90 144l84 72l64 -106l119 106l35 -48l-156 -168h-56zM212 -10c-108 0 -161 93 -128 237c34 148 136 245 253 245c50 0 86 -18 107 -53l25 43h79l-106 -462c-32 -138 -142 -230 -277 -230c-48 0 -91 13 -131 38l44 95c33 -18 74 -28 109 -28
c74 0 125 44 144 127l9 40c-38 -33 -82 -52 -128 -52zM201 235c-19 -83 8 -137 71 -137c34 0 65 13 90 38l42 183c-13 29 -39 45 -75 45c-62 0 -110 -49 -128 -129z" />
    <glyph glyph-name="uni01EA" unicode="&#x1ea;" 
d="M320 -254c-74 0 -111 46 -95 114c12 51 50 98 105 132c-174 9 -257 147 -210 350c50 217 210 362 402 362c189 0 282 -141 234 -351c-42 -180 -161 -311 -311 -349c-56 -31 -95 -76 -105 -118c-7 -32 5 -56 33 -56c10 0 28 4 44 11l-8 -71c-25 -15 -58 -24 -89 -24z
M384 103c113 0 212 96 245 239c35 150 -23 249 -142 249c-112 0 -207 -95 -240 -238c-35 -150 20 -250 137 -250z" />
    <glyph glyph-name="uni01EB" unicode="&#x1eb;" horiz-adv-x="500" 
d="M209 -255c-69 0 -99 45 -84 112c11 50 45 92 101 126c-121 7 -178 99 -146 237c35 152 149 252 285 252c129 0 191 -92 158 -236c-26 -115 -99 -200 -191 -235c-53 -31 -90 -74 -100 -115c-8 -35 7 -57 31 -57c9 0 26 4 40 11l-7 -71c-25 -15 -56 -24 -87 -24zM271 86
c63 0 114 52 133 134c20 87 -10 144 -75 144c-63 0 -113 -52 -132 -136c-20 -86 9 -142 74 -142z" />
    <glyph glyph-name="Aringacute" unicode="&#x1fa;" horiz-adv-x="643" 
d="M489 740c-65 0 -97 47 -81 117c16 71 71 118 138 118c28 0 50 -9 64 -26l142 82l27 -112l-152 -56l-1 -3c-17 -72 -71 -120 -137 -120zM508 813c23 0 44 18 50 44c6 27 -7 45 -32 45c-24 0 -44 -17 -50 -42c-6 -28 6 -47 32 -47zM15 0l396 694h153l64 -694h-133l-12 174
h-248l-93 -174h-127zM297 289h178l-21 294z" />
    <glyph glyph-name="aringacute" unicode="&#x1fb;" horiz-adv-x="460" 
d="M340 532c-61 0 -90 48 -73 121s68 121 131 121c11 0 21 -2 30 -5l100 130l65 -85l-117 -102c3 -16 3 -34 -2 -54c-17 -76 -71 -126 -134 -126zM359 604c22 0 42 19 49 49s-4 49 -28 49c-21 0 -42 -19 -48 -46c-7 -32 4 -52 27 -52zM175 -10c-90 0 -135 54 -116 138
c23 98 116 144 302 147l2 12c12 52 -18 79 -87 79c-40 0 -85 -9 -133 -27l-7 86c57 30 127 47 189 47c126 0 176 -68 147 -194l-64 -278h-81l-5 49c-41 -38 -92 -59 -147 -59zM177 145c-8 -33 16 -55 59 -55c32 0 63 11 89 32l19 82c-109 -2 -158 -20 -167 -59z" />
    <glyph glyph-name="AEacute" unicode="&#x1fc;" horiz-adv-x="929" 
d="M657 739l-31 68l185 144l45 -100zM14 0l550 694h478l-27 -113h-315l-39 -168h291l-27 -113h-290l-43 -187h315l-26 -113h-435l41 175h-207l-134 -175h-132zM372 294h142l61 265z" />
    <glyph glyph-name="aeacute" unicode="&#x1fd;" horiz-adv-x="713" 
d="M483 526l-40 53l140 183l62 -84zM169 -10c-86 0 -131 51 -113 127c23 99 132 155 301 159l1 7c12 53 -17 82 -80 82c-41 0 -88 -13 -140 -36l-5 84c65 39 132 59 194 59s102 -21 118 -64c43 41 97 64 156 64c112 0 165 -81 135 -209c-5 -22 -14 -53 -20 -67h-275
c-2 -70 37 -108 112 -108c34 0 70 8 111 22l6 -86c-57 -23 -108 -34 -158 -34c-85 0 -140 32 -162 93c-52 -60 -115 -93 -181 -93zM569 372c-51 0 -91 -33 -112 -96h172c14 61 -8 96 -60 96zM176 140c-7 -31 14 -50 56 -50c38 0 75 16 105 44c-2 20 -1 41 4 65
c-107 -2 -156 -19 -165 -59z" />
    <glyph glyph-name="Oslashacute" unicode="&#x1fe;" 
d="M513 739l-31 68l185 144l46 -100zM154 -50l-59 49l61 74c-48 62 -62 155 -36 269c50 217 210 362 402 362c54 0 100 -12 137 -33l64 76l62 -49l-66 -79c48 -61 63 -153 37 -266c-50 -217 -213 -362 -407 -362c-52 0 -97 11 -133 32zM247 353c-15 -67 -14 -124 4 -167
l322 382c-24 15 -53 23 -86 23c-112 0 -207 -95 -240 -238zM384 103c113 0 212 96 245 239c15 66 13 122 -5 164l-322 -381c22 -14 50 -22 82 -22z" />
    <glyph glyph-name="oslashacute" unicode="&#x1ff;" horiz-adv-x="498" 
d="M376 526l-38 53l137 183l63 -84zM91 -60l-43 33l60 71c-33 41 -42 104 -25 179c35 150 145 249 279 249c34 0 64 -7 87 -20l60 75l44 -39l-60 -72c33 -41 44 -105 26 -181c-34 -149 -146 -249 -279 -249c-36 0 -66 7 -91 21zM198 232c-8 -32 -8 -61 -1 -83l173 205
c-12 6 -26 10 -41 10c-62 0 -112 -50 -131 -132zM273 94c62 0 113 50 131 130c8 34 8 64 0 87l-175 -205c12 -7 27 -12 44 -12z" />
    <glyph glyph-name="uni0200" unicode="&#x200;" horiz-adv-x="643" 
d="M630 751l-113 127l103 85l76 -157zM422 751l-113 127l104 85l76 -157zM15 0l396 694h153l64 -694h-133l-12 174h-248l-93 -174h-127zM297 289h178l-21 294z" />
    <glyph glyph-name="uni0201" unicode="&#x201;" horiz-adv-x="457" 
d="M405 520l-63 177l107 65l25 -202zM237 520l-66 177l110 64l24 -201zM173 -10c-89 0 -133 54 -114 138c23 98 114 144 298 147l3 12c12 52 -18 79 -86 79c-39 0 -84 -9 -131 -27l-7 86c57 30 126 47 187 47c125 0 175 -68 146 -194l-64 -278h-81l-5 49
c-41 -38 -92 -59 -146 -59zM177 145c-8 -33 15 -55 57 -55c32 0 63 11 88 32l19 82c-107 -2 -155 -20 -164 -59z" />
    <glyph glyph-name="uni0202" unicode="&#x202;" horiz-adv-x="643" 
d="M395 732l-47 41c36 97 112 160 194 160c81 0 136 -55 128 -143l-101 -57c9 61 -18 102 -64 102c-45 0 -90 -39 -110 -103zM15 0l396 694h153l64 -694h-133l-12 174h-248l-93 -174h-127zM297 289h178l-21 294z" />
    <glyph glyph-name="uni0203" unicode="&#x203;" horiz-adv-x="458" 
d="M255 535l-43 49c37 102 109 168 187 168c76 0 126 -58 116 -149l-99 -67c11 70 -12 118 -54 118c-41 0 -85 -44 -107 -119zM173 -10c-89 0 -133 54 -114 138c23 98 115 144 299 147l2 12c12 52 -18 79 -86 79c-39 0 -84 -9 -131 -27l-7 86c57 30 126 47 187 47
c125 0 175 -68 146 -194l-64 -278h-81l-5 49c-41 -38 -92 -59 -146 -59zM177 145c-8 -33 15 -55 57 -55c32 0 63 11 88 32l19 82c-107 -2 -155 -20 -164 -59z" />
    <glyph glyph-name="uni0204" unicode="&#x204;" horiz-adv-x="559" 
d="M607 751l-114 127l104 85l77 -157zM400 751l-114 127l103 85l77 -157zM77 0l161 694h435l-26 -113h-316l-39 -169h290l-26 -113h-290l-43 -186h316l-26 -113h-436z" />
    <glyph glyph-name="uni0205" unicode="&#x205;" horiz-adv-x="461" 
d="M419 520l-62 177l107 65l24 -202zM252 520l-66 177l110 64l23 -201zM261 -10c-145 0 -213 91 -179 240c33 144 141 242 268 242c114 0 166 -80 137 -208c-5 -21 -15 -50 -22 -69h-273c-4 -72 34 -108 110 -108c35 0 74 8 111 22l6 -85c-51 -22 -108 -34 -158 -34z
M319 374c-51 0 -89 -35 -111 -99h174c14 63 -9 99 -63 99z" />
    <glyph glyph-name="uni0206" unicode="&#x206;" horiz-adv-x="559" 
d="M372 732l-47 41c36 97 112 160 195 160c81 0 135 -55 127 -143l-101 -57c9 61 -19 102 -65 102c-45 0 -90 -39 -109 -103zM77 0l161 694h435l-26 -113h-316l-39 -169h290l-26 -113h-290l-43 -186h316l-26 -113h-436z" />
    <glyph glyph-name="uni0207" unicode="&#x207;" horiz-adv-x="461" 
d="M270 535l-43 49c37 102 110 168 187 168c76 0 125 -58 115 -149l-99 -67c11 70 -11 118 -53 118c-41 0 -85 -44 -107 -119zM261 -10c-145 0 -212 91 -178 240c33 144 140 242 267 242c114 0 166 -80 137 -208c-5 -21 -15 -50 -22 -69h-273c-4 -72 34 -108 110 -108
c35 0 75 8 112 22l5 -85c-51 -22 -108 -34 -158 -34zM320 374c-51 0 -90 -35 -112 -99h174c14 63 -8 99 -62 99z" />
    <glyph glyph-name="uni0208" unicode="&#x208;" horiz-adv-x="282" 
d="M450 751l-114 127l104 85l77 -157zM243 751l-114 127l103 85l78 -157zM81 0l160 694h122l-161 -694h-121z" />
    <glyph glyph-name="uni0209" unicode="&#x209;" horiz-adv-x="229" 
d="M309 540l-69 162l110 60l25 -185zM138 540l-65 162l105 59l26 -184zM61 0l112 486h113l-112 -486h-113z" />
    <glyph glyph-name="uni020A" unicode="&#x20a;" horiz-adv-x="280" 
d="M214 732l-47 41c36 97 112 160 195 160c81 0 135 -55 127 -143l-102 -57c9 61 -18 102 -64 102c-45 0 -90 -39 -109 -103zM79 0l161 694h121l-160 -694h-122z" />
    <glyph glyph-name="uni020B" unicode="&#x20b;" horiz-adv-x="234" 
d="M156 551l-44 42c35 96 108 159 185 159s127 -55 118 -142l-94 -58c9 61 -16 102 -59 102c-42 0 -86 -38 -106 -103zM62 0l112 486h113l-112 -486h-113z" />
    <glyph glyph-name="uni020C" unicode="&#x20c;" 
d="M666 751l-114 127l104 85l77 -157zM458 751l-113 127l103 85l77 -157zM349 -9c-186 0 -278 140 -229 351c50 217 210 362 402 362c189 0 282 -141 234 -351c-50 -217 -213 -362 -407 -362zM384 103c113 0 212 96 245 239c35 150 -23 249 -142 249
c-112 0 -207 -95 -240 -238c-35 -150 20 -250 137 -250z" />
    <glyph glyph-name="uni020D" unicode="&#x20d;" horiz-adv-x="496" 
d="M432 520l-63 177l107 65l23 -202zM264 520l-66 177l110 64l24 -201zM238 -10c-128 0 -190 92 -157 233c35 149 148 249 282 249c127 0 189 -92 156 -234c-34 -149 -147 -248 -281 -248zM272 98c62 0 112 49 130 128c19 83 -11 138 -75 138c-62 0 -110 -49 -129 -130
c-19 -82 10 -136 74 -136z" />
    <glyph glyph-name="uni020E" unicode="&#x20e;" 
d="M430 732l-46 41c36 97 112 160 194 160s136 -55 128 -143l-102 -57c9 61 -17 102 -63 102c-45 0 -91 -39 -111 -103zM349 -9c-186 0 -278 140 -229 351c50 217 210 362 402 362c189 0 282 -141 234 -351c-50 -217 -213 -362 -407 -362zM384 103c113 0 212 96 245 239
c35 150 -23 249 -142 249c-112 0 -207 -95 -240 -238c-35 -150 20 -250 137 -250z" />
    <glyph glyph-name="uni020F" unicode="&#x20f;" horiz-adv-x="496" 
d="M283 535l-43 49c36 102 109 168 186 168c75 0 125 -58 115 -149l-99 -67c11 70 -11 118 -53 118c-41 0 -84 -44 -106 -119zM238 -10c-129 0 -190 92 -157 233c35 149 147 249 282 249c128 0 190 -92 157 -234c-34 -149 -147 -248 -282 -248zM272 98c62 0 112 49 130 128
c19 83 -10 138 -74 138c-62 0 -111 -49 -130 -130c-19 -82 10 -136 74 -136z" />
    <glyph glyph-name="uni0210" unicode="&#x210;" horiz-adv-x="606" 
d="M607 751l-114 127l103 85l78 -157zM400 751l-114 127l103 85l76 -157zM77 0l161 694h240c141 0 213 -74 183 -202c-22 -94 -86 -168 -169 -206l96 -286h-144l-78 259h-109l-60 -259h-120zM437 582h-105l-50 -214h121c67 0 113 39 128 104c16 69 -19 110 -94 110z" />
    <glyph glyph-name="uni0211" unicode="&#x211;" horiz-adv-x="350" 
d="M377 520l-62 177l107 65l22 -202zM207 520l-63 177l107 64l25 -201zM59 0l106 462h90l-6 -72c43 48 96 77 146 77c22 0 44 -6 60 -17l-50 -111c-14 8 -34 13 -54 13c-38 0 -78 -19 -110 -52l-69 -300h-113z" />
    <glyph glyph-name="uni0212" unicode="&#x212;" horiz-adv-x="606" 
d="M371 732l-46 41c36 97 112 160 194 160s136 -55 128 -143l-102 -57c9 61 -18 102 -64 102c-45 0 -90 -39 -110 -103zM77 0l161 694h240c141 0 213 -74 183 -202c-22 -94 -86 -168 -169 -206l96 -286h-144l-78 259h-109l-60 -259h-120zM437 582h-105l-50 -214h121
c67 0 113 39 128 104c16 69 -19 110 -94 110z" />
    <glyph glyph-name="uni0213" unicode="&#x213;" horiz-adv-x="355" 
d="M226 536l-42 48c36 101 110 168 186 168s126 -58 116 -149l-97 -66c11 70 -11 117 -54 117c-42 0 -87 -43 -109 -118zM60 0l107 462h89l-5 -72c43 48 95 77 145 77c22 0 44 -6 60 -17l-50 -111c-14 8 -33 13 -53 13c-38 0 -79 -19 -111 -52l-69 -300h-113z" />
    <glyph glyph-name="uni0214" unicode="&#x214;" horiz-adv-x="657" 
d="M637 751l-113 127l103 85l77 -157zM430 751l-114 127l104 85l76 -157zM320 -10c-158 0 -232 104 -194 270l100 434h120l-98 -424c-24 -105 16 -168 113 -168c86 0 150 56 172 150l102 442h118l-99 -427c-39 -167 -170 -277 -334 -277z" />
    <glyph glyph-name="uni0215" unicode="&#x215;" horiz-adv-x="498" 
d="M432 540l-66 162l105 60l29 -185zM265 540l-70 162l108 59l28 -184zM276 486l-65 -282c-13 -57 -2 -101 54 -101c30 0 61 13 90 35l80 348h113l-112 -486h-81l-7 53c-47 -40 -99 -61 -148 -61c-91 0 -135 72 -109 184l72 310h113z" />
    <glyph glyph-name="uni0216" unicode="&#x216;" horiz-adv-x="657" 
d="M402 732l-47 41c37 97 113 160 195 160c81 0 136 -55 128 -143l-102 -57c9 61 -19 102 -65 102c-45 0 -90 -39 -109 -103zM320 -10c-158 0 -232 104 -194 270l100 434h120l-98 -424c-24 -105 16 -168 113 -168c86 0 150 56 172 150l102 442h118l-99 -427
c-39 -167 -170 -277 -334 -277z" />
    <glyph glyph-name="uni0217" unicode="&#x217;" horiz-adv-x="500" 
d="M282 551l-45 42c35 96 107 159 185 159c76 0 126 -55 117 -142l-97 -58c9 61 -16 102 -58 102c-41 0 -83 -38 -102 -103zM276 486l-65 -282c-13 -57 -1 -101 55 -101c30 0 60 13 89 35l80 348h113l-112 -486h-81l-7 53c-47 -40 -99 -61 -148 -61c-91 0 -134 72 -108 184
l71 310h113z" />
    <glyph glyph-name="uni0218" unicode="&#x218;" horiz-adv-x="542" 
d="M255 -10c-74 0 -149 21 -210 55l57 104c57 -29 126 -43 185 -43c80 0 128 31 140 82c33 141 -325 63 -270 300c30 131 154 216 308 216c63 0 127 -15 176 -41l-58 -102c-41 19 -98 30 -152 30c-80 0 -132 -30 -144 -83c-32 -140 327 -53 269 -304
c-30 -130 -143 -214 -301 -214zM136 -227c25 37 50 100 65 167h111c-14 -62 -46 -118 -95 -167h-81z" />
    <glyph glyph-name="uni0219" unicode="&#x219;" horiz-adv-x="418" 
d="M198 -10c-59 0 -118 14 -162 38l46 92c41 -18 95 -30 137 -30c49 0 81 18 88 47c19 83 -236 18 -197 188c22 94 107 147 230 147c49 0 97 -9 133 -25l-45 -95c-37 12 -78 20 -113 20c-53 0 -88 -17 -94 -44c-18 -77 239 -20 199 -191c-21 -91 -103 -147 -222 -147z
M81 -227c23 37 48 100 63 167h106c-14 -62 -46 -118 -93 -167h-76z" />
    <glyph glyph-name="uni021A" unicode="&#x21a;" horiz-adv-x="563" 
d="M222 0l134 581h-206l26 113h533l-27 -113h-207l-134 -581h-119zM149 -227c24 37 50 100 65 167h110c-14 -62 -46 -118 -95 -167h-80z" />
    <glyph glyph-name="uni021B" unicode="&#x21b;" horiz-adv-x="332" 
d="M223 -7c-95 0 -138 58 -117 150l50 217h-58l23 102h58l39 165h112l-38 -165h106l-23 -102h-107l-47 -205c-9 -39 11 -63 51 -63c13 0 29 2 42 8l1 -90c-30 -10 -63 -17 -92 -17zM58 -225c25 37 50 101 65 167h106c-14 -62 -46 -118 -93 -167h-78z" />
    <glyph glyph-name="uni022A" unicode="&#x22a;" 
d="M425 966l23 102h314l-24 -102h-313zM424 762c-45 0 -65 30 -54 78s46 79 91 79s66 -31 55 -79s-47 -78 -92 -78zM634 762c-45 0 -66 30 -55 78s47 79 92 79c44 0 65 -31 54 -79s-47 -78 -91 -78zM349 -9c-186 0 -278 140 -229 351c50 217 210 362 402 362
c189 0 282 -141 234 -351c-50 -217 -213 -362 -407 -362zM384 103c113 0 212 96 245 239c35 150 -23 249 -142 249c-112 0 -207 -95 -240 -238c-35 -150 20 -250 137 -250z" />
    <glyph glyph-name="uni022B" unicode="&#x22b;" horiz-adv-x="501" 
d="M273 746l23 102h298l-24 -102h-297zM277 529c-39 0 -58 28 -48 71c10 45 42 72 81 72c38 0 57 -27 47 -72c-10 -43 -42 -71 -80 -71zM466 529c-38 0 -57 28 -47 71c10 45 42 72 80 72c39 0 57 -27 47 -72c-10 -43 -41 -71 -80 -71zM240 -10c-130 0 -192 92 -159 233
c35 149 149 249 285 249c129 0 192 -92 159 -234c-34 -149 -149 -248 -285 -248zM275 98c63 0 115 49 133 128c19 83 -12 138 -78 138c-63 0 -113 -49 -132 -130c-19 -82 11 -136 77 -136z" />
    <glyph glyph-name="uni022C" unicode="&#x22c;" 
d="M432 992l23 102h314l-24 -102h-313zM435 755l-70 20c34 83 92 131 146 131c53 0 70 -47 103 -47c20 0 42 17 59 49l69 -21c-31 -80 -89 -127 -151 -127c-58 0 -66 45 -99 45c-20 0 -41 -18 -57 -50zM349 -9c-186 0 -278 140 -229 351c50 217 210 362 402 362
c189 0 282 -141 234 -351c-50 -217 -213 -362 -407 -362zM384 103c113 0 212 96 245 239c35 150 -23 249 -142 249c-112 0 -207 -95 -240 -238c-35 -150 20 -250 137 -250z" />
    <glyph glyph-name="uni022D" unicode="&#x22d;" horiz-adv-x="496" 
d="M280 777l24 102h291l-23 -102h-292zM283 548l-66 21c33 83 87 131 137 131c49 0 64 -47 95 -47c19 0 40 18 56 50l66 -22c-30 -80 -85 -127 -143 -127c-54 0 -61 45 -91 45c-18 0 -39 -18 -54 -51zM238 -10c-128 0 -190 92 -157 233c35 149 148 249 282 249
c127 0 189 -92 156 -234c-34 -149 -147 -248 -281 -248zM272 98c62 0 112 49 130 128c19 83 -11 138 -75 138c-62 0 -110 -49 -129 -130c-19 -82 10 -136 74 -136z" />
    <glyph glyph-name="uni0230" unicode="&#x230;" 
d="M429 986l24 102h313l-23 -102h-314zM518 762c-45 0 -65 31 -54 79s46 79 91 79s66 -31 55 -79s-47 -79 -92 -79zM349 -9c-186 0 -278 140 -229 351c50 217 210 362 402 362c189 0 282 -141 234 -351c-50 -217 -213 -362 -407 -362zM384 103c113 0 212 96 245 239
c35 150 -23 249 -142 249c-112 0 -207 -95 -240 -238c-35 -150 20 -250 137 -250z" />
    <glyph glyph-name="uni0231" unicode="&#x231;" horiz-adv-x="501" 
d="M273 746l23 102h297l-24 -102h-296zM371 529c-38 0 -57 28 -47 71c10 45 42 72 80 72c39 0 57 -27 47 -72c-10 -43 -41 -71 -80 -71zM240 -10c-130 0 -192 92 -159 233c35 149 148 249 284 249c129 0 192 -92 159 -234c-34 -149 -148 -248 -284 -248zM275 98
c63 0 114 49 132 128c19 83 -11 138 -77 138c-63 0 -113 -49 -132 -130c-19 -82 11 -136 77 -136z" />
    <glyph glyph-name="uni0232" unicode="&#x232;" horiz-adv-x="585" 
d="M318 778l24 102h313l-23 -102h-314zM236 0l63 274l-140 420h142l89 -308l223 308h133l-327 -422l-63 -272h-120z" />
    <glyph glyph-name="uni0233" unicode="&#x233;" horiz-adv-x="434" 
d="M203 591l24 102h288l-24 -102h-288zM38 -217l125 217l-49 486h120l15 -364l186 364h109l-271 -486l-117 -217h-118z" />
    <glyph glyph-name="uni0237" unicode="&#x237;" horiz-adv-x="239" 
d="M-33 -230l-16 70c53 34 95 90 108 148l109 474h114l-108 -468c-23 -98 -103 -184 -207 -224z" />
    <glyph glyph-name="uni0259" unicode="&#x259;" horiz-adv-x="461" 
d="M305 472c145 0 212 -90 178 -239c-33 -145 -140 -243 -267 -243c-113 0 -165 80 -136 207c5 21 14 50 21 69h274c4 72 -35 109 -111 109c-35 0 -75 -9 -112 -23l-5 86c51 22 107 34 158 34zM247 88c51 0 90 34 111 98h-174c-14 -63 8 -98 63 -98z" />
    <glyph glyph-name="uni02B9" unicode="&#x2b9;" horiz-adv-x="309" 
d="M170 414l102 285h127l-131 -285h-98z" />
    <glyph glyph-name="uni02BA" unicode="&#x2ba;" horiz-adv-x="499" 
d="M174 414l103 285h125l-131 -285h-97zM365 414l102 285h127l-132 -285h-97z" />
    <glyph glyph-name="uni02BB" unicode="&#x2bb;" horiz-adv-x="282" 
d="M375 731c-24 -34 -49 -96 -64 -162h-113c16 70 42 121 83 162h94z" />
    <glyph glyph-name="uni02BC" unicode="&#x2bc;" horiz-adv-x="268" 
d="M147 467c46 81 93 203 112 286h129c-18 -76 -84 -205 -140 -286h-101z" />
    <glyph glyph-name="uni02BE" unicode="&#x2be;" horiz-adv-x="225" 
d="M187 552l17 70c30 1 49 14 54 36c5 23 -8 35 -38 35l16 70c78 0 111 -35 95 -104s-66 -106 -144 -107z" />
    <glyph glyph-name="uni02BF" unicode="&#x2bf;" horiz-adv-x="226" 
d="M293 552c-77 1 -110 38 -94 107s66 104 143 104l-17 -70c-29 0 -47 -12 -52 -35c-5 -22 7 -35 36 -36z" />
    <glyph glyph-name="circumflex" unicode="&#x2c6;" horiz-adv-x="366" 
d="M160 591l163 154h61l96 -132l-80 -67l-79 91l-122 -90z" />
    <glyph glyph-name="caron" unicode="&#x2c7;" horiz-adv-x="366" 
d="M282 557l-101 131l85 66l74 -97l125 97l38 -44l-161 -153h-60z" />
    <glyph glyph-name="uni02C8" unicode="&#x2c8;" horiz-adv-x="217" 
d="M331 755l-52 -194h-81l37 194h96z" />
    <glyph glyph-name="uni02C9" unicode="&#x2c9;" horiz-adv-x="446" 
d="M205 591l23 102h314l-24 -102h-313z" />
    <glyph glyph-name="uni02CA" unicode="&#x2ca;" horiz-adv-x="250" 
d="M216 546l-45 48l142 168l71 -77z" />
    <glyph glyph-name="uni02CB" unicode="&#x2cb;" horiz-adv-x="253" 
d="M287 546l-104 139l106 77l64 -168z" />
    <glyph glyph-name="uni02CC" unicode="&#x2cc;" horiz-adv-x="217" 
d="M7 -235l51 195h82l-37 -195h-96z" />
    <glyph glyph-name="breve" unicode="&#x2d8;" horiz-adv-x="403" 
d="M310 551c-84 0 -138 55 -131 143l101 57c-8 -61 20 -102 68 -102c47 0 93 39 113 103l47 -41c-36 -97 -114 -160 -198 -160z" />
    <glyph glyph-name="dotaccent" unicode="&#x2d9;" horiz-adv-x="255" 
d="M246 576c-45 0 -66 30 -55 78s47 79 92 79s65 -31 54 -79s-46 -78 -91 -78z" />
    <glyph glyph-name="ring" unicode="&#x2da;" horiz-adv-x="310" 
d="M281 551c-64 0 -96 47 -80 117s70 117 137 117c64 0 98 -46 82 -114c-17 -72 -72 -120 -139 -120zM301 623c23 0 44 18 50 45s-7 45 -32 45c-24 0 -44 -17 -50 -42c-7 -29 6 -48 32 -48z" />
    <glyph glyph-name="ogonek" unicode="&#x2db;" horiz-adv-x="550" 
d="M294 -254c-75 0 -110 44 -95 109c18 76 93 139 198 166l45 -21c-68 -28 -119 -75 -129 -120c-7 -29 7 -50 34 -50c11 0 30 4 44 10l-7 -71c-27 -15 -58 -23 -90 -23z" />
    <glyph glyph-name="tilde" unicode="&#x2dc;" horiz-adv-x="429" 
d="M245 561l-70 20c35 83 92 131 147 131c52 0 69 -47 102 -47c21 0 43 17 60 49l68 -21c-30 -80 -89 -127 -150 -127c-58 0 -67 45 -100 45c-19 0 -40 -18 -57 -50z" />
    <glyph glyph-name="hungarumlaut" unicode="&#x2dd;" horiz-adv-x="443" 
d="M210 540l-55 37l118 185l86 -60zM390 540l-54 37l118 184l86 -59z" />
    <glyph glyph-name="gravecomb" unicode="&#x300;" horiz-adv-x="4" 
d="M287 546l-104 139l106 77l64 -168z" />
    <glyph glyph-name="acutecomb" unicode="&#x301;" horiz-adv-x="4" 
d="M216 546l-45 48l142 168l71 -77z" />
    <glyph glyph-name="uni0302" unicode="&#x302;" horiz-adv-x="6" 
d="M166 591l163 154h60l97 -132l-81 -67l-78 91l-122 -90z" />
    <glyph glyph-name="tildecomb" unicode="&#x303;" horiz-adv-x="7" 
d="M248 561l-70 20c34 83 91 131 145 131c53 0 71 -47 104 -47c20 0 42 17 59 49l69 -21c-31 -80 -89 -127 -151 -127c-58 0 -66 45 -99 45c-20 0 -41 -18 -57 -50z" />
    <glyph glyph-name="uni0304" unicode="&#x304;" horiz-adv-x="6" 
d="M205 591l23 102h314l-24 -102h-313z" />
    <glyph glyph-name="uni0306" unicode="&#x306;" horiz-adv-x="6" 
d="M323 551c-85 0 -138 55 -131 143l101 57c-8 -61 19 -102 67 -102c47 0 93 39 113 103l48 -41c-36 -97 -115 -160 -198 -160z" />
    <glyph glyph-name="uni0307" unicode="&#x307;" horiz-adv-x="3" 
d="M261 576c-45 0 -66 30 -55 78s46 79 91 79c44 0 66 -31 55 -79s-47 -78 -91 -78z" />
    <glyph glyph-name="uni0308" unicode="&#x308;" horiz-adv-x="7" 
d="M261 576c-45 0 -66 30 -55 78s46 79 91 79c44 0 66 -31 55 -79s-47 -78 -91 -78zM470 576c-45 0 -65 30 -54 78s46 79 91 79s66 -31 55 -79s-47 -78 -92 -78z" />
    <glyph glyph-name="hookabovecomb" unicode="&#x309;" horiz-adv-x="4" 
d="M248 547l-6 60c32 15 55 39 61 63c4 19 -8 32 -29 32c-17 0 -39 -7 -64 -19l-9 79c42 21 85 32 118 32c63 0 96 -38 83 -95c-14 -60 -70 -117 -154 -152z" />
    <glyph glyph-name="uni030A" unicode="&#x30a;" horiz-adv-x="4" 
d="M282 551c-64 0 -96 47 -80 117s71 117 137 117c65 0 98 -46 82 -114c-17 -72 -72 -120 -139 -120zM302 623c24 0 44 18 50 45s-6 45 -32 45c-23 0 -44 -17 -50 -42c-7 -29 7 -48 32 -48z" />
    <glyph glyph-name="uni030B" unicode="&#x30b;" horiz-adv-x="7" 
d="M233 540l-54 37l118 185l85 -60zM414 540l-54 37l118 184l86 -59z" />
    <glyph glyph-name="uni030C" unicode="&#x30c;" horiz-adv-x="6" 
d="M282 557l-101 131l85 66l74 -97l125 97l38 -44l-161 -153h-60z" />
    <glyph glyph-name="uni030D" unicode="&#x30d;" horiz-adv-x="2" 
d="M331 755l-52 -194h-81l37 194h96z" />
    <glyph glyph-name="uni030F" unicode="&#x30f;" horiz-adv-x="7" 
d="M453 540l-75 162l113 60l33 -185zM272 540l-74 162l112 59l33 -184z" />
    <glyph glyph-name="uni0311" unicode="&#x311;" horiz-adv-x="6" 
d="M233 551l-46 42c36 96 112 159 194 159s136 -55 128 -142l-102 -58c9 61 -18 102 -64 102c-45 0 -89 -38 -110 -103z" />
    <glyph glyph-name="uni0312" unicode="&#x312;" horiz-adv-x="3" 
d="M375 731c-24 -34 -49 -96 -64 -162h-113c16 70 42 121 83 162h94z" />
    <glyph glyph-name="uni031B" unicode="&#x31b;" horiz-adv-x="3" 
d="M138 318l17 73c41 0 77 38 90 94c8 34 6 68 -5 97h110c12 -29 13 -62 4 -100c-24 -103 -107 -164 -216 -164z" />
    <glyph glyph-name="dotbelowcomb" unicode="&#x323;" horiz-adv-x="3" 
d="M83 -210c-45 0 -65 30 -54 78s45 79 90 79s67 -31 56 -79s-47 -78 -92 -78z" />
    <glyph glyph-name="uni0324" unicode="&#x324;" horiz-adv-x="7" 
d="M83 -211c-45 0 -66 30 -55 78s46 79 91 79s66 -31 55 -79s-46 -78 -91 -78zM293 -211c-45 0 -66 30 -55 78s46 79 91 79c44 0 66 -31 55 -79s-47 -78 -91 -78z" />
    <glyph glyph-name="uni0326" unicode="&#x326;" horiz-adv-x="2" 
d="M-3 -227c25 37 50 100 65 167h110c-14 -62 -45 -118 -94 -167h-81z" />
    <glyph glyph-name="uni0327" unicode="&#x327;" horiz-adv-x="5" 
d="M78 -257c-38 0 -72 8 -95 23l32 71c19 -10 49 -16 73 -16c31 0 50 11 54 30c6 28 -22 46 -83 50l45 111h81l-26 -63c67 -11 93 -43 81 -97c-16 -68 -76 -109 -162 -109z" />
    <glyph glyph-name="uni0328" unicode="&#x328;" horiz-adv-x="4" 
d="M294 -254c-75 0 -110 44 -95 109c18 76 93 139 198 166l45 -21c-68 -28 -119 -75 -129 -120c-7 -29 7 -50 34 -50c11 0 30 4 44 10l-7 -71c-27 -15 -58 -23 -90 -23z" />
    <glyph glyph-name="uni0329" unicode="&#x329;" horiz-adv-x="2" 
d="M7 -235l51 195h82l-37 -195h-96z" />
    <glyph glyph-name="uni032E" unicode="&#x32e;" horiz-adv-x="7" 
d="M152 -220c-77 0 -129 49 -137 123l93 54c8 -51 37 -81 81 -81c46 0 84 27 111 81l51 -35c-46 -90 -116 -142 -199 -142z" />
    <glyph glyph-name="uni0331" unicode="&#x331;" horiz-adv-x="6" 
d="M27 -189l24 101h309l-23 -101h-310z" />
    <glyph glyph-name="uni0335" unicode="&#x335;" horiz-adv-x="6" 
d="M117 257l19 83h294l-19 -83h-294z" />
    <glyph glyph-name="uni0336" unicode="&#x336;" horiz-adv-x="14" 
d="M139 293l22 98h677l-22 -98h-677z" />
    <glyph glyph-name="uni0337" unicode="&#x337;" horiz-adv-x="6" 
d="M112 161l-26 78l297 150l22 -79z" />
    <glyph glyph-name="uni0338" unicode="&#x338;" horiz-adv-x="8" 
d="M50 -67l-44 36l487 571l47 -36z" />
    <glyph glyph-name="pi" unicode="&#x3c0;" horiz-adv-x="568" 
d="M89 0l83 360h-73l23 102h511l-24 -102h-77l-47 -203c-10 -41 0 -64 27 -64c10 0 23 3 35 8l-1 -87c-29 -14 -59 -23 -88 -23c-79 0 -113 54 -91 148l51 221h-132l-83 -360h-114z" />
    <glyph glyph-name="uni0400" unicode="&#x400;" horiz-adv-x="559" 
d="M467 739l-149 112l93 100l118 -144zM77 0l161 694h435l-26 -113h-316l-39 -169h290l-26 -113h-290l-43 -186h316l-26 -113h-436z" />
    <glyph glyph-name="uni0401" unicode="&#x401;" horiz-adv-x="559" 
d="M348 762c-45 0 -66 30 -55 78s46 79 91 79c44 0 66 -31 55 -79s-47 -78 -91 -78zM557 762c-44 0 -65 30 -54 78s47 79 91 79c45 0 66 -31 55 -79s-47 -78 -92 -78zM77 0l161 694h435l-26 -113h-316l-39 -169h290l-26 -113h-290l-43 -186h316l-26 -113h-436z" />
    <glyph glyph-name="uni0402" unicode="&#x402;" horiz-adv-x="745" 
d="M222 0l134 581h-200l26 113h538l-26 -113h-220l-44 -192c58 40 123 63 186 63c122 0 184 -83 155 -208c-33 -144 -159 -241 -322 -249l14 101c95 9 166 61 183 136c15 65 -22 109 -94 109c-47 0 -100 -20 -145 -52l-67 -289h-118z" />
    <glyph glyph-name="uni0403" unicode="&#x403;" horiz-adv-x="511" 
d="M419 739l-31 68l184 144l47 -100zM78 0l160 694h422l-27 -116h-300l-134 -578h-121z" />
    <glyph glyph-name="uni0404" unicode="&#x404;" horiz-adv-x="608" 
d="M372 -10c-198 0 -301 141 -253 351c50 218 227 363 435 363c66 0 129 -15 178 -43l-57 -100c-40 18 -100 29 -150 29c-126 0 -223 -68 -266 -188h331l-24 -105h-328c-6 -120 63 -194 189 -194c45 0 103 10 150 27l5 -93c-62 -29 -140 -47 -210 -47z" />
    <glyph glyph-name="uni0405" unicode="&#x405;" horiz-adv-x="542" 
d="M255 -10c-74 0 -149 21 -210 55l57 104c57 -29 126 -43 185 -43c80 0 128 31 140 82c33 141 -325 63 -270 300c30 131 154 216 308 216c63 0 127 -15 176 -41l-58 -102c-41 19 -98 30 -152 30c-80 0 -132 -30 -144 -83c-32 -140 327 -53 269 -304
c-30 -130 -143 -214 -301 -214z" />
    <glyph glyph-name="uni0406" unicode="&#x406;" horiz-adv-x="276" 
d="M77 0l161 694h121l-160 -694h-122z" />
    <glyph glyph-name="uni0407" unicode="&#x407;" horiz-adv-x="281" 
d="M208 762c-44 0 -66 30 -55 78s47 79 91 79c45 0 66 -31 55 -79s-46 -78 -91 -78zM418 762c-45 0 -67 30 -56 78s47 79 92 79s65 -31 54 -79s-45 -78 -90 -78zM80 0l160 694h122l-160 -694h-122z" />
    <glyph glyph-name="uni0408" unicode="&#x408;" horiz-adv-x="415" 
d="M145 -10c-46 0 -87 11 -121 35l57 100c22 -13 55 -21 82 -21c57 0 96 38 112 108l112 482h120l-109 -472c-34 -148 -127 -232 -253 -232z" />
    <glyph glyph-name="uni0409" unicode="&#x409;" horiz-adv-x="1023" 
d="M118 -10c-44 0 -79 13 -105 35l54 97c16 -12 37 -19 57 -19c54 0 92 48 115 148l102 443h445l-60 -258h153c128 0 195 -84 166 -209c-31 -135 -155 -227 -306 -227h-231l134 583h-213l-72 -315c-43 -187 -121 -278 -239 -278zM833 333h-130l-53 -228h128
c74 0 123 37 139 105c17 72 -18 123 -84 123z" />
    <glyph glyph-name="uni040A" unicode="&#x40a;" horiz-adv-x="1008" 
d="M77 0l161 694h121l-64 -281h295l65 281h122l-60 -258h147c128 0 196 -84 167 -209c-31 -135 -154 -227 -306 -227h-230l69 298h-296l-69 -298h-122zM818 333h-124l-53 -228h124c73 0 121 37 137 105c17 72 -18 123 -84 123z" />
    <glyph glyph-name="uni040B" unicode="&#x40b;" horiz-adv-x="744" 
d="M219 0l134 581h-197l26 113h534l-26 -113h-218l-45 -194c54 27 113 42 170 42c125 0 188 -72 161 -190l-55 -239h-119l51 217c15 66 -22 101 -103 101c-43 0 -87 -10 -127 -27l-67 -291h-119z" />
    <glyph glyph-name="uni040C" unicode="&#x40c;" horiz-adv-x="619" 
d="M456 739l-31 68l184 144l47 -100zM77 0l161 694h120l-65 -278h105l237 278h130l-280 -325l130 -369h-137l-106 304h-104l-71 -304h-120z" />
    <glyph glyph-name="uni040D" unicode="&#x40d;" horiz-adv-x="709" 
d="M541 739l-148 112l92 100l118 -144zM77 0l161 694h119l-119 -512l422 512h133l-160 -694h-119l117 511l-424 -511h-130z" />
    <glyph glyph-name="uni040E" unicode="&#x40e;" horiz-adv-x="595" 
d="M479 754c-98 0 -153 55 -147 147l94 48c-5 -64 28 -106 79 -106c52 0 98 38 125 105l73 -43c-34 -93 -121 -151 -224 -151zM130 0l176 240l-140 454h144l90 -335l228 335h122l-489 -694h-131z" />
    <glyph glyph-name="uni040F" unicode="&#x40f;" horiz-adv-x="695" 
d="M254 -187l43 187h-220l161 694h119l-135 -582h303l135 582h119l-160 -694h-211l-43 -187h-111z" />
    <glyph glyph-name="uni0410" unicode="&#x410;" horiz-adv-x="643" 
d="M15 0l396 694h153l64 -694h-133l-12 174h-248l-93 -174h-127zM297 289h178l-21 294z" />
    <glyph glyph-name="uni0411" unicode="&#x411;" horiz-adv-x="592" 
d="M77 0l161 694h412l-25 -112h-294l-36 -156h151c129 0 195 -81 167 -204c-31 -134 -152 -222 -305 -222h-231zM221 105h127c75 0 123 34 138 100c16 71 -19 118 -86 118h-129z" />
    <glyph glyph-name="uni0412" unicode="&#x412;" horiz-adv-x="605" 
d="M77 0l161 694h213c149 0 217 -58 192 -165c-13 -55 -49 -106 -97 -135c68 -29 96 -92 76 -179c-30 -132 -148 -215 -304 -215h-241zM333 590l-42 -180h151c41 22 64 50 72 86c14 60 -21 94 -96 94h-85zM220 104h138c78 0 121 30 136 94c15 67 -17 111 -87 111h-139z" />
    <glyph glyph-name="uni0413" unicode="&#x413;" horiz-adv-x="511" 
d="M78 0l160 694h422l-27 -116h-300l-134 -578h-121z" />
    <glyph glyph-name="uni0414" unicode="&#x414;" horiz-adv-x="750" 
d="M-20 -183l68 295h61c62 15 112 96 145 239l79 343h441l-134 -582h114l-69 -295h-111l42 183h-483l-42 -183h-111zM369 353c-26 -111 -66 -192 -122 -241h275l109 472h-208z" />
    <glyph glyph-name="uni0415" unicode="&#x415;" horiz-adv-x="559" 
d="M77 0l161 694h435l-26 -113h-316l-39 -169h290l-26 -113h-290l-43 -186h316l-26 -113h-436z" />
    <glyph glyph-name="uni0416" unicode="&#x416;" horiz-adv-x="932" 
d="M10 0l286 354l-112 340h142l89 -281h88l65 281h120l-65 -281h87l223 281h139l-267 -326l116 -368h-138l-94 300h-92l-69 -300h-120l69 300h-95l-236 -300h-136z" />
    <glyph glyph-name="uni0417" unicode="&#x417;" horiz-adv-x="555" 
d="M238 -10c-74 0 -138 17 -198 52l52 106c54 -29 122 -43 179 -43c86 0 146 34 160 96c15 65 -35 101 -138 101h-94l24 104h106c80 0 139 36 153 95c13 55 -27 88 -109 88c-55 0 -112 -15 -178 -42l-4 100c72 36 152 57 230 57c146 0 221 -70 195 -182
c-18 -79 -75 -136 -149 -153c78 -20 112 -81 93 -165c-30 -130 -157 -214 -322 -214z" />
    <glyph glyph-name="uni0418" unicode="&#x418;" horiz-adv-x="709" 
d="M77 0l161 694h119l-119 -512l422 512h133l-160 -694h-119l117 511l-424 -511h-130z" />
    <glyph glyph-name="uni0419" unicode="&#x419;" horiz-adv-x="709" 
d="M535 754c-97 0 -152 55 -146 147l94 48c-5 -64 28 -106 79 -106c52 0 97 38 125 105l73 -43c-34 -93 -121 -151 -225 -151zM77 0l161 694h119l-119 -512l422 512h133l-160 -694h-119l117 511l-424 -511h-130z" />
    <glyph glyph-name="uni041A" unicode="&#x41a;" horiz-adv-x="619" 
d="M77 0l161 694h120l-65 -278h105l237 278h130l-280 -325l130 -369h-137l-106 304h-104l-71 -304h-120z" />
    <glyph glyph-name="uni041B" unicode="&#x41b;" horiz-adv-x="703" 
d="M118 -10c-44 0 -79 13 -105 35l54 97c16 -12 37 -19 57 -19c54 0 92 48 115 148l102 443h445l-160 -694h-118l134 583h-213l-72 -315c-43 -187 -121 -278 -239 -278z" />
    <glyph glyph-name="uni041C" unicode="&#x41c;" horiz-adv-x="822" 
d="M77 0l161 694h118l115 -450l318 450h116l-160 -694h-116l111 480l-259 -373h-93l-87 359l-107 -466h-117z" />
    <glyph glyph-name="uni041D" unicode="&#x41d;" horiz-adv-x="694" 
d="M77 0l161 694h121l-64 -281h295l65 281h122l-160 -694h-122l69 298h-296l-69 -298h-122z" />
    <glyph glyph-name="uni041E" unicode="&#x41e;" 
d="M349 -9c-186 0 -278 140 -229 351c50 217 210 362 402 362c189 0 282 -141 234 -351c-50 -217 -213 -362 -407 -362zM384 103c113 0 212 96 245 239c35 150 -23 249 -142 249c-112 0 -207 -95 -240 -238c-35 -150 20 -250 137 -250z" />
    <glyph glyph-name="uni041F" unicode="&#x41f;" horiz-adv-x="675" 
d="M77 0l161 694h520l-160 -694h-118l135 583h-285l-135 -583h-118z" />
    <glyph glyph-name="uni0420" unicode="&#x420;" horiz-adv-x="576" 
d="M77 0l161 694h221c151 0 225 -87 193 -226c-34 -148 -162 -245 -322 -245h-81l-52 -223h-120zM422 581h-91l-56 -246h102c76 0 130 42 147 117c18 77 -23 129 -102 129z" />
    <glyph glyph-name="uni0421" unicode="&#x421;" horiz-adv-x="591" 
d="M362 -10c-194 0 -292 141 -244 351c50 218 222 363 427 363c64 0 124 -15 172 -43l-56 -100c-38 18 -94 29 -146 29c-136 0 -235 -84 -269 -231c-36 -156 29 -256 171 -256c45 0 99 10 145 27l6 -93c-62 -29 -140 -47 -206 -47z" />
    <glyph glyph-name="uni0422" unicode="&#x422;" horiz-adv-x="563" 
d="M222 0l134 581h-206l26 113h533l-27 -113h-207l-134 -581h-119z" />
    <glyph glyph-name="uni0423" unicode="&#x423;" horiz-adv-x="595" 
d="M130 0l176 240l-140 454h144l90 -335l228 335h122l-489 -694h-131z" />
    <glyph glyph-name="uni0424" unicode="&#x424;" horiz-adv-x="761" 
d="M316 -20l19 80c-177 17 -259 120 -221 284c38 166 167 271 353 290l19 80h118l-18 -79c177 -17 260 -120 222 -284c-38 -166 -168 -271 -355 -290l-18 -81h-119zM236 351c-22 -97 23 -161 125 -178l81 351c-110 -16 -184 -78 -206 -173zM686 343c22 97 -23 162 -126 179
l-81 -351c111 16 185 77 207 172z" />
    <glyph glyph-name="uni0425" unicode="&#x425;" horiz-adv-x="606" 
d="M8 0l311 361l-134 333h142l82 -227l187 227h139l-288 -329l153 -365h-144l-97 261l-212 -261h-139z" />
    <glyph glyph-name="uni0426" unicode="&#x426;" horiz-adv-x="725" 
d="M549 -183l43 183h-515l161 694h119l-135 -582h273l134 582h118l-134 -582h116l-68 -295h-112z" />
    <glyph glyph-name="uni0427" unicode="&#x427;" horiz-adv-x="606" 
d="M300 245c-120 0 -182 72 -155 190l60 259h119l-55 -236c-15 -66 22 -101 96 -101c46 0 95 13 136 33l70 304h118l-160 -694h-118l68 295c-56 -32 -122 -50 -179 -50z" />
    <glyph glyph-name="uni0428" unicode="&#x428;" horiz-adv-x="967" 
d="M77 0l161 694h119l-135 -582h228l134 582h120l-135 -582h228l134 582h119l-160 -694h-813z" />
    <glyph glyph-name="uni0429" unicode="&#x429;" horiz-adv-x="1025" 
d="M850 -183l42 183h-815l161 694h118l-135 -582h229l134 582h119l-135 -582h230l134 582h118l-134 -582h113l-68 -295h-111z" />
    <glyph glyph-name="uni042A" unicode="&#x42a;" horiz-adv-x="690" 
d="M187 0l135 582h-166l26 112h285l-59 -253h145c122 0 188 -87 159 -211c-33 -142 -148 -230 -300 -230h-225zM331 105h121c70 0 115 38 131 108c17 73 -15 125 -77 125h-122z" />
    <glyph glyph-name="uni042B" unicode="&#x42b;" horiz-adv-x="819" 
d="M77 0l161 694h119l-59 -253h133c126 0 194 -87 165 -211c-33 -142 -150 -230 -307 -230h-212zM620 -2l160 694h121l-160 -694h-121zM221 105h108c74 0 124 38 140 108c17 73 -18 125 -84 125h-111z" />
    <glyph glyph-name="uni042C" unicode="&#x42c;" horiz-adv-x="590" 
d="M77 0l161 694h119l-59 -253h150c126 0 194 -87 165 -212c-33 -141 -151 -229 -306 -229h-230zM221 105h126c73 0 121 38 137 107c17 74 -16 126 -82 126h-128z" />
    <glyph glyph-name="uni042D" unicode="&#x42d;" horiz-adv-x="610" 
d="M226 -10c-70 0 -142 16 -188 43l56 100c45 -18 105 -29 160 -29c131 0 219 67 260 196h-329l24 105h325c5 118 -60 185 -184 185c-47 0 -108 -10 -157 -27l-5 94c64 29 147 47 217 47c198 0 295 -140 246 -353c-50 -217 -218 -361 -425 -361z" />
    <glyph glyph-name="uni042E" unicode="&#x42e;" horiz-adv-x="973" 
d="M77 0l161 694h121l-64 -281h114c64 180 203 291 371 291c190 0 282 -140 233 -352c-50 -216 -213 -361 -406 -361c-172 0 -256 116 -227 307h-112l-69 -298h-122zM641 103c114 0 214 95 247 240c34 148 -23 248 -140 248c-113 0 -202 -89 -237 -239
c-35 -153 15 -249 130 -249z" />
    <glyph glyph-name="uni042F" unicode="&#x42f;" horiz-adv-x="607" 
d="M28 0l218 256c-83 26 -118 96 -94 198c33 141 154 240 295 240h243l-161 -694h-119l56 245h-98l-196 -245h-144zM367 349h123l54 233h-140c-60 0 -108 -41 -124 -109c-17 -74 18 -124 87 -124z" />
    <glyph glyph-name="uni0430" unicode="&#x430;" horiz-adv-x="458" 
d="M173 -10c-89 0 -133 54 -114 138c23 98 115 144 299 147l2 12c12 52 -18 79 -86 79c-39 0 -84 -9 -131 -27l-7 86c57 30 126 47 187 47c125 0 175 -68 146 -194l-64 -278h-81l-5 49c-41 -38 -92 -59 -146 -59zM177 145c-8 -33 15 -55 57 -55c32 0 63 11 88 32l19 82
c-107 -2 -155 -20 -164 -59z" />
    <glyph glyph-name="uni0431" unicode="&#x431;" horiz-adv-x="493" 
d="M255 -10c-139 0 -190 119 -139 342c58 253 143 362 290 362c56 0 101 17 132 51l59 -56c-55 -74 -114 -108 -187 -108c-88 0 -129 -47 -169 -200c48 52 103 79 159 79c103 0 147 -85 117 -216c-36 -157 -137 -254 -262 -254zM338 355c-39 0 -82 -27 -118 -76
c-18 -117 6 -180 68 -180c52 0 94 50 113 131c18 77 -7 125 -63 125z" />
    <glyph glyph-name="uni0432" unicode="&#x432;" horiz-adv-x="468" 
d="M59 0l106 462h194c103 0 150 -38 133 -110c-9 -39 -32 -71 -66 -90c40 -21 55 -59 43 -112c-21 -90 -105 -150 -213 -150h-197zM338 280h2c20 11 31 25 35 43c8 33 -12 49 -53 49h-67l-21 -92h104zM190 90h89c28 0 66 9 75 49c8 35 -12 55 -53 55h-87z" />
    <glyph glyph-name="uni0433" unicode="&#x433;" horiz-adv-x="385" 
d="M60 0l106 462h318l-23 -102h-205l-83 -360h-113z" />
    <glyph glyph-name="uni0434" unicode="&#x434;" horiz-adv-x="529" 
d="M-19 -131l53 231h39c42 8 75 63 96 154l48 208h328l-83 -362h79l-53 -231h-102l31 131h-304l-31 -131h-101zM266 253c-16 -69 -42 -120 -78 -153h168l60 260h-125z" />
    <glyph glyph-name="uni0435" unicode="&#x435;" horiz-adv-x="461" 
d="M261 -10c-145 0 -212 91 -178 240c33 144 140 242 267 242c114 0 166 -80 137 -208c-5 -21 -15 -50 -22 -69h-273c-4 -72 34 -108 110 -108c35 0 75 8 112 22l5 -85c-51 -22 -108 -34 -158 -34zM320 374c-51 0 -90 -35 -112 -99h174c14 63 -8 99 -62 99z" />
    <glyph glyph-name="uni0436" unicode="&#x436;" horiz-adv-x="677" 
d="M0 0l193 228l-76 234h119l56 -175h62l40 175h105l-40 -175h61l140 175h117l-181 -219l80 -243h-115l-62 186h-64l-43 -186h-105l43 186h-63l-153 -186h-114z" />
    <glyph glyph-name="uni0437" unicode="&#x437;" horiz-adv-x="412" 
d="M172 -7c-56 0 -103 12 -144 35l45 91c34 -14 85 -24 127 -24c57 0 93 17 100 47s-28 48 -97 48h-56l21 89h62c55 0 93 18 100 46c6 27 -20 45 -73 45c-38 0 -80 -9 -128 -26l-2 86c56 28 117 42 172 42c107 0 166 -48 148 -124c-12 -53 -54 -89 -107 -100
c58 -12 85 -51 72 -107c-20 -89 -116 -148 -240 -148z" />
    <glyph glyph-name="uni0438" unicode="&#x438;" horiz-adv-x="500" 
d="M271 462l-61 -264c-12 -53 0 -95 56 -95c30 0 60 12 89 33l75 326h113l-107 -462h-81l-7 53c-47 -40 -99 -61 -148 -61c-91 0 -135 69 -110 175l68 295h113z" />
    <glyph glyph-name="uni0439" unicode="&#x439;" horiz-adv-x="515" 
d="M386 556c-91 0 -142 55 -135 146l91 48c-6 -64 23 -106 71 -106c47 0 91 39 117 105l68 -43c-33 -93 -114 -150 -212 -150zM59 0l112 486h104l-74 -320l261 320h100l-112 -486h-102l74 320l-264 -320h-99z" />
    <glyph glyph-name="uni043A" unicode="&#x43a;" horiz-adv-x="466" 
d="M60 0l106 462h111l-41 -175h74l138 175h116l-178 -216l77 -246h-120l-55 185h-75l-43 -185h-110z" />
    <glyph glyph-name="uni043B" unicode="&#x43b;" horiz-adv-x="519" 
d="M81 -14c-29 0 -53 10 -71 28l39 88c13 -8 27 -14 36 -14c37 0 63 53 76 107l62 268h341l-107 -463h-110l83 358h-129l-37 -163c-28 -122 -97 -209 -183 -209z" />
    <glyph glyph-name="uni043C" unicode="&#x43c;" horiz-adv-x="581" 
d="M59 0l106 462h99l71 -276l191 276h98l-107 -462h-98l66 283l-151 -212h-60l-55 203l-63 -274h-97z" />
    <glyph glyph-name="uni043D" unicode="&#x43d;" horiz-adv-x="515" 
d="M59 0l107 464h111l-41 -176h171l40 176h111l-107 -464h-111l43 186h-170l-43 -186h-111z" />
    <glyph glyph-name="uni043E" unicode="&#x43e;" horiz-adv-x="496" 
d="M238 -10c-128 0 -190 92 -157 233c35 149 148 249 282 249c127 0 189 -92 156 -234c-34 -149 -147 -248 -281 -248zM272 98c62 0 112 49 130 128c19 83 -11 138 -75 138c-62 0 -110 -49 -129 -130c-19 -82 10 -136 74 -136z" />
    <glyph glyph-name="uni043F" unicode="&#x43f;" horiz-adv-x="506" 
d="M59 0l106 462h81l9 -53c47 40 99 61 150 61c95 0 138 -71 112 -185l-66 -285h-114l61 264c14 62 -5 95 -58 95c-32 0 -63 -11 -92 -33l-75 -326h-114z" />
    <glyph glyph-name="uni0440" unicode="&#x440;" horiz-adv-x="504" 
d="M9 -217l156 679h77l8 -54c42 41 92 64 143 64c109 0 163 -96 131 -234c-34 -146 -139 -248 -253 -248c-42 0 -74 15 -94 43l-58 -250h-110zM336 364c-32 0 -65 -14 -92 -38l-41 -178c12 -31 40 -50 77 -50c61 0 108 50 127 131c19 83 -9 135 -71 135z" />
    <glyph glyph-name="uni0441" unicode="&#x441;" horiz-adv-x="402" 
d="M238 -10c-133 0 -191 85 -158 230c35 152 147 252 283 252c43 0 85 -10 117 -29l-46 -99c-27 13 -60 20 -91 20c-74 0 -125 -47 -144 -131c-21 -89 12 -140 89 -140c27 0 61 7 93 21l5 -86c-46 -25 -97 -38 -148 -38z" />
    <glyph glyph-name="uni0442" unicode="&#x442;" horiz-adv-x="784" 
d="M59 0l106 462h81l8 -50c46 37 99 58 149 58c57 0 97 -27 112 -74c49 47 108 74 166 74c96 0 140 -70 115 -180l-67 -290h-113l61 264c13 56 -2 95 -60 95c-32 0 -64 -12 -95 -34c-1 -12 -2 -25 -5 -39l-66 -286h-113l61 264c12 53 0 95 -60 95c-31 0 -62 -10 -91 -31
l-75 -328h-114z" />
    <glyph glyph-name="uni0443" unicode="&#x443;" horiz-adv-x="434" 
d="M38 -217l124 209l-54 470h121l17 -352l184 352h108l-267 -470l-115 -209h-118z" />
    <glyph glyph-name="uni0444" unicode="&#x444;" horiz-adv-x="693" 
d="M199 -5c-99 0 -146 96 -115 232c32 139 129 235 237 235c30 0 55 -9 74 -26l23 102c29 126 117 211 218 211c36 0 66 -11 89 -29l-45 -94c-13 12 -41 17 -62 17c-45 0 -74 -32 -93 -92l-28 -121c30 21 63 32 98 32c101 0 149 -94 118 -227c-33 -143 -130 -240 -238 -240
c-30 0 -54 8 -73 23l-9 -38c-27 -118 -113 -197 -214 -197c-36 0 -66 11 -89 29l44 92c13 -10 41 -15 62 -15c45 0 74 28 91 80l15 64c-32 -25 -66 -38 -103 -38zM199 234c-19 -81 4 -133 60 -133c22 0 45 9 64 25l47 203c-12 17 -32 27 -56 27c-52 0 -98 -49 -115 -122z
M533 356c-20 0 -40 -7 -58 -21l-48 -208c13 -17 32 -26 55 -26c54 0 98 48 116 126s-8 129 -65 129z" />
    <glyph glyph-name="uni0445" unicode="&#x445;" horiz-adv-x="424" 
d="M3 0l205 226l-100 236h126l53 -147l123 147h122l-213 -230l97 -232h-125l-52 141l-118 -141h-118z" />
    <glyph glyph-name="uni0446" unicode="&#x446;" horiz-adv-x="539" 
d="M390 -131l30 131h-361l106 462h111l-84 -362h153l83 362h110l-84 -362h92l-54 -231h-102z" />
    <glyph glyph-name="uni0447" unicode="&#x447;" horiz-adv-x="480" 
d="M218 155c-93 0 -141 53 -122 136l39 171h110l-30 -132c-9 -39 19 -65 68 -65c27 0 60 8 88 19l41 178h111l-106 -462h-111l44 191c-41 -23 -89 -36 -132 -36z" />
    <glyph glyph-name="uni0448" unicode="&#x448;" horiz-adv-x="784" 
d="M837 486l-106 -462h-81l-8 50c-46 -37 -99 -58 -149 -58c-57 0 -97 27 -112 74c-49 -47 -108 -74 -166 -74c-96 0 -140 70 -115 180l67 290h113l-61 -264c-13 -56 2 -95 60 -95c32 0 64 12 95 34c1 12 2 25 5 39l66 286h113l-61 -264c-12 -53 0 -95 60 -95
c31 0 62 10 91 31l75 328h114z" />
    <glyph glyph-name="uni0449" unicode="&#x449;" horiz-adv-x="755" 
d="M611 -131l30 131h-582l106 462h108l-83 -362h142l84 362h107l-84 -362h144l84 362h107l-83 -362h77l-53 -231h-104z" />
    <glyph glyph-name="uni044A" unicode="&#x44a;" horiz-adv-x="497" 
d="M122 0l84 360h-112l24 102h219l-34 -147h88c97 0 146 -59 125 -148c-24 -104 -110 -167 -231 -167h-163zM252 97h69c42 0 72 21 81 59s-14 63 -55 63h-66z" />
    <glyph glyph-name="uni044B" unicode="&#x44b;" horiz-adv-x="651" 
d="M477 -2l112 488h110l-113 -488h-109zM59 0l112 486h108l-36 -154h90c96 0 147 -62 125 -156c-25 -110 -113 -176 -235 -176h-164zM189 97h70c43 0 74 25 84 68s-13 72 -55 72h-67z" />
    <glyph glyph-name="uni044C" unicode="&#x44c;" horiz-adv-x="452" 
d="M59 0l106 462h108l-33 -142h103c95 0 145 -59 124 -150c-25 -106 -111 -170 -232 -170h-176zM189 97h82c42 0 73 23 82 62s-14 66 -55 66h-79z" />
    <glyph glyph-name="uni044D" unicode="&#x44d;" horiz-adv-x="426" 
d="M167 -7c-43 0 -104 10 -141 31l46 85c26 -10 84 -17 119 -17c73 0 120 32 144 99h-208l21 91h203c-2 59 -38 91 -109 91c-27 0 -83 -5 -113 -15l-2 81c39 19 115 33 164 33c131 0 192 -88 158 -235c-35 -151 -142 -244 -282 -244z" />
    <glyph glyph-name="uni044E" unicode="&#x44e;" horiz-adv-x="698" 
d="M59 0l106 462h107l-41 -179h81c44 117 135 186 248 186c127 0 192 -93 159 -235c-33 -145 -144 -241 -275 -241c-113 0 -170 72 -156 191h-80l-42 -184h-107zM474 96c63 0 116 53 134 132c19 81 -11 138 -76 138c-60 0 -107 -49 -126 -132c-19 -84 7 -138 68 -138z" />
    <glyph glyph-name="uni044F" unicode="&#x44f;" horiz-adv-x="464" 
d="M16 0l158 159c-61 19 -89 67 -73 138c23 99 112 165 221 165h186l-107 -462h-106l35 150h-52l-134 -150h-128zM272 243h79l27 116h-93c-37 0 -65 -20 -73 -55c-9 -38 16 -61 60 -61z" />
    <glyph glyph-name="uni0450" unicode="&#x450;" horiz-adv-x="461" 
d="M339 526l-92 152l103 84l53 -183zM261 -10c-145 0 -212 91 -178 240c33 144 140 242 267 242c114 0 166 -80 137 -208c-5 -21 -15 -50 -22 -69h-273c-4 -72 34 -108 110 -108c35 0 75 8 112 22l5 -85c-51 -22 -108 -34 -158 -34zM320 374c-51 0 -90 -35 -112 -99h174
c14 63 -8 99 -62 99z" />
    <glyph glyph-name="uni0451" unicode="&#x451;" horiz-adv-x="466" 
d="M267 576c-43 0 -63 30 -52 78s45 79 88 79s63 -31 52 -79s-45 -78 -88 -78zM465 576c-43 0 -63 30 -52 78s46 79 89 79s62 -31 51 -79s-45 -78 -88 -78zM264 -10c-147 0 -215 91 -181 240c33 144 141 242 269 242c115 0 168 -80 139 -208c-5 -21 -14 -50 -21 -69h-278
c-3 -72 35 -108 113 -108c36 0 75 8 113 22l5 -85c-51 -22 -109 -34 -159 -34zM322 374c-53 0 -92 -35 -114 -99h179c14 63 -10 99 -65 99z" />
    <glyph glyph-name="uni0452" unicode="&#x452;" horiz-adv-x="257" 
d="M98 6l82 15h-80l-1 33h255l-23 -33h-110l-53 -15h-70z" />
    <glyph glyph-name="uni0453" unicode="&#x453;" horiz-adv-x="385" 
d="M326 527l-40 52l138 183l62 -84zM60 0l106 462h318l-23 -102h-205l-83 -360h-113z" />
    <glyph glyph-name="uni0454" unicode="&#x454;" horiz-adv-x="432" 
d="M253 -10c-141 0 -206 85 -173 229c35 152 155 253 300 253c44 0 92 -11 127 -30l-43 -93c-29 12 -70 21 -105 21c-69 0 -122 -30 -150 -86h207l-20 -89h-210c-4 -68 37 -108 114 -108c35 0 73 8 109 21l5 -80c-48 -25 -106 -38 -161 -38z" />
    <glyph glyph-name="uni0455" unicode="&#x455;" horiz-adv-x="415" 
d="M196 -10c-58 0 -116 14 -160 38l46 92c40 -18 94 -30 135 -30c48 0 79 18 86 47c19 83 -232 18 -193 188c22 94 105 147 227 147c48 0 96 -9 132 -25l-45 -95c-36 12 -76 20 -111 20c-52 0 -86 -17 -92 -44c-18 -77 235 -20 195 -191c-21 -91 -103 -147 -220 -147z" />
    <glyph glyph-name="uni0456" unicode="&#x456;" horiz-adv-x="242" 
d="M253 576c-43 0 -63 30 -52 78s45 79 88 79s63 -31 52 -79s-45 -78 -88 -78zM63 0l112 486h113l-112 -486h-113z" />
    <glyph glyph-name="uni0457" unicode="&#x457;" horiz-adv-x="237" 
d="M152 576c-42 0 -62 30 -51 78s46 79 88 79c43 0 63 -31 52 -79s-46 -78 -89 -78zM353 576c-43 0 -63 30 -52 78s46 79 89 79s62 -31 51 -79s-45 -78 -88 -78zM63 0l112 486h113l-112 -486h-113z" />
    <glyph glyph-name="uni0458" unicode="&#x458;" horiz-adv-x="238" 
d="M252 576c-43 0 -63 30 -52 78s45 79 88 79s63 -31 52 -79s-45 -78 -88 -78zM-33 -230l-16 72c54 35 96 94 110 154l113 490h114l-112 -484c-23 -101 -104 -191 -209 -232z" />
    <glyph glyph-name="uni0459" unicode="&#x459;" horiz-adv-x="747" 
d="M81 -14c-29 0 -53 10 -71 28l39 88c13 -9 27 -14 36 -14c37 0 63 53 76 107l62 268h341l-34 -149h110c95 0 146 -58 125 -147c-24 -104 -111 -167 -232 -167h-186l83 358h-129l-37 -163c-28 -122 -97 -209 -183 -209zM595 219h-87l-28 -122h90c42 0 72 21 81 59
s-15 63 -56 63z" />
    <glyph glyph-name="uni045A" unicode="&#x45a;" horiz-adv-x="741" 
d="M59 0l107 464h111l-40 -174h170l40 174h111l-32 -142h108c95 0 146 -60 125 -151c-25 -107 -112 -171 -233 -171h-186l44 188h-170l-44 -188h-111zM590 227h-86l-30 -130h88c42 0 73 23 82 63s-14 67 -54 67z" />
    <glyph glyph-name="uni045B" unicode="&#x45b;" horiz-adv-x="501" 
d="M58 0l124 536h-54l19 83h54l28 120h112l-28 -120h108l-19 -83h-108l-27 -117c43 34 89 51 134 51c96 0 140 -69 114 -180l-67 -290h-113l61 264c14 62 -5 95 -59 95c-32 0 -61 -12 -92 -37l-75 -322h-112z" />
    <glyph glyph-name="uni045C" unicode="&#x45c;" horiz-adv-x="466" 
d="M372 546l-40 48l134 168l64 -77zM60 0l112 486h110l-43 -187h74l141 187h115l-180 -228l74 -258h-120l-52 197h-76l-45 -197h-110z" />
    <glyph glyph-name="uni045D" unicode="&#x45d;" horiz-adv-x="515" 
d="M368 546l-95 139l101 77l56 -168zM59 0l112 486h104l-74 -320l261 320h100l-112 -486h-102l74 320l-264 -320h-99z" />
    <glyph glyph-name="uni045E" unicode="&#x45e;" horiz-adv-x="434" 
d="M354 556c-90 0 -139 55 -132 146l88 48c-6 -64 22 -106 70 -106c47 0 91 39 117 105l65 -43c-33 -93 -112 -150 -208 -150zM38 -217l125 217l-49 486h120l15 -364l186 364h109l-271 -486l-117 -217h-118z" />
    <glyph glyph-name="uni045F" unicode="&#x45f;" horiz-adv-x="500" 
d="M271 462l-61 -264c-12 -53 0 -95 56 -95c30 0 60 12 89 33l75 326h113l-107 -462h-81l-7 53c-47 -40 -99 -61 -148 -61c-91 0 -135 69 -110 175l68 295h113z" />
    <glyph glyph-name="uni0462" unicode="&#x462;" horiz-adv-x="657" 
d="M132 0l118 508h-108l22 97h108l21 89h119l-21 -89h146l-22 -97h-146l-17 -72h161c128 0 196 -84 167 -209c-31 -135 -155 -227 -307 -227h-241zM276 105h136c74 0 123 37 139 105c17 72 -18 123 -84 123h-139z" />
    <glyph glyph-name="uni0463" unicode="&#x463;" horiz-adv-x="453" 
d="M69 0l96 417h-61l23 101h61l51 221h103l-51 -221h119l-23 -101h-119l-23 -99h103c95 0 145 -59 124 -149c-24 -105 -111 -169 -232 -169h-171zM194 97h82c42 0 73 22 82 61s-14 65 -55 65h-80z" />
    <glyph glyph-name="uni046A" unicode="&#x46a;" horiz-adv-x="738" 
d="M147 0h-116c51 223 149 350 304 393l-111 190l26 111h556l-26 -111l-202 -185c144 -39 184 -167 131 -398h-116c42 181 12 278 -95 303l-70 -303h-117l70 305c-116 -21 -191 -119 -234 -305zM369 586l91 -176h2l174 176h-267z" />
    <glyph glyph-name="uni046B" unicode="&#x46b;" horiz-adv-x="553" 
d="M120 0h-100c33 143 100 227 212 258l-82 107l22 97h418l-22 -97l-136 -103c104 -27 135 -114 101 -262h-100c25 107 5 166 -66 183l-43 -183h-97l43 185c-76 -15 -124 -74 -150 -185zM273 368l60 -96h6l105 96h-171z" />
    <glyph glyph-name="uni0472" unicode="&#x472;" 
d="M349 -9c-186 0 -278 140 -229 351c50 217 210 362 402 362c189 0 282 -141 234 -351c-50 -217 -213 -362 -407 -362zM487 591c-100 0 -188 -76 -228 -195h378c11 119 -46 195 -150 195zM384 103c101 0 191 76 232 195h-378c-11 -119 45 -195 146 -195z" />
    <glyph glyph-name="uni0473" unicode="&#x473;" horiz-adv-x="491" 
d="M235 -10c-127 0 -187 92 -154 233c35 149 146 249 279 249c126 0 188 -92 155 -234c-34 -149 -147 -248 -280 -248zM328 364c-51 0 -94 -35 -118 -92h198c1 57 -27 92 -80 92zM272 98c52 0 97 35 119 91h-199c-2 -56 28 -91 80 -91z" />
    <glyph glyph-name="uni0474" unicode="&#x474;" horiz-adv-x="677" 
d="M249 0l-71 694h139l35 -536l178 348c66 129 161 197 275 197l-15 -122c-69 0 -122 -42 -173 -134l-243 -447h-125z" />
    <glyph glyph-name="uni0475" unicode="&#x475;" horiz-adv-x="444" 
d="M154 0l-40 462h115l12 -331l99 204c41 87 107 134 191 134l-14 -110c-51 0 -82 -29 -107 -76l-151 -283h-105z" />
    <glyph glyph-name="uni0490" unicode="&#x490;" horiz-adv-x="510" 
d="M78 0l160 694h329l37 163h93l-63 -276h-301l-134 -581h-121z" />
    <glyph glyph-name="uni0491" unicode="&#x491;" horiz-adv-x="397" 
d="M60 0l106 462h228l36 156h103l-59 -258h-218l-83 -360h-113z" />
    <glyph glyph-name="uni0492" unicode="&#x492;" horiz-adv-x="529" 
d="M107 0l64 281h-90l22 93h90l74 320h412l-26 -113h-291l-48 -207h149l-22 -93h-149l-65 -281h-120z" />
    <glyph glyph-name="uni0493" unicode="&#x493;" horiz-adv-x="408" 
d="M84 0l41 180h-70l22 94h70l44 188h319l-24 -102h-206l-20 -86h136l-22 -94h-136l-41 -180h-113z" />
    <glyph glyph-name="uni0494" unicode="&#x494;" horiz-adv-x="635" 
d="M77 0l161 694h412l-26 -113h-293l-54 -234c56 35 120 54 180 54c143 0 211 -109 172 -279c-45 -193 -195 -328 -404 -363l4 80c139 20 241 115 273 255c28 122 -15 197 -115 197c-45 0 -92 -16 -133 -42l-58 -249h-119z" />
    <glyph glyph-name="uni0495" unicode="&#x495;" horiz-adv-x="487" 
d="M57 -9l108 471h305l-23 -102h-197l-28 -125c39 24 81 38 124 38c109 0 161 -89 130 -225c-34 -148 -145 -252 -303 -282l4 75c92 19 159 88 181 183c21 89 -10 148 -77 148c-27 0 -54 -10 -80 -26l-36 -155h-108z" />
    <glyph glyph-name="uni0496" unicode="&#x496;" horiz-adv-x="987" 
d="M18 0l286 354l-112 340h143l88 -281h89l64 281h120l-64 -281h86l222 281h141l-267 -326l83 -266l33 10l20 -172l-104 -123l-13 96l-9 87h-33l-93 300h-93l-69 -300h-120l70 300h-95l-237 -300h-136z" />
    <glyph glyph-name="uni0497" unicode="&#x497;" horiz-adv-x="710" 
d="M-1 -6l193 232l-75 236h119l55 -177h62l41 177h105l-41 -177h62l140 177h120l-184 -221l50 -154h70l-49 -215h-99l28 122h-37l-61 190h-63l-44 -190h-105l44 190h-64l-154 -190h-113z" />
    <glyph glyph-name="uni0498" unicode="&#x498;" horiz-adv-x="555" 
d="M214 -257c-37 0 -71 8 -94 23l32 71c19 -10 49 -16 73 -16c31 0 50 11 54 30c6 28 -22 46 -83 50l36 89c-72 1 -134 18 -192 52l52 106c54 -29 122 -43 179 -43c86 0 146 34 160 96c15 65 -35 101 -138 101h-94l24 104h106c80 0 139 36 153 95c13 55 -27 88 -109 88
c-55 0 -112 -15 -178 -42l-4 100c72 36 152 57 230 57c146 0 221 -70 195 -182c-18 -79 -75 -136 -149 -153c78 -20 112 -81 93 -165c-25 -109 -118 -185 -244 -207l-20 -48c67 -11 93 -43 81 -97c-16 -68 -77 -109 -163 -109z" />
    <glyph glyph-name="uni0499" unicode="&#x499;" horiz-adv-x="413" 
d="M142 -257c-36 0 -67 8 -88 23l31 71c17 -10 45 -16 66 -16c28 0 46 11 50 30c6 28 -19 46 -75 50l36 92c-52 1 -95 13 -134 35l45 91c35 -14 85 -24 127 -24c58 0 93 17 100 47s-27 48 -96 48h-57l21 89h62c55 0 94 18 101 46c6 27 -21 45 -74 45c-38 0 -80 -9 -128 -26
l-2 86c56 28 117 42 173 42c108 0 166 -48 148 -124c-12 -53 -54 -89 -107 -100c58 -12 85 -51 72 -107c-16 -71 -83 -123 -174 -141l-20 -51c63 -11 89 -43 77 -97c-16 -68 -74 -109 -154 -109z" />
    <glyph glyph-name="uni049A" unicode="&#x49a;" horiz-adv-x="674" 
d="M77 0l161 694h120l-64 -278h104l238 278h130l-280 -325l94 -268l37 11l20 -172l-105 -123l-13 96l-9 87h-32l-106 304h-104l-70 -304h-121z" />
    <glyph glyph-name="uni049B" unicode="&#x49b;" horiz-adv-x="499" 
d="M58 -6l108 468h111l-42 -178h74l139 178h119l-182 -219l48 -156h71l-50 -215h-100l29 122h-42l-54 188h-75l-43 -188h-111z" />
    <glyph glyph-name="uni049C" unicode="&#x49c;" horiz-adv-x="646" 
d="M77 0l161 694h120l-64 -278h47l31 134h74l-31 -134h23l221 278h130l-261 -325l111 -369h-137l-90 304h-23l-30 -132h-75l31 132h-47l-70 -304h-121z" />
    <glyph glyph-name="uni049D" unicode="&#x49d;" horiz-adv-x="485" 
d="M60 0l106 462h111l-41 -178h25l26 109h64l-26 -109h7l136 178h116l-170 -217l69 -245h-121l-51 187h-8l-25 -110h-64l25 110h-26l-43 -187h-110z" />
    <glyph glyph-name="uni04A0" unicode="&#x4a0;" horiz-adv-x="709" 
d="M167 0l134 581h-158l26 113h278l-64 -278h104l238 278h130l-280 -325l130 -369h-138l-105 304h-105l-70 -304h-120z" />
    <glyph glyph-name="uni04A1" unicode="&#x4a1;" horiz-adv-x="545" 
d="M142 0l83 361h-141l23 101h252l-42 -180h70l143 180h115l-178 -221l78 -241h-120l-60 180h-71l-42 -180h-110z" />
    <glyph glyph-name="uni04A2" unicode="&#x4a2;" horiz-adv-x="741" 
d="M77 0l161 694h121l-64 -281h295l65 281h122l-138 -598l52 16l21 -172l-106 -123l-12 96l-10 87h-89l69 298h-296l-69 -298h-122z" />
    <glyph glyph-name="uni04A3" unicode="&#x4a3;" horiz-adv-x="537" 
d="M57 -6l109 470h111l-41 -179h170l41 179h112l-87 -377h72l-50 -215h-100l29 122h-84l44 189h-171l-43 -189h-112z" />
    <glyph glyph-name="uni04A4" unicode="&#x4a4;" horiz-adv-x="874" 
d="M78 0l160 694h121l-64 -281h296l65 281h365l-26 -113h-243l-134 -581h-122l69 298h-297l-69 -298h-121z" />
    <glyph glyph-name="uni04A5" unicode="&#x4a5;" horiz-adv-x="612" 
d="M60 0l106 462h111l-41 -181h170l42 181h265l-24 -101h-153l-84 -361h-111l42 179h-171l-41 -179h-111z" />
    <glyph glyph-name="uni04AA" unicode="&#x4aa;" horiz-adv-x="591" 
d="M236 -183l42 183c-138 36 -201 164 -160 341c50 218 222 363 427 363c64 0 124 -15 172 -43l-56 -100c-38 18 -94 29 -146 29c-136 0 -235 -84 -269 -231c-36 -156 29 -256 171 -256c45 0 99 10 145 27l6 -93c-54 -26 -119 -42 -179 -46l-41 -174h-112z" />
    <glyph glyph-name="uni04AB" unicode="&#x4ab;" horiz-adv-x="406" 
d="M152 -128l29 125c-91 24 -129 103 -101 224c35 152 147 251 285 251c44 0 87 -10 119 -29l-46 -99c-28 13 -62 20 -93 20c-76 0 -127 -47 -146 -131c-21 -89 13 -140 91 -140c28 0 62 7 95 21l5 -86c-33 -19 -70 -30 -107 -35l-27 -121h-104z" />
    <glyph glyph-name="Ustraitcy" unicode="&#x4ae;" horiz-adv-x="585" 
d="M236 0l63 274l-140 420h142l89 -308l223 308h133l-327 -422l-63 -272h-120z" />
    <glyph glyph-name="ustraitcy" unicode="&#x4af;" horiz-adv-x="447" 
d="M166 -8l-53 470h120l19 -352l187 352h110l-270 -470h6l-48 -209h-113l48 209h-6z" />
    <glyph glyph-name="Ustraitstrokecy" unicode="&#x4b0;" horiz-adv-x="585" 
d="M121 205l21 93h150l-133 396h142l89 -308l223 308h133l-306 -396h154l-21 -93h-169l-48 -205h-120l48 205h-163z" />
    <glyph glyph-name="uni04B2" unicode="&#x4b2;" horiz-adv-x="661" 
d="M16 0l312 361l-135 333h143l81 -227l186 227h140l-288 -329l111 -264l38 11l21 -172l-106 -123l-12 96l-10 87h-33l-98 261l-211 -261h-139z" />
    <glyph glyph-name="uni04B3" unicode="&#x4b3;" horiz-adv-x="451" 
d="M2 -5l205 229l-99 238h126l52 -148l124 148h125l-216 -233l57 -140h77l-50 -217h-99l28 123h-42l-51 142l-119 -142h-118z" />
    <glyph glyph-name="uni04B6" unicode="&#x4b6;" horiz-adv-x="659" 
d="M300 245c-120 0 -182 72 -155 190l60 259h119l-55 -236c-15 -66 22 -101 96 -101c46 0 95 13 136 33l70 304h118l-137 -597l51 15l21 -172l-106 -123l-12 96l-9 87h-86l68 295c-56 -32 -122 -50 -179 -50z" />
    <glyph glyph-name="uni04B7" unicode="&#x4b7;" horiz-adv-x="505" 
d="M217 152c-93 0 -141 53 -122 137l40 173h110l-31 -135c-9 -40 19 -65 68 -65c27 0 61 8 89 19l41 181h112l-87 -375h71l-49 -215h-100l28 122h-83l45 194c-41 -23 -89 -36 -132 -36z" />
    <glyph glyph-name="uni04B8" unicode="&#x4b8;" horiz-adv-x="625" 
d="M287 120l29 125h-6c-127 0 -192 72 -165 190l60 259h118l-55 -237c-13 -57 14 -90 74 -99l32 140h79l-31 -138c34 5 68 15 99 30l70 304h117l-160 -694h-117l68 295c-32 -17 -66 -30 -101 -39l-32 -136h-79z" />
    <glyph glyph-name="uni04B9" unicode="&#x4b9;" horiz-adv-x="486" 
d="M206 56l23 100c-2 -1 -4 -1 -7 -1c-95 0 -145 53 -126 136l39 171h110l-30 -132c-7 -31 9 -53 40 -61l25 110h65l-25 -111c19 3 39 9 57 16l41 178h111l-106 -462h-111l44 191c-19 -11 -40 -19 -60 -25l-25 -110h-65z" />
    <glyph glyph-name="uni04BA" unicode="&#x4ba;" horiz-adv-x="601" 
d="M76 0l153 660h119l-63 -273c54 27 113 42 169 42c125 0 187 -72 160 -190l-55 -239h-118l50 217c15 66 -21 101 -101 101c-43 0 -87 -10 -127 -27l-68 -291h-119z" />
    <glyph glyph-name="uni04BB" unicode="&#x4bb;" horiz-adv-x="505" 
d="M59 0l170 739h113l-74 -320c43 34 89 51 134 51c96 0 140 -69 114 -180l-67 -290h-113l61 264c14 62 -5 95 -59 95c-32 0 -62 -12 -93 -37l-74 -322h-112z" />
    <glyph glyph-name="uni04C0" unicode="&#x4c0;" horiz-adv-x="276" 
d="M77 0l161 694h121l-160 -694h-122z" />
    <glyph glyph-name="uni04C1" unicode="&#x4c1;" horiz-adv-x="932" 
d="M647 754c-97 0 -152 55 -146 147l95 48c-5 -64 26 -106 78 -106c51 0 97 38 125 105l73 -43c-34 -93 -121 -151 -225 -151zM10 0l286 354l-112 340h142l89 -281h88l65 281h120l-65 -281h87l223 281h139l-267 -326l116 -368h-138l-94 300h-92l-69 -300h-120l69 300h-95
l-236 -300h-136z" />
    <glyph glyph-name="uni04C2" unicode="&#x4c2;" horiz-adv-x="677" 
d="M471 556c-91 0 -142 55 -135 146l89 48c-7 -64 23 -106 71 -106c49 0 93 39 119 105l66 -43c-33 -93 -114 -150 -210 -150zM0 0l196 241l-74 245h119l54 -186h62l43 186h105l-43 -186h61l142 186h117l-183 -230l77 -256h-115l-59 199h-64l-46 -199h-105l46 199h-63
l-156 -199h-114z" />
    <glyph glyph-name="uni04CB" unicode="&#x4cb;" horiz-adv-x="606" 
d="M300 245c-120 0 -182 72 -155 190l60 259h119l-55 -236c-15 -66 22 -101 96 -101c46 0 95 13 136 33l70 304h118l-160 -694h-74l-43 -183h-110l68 295h67l42 183c-56 -32 -122 -50 -179 -50z" />
    <glyph glyph-name="uni04CC" unicode="&#x4cc;" horiz-adv-x="482" 
d="M219 152c-94 0 -143 53 -124 137l40 173h110l-31 -135c-9 -40 20 -65 70 -65c27 0 60 8 89 19l42 181h111l-108 -468h-83l-28 -122h-103l50 215h75l23 101c-41 -23 -89 -36 -133 -36z" />
    <glyph glyph-name="uni04CF" unicode="&#x4cf;" horiz-adv-x="270" 
d="M74 0l160 694h116l-160 -694h-116z" />
    <glyph glyph-name="uni04D0" unicode="&#x4d0;" horiz-adv-x="643" 
d="M502 754c-98 0 -152 55 -146 147l94 48c-5 -64 27 -106 79 -106c51 0 97 38 125 105l72 -43c-34 -93 -120 -151 -224 -151zM15 0l396 694h153l64 -694h-133l-12 174h-248l-93 -174h-127zM297 289h178l-21 294z" />
    <glyph glyph-name="uni04D1" unicode="&#x4d1;" horiz-adv-x="457" 
d="M357 540c-92 0 -143 59 -135 155l93 55c-8 -73 20 -122 67 -122c48 0 93 45 121 121l68 -49c-35 -99 -117 -160 -214 -160zM173 -10c-89 0 -133 54 -114 138c23 98 115 144 299 147l2 12c12 52 -18 79 -86 79c-39 0 -84 -9 -131 -27l-7 86c57 30 126 47 187 47
c125 0 175 -68 146 -194l-64 -278h-81l-5 49c-41 -38 -92 -59 -146 -59zM177 145c-8 -33 15 -55 57 -55c32 0 63 11 88 32l19 82c-107 -2 -155 -20 -164 -59z" />
    <glyph glyph-name="uni04D2" unicode="&#x4d2;" horiz-adv-x="643" 
d="M389 762c-45 0 -67 30 -56 78s47 79 92 79s65 -31 54 -79s-45 -78 -90 -78zM598 762c-44 0 -66 30 -55 78s47 79 91 79c45 0 66 -31 55 -79s-46 -78 -91 -78zM15 0l396 694h153l64 -694h-133l-12 174h-248l-93 -174h-127zM297 289h178l-21 294z" />
    <glyph glyph-name="uni04D3" unicode="&#x4d3;" horiz-adv-x="461" 
d="M264 576c-42 0 -63 30 -52 78s46 79 88 79c43 0 63 -31 52 -79s-45 -78 -88 -78zM463 576c-43 0 -64 30 -53 78s46 79 89 79s62 -31 51 -79s-44 -78 -87 -78zM175 -10c-90 0 -135 54 -116 138c23 98 115 144 302 147l3 12c12 52 -19 79 -88 79c-40 0 -85 -9 -133 -27
l-7 86c57 30 127 47 189 47c126 0 177 -68 148 -194l-64 -278h-81l-5 49c-41 -38 -93 -59 -148 -59zM177 145c-8 -33 16 -55 59 -55c32 0 64 11 90 32l19 82c-110 -2 -159 -20 -168 -59z" />
    <glyph glyph-name="uni04D4" unicode="&#x4d4;" horiz-adv-x="929" 
d="M14 0l550 694h478l-27 -113h-315l-39 -168h291l-27 -113h-290l-43 -187h315l-26 -113h-435l41 175h-207l-134 -175h-132zM372 294h142l61 265z" />
    <glyph glyph-name="uni04D5" unicode="&#x4d5;" horiz-adv-x="713" 
d="M169 -10c-86 0 -131 51 -113 127c23 99 132 155 301 159l1 7c12 53 -17 82 -80 82c-41 0 -88 -13 -140 -36l-5 84c65 39 132 59 194 59s102 -21 118 -64c43 41 97 64 156 64c112 0 165 -81 135 -209c-5 -22 -14 -53 -20 -67h-275c-2 -70 37 -108 112 -108
c34 0 70 8 111 22l6 -86c-57 -23 -108 -34 -158 -34c-85 0 -140 32 -162 93c-52 -60 -115 -93 -181 -93zM569 372c-51 0 -91 -33 -112 -96h172c14 61 -8 96 -60 96zM176 140c-7 -31 14 -50 56 -50c38 0 75 16 105 44c-2 20 -1 41 4 65c-107 -2 -156 -19 -165 -59z" />
    <glyph glyph-name="uni04D6" unicode="&#x4d6;" horiz-adv-x="559" 
d="M462 754c-98 0 -154 55 -148 147l96 48c-5 -64 27 -106 79 -106c51 0 96 38 124 105l72 -43c-34 -93 -120 -151 -223 -151zM77 0l161 694h435l-26 -113h-316l-39 -169h290l-26 -113h-290l-43 -186h316l-26 -113h-436z" />
    <glyph glyph-name="uni04D7" unicode="&#x4d7;" horiz-adv-x="461" 
d="M359 540c-92 0 -142 59 -134 155l92 55c-8 -73 21 -122 68 -122c48 0 92 45 120 121l68 -49c-35 -99 -117 -160 -214 -160zM261 -10c-145 0 -212 91 -178 240c33 144 140 242 267 242c114 0 166 -80 137 -208c-5 -21 -15 -50 -22 -69h-273c-4 -72 34 -108 110 -108
c35 0 75 8 112 22l5 -85c-51 -22 -108 -34 -158 -34zM320 374c-51 0 -90 -35 -112 -99h174c14 63 -8 99 -62 99z" />
    <glyph glyph-name="uni04D8" unicode="&#x4d8;" horiz-adv-x="687" 
d="M458 702c214 0 315 -133 264 -353c-50 -216 -211 -359 -398 -359c-168 0 -250 118 -209 295c8 33 18 73 30 107h458c10 132 -58 198 -191 198c-61 0 -128 -15 -192 -43l-5 97c79 39 161 58 243 58zM360 102c107 0 183 61 222 184h-353c-28 -122 21 -184 131 -184z" />
    <glyph glyph-name="uni04D9" unicode="&#x4d9;" horiz-adv-x="461" 
d="M305 472c145 0 212 -90 178 -239c-33 -145 -140 -243 -267 -243c-113 0 -165 80 -136 207c5 21 14 50 21 69h274c4 72 -35 109 -111 109c-35 0 -75 -9 -112 -23l-5 86c51 22 107 34 158 34zM247 88c51 0 90 34 111 98h-174c-14 -63 8 -98 63 -98z" />
    <glyph glyph-name="uni04DC" unicode="&#x4dc;" horiz-adv-x="932" 
d="M534 762c-45 0 -66 30 -55 78s46 79 91 79s66 -31 55 -79s-46 -78 -91 -78zM744 762c-45 0 -67 30 -56 78s47 79 92 79c44 0 65 -31 54 -79s-46 -78 -90 -78zM10 0l286 354l-112 340h142l89 -281h88l65 281h120l-65 -281h87l223 281h139l-267 -326l116 -368h-138l-94 300
h-92l-69 -300h-120l69 300h-95l-236 -300h-136z" />
    <glyph glyph-name="uni04DD" unicode="&#x4dd;" horiz-adv-x="686" 
d="M377 576c-43 0 -63 30 -52 78s45 79 88 79c42 0 62 -31 51 -79s-45 -78 -87 -78zM577 576c-43 0 -62 30 -51 78s44 79 87 79s63 -31 52 -79s-45 -78 -88 -78zM0 0l196 241l-74 245h119l56 -186h64l43 186h105l-43 -186h64l145 186h117l-183 -230l76 -256h-115l-61 199
h-66l-46 -199h-105l46 199h-66l-158 -199h-114z" />
    <glyph glyph-name="uni04DE" unicode="&#x4de;" horiz-adv-x="555" 
d="M345 762c-45 0 -66 30 -55 78s46 79 91 79s66 -31 55 -79s-46 -78 -91 -78zM555 762c-45 0 -67 30 -56 78s47 79 92 79c44 0 65 -31 54 -79s-46 -78 -90 -78zM238 -10c-74 0 -138 17 -198 52l52 106c54 -29 122 -43 179 -43c86 0 146 34 160 96c15 65 -35 101 -138 101
h-94l24 104h106c80 0 139 36 153 95c13 55 -27 88 -109 88c-55 0 -112 -15 -178 -42l-4 100c72 36 152 57 230 57c146 0 221 -70 195 -182c-18 -79 -75 -136 -149 -153c78 -20 112 -81 93 -165c-30 -130 -157 -214 -322 -214z" />
    <glyph glyph-name="uni04DF" unicode="&#x4df;" horiz-adv-x="418" 
d="M242 576c-43 0 -62 30 -51 78s44 79 87 79s63 -31 52 -79s-45 -78 -88 -78zM441 576c-43 0 -64 30 -53 78s46 79 89 79c42 0 62 -31 51 -79s-45 -78 -87 -78zM174 -7c-57 0 -105 12 -146 35l45 91c35 -14 87 -24 130 -24c59 0 96 17 103 47s-29 48 -99 48h-57l21 89h63
c56 0 96 18 103 46c6 27 -21 45 -76 45c-39 0 -82 -9 -131 -26l-3 86c57 28 118 42 175 42c109 0 169 -48 151 -124c-12 -53 -54 -89 -107 -100c59 -12 86 -51 73 -107c-20 -89 -119 -148 -245 -148z" />
    <glyph glyph-name="uni04E2" unicode="&#x4e2;" horiz-adv-x="709" 
d="M379 778l23 102h314l-24 -102h-313zM77 0l161 694h119l-119 -512l422 512h133l-160 -694h-119l117 511l-424 -511h-130z" />
    <glyph glyph-name="uni04E3" unicode="&#x4e3;" horiz-adv-x="515" 
d="M245 591l24 102h292l-23 -102h-293zM59 0l112 486h104l-74 -320l261 320h100l-112 -486h-102l74 320l-264 -320h-99z" />
    <glyph glyph-name="uni04E4" unicode="&#x4e4;" horiz-adv-x="709" 
d="M422 762c-45 0 -66 30 -55 78s46 79 91 79s66 -31 55 -79s-46 -78 -91 -78zM632 762c-45 0 -67 30 -56 78s47 79 92 79s65 -31 54 -79s-45 -78 -90 -78zM77 0l161 694h119l-119 -512l422 512h133l-160 -694h-119l117 511l-424 -511h-130z" />
    <glyph glyph-name="uni04E5" unicode="&#x4e5;" horiz-adv-x="520" 
d="M291 576c-43 0 -63 30 -52 78s46 79 89 79s62 -31 51 -79s-45 -78 -88 -78zM489 576c-42 0 -62 30 -51 78s46 79 88 79c43 0 63 -31 52 -79s-46 -78 -89 -78zM59 0l112 486h104l-74 -320l266 320h100l-112 -486h-102l74 320l-269 -320h-99z" />
    <glyph glyph-name="uni04E6" unicode="&#x4e6;" 
d="M426 762c-45 0 -66 30 -55 78s46 79 91 79c44 0 66 -31 55 -79s-47 -78 -91 -78zM635 762c-45 0 -65 30 -54 78s46 79 91 79s66 -31 55 -79s-47 -78 -92 -78zM349 -9c-186 0 -278 140 -229 351c50 217 210 362 402 362c189 0 282 -141 234 -351
c-50 -217 -213 -362 -407 -362zM384 103c113 0 212 96 245 239c35 150 -23 249 -142 249c-112 0 -207 -95 -240 -238c-35 -150 20 -250 137 -250z" />
    <glyph glyph-name="uni04E7" unicode="&#x4e7;" horiz-adv-x="501" 
d="M285 576c-43 0 -63 30 -52 78s45 79 88 79c42 0 63 -31 52 -79s-46 -78 -88 -78zM483 576c-42 0 -62 30 -51 78s45 79 87 79c43 0 63 -31 52 -79s-45 -78 -88 -78zM240 -10c-130 0 -192 92 -159 233c35 149 149 249 285 249c129 0 192 -92 159 -234
c-34 -149 -149 -248 -285 -248zM275 98c63 0 115 49 133 128c19 83 -12 138 -78 138c-63 0 -113 -49 -132 -130c-19 -82 11 -136 77 -136z" />
    <glyph glyph-name="uni04E8" unicode="&#x4e8;" 
d="M349 -9c-186 0 -278 140 -229 351c50 217 210 362 402 362c189 0 282 -141 234 -351c-50 -217 -213 -362 -407 -362zM487 591c-100 0 -188 -76 -228 -195h378c11 119 -46 195 -150 195zM384 103c101 0 191 76 232 195h-378c-11 -119 45 -195 146 -195z" />
    <glyph glyph-name="uni04E9" unicode="&#x4e9;" horiz-adv-x="491" 
d="M235 -10c-127 0 -187 92 -154 233c35 149 146 249 279 249c126 0 188 -92 155 -234c-34 -149 -147 -248 -280 -248zM328 364c-51 0 -94 -35 -118 -92h198c1 57 -27 92 -80 92zM272 98c52 0 97 35 119 91h-199c-2 -56 28 -91 80 -91z" />
    <glyph glyph-name="uni04EE" unicode="&#x4ee;" horiz-adv-x="595" 
d="M322 778l23 102h314l-24 -102h-313zM130 0l176 240l-140 454h144l90 -335l228 335h122l-489 -694h-131z" />
    <glyph glyph-name="uni04EF" unicode="&#x4ef;" horiz-adv-x="434" 
d="M215 591l24 102h288l-24 -102h-288zM38 -217l125 217l-49 486h120l15 -364l186 364h109l-271 -486l-117 -217h-118z" />
    <glyph glyph-name="uni04F0" unicode="&#x4f0;" horiz-adv-x="595" 
d="M365 762c-44 0 -66 30 -55 78s47 79 91 79c45 0 66 -31 55 -79s-46 -78 -91 -78zM575 762c-45 0 -67 30 -56 78s47 79 92 79s65 -31 54 -79s-45 -78 -90 -78zM130 0l176 240l-140 454h144l90 -335l228 335h122l-489 -694h-131z" />
    <glyph glyph-name="uni04F1" unicode="&#x4f1;" horiz-adv-x="445" 
d="M262 576c-43 0 -63 30 -52 78s46 79 89 79s62 -31 51 -79s-45 -78 -88 -78zM460 576c-42 0 -62 30 -51 78s45 79 87 79c43 0 63 -31 52 -79s-45 -78 -88 -78zM39 -217l129 217l-54 486h123l17 -364l190 364h111l-275 -486l-119 -217h-122z" />
    <glyph glyph-name="uni04F2" unicode="&#x4f2;" horiz-adv-x="595" 
d="M336 751l-40 55l148 157l65 -85zM544 751l-41 55l149 157l64 -85zM130 0l176 240l-140 454h144l90 -335l228 335h122l-489 -694h-131z" />
    <glyph glyph-name="uni04F3" unicode="&#x4f3;" horiz-adv-x="434" 
d="M276 540l-50 37l112 185l78 -60zM442 540l-49 37l112 184l77 -59zM38 -217l125 217l-49 486h120l15 -364l186 364h109l-271 -486l-117 -217h-118z" />
    <glyph glyph-name="uni04F4" unicode="&#x4f4;" horiz-adv-x="606" 
d="M372 762c-45 0 -66 30 -55 78s46 79 91 79c44 0 66 -31 55 -79s-47 -78 -91 -78zM581 762c-45 0 -65 30 -54 78s46 79 91 79s66 -31 55 -79s-47 -78 -92 -78zM300 245c-120 0 -182 72 -155 190l60 259h119l-55 -236c-15 -66 22 -101 96 -101c46 0 95 13 136 33l70 304
h118l-160 -694h-118l68 295c-56 -32 -122 -50 -179 -50z" />
    <glyph glyph-name="uni04F5" unicode="&#x4f5;" horiz-adv-x="483" 
d="M275 576c-42 0 -63 30 -52 78s46 79 88 79c43 0 63 -31 52 -79s-45 -78 -88 -78zM473 576c-43 0 -63 30 -52 78s46 79 89 79s62 -31 51 -79s-45 -78 -88 -78zM223 166c-94 0 -143 55 -123 142l41 178h110l-32 -141c-10 -42 19 -69 69 -69c27 0 61 8 90 20l44 190h112
l-113 -486h-111l47 202c-41 -23 -90 -36 -134 -36z" />
    <glyph glyph-name="uni04F6" unicode="&#x4f6;" horiz-adv-x="511" 
d="M78 0l160 694h422l-27 -116h-300l-110 -475l31 9l21 -172l-106 -123l-12 96l-10 87h-69z" />
    <glyph glyph-name="uni04F7" unicode="&#x4f7;" horiz-adv-x="388" 
d="M58 -6l108 468h322l-24 -102h-208l-63 -273h80l-50 -215h-98l28 122h-95z" />
    <glyph glyph-name="uni04F8" unicode="&#x4f8;" horiz-adv-x="819" 
d="M484 762c-45 0 -66 30 -55 78s46 79 91 79s65 -31 54 -79s-45 -78 -90 -78zM694 762c-45 0 -66 30 -55 78s46 79 91 79c44 0 66 -31 55 -79s-47 -78 -91 -78zM77 0l161 694h119l-59 -253h133c126 0 194 -87 165 -211c-33 -142 -150 -230 -307 -230h-212zM620 -2l160 694
h121l-160 -694h-121zM221 105h108c74 0 124 38 140 108c17 73 -18 125 -84 125h-111z" />
    <glyph glyph-name="uni04F9" unicode="&#x4f9;" horiz-adv-x="659" 
d="M360 576c-43 0 -62 30 -51 78s44 79 87 79s63 -31 52 -79s-45 -78 -88 -78zM561 576c-43 0 -64 30 -53 78s46 79 89 79c42 0 62 -31 51 -79s-45 -78 -87 -78zM484 -2l113 488h109l-112 -488h-110zM59 0l112 486h108l-36 -154h92c98 0 150 -62 128 -156
c-25 -110 -114 -176 -238 -176h-166zM189 97h73c44 0 76 25 86 68s-15 72 -58 72h-69z" />
    <glyph glyph-name="uni051A" unicode="&#x51a;" horiz-adv-x="721" 
d="M349 -9c-186 0 -278 140 -229 351c50 217 210 362 402 362c189 0 282 -141 234 -351c-22 -95 -66 -176 -124 -237l66 -87l-92 -77l-67 91c-57 -33 -121 -52 -190 -52zM384 103c33 0 65 8 94 22l-93 127l87 77l95 -127c28 38 50 85 63 140c35 153 -20 249 -143 249
c-114 0 -207 -92 -241 -238c-35 -153 18 -250 138 -250z" />
    <glyph glyph-name="uni051B" unicode="&#x51b;" horiz-adv-x="505" 
d="M213 -10c-109 0 -161 95 -128 238c34 147 135 244 253 244c50 0 86 -18 107 -53l26 43h77l-157 -679h-110l59 259c-37 -33 -81 -52 -127 -52zM201 235c-19 -83 8 -137 72 -137c34 0 64 13 89 38l42 183c-12 28 -38 45 -74 45c-62 0 -111 -49 -129 -129z" />
    <glyph glyph-name="uni051C" unicode="&#x51c;" horiz-adv-x="948" 
d="M214 0l-40 694h136l9 -533l249 529h132l18 -521l257 525h121l-361 -694h-123l-23 517l-247 -517h-128z" />
    <glyph glyph-name="uni051D" unicode="&#x51d;" horiz-adv-x="697" 
d="M155 0l-46 462h120l11 -338l164 336h109l12 -331l169 333h107l-255 -462h-109l-19 326l-161 -326h-102z" />
    <glyph glyph-name="uni1E08" unicode="&#x1e08;" horiz-adv-x="591" 
d="M491 739l-31 68l185 144l45 -100zM272 -257c-37 0 -71 8 -94 23l32 71c18 -10 48 -16 71 -16c31 0 51 11 55 30c6 28 -23 46 -83 50l39 96c-147 30 -216 161 -174 344c50 218 222 363 427 363c64 0 124 -15 172 -43l-56 -100c-38 18 -94 29 -146 29
c-136 0 -235 -84 -269 -231c-36 -156 29 -256 171 -256c45 0 99 10 145 27l6 -93c-59 -28 -133 -46 -197 -47l-17 -41c67 -11 93 -43 81 -97c-16 -68 -77 -109 -163 -109z" />
    <glyph glyph-name="uni1E09" unicode="&#x1e09;" horiz-adv-x="406" 
d="M350 526l-40 53l139 183l65 -84zM240 -10h-1l-16 -41c63 -11 88 -43 76 -97c-16 -68 -74 -109 -154 -109c-36 0 -68 8 -89 23l31 71c18 -10 45 -16 67 -16c28 0 47 11 51 30c6 28 -20 46 -76 50l39 100c-82 28 -115 105 -88 220c35 152 148 251 285 251
c44 0 87 -10 119 -29l-46 -99c-27 13 -62 20 -93 20c-76 0 -127 -47 -146 -131c-21 -89 13 -140 91 -140c28 0 62 7 95 21l5 -86c-46 -25 -98 -38 -150 -38z" />
    <glyph glyph-name="uni1E0C" unicode="&#x1e0c;" horiz-adv-x="680" 
d="M77 0l161 694h226c210 0 306 -124 258 -333c-51 -221 -223 -361 -431 -361h-214zM222 111h109c135 0 230 84 264 233c35 151 -25 239 -165 239h-99zM272 -210c-44 0 -66 30 -55 78s47 79 91 79c45 0 66 -31 55 -79s-46 -78 -91 -78z" />
    <glyph glyph-name="uni1E0D" unicode="&#x1e0d;" horiz-adv-x="509" 
d="M215 -10c-110 0 -164 94 -131 237c34 148 137 245 258 245c41 0 73 -13 95 -37l70 304h110l-171 -739h-72l-11 57c-43 -43 -94 -67 -148 -67zM200 235c-19 -83 10 -137 75 -137c35 0 68 14 93 40l42 183c-14 27 -41 43 -78 43c-64 0 -114 -49 -132 -129zM203 -210
c-42 0 -63 30 -52 78s46 79 88 79c43 0 63 -31 52 -79s-45 -78 -88 -78z" />
    <glyph glyph-name="uni1E0E" unicode="&#x1e0e;" horiz-adv-x="680" 
d="M77 0l161 694h226c210 0 306 -124 258 -333c-51 -221 -223 -361 -431 -361h-214zM222 111h109c135 0 230 84 264 233c35 151 -25 239 -165 239h-99zM121 -189l23 101h310l-23 -101h-310z" />
    <glyph glyph-name="uni1E0F" unicode="&#x1e0f;" horiz-adv-x="504" 
d="M212 -10c-108 0 -161 94 -128 237c34 148 135 245 254 245c40 0 72 -13 93 -37l70 304h111l-171 -739h-73l-11 57c-42 -43 -92 -67 -145 -67zM200 235c-19 -83 9 -137 72 -137c34 0 66 14 91 40l42 183c-13 27 -40 43 -76 43c-62 0 -111 -49 -129 -129zM61 -189l23 101
h290l-24 -101h-289z" />
    <glyph glyph-name="uni1E14" unicode="&#x1e14;" horiz-adv-x="559" 
d="M527 925l-148 112l92 100l118 -144zM323 778l24 102h313l-24 -102h-313zM77 0l161 694h435l-26 -113h-316l-39 -169h290l-26 -113h-290l-43 -186h316l-26 -113h-436z" />
    <glyph glyph-name="uni1E15" unicode="&#x1e15;" horiz-adv-x="461" 
d="M382 694l-93 149l102 83l54 -180zM212 537l24 101h293l-24 -101h-293zM261 -10c-145 0 -212 91 -178 240c33 144 140 242 267 242c114 0 166 -80 137 -208c-5 -21 -15 -50 -22 -69h-273c-4 -72 34 -108 110 -108c35 0 75 8 112 22l5 -85c-51 -22 -108 -34 -158 -34z
M320 374c-51 0 -90 -35 -112 -99h174c14 63 -8 99 -62 99z" />
    <glyph glyph-name="uni1E16" unicode="&#x1e16;" horiz-adv-x="559" 
d="M497 925l-31 68l184 144l47 -100zM323 778l24 102h313l-24 -102h-313zM77 0l161 694h435l-26 -113h-316l-39 -169h290l-26 -113h-290l-43 -186h316l-26 -113h-436z" />
    <glyph glyph-name="uni1E17" unicode="&#x1e17;" horiz-adv-x="461" 
d="M400 694l-38 52l136 180l65 -83zM212 537l24 101h293l-24 -101h-293zM261 -10c-145 0 -212 91 -178 240c33 144 140 242 267 242c114 0 166 -80 137 -208c-5 -21 -15 -50 -22 -69h-273c-4 -72 34 -108 110 -108c35 0 75 8 112 22l5 -85c-51 -22 -108 -34 -158 -34z
M320 374c-51 0 -90 -35 -112 -99h174c14 63 -8 99 -62 99z" />
    <glyph glyph-name="uni1E1C" unicode="&#x1e1c;" horiz-adv-x="559" 
d="M464 749c-85 0 -137 56 -130 143l100 57c-7 -60 20 -101 68 -101c47 0 93 39 113 102l47 -41c-36 -97 -115 -160 -198 -160zM77 0l161 694h435l-26 -113h-316l-39 -169h290l-26 -113h-290l-43 -186h316l-26 -113h-181l-21 -51c67 -11 93 -43 81 -97
c-16 -68 -77 -109 -163 -109c-37 0 -71 8 -94 23l32 71c19 -10 49 -16 73 -16c31 0 50 11 54 30c6 28 -22 46 -83 50l40 99h-174z" />
    <glyph glyph-name="uni1E1D" unicode="&#x1e1d;" horiz-adv-x="464" 
d="M359 535c-80 0 -130 58 -121 150l99 66c-10 -70 13 -118 57 -118c45 0 90 45 112 119l42 -47c-37 -103 -111 -170 -189 -170zM179 -257c-36 0 -68 8 -89 23l31 71c17 -10 45 -16 67 -16c28 0 46 11 50 30c6 28 -19 46 -75 50l37 96c-102 23 -146 107 -117 233
c33 144 141 242 268 242c114 0 166 -80 137 -208c-5 -21 -14 -50 -21 -69h-275c-3 -72 34 -108 111 -108c36 0 75 8 112 22l6 -85c-47 -20 -100 -32 -149 -34l-15 -41c63 -11 88 -43 76 -97c-16 -68 -74 -109 -154 -109zM320 374c-52 0 -90 -35 -112 -99h176
c14 63 -9 99 -64 99z" />
    <glyph glyph-name="uni1E20" unicode="&#x1e20;" horiz-adv-x="672" 
d="M382 778l24 102h313l-23 -102h-314zM369 -10c-199 0 -298 140 -250 350c50 218 224 364 441 364c73 0 139 -16 188 -45l-57 -101c-45 19 -108 32 -165 32c-144 0 -243 -85 -278 -235c-36 -155 27 -252 163 -252c44 0 87 10 124 30l34 147h-159l25 110h275l-71 -308
c-83 -61 -174 -92 -270 -92z" />
    <glyph glyph-name="uni1E21" unicode="&#x1e21;" horiz-adv-x="505" 
d="M226 591l24 102h292l-23 -102h-293zM212 -10c-108 0 -161 93 -128 237c34 148 136 245 253 245c50 0 86 -18 107 -53l25 43h79l-106 -462c-32 -138 -142 -230 -277 -230c-48 0 -91 13 -131 38l44 95c33 -18 74 -28 109 -28c74 0 125 44 144 127l9 40
c-38 -33 -82 -52 -128 -52zM201 235c-19 -83 8 -137 71 -137c34 0 65 13 90 38l42 183c-13 29 -39 45 -75 45c-62 0 -110 -49 -128 -129z" />
    <glyph glyph-name="uni1E24" unicode="&#x1e24;" horiz-adv-x="694" 
d="M77 0l161 694h121l-64 -281h295l65 281h122l-160 -694h-122l69 298h-296l-69 -298h-122zM299 -210c-45 0 -66 30 -55 78s46 79 91 79s66 -31 55 -79s-46 -78 -91 -78z" />
    <glyph glyph-name="uni1E25" unicode="&#x1e25;" horiz-adv-x="510" 
d="M58 -3l171 742h113l-74 -320c44 34 90 51 136 51c98 0 143 -69 117 -181l-67 -292h-113l61 266c14 62 -6 96 -62 96c-33 0 -63 -12 -95 -37l-75 -325h-112zM206 -210c-43 0 -63 30 -52 78s45 79 88 79s63 -31 52 -79s-45 -78 -88 -78z" />
    <glyph glyph-name="uni1E2A" unicode="&#x1e2a;" horiz-adv-x="694" 
d="M77 0l161 694h121l-64 -281h295l65 281h122l-160 -694h-122l69 298h-296l-69 -298h-122zM295 -220c-76 0 -128 49 -137 123l94 54c9 -51 36 -81 80 -81c46 0 84 27 112 81l52 -35c-46 -90 -118 -142 -201 -142z" />
    <glyph glyph-name="uni1E2B" unicode="&#x1e2b;" horiz-adv-x="505" 
d="M57 -6l172 745h113l-74 -320c43 34 89 51 134 51c96 0 139 -69 113 -182l-67 -294h-113l62 269c15 63 -5 96 -59 96c-32 0 -62 -11 -93 -37l-75 -328h-113zM200 -220c-71 0 -120 49 -127 122l89 51c8 -49 34 -77 74 -77c42 0 78 26 104 77l49 -33
c-44 -89 -111 -140 -189 -140z" />
    <glyph glyph-name="uni1E2E" unicode="&#x1e2e;" horiz-adv-x="281" 
d="M340 926l-31 69l184 143l47 -99zM208 762c-44 0 -66 30 -55 78s47 79 91 79c45 0 66 -31 55 -79s-46 -78 -91 -78zM418 762c-45 0 -67 30 -56 78s47 79 92 79s65 -31 54 -79s-45 -78 -90 -78zM80 0l160 694h122l-160 -694h-122z" />
    <glyph glyph-name="uni1E2F" unicode="&#x1e2f;" horiz-adv-x="238" 
d="M288 700l-41 49l137 168l67 -77zM149 543c-38 0 -56 28 -46 71c10 45 41 72 79 72c39 0 58 -27 48 -72c-10 -43 -42 -71 -81 -71zM342 543c-39 0 -57 28 -47 71c10 45 41 72 80 72s56 -27 46 -72c-10 -43 -40 -71 -79 -71zM63 0l112 486h113l-112 -486h-113z" />
    <glyph glyph-name="uni1E30" unicode="&#x1e30;" horiz-adv-x="609" 
d="M459 739l-31 68l185 144l46 -100zM78 0l160 694h122l-74 -322l320 322h146l-327 -323l181 -371h-160l-165 351l-81 -351h-122z" />
    <glyph glyph-name="uni1E31" unicode="&#x1e31;" horiz-adv-x="462" 
d="M384 784l-28 68l173 144l41 -100zM59 0l170 739h113l-110 -475l203 222h128l-206 -219l109 -267h-140l-98 249l-57 -249h-112z" />
    <glyph glyph-name="uni1E36" unicode="&#x1e36;" horiz-adv-x="497" 
d="M77 0l161 694h120l-134 -580h278l-27 -114h-398zM215 -210c-45 0 -67 30 -56 78s47 79 92 79c44 0 65 -31 54 -79s-46 -78 -90 -78z" />
    <glyph glyph-name="uni1E37" unicode="&#x1e37;" horiz-adv-x="257" 
d="M173 -7c-75 0 -108 51 -89 135l141 611h112l-137 -595c-8 -34 2 -54 27 -54c8 0 18 2 29 6l3 -85c-27 -12 -59 -18 -86 -18zM96 -210c-43 0 -62 30 -51 78s44 79 87 79s63 -31 52 -79s-45 -78 -88 -78z" />
    <glyph glyph-name="uni1E3A" unicode="&#x1e3a;" horiz-adv-x="497" 
d="M77 0l161 694h120l-134 -580h278l-27 -114h-398zM63 -189l24 101h310l-23 -101h-311z" />
    <glyph glyph-name="uni1E3B" unicode="&#x1e3b;" horiz-adv-x="253" 
d="M171 -7c-74 0 -106 51 -87 135l141 611h112l-138 -595c-8 -34 2 -54 27 -54c8 0 17 2 27 6l4 -85c-26 -12 -59 -18 -86 -18zM-21 -189l23 101h241l-24 -101h-240z" />
    <glyph glyph-name="uni1E42" unicode="&#x1e42;" horiz-adv-x="822" 
d="M77 0l161 694h118l115 -450l318 450h116l-160 -694h-116l111 480l-259 -373h-93l-87 359l-107 -466h-117zM364 -210c-45 0 -67 30 -56 78s47 79 92 79c44 0 65 -31 54 -79s-46 -78 -90 -78z" />
    <glyph glyph-name="uni1E43" unicode="&#x1e43;" horiz-adv-x="784" 
d="M58 -3l107 465h81l8 -50c46 37 99 58 149 58c57 0 97 -27 112 -74c49 47 109 74 167 74c96 0 141 -70 115 -181l-68 -292h-113l62 266c13 57 -3 96 -61 96c-32 0 -63 -11 -94 -34c-1 -12 -3 -26 -6 -40l-66 -288h-113l61 266c12 54 0 96 -60 96c-31 0 -62 -10 -91 -31
l-76 -331h-114zM348 -210c-42 0 -62 30 -51 78s46 79 88 79c43 0 63 -31 52 -79s-46 -78 -89 -78z" />
    <glyph glyph-name="uni1E44" unicode="&#x1e44;" horiz-adv-x="719" 
d="M520 762c-45 0 -66 31 -55 79s47 79 92 79c44 0 65 -31 54 -79s-47 -79 -91 -79zM77 0l161 694h137l192 -517l121 517h114l-160 -694h-134l-198 518l-119 -518h-114z" />
    <glyph glyph-name="uni1E45" unicode="&#x1e45;" horiz-adv-x="511" 
d="M390 576c-43 0 -63 30 -52 78s45 79 88 79s63 -31 52 -79s-45 -78 -88 -78zM59 0l106 462h81l9 -53c47 40 101 61 153 61c97 0 140 -71 114 -185l-66 -285h-114l61 264c14 62 -5 95 -60 95c-33 0 -65 -11 -95 -33l-75 -326h-114z" />
    <glyph glyph-name="uni1E46" unicode="&#x1e46;" horiz-adv-x="719" 
d="M77 0l161 694h137l192 -517l121 517h114l-160 -694h-134l-198 518l-119 -518h-114zM311 -210c-45 0 -66 30 -55 78s46 79 91 79s65 -31 54 -79s-45 -78 -90 -78z" />
    <glyph glyph-name="uni1E47" unicode="&#x1e47;" horiz-adv-x="511" 
d="M58 -3l107 465h81l9 -53c47 40 101 61 153 61c97 0 141 -71 114 -186l-66 -287h-114l61 266c14 62 -5 96 -60 96c-33 0 -65 -11 -95 -33l-76 -329h-114zM208 -210c-43 0 -62 30 -51 78s44 79 87 79s63 -31 52 -79s-45 -78 -88 -78z" />
    <glyph glyph-name="uni1E48" unicode="&#x1e48;" horiz-adv-x="719" 
d="M77 0l161 694h137l192 -517l121 517h114l-160 -694h-134l-198 518l-119 -518h-114zM160 -189l24 101h309l-23 -101h-310z" />
    <glyph glyph-name="uni1E49" unicode="&#x1e49;" horiz-adv-x="506" 
d="M58 -5l107 467h81l9 -53c47 40 99 61 150 61c95 0 138 -72 111 -187l-66 -288h-114l62 268c14 63 -5 96 -58 96c-32 0 -63 -11 -92 -33l-76 -331h-114zM65 -189l23 101h290l-23 -101h-290z" />
    <glyph glyph-name="uni1E4C" unicode="&#x1e4c;" 
d="M563 953l-32 68l185 144l47 -100zM435 755l-70 20c34 83 92 131 146 131c53 0 70 -47 103 -47c20 0 42 17 59 49l69 -21c-31 -80 -89 -127 -151 -127c-58 0 -66 45 -99 45c-20 0 -41 -18 -57 -50zM349 -9c-186 0 -278 140 -229 351c50 217 210 362 402 362
c189 0 282 -141 234 -351c-50 -217 -213 -362 -407 -362zM384 103c113 0 212 96 245 239c35 150 -23 249 -142 249c-112 0 -207 -95 -240 -238c-35 -150 20 -250 137 -250z" />
    <glyph glyph-name="uni1E4D" unicode="&#x1e4d;" horiz-adv-x="496" 
d="M418 714l-40 53l137 180l63 -83zM281 542l-66 20c33 83 88 131 138 131c49 0 64 -47 95 -47c19 0 39 17 55 49l66 -21c-30 -80 -84 -127 -142 -127c-54 0 -62 45 -92 45c-18 0 -39 -18 -54 -50zM238 -10c-128 0 -190 92 -157 233c35 149 148 249 282 249
c127 0 189 -92 156 -234c-34 -149 -147 -248 -281 -248zM272 98c62 0 112 49 130 128c19 83 -11 138 -75 138c-62 0 -110 -49 -129 -130c-19 -82 10 -136 74 -136z" />
    <glyph glyph-name="uni1E4E" unicode="&#x1e4e;" 
d="M475 976c-45 0 -67 31 -56 78c11 49 47 79 92 79c44 0 65 -30 54 -79c-11 -47 -46 -78 -90 -78zM684 976c-45 0 -66 31 -55 78c11 49 46 79 91 79s66 -30 55 -79c-11 -47 -46 -78 -91 -78zM435 755l-70 20c34 83 92 131 146 131c53 0 70 -47 103 -47c20 0 42 17 59 49
l69 -21c-31 -80 -89 -127 -151 -127c-58 0 -66 45 -99 45c-20 0 -41 -18 -57 -50zM349 -9c-186 0 -278 140 -229 351c50 217 210 362 402 362c189 0 282 -141 234 -351c-50 -217 -213 -362 -407 -362zM384 103c113 0 212 96 245 239c35 150 -23 249 -142 249
c-112 0 -207 -95 -240 -238c-35 -150 20 -250 137 -250z" />
    <glyph glyph-name="uni1E4F" unicode="&#x1e4f;" horiz-adv-x="501" 
d="M326 761c-43 0 -63 31 -52 79s46 79 89 79c42 0 62 -31 51 -79s-46 -79 -88 -79zM524 761c-42 0 -62 31 -51 79s46 79 88 79c43 0 63 -31 52 -79s-46 -79 -89 -79zM284 550l-67 21c33 83 89 131 140 131c50 0 66 -47 98 -47c19 0 40 17 56 49l66 -21
c-30 -80 -86 -127 -145 -127c-55 0 -62 45 -93 45c-19 0 -40 -18 -55 -51zM240 -10c-130 0 -192 92 -159 233c35 149 149 249 285 249c129 0 192 -92 159 -234c-34 -149 -149 -248 -285 -248zM275 98c63 0 115 49 133 128c19 83 -12 138 -78 138c-63 0 -113 -49 -132 -130
c-19 -82 11 -136 77 -136z" />
    <glyph glyph-name="uni1E50" unicode="&#x1e50;" 
d="M586 925l-148 112l92 100l119 -144zM381 778l24 102h313l-23 -102h-314zM349 -9c-186 0 -278 140 -229 351c50 217 210 362 402 362c189 0 282 -141 234 -351c-50 -217 -213 -362 -407 -362zM384 103c113 0 212 96 245 239c35 150 -23 249 -142 249
c-112 0 -207 -95 -240 -238c-35 -150 20 -250 137 -250z" />
    <glyph glyph-name="uni1E51" unicode="&#x1e51;" horiz-adv-x="496" 
d="M394 694l-92 149l101 83l54 -180zM225 537l23 101h292l-24 -101h-291zM238 -10c-128 0 -190 92 -157 233c35 149 148 249 282 249c127 0 189 -92 156 -234c-34 -149 -147 -248 -281 -248zM272 98c62 0 112 49 130 128c19 83 -11 138 -75 138c-62 0 -110 -49 -129 -130
c-19 -82 10 -136 74 -136z" />
    <glyph glyph-name="uni1E52" unicode="&#x1e52;" 
d="M556 925l-31 68l185 144l46 -100zM381 778l24 102h313l-23 -102h-314zM349 -9c-186 0 -278 140 -229 351c50 217 210 362 402 362c189 0 282 -141 234 -351c-50 -217 -213 -362 -407 -362zM384 103c113 0 212 96 245 239c35 150 -23 249 -142 249
c-112 0 -207 -95 -240 -238c-35 -150 20 -250 137 -250z" />
    <glyph glyph-name="uni1E53" unicode="&#x1e53;" horiz-adv-x="496" 
d="M413 694l-39 52l136 180l64 -83zM225 537l23 101h292l-24 -101h-291zM238 -10c-128 0 -190 92 -157 233c35 149 148 249 282 249c127 0 189 -92 156 -234c-34 -149 -147 -248 -281 -248zM272 98c62 0 112 49 130 128c19 83 -11 138 -75 138c-62 0 -110 -49 -129 -130
c-19 -82 10 -136 74 -136z" />
    <glyph glyph-name="uni1E5A" unicode="&#x1e5a;" horiz-adv-x="606" 
d="M77 0l161 694h240c141 0 213 -74 183 -202c-22 -94 -86 -168 -169 -206l96 -286h-144l-78 259h-109l-60 -259h-120zM437 582h-105l-50 -214h121c67 0 113 39 128 104c16 69 -19 110 -94 110zM250 -210c-45 0 -66 30 -55 78s46 79 91 79c44 0 66 -31 55 -79
s-47 -78 -91 -78z" />
    <glyph glyph-name="uni1E5B" unicode="&#x1e5b;" horiz-adv-x="356" 
d="M59 -3l108 465h90l-6 -72c43 48 95 77 145 77c22 0 45 -6 61 -17l-51 -112c-14 8 -33 14 -53 14c-39 0 -79 -19 -111 -52l-70 -303h-113zM68 -210c-43 0 -63 30 -52 78s45 79 88 79s63 -31 52 -79s-45 -78 -88 -78z" />
    <glyph glyph-name="uni1E5E" unicode="&#x1e5e;" horiz-adv-x="606" 
d="M77 0l161 694h240c141 0 213 -74 183 -202c-22 -94 -86 -168 -169 -206l96 -286h-144l-78 259h-109l-60 -259h-120zM437 582h-105l-50 -214h121c67 0 113 39 128 104c16 69 -19 110 -94 110zM99 -189l23 101h311l-24 -101h-310z" />
    <glyph glyph-name="uni1E5F" unicode="&#x1e5f;" horiz-adv-x="351" 
d="M58 -5l108 467h89l-5 -72c43 48 95 77 145 77c22 0 44 -6 60 -17l-50 -112c-14 9 -34 14 -54 14c-38 0 -78 -19 -110 -52l-70 -305h-113zM-49 -189l23 101h241l-23 -101h-241z" />
    <glyph glyph-name="uni1E60" unicode="&#x1e60;" horiz-adv-x="542" 
d="M427 762c-45 0 -66 31 -55 79s47 79 92 79c44 0 65 -31 54 -79s-47 -79 -91 -79zM255 -10c-74 0 -149 21 -210 55l57 104c57 -29 126 -43 185 -43c80 0 128 31 140 82c33 141 -325 63 -270 300c30 131 154 216 308 216c63 0 127 -15 176 -41l-58 -102
c-41 19 -98 30 -152 30c-80 0 -132 -30 -144 -83c-32 -140 327 -53 269 -304c-30 -130 -143 -214 -301 -214z" />
    <glyph glyph-name="uni1E61" unicode="&#x1e61;" horiz-adv-x="419" 
d="M341 576c-43 0 -63 30 -52 78s45 79 88 79c42 0 62 -31 51 -79s-45 -78 -87 -78zM199 -10c-59 0 -119 14 -163 38l46 92c41 -18 96 -30 138 -30c49 0 81 18 88 47c19 83 -237 18 -198 188c22 94 106 147 230 147c49 0 98 -9 134 -25l-45 -95c-37 12 -78 20 -114 20
c-53 0 -88 -17 -94 -44c-18 -77 240 -20 200 -191c-21 -91 -103 -147 -222 -147z" />
    <glyph glyph-name="uni1E62" unicode="&#x1e62;" horiz-adv-x="542" 
d="M255 -10c-74 0 -149 21 -210 55l57 104c57 -29 126 -43 185 -43c80 0 128 31 140 82c33 141 -325 63 -270 300c30 131 154 216 308 216c63 0 127 -15 176 -41l-58 -102c-41 19 -98 30 -152 30c-80 0 -132 -30 -144 -83c-32 -140 327 -53 269 -304
c-30 -130 -143 -214 -301 -214zM221 -210c-45 0 -66 30 -55 78s47 79 92 79c44 0 65 -31 54 -79s-47 -78 -91 -78z" />
    <glyph glyph-name="uni1E63" unicode="&#x1e63;" horiz-adv-x="419" 
d="M199 -10c-59 0 -119 14 -163 38l46 92c41 -18 96 -30 138 -30c49 0 81 18 88 47c19 83 -237 18 -198 188c22 94 106 147 230 147c49 0 98 -9 134 -25l-45 -95c-37 12 -78 20 -114 20c-53 0 -88 -17 -94 -44c-18 -77 240 -20 200 -191c-21 -91 -103 -147 -222 -147z
M162 -210c-43 0 -62 30 -51 78s45 79 88 79s63 -31 52 -79s-46 -78 -89 -78z" />
    <glyph glyph-name="uni1E64" unicode="&#x1e64;" horiz-adv-x="542" 
d="M388 889c-45 0 -66 30 -55 78s46 79 91 79s66 -31 55 -79s-46 -78 -91 -78zM422 739l-31 68l184 144l47 -100zM255 -10c-74 0 -149 21 -210 55l57 104c57 -29 126 -43 185 -43c80 0 128 31 140 82c33 141 -325 63 -270 300c30 131 154 216 308 216c63 0 127 -15 176 -41
l-58 -102c-41 19 -98 30 -152 30c-80 0 -132 -30 -144 -83c-32 -140 327 -53 269 -304c-30 -130 -143 -214 -301 -214z" />
    <glyph glyph-name="uni1E65" unicode="&#x1e65;" horiz-adv-x="417" 
d="M317 700c-39 0 -57 28 -47 72s41 71 80 71c38 0 57 -27 47 -71s-42 -72 -80 -72zM337 531l-38 54l140 175l62 -78zM198 -10c-58 0 -118 14 -162 38l46 92c41 -18 95 -30 136 -30c48 0 81 18 88 47c19 83 -235 18 -196 188c22 94 106 147 229 147c49 0 97 -9 133 -25
l-45 -95c-37 12 -78 20 -113 20c-53 0 -87 -17 -93 -44c-18 -77 238 -20 198 -191c-21 -91 -103 -147 -221 -147z" />
    <glyph glyph-name="uni1E66" unicode="&#x1e66;" horiz-adv-x="542" 
d="M483 931c-45 0 -67 30 -56 78s47 79 92 79c44 0 65 -31 54 -79s-46 -78 -90 -78zM410 748l-101 131l85 67l75 -97l124 96l37 -44l-160 -153h-60zM255 -10c-74 0 -149 21 -210 55l57 104c57 -29 126 -43 185 -43c80 0 128 31 140 82c33 141 -325 63 -270 300
c30 131 154 216 308 216c63 0 127 -15 176 -41l-58 -102c-41 19 -98 30 -152 30c-80 0 -132 -30 -144 -83c-32 -140 327 -53 269 -304c-30 -130 -143 -214 -301 -214z" />
    <glyph glyph-name="uni1E67" unicode="&#x1e67;" horiz-adv-x="419" 
d="M373 713c-39 0 -58 28 -48 72s42 72 81 72c38 0 56 -28 46 -72s-41 -72 -79 -72zM515 670l-156 -153h-64l-93 119l82 77l78 -87l121 89zM199 -10c-59 0 -119 14 -163 38l46 92c41 -18 96 -30 138 -30c49 0 81 18 88 47c19 83 -237 18 -198 188c22 94 106 147 230 147
c49 0 98 -9 134 -25l-45 -95c-37 12 -78 20 -114 20c-53 0 -88 -17 -94 -44c-18 -77 240 -20 200 -191c-21 -91 -103 -147 -222 -147z" />
    <glyph glyph-name="uni1E68" unicode="&#x1e68;" horiz-adv-x="542" 
d="M427 762c-45 0 -66 31 -55 79s47 79 92 79c44 0 65 -31 54 -79s-47 -79 -91 -79zM255 -10c-74 0 -149 21 -210 55l57 104c57 -29 126 -43 185 -43c80 0 128 31 140 82c33 141 -325 63 -270 300c30 131 154 216 308 216c63 0 127 -15 176 -41l-58 -102
c-41 19 -98 30 -152 30c-80 0 -132 -30 -144 -83c-32 -140 327 -53 269 -304c-30 -130 -143 -214 -301 -214zM221 -210c-45 0 -66 30 -55 78s47 79 92 79c44 0 65 -31 54 -79s-47 -78 -91 -78z" />
    <glyph glyph-name="uni1E69" unicode="&#x1e69;" horiz-adv-x="419" 
d="M341 576c-43 0 -63 30 -52 78s45 79 88 79c42 0 62 -31 51 -79s-45 -78 -87 -78zM199 -10c-59 0 -119 14 -163 38l46 92c41 -18 96 -30 138 -30c49 0 81 18 88 47c19 83 -237 18 -198 188c22 94 106 147 230 147c49 0 98 -9 134 -25l-45 -95c-37 12 -78 20 -114 20
c-53 0 -88 -17 -94 -44c-18 -77 240 -20 200 -191c-21 -91 -103 -147 -222 -147zM162 -210c-43 0 -62 30 -51 78s45 79 88 79s63 -31 52 -79s-46 -78 -89 -78z" />
    <glyph glyph-name="uni1E6C" unicode="&#x1e6c;" horiz-adv-x="563" 
d="M222 0l134 581h-206l26 113h533l-27 -113h-207l-134 -581h-119zM234 -210c-45 0 -66 30 -55 78s46 79 91 79s66 -31 55 -79s-46 -78 -91 -78z" />
    <glyph glyph-name="uni1E6D" unicode="&#x1e6d;" horiz-adv-x="333" 
d="M224 -7c-95 0 -139 58 -118 150l50 217h-58l23 102h58l39 165h112l-38 -165h107l-24 -102h-107l-47 -205c-9 -39 11 -63 51 -63c13 0 28 2 42 8l2 -90c-30 -10 -63 -17 -92 -17zM141 -208c-43 0 -64 31 -53 79s46 79 89 79c42 0 62 -31 51 -79s-45 -79 -87 -79z" />
    <glyph glyph-name="uni1E6E" unicode="&#x1e6e;" horiz-adv-x="563" 
d="M222 0l134 581h-206l26 113h533l-27 -113h-207l-134 -581h-119zM83 -189l24 101h309l-23 -101h-310z" />
    <glyph glyph-name="uni1E6F" unicode="&#x1e6f;" horiz-adv-x="328" 
d="M222 -7c-94 0 -137 58 -116 150l50 217h-58l23 102h58l39 165h112l-38 -165h104l-24 -102h-104l-47 -205c-9 -39 10 -63 49 -63c13 0 29 2 42 8l1 -90c-29 -10 -62 -17 -91 -17zM-2 -186l23 100h289l-23 -100h-289z" />
    <glyph glyph-name="uni1E78" unicode="&#x1e78;" horiz-adv-x="657" 
d="M534 953l-31 68l185 144l46 -100zM405 755l-69 20c35 83 91 131 146 131c52 0 70 -47 103 -47c21 0 42 17 59 49l69 -21c-30 -80 -89 -127 -150 -127c-58 0 -68 45 -101 45c-19 0 -40 -18 -57 -50zM320 -10c-158 0 -232 104 -194 270l100 434h120l-98 -424
c-24 -105 16 -168 113 -168c86 0 150 56 172 150l102 442h118l-99 -427c-39 -167 -170 -277 -334 -277z" />
    <glyph glyph-name="uni1E79" unicode="&#x1e79;" horiz-adv-x="500" 
d="M417 731l-40 49l134 167l66 -77zM281 561l-66 20c33 83 87 131 138 131c49 0 64 -47 95 -47c19 0 40 17 56 49l66 -21c-30 -80 -85 -127 -142 -127c-55 0 -63 45 -93 45c-18 0 -39 -18 -54 -50zM276 486l-65 -282c-13 -57 -1 -101 55 -101c30 0 60 13 89 35l80 348h113
l-112 -486h-81l-7 53c-47 -40 -99 -61 -148 -61c-91 0 -134 72 -108 184l71 310h113z" />
    <glyph glyph-name="uni1E7A" unicode="&#x1e7a;" horiz-adv-x="657" 
d="M439 948c-45 0 -67 30 -56 78s47 79 92 79c44 0 65 -31 54 -79s-46 -78 -90 -78zM648 948c-45 0 -66 30 -55 78s46 79 91 79s66 -31 55 -79s-46 -78 -91 -78zM353 778l24 102h313l-24 -102h-313zM320 -10c-158 0 -232 104 -194 270l100 434h120l-98 -424
c-24 -105 16 -168 113 -168c86 0 150 56 172 150l102 442h118l-99 -427c-39 -167 -170 -277 -334 -277z" />
    <glyph glyph-name="uni1E7B" unicode="&#x1e7b;" horiz-adv-x="503" 
d="M316 740c-43 0 -63 30 -52 78s45 79 88 79s63 -31 52 -79s-45 -78 -88 -78zM514 740c-42 0 -62 30 -51 78s45 79 87 79c43 0 63 -31 52 -79s-45 -78 -88 -78zM224 557l23 101h298l-23 -101h-298zM276 486l-65 -282c-13 -57 -1 -101 57 -101c31 0 61 13 91 35l80 348h113
l-112 -486h-81l-7 53c-47 -40 -101 -61 -150 -61c-92 0 -136 72 -110 184l71 310h113z" />
    <glyph glyph-name="Wgrave" unicode="&#x1e80;" horiz-adv-x="948" 
d="M658 739l-148 112l91 100l119 -144zM214 0l-40 694h136l9 -533l249 529h132l18 -521l257 525h121l-361 -694h-123l-23 517l-247 -517h-128z" />
    <glyph glyph-name="wgrave" unicode="&#x1e81;" horiz-adv-x="697" 
d="M466 546l-93 139l100 77l56 -168zM155 0l-40 486h119l7 -356l168 354h110l7 -348l174 350h106l-260 -486h-109l-15 343l-165 -343h-102z" />
    <glyph glyph-name="Wacute" unicode="&#x1e82;" horiz-adv-x="948" 
d="M628 739l-32 68l185 144l47 -100zM214 0l-40 694h136l9 -533l249 529h132l18 -521l257 525h121l-361 -694h-123l-23 517l-247 -517h-128z" />
    <glyph glyph-name="wacute" unicode="&#x1e83;" horiz-adv-x="697" 
d="M485 546l-40 48l134 168l64 -77zM155 0l-40 486h119l7 -356l168 354h110l7 -348l174 350h106l-260 -486h-109l-15 343l-165 -343h-102z" />
    <glyph glyph-name="Wdieresis" unicode="&#x1e84;" horiz-adv-x="948" 
d="M538 762c-45 0 -65 30 -54 78s46 79 91 79s66 -31 55 -79s-47 -78 -92 -78zM749 762c-45 0 -67 30 -56 78s47 79 92 79s65 -31 54 -79s-45 -78 -90 -78zM214 0l-40 694h136l9 -533l249 529h132l18 -521l257 525h121l-361 -694h-123l-23 517l-247 -517h-128z" />
    <glyph glyph-name="wdieresis" unicode="&#x1e85;" horiz-adv-x="708" 
d="M392 576c-43 0 -62 30 -51 78s45 79 88 79s62 -31 51 -79s-45 -78 -88 -78zM591 576c-43 0 -63 30 -52 78s45 79 88 79c42 0 62 -31 51 -79s-45 -78 -87 -78zM155 0l-40 486h119l8 -356l172 354h111l12 -348l174 350h106l-261 -486h-111l-17 343l-169 -343h-104z" />
    <glyph glyph-name="uni1E8E" unicode="&#x1e8e;" horiz-adv-x="585" 
d="M455 762c-44 0 -65 31 -54 79s46 79 90 79c45 0 67 -31 56 -79s-47 -79 -92 -79zM236 0l63 274l-140 420h142l89 -308l223 308h133l-327 -422l-63 -272h-120z" />
    <glyph glyph-name="uni1E8F" unicode="&#x1e8f;" horiz-adv-x="439" 
d="M347 576c-43 0 -63 30 -52 78s45 79 88 79s62 -31 51 -79s-44 -78 -87 -78zM38 -217l126 217l-50 486h120l18 -364l189 364h108l-273 -486l-117 -217h-121z" />
    <glyph glyph-name="uni1E92" unicode="&#x1e92;" horiz-adv-x="604" 
d="M32 0l19 83l482 498h-352l26 113h517l-18 -78l-487 -503h379l-26 -113h-540zM257 -210c-45 0 -66 30 -55 78s46 79 91 79s66 -31 55 -79s-46 -78 -91 -78z" />
    <glyph glyph-name="uni1E93" unicode="&#x1e93;" horiz-adv-x="416" 
d="M29 0l17 77l274 280h-209l24 105h350l-18 -77l-274 -280h220l-24 -105h-360zM159 -210c-43 0 -63 30 -52 78s45 79 88 79c42 0 62 -31 51 -79s-45 -78 -87 -78z" />
    <glyph glyph-name="uni1E97" unicode="&#x1e97;" horiz-adv-x="336" 
d="M195 717c-43 0 -62 30 -51 78s44 79 87 79s63 -31 52 -79s-45 -78 -88 -78zM396 717c-43 0 -63 30 -52 78s45 79 88 79c42 0 62 -31 51 -79s-45 -78 -87 -78zM227 -7c-96 0 -140 58 -119 150l50 217h-61l24 102h60l36 156h112l-35 -156h108l-23 -102h-109l-47 -205
c-9 -39 11 -63 52 -63c13 0 29 2 43 8l1 -90c-30 -10 -63 -17 -92 -17z" />
    <glyph glyph-name="uni1E9E" unicode="&#x1e9e;" horiz-adv-x="673" 
d="M412 -10c-53 0 -102 13 -142 37l59 101c30 -16 71 -26 107 -26c62 0 106 31 118 84c15 67 -39 114 -140 132l165 220c-16 34 -54 54 -106 54c-88 0 -157 -56 -177 -141l-104 -451h-121l104 451c35 152 164 253 328 253c117 0 203 -51 222 -133l-140 -183
c83 -30 117 -101 96 -193c-28 -122 -137 -205 -269 -205z" />
    <glyph glyph-name="uni1EA0" unicode="&#x1ea0;" horiz-adv-x="643" 
d="M15 0l396 694h153l64 -694h-133l-12 174h-248l-93 -174h-127zM297 289h178l-21 294zM273 -210c-45 0 -66 30 -55 78s46 79 91 79s66 -31 55 -79s-46 -78 -91 -78z" />
    <glyph glyph-name="uni1EA1" unicode="&#x1ea1;" horiz-adv-x="462" 
d="M176 -10c-91 0 -136 54 -117 138c23 98 116 144 304 147l2 12c12 52 -19 79 -88 79c-40 0 -86 -9 -134 -27l-7 86c58 30 128 47 190 47c127 0 177 -68 148 -194l-64 -278h-81l-4 49c-42 -38 -94 -59 -149 -59zM177 145c-8 -33 17 -55 60 -55c33 0 64 11 90 32l19 82
c-111 -2 -160 -20 -169 -59zM185 -210c-43 0 -63 30 -52 78s45 79 88 79s63 -31 52 -79s-45 -78 -88 -78z" />
    <glyph glyph-name="uni1EA2" unicode="&#x1ea2;" horiz-adv-x="643" 
d="M476 742l-7 60c33 15 56 39 62 63c5 20 -7 32 -29 32c-16 0 -39 -6 -63 -18l-9 78c42 22 84 32 117 32c64 0 95 -38 82 -95c-14 -60 -69 -116 -153 -152zM15 0l396 694h153l64 -694h-133l-12 174h-248l-93 -174h-127zM297 289h178l-21 294z" />
    <glyph glyph-name="uni1EA3" unicode="&#x1ea3;" horiz-adv-x="460" 
d="M324 529l-4 67c30 17 53 43 59 70c5 21 -5 36 -25 36c-15 0 -36 -8 -59 -21l-8 81c40 21 80 32 112 32c60 0 88 -41 74 -102c-15 -64 -69 -125 -149 -163zM175 -10c-90 0 -135 54 -116 138c23 98 115 144 301 147l3 12c12 52 -19 79 -87 79c-39 0 -85 -9 -133 -27l-7 86
c57 30 126 47 188 47c126 0 177 -68 148 -194l-64 -278h-81l-5 49c-41 -38 -92 -59 -147 -59zM177 145c-8 -33 16 -55 59 -55c32 0 63 11 89 32l19 82c-109 -2 -158 -20 -167 -59z" />
    <glyph glyph-name="uni1EA4" unicode="&#x1ea4;" horiz-adv-x="644" 
d="M705 879l-39 47l155 164l62 -76zM352 775l166 130h60l96 -107l-85 -67l-78 72l-123 -71zM15 0l396 694h153l64 -694h-133l-12 174h-248l-93 -174h-127zM297 289h178l-21 294z" />
    <glyph glyph-name="uni1EA5" unicode="&#x1ea5;" horiz-adv-x="452" 
d="M508 637l-38 51l141 174l58 -81zM202 548l152 138h55l94 -114l-78 -72l-75 77l-111 -75zM173 -10c-89 0 -133 54 -114 138c23 98 115 144 299 147l2 12c12 52 -18 79 -86 79c-39 0 -84 -9 -131 -27l-7 86c57 30 126 47 187 47c125 0 175 -68 146 -194l-64 -278h-81l-5 49
c-41 -38 -92 -59 -146 -59zM177 145c-8 -33 15 -55 57 -55c32 0 63 11 88 32l19 82c-107 -2 -155 -20 -164 -59z" />
    <glyph glyph-name="uni1EA6" unicode="&#x1ea6;" horiz-adv-x="643" 
d="M681 881l-105 129l104 79l67 -158zM352 775l166 130h60l96 -107l-85 -67l-78 72l-123 -71zM15 0l396 694h153l64 -694h-133l-12 174h-248l-93 -174h-127zM297 289h178l-21 294z" />
    <glyph glyph-name="uni1EA7" unicode="&#x1ea7;" horiz-adv-x="457" 
d="M507 639l-103 138l94 84l69 -169zM202 548l152 138h55l94 -114l-78 -72l-75 77l-111 -75zM173 -10c-89 0 -133 54 -114 138c23 98 115 144 299 147l2 12c12 52 -18 79 -86 79c-39 0 -84 -9 -131 -27l-7 86c57 30 126 47 187 47c125 0 175 -68 146 -194l-64 -278h-81
l-5 49c-41 -38 -92 -59 -146 -59zM177 145c-8 -33 15 -55 57 -55c32 0 63 11 88 32l19 82c-107 -2 -155 -20 -164 -59z" />
    <glyph glyph-name="uni1EA8" unicode="&#x1ea8;" horiz-adv-x="643" 
d="M679 892l-3 58c31 10 54 28 59 45c4 14 -6 24 -29 24c-16 0 -36 -5 -63 -14l-5 74c43 16 85 25 118 25c63 0 93 -34 79 -83c-15 -50 -72 -100 -156 -129zM352 775l166 130h60l96 -107l-85 -67l-78 72l-123 -71zM15 0l396 694h153l64 -694h-133l-12 174h-248l-93 -174
h-127zM297 289h178l-21 294z" />
    </font>
</defs>
</svg>
