<?xml version="1.0" standalone="no"?>
<!DOCTYPE svg PUBLIC "-//W3C//DTD SVG 1.1//EN" "http://www.w3.org/Graphics/SVG/1.1/DTD/svg11.dtd" >
<svg xmlns="http://www.w3.org/2000/svg" xmlns:xlink="http://www.w3.org/1999/xlink" version="1.1">
<metadata>
Created by FontForge 20201107 at Fri Dec 31 21:28:43 2021
 By Reinhart Previano Koentjoro
Copyright c 2009--2017 The Cantarell Authors
</metadata>
<defs>
<font id="Cantarell-Italic" horiz-adv-x="6" >
  <font-face 
    font-family="Cantarell"
    font-weight="400"
    font-style="italic"
    font-stretch="normal"
    units-per-em="1000"
    panose-1="0 0 0 0 0 0 0 0 0 0"
    ascent="800"
    descent="-200"
    x-height="458"
    cap-height="694"
    bbox="-120 -256 1391 1101"
    underline-thickness="50"
    underline-position="-125"
    stemh="80"
    stemv="70"
    unicode-range="U+0020-FB02"
  />
<missing-glyph horiz-adv-x="463" 
d="M-5 -217l221 956h372l-221 -956h-372zM53 -167h279l198 856h-279z" />
    <glyph glyph-name="fi" unicode="fi" horiz-adv-x="513" 
d="M70 -59l104 450h-61l15 67h62l23 103c26 112 103 188 191 188c29 0 54 -10 77 -25l-28 -60c-19 12 -47 17 -69 17c-47 0 -80 -35 -96 -105l-27 -118h128l-15 -67h-129l-101 -440c-23 -100 -98 -168 -186 -168c-29 0 -55 10 -78 25l29 59c19 -11 47 -16 69 -16
c47 0 78 31 92 90zM542 595c-32 0 -46 21 -38 57s32 57 64 57s45 -21 37 -57s-31 -57 -63 -57zM366 -6l107 464h72l-108 -464h-71z" />
    <glyph glyph-name="fl" unicode="fl" horiz-adv-x="523" 
d="M71 -55l103 446h-61l15 67h62l23 103c26 112 103 188 191 188c29 0 54 -10 77 -25l-29 -62c-18 13 -46 19 -68 19c-47 0 -80 -35 -96 -105l-27 -118h128l-15 -67h-129l-100 -436c-24 -103 -99 -172 -187 -172c-29 0 -55 10 -78 25l29 60c19 -12 47 -17 69 -17
c47 0 79 32 93 94zM455 -6c-57 0 -85 45 -69 114l146 631h71l-143 -621c-9 -37 1 -60 30 -60c10 0 21 2 32 7l2 -55c-19 -10 -46 -16 -69 -16z" />
    <glyph glyph-name="f_f" unicode="ff" horiz-adv-x="580" 
d="M70 -59l104 450h-61l15 67h62l23 103c26 112 103 188 191 188c29 0 54 -10 77 -25l-29 -62c-18 13 -46 19 -68 19c-47 0 -80 -35 -96 -105l-27 -118h128l-15 -67h-129l-101 -440c-23 -100 -98 -168 -186 -168c-29 0 -55 10 -78 25l29 59c19 -11 47 -16 69 -16
c47 0 78 31 92 90zM364 -59l104 450h-62l15 67h62l24 103c26 112 102 188 190 188c29 0 55 -10 78 -25l-29 -62c-18 13 -46 19 -68 19c-47 0 -81 -35 -97 -105l-27 -118h128l-15 -67h-128l-102 -440c-23 -100 -98 -168 -186 -168c-29 0 -54 10 -77 25l28 59
c19 -11 47 -16 69 -16c47 0 79 31 93 90z" />
    <glyph glyph-name="f_f_i" unicode="ffi" horiz-adv-x="806" 
d="M70 -59l104 450h-61l15 67h62l23 103c26 112 103 188 191 188c29 0 54 -10 77 -25l-28 -60c-19 12 -47 17 -69 17c-47 0 -80 -35 -96 -105l-27 -118h128l-15 -67h-129l-101 -440c-23 -100 -98 -168 -186 -168c-29 0 -55 10 -78 25l29 59c19 -11 47 -16 69 -16
c47 0 78 31 92 90zM364 -59l104 450h-62l15 67h62l24 103c26 112 102 188 190 188c29 0 55 -10 78 -25l-29 -60c-19 12 -46 17 -68 17c-47 0 -81 -35 -97 -105l-27 -118h128l-15 -67h-128l-102 -440c-23 -100 -98 -168 -186 -168c-29 0 -54 10 -77 25l28 59
c19 -11 47 -16 69 -16c47 0 79 31 93 90zM835 595c-32 0 -45 21 -37 57s31 57 63 57s46 -21 38 -57s-32 -57 -64 -57zM660 -6l107 464h71l-107 -464h-71z" />
    <glyph glyph-name="f_f_l" unicode="ffl" horiz-adv-x="816" 
d="M71 -55l103 446h-61l15 67h62l23 103c26 112 103 188 191 188c29 0 54 -10 77 -25l-29 -62c-18 13 -46 19 -68 19c-47 0 -80 -35 -96 -105l-27 -118h128l-15 -67h-129l-100 -436c-24 -103 -99 -172 -187 -172c-29 0 -55 10 -78 25l29 60c19 -12 47 -17 69 -17
c47 0 79 32 93 94zM365 -55l103 446h-62l15 67h62l24 103c26 112 102 188 190 188c29 0 55 -10 78 -25l-29 -62c-18 13 -46 19 -68 19c-47 0 -81 -35 -97 -105l-27 -118h128l-15 -67h-128l-101 -436c-24 -103 -99 -172 -187 -172c-29 0 -54 10 -77 25l28 60
c19 -12 47 -17 69 -17c47 0 80 32 94 94zM748 -6c-57 0 -84 45 -68 114l145 631h71l-143 -621c-9 -37 2 -60 31 -60c10 0 20 2 31 7l3 -55c-19 -10 -47 -16 -70 -16z" />
    <glyph glyph-name=".notdef" horiz-adv-x="463" 
d="M-5 -217l221 956h372l-221 -956h-372zM53 -167h279l198 856h-279z" />
    <glyph glyph-name="space" unicode=" " horiz-adv-x="200" 
 />
    <glyph glyph-name="exclam" unicode="!" horiz-adv-x="225" 
d="M129 201l104 493h79l-124 -493h-59zM111 -10c-35 0 -54 27 -45 64s39 64 74 64s54 -27 45 -64s-39 -64 -74 -64z" />
    <glyph glyph-name="quotedbl" unicode="&#x22;" horiz-adv-x="420" 
d="M207 422l53 272h80l-72 -272h-61zM374 422l54 272h80l-72 -272h-62z" />
    <glyph glyph-name="numbersign" unicode="#" horiz-adv-x="610" 
d="M156 0l41 181h-122l14 63h123l48 208h-123l15 63h122l42 179h64l-41 -179h173l41 179h64l-41 -179h120l-15 -63h-120l-48 -208h120l-14 -63h-120l-42 -181h-64l41 181h-173l-41 -181h-64zM276 244h173l48 208h-173z" />
    <glyph glyph-name="dollar" unicode="$" horiz-adv-x="599" 
d="M235 -154l34 144c-67 1 -132 20 -193 54l38 65c57 -28 125 -45 184 -45c98 0 164 45 180 115c41 177 -341 88 -286 326c25 109 119 182 242 196l32 139h65l-32 -138c53 -3 103 -16 146 -39l-38 -65c-42 21 -98 33 -153 33c-99 0 -163 -40 -180 -113
c-41 -179 344 -81 287 -327c-24 -105 -111 -178 -226 -196l-34 -149h-66z" />
    <glyph glyph-name="percent" unicode="%" horiz-adv-x="918" 
d="M286 262c-94 0 -135 85 -104 219c31 136 113 223 209 223c93 0 133 -86 102 -219c-31 -136 -113 -223 -207 -223zM245 0l510 694h77l-516 -694h-71zM303 328c49 0 95 59 116 152c22 97 4 158 -46 158c-49 0 -95 -59 -117 -153c-22 -96 -3 -157 47 -157zM691 -6
c-94 0 -135 85 -104 219c31 136 113 223 209 223c93 0 133 -86 102 -219c-31 -136 -113 -223 -207 -223zM708 60c49 0 95 59 116 152c22 97 4 158 -46 158c-49 0 -95 -59 -117 -153c-22 -96 -3 -157 47 -157z" />
    <glyph glyph-name="ampersand" unicode="&#x26;" horiz-adv-x="655" 
d="M541 -10c-25 28 -49 55 -70 80c-71 -53 -144 -82 -212 -82c-115 0 -177 81 -150 199c22 95 85 148 155 187c-18 51 -19 96 -8 143c26 113 111 187 213 187c92 0 142 -61 121 -150c-26 -111 -133 -150 -232 -195c27 -49 71 -108 137 -187c38 38 75 85 113 141l49 -36
c-37 -59 -79 -110 -122 -152c21 -23 44 -48 68 -75zM329 524c-9 -38 -8 -73 6 -115c86 40 167 72 184 144c11 49 -20 85 -74 85c-58 0 -99 -40 -116 -114zM183 194c-18 -80 24 -137 101 -137c46 0 96 20 149 59c-70 84 -117 150 -146 207c-50 -30 -90 -69 -104 -129z" />
    <glyph glyph-name="quotesingle" unicode="'" horiz-adv-x="252" 
d="M193 422l54 272h80l-72 -272h-62z" />
    <glyph glyph-name="parenleft" unicode="(" horiz-adv-x="277" 
d="M146 -179c-57 156 -64 285 -21 471c37 160 103 290 234 457l46 -31c-112 -152 -170 -270 -204 -419c-40 -175 -38 -298 6 -447z" />
    <glyph glyph-name="parenright" unicode=")" horiz-adv-x="277" 
d="M52 -179l-47 31c113 149 173 272 213 447c34 149 31 267 -11 419l61 31c54 -167 60 -297 23 -457c-43 -186 -110 -315 -239 -471z" />
    <glyph glyph-name="asterisk" unicode="*" horiz-adv-x="434" 
d="M248 282l55 170l-151 -104l-20 60l168 79l-130 81l49 60l101 -105l24 171h66l-54 -171l151 104l20 -61l-167 -79l130 -81l-48 -60l-103 104l-25 -168h-66z" />
    <glyph glyph-name="plus" unicode="+" horiz-adv-x="594" 
d="M282 62l54 234h-205l16 69h205l52 225h65l-52 -225h199l-16 -69h-199l-54 -234h-65z" />
    <glyph glyph-name="comma" unicode="," horiz-adv-x="249" 
d="M16 -174c41 86 79 191 100 281h77c-20 -87 -64 -191 -118 -281h-59z" />
    <glyph glyph-name="hyphen" unicode="-" horiz-adv-x="420" 
d="M126 220l16 67h269l-15 -67h-270z" />
    <glyph glyph-name="period" unicode="." horiz-adv-x="250" 
d="M123 -10c-35 0 -54 27 -45 64s39 64 74 64s54 -27 45 -64s-39 -64 -74 -64z" />
    <glyph glyph-name="slash" unicode="/" horiz-adv-x="313" 
d="M-4 -115l391 854h74l-396 -854h-69z" />
    <glyph glyph-name="zero" unicode="0" horiz-adv-x="584" 
d="M287 -10c-144 0 -199 131 -148 352c53 228 172 362 321 362c142 0 196 -131 145 -352c-52 -227 -171 -362 -318 -362zM311 62c94 0 172 104 213 280c42 182 10 290 -87 290c-95 0 -176 -104 -217 -280c-42 -182 -8 -290 91 -290z" />
    <glyph glyph-name="one" unicode="1" horiz-adv-x="417" 
d="M56 0l16 71h128l120 521l-134 -77l-16 56l204 123h48l-144 -623h124l-16 -71h-330z" />
    <glyph glyph-name="two" unicode="2" horiz-adv-x="499" 
d="M50 0l13 55c280 236 377 341 400 441c19 83 -19 135 -98 135c-53 0 -117 -24 -172 -64l-10 58c58 49 139 79 214 79c120 0 177 -74 149 -194c-28 -122 -132 -235 -370 -438h295l-16 -72h-405z" />
    <glyph glyph-name="three" unicode="3" horiz-adv-x="531" 
d="M240 -10c-70 0 -136 20 -190 54l33 67c51 -31 121 -48 182 -48c97 0 163 42 179 113c20 85 -47 140 -171 140h-35l16 72h37c103 0 178 48 196 126c16 71 -27 117 -110 117c-47 0 -109 -17 -171 -45l-4 61c67 36 143 57 208 57c118 0 183 -72 159 -177
c-18 -76 -76 -141 -149 -162c84 -24 126 -93 105 -182c-27 -115 -143 -193 -285 -193z" />
    <glyph glyph-name="four" unicode="4" horiz-adv-x="574" 
d="M348 -10l40 174h-316l10 42l430 488h71l-107 -462h116l-15 -68h-117l-40 -174h-72zM485 584l-309 -352h227z" />
    <glyph glyph-name="five" unicode="5" horiz-adv-x="523" 
d="M230 -10c-64 0 -119 19 -170 52l37 65c45 -28 101 -44 157 -44c95 0 166 53 187 142c21 93 -30 150 -143 150c-36 0 -89 -6 -139 -17l98 356h346l-17 -72h-276l-56 -203c31 5 59 8 86 8c145 0 213 -81 183 -212c-32 -138 -148 -225 -293 -225z" />
    <glyph glyph-name="six" unicode="6" horiz-adv-x="552" 
d="M288 -10c-141 0 -204 120 -154 338c55 239 194 376 370 376c60 0 112 -17 138 -44l-37 -65c-29 23 -79 36 -126 36c-120 0 -214 -96 -260 -297v-1c56 59 122 91 190 91c112 0 168 -86 139 -211c-31 -133 -137 -223 -260 -223zM365 352c-58 0 -113 -30 -159 -86
c-17 -132 21 -203 108 -203c75 0 133 52 152 136c21 92 -20 153 -101 153z" />
    <glyph glyph-name="seven" unicode="7" horiz-adv-x="497" 
d="M116 0l400 622h-341l17 72h433l-10 -40l-419 -654h-80z" />
    <glyph glyph-name="eight" unicode="8" horiz-adv-x="551" 
d="M275 -10c-135 0 -207 74 -182 184c20 85 87 153 176 179c-55 33 -94 80 -74 168c25 110 123 183 246 183c116 0 178 -67 155 -167c-18 -78 -80 -143 -162 -174c70 -37 132 -85 108 -187c-26 -113 -131 -186 -267 -186zM276 534c-17 -75 37 -110 102 -143
c71 19 127 72 141 132c15 66 -27 110 -105 110c-72 0 -124 -38 -138 -99zM175 185c-17 -73 34 -122 129 -122c85 0 142 39 157 106c20 87 -58 117 -136 154c-76 -20 -135 -73 -150 -138z" />
    <glyph glyph-name="nine" unicode="9" horiz-adv-x="553" 
d="M425 704c141 0 204 -120 154 -338c-55 -239 -194 -376 -370 -376c-60 0 -112 17 -138 44l37 65c29 -23 79 -36 126 -36c120 0 214 96 260 297v1c-56 -59 -122 -91 -190 -91c-112 0 -168 86 -139 211c31 133 137 223 260 223zM247 495c-21 -92 19 -153 100 -153
c58 0 114 30 160 86c17 132 -21 203 -108 203c-75 0 -133 -52 -152 -136z" />
    <glyph glyph-name="colon" unicode=":" horiz-adv-x="250" 
d="M207 354c-35 0 -54 27 -45 64s39 64 74 64s54 -27 45 -64s-39 -64 -74 -64zM123 -10c-35 0 -54 27 -45 64s39 64 74 64s54 -27 45 -64s-39 -64 -74 -64z" />
    <glyph glyph-name="semicolon" unicode=";" horiz-adv-x="250" 
d="M202 354c-35 0 -53 27 -44 64s39 64 74 64s54 -27 45 -64s-40 -64 -75 -64zM14 -174c41 86 78 191 99 281h77c-20 -87 -64 -191 -118 -281h-58z" />
    <glyph glyph-name="less" unicode="&#x3c;" horiz-adv-x="560" 
d="M623 594l-18 -78l-362 -173l280 -180l-19 -83l-347 229l15 64z" />
    <glyph glyph-name="equal" unicode="=" horiz-adv-x="659" 
d="M207 406l16 69h433l-16 -69h-433zM152 166l16 69h432l-15 -69h-433z" />
    <glyph glyph-name="greater" unicode="&#x3e;" horiz-adv-x="553" 
d="M95 85l18 78l376 173l-294 180l19 83l362 -229l-15 -64z" />
    <glyph glyph-name="question" unicode="?" horiz-adv-x="391" 
d="M191 195l12 53c33 143 183 179 207 284c14 60 -23 99 -100 99c-46 0 -100 -14 -156 -41l-4 61c62 33 136 53 197 53c110 0 167 -65 144 -163c-33 -142 -192 -184 -217 -293l-12 -53h-71zM183 -10c-35 0 -54 27 -45 64s39 64 74 64s54 -27 45 -64s-39 -64 -74 -64z" />
    <glyph glyph-name="at" unicode="@" horiz-adv-x="926" 
d="M445 50c-90 0 -136 79 -109 198c33 143 145 236 245 236c43 0 76 -17 94 -51l18 39h63l-88 -300c-8 -35 10 -52 38 -52c67 0 129 83 156 198c44 189 -44 318 -232 318c-204 0 -377 -153 -428 -373c-50 -215 49 -359 242 -359c54 0 112 11 160 30l3 -60
c-50 -21 -115 -36 -184 -36c-227 0 -350 162 -291 418c60 261 272 448 522 448c219 0 333 -143 280 -371c-38 -163 -138 -276 -251 -276c-46 0 -80 19 -91 55c-44 -36 -97 -62 -147 -62zM419 259c-20 -88 7 -140 64 -140c37 0 81 23 109 54l52 179c-11 40 -44 65 -82 65
c-65 0 -122 -67 -143 -158z" />
    <glyph glyph-name="A" unicode="A" horiz-adv-x="628" 
d="M29 0l402 694h101l66 -694h-86l-17 206h-269l-116 -206h-81zM266 278h223l-29 345z" />
    <glyph glyph-name="B" unicode="B" horiz-adv-x="606" 
d="M95 0l160 694h196c138 0 202 -61 178 -167c-14 -61 -55 -118 -106 -145c69 -27 100 -93 80 -180c-29 -127 -134 -202 -283 -202h-225zM442 396h6c58 28 86 60 97 109c18 79 -21 118 -120 118h-109l-53 -227h179zM188 71h157c103 0 157 34 175 114c20 86 -20 142 -102 142
h-171z" />
    <glyph glyph-name="C" unicode="C" horiz-adv-x="605" 
d="M371 -10c-191 0 -285 140 -237 349c50 218 217 364 417 364c63 0 126 -16 167 -43l-36 -62c-45 20 -101 32 -153 32c-155 0 -273 -103 -312 -272c-41 -177 35 -295 189 -295c49 0 110 12 161 32l3 -61c-68 -29 -137 -44 -199 -44z" />
    <glyph glyph-name="D" unicode="D" horiz-adv-x="678" 
d="M95 0l160 694h211c197 0 285 -124 237 -334c-51 -223 -216 -360 -411 -360h-197zM188 72h130c153 0 263 100 303 275c41 176 -24 275 -181 275h-125z" />
    <glyph glyph-name="E" unicode="E" horiz-adv-x="554" 
d="M95 0l160 694h405l-16 -72h-329l-52 -227h303l-16 -72h-304l-58 -251h329l-17 -72h-405z" />
    <glyph glyph-name="F" unicode="F" horiz-adv-x="538" 
d="M95 0l160 694h401l-17 -72h-324l-52 -228h296l-16 -72h-297l-74 -322h-77z" />
    <glyph glyph-name="G" unicode="G" horiz-adv-x="684" 
d="M380 -9c-195 0 -292 139 -243 351c50 218 218 361 422 361c71 0 135 -16 185 -46l-37 -64c-51 23 -116 37 -175 37c-157 0 -272 -100 -312 -273c-41 -178 33 -293 188 -293c51 0 105 13 156 38l44 194h-183l17 72h260l-68 -294c-78 -55 -165 -83 -254 -83z" />
    <glyph glyph-name="H" unicode="H" horiz-adv-x="688" 
d="M95 0l160 694h77l-69 -299h345l69 299h77l-160 -694h-77l74 323h-345l-74 -323h-77z" />
    <glyph glyph-name="I" unicode="I" horiz-adv-x="266" 
d="M95 0l160 694h77l-160 -694h-77z" />
    <glyph glyph-name="J" unicode="J" horiz-adv-x="409" 
d="M147 -10c-39 0 -76 10 -108 34l37 62c23 -14 58 -23 86 -23c62 0 107 46 126 128l116 503h77l-114 -494c-31 -135 -110 -210 -220 -210z" />
    <glyph glyph-name="K" unicode="K" horiz-adv-x="580" 
d="M95 0l160 694h77l-76 -330l358 330h94l-361 -327l215 -367h-103l-205 358l-82 -358h-77z" />
    <glyph glyph-name="L" unicode="L" horiz-adv-x="496" 
d="M95 0l160 694h77l-143 -620h289l-17 -74h-366z" />
    <glyph glyph-name="M" unicode="M" horiz-adv-x="817" 
d="M95 0l160 694h79l121 -497l351 497h77l-161 -694h-73l128 554l-314 -446h-61l-108 437l-126 -545h-73z" />
    <glyph glyph-name="N" unicode="N" horiz-adv-x="715" 
d="M95 0l160 694h88l231 -583l135 583h72l-160 -694h-86l-233 583l-135 -583h-72z" />
    <glyph glyph-name="O" unicode="O" horiz-adv-x="724" 
d="M353 -7c-178 0 -263 140 -214 351c50 215 204 359 387 359c180 0 270 -139 222 -347c-50 -218 -209 -363 -395 -363zM379 65c133 0 248 112 287 279c40 172 -27 286 -166 286c-130 0 -242 -110 -280 -274c-40 -175 23 -291 159 -291z" />
    <glyph glyph-name="P" unicode="P" horiz-adv-x="571" 
d="M95 0l160 694h201c136 0 207 -88 176 -221c-32 -139 -151 -231 -295 -231h-109l-56 -242h-77zM430 622h-115l-71 -308h124c96 0 159 50 181 144c23 98 -25 164 -119 164z" />
    <glyph glyph-name="Q" unicode="Q" horiz-adv-x="736" 
d="M353 -7c-178 0 -263 140 -214 351c50 215 204 359 387 359c180 0 270 -139 222 -347c-23 -100 -69 -184 -130 -246l70 -91l-58 -51l-69 92c-61 -43 -132 -67 -208 -67zM379 65c52 0 101 17 144 47l-109 147l53 50l111 -146c41 47 71 109 88 181c40 172 -27 286 -166 286
c-130 0 -242 -110 -280 -274c-40 -175 23 -291 159 -291z" />
    <glyph glyph-name="R" unicode="R" horiz-adv-x="596" 
d="M95 0l160 694h214c132 0 199 -72 171 -194c-21 -93 -87 -167 -173 -200l95 -300h-93l-84 282c-8 -1 -14 -1 -21 -1h-127l-65 -281h-77zM443 622h-128l-62 -271h137c88 0 147 49 167 134c20 86 -22 137 -114 137z" />
    <glyph glyph-name="S" unicode="S" horiz-adv-x="542" 
d="M257 -10c-69 0 -136 19 -200 54l38 65c57 -28 125 -45 184 -45c98 0 164 45 180 115c41 177 -341 88 -286 326c28 121 140 198 284 198c61 0 120 -14 169 -40l-38 -65c-42 21 -98 33 -153 33c-99 0 -163 -40 -180 -113c-41 -179 344 -81 287 -327
c-28 -122 -141 -201 -285 -201z" />
    <glyph glyph-name="T" unicode="T" horiz-adv-x="551" 
d="M237 0l143 622h-215l17 72h508l-17 -72h-216l-143 -622h-77z" />
    <glyph glyph-name="U" unicode="U" horiz-adv-x="657" 
d="M321 -10c-146 0 -216 100 -181 253l104 451h77l-102 -441c-28 -120 19 -190 129 -190c104 0 180 64 205 173l106 458h75l-103 -448c-36 -154 -160 -256 -310 -256z" />
    <glyph glyph-name="V" unicode="V" horiz-adv-x="595" 
d="M260 0l-75 694h88l51 -592l329 592h78l-396 -694h-75z" />
    <glyph glyph-name="W" unicode="W" horiz-adv-x="943" 
d="M231 0l-43 694h89l20 -586l291 581h87l32 -575l292 580h78l-362 -694h-74l-38 584l-295 -584h-77z" />
    <glyph glyph-name="X" unicode="X" horiz-adv-x="587" 
d="M22 0l311 360l-132 334h92l99 -265l223 265h88l-287 -330l151 -364h-92l-117 296l-249 -296h-87z" />
    <glyph glyph-name="Y" unicode="Y" horiz-adv-x="562" 
d="M245 0l69 299l-136 395h90l104 -323l249 323h85l-315 -395l-69 -299h-77z" />
    <glyph glyph-name="Z" unicode="Z" horiz-adv-x="606" 
d="M44 0l12 53l536 569h-392l17 72h494l-12 -52l-537 -570h417l-16 -72h-519z" />
    <glyph glyph-name="bracketleft" unicode="[" horiz-adv-x="338" 
d="M49 -180l213 919h211l-16 -67h-141l-181 -785h141l-15 -67h-212z" />
    <glyph glyph-name="backslash" unicode="\" horiz-adv-x="330" 
d="M281 -115h-68l-2 854h74z" />
    <glyph glyph-name="bracketright" unicode="]" horiz-adv-x="338" 
d="M207 -180h-211l15 67h142l181 785h-142l16 67h211z" />
    <glyph glyph-name="asciicircum" unicode="^" horiz-adv-x="590" 
d="M169 232l-50 28l301 439h65l108 -431l-79 -36l-86 366z" />
    <glyph glyph-name="underscore" unicode="_" horiz-adv-x="558" 
d="M60 -69l16 69h407l-16 -69h-407z" />
    <glyph glyph-name="grave" unicode="`" horiz-adv-x="239" 
d="M283 560l-90 134l70 51l61 -156z" />
    <glyph glyph-name="a" unicode="a" horiz-adv-x="449" 
d="M179 -10c-86 0 -129 53 -110 135c23 98 114 141 301 143l7 29c15 65 -15 99 -89 99c-40 0 -86 -10 -134 -30l-4 56c52 29 114 46 169 46c109 0 154 -61 129 -170l-68 -298h-50l-7 45c-42 -35 -91 -55 -144 -55zM143 134c-10 -44 18 -74 73 -74c43 0 85 16 117 44l25 109
c-139 -1 -202 -24 -215 -79z" />
    <glyph glyph-name="b" unicode="b" horiz-adv-x="498" 
d="M72 0l170 739h72l-74 -318c37 31 80 47 127 47c114 0 168 -93 136 -233c-34 -147 -136 -245 -255 -245c-47 0 -82 16 -104 47l-22 -37h-50zM334 398c-41 0 -80 -18 -111 -51l-53 -230c16 -36 49 -57 94 -57c80 0 143 65 166 163c24 104 -14 175 -96 175z" />
    <glyph glyph-name="c" unicode="c" horiz-adv-x="405" 
d="M232 -10c-119 0 -171 84 -138 226c35 151 141 252 264 252c41 0 80 -11 113 -32l-31 -63c-30 17 -66 25 -98 25c-86 0 -147 -59 -172 -167c-25 -109 8 -175 94 -175c32 0 72 10 110 28l3 -56c-40 -24 -95 -38 -145 -38z" />
    <glyph glyph-name="d" unicode="d" horiz-adv-x="499" 
d="M228 -10c-111 0 -164 94 -131 235c34 146 134 243 251 243c44 0 79 -15 102 -43l72 314h71l-171 -739h-49l-7 47c-40 -36 -88 -57 -138 -57zM170 234c-24 -104 13 -174 95 -174c42 0 81 18 112 51l53 231c-17 35 -48 56 -94 56c-80 0 -143 -65 -166 -164z" />
    <glyph glyph-name="e" unicode="e" horiz-adv-x="461" 
d="M257 -10c-133 0 -194 90 -160 237c33 141 134 241 250 241c103 0 155 -80 128 -196c-4 -18 -14 -52 -19 -66h-290c-12 -95 31 -151 119 -151c36 0 78 10 114 27l3 -56c-43 -23 -97 -36 -145 -36zM327 400c-69 0 -122 -47 -148 -134h228c20 85 -10 134 -80 134z" />
    <glyph glyph-name="f" unicode="f" horiz-adv-x="287" 
d="M70 -59l104 450h-61l15 67h62l23 103c26 112 103 188 191 188c29 0 54 -10 77 -25l-29 -62c-18 13 -46 19 -68 19c-47 0 -80 -35 -96 -105l-27 -118h128l-15 -67h-129l-101 -440c-23 -100 -98 -168 -186 -168c-29 0 -55 10 -78 25l29 59c19 -11 47 -16 69 -16
c47 0 78 31 92 90z" />
    <glyph glyph-name="g" unicode="g" horiz-adv-x="499" 
d="M228 -10c-111 0 -164 94 -131 236c34 146 134 242 250 242c48 0 86 -18 109 -51l23 41h49l-104 -452c-32 -140 -133 -233 -253 -233c-43 0 -85 13 -122 38l30 61c34 -19 76 -30 113 -30c82 0 135 53 160 160l9 41c-39 -34 -85 -53 -133 -53zM170 234
c-24 -104 13 -174 95 -174c42 0 81 18 112 51l53 231c-17 35 -48 56 -94 56c-80 0 -143 -65 -166 -164z" />
    <glyph glyph-name="h" unicode="h" horiz-adv-x="498" 
d="M72 0l170 739h72l-75 -322c46 34 96 51 142 51c93 0 138 -65 115 -167l-69 -301h-71l65 283c17 74 -10 115 -77 115c-40 0 -81 -15 -120 -46l-81 -352h-71z" />
    <glyph glyph-name="i" unicode="i" horiz-adv-x="227" 
d="M250 595c-32 0 -46 21 -38 57s32 57 64 57s45 -21 37 -57s-31 -57 -63 -57zM76 0l111 482h71l-111 -482h-71z" />
    <glyph glyph-name="j" unicode="j" horiz-adv-x="225" 
d="M249 595c-32 0 -46 21 -38 57s32 57 64 57s46 -21 38 -57s-32 -57 -64 -57zM-32 -227l-11 48c54 31 98 88 111 144l119 517h71l-116 -505c-20 -88 -85 -164 -174 -204z" />
    <glyph glyph-name="k" unicode="k" horiz-adv-x="433" 
d="M72 0l170 739h72l-111 -480l234 223h81l-229 -218l137 -264h-91l-133 255l-59 -255h-71z" />
    <glyph glyph-name="l" unicode="l" horiz-adv-x="238" 
d="M163 -6c-57 0 -85 45 -69 114l146 631h71l-143 -621c-9 -37 1 -60 30 -60c10 0 21 3 32 8l2 -56c-19 -10 -46 -16 -69 -16z" />
    <glyph glyph-name="m" unicode="m" horiz-adv-x="773" 
d="M72 0l106 458h49l7 -42c46 33 97 52 144 52c57 0 96 -26 111 -72c53 46 113 72 168 72c93 0 138 -65 115 -167l-69 -301h-71l65 283c17 74 -9 115 -75 115c-42 0 -85 -17 -124 -48c1 -16 -2 -33 -6 -52l-69 -298h-71l65 283c17 74 -9 115 -75 115c-39 0 -80 -16 -117 -43
l-82 -355h-71z" />
    <glyph glyph-name="n" unicode="n" horiz-adv-x="498" 
d="M72 0l106 458h49l6 -43c48 34 99 53 147 53c93 0 139 -65 116 -167l-69 -301h-71l65 283c17 74 -10 115 -77 115c-40 0 -81 -16 -119 -43l-82 -355h-71z" />
    <glyph glyph-name="o" unicode="o" horiz-adv-x="493" 
d="M237 -10c-119 0 -174 92 -141 234c34 147 139 244 262 244c119 0 175 -91 142 -233c-34 -147 -140 -245 -263 -245zM263 60c76 0 140 65 163 164c24 103 -14 174 -94 174c-76 0 -140 -64 -163 -164c-24 -104 14 -174 94 -174z" />
    <glyph glyph-name="p" unicode="p" horiz-adv-x="500" 
d="M22 -217l156 675h49l7 -48c44 37 97 58 146 58c107 0 157 -92 125 -230c-34 -149 -134 -248 -250 -248c-46 0 -82 18 -103 51l-59 -258h-71zM344 398c-40 0 -85 -19 -121 -51l-48 -210c11 -48 48 -77 98 -77c74 0 136 67 159 168c24 103 -11 170 -88 170z" />
    <glyph glyph-name="q" unicode="q" horiz-adv-x="499" 
d="M228 -10c-111 0 -164 94 -131 235c34 146 134 243 251 243c48 0 83 -17 106 -49l25 39h49l-156 -675h-71l60 260c-39 -34 -85 -53 -133 -53zM170 234c-24 -104 13 -174 95 -174c42 0 81 18 112 51l53 231c-17 35 -48 56 -94 56c-80 0 -143 -65 -166 -164z" />
    <glyph glyph-name="r" unicode="r" horiz-adv-x="329" 
d="M72 0l106 458h58l-8 -70c42 47 94 75 144 75c19 0 36 -4 52 -11l-34 -74c-12 6 -27 9 -43 9c-46 0 -93 -23 -129 -63l-75 -324h-71z" />
    <glyph glyph-name="s" unicode="s" horiz-adv-x="406" 
d="M197 -10c-53 0 -109 14 -151 39l32 63c39 -21 95 -34 139 -34c57 0 96 23 106 65c26 111 -239 44 -201 207c20 86 101 138 210 138c44 0 85 -9 117 -26l-32 -64c-32 13 -72 22 -107 22c-62 0 -107 -25 -116 -65c-24 -103 240 -41 201 -208c-19 -84 -94 -137 -198 -137z
" />
    <glyph glyph-name="t" unicode="t" horiz-adv-x="314" 
d="M207 -5c-76 0 -114 51 -97 126l62 270h-56l16 67h55l38 165h72l-39 -165h113l-15 -67h-113l-59 -256c-10 -45 11 -75 54 -75c15 0 34 3 48 10l2 -57c-22 -10 -52 -18 -81 -18z" />
    <glyph glyph-name="u" unicode="u" horiz-adv-x="490" 
d="M241 458l-65 -283c-17 -74 10 -115 74 -115c37 0 78 15 114 41l82 357h71l-105 -458h-50l-6 42c-47 -33 -98 -52 -144 -52c-89 0 -135 65 -112 167l70 301h71z" />
    <glyph glyph-name="v" unicode="v" horiz-adv-x="411" 
d="M173 0l-57 458h76l33 -384l213 384h68l-266 -458h-67z" />
    <glyph glyph-name="w" unicode="w" horiz-adv-x="673" 
d="M163 0l-45 458h78l20 -376l190 374h77l20 -373l195 375h68l-251 -458h-69l-26 370l-192 -370h-65z" />
    <glyph glyph-name="x" unicode="x" horiz-adv-x="401" 
d="M12 0l203 222l-98 236h79l70 -179l154 179h77l-210 -230l97 -228h-79l-68 170l-147 -170h-78z" />
    <glyph glyph-name="y" unicode="y" horiz-adv-x="413" 
d="M49 -217l123 210l-55 465h76l31 -390l214 390h69l-268 -465l-117 -210h-73z" />
    <glyph glyph-name="z" unicode="z" horiz-adv-x="400" 
d="M34 0l11 49l313 342h-234l15 67h324l-12 -49l-313 -342h245l-16 -67h-333z" />
    <glyph glyph-name="braceleft" unicode="{" horiz-adv-x="364" 
d="M288 -173c-147 0 -175 59 -156 141l37 160c17 74 -7 137 -74 162l6 26c71 21 130 78 143 136l31 135c24 102 83 162 226 162l-16 -69c-91 0 -124 -33 -136 -84l-31 -134c-18 -76 -76 -143 -139 -159v-1c62 -11 85 -73 64 -164l-36 -159c-12 -51 8 -83 97 -83z" />
    <glyph glyph-name="bar" unicode="|" horiz-adv-x="299" 
d="M77 -159l208 900h71l-207 -900h-72z" />
    <glyph glyph-name="braceright" unicode="}" horiz-adv-x="364" 
d="M209 749c147 0 175 -59 156 -141l-37 -160c-17 -74 7 -137 74 -162l-6 -26c-71 -21 -130 -78 -143 -136l-31 -135c-24 -102 -83 -162 -226 -162l16 69c91 0 124 33 136 84l31 134c18 76 76 143 139 159v1c-62 11 -85 73 -64 164l36 159c12 51 -8 83 -97 83z" />
    <glyph glyph-name="asciitilde" unicode="~" horiz-adv-x="623" 
d="M192 252l-44 23c37 77 107 130 175 130c82 0 92 -83 152 -83c33 0 78 28 105 79l46 -23c-38 -81 -112 -131 -177 -131c-84 0 -96 83 -154 83c-37 0 -82 -34 -103 -78z" />
    <glyph glyph-name="uni00A0" unicode="&#xa0;" horiz-adv-x="200" 
 />
    <glyph glyph-name="exclamdown" unicode="&#xa1;" horiz-adv-x="226" 
d="M227 487c35 0 53 -27 44 -64s-39 -64 -74 -64s-54 27 -45 64s40 64 75 64zM147 276h60l-105 -493h-78z" />
    <glyph glyph-name="cent" unicode="&#xa2;" horiz-adv-x="507" 
d="M223 -154l34 145c-111 11 -158 97 -126 236c32 140 125 240 238 261l33 143h65l-33 -140c37 -3 72 -13 102 -31l-33 -65c-33 18 -71 27 -106 27c-93 0 -159 -63 -186 -179c-27 -117 9 -187 102 -187c34 0 78 11 120 30l3 -58c-32 -18 -73 -30 -114 -35l-34 -147h-65z" />
    <glyph glyph-name="sterling" unicode="&#xa3;" horiz-adv-x="589" 
d="M74 0l16 72c53 18 89 69 102 126l28 120h-65l13 60h66l23 103c31 134 126 223 282 223c44 0 80 -7 115 -23l-38 -69c-35 12 -70 19 -105 19c-100 0 -160 -54 -180 -140l-26 -113h203l-14 -60h-203l-25 -110c-15 -63 -42 -118 -87 -136h360l-17 -72h-448z" />
    <glyph glyph-name="currency" unicode="&#xa4;" horiz-adv-x="611" 
d="M144 90l-28 41l85 73c-14 34 -18 77 -6 127c12 52 36 97 68 132l-53 76l48 41l53 -76c37 23 78 36 124 36c43 0 76 -12 101 -33l85 73l29 -41l-85 -72c15 -33 19 -75 7 -125c-12 -54 -38 -101 -71 -136l55 -75l-47 -41l-55 77c-36 -23 -77 -36 -122 -36
c-42 0 -77 12 -101 33zM358 204c65 0 119 51 137 128c19 81 -15 135 -86 135c-65 0 -119 -50 -137 -126c-19 -82 15 -137 86 -137z" />
    <glyph glyph-name="yen" unicode="&#xa5;" horiz-adv-x="658" 
d="M141 128l14 60h181l25 110h-181l14 60h152l-121 336h90l106 -313l247 313h85l-272 -336h153l-14 -60h-182l-25 -110h181l-13 -60h-182l-29 -128h-78l30 128h-181z" />
    <glyph glyph-name="brokenbar" unicode="&#xa6;" horiz-adv-x="300" 
d="M209 412l76 329h73l-76 -329h-73zM77 -159l79 340h73l-78 -340h-74z" />
    <glyph glyph-name="section" unicode="&#xa7;" horiz-adv-x="511" 
d="M231 -60c-55 0 -110 16 -154 41l33 67c37 -22 94 -38 145 -38c65 0 110 28 121 76c30 128 -252 65 -214 231c12 54 53 95 109 118c-41 21 -70 53 -55 118c21 91 107 151 219 151c47 0 92 -11 127 -32l-33 -65c-34 16 -83 27 -122 27c-60 0 -104 -28 -114 -72
c-27 -117 255 -57 216 -224c-12 -53 -50 -96 -102 -121c37 -23 61 -57 46 -122c-22 -95 -109 -155 -222 -155zM239 331c-12 -54 46 -67 106 -87c46 8 75 34 84 72c13 58 -40 75 -98 94c-44 -9 -83 -41 -92 -79z" />
    <glyph glyph-name="dieresis" unicode="&#xa8;" horiz-adv-x="430" 
d="M257 595c-33 0 -48 21 -40 57s33 57 66 57s48 -21 40 -57s-33 -57 -66 -57zM443 595c-33 0 -48 21 -40 57s33 57 66 57s48 -21 40 -57s-33 -57 -66 -57z" />
    <glyph glyph-name="copyright" unicode="&#xa9;" horiz-adv-x="819" 
d="M405 -3c-198 0 -298 139 -250 347c50 216 218 360 421 360c199 0 298 -140 250 -350c-49 -214 -218 -357 -421 -357zM429 59c163 0 298 114 337 285c41 179 -44 298 -212 298c-164 0 -299 -115 -339 -288c-41 -177 45 -295 214 -295zM451 134c-119 0 -178 83 -149 209
c30 132 133 219 259 219c39 0 75 -8 104 -24l-34 -63c-26 12 -59 19 -89 19c-82 0 -141 -52 -161 -139c-21 -93 18 -153 102 -153c27 0 61 7 89 17l3 -59c-38 -17 -84 -26 -124 -26z" />
    <glyph glyph-name="ordfeminine" unicode="&#xaa;" horiz-adv-x="396" 
d="M248 373c-69 0 -105 41 -90 104c18 77 93 112 242 114l4 21c12 51 -12 78 -70 78c-30 0 -70 -8 -108 -24l-4 50c43 21 96 34 140 34c90 0 128 -51 107 -142l-53 -228h-48l-1 40c-34 -31 -75 -47 -119 -47zM227 487c-8 -35 15 -58 55 -58c32 0 63 13 89 37l19 83
c-106 -1 -153 -20 -163 -62z" />
    <glyph glyph-name="guillemotleft" unicode="&#xab;" horiz-adv-x="491" 
d="M178 30l-81 212l182 210h76l-175 -207l82 -215h-84zM375 30l-81 212l182 210h76l-175 -207l82 -215h-84z" />
    <glyph glyph-name="logicalnot" unicode="&#xac;" horiz-adv-x="629" 
d="M149 328l15 67h443l-56 -243h-75l41 176h-368z" />
    <glyph glyph-name="uni00AD" unicode="&#xad;" horiz-adv-x="420" 
d="M125 220l15 67h270l-16 -67h-269z" />
    <glyph glyph-name="registered" unicode="&#xae;" horiz-adv-x="609" 
d="M367 279c-130 0 -199 95 -168 231c32 139 149 239 281 239c129 0 199 -97 167 -234c-32 -138 -148 -236 -280 -236zM383 325c104 0 194 76 219 185c26 112 -31 193 -137 193c-104 0 -196 -78 -221 -187c-26 -111 32 -191 139 -191zM306 380l65 278h87c60 0 93 -36 81 -89
c-7 -31 -26 -57 -52 -73l27 -116h-61l-18 98c-8 -1 -15 -2 -22 -2h-28l-22 -96h-57zM443 605h-28l-18 -77h31c29 0 45 14 51 38c5 23 -9 39 -36 39z" />
    <glyph glyph-name="macron" unicode="&#xaf;" horiz-adv-x="445" 
d="M217 606l15 66h292l-16 -66h-291z" />
    <glyph glyph-name="degree" unicode="&#xb0;" horiz-adv-x="447" 
d="M318 417c-79 0 -118 57 -98 142c20 87 87 145 167 145c79 0 119 -57 99 -142c-20 -87 -88 -145 -168 -145zM337 484c43 0 78 30 88 75c11 48 -11 80 -55 80c-43 0 -78 -31 -89 -77c-11 -47 12 -78 56 -78z" />
    <glyph glyph-name="plusminus" unicode="&#xb1;" horiz-adv-x="583" 
d="M293 147l48 208h-185l16 69h185l46 199h65l-46 -199h186l-16 -69h-186l-48 -208h-65zM83 39l15 65h436l-15 -65h-436z" />
    <glyph glyph-name="uni00B2" unicode="&#xb2;" horiz-adv-x="389" 
d="M128 370l11 51c192 144 267 214 282 278c12 51 -17 84 -74 84c-39 0 -83 -15 -125 -42l-7 53c45 35 103 55 160 55c94 0 139 -54 120 -138c-18 -78 -87 -154 -252 -276h206l-15 -65h-306z" />
    <glyph glyph-name="uni00B3" unicode="&#xb3;" horiz-adv-x="410" 
d="M267 363c-49 0 -97 11 -141 36l29 59c39 -20 89 -30 132 -30c69 0 115 25 125 67c12 53 -43 85 -151 85l13 58c93 0 151 28 162 77c10 42 -22 69 -79 69c-35 0 -79 -11 -125 -31l-3 56c49 25 106 40 157 40c92 0 142 -49 125 -123c-12 -54 -56 -96 -112 -109
c66 -15 99 -61 85 -121c-18 -80 -106 -133 -217 -133z" />
    <glyph glyph-name="acute" unicode="&#xb4;" horiz-adv-x="239" 
d="M209 560l-28 29l133 156l47 -51z" />
    <glyph glyph-name="uni00B5" unicode="&#xb5;" horiz-adv-x="563" 
d="M58 -217l156 675h67l-66 -283c-16 -70 21 -115 87 -115c40 0 76 17 117 58l79 340h71l-106 -458h-49l-7 47c-49 -40 -88 -57 -129 -57c-45 0 -76 20 -93 54l-60 -261h-67z" />
    <glyph glyph-name="paragraph" unicode="&#xb6;" horiz-adv-x="670" 
d="M226 -170l99 429c-121 0 -181 90 -150 225c29 126 137 210 269 210h273l-200 -864h-72l183 795h-146l-183 -795h-73z" />
    <glyph glyph-name="periodcentered" unicode="&#xb7;" horiz-adv-x="251" 
d="M171 200c-35 0 -54 27 -45 64s40 64 75 64s54 -27 45 -64s-40 -64 -75 -64z" />
    <glyph glyph-name="cedilla" unicode="&#xb8;" horiz-adv-x="302" 
d="M75 -256c-35 0 -65 8 -87 24l27 49c20 -11 49 -17 72 -17c34 0 56 14 62 39c8 34 -24 56 -87 59l43 107h54l-25 -64c68 -11 97 -43 84 -98c-15 -63 -67 -99 -143 -99z" />
    <glyph glyph-name="uni00B9" unicode="&#xb9;" horiz-adv-x="314" 
d="M131 370l15 64h94l73 317l-94 -48l-14 52l157 87h42l-94 -408h83l-14 -64h-248z" />
    <glyph glyph-name="ordmasculine" unicode="&#xba;" horiz-adv-x="426" 
d="M296 373c-98 0 -144 73 -118 184c27 115 111 192 212 192c97 0 144 -72 118 -184c-27 -115 -112 -192 -212 -192zM315 430c60 0 110 50 128 128c18 80 -10 134 -72 134c-60 0 -110 -52 -128 -129c-18 -80 10 -133 72 -133z" />
    <glyph glyph-name="guillemotright" unicode="&#xbb;" horiz-adv-x="481" 
d="M241 30l174 208l-84 214h82l84 -211l-180 -211h-76zM53 30l174 208l-84 214h82l84 -211l-180 -211h-76z" />
    <glyph glyph-name="onequarter" unicode="&#xbc;" horiz-adv-x="1026" 
d="M106 260l15 64h94l73 317l-94 -48l-14 52l157 87h41l-94 -408h84l-15 -64h-247zM287 0l435 694h74l-441 -694h-68zM847 -5l25 108h-230l9 39l308 330h65l-70 -306h84l-14 -63h-85l-25 -108h-67zM732 166h155l51 220z" />
    <glyph glyph-name="onehalf" unicode="&#xbd;" horiz-adv-x="982" 
d="M106 260l15 64h94l73 317l-94 -48l-14 52l157 87h41l-94 -408h84l-15 -64h-247zM287 0l435 694h74l-441 -694h-68zM635 0l12 51c192 144 267 214 282 278c12 51 -18 84 -75 84c-39 0 -82 -15 -124 -42l-7 53c45 35 103 55 160 55c94 0 139 -54 120 -138
c-18 -78 -87 -154 -252 -276h206l-15 -65h-307z" />
    <glyph glyph-name="threequarters" unicode="&#xbe;" horiz-adv-x="1123" 
d="M242 253c-49 0 -98 11 -142 36l30 59c39 -20 88 -30 131 -30c69 0 116 25 126 67c12 53 -44 85 -152 85l14 58c93 0 150 28 161 77c10 42 -21 69 -78 69c-35 0 -80 -11 -126 -31l-3 56c49 25 107 40 158 40c92 0 142 -49 125 -123c-12 -54 -56 -96 -112 -109
c66 -15 99 -61 85 -121c-18 -80 -106 -133 -217 -133zM383 0l436 694h73l-441 -694h-68zM944 -5l25 108h-231l9 39l309 330h65l-71 -306h85l-15 -63h-84l-25 -108h-67zM829 166h154l51 220z" />
    <glyph glyph-name="questiondown" unicode="&#xbf;" horiz-adv-x="394" 
d="M336 489c35 0 54 -27 45 -64s-39 -64 -74 -64s-54 27 -45 64s39 64 74 64zM328 284l-12 -53c-33 -143 -183 -179 -207 -284c-14 -60 23 -99 100 -99c46 0 100 14 156 41l4 -61c-62 -33 -136 -53 -197 -53c-110 0 -167 65 -144 163c33 142 192 184 217 293l12 53h71z" />
    <glyph glyph-name="Agrave" unicode="&#xc0;" horiz-adv-x="628" 
d="M501 744l-127 109l61 64l106 -131zM29 0l402 694h101l66 -694h-86l-17 206h-269l-116 -206h-81zM266 278h223l-29 345z" />
    <glyph glyph-name="Aacute" unicode="&#xc1;" horiz-adv-x="628" 
d="M472 744l-21 42l166 131l32 -64zM29 0l402 694h101l66 -694h-86l-17 206h-269l-116 -206h-81zM266 278h223l-29 345z" />
    <glyph glyph-name="Acircumflex" unicode="&#xc2;" horiz-adv-x="628" 
d="M362 782l152 141h40l89 -127l-51 -42l-79 98l-125 -98zM29 0l402 694h101l66 -694h-86l-17 206h-269l-116 -206h-81zM266 278h223l-29 345z" />
    <glyph glyph-name="Atilde" unicode="&#xc3;" horiz-adv-x="628" 
d="M377 762l-46 14c35 72 84 105 129 105c57 0 63 -53 104 -53c25 0 51 20 69 55l46 -14c-29 -69 -79 -105 -132 -105c-62 0 -67 51 -105 51c-24 0 -48 -21 -65 -53zM29 0l402 694h101l66 -694h-86l-17 206h-269l-116 -206h-81zM266 278h223l-29 345z" />
    <glyph glyph-name="Adieresis" unicode="&#xc4;" horiz-adv-x="628" 
d="M398 777c-33 0 -48 21 -40 57s34 57 67 57s47 -21 39 -57s-33 -57 -66 -57zM584 777c-33 0 -48 21 -40 57s34 57 67 57s47 -21 39 -57s-33 -57 -66 -57zM29 0l402 694h101l66 -694h-86l-17 206h-269l-116 -206h-81zM266 278h223l-29 345z" />
    <glyph glyph-name="Aring" unicode="&#xc5;" horiz-adv-x="628" 
d="M484 742c-57 0 -85 41 -71 102c15 64 63 106 123 106c57 0 85 -41 71 -102c-15 -64 -63 -106 -123 -106zM501 800c24 0 45 18 51 44c7 29 -6 48 -33 48c-24 0 -45 -18 -51 -44c-7 -29 6 -48 33 -48zM29 0l402 694h101l66 -694h-86l-17 206h-269l-116 -206h-81zM266 278
h223l-29 345z" />
    <glyph glyph-name="AE" unicode="&#xc6;" horiz-adv-x="906" 
d="M31 0l554 694h427l-16 -72h-329l-52 -227h303l-16 -72h-304l-58 -251h329l-17 -72h-405l46 202h-211l3 13l-169 -215h-85zM338 282h174l72 313z" />
    <glyph glyph-name="Ccedilla" unicode="&#xc7;" horiz-adv-x="605" 
d="M371 -10h-4l-19 -49c68 -11 96 -43 83 -98c-15 -63 -67 -99 -143 -99c-35 0 -64 8 -86 24l27 49c20 -11 48 -17 71 -17c34 0 56 14 62 39c8 34 -23 56 -86 59l39 97c-152 25 -224 157 -181 344c50 218 217 364 417 364c63 0 126 -16 167 -43l-36 -62
c-45 20 -101 32 -153 32c-155 0 -273 -103 -312 -272c-41 -177 35 -295 189 -295c49 0 110 12 161 32l3 -61c-68 -29 -137 -44 -199 -44z" />
    <glyph glyph-name="Egrave" unicode="&#xc8;" horiz-adv-x="554" 
d="M494 744l-127 109l61 64l106 -131zM95 0l160 694h405l-16 -72h-329l-52 -227h303l-16 -72h-304l-58 -251h329l-17 -72h-405z" />
    <glyph glyph-name="Eacute" unicode="&#xc9;" horiz-adv-x="554" 
d="M464 744l-20 42l166 131l32 -64zM95 0l160 694h405l-16 -72h-329l-52 -227h303l-16 -72h-304l-58 -251h329l-17 -72h-405z" />
    <glyph glyph-name="Ecircumflex" unicode="&#xca;" horiz-adv-x="554" 
d="M355 782l152 141h40l89 -127l-51 -42l-79 98l-125 -98zM95 0l160 694h405l-16 -72h-329l-52 -227h303l-16 -72h-304l-58 -251h329l-17 -72h-405z" />
    <glyph glyph-name="Edieresis" unicode="&#xcb;" horiz-adv-x="554" 
d="M391 777c-33 0 -48 21 -40 57s34 57 67 57s47 -21 39 -57s-33 -57 -66 -57zM577 777c-33 0 -48 21 -40 57s34 57 67 57s47 -21 39 -57s-33 -57 -66 -57zM95 0l160 694h405l-16 -72h-329l-52 -227h303l-16 -72h-304l-58 -251h329l-17 -72h-405z" />
    <glyph glyph-name="Igrave" unicode="&#xcc;" horiz-adv-x="268" 
d="M322 744l-127 109l61 64l106 -131zM97 0l160 694h77l-160 -694h-77z" />
    <glyph glyph-name="Iacute" unicode="&#xcd;" horiz-adv-x="268" 
d="M291 744l-20 42l166 131l31 -64zM95 0l160 694h77l-160 -694h-77z" />
    <glyph glyph-name="Icircumflex" unicode="&#xce;" horiz-adv-x="270" 
d="M183 782l152 141h40l89 -127l-51 -42l-79 98l-125 -98zM97 0l160 694h77l-160 -694h-77z" />
    <glyph glyph-name="Idieresis" unicode="&#xcf;" horiz-adv-x="271" 
d="M220 777c-33 0 -48 21 -40 57s33 57 66 57s48 -21 40 -57s-33 -57 -66 -57zM406 777c-33 0 -48 21 -40 57s33 57 66 57s48 -21 40 -57s-33 -57 -66 -57zM97 0l160 694h77l-160 -694h-77z" />
    <glyph glyph-name="Eth" unicode="&#xd0;" horiz-adv-x="679" 
d="M96 0l73 315h-77l15 65h77l73 314h211c197 0 285 -124 237 -334c-51 -223 -217 -360 -412 -360h-197zM190 72h129c153 0 264 100 304 275c41 176 -24 275 -181 275h-125l-56 -242h125l-15 -65h-125z" />
    <glyph glyph-name="Ntilde" unicode="&#xd1;" horiz-adv-x="715" 
d="M420 762l-46 14c35 72 85 105 130 105c57 0 63 -53 104 -53c25 0 50 20 68 55l46 -14c-29 -69 -79 -105 -132 -105c-62 0 -66 51 -104 51c-24 0 -49 -21 -66 -53zM95 0l160 694h88l231 -583l135 583h72l-160 -694h-86l-233 583l-135 -583h-72z" />
    <glyph glyph-name="Ograve" unicode="&#xd2;" horiz-adv-x="724" 
d="M549 744l-127 109l61 64l105 -131zM353 -7c-178 0 -263 140 -214 351c50 215 204 359 387 359c180 0 270 -139 222 -347c-50 -218 -209 -363 -395 -363zM379 65c133 0 248 112 287 279c40 172 -27 286 -166 286c-130 0 -242 -110 -280 -274c-40 -175 23 -291 159 -291z
" />
    <glyph glyph-name="Oacute" unicode="&#xd3;" horiz-adv-x="724" 
d="M519 744l-20 42l166 131l32 -64zM353 -7c-178 0 -263 140 -214 351c50 215 204 359 387 359c180 0 270 -139 222 -347c-50 -218 -209 -363 -395 -363zM379 65c133 0 248 112 287 279c40 172 -27 286 -166 286c-130 0 -242 -110 -280 -274c-40 -175 23 -291 159 -291z" />
    <glyph glyph-name="Ocircumflex" unicode="&#xd4;" horiz-adv-x="724" 
d="M410 782l151 141h40l89 -127l-50 -42l-79 98l-125 -98zM353 -7c-178 0 -263 140 -214 351c50 215 204 359 387 359c180 0 270 -139 222 -347c-50 -218 -209 -363 -395 -363zM379 65c133 0 248 112 287 279c40 172 -27 286 -166 286c-130 0 -242 -110 -280 -274
c-40 -175 23 -291 159 -291z" />
    <glyph glyph-name="Otilde" unicode="&#xd5;" horiz-adv-x="724" 
d="M425 762l-46 14c35 72 84 105 129 105c57 0 63 -53 104 -53c25 0 51 20 69 55l46 -14c-29 -69 -79 -105 -132 -105c-62 0 -67 51 -105 51c-24 0 -48 -21 -65 -53zM353 -7c-178 0 -263 140 -214 351c50 215 204 359 387 359c180 0 270 -139 222 -347
c-50 -218 -209 -363 -395 -363zM379 65c133 0 248 112 287 279c40 172 -27 286 -166 286c-130 0 -242 -110 -280 -274c-40 -175 23 -291 159 -291z" />
    <glyph glyph-name="Odieresis" unicode="&#xd6;" horiz-adv-x="724" 
d="M446 777c-33 0 -48 21 -40 57s33 57 66 57s48 -21 40 -57s-33 -57 -66 -57zM632 777c-33 0 -48 21 -40 57s33 57 66 57s48 -21 40 -57s-33 -57 -66 -57zM353 -7c-178 0 -263 140 -214 351c50 215 204 359 387 359c180 0 270 -139 222 -347c-50 -218 -209 -363 -395 -363z
M379 65c133 0 248 112 287 279c40 172 -27 286 -166 286c-130 0 -242 -110 -280 -274c-40 -175 23 -291 159 -291z" />
    <glyph glyph-name="multiply" unicode="&#xd7;" horiz-adv-x="534" 
d="M134 96l-35 50l196 172l-110 169l58 50l110 -169l188 165l35 -50l-190 -166l115 -177l-59 -50l-113 176z" />
    <glyph glyph-name="Oslash" unicode="&#xd8;" horiz-adv-x="724" 
d="M148 -41l-39 35l65 77c-48 62 -62 157 -35 273c50 215 204 359 387 359c58 0 107 -14 144 -41l67 80l42 -35l-69 -82c49 -61 64 -155 38 -269c-50 -218 -209 -363 -395 -363c-57 0 -104 15 -141 41zM220 356c-20 -88 -14 -162 14 -213l379 451c-29 23 -67 36 -113 36
c-130 0 -242 -110 -280 -274zM379 65c133 0 248 112 287 279c20 87 13 159 -17 209l-380 -451c28 -24 64 -37 110 -37z" />
    <glyph glyph-name="Ugrave" unicode="&#xd9;" horiz-adv-x="657" 
d="M515 744l-127 109l61 64l105 -131zM321 -10c-146 0 -216 100 -181 253l104 451h77l-102 -441c-28 -120 19 -190 129 -190c104 0 180 64 205 173l106 458h75l-103 -448c-36 -154 -160 -256 -310 -256z" />
    <glyph glyph-name="Uacute" unicode="&#xda;" horiz-adv-x="657" 
d="M485 744l-20 42l166 131l32 -64zM321 -10c-146 0 -216 100 -181 253l104 451h77l-102 -441c-28 -120 19 -190 129 -190c104 0 180 64 205 173l106 458h75l-103 -448c-36 -154 -160 -256 -310 -256z" />
    <glyph glyph-name="Ucircumflex" unicode="&#xdb;" horiz-adv-x="657" 
d="M376 782l151 141h40l89 -127l-50 -42l-79 98l-125 -98zM321 -10c-146 0 -216 100 -181 253l104 451h77l-102 -441c-28 -120 19 -190 129 -190c104 0 180 64 205 173l106 458h75l-103 -448c-36 -154 -160 -256 -310 -256z" />
    <glyph glyph-name="Udieresis" unicode="&#xdc;" horiz-adv-x="657" 
d="M412 777c-33 0 -48 21 -40 57s33 57 66 57s48 -21 40 -57s-33 -57 -66 -57zM598 777c-33 0 -48 21 -40 57s33 57 66 57s48 -21 40 -57s-33 -57 -66 -57zM321 -10c-146 0 -216 100 -181 253l104 451h77l-102 -441c-28 -120 19 -190 129 -190c104 0 180 64 205 173l106 458
h75l-103 -448c-36 -154 -160 -256 -310 -256z" />
    <glyph glyph-name="Yacute" unicode="&#xdd;" horiz-adv-x="562" 
d="M444 744l-20 42l166 131l32 -64zM245 0l69 299l-136 395h90l104 -323l249 323h85l-315 -395l-69 -299h-77z" />
    <glyph glyph-name="Thorn" unicode="&#xde;" horiz-adv-x="571" 
d="M95 0l160 694h77l-24 -103h124c135 0 206 -92 175 -226c-31 -136 -147 -226 -289 -226h-114l-32 -139h-77zM406 519h-114l-71 -308h123c96 0 159 50 181 144c23 101 -22 164 -119 164z" />
    <glyph glyph-name="germandbls" unicode="&#xdf;" horiz-adv-x="525" 
d="M318 -10c-42 0 -83 14 -114 37l31 65c34 -21 72 -32 104 -32c55 0 100 34 111 81c25 109 -141 112 -113 233c22 94 124 109 145 198c14 61 -22 107 -85 107c-62 0 -108 -46 -128 -131l-126 -548h-71l124 539c29 127 118 210 226 210c100 0 156 -70 134 -167
c-26 -113 -130 -131 -145 -195c-19 -83 147 -85 113 -233c-22 -96 -107 -164 -206 -164z" />
    <glyph glyph-name="agrave" unicode="&#xe0;" horiz-adv-x="449" 
d="M329 542l-78 147l67 56l50 -171zM179 -10c-86 0 -129 53 -110 135c23 98 114 141 301 143l7 29c15 65 -15 99 -89 99c-40 0 -86 -10 -134 -30l-4 56c52 29 114 46 169 46c109 0 154 -61 129 -170l-68 -298h-50l-7 45c-42 -35 -91 -55 -144 -55zM143 134
c-10 -44 18 -74 73 -74c43 0 85 16 117 44l25 109c-139 -1 -202 -24 -215 -79z" />
    <glyph glyph-name="aacute" unicode="&#xe1;" horiz-adv-x="449" 
d="M344 542l-24 32l128 171l42 -56zM179 -10c-86 0 -129 53 -110 135c23 98 114 141 301 143l7 29c15 65 -15 99 -89 99c-40 0 -86 -10 -134 -30l-4 56c52 29 114 46 169 46c109 0 154 -61 129 -170l-68 -298h-50l-7 45c-42 -35 -91 -55 -144 -55zM143 134
c-10 -44 18 -74 73 -74c43 0 85 16 117 44l25 109c-139 -1 -202 -24 -215 -79z" />
    <glyph glyph-name="acircumflex" unicode="&#xe2;" horiz-adv-x="449" 
d="M218 573l147 155h36l78 -140l-50 -46l-68 108l-119 -108zM179 -10c-86 0 -129 53 -110 135c23 98 114 141 301 143l7 29c15 65 -15 99 -89 99c-40 0 -86 -10 -134 -30l-4 56c52 29 114 46 169 46c109 0 154 -61 129 -170l-68 -298h-50l-7 45c-42 -35 -91 -55 -144 -55z
M143 134c-10 -44 18 -74 73 -74c43 0 85 16 117 44l25 109c-139 -1 -202 -24 -215 -79z" />
    <glyph glyph-name="atilde" unicode="&#xe3;" horiz-adv-x="449" 
d="M245 571l-44 14c34 72 81 105 122 105c53 0 57 -53 95 -53c23 0 47 21 65 56l44 -15c-28 -69 -76 -105 -125 -105c-58 0 -61 51 -96 51c-22 0 -45 -21 -61 -53zM179 -10c-86 0 -129 53 -110 135c23 98 115 141 302 143l6 29c15 65 -15 99 -89 99c-40 0 -86 -10 -134 -30
l-4 56c52 29 114 46 169 46c109 0 154 -61 129 -170l-68 -298h-50l-6 45c-42 -35 -92 -55 -145 -55zM143 134c-10 -44 18 -74 73 -74c43 0 85 16 117 44l25 109c-139 -1 -202 -24 -215 -79z" />
    <glyph glyph-name="adieresis" unicode="&#xe4;" horiz-adv-x="454" 
d="M266 595c-32 0 -45 21 -37 57s31 57 63 57s46 -21 38 -57s-32 -57 -64 -57zM441 595c-32 0 -45 21 -37 57s32 57 64 57s45 -21 37 -57s-32 -57 -64 -57zM182 -10c-87 0 -132 53 -113 135c23 98 115 141 306 143l7 29c15 65 -15 99 -91 99c-41 0 -88 -10 -137 -30l-4 56
c53 29 116 46 172 46c111 0 156 -61 131 -170l-68 -298h-50l-7 45c-42 -35 -92 -55 -146 -55zM143 134c-10 -44 20 -74 76 -74c44 0 86 16 119 44l25 109c-142 -1 -207 -24 -220 -79z" />
    <glyph glyph-name="aring" unicode="&#xe5;" horiz-adv-x="453" 
d="M339 541c-53 0 -79 44 -64 109c16 68 63 113 119 113c53 0 79 -44 64 -109c-16 -68 -63 -113 -119 -113zM356 599c22 0 42 21 49 51c8 34 -3 55 -28 55c-22 0 -43 -21 -50 -51c-8 -34 4 -55 29 -55zM181 -10c-87 0 -131 53 -112 135c23 98 115 141 305 143l7 29
c15 65 -16 99 -91 99c-41 0 -88 -10 -136 -30l-4 56c52 29 116 46 171 46c111 0 156 -61 131 -170l-68 -298h-50l-7 45c-42 -35 -92 -55 -146 -55zM143 134c-10 -44 19 -74 75 -74c44 0 86 16 119 44l25 109c-142 -1 -206 -24 -219 -79z" />
    <glyph glyph-name="ae" unicode="&#xe6;" horiz-adv-x="726" 
d="M178 -10c-84 0 -128 49 -111 124c23 99 131 151 306 152c1 4 2 6 4 9l5 22c15 65 -18 99 -90 99c-43 0 -86 -12 -142 -39l-4 55c64 38 121 56 176 56c71 0 112 -29 121 -84c46 52 106 84 170 84c103 0 154 -80 127 -196c-4 -18 -14 -52 -19 -66h-297
c-10 -95 39 -151 125 -151c35 0 72 9 116 27l3 -56c-54 -25 -98 -36 -145 -36c-84 0 -138 35 -159 97c-47 -61 -115 -97 -186 -97zM592 400c-69 0 -128 -47 -155 -134h235c20 85 -10 134 -80 134zM141 128c-10 -41 20 -68 75 -68c53 0 103 25 138 65c-3 24 -2 51 3 81
c-137 -1 -203 -22 -216 -78z" />
    <glyph glyph-name="ccedilla" unicode="&#xe7;" horiz-adv-x="407" 
d="M157 -256c-33 0 -59 8 -80 24l26 49c18 -11 44 -17 65 -17c32 0 52 14 58 39c8 34 -21 56 -79 59l38 98c-85 20 -119 99 -91 220c35 151 142 252 266 252c42 0 80 -11 113 -32l-31 -63c-31 17 -65 25 -98 25c-86 0 -149 -59 -174 -167c-25 -109 10 -175 96 -175
c32 0 72 10 111 28l2 -56c-40 -24 -95 -38 -146 -38l-18 -49c64 -11 90 -43 77 -98c-15 -63 -64 -99 -135 -99z" />
    <glyph glyph-name="egrave" unicode="&#xe8;" horiz-adv-x="461" 
d="M349 542l-77 147l67 56l49 -171zM257 -10c-133 0 -194 90 -160 237c33 141 134 241 250 241c103 0 155 -80 128 -196c-4 -18 -14 -52 -19 -66h-290c-12 -95 31 -151 119 -151c36 0 78 10 114 27l3 -56c-43 -23 -97 -36 -145 -36zM327 400c-69 0 -122 -47 -148 -134h228
c20 85 -10 134 -80 134z" />
    <glyph glyph-name="eacute" unicode="&#xe9;" horiz-adv-x="461" 
d="M365 542l-25 32l129 171l41 -56zM257 -10c-133 0 -194 90 -160 237c33 141 134 241 250 241c103 0 155 -80 128 -196c-4 -18 -14 -52 -19 -66h-290c-12 -95 31 -151 119 -151c36 0 78 10 114 27l3 -56c-43 -23 -97 -36 -145 -36zM327 400c-69 0 -122 -47 -148 -134h228
c20 85 -10 134 -80 134z" />
    <glyph glyph-name="ecircumflex" unicode="&#xea;" horiz-adv-x="461" 
d="M240 573l145 155h37l77 -140l-49 -46l-68 108l-119 -108zM257 -10c-133 0 -194 90 -160 237c33 141 134 241 250 241c103 0 155 -80 128 -196c-4 -18 -14 -52 -19 -66h-290c-12 -95 31 -151 119 -151c36 0 78 10 114 27l3 -56c-43 -23 -97 -36 -145 -36zM327 400
c-69 0 -122 -47 -148 -134h228c20 85 -10 134 -80 134z" />
    <glyph glyph-name="edieresis" unicode="&#xeb;" horiz-adv-x="467" 
d="M287 595c-32 0 -45 21 -37 57s32 57 64 57s45 -21 37 -57s-32 -57 -64 -57zM462 595c-32 0 -45 21 -37 57s32 57 64 57s45 -21 37 -57s-32 -57 -64 -57zM261 -10c-135 0 -198 90 -164 237c33 141 136 241 254 241c105 0 157 -80 130 -196c-4 -18 -13 -52 -18 -66h-296
c-11 -95 32 -151 122 -151c37 0 80 10 116 27l4 -56c-43 -23 -99 -36 -148 -36zM330 400c-71 0 -125 -47 -151 -134h234c20 85 -11 134 -83 134z" />
    <glyph glyph-name="igrave" unicode="&#xec;" horiz-adv-x="223" 
d="M229 560l-81 134l66 51l55 -156zM74 0l112 482h71l-112 -482h-71z" />
    <glyph glyph-name="iacute" unicode="&#xed;" horiz-adv-x="223" 
d="M246 560l-26 29l127 156l43 -51zM75 0l112 482h71l-112 -482h-71z" />
    <glyph glyph-name="icircumflex" unicode="&#xee;" horiz-adv-x="217" 
d="M118 587l143 141h38l80 -127l-47 -42l-72 98l-118 -98zM74 0l112 482h71l-112 -482h-71z" />
    <glyph glyph-name="idieresis" unicode="&#xef;" horiz-adv-x="223" 
d="M162 595c-32 0 -46 21 -38 57s32 57 64 57s46 -21 38 -57s-32 -57 -64 -57zM340 595c-32 0 -46 21 -38 57s32 57 64 57s45 -21 37 -57s-31 -57 -63 -57zM77 0l111 482h71l-111 -482h-71z" />
    <glyph glyph-name="eth" unicode="&#xf0;" horiz-adv-x="484" 
d="M228 -9c-113 0 -168 90 -137 224c32 140 126 234 236 234c55 0 96 -26 117 -72c5 87 -20 165 -71 228l-108 -58l-10 46l86 46c-21 18 -44 35 -69 49l31 60c41 -20 75 -45 104 -73l101 54l12 -46l-82 -44c70 -90 88 -214 53 -366c-41 -179 -137 -282 -263 -282zM251 61
c73 0 135 60 156 152c23 100 -16 166 -96 166c-71 0 -123 -54 -145 -149c-24 -104 9 -169 85 -169z" />
    <glyph glyph-name="ntilde" unicode="&#xf1;" horiz-adv-x="498" 
d="M279 571l-44 14c34 72 81 105 122 105c53 0 58 -53 96 -53c23 0 46 21 64 56l44 -15c-28 -69 -75 -105 -124 -105c-58 0 -61 51 -96 51c-22 0 -46 -21 -62 -53zM72 0l106 458h49l6 -43c48 34 100 53 148 53c93 0 139 -65 116 -167l-70 -301h-71l66 283
c17 74 -11 115 -78 115c-40 0 -81 -16 -119 -43l-82 -355h-71z" />
    <glyph glyph-name="ograve" unicode="&#xf2;" horiz-adv-x="493" 
d="M360 542l-77 147l67 56l49 -171zM237 -10c-119 0 -174 92 -141 234c34 147 139 244 262 244c119 0 175 -91 142 -233c-34 -147 -140 -245 -263 -245zM263 60c76 0 140 65 163 164c24 103 -14 174 -94 174c-76 0 -140 -64 -163 -164c-24 -104 14 -174 94 -174z" />
    <glyph glyph-name="oacute" unicode="&#xf3;" horiz-adv-x="493" 
d="M376 542l-25 32l129 171l41 -56zM237 -10c-119 0 -174 92 -141 234c34 147 139 244 262 244c119 0 175 -91 142 -233c-34 -147 -140 -245 -263 -245zM263 60c76 0 140 65 163 164c24 103 -14 174 -94 174c-76 0 -140 -64 -163 -164c-24 -104 14 -174 94 -174z" />
    <glyph glyph-name="ocircumflex" unicode="&#xf4;" horiz-adv-x="493" 
d="M251 573l145 155h37l76 -140l-48 -46l-68 108l-119 -108zM237 -10c-119 0 -174 92 -141 234c34 147 139 244 262 244c119 0 175 -91 142 -233c-34 -147 -140 -245 -263 -245zM263 60c76 0 140 65 163 164c24 103 -14 174 -94 174c-76 0 -140 -64 -163 -164
c-24 -104 14 -174 94 -174z" />
    <glyph glyph-name="otilde" unicode="&#xf5;" horiz-adv-x="495" 
d="M277 571l-43 14c34 72 80 105 121 105c53 0 58 -53 96 -53c23 0 46 21 64 56l44 -15c-28 -69 -75 -105 -124 -105c-58 0 -61 51 -96 51c-22 0 -46 -21 -62 -53zM238 -10c-119 0 -175 92 -142 234c34 147 139 244 263 244c119 0 176 -91 143 -233
c-34 -147 -140 -245 -264 -245zM264 60c77 0 141 65 164 164c24 103 -15 174 -95 174c-77 0 -141 -64 -164 -164c-24 -104 15 -174 95 -174z" />
    <glyph glyph-name="odieresis" unicode="&#xf6;" horiz-adv-x="501" 
d="M299 595c-32 0 -46 21 -38 57s32 57 64 57s46 -21 38 -57s-32 -57 -64 -57zM474 595c-32 0 -46 21 -38 57s32 57 64 57s46 -21 38 -57s-32 -57 -64 -57zM241 -10c-121 0 -178 92 -145 234c34 147 141 244 266 244c121 0 178 -91 145 -233c-34 -147 -141 -245 -266 -245z
M267 60c78 0 144 65 167 164c24 103 -16 174 -98 174c-78 0 -144 -64 -167 -164c-24 -104 16 -174 98 -174z" />
    <glyph glyph-name="divide" unicode="&#xf7;" horiz-adv-x="589" 
d="M404 485c-33 0 -47 21 -39 57s33 57 66 57s48 -21 40 -57s-34 -57 -67 -57zM134 306l16 69h458l-16 -69h-458zM311 82c-33 0 -47 21 -39 57s33 57 66 57s48 -21 40 -57s-34 -57 -67 -57z" />
    <glyph glyph-name="oslash" unicode="&#xf8;" horiz-adv-x="498" 
d="M84 -58l-32 27l65 79c-29 41 -35 102 -18 176c34 147 137 244 260 244c35 0 66 -9 89 -25l66 99l32 -43l-67 -87c31 -41 41 -103 23 -180c-34 -147 -139 -245 -262 -245c-38 0 -70 10 -94 29zM172 232c-11 -47 -10 -86 2 -116l221 263c-16 12 -36 19 -60 19
c-76 0 -140 -65 -163 -166zM265 57c76 0 141 66 164 166c11 49 8 91 -7 121l-223 -264c16 -14 39 -23 66 -23z" />
    <glyph glyph-name="ugrave" unicode="&#xf9;" horiz-adv-x="490" 
d="M356 560l-81 134l66 51l53 -156zM246 482l-69 -300c-18 -78 9 -122 73 -122c37 0 79 16 115 44l87 378h71l-111 -482h-50l-6 42c-47 -33 -98 -52 -144 -52c-89 0 -135 69 -110 176l73 316h71z" />
    <glyph glyph-name="uacute" unicode="&#xfa;" horiz-adv-x="490" 
d="M371 560l-25 29l125 156l43 -51zM246 482l-69 -300c-18 -78 9 -122 73 -122c37 0 79 16 115 44l87 378h71l-111 -482h-50l-6 42c-47 -33 -98 -52 -144 -52c-89 0 -135 69 -110 176l73 316h71z" />
    <glyph glyph-name="ucircumflex" unicode="&#xfb;" horiz-adv-x="490" 
d="M245 587l143 141h37l80 -127l-48 -42l-71 98l-117 -98zM246 482l-69 -300c-18 -78 9 -122 73 -122c37 0 79 16 115 44l87 378h71l-111 -482h-50l-6 42c-47 -33 -98 -52 -144 -52c-89 0 -135 69 -110 176l73 316h71z" />
    <glyph glyph-name="udieresis" unicode="&#xfc;" horiz-adv-x="495" 
d="M289 595c-32 0 -45 21 -37 57s32 57 64 57s45 -21 37 -57s-32 -57 -64 -57zM465 595c-32 0 -46 21 -38 57s32 57 64 57s45 -21 37 -57s-31 -57 -63 -57zM247 482l-70 -300c-18 -78 10 -122 76 -122c38 0 80 16 117 44l87 378h71l-111 -482h-50l-6 42
c-47 -33 -99 -52 -146 -52c-91 0 -138 69 -113 176l73 316h72z" />
    <glyph glyph-name="yacute" unicode="&#xfd;" horiz-adv-x="413" 
d="M332 560l-25 29l125 156l42 -51zM49 -217l125 217l-51 482h76l28 -404l217 404h68l-272 -482l-118 -217h-73z" />
    <glyph glyph-name="thorn" unicode="&#xfe;" horiz-adv-x="497" 
d="M22 -217l220 956h70l-74 -318c37 31 81 47 128 47c114 0 168 -93 136 -233c-34 -147 -136 -245 -255 -245c-43 0 -77 14 -99 41l-57 -248h-69zM332 398c-41 0 -80 -18 -111 -51l-53 -230c16 -36 49 -57 94 -57c80 0 143 65 166 163c24 104 -14 175 -96 175z" />
    <glyph glyph-name="ydieresis" unicode="&#xff;" horiz-adv-x="420" 
d="M252 595c-32 0 -46 21 -38 57s32 57 64 57s45 -21 37 -57s-31 -57 -63 -57zM427 595c-32 0 -46 21 -38 57s32 57 64 57s45 -21 37 -57s-31 -57 -63 -57zM51 -217l127 217l-55 482h77l31 -404l221 404h68l-274 -482l-120 -217h-75z" />
    <glyph glyph-name="Amacron" unicode="&#x100;" horiz-adv-x="628" 
d="M351 788l15 66h291l-15 -66h-291zM29 0l402 694h101l66 -694h-86l-17 206h-269l-116 -206h-81zM266 278h223l-29 345z" />
    <glyph glyph-name="amacron" unicode="&#x101;" horiz-adv-x="449" 
d="M218 606l15 66h271l-15 -66h-271zM179 -10c-86 0 -129 53 -110 135c23 98 114 141 301 143l7 29c15 65 -15 99 -89 99c-40 0 -86 -10 -134 -30l-4 56c52 29 114 46 169 46c109 0 154 -61 129 -170l-68 -298h-50l-7 45c-42 -35 -91 -55 -144 -55zM143 134
c-10 -44 18 -74 73 -74c43 0 85 16 117 44l25 109c-139 -1 -202 -24 -215 -79z" />
    <glyph glyph-name="Abreve" unicode="&#x102;" horiz-adv-x="628" 
d="M486 758c-71 0 -114 53 -109 132l68 37c-7 -62 20 -104 67 -104c49 0 96 42 117 105l31 -26c-32 -86 -102 -144 -174 -144zM29 0l402 694h101l66 -694h-86l-17 206h-269l-116 -206h-81zM266 278h223l-29 345z" />
    <glyph glyph-name="abreve" unicode="&#x103;" horiz-adv-x="451" 
d="M338 546c-66 0 -105 57 -98 142l67 42c-9 -71 13 -119 57 -119c45 0 90 48 113 120l28 -30c-33 -93 -100 -155 -167 -155zM180 -10c-86 0 -130 53 -111 135c23 98 115 141 303 143l6 29c15 65 -15 99 -89 99c-41 0 -87 -10 -135 -30l-4 56c52 29 115 46 170 46
c110 0 155 -61 130 -170l-69 -298h-50l-6 45c-42 -35 -92 -55 -145 -55zM143 134c-10 -44 19 -74 74 -74c43 0 85 16 117 44l25 109c-140 -1 -203 -24 -216 -79z" />
    <glyph glyph-name="Aogonek" unicode="&#x104;" horiz-adv-x="628" 
d="M29 0l402 694h101l66 -694c-74 -36 -130 -90 -141 -136c-7 -32 9 -54 41 -54c15 0 35 5 50 11l-7 -52c-26 -14 -50 -21 -77 -21c-68 0 -101 40 -87 102c13 58 64 112 138 150h-3l-17 206h-269l-116 -206h-81zM266 278h223l-29 345z" />
    <glyph glyph-name="aogonek" unicode="&#x105;" horiz-adv-x="452" 
d="M181 -10c-87 0 -131 53 -112 135c23 98 115 141 304 143l7 29c15 65 -15 99 -90 99c-41 0 -88 -10 -136 -30l-4 56c52 29 116 46 171 46c110 0 155 -61 130 -170l-68 -298c-71 -36 -125 -90 -136 -136c-7 -32 8 -54 38 -54c14 0 32 5 47 11l-6 -52
c-24 -14 -48 -21 -74 -21c-64 0 -96 40 -82 102c15 66 75 125 161 163l-5 32c-42 -35 -92 -55 -145 -55zM143 134c-10 -44 19 -74 75 -74c43 0 86 16 118 44l25 109c-141 -1 -205 -24 -218 -79z" />
    <glyph glyph-name="Cacute" unicode="&#x106;" horiz-adv-x="605" 
d="M503 744l-20 42l166 131l32 -64zM371 -10c-191 0 -285 140 -237 349c50 218 217 364 417 364c63 0 126 -16 167 -43l-36 -62c-45 20 -101 32 -153 32c-155 0 -273 -103 -312 -272c-41 -177 35 -295 189 -295c49 0 110 12 161 32l3 -61c-68 -29 -137 -44 -199 -44z" />
    <glyph glyph-name="cacute" unicode="&#x107;" horiz-adv-x="405" 
d="M362 542l-24 32l128 171l41 -56zM232 -10c-119 0 -171 84 -138 226c35 151 141 252 264 252c41 0 80 -11 113 -32l-31 -63c-30 17 -66 25 -98 25c-86 0 -147 -59 -172 -167c-25 -109 8 -175 94 -175c32 0 72 10 110 28l3 -56c-40 -24 -95 -38 -145 -38z" />
    <glyph glyph-name="Ccircumflex" unicode="&#x108;" horiz-adv-x="605" 
d="M394 782l152 141h40l89 -127l-51 -42l-79 98l-125 -98zM371 -10c-191 0 -285 140 -237 349c50 218 217 364 417 364c63 0 126 -16 167 -43l-36 -62c-45 20 -101 32 -153 32c-155 0 -273 -103 -312 -272c-41 -177 35 -295 189 -295c49 0 110 12 161 32l3 -61
c-68 -29 -137 -44 -199 -44z" />
    <glyph glyph-name="ccircumflex" unicode="&#x109;" horiz-adv-x="405" 
d="M237 573l146 155h36l77 -140l-49 -46l-68 108l-119 -108zM232 -10c-119 0 -171 84 -138 226c35 151 141 252 264 252c41 0 80 -11 113 -32l-31 -63c-30 17 -66 25 -98 25c-86 0 -147 -59 -172 -167c-25 -109 8 -175 94 -175c32 0 72 10 110 28l3 -56
c-40 -24 -95 -38 -145 -38z" />
    <glyph glyph-name="Cdotaccent" unicode="&#x10a;" horiz-adv-x="605" 
d="M523 778c-33 0 -47 21 -39 57s33 57 66 57s48 -21 40 -57s-34 -57 -67 -57zM371 -10c-191 0 -285 140 -237 349c50 218 217 364 417 364c63 0 126 -16 167 -43l-36 -62c-45 20 -101 32 -153 32c-155 0 -273 -103 -312 -272c-41 -177 35 -295 189 -295c49 0 110 12 161 32
l3 -61c-68 -29 -137 -44 -199 -44z" />
    <glyph glyph-name="cdotaccent" unicode="&#x10b;" horiz-adv-x="409" 
d="M371 595c-32 0 -45 21 -37 57s31 57 63 57s46 -21 38 -57s-32 -57 -64 -57zM234 -10c-120 0 -173 84 -140 226c35 151 142 252 267 252c42 0 80 -11 114 -32l-31 -63c-31 17 -66 25 -99 25c-87 0 -150 -59 -175 -167c-25 -109 9 -175 96 -175c32 0 73 10 112 28l3 -56
c-40 -24 -96 -38 -147 -38z" />
    <glyph glyph-name="Ccaron" unicode="&#x10c;" horiz-adv-x="605" 
d="M502 754l-92 126l56 42l74 -100l128 101l24 -30l-150 -139h-40zM371 -10c-191 0 -285 140 -237 349c50 218 217 364 417 364c63 0 126 -16 167 -43l-36 -62c-45 20 -101 32 -153 32c-155 0 -273 -103 -312 -272c-41 -177 35 -295 189 -295c49 0 110 12 161 32l3 -61
c-68 -29 -137 -44 -199 -44z" />
    <glyph glyph-name="ccaron" unicode="&#x10d;" horiz-adv-x="405" 
d="M342 550l-79 139l53 46l64 -110l122 111l21 -33l-144 -153h-37zM232 -10c-119 0 -171 84 -138 226c35 151 141 252 264 252c41 0 80 -11 113 -32l-31 -63c-30 17 -66 25 -98 25c-86 0 -147 -59 -172 -167c-25 -109 8 -175 94 -175c32 0 72 10 110 28l3 -56
c-40 -24 -95 -38 -145 -38z" />
    <glyph glyph-name="Dcaron" unicode="&#x10e;" horiz-adv-x="678" 
d="M464 754l-92 126l55 42l75 -100l128 101l24 -30l-150 -139h-40zM95 0l160 694h211c197 0 285 -124 237 -334c-51 -223 -216 -360 -411 -360h-197zM188 72h130c153 0 263 100 303 275c41 176 -24 275 -181 275h-125z" />
    <glyph glyph-name="dcaron" unicode="&#x10f;" horiz-adv-x="528" 
d="M639 535l-41 6l62 208l62 -9zM228 -10c-111 0 -164 94 -131 235c34 146 134 243 251 243c44 0 79 -15 102 -43l72 313h71l-171 -738h-49l-7 47c-40 -36 -88 -57 -138 -57zM170 234c-24 -104 13 -174 95 -174c42 0 81 18 112 51l53 231c-17 35 -48 56 -94 56
c-80 0 -143 -65 -166 -164z" />
    <glyph glyph-name="Dcroat" unicode="&#x110;" horiz-adv-x="679" 
d="M96 0l73 315h-77l15 65h77l73 314h211c197 0 285 -124 237 -334c-51 -223 -217 -360 -412 -360h-197zM190 72h129c153 0 264 100 304 275c41 176 -24 275 -181 275h-125l-56 -242h125l-15 -65h-125z" />
    <glyph glyph-name="dcroat" unicode="&#x111;" horiz-adv-x="496" 
d="M228 -10c-111 0 -164 94 -131 235c34 146 134 243 251 243c44 0 79 -15 102 -43l30 130h-115l13 58h115l29 126h71l-29 -126h54l-14 -58h-53l-129 -555h-49l-7 47c-40 -36 -88 -57 -138 -57zM170 234c-24 -104 13 -174 95 -174c42 0 81 18 112 51l53 231
c-17 35 -48 56 -94 56c-80 0 -143 -65 -166 -164z" />
    <glyph glyph-name="Emacron" unicode="&#x112;" horiz-adv-x="554" 
d="M344 788l15 66h291l-15 -66h-291zM95 0l160 694h405l-16 -72h-329l-52 -227h303l-16 -72h-304l-58 -251h329l-17 -72h-405z" />
    <glyph glyph-name="emacron" unicode="&#x113;" horiz-adv-x="461" 
d="M239 606l15 66h270l-15 -66h-270zM257 -10c-133 0 -194 90 -160 237c33 141 134 241 250 241c103 0 155 -80 128 -196c-4 -18 -14 -52 -19 -66h-290c-12 -95 31 -151 119 -151c36 0 78 10 114 27l3 -56c-43 -23 -97 -36 -145 -36zM327 400c-69 0 -122 -47 -148 -134h228
c20 85 -10 134 -80 134z" />
    <glyph glyph-name="Ebreve" unicode="&#x114;" horiz-adv-x="554" 
d="M479 758c-71 0 -114 53 -109 132l68 37c-7 -62 20 -104 67 -104c49 0 96 42 117 105l31 -26c-32 -86 -102 -144 -174 -144zM95 0l160 694h405l-16 -72h-329l-52 -227h303l-16 -72h-304l-58 -251h329l-17 -72h-405z" />
    <glyph glyph-name="ebreve" unicode="&#x115;" horiz-adv-x="464" 
d="M359 546c-66 0 -104 57 -97 142l66 42c-9 -71 13 -119 57 -119c45 0 90 48 113 120l28 -30c-33 -93 -100 -155 -167 -155zM258 -10c-134 0 -195 90 -161 237c33 141 135 241 252 241c104 0 155 -80 128 -196c-4 -18 -13 -52 -18 -66h-292c-12 -95 31 -151 119 -151
c36 0 80 10 116 27l3 -56c-43 -23 -99 -36 -147 -36zM328 400c-70 0 -123 -47 -149 -134h230c20 85 -10 134 -81 134z" />
    <glyph glyph-name="Edotaccent" unicode="&#x116;" horiz-adv-x="554" 
d="M484 778c-33 0 -47 21 -39 57s33 57 66 57s48 -21 40 -57s-34 -57 -67 -57zM95 0l160 694h405l-16 -72h-329l-52 -227h303l-16 -72h-304l-58 -251h329l-17 -72h-405z" />
    <glyph glyph-name="edotaccent" unicode="&#x117;" horiz-adv-x="465" 
d="M374 595c-32 0 -46 21 -38 57s32 57 64 57s46 -21 38 -57s-32 -57 -64 -57zM259 -10c-134 0 -196 90 -162 237c33 141 135 241 253 241c104 0 156 -80 129 -196c-4 -18 -14 -52 -19 -66h-294c-11 -95 32 -151 121 -151c37 0 80 10 116 27l3 -56c-43 -23 -99 -36 -147 -36
zM329 400c-71 0 -124 -47 -150 -134h232c20 85 -11 134 -82 134z" />
    <glyph glyph-name="Eogonek" unicode="&#x118;" horiz-adv-x="554" 
d="M95 0l160 694h405l-16 -72h-329l-52 -227h303l-16 -72h-304l-58 -251h329l-17 -72c-74 -36 -130 -90 -141 -136c-7 -32 9 -54 41 -54c15 0 34 5 49 11l-6 -52c-26 -14 -50 -21 -77 -21c-68 0 -101 40 -87 102c13 58 63 112 137 150h-321z" />
    <glyph glyph-name="eogonek" unicode="&#x119;" horiz-adv-x="463" 
d="M259 -10c-134 0 -196 90 -162 237c33 141 135 241 252 241c104 0 156 -80 129 -196c-4 -18 -14 -52 -19 -66h-293c-11 -95 31 -151 120 -151c37 0 80 10 116 27l3 -58c-3 -1 -6 -3 -8 -4c-71 -37 -122 -93 -135 -148c-9 -39 4 -64 34 -64c13 0 31 5 46 12l-6 -51
c-22 -14 -48 -22 -75 -22c-61 0 -91 42 -76 108c12 53 48 100 105 137c-10 -1 -20 -2 -31 -2zM328 400c-70 0 -123 -47 -149 -134h231c20 85 -11 134 -82 134z" />
    <glyph glyph-name="Ecaron" unicode="&#x11a;" horiz-adv-x="554" 
d="M463 754l-92 126l56 42l74 -100l128 101l24 -30l-150 -139h-40zM95 0l160 694h405l-16 -72h-329l-52 -227h303l-16 -72h-304l-58 -251h329l-17 -72h-405z" />
    <glyph glyph-name="ecaron" unicode="&#x11b;" horiz-adv-x="461" 
d="M345 550l-80 139l53 46l65 -110l121 111l23 -33l-145 -153h-37zM257 -10c-133 0 -194 90 -160 237c33 141 134 241 250 241c103 0 155 -80 128 -196c-4 -18 -14 -52 -19 -66h-290c-12 -95 31 -151 119 -151c36 0 78 10 114 27l3 -56c-43 -23 -97 -36 -145 -36zM327 400
c-69 0 -122 -47 -148 -134h228c20 85 -10 134 -80 134z" />
    <glyph glyph-name="Gcircumflex" unicode="&#x11c;" horiz-adv-x="684" 
d="M421 782l152 141h40l88 -127l-50 -42l-79 98l-125 -98zM380 -9c-195 0 -292 139 -243 351c50 218 218 361 422 361c71 0 135 -16 185 -46l-37 -64c-51 23 -116 37 -175 37c-157 0 -272 -100 -312 -273c-41 -178 33 -293 188 -293c51 0 105 13 156 38l44 194h-183l17 72
h260l-68 -294c-78 -55 -165 -83 -254 -83z" />
    <glyph glyph-name="gcircumflex" unicode="&#x11d;" horiz-adv-x="499" 
d="M246 573l145 155h37l77 -140l-49 -46l-68 108l-119 -108zM228 -10c-111 0 -164 94 -131 236c34 146 134 242 250 242c48 0 86 -18 109 -51l23 41h49l-104 -452c-32 -140 -133 -233 -253 -233c-43 0 -85 13 -122 38l30 61c34 -19 76 -30 113 -30c82 0 135 53 160 160l9 41
c-39 -34 -85 -53 -133 -53zM170 234c-24 -104 13 -174 95 -174c42 0 81 18 112 51l53 231c-17 35 -48 56 -94 56c-80 0 -143 -65 -166 -164z" />
    <glyph glyph-name="Gbreve" unicode="&#x11e;" horiz-adv-x="684" 
d="M545 758c-71 0 -114 53 -109 132l68 37c-7 -62 20 -104 67 -104c49 0 96 42 117 105l30 -26c-32 -86 -101 -144 -173 -144zM380 -9c-195 0 -292 139 -243 351c50 218 218 361 422 361c71 0 135 -16 185 -46l-37 -64c-51 23 -116 37 -175 37c-157 0 -272 -100 -312 -273
c-41 -178 33 -293 188 -293c51 0 105 13 156 38l44 194h-183l17 72h260l-68 -294c-78 -55 -165 -83 -254 -83z" />
    <glyph glyph-name="gbreve" unicode="&#x11f;" horiz-adv-x="502" 
d="M365 546c-66 0 -104 57 -97 142l66 42c-9 -71 13 -119 57 -119c45 0 90 48 113 120l28 -30c-33 -93 -100 -155 -167 -155zM230 -10c-112 0 -166 94 -133 236c34 146 135 242 252 242c49 0 86 -18 109 -51l23 41h50l-104 -452c-32 -140 -134 -233 -255 -233
c-44 0 -85 13 -123 38l30 61c35 -19 77 -30 114 -30c83 0 137 53 162 160l9 41c-39 -34 -85 -53 -134 -53zM170 234c-24 -104 14 -174 97 -174c42 0 82 18 113 51l53 231c-17 35 -49 56 -96 56c-80 0 -144 -65 -167 -164z" />
    <glyph glyph-name="Gdotaccent" unicode="&#x120;" horiz-adv-x="684" 
d="M550 778c-33 0 -48 21 -40 57s34 57 67 57s48 -21 40 -57s-34 -57 -67 -57zM380 -9c-195 0 -292 139 -243 351c50 218 218 361 422 361c71 0 135 -16 185 -46l-37 -64c-51 23 -116 37 -175 37c-157 0 -272 -100 -312 -273c-41 -178 33 -293 188 -293c51 0 105 13 156 38
l44 194h-183l17 72h260l-68 -294c-78 -55 -165 -83 -254 -83z" />
    <glyph glyph-name="gdotaccent" unicode="&#x121;" horiz-adv-x="503" 
d="M380 595c-32 0 -46 21 -38 57s32 57 64 57s45 -21 37 -57s-31 -57 -63 -57zM231 -10c-113 0 -167 94 -134 236c34 146 136 242 253 242c49 0 87 -18 110 -51l22 41h50l-104 -452c-32 -140 -133 -233 -255 -233c-44 0 -86 13 -124 38l30 61c35 -19 78 -30 115 -30
c84 0 137 53 162 160l9 41c-39 -34 -85 -53 -134 -53zM170 234c-24 -104 13 -174 97 -174c43 0 83 18 114 51l53 231c-17 35 -49 56 -96 56c-81 0 -145 -65 -168 -164z" />
    <glyph glyph-name="uni0122" unicode="&#x122;" horiz-adv-x="684" 
d="M380 -9c-195 0 -292 139 -243 351c50 218 218 361 422 361c71 0 135 -16 185 -46l-37 -64c-51 23 -116 37 -175 37c-157 0 -272 -100 -312 -273c-41 -178 33 -293 188 -293c51 0 105 13 156 38l44 194h-183l17 72h260l-68 -294c-78 -55 -165 -83 -254 -83zM259 -227
c24 33 49 95 64 162h70c-15 -64 -42 -116 -83 -162h-51z" />
    <glyph glyph-name="uni0123" unicode="&#x123;" horiz-adv-x="501" 
d="M458 732c-25 -39 -52 -110 -68 -178h-66c17 74 43 130 83 178h51zM230 -10c-112 0 -166 94 -133 236c34 146 135 242 252 242c49 0 86 -18 109 -51l23 41h50l-105 -452c-32 -140 -133 -233 -254 -233c-44 0 -85 13 -123 38l30 61c35 -19 77 -30 114 -30
c83 0 137 53 162 160l9 41c-39 -34 -85 -53 -134 -53zM170 234c-24 -104 14 -174 97 -174c42 0 82 18 113 51l53 231c-17 35 -49 56 -96 56c-80 0 -144 -65 -167 -164z" />
    <glyph glyph-name="Hcircumflex" unicode="&#x124;" horiz-adv-x="688" 
d="M392 782l152 141h40l89 -127l-51 -42l-79 98l-125 -98zM95 0l160 694h77l-69 -299h345l69 299h77l-160 -694h-77l74 323h-345l-74 -323h-77z" />
    <glyph glyph-name="hcircumflex" unicode="&#x125;" horiz-adv-x="498" 
d="M317 820l144 148h37l79 -133l-49 -45l-69 103l-118 -103zM72 0l168 727h71l-72 -310c46 34 96 51 142 51c93 0 138 -65 115 -167l-69 -301h-71l65 283c17 74 -10 115 -77 115c-40 0 -81 -15 -120 -46l-81 -352h-71z" />
    <glyph glyph-name="Hbar" unicode="&#x126;" horiz-adv-x="692" 
d="M96 0l118 509h-82l14 60h82l29 125h77l-29 -125h345l29 125h77l-29 -125h82l-14 -60h-82l-117 -509h-77l74 323h-345l-74 -323h-78zM265 395h345l26 114h-345z" />
    <glyph glyph-name="hbar" unicode="&#x127;" horiz-adv-x="495" 
d="M71 0l127 549h-52l13 58h52l31 132h71l-30 -132h116l-14 -58h-116l-30 -132c46 34 95 51 141 51c93 0 139 -65 116 -167l-70 -301h-71l66 283c17 74 -10 115 -77 115c-40 0 -81 -15 -120 -46l-82 -352h-71z" />
    <glyph glyph-name="Itilde" unicode="&#x128;" horiz-adv-x="271" 
d="M199 762l-46 14c35 72 84 105 129 105c57 0 63 -53 104 -53c25 0 51 20 69 55l46 -14c-29 -69 -79 -105 -132 -105c-62 0 -67 51 -105 51c-24 0 -48 -21 -65 -53zM97 0l161 694h77l-161 -694h-77z" />
    <glyph glyph-name="itilde" unicode="&#x129;" horiz-adv-x="217" 
d="M140 572l-44 14c34 72 81 105 123 105c53 0 58 -53 96 -53c24 0 47 20 65 55l44 -14c-28 -69 -75 -105 -125 -105c-58 0 -61 51 -97 51c-23 0 -46 -21 -62 -53zM74 0l111 482h71l-111 -482h-71z" />
    <glyph glyph-name="Imacron" unicode="&#x12a;" horiz-adv-x="269" 
d="M199 782l15 65h233l-15 -65h-233zM96 0l161 694h77l-160 -694h-78z" />
    <glyph glyph-name="imacron" unicode="&#x12b;" horiz-adv-x="221" 
d="M155 606l15 64h191l-15 -64h-191zM75 0l111 482h71l-111 -482h-71z" />
    <glyph glyph-name="Ibreve" unicode="&#x12c;" horiz-adv-x="270" 
d="M307 758c-71 0 -114 53 -109 132l68 37c-7 -62 20 -104 67 -104c49 0 97 42 118 105l30 -26c-32 -86 -102 -144 -174 -144zM97 0l160 694h77l-160 -694h-77z" />
    <glyph glyph-name="ibreve" unicode="&#x12d;" horiz-adv-x="220" 
d="M238 561c-67 0 -107 53 -101 132l66 37c-7 -62 17 -104 61 -104c46 0 90 42 111 105l29 -26c-31 -86 -99 -144 -166 -144zM75 0l112 482h71l-112 -482h-71z" />
    <glyph glyph-name="Iogonek" unicode="&#x12e;" horiz-adv-x="268" 
d="M96 0l161 694h77l-160 -694c-64 -32 -105 -79 -118 -134c-9 -37 0 -57 27 -57c13 0 27 5 40 11l-5 -51c-20 -12 -42 -21 -70 -21c-60 0 -87 39 -73 100c13 57 58 113 122 152h-1z" />
    <glyph glyph-name="iogonek" unicode="&#x12f;" horiz-adv-x="226" 
d="M251 595c-32 0 -45 21 -37 57s31 57 63 57s46 -21 38 -57s-32 -57 -64 -57zM25 -252c-58 0 -82 39 -68 100c13 58 58 114 121 154l111 480h71l-112 -482c-62 -32 -100 -79 -113 -134c-9 -37 -1 -57 25 -57c12 0 26 5 38 11l-6 -51c-19 -12 -40 -21 -67 -21z" />
    <glyph glyph-name="Idotaccent" unicode="&#x130;" horiz-adv-x="267" 
d="M311 778c-33 0 -48 21 -40 57s33 57 66 57s48 -21 40 -57s-33 -57 -66 -57zM95 0l160 694h77l-160 -694h-77z" />
    <glyph glyph-name="dotlessi" unicode="&#x131;" horiz-adv-x="228" 
d="M75 0l106 458h71l-106 -458h-71z" />
    <glyph glyph-name="Jcircumflex" unicode="&#x134;" horiz-adv-x="411" 
d="M329 782l151 141h40l89 -127l-51 -42l-78 98l-125 -98zM147 -10c-39 0 -76 10 -108 34l37 62c23 -14 58 -23 86 -23c62 0 107 46 126 128l116 503h77l-114 -494c-31 -135 -110 -210 -220 -210z" />
    <glyph glyph-name="jcircumflex" unicode="&#x135;" horiz-adv-x="218" 
d="M118 587l143 141h38l80 -127l-47 -42l-72 98l-118 -98zM-32 -227l-11 48c53 31 97 88 110 144l119 517h72l-117 -505c-20 -88 -84 -164 -173 -204z" />
    <glyph glyph-name="uni0136" unicode="&#x136;" horiz-adv-x="580" 
d="M95 0l160 694h77l-76 -330l358 330h94l-361 -327l215 -367h-103l-205 358l-82 -358h-77zM179 -227c24 33 49 95 64 162h70c-15 -64 -42 -116 -83 -162h-51z" />
    <glyph glyph-name="uni0137" unicode="&#x137;" horiz-adv-x="435" 
d="M72 0l170 739h72l-111 -480l237 223h81l-230 -218l138 -264h-91l-136 255l-59 -255h-71zM109 -227c23 33 47 95 62 162h66c-15 -64 -40 -116 -80 -162h-48z" />
    <glyph glyph-name="kgreenlandic" unicode="&#x138;" horiz-adv-x="433" 
d="M72 0l106 458h71l-49 -212l231 209h81l-226 -205l139 -253h-90l-136 245l-56 -242h-71z" />
    <glyph glyph-name="Lacute" unicode="&#x139;" horiz-adv-x="496" 
d="M292 744l-20 42l166 131l31 -64zM95 0l160 694h77l-143 -620h289l-17 -74h-366z" />
    <glyph glyph-name="lacute" unicode="&#x13a;" horiz-adv-x="237" 
d="M274 789l-19 42l158 131l28 -64zM163 -6c-57 0 -85 45 -69 114l146 631h71l-143 -621c-9 -37 1 -60 30 -60c10 0 21 3 32 8l2 -56c-19 -10 -46 -16 -69 -16z" />
    <glyph glyph-name="uni013B" unicode="&#x13b;" horiz-adv-x="496" 
d="M95 0l160 694h77l-143 -620h289l-17 -74h-366zM164 -227c24 33 49 95 64 162h70c-15 -64 -42 -116 -83 -162h-51z" />
    <glyph glyph-name="uni013C" unicode="&#x13c;" horiz-adv-x="239" 
d="M163 -6c-58 0 -85 45 -69 114l146 631h71l-143 -621c-9 -37 1 -60 31 -60c10 0 20 3 32 8l3 -56c-19 -10 -48 -16 -71 -16zM28 -227c24 33 49 95 64 162h66c-15 -64 -41 -116 -81 -162h-49z" />
    <glyph glyph-name="Lcaron" unicode="&#x13d;" horiz-adv-x="496" 
d="M418 553l-44 6l59 190l67 -8zM95 0l160 694h77l-143 -620h289l-17 -74h-366z" />
    <glyph glyph-name="lcaron" unicode="&#x13e;" horiz-adv-x="259" 
d="M365 553l-42 6l58 190l63 -8zM164 -6c-58 0 -86 45 -70 114l146 631h71l-143 -621c-9 -37 2 -60 31 -60c10 0 20 3 32 8l3 -56c-19 -10 -47 -16 -70 -16z" />
    <glyph glyph-name="Ldot" unicode="&#x13f;" horiz-adv-x="496" 
d="M95 0l160 694h77l-143 -620h289l-17 -74h-366zM463 294c-35 0 -54 27 -45 64s39 64 74 64s54 -27 45 -64s-39 -64 -74 -64z" />
    <glyph glyph-name="ldot" unicode="&#x140;" horiz-adv-x="240" 
d="M164 -6c-58 0 -86 45 -70 114l146 631h71l-143 -621c-9 -37 1 -60 31 -60c11 0 21 3 33 8l3 -56c-19 -10 -48 -16 -71 -16zM294 294c-34 0 -51 27 -42 64s38 64 72 64s51 -27 42 -64s-38 -64 -72 -64z" />
    <glyph glyph-name="Lslash" unicode="&#x141;" horiz-adv-x="498" 
d="M96 0l63 271l-44 -22l-18 57l79 41l80 347h78l-70 -302l100 52l17 -58l-135 -70l-56 -242h290l-17 -74h-367z" />
    <glyph glyph-name="lslash" unicode="&#x142;" horiz-adv-x="232" 
d="M162 -6c-57 0 -85 45 -69 114l49 212l-51 -28l-14 49l81 45l81 353h71l-71 -310l89 50l13 -50l-117 -65l-57 -246c-9 -37 1 -60 30 -60c10 0 21 3 32 8l3 -56c-19 -10 -47 -16 -70 -16z" />
    <glyph glyph-name="Nacute" unicode="&#x143;" horiz-adv-x="715" 
d="M515 744l-20 42l166 131l31 -64zM95 0l160 694h88l231 -583l135 583h72l-160 -694h-86l-233 583l-135 -583h-72z" />
    <glyph glyph-name="nacute" unicode="&#x144;" horiz-adv-x="498" 
d="M378 542l-24 32l129 171l41 -56zM72 0l106 458h49l6 -43c48 34 99 53 147 53c93 0 139 -65 116 -167l-69 -301h-71l65 283c17 74 -10 115 -77 115c-40 0 -81 -16 -119 -43l-82 -355h-71z" />
    <glyph glyph-name="uni0145" unicode="&#x145;" horiz-adv-x="715" 
d="M95 0l160 694h88l231 -583l135 583h72l-160 -694h-86l-233 583l-135 -583h-72zM243 -227c24 33 49 95 64 162h70c-15 -64 -42 -116 -83 -162h-51z" />
    <glyph glyph-name="uni0146" unicode="&#x146;" horiz-adv-x="501" 
d="M70 -8l108 466h49l6 -43c48 34 101 53 149 53c94 0 140 -66 116 -170l-70 -306h-71l66 288c17 75 -9 118 -77 118c-41 0 -83 -15 -121 -43l-84 -363h-71zM138 -227c23 32 46 91 61 156h67c-14 -62 -40 -112 -80 -156h-48z" />
    <glyph glyph-name="Ncaron" unicode="&#x147;" horiz-adv-x="715" 
d="M513 754l-92 126l56 42l74 -100l128 101l24 -30l-150 -139h-40zM95 0l160 694h88l231 -583l135 583h72l-160 -694h-86l-233 583l-135 -583h-72z" />
    <glyph glyph-name="ncaron" unicode="&#x148;" horiz-adv-x="498" 
d="M359 550l-80 139l53 46l65 -110l121 111l23 -33l-145 -153h-37zM72 0l106 458h49l6 -43c48 34 99 53 147 53c93 0 139 -65 116 -167l-69 -301h-71l65 283c17 74 -10 115 -77 115c-40 0 -81 -16 -119 -43l-82 -355h-71z" />
    <glyph glyph-name="Eng" unicode="&#x14a;" horiz-adv-x="715" 
d="M95 0l160 694h88l232 -580l134 580h72l-165 -717c-22 -94 -87 -178 -163 -211l-14 48c45 24 85 84 100 151l5 23l-243 592l-134 -580h-72z" />
    <glyph glyph-name="eng" unicode="&#x14b;" horiz-adv-x="498" 
d="M70 -8l108 466h49l6 -43c47 34 99 53 146 53c94 0 141 -67 117 -170l-76 -328c-20 -87 -81 -165 -153 -197l-13 46c41 23 78 78 92 139l75 322c17 75 -10 118 -77 118c-40 0 -81 -15 -119 -43l-84 -363h-71z" />
    <glyph glyph-name="Omacron" unicode="&#x14c;" horiz-adv-x="724" 
d="M398 788l15 66h292l-16 -66h-291zM353 -7c-178 0 -263 140 -214 351c50 215 204 359 387 359c180 0 270 -139 222 -347c-50 -218 -209 -363 -395 -363zM379 65c133 0 248 112 287 279c40 172 -27 286 -166 286c-130 0 -242 -110 -280 -274c-40 -175 23 -291 159 -291z
" />
    <glyph glyph-name="omacron" unicode="&#x14d;" horiz-adv-x="493" 
d="M251 606l15 66h268l-15 -66h-268zM237 -10c-119 0 -174 92 -141 234c34 147 139 244 262 244c119 0 175 -91 142 -233c-34 -147 -140 -245 -263 -245zM263 60c76 0 140 65 163 164c24 103 -14 174 -94 174c-76 0 -140 -64 -163 -164c-24 -104 14 -174 94 -174z" />
    <glyph glyph-name="Obreve" unicode="&#x14e;" horiz-adv-x="724" 
d="M534 758c-71 0 -114 53 -109 132l68 37c-7 -62 20 -104 67 -104c49 0 96 42 117 105l30 -26c-32 -86 -101 -144 -173 -144zM353 -7c-178 0 -263 140 -214 351c50 215 204 359 387 359c180 0 270 -139 222 -347c-50 -218 -209 -363 -395 -363zM379 65
c133 0 248 112 287 279c40 172 -27 286 -166 286c-130 0 -242 -110 -280 -274c-40 -175 23 -291 159 -291z" />
    <glyph glyph-name="obreve" unicode="&#x14f;" horiz-adv-x="496" 
d="M371 546c-66 0 -105 57 -98 142l67 42c-9 -71 12 -119 56 -119c45 0 91 48 114 120l27 -30c-33 -93 -99 -155 -166 -155zM239 -10c-120 0 -176 92 -143 234c34 147 139 244 263 244c120 0 177 -91 144 -233c-34 -147 -140 -245 -264 -245zM264 60c77 0 143 65 166 164
c24 103 -15 174 -96 174c-77 0 -142 -64 -165 -164c-24 -104 14 -174 95 -174z" />
    <glyph glyph-name="Ohungarumlaut" unicode="&#x150;" horiz-adv-x="724" 
d="M413 764l-28 36l134 139l43 -54zM590 764l-28 36l133 139l44 -54zM353 -7c-178 0 -263 140 -214 351c50 215 204 359 387 359c180 0 270 -139 222 -347c-50 -218 -209 -363 -395 -363zM379 65c133 0 248 112 287 279c40 172 -27 286 -166 286c-130 0 -242 -110 -280 -274
c-40 -175 23 -291 159 -291z" />
    <glyph glyph-name="ohungarumlaut" unicode="&#x151;" horiz-adv-x="493" 
d="M446 535l-31 24l109 188l52 -43zM300 535l-30 24l108 188l51 -43zM237 -10c-119 0 -174 92 -141 234c34 147 139 244 262 244c119 0 175 -91 142 -233c-34 -147 -140 -245 -263 -245zM263 60c76 0 140 65 163 164c24 103 -14 174 -94 174c-76 0 -140 -64 -163 -164
c-24 -104 14 -174 94 -174z" />
    <glyph glyph-name="OE" unicode="&#x152;" horiz-adv-x="938" 
d="M382 -7c-206 0 -294 134 -244 350c51 221 207 360 409 360c33 0 74 -4 104 -9h393l-16 -72h-329l-52 -227h303l-16 -72h-304l-58 -251h329l-17 -72h-405c-30 -4 -67 -7 -97 -7zM220 355c-41 -177 29 -290 179 -290c37 0 74 5 97 11l125 539c-23 11 -61 15 -99 15
c-149 0 -263 -105 -302 -275z" />
    <glyph glyph-name="oe" unicode="&#x153;" horiz-adv-x="791" 
d="M236 -10c-118 0 -173 92 -140 234c34 147 138 244 261 244c74 0 122 -37 137 -101c47 63 113 101 184 101c103 0 154 -80 127 -196c-4 -18 -13 -52 -18 -66h-290c-12 -95 30 -151 119 -151c34 0 71 8 114 26l3 -54c-56 -26 -99 -37 -145 -37c-87 0 -143 37 -162 103
c-48 -65 -114 -103 -190 -103zM657 400c-69 0 -121 -47 -147 -134h228c20 85 -11 134 -81 134zM263 60c76 0 140 65 163 164c24 103 -14 174 -94 174c-76 0 -140 -64 -163 -164c-24 -104 14 -174 94 -174z" />
    <glyph glyph-name="Racute" unicode="&#x154;" horiz-adv-x="596" 
d="M453 744l-20 42l166 131l32 -64zM95 0l160 694h214c132 0 199 -72 171 -194c-21 -93 -87 -167 -173 -200l95 -300h-93l-84 282c-8 -1 -14 -1 -21 -1h-127l-65 -281h-77zM443 622h-128l-62 -271h137c88 0 147 49 167 134c20 86 -22 137 -114 137z" />
    <glyph glyph-name="racute" unicode="&#x155;" horiz-adv-x="329" 
d="M328 543l-24 31l128 171l41 -56zM72 0l106 458h58l-8 -70c42 47 94 75 144 75c19 0 36 -4 52 -11l-34 -74c-12 6 -27 9 -43 9c-46 0 -93 -23 -129 -63l-75 -324h-71z" />
    <glyph glyph-name="uni0156" unicode="&#x156;" horiz-adv-x="596" 
d="M95 0l160 694h214c132 0 199 -72 171 -194c-21 -93 -87 -167 -173 -200l95 -300h-93l-84 282c-8 -1 -14 -1 -21 -1h-127l-65 -281h-77zM443 622h-128l-62 -271h137c88 0 147 49 167 134c20 86 -22 137 -114 137zM182 -227c24 33 49 95 64 162h70
c-15 -64 -42 -116 -83 -162h-51z" />
    <glyph glyph-name="uni0157" unicode="&#x157;" horiz-adv-x="328" 
d="M70 -9l107 467h59l-8 -70c42 47 94 75 144 75c19 0 36 -4 52 -11l-34 -74c-12 6 -27 9 -43 9c-46 0 -94 -25 -130 -65l-76 -331h-71zM-5 -227c23 32 46 92 61 156h67c-14 -62 -40 -112 -80 -156h-48z" />
    <glyph glyph-name="Rcaron" unicode="&#x158;" horiz-adv-x="596" 
d="M452 754l-92 126l55 42l75 -100l127 101l25 -30l-150 -139h-40zM95 0l160 694h214c132 0 199 -72 171 -194c-21 -93 -87 -167 -173 -200l95 -300h-93l-84 282c-8 -1 -14 -1 -21 -1h-127l-65 -281h-77zM443 622h-128l-62 -271h137c88 0 147 49 167 134
c20 86 -22 137 -114 137z" />
    <glyph glyph-name="rcaron" unicode="&#x159;" horiz-adv-x="329" 
d="M309 551l-83 138l55 46l65 -110l122 111l21 -33l-144 -152h-36zM72 0l106 458h58l-8 -70c42 47 94 75 144 75c19 0 36 -4 52 -11l-34 -74c-12 6 -27 9 -43 9c-46 0 -93 -23 -129 -63l-75 -324h-71z" />
    <glyph glyph-name="Sacute" unicode="&#x15a;" horiz-adv-x="542" 
d="M426 744l-20 42l166 131l31 -64zM257 -10c-69 0 -136 19 -200 54l38 65c57 -28 125 -45 184 -45c98 0 164 45 180 115c41 177 -341 88 -286 326c28 121 140 198 284 198c61 0 120 -14 169 -40l-38 -65c-42 21 -98 33 -153 33c-99 0 -163 -40 -180 -113
c-41 -179 344 -81 287 -327c-28 -122 -141 -201 -285 -201z" />
    <glyph glyph-name="sacute" unicode="&#x15b;" horiz-adv-x="406" 
d="M331 542l-24 32l128 171l42 -56zM197 -10c-53 0 -109 14 -151 39l32 63c39 -21 95 -34 139 -34c57 0 96 23 106 65c26 111 -239 44 -201 207c20 86 101 138 210 138c44 0 85 -9 117 -26l-32 -64c-32 13 -72 22 -107 22c-62 0 -107 -25 -116 -65
c-24 -103 240 -41 201 -208c-19 -84 -94 -137 -198 -137z" />
    <glyph glyph-name="Scircumflex" unicode="&#x15c;" horiz-adv-x="542" 
d="M316 782l152 141h40l89 -127l-51 -42l-79 98l-125 -98zM257 -10c-69 0 -136 19 -200 54l38 65c57 -28 125 -45 184 -45c98 0 164 45 180 115c41 177 -341 88 -286 326c28 121 140 198 284 198c61 0 120 -14 169 -40l-38 -65c-42 21 -98 33 -153 33
c-99 0 -163 -40 -180 -113c-41 -179 344 -81 287 -327c-28 -122 -141 -201 -285 -201z" />
    <glyph glyph-name="scircumflex" unicode="&#x15d;" horiz-adv-x="406" 
d="M205 573l147 155h36l78 -140l-50 -46l-68 108l-119 -108zM197 -10c-53 0 -109 14 -151 39l32 63c39 -21 95 -34 139 -34c57 0 96 23 106 65c26 111 -239 44 -201 207c20 86 101 138 210 138c44 0 85 -9 117 -26l-32 -64c-32 13 -72 22 -107 22c-62 0 -107 -25 -116 -65
c-24 -103 240 -41 201 -208c-19 -84 -94 -137 -198 -137z" />
    <glyph glyph-name="Scedilla" unicode="&#x15e;" horiz-adv-x="542" 
d="M211 -256c-35 0 -65 8 -87 24l27 49c20 -11 49 -17 72 -17c34 0 56 14 62 39c8 34 -24 56 -87 59l37 93c-62 3 -121 22 -178 53l38 65c57 -28 125 -45 184 -45c98 0 164 45 180 115c41 177 -341 88 -286 326c28 121 140 198 284 198c61 0 120 -14 169 -40l-38 -65
c-42 21 -98 33 -153 33c-99 0 -163 -40 -180 -113c-41 -179 344 -81 287 -327c-26 -113 -124 -189 -252 -200l-20 -50c68 -11 96 -43 83 -98c-15 -63 -66 -99 -142 -99z" />
    <glyph glyph-name="scedilla" unicode="&#x15f;" horiz-adv-x="408" 
d="M148 -256c-33 0 -59 8 -80 24l26 49c18 -11 44 -17 65 -17c32 0 52 14 58 39c8 34 -21 56 -79 59l36 93c-46 3 -92 17 -128 38l32 63c40 -21 96 -34 140 -34c57 0 96 23 106 65c26 111 -240 44 -202 207c20 86 102 138 211 138c45 0 85 -9 117 -26l-31 -64
c-33 13 -72 22 -108 22c-62 0 -108 -25 -117 -65c-24 -103 242 -41 203 -208c-18 -76 -83 -127 -173 -136l-19 -50c64 -11 91 -43 78 -98c-15 -63 -64 -99 -135 -99z" />
    <glyph glyph-name="Scaron" unicode="&#x160;" horiz-adv-x="542" 
d="M424 754l-92 126l56 42l74 -100l128 101l24 -30l-150 -139h-40zM257 -10c-69 0 -136 19 -200 54l38 65c57 -28 125 -45 184 -45c98 0 164 45 180 115c41 177 -341 88 -286 326c28 121 140 198 284 198c61 0 120 -14 169 -40l-38 -65c-42 21 -98 33 -153 33
c-99 0 -163 -40 -180 -113c-41 -179 344 -81 287 -327c-28 -122 -141 -201 -285 -201z" />
    <glyph glyph-name="scaron" unicode="&#x161;" horiz-adv-x="406" 
d="M312 550l-81 139l54 46l64 -110l122 111l23 -33l-146 -153h-36zM197 -10c-53 0 -109 14 -151 39l32 63c39 -21 95 -34 139 -34c57 0 96 23 106 65c26 111 -239 44 -201 207c20 86 101 138 210 138c44 0 85 -9 117 -26l-32 -64c-32 13 -72 22 -107 22
c-62 0 -107 -25 -116 -65c-24 -103 240 -41 201 -208c-19 -84 -94 -137 -198 -137z" />
    <glyph glyph-name="uni0162" unicode="&#x162;" horiz-adv-x="551" 
d="M237 0l143 622h-215l17 72h508l-17 -72h-216l-143 -622h-14l-23 -59c68 -11 96 -43 83 -98c-15 -63 -66 -99 -142 -99c-35 0 -65 8 -87 24l27 49c20 -11 49 -17 72 -17c34 0 56 14 62 39c8 34 -24 56 -87 59l41 102h-9z" />
    <glyph glyph-name="uni0163" unicode="&#x163;" horiz-adv-x="316" 
d="M208 -5h-11l-18 -49c64 -11 90 -43 77 -98c-15 -63 -64 -99 -136 -99c-33 0 -60 8 -81 24l26 49c18 -11 45 -17 67 -17c32 0 52 14 58 39c8 34 -21 56 -79 59l42 105c-39 20 -55 60 -43 114l62 269h-56l16 67h55l38 165h72l-39 -165h115l-15 -67h-115l-59 -256
c-10 -45 12 -75 55 -75c15 0 34 3 49 10l3 -57c-23 -10 -54 -18 -83 -18z" />
    <glyph glyph-name="Tcaron" unicode="&#x164;" horiz-adv-x="551" 
d="M431 754l-92 126l56 42l74 -100l128 101l24 -30l-150 -139h-40zM237 0l143 622h-215l17 72h508l-17 -72h-216l-143 -622h-77z" />
    <glyph glyph-name="tcaron" unicode="&#x165;" horiz-adv-x="316" 
d="M378 535l-41 7l62 207l62 -9zM208 -5c-77 0 -115 51 -98 126l62 270h-56l16 67h55l36 154h71l-36 -154h115l-16 -67h-114l-59 -256c-10 -45 12 -75 55 -75c15 0 34 3 49 10l2 -57c-22 -10 -53 -18 -82 -18z" />
    <glyph glyph-name="Tbar" unicode="&#x166;" horiz-adv-x="551" 
d="M237 0l72 315h-100l15 65h100l56 242h-215l17 72h508l-17 -72h-216l-55 -242h101l-15 -65h-101l-73 -315h-77z" />
    <glyph glyph-name="tbar" unicode="&#x167;" horiz-adv-x="314" 
d="M72 204l14 58h56l30 129h-56l16 67h55l38 165h72l-39 -165h113l-15 -67h-113l-30 -129h112l-13 -58h-112l-16 -70c-10 -44 11 -74 54 -74c15 0 34 4 48 10l2 -57c-22 -10 -52 -18 -81 -18c-76 0 -114 51 -97 126l19 83h-57z" />
    <glyph glyph-name="Utilde" unicode="&#x168;" horiz-adv-x="657" 
d="M391 762l-46 14c35 72 84 105 129 105c57 0 63 -53 104 -53c25 0 51 20 69 55l46 -14c-29 -69 -80 -105 -133 -105c-62 0 -66 51 -104 51c-24 0 -48 -21 -65 -53zM321 -10c-146 0 -216 100 -181 253l104 451h77l-102 -441c-28 -120 19 -190 129 -190
c104 0 180 64 205 173l106 458h75l-103 -448c-36 -154 -160 -256 -310 -256z" />
    <glyph glyph-name="utilde" unicode="&#x169;" horiz-adv-x="490" 
d="M268 572l-44 14c34 72 81 105 122 105c53 0 57 -53 95 -53c23 0 47 20 65 55l44 -14c-28 -69 -75 -105 -124 -105c-58 0 -61 51 -96 51c-22 0 -46 -21 -62 -53zM246 482l-69 -300c-18 -78 9 -122 73 -122c37 0 79 16 115 44l87 378h71l-111 -482h-50l-6 42
c-47 -33 -98 -52 -144 -52c-89 0 -135 69 -110 176l73 316h71z" />
    <glyph glyph-name="Umacron" unicode="&#x16a;" horiz-adv-x="657" 
d="M364 788l15 66h292l-16 -66h-291zM321 -10c-146 0 -216 100 -181 253l104 451h77l-102 -441c-28 -120 19 -190 129 -190c104 0 180 64 205 173l106 458h75l-103 -448c-36 -154 -160 -256 -310 -256z" />
    <glyph glyph-name="umacron" unicode="&#x16b;" horiz-adv-x="490" 
d="M241 606l16 66h270l-15 -66h-271zM246 482l-69 -300c-18 -78 9 -122 73 -122c37 0 79 16 115 44l87 378h71l-111 -482h-50l-6 42c-47 -33 -98 -52 -144 -52c-89 0 -135 69 -110 176l73 316h71z" />
    <glyph glyph-name="Ubreve" unicode="&#x16c;" horiz-adv-x="657" 
d="M500 758c-71 0 -114 53 -109 132l68 37c-7 -62 20 -104 67 -104c49 0 96 42 117 105l30 -26c-32 -86 -101 -144 -173 -144zM321 -10c-146 0 -216 100 -181 253l104 451h77l-102 -441c-28 -120 19 -190 129 -190c104 0 180 64 205 173l106 458h75l-103 -448
c-36 -154 -160 -256 -310 -256z" />
    <glyph glyph-name="ubreve" unicode="&#x16d;" horiz-adv-x="491" 
d="M365 561c-66 0 -106 53 -100 132l65 37c-7 -62 16 -104 60 -104c45 0 89 42 110 105l29 -26c-31 -86 -97 -144 -164 -144zM247 482l-70 -300c-18 -78 9 -122 74 -122c37 0 78 16 115 44l87 378h71l-111 -482h-50l-6 42c-47 -33 -98 -52 -144 -52c-90 0 -136 69 -111 176
l73 316h72z" />
    <glyph glyph-name="Uring" unicode="&#x16e;" horiz-adv-x="657" 
d="M498 742c-57 0 -86 41 -72 102c15 64 63 106 123 106c57 0 86 -41 72 -102c-15 -64 -63 -106 -123 -106zM515 800c24 0 45 18 51 44c7 29 -7 48 -34 48c-24 0 -45 -18 -51 -44c-7 -29 7 -48 34 -48zM321 -10c-146 0 -216 100 -181 253l104 451h77l-102 -441
c-28 -120 19 -190 129 -190c104 0 180 64 205 173l106 458h75l-103 -448c-36 -154 -160 -256 -310 -256z" />
    <glyph glyph-name="uring" unicode="&#x16f;" horiz-adv-x="494" 
d="M365 555c-53 0 -79 41 -65 102c15 64 61 106 117 106c53 0 80 -41 66 -102c-15 -64 -62 -106 -118 -106zM382 613c22 0 42 18 48 44c7 29 -5 48 -30 48c-22 0 -42 -18 -48 -44c-7 -29 5 -48 30 -48zM246 482l-69 -300c-18 -78 10 -122 75 -122c38 0 80 16 117 44l87 378
h71l-111 -482h-50l-6 42c-47 -33 -100 -52 -146 -52c-90 0 -137 69 -112 176l73 316h71z" />
    <glyph glyph-name="Uhungarumlaut" unicode="&#x170;" horiz-adv-x="657" 
d="M379 764l-28 36l134 139l43 -54zM556 764l-28 36l133 139l44 -54zM321 -10c-146 0 -216 100 -181 253l104 451h77l-102 -441c-28 -120 19 -190 129 -190c104 0 180 64 205 173l106 458h75l-103 -448c-36 -154 -160 -256 -310 -256z" />
    <glyph glyph-name="uhungarumlaut" unicode="&#x171;" horiz-adv-x="490" 
d="M442 553l-31 22l105 172l54 -39zM296 553l-31 22l105 172l52 -39zM246 482l-69 -300c-18 -78 9 -122 73 -122c37 0 79 16 115 44l87 378h71l-111 -482h-50l-6 42c-47 -33 -98 -52 -144 -52c-89 0 -135 69 -110 176l73 316h71z" />
    <glyph glyph-name="Uogonek" unicode="&#x172;" horiz-adv-x="657" 
d="M321 -10c-146 0 -216 100 -181 253l104 451h77l-102 -441c-28 -120 19 -190 129 -190c104 0 180 64 205 173l106 458h75l-103 -448c-26 -113 -100 -198 -196 -235c-71 -33 -125 -90 -137 -141c-8 -36 7 -60 39 -60c14 0 32 5 49 12l-7 -53c-20 -12 -47 -21 -75 -21
c-66 0 -102 42 -87 106c12 51 54 100 112 136h-8z" />
    <glyph glyph-name="uogonek" unicode="&#x173;" horiz-adv-x="492" 
d="M284 -252c-64 0 -96 40 -82 102c15 66 74 125 160 163l-4 29c-47 -33 -98 -52 -144 -52c-90 0 -137 65 -114 167l70 301h71l-65 -283c-17 -74 10 -115 75 -115c37 0 80 15 116 41l82 357h71l-106 -458c-71 -36 -124 -90 -135 -136c-7 -32 8 -54 38 -54c14 0 32 5 47 11
l-6 -52c-24 -14 -48 -21 -74 -21z" />
    <glyph glyph-name="Wcircumflex" unicode="&#x174;" horiz-adv-x="943" 
d="M517 782l151 141h40l89 -127l-51 -42l-78 98l-125 -98zM231 0l-43 694h89l20 -586l291 581h87l32 -575l292 580h78l-362 -694h-74l-38 584l-295 -584h-77z" />
    <glyph glyph-name="wcircumflex" unicode="&#x175;" horiz-adv-x="673" 
d="M352 587l142 141h37l79 -127l-47 -42l-71 98l-117 -98zM163 0l-40 482h78l16 -396l195 394h77l15 -393l199 395h68l-256 -482h-69l-22 390l-196 -390h-65z" />
    <glyph glyph-name="Ycircumflex" unicode="&#x176;" horiz-adv-x="562" 
d="M335 782l151 141h40l89 -127l-51 -42l-78 98l-125 -98zM245 0l69 299l-136 395h90l104 -323l249 323h85l-315 -395l-69 -299h-77z" />
    <glyph glyph-name="ycircumflex" unicode="&#x177;" horiz-adv-x="413" 
d="M207 587l142 141h36l80 -127l-48 -42l-70 98l-117 -98zM49 -217l125 217l-51 482h76l28 -404l217 404h68l-272 -482l-118 -217h-73z" />
    <glyph glyph-name="Ydieresis" unicode="&#x178;" horiz-adv-x="562" 
d="M371 777c-33 0 -48 21 -40 57s33 57 66 57s48 -21 40 -57s-33 -57 -66 -57zM557 777c-33 0 -48 21 -40 57s33 57 66 57s48 -21 40 -57s-33 -57 -66 -57zM245 0l69 299l-136 395h90l104 -323l249 323h85l-315 -395l-69 -299h-77z" />
    <glyph glyph-name="Zacute" unicode="&#x179;" horiz-adv-x="606" 
d="M460 744l-20 42l166 131l32 -64zM44 0l12 53l536 569h-392l17 72h494l-12 -52l-537 -570h417l-16 -72h-519z" />
    <glyph glyph-name="zacute" unicode="&#x17a;" horiz-adv-x="400" 
d="M329 543l-24 32l128 170l41 -56zM34 0l11 49l313 342h-234l15 67h324l-12 -49l-313 -342h245l-16 -67h-333z" />
    <glyph glyph-name="Zdotaccent" unicode="&#x17b;" horiz-adv-x="606" 
d="M480 778c-33 0 -48 21 -40 57s33 57 66 57s48 -21 40 -57s-33 -57 -66 -57zM44 0l12 53l536 569h-392l17 72h494l-12 -52l-537 -570h417l-16 -72h-519z" />
    <glyph glyph-name="zdotaccent" unicode="&#x17c;" horiz-adv-x="404" 
d="M338 595c-32 0 -45 21 -37 57s31 57 63 57s46 -21 38 -57s-32 -57 -64 -57zM34 0l11 49l317 342h-238l15 67h328l-12 -49l-317 -342h249l-16 -67h-337z" />
    <glyph glyph-name="Zcaron" unicode="&#x17d;" horiz-adv-x="606" 
d="M459 754l-92 126l55 42l75 -100l127 101l25 -30l-150 -139h-40zM44 0l12 53l536 569h-392l17 72h494l-12 -52l-537 -570h417l-16 -72h-519z" />
    <glyph glyph-name="zcaron" unicode="&#x17e;" horiz-adv-x="400" 
d="M310 551l-80 138l53 46l64 -110l122 111l21 -33l-144 -152h-36zM34 0l11 49l313 342h-234l15 67h324l-12 -49l-313 -342h245l-16 -67h-333z" />
    <glyph glyph-name="uni018F" unicode="&#x18f;" horiz-adv-x="689" 
d="M460 700c204 0 301 -134 250 -353c-50 -215 -205 -357 -383 -357c-164 0 -244 121 -202 301c5 21 14 54 21 77h488c26 167 -50 259 -204 259c-63 0 -132 -17 -199 -48l-4 61c74 40 152 60 233 60zM350 63c128 0 225 84 269 237h-421c-35 -152 22 -237 152 -237z" />
    <glyph glyph-name="florin" unicode="&#x192;" horiz-adv-x="423" 
d="M38 -227l-12 46c41 23 78 78 92 139l100 433h-62l15 67h62l24 103c26 112 102 188 190 188c29 0 56 -8 79 -23l-32 -66c-18 13 -44 21 -66 21c-47 0 -81 -35 -97 -105l-27 -118h128l-15 -67h-128l-98 -422c-20 -87 -81 -164 -153 -196z" />
    <glyph glyph-name="Ohorn" unicode="&#x1a0;" horiz-adv-x="778" 
d="M353 -7c-178 0 -263 140 -214 351c50 215 204 359 387 359c95 0 165 -39 203 -106c49 1 90 40 103 98c7 32 5 68 -6 98h72c13 -26 15 -58 6 -96c-19 -83 -77 -137 -155 -149c16 -53 16 -118 -1 -192c-50 -218 -209 -363 -395 -363zM379 65c133 0 248 112 287 279
c40 172 -27 286 -166 286c-130 0 -242 -110 -280 -274c-40 -175 23 -291 159 -291z" />
    <glyph glyph-name="ohorn" unicode="&#x1a1;" horiz-adv-x="545" 
d="M237 -10c-119 0 -174 92 -141 234c34 147 138 244 261 244c73 0 122 -35 141 -96c30 17 54 52 65 99c8 36 8 76 -1 110h68c11 -28 12 -63 3 -104c-18 -79 -64 -132 -125 -153c2 -27 -1 -58 -9 -91c-34 -146 -139 -243 -262 -243zM263 60c76 0 140 65 163 164
c24 103 -14 174 -94 174c-76 0 -140 -64 -163 -164c-24 -104 14 -174 94 -174z" />
    <glyph glyph-name="Uhorn" unicode="&#x1af;" horiz-adv-x="765" 
d="M321 -10c-146 0 -216 100 -181 253l104 451h77l-102 -441c-28 -120 19 -190 129 -190c104 0 180 64 205 173l106 458h75l-22 -97c49 0 90 39 104 98c7 32 6 68 -5 98h71c13 -26 15 -58 6 -96c-22 -95 -92 -151 -188 -151l-69 -300c-36 -154 -160 -256 -310 -256z" />
    <glyph glyph-name="uhorn" unicode="&#x1b0;" horiz-adv-x="568" 
d="M246 482l-69 -300c-18 -78 9 -122 73 -122c37 0 79 16 115 44l87 378h71l-22 -96c40 6 74 43 86 97c7 32 5 68 -4 98h68c12 -26 13 -58 4 -96c-21 -91 -82 -146 -166 -151l-77 -334h-50l-6 42c-47 -33 -98 -52 -144 -52c-89 0 -135 69 -110 176l73 316h71z" />
    <glyph glyph-name="uni01C4" unicode="&#x1c4;" horiz-adv-x="1286" 
d="M1139 754l-92 126l56 42l74 -100l128 101l24 -30l-150 -139h-40zM95 0l160 694h211c197 0 285 -124 237 -334c-51 -223 -216 -360 -411 -360h-197zM724 0l12 53l536 569h-391l16 72h494l-12 -52l-537 -570h418l-17 -72h-519zM188 72h130c153 0 263 100 303 275
c41 176 -24 275 -181 275h-125z" />
    <glyph glyph-name="uni01C5" unicode="&#x1c5;" horiz-adv-x="1110" 
d="M1009 567l-92 126l55 42l75 -100l127 101l25 -30l-150 -139h-40zM95 0l160 694h211c197 0 285 -124 237 -334c-51 -223 -216 -360 -411 -360h-197zM188 72h130c153 0 263 100 303 275c41 176 -24 275 -181 275h-125zM716 0l11 49l340 366h-255l15 67h352l-12 -49
l-339 -366h266l-15 -67h-363z" />
    <glyph glyph-name="uni01C6" unicode="&#x1c6;" horiz-adv-x="893" 
d="M228 -10c-111 0 -164 94 -131 235c34 146 134 243 251 243c44 0 79 -15 102 -43l72 314h71l-171 -739h-49l-7 47c-40 -36 -88 -57 -138 -57zM803 550l-80 139l53 46l64 -110l122 111l21 -33l-144 -153h-36zM527 0l11 49l313 342h-234l16 67h323l-12 -49l-313 -342h245
l-16 -67h-333zM170 234c-24 -104 13 -174 95 -174c42 0 81 19 112 52l53 230c-17 36 -48 56 -94 56c-80 0 -143 -65 -166 -164z" />
    <glyph glyph-name="uni01C7" unicode="&#x1c7;" horiz-adv-x="907" 
d="M95 0l160 694h77l-143 -620h289l-17 -74h-366zM645 -10c-39 0 -76 10 -108 34l37 62c23 -14 58 -23 86 -23c62 0 107 46 126 128l116 503h77l-114 -494c-31 -135 -110 -210 -220 -210z" />
    <glyph glyph-name="uni01C8" unicode="&#x1c8;" horiz-adv-x="733" 
d="M754 595c-33 0 -48 21 -40 57s33 57 66 57s48 -21 40 -57s-33 -57 -66 -57zM95 0l160 694h77l-143 -620h289l-17 -74h-366zM467 -227l-13 48c57 31 104 88 117 144l119 517h75l-117 -505c-20 -88 -87 -164 -181 -204z" />
    <glyph glyph-name="uni01C9" unicode="&#x1c9;" horiz-adv-x="463" 
d="M163 -6c-57 0 -85 45 -69 114l146 631h71l-143 -621c-9 -37 1 -60 30 -60c10 0 21 3 32 8l2 -56c-19 -10 -46 -16 -69 -16zM484 595c-32 0 -45 21 -37 57s31 57 63 57s46 -21 38 -57s-32 -57 -64 -57zM203 -227l-11 48c54 31 98 88 111 144l120 517h71l-117 -505
c-20 -88 -85 -164 -174 -204z" />
    <glyph glyph-name="uni01CA" unicode="&#x1ca;" horiz-adv-x="1127" 
d="M95 0l160 694h88l231 -583l135 583h72l-160 -694h-86l-233 583l-135 -583h-72zM865 -10c-39 0 -75 10 -107 34l36 62c23 -14 58 -23 86 -23c62 0 107 46 126 128l117 503h77l-114 -494c-31 -135 -111 -210 -221 -210z" />
    <glyph glyph-name="uni01CB" unicode="&#x1cb;" horiz-adv-x="953" 
d="M974 595c-33 0 -48 21 -40 57s33 57 66 57s48 -21 40 -57s-33 -57 -66 -57zM95 0l160 694h88l231 -583l135 583h72l-160 -694h-86l-233 583l-135 -583h-72zM688 -227l-13 48c57 31 104 88 117 144l119 517h74l-116 -505c-20 -88 -87 -164 -181 -204z" />
    <glyph glyph-name="uni01CC" unicode="&#x1cc;" horiz-adv-x="720" 
d="M740 595c-32 0 -45 21 -37 57s31 57 63 57s46 -21 38 -57s-32 -57 -64 -57zM70 -8l108 466h49l6 -43c48 34 99 53 147 53c93 0 140 -66 116 -170l-71 -306h-71l67 288c17 75 -10 118 -77 118c-40 0 -81 -15 -119 -43l-84 -363h-71zM459 -227l-11 46c54 30 98 85 110 139
l115 500h71l-112 -488c-20 -85 -84 -158 -173 -197z" />
    <glyph glyph-name="uni01CD" unicode="&#x1cd;" horiz-adv-x="628" 
d="M470 754l-92 126l56 42l74 -100l128 101l24 -30l-150 -139h-40zM29 0l402 694h101l66 -694h-86l-17 206h-269l-116 -206h-81zM266 278h223l-29 345z" />
    <glyph glyph-name="uni01CE" unicode="&#x1ce;" horiz-adv-x="449" 
d="M324 550l-80 139l54 46l64 -110l122 111l23 -33l-146 -153h-37zM179 -10c-86 0 -129 53 -110 135c23 98 114 141 301 143l7 29c15 65 -15 99 -89 99c-40 0 -86 -10 -134 -30l-4 56c52 29 114 46 169 46c109 0 154 -61 129 -170l-68 -298h-50l-7 45
c-42 -35 -91 -55 -144 -55zM143 134c-10 -44 18 -74 73 -74c43 0 85 16 117 44l25 109c-139 -1 -202 -24 -215 -79z" />
    <glyph glyph-name="uni01CF" unicode="&#x1cf;" horiz-adv-x="270" 
d="M291 754l-91 126l55 42l74 -100l128 101l25 -30l-151 -139h-40zM97 0l160 694h77l-160 -694h-77z" />
    <glyph glyph-name="uni01D0" unicode="&#x1d0;" horiz-adv-x="217" 
d="M225 567l-83 126l51 42l69 -100l120 101l22 -30l-141 -139h-38zM74 0l111 482h72l-112 -482h-71z" />
    <glyph glyph-name="uni01D1" unicode="&#x1d1;" horiz-adv-x="724" 
d="M518 754l-92 126l55 42l75 -100l127 101l25 -30l-150 -139h-40zM353 -7c-178 0 -263 140 -214 351c50 215 204 359 387 359c180 0 270 -139 222 -347c-50 -218 -209 -363 -395 -363zM379 65c133 0 248 112 287 279c40 172 -27 286 -166 286c-130 0 -242 -110 -280 -274
c-40 -175 23 -291 159 -291z" />
    <glyph glyph-name="uni01D2" unicode="&#x1d2;" horiz-adv-x="493" 
d="M356 550l-79 139l52 46l65 -110l121 111l22 -33l-144 -153h-37zM237 -10c-119 0 -174 92 -141 234c34 147 139 244 262 244c119 0 175 -91 142 -233c-34 -147 -140 -245 -263 -245zM263 60c76 0 140 65 163 164c24 103 -14 174 -94 174c-76 0 -140 -64 -163 -164
c-24 -104 14 -174 94 -174z" />
    <glyph glyph-name="uni01D3" unicode="&#x1d3;" horiz-adv-x="657" 
d="M484 754l-92 126l55 42l75 -100l127 101l25 -30l-150 -139h-40zM321 -10c-146 0 -216 100 -181 253l104 451h77l-102 -441c-28 -120 19 -190 129 -190c104 0 180 64 205 173l106 458h75l-103 -448c-36 -154 -160 -256 -310 -256z" />
    <glyph glyph-name="uni01D4" unicode="&#x1d4;" horiz-adv-x="490" 
d="M352 567l-83 126l52 42l67 -100l119 101l23 -30l-142 -139h-36zM246 482l-69 -300c-18 -78 9 -122 73 -122c37 0 79 16 115 44l87 378h71l-111 -482h-50l-6 42c-47 -33 -98 -52 -144 -52c-89 0 -135 69 -110 176l73 316h71z" />
    <glyph glyph-name="uni01D5" unicode="&#x1d5;" horiz-adv-x="657" 
d="M402 950l15 66h291l-15 -66h-291zM412 777c-33 0 -48 21 -40 57s33 57 66 57s48 -21 40 -57s-33 -57 -66 -57zM598 777c-33 0 -48 21 -40 57s33 57 66 57s48 -21 40 -57s-33 -57 -66 -57zM321 -10c-146 0 -216 100 -181 253l104 451h77l-102 -441
c-28 -120 19 -190 129 -190c104 0 180 64 205 173l106 458h75l-103 -448c-36 -154 -160 -256 -310 -256z" />
    <glyph glyph-name="uni01D6" unicode="&#x1d6;" horiz-adv-x="495" 
d="M269 728l16 66h275l-15 -66h-276zM284 550c-29 0 -43 19 -35 52s30 52 59 52s42 -19 34 -52s-29 -52 -58 -52zM450 550c-29 0 -43 19 -35 52s30 52 59 52s42 -19 34 -52s-29 -52 -58 -52zM247 482l-70 -300c-18 -78 10 -122 76 -122c38 0 80 16 117 44l87 378h71
l-111 -482h-50l-6 42c-47 -33 -99 -52 -146 -52c-91 0 -138 69 -113 176l73 316h72z" />
    <glyph glyph-name="uni01D7" unicode="&#x1d7;" horiz-adv-x="657" 
d="M523 906l-20 42l166 131l31 -64zM412 777c-33 0 -48 21 -40 57s33 57 66 57s48 -21 40 -57s-33 -57 -66 -57zM598 777c-33 0 -48 21 -40 57s33 57 66 57s48 -21 40 -57s-33 -57 -66 -57zM321 -10c-146 0 -216 100 -181 253l104 451h77l-102 -441
c-28 -120 19 -190 129 -190c104 0 180 64 205 173l106 458h75l-103 -448c-36 -154 -160 -256 -310 -256z" />
    <glyph glyph-name="uni01D8" unicode="&#x1d8;" horiz-adv-x="495" 
d="M402 682l-25 29l126 156l45 -51zM284 550c-29 0 -43 19 -35 52s30 52 59 52s42 -19 34 -52s-29 -52 -58 -52zM450 550c-29 0 -43 19 -35 52s30 52 59 52s42 -19 34 -52s-29 -52 -58 -52zM247 482l-70 -300c-18 -78 10 -122 76 -122c38 0 80 16 117 44l87 378h71
l-111 -482h-50l-6 42c-47 -33 -99 -52 -146 -52c-91 0 -138 69 -113 176l73 316h72z" />
    <glyph glyph-name="uni01D9" unicode="&#x1d9;" horiz-adv-x="657" 
d="M521 916l-92 126l56 42l74 -100l128 101l24 -30l-150 -139h-40zM412 777c-33 0 -48 21 -40 57s33 57 66 57s48 -21 40 -57s-33 -57 -66 -57zM598 777c-33 0 -48 21 -40 57s33 57 66 57s48 -21 40 -57s-33 -57 -66 -57zM321 -10c-146 0 -216 100 -181 253l104 451h77
l-102 -441c-28 -120 19 -190 129 -190c104 0 180 64 205 173l106 458h75l-103 -448c-36 -154 -160 -256 -310 -256z" />
    <glyph glyph-name="uni01DA" unicode="&#x1da;" horiz-adv-x="495" 
d="M382 689l-85 126l53 42l69 -100l121 101l24 -30l-145 -139h-37zM284 550c-29 0 -43 19 -35 52s30 52 59 52s42 -19 34 -52s-29 -52 -58 -52zM450 550c-29 0 -43 19 -35 52s30 52 59 52s42 -19 34 -52s-29 -52 -58 -52zM247 482l-70 -300c-18 -78 10 -122 76 -122
c38 0 80 16 117 44l87 378h71l-111 -482h-50l-6 42c-47 -33 -99 -52 -146 -52c-91 0 -138 69 -113 176l73 316h72z" />
    <glyph glyph-name="uni01DB" unicode="&#x1db;" horiz-adv-x="657" 
d="M552 906l-127 109l61 64l106 -131zM412 777c-33 0 -48 21 -40 57s33 57 66 57s48 -21 40 -57s-33 -57 -66 -57zM598 777c-33 0 -48 21 -40 57s33 57 66 57s48 -21 40 -57s-33 -57 -66 -57zM321 -10c-146 0 -216 100 -181 253l104 451h77l-102 -441
c-28 -120 19 -190 129 -190c104 0 180 64 205 173l106 458h75l-103 -448c-36 -154 -160 -256 -310 -256z" />
    <glyph glyph-name="uni01DC" unicode="&#x1dc;" horiz-adv-x="495" 
d="M387 682l-84 134l68 51l54 -156zM284 550c-29 0 -43 19 -35 52s30 52 59 52s42 -19 34 -52s-29 -52 -58 -52zM450 550c-29 0 -43 19 -35 52s30 52 59 52s42 -19 34 -52s-29 -52 -58 -52zM247 482l-70 -300c-18 -78 10 -122 76 -122c38 0 80 16 117 44l87 378h71
l-111 -482h-50l-6 42c-47 -33 -99 -52 -146 -52c-91 0 -138 69 -113 176l73 316h72z" />
    <glyph glyph-name="Gcaron" unicode="&#x1e6;" horiz-adv-x="684" 
d="M529 754l-92 126l55 42l75 -100l127 101l25 -30l-150 -139h-40zM380 -9c-195 0 -292 139 -243 351c50 218 218 361 422 361c71 0 135 -16 185 -46l-37 -64c-51 23 -116 37 -175 37c-157 0 -272 -100 -312 -273c-41 -178 33 -293 188 -293c51 0 105 13 156 38l44 194h-183
l17 72h260l-68 -294c-78 -55 -165 -83 -254 -83z" />
    <glyph glyph-name="gcaron" unicode="&#x1e7;" horiz-adv-x="499" 
d="M351 550l-79 139l52 46l65 -110l121 111l22 -33l-144 -153h-37zM228 -10c-111 0 -164 94 -131 236c34 146 134 242 250 242c48 0 86 -18 109 -51l23 41h49l-104 -452c-32 -140 -133 -233 -253 -233c-43 0 -85 13 -122 38l30 61c34 -19 76 -30 113 -30
c82 0 135 53 160 160l9 41c-39 -34 -85 -53 -133 -53zM170 234c-24 -104 13 -174 95 -174c42 0 81 18 112 51l53 231c-17 35 -48 56 -94 56c-80 0 -143 -65 -166 -164z" />
    <glyph glyph-name="uni01EA" unicode="&#x1ea;" horiz-adv-x="724" 
d="M353 -7c-178 0 -263 140 -214 351c50 215 204 359 387 359c180 0 270 -139 222 -347c-42 -181 -158 -312 -303 -351c-66 -34 -114 -87 -125 -135c-8 -36 6 -60 38 -60c14 0 33 5 50 12l-7 -53c-20 -12 -47 -21 -75 -21c-66 0 -102 42 -87 106c12 52 56 103 116 139h-2z
M379 65c133 0 248 112 287 279c40 172 -27 286 -166 286c-130 0 -242 -110 -280 -274c-40 -175 23 -291 159 -291z" />
    <glyph glyph-name="uni01EB" unicode="&#x1eb;" horiz-adv-x="497" 
d="M208 -253c-61 0 -90 42 -75 108c12 52 48 99 103 135c-118 2 -173 93 -140 234c34 147 139 244 263 244c120 0 176 -92 143 -236c-27 -119 -101 -206 -192 -237c-53 -35 -90 -80 -100 -124c-9 -38 5 -63 34 -63c13 0 31 5 45 12l-6 -51c-21 -14 -48 -22 -75 -22zM264 60
c77 0 142 65 165 164c24 103 -16 174 -96 174c-77 0 -141 -64 -164 -164c-24 -104 15 -174 95 -174z" />
    <glyph glyph-name="Aringacute" unicode="&#x1fa;" horiz-adv-x="628" 
d="M484 742c-57 0 -85 41 -71 102c15 64 63 106 123 106c28 0 49 -10 61 -28l136 79l19 -72l-142 -59c-1 -7 -1 -14 -3 -22c-15 -64 -63 -106 -123 -106zM501 800c24 0 45 18 51 44c7 29 -6 48 -33 48c-24 0 -45 -18 -51 -44c-7 -29 6 -48 33 -48zM29 0l402 694h101l66 -694
h-86l-17 206h-269l-116 -206h-81zM266 278h223l-29 345z" />
    <glyph glyph-name="aringacute" unicode="&#x1fb;" horiz-adv-x="453" 
d="M338 537c-53 0 -80 43 -65 106c15 67 62 110 118 110c13 0 24 -2 34 -7l99 129l44 -56l-113 -107c7 -17 7 -39 1 -64c-16 -67 -62 -111 -118 -111zM355 595c22 0 41 20 48 48c7 32 -4 52 -29 52c-22 0 -41 -20 -48 -48c-7 -32 4 -52 29 -52zM181 -10
c-87 0 -131 53 -112 135c23 98 115 141 305 143l7 29c15 65 -16 99 -91 99c-41 0 -88 -10 -136 -30l-4 56c52 29 116 46 171 46c111 0 156 -61 131 -170l-68 -298h-50l-7 45c-42 -35 -92 -55 -146 -55zM143 134c-10 -44 19 -74 75 -74c44 0 86 16 119 44l25 109
c-142 -1 -206 -24 -219 -79z" />
    <glyph glyph-name="AEacute" unicode="&#x1fc;" horiz-adv-x="906" 
d="M649 744l-20 42l166 131l32 -64zM31 0l554 694h427l-16 -72h-329l-52 -227h303l-16 -72h-304l-58 -251h329l-17 -72h-405l46 202h-211l3 13l-169 -215h-85zM338 282h174l72 313z" />
    <glyph glyph-name="aeacute" unicode="&#x1fd;" horiz-adv-x="726" 
d="M493 542l-25 32l130 171l41 -56zM178 -10c-84 0 -128 49 -111 124c23 99 131 151 306 152c1 4 2 6 4 9l5 22c15 65 -18 99 -90 99c-43 0 -86 -12 -142 -39l-4 55c64 38 121 56 176 56c71 0 112 -29 121 -84c46 52 106 84 170 84c103 0 154 -80 127 -196
c-4 -18 -14 -52 -19 -66h-297c-10 -95 39 -151 125 -151c35 0 72 9 116 27l3 -56c-54 -25 -98 -36 -145 -36c-84 0 -138 35 -159 97c-47 -61 -115 -97 -186 -97zM592 400c-69 0 -128 -47 -155 -134h235c20 85 -10 134 -80 134zM141 128c-10 -41 20 -68 75 -68
c53 0 103 25 138 65c-3 24 -2 51 3 81c-137 -1 -203 -22 -216 -78z" />
    <glyph glyph-name="Oslashacute" unicode="&#x1fe;" horiz-adv-x="724" 
d="M519 744l-20 42l166 131l32 -64zM148 -41l-39 35l65 77c-48 62 -62 157 -35 273c50 215 204 359 387 359c58 0 107 -14 144 -41l67 80l42 -35l-69 -82c49 -61 64 -155 38 -269c-50 -218 -209 -363 -395 -363c-57 0 -104 15 -141 41zM220 356c-20 -88 -14 -162 14 -213
l379 451c-29 23 -67 36 -113 36c-130 0 -242 -110 -280 -274zM379 65c133 0 248 112 287 279c20 87 13 159 -17 209l-380 -451c28 -24 64 -37 110 -37z" />
    <glyph glyph-name="oslashacute" unicode="&#x1ff;" horiz-adv-x="498" 
d="M378 542l-24 32l128 171l41 -56zM84 -58l-32 27l65 79c-29 41 -35 102 -18 176c34 147 137 244 260 244c35 0 66 -9 89 -25l61 80l35 -32l-65 -79c31 -41 41 -103 23 -180c-34 -147 -139 -245 -262 -245c-38 0 -70 10 -94 29zM172 232c-11 -47 -10 -86 2 -116l221 263
c-16 12 -36 19 -60 19c-76 0 -140 -65 -163 -166zM265 57c76 0 141 66 164 166c11 49 8 91 -7 121l-223 -264c16 -14 39 -23 66 -23z" />
    <glyph glyph-name="uni0200" unicode="&#x200;" horiz-adv-x="628" 
d="M617 764l-93 121l68 54l69 -139zM440 764l-93 121l68 54l69 -139zM29 0l402 694h101l66 -694h-86l-17 206h-269l-116 -206h-81zM266 278h223l-29 345z" />
    <glyph glyph-name="uni0201" unicode="&#x201;" horiz-adv-x="449" 
d="M256 535l-54 169l73 43l22 -188zM401 535l-50 169l70 43l22 -188zM179 -10c-86 0 -129 53 -110 135c23 98 114 141 301 143l7 29c15 65 -15 99 -89 99c-40 0 -86 -10 -134 -30l-4 56c52 29 114 46 169 46c109 0 154 -61 129 -170l-68 -298h-50l-7 45
c-42 -35 -91 -55 -144 -55zM143 134c-10 -44 18 -74 73 -74c43 0 85 16 117 44l25 109c-139 -1 -202 -24 -215 -79z" />
    <glyph glyph-name="uni0202" unicode="&#x202;" horiz-adv-x="628" 
d="M395 757l-30 26c32 86 100 144 171 144c68 0 111 -53 105 -132l-68 -37c8 62 -18 104 -64 104c-45 0 -92 -39 -114 -105zM29 0l402 694h101l66 -694h-86l-17 206h-269l-116 -206h-81zM266 278h223l-29 345z" />
    <glyph glyph-name="uni0203" unicode="&#x203;" horiz-adv-x="451" 
d="M251 551l-28 29c33 92 98 155 164 155c63 0 102 -57 94 -141l-67 -42c10 70 -12 118 -54 118c-41 0 -86 -44 -109 -119zM180 -10c-86 0 -130 53 -111 135c23 98 115 141 303 143l7 29c15 65 -16 99 -90 99c-41 0 -87 -10 -135 -30l-4 56c52 29 115 46 170 46
c110 0 155 -61 130 -170l-69 -298h-50l-6 45c-42 -35 -92 -55 -145 -55zM143 134c-10 -44 19 -74 74 -74c43 0 85 16 117 44l25 109c-140 -1 -203 -24 -216 -79z" />
    <glyph glyph-name="uni0204" unicode="&#x204;" horiz-adv-x="554" 
d="M610 764l-93 121l68 54l69 -139zM433 764l-93 121l68 54l69 -139zM95 0l160 694h405l-16 -72h-329l-52 -227h303l-16 -72h-304l-58 -251h329l-17 -72h-405z" />
    <glyph glyph-name="uni0205" unicode="&#x205;" horiz-adv-x="461" 
d="M276 535l-52 169l72 43l22 -188zM422 535l-51 169l71 43l21 -188zM257 -10c-133 0 -194 90 -160 237c33 141 134 241 250 241c103 0 155 -80 128 -196c-4 -18 -14 -52 -19 -66h-290c-12 -95 31 -151 119 -151c36 0 78 10 114 27l3 -56c-43 -23 -97 -36 -145 -36zM327 400
c-69 0 -122 -47 -148 -134h228c20 85 -10 134 -80 134z" />
    <glyph glyph-name="uni0206" unicode="&#x206;" horiz-adv-x="554" 
d="M388 757l-30 26c32 86 100 144 171 144c68 0 111 -53 105 -132l-68 -37c8 62 -18 104 -64 104c-45 0 -92 -39 -114 -105zM95 0l160 694h405l-16 -72h-329l-52 -227h303l-16 -72h-304l-58 -251h329l-17 -72h-405z" />
    <glyph glyph-name="uni0207" unicode="&#x207;" horiz-adv-x="464" 
d="M272 551l-28 29c33 92 98 155 164 155c63 0 102 -57 94 -141l-66 -42c10 70 -13 118 -55 118c-41 0 -86 -44 -109 -119zM259 -10c-134 0 -196 90 -162 237c33 141 135 241 252 241c104 0 156 -80 129 -196c-4 -18 -14 -52 -19 -66h-292c-12 -95 30 -151 119 -151
c36 0 80 10 116 27l3 -56c-43 -23 -98 -36 -146 -36zM328 400c-70 0 -123 -47 -149 -134h231c20 85 -11 134 -82 134z" />
    <glyph glyph-name="uni0208" unicode="&#x208;" horiz-adv-x="271" 
d="M438 764l-92 121l68 54l69 -139zM262 764l-93 121l68 54l69 -139zM97 0l161 694h77l-160 -694h-78z" />
    <glyph glyph-name="uni0209" unicode="&#x209;" horiz-adv-x="216" 
d="M155 553l-54 155l70 39l25 -172zM303 553l-56 155l72 39l25 -172zM74 0l111 482h71l-111 -482h-71z" />
    <glyph glyph-name="uni020A" unicode="&#x20a;" horiz-adv-x="270" 
d="M216 757l-30 26c32 86 100 144 171 144c68 0 111 -53 105 -132l-68 -37c8 62 -18 104 -64 104c-45 0 -92 -39 -114 -105zM97 0l160 694h77l-160 -694h-77z" />
    <glyph glyph-name="uni020B" unicode="&#x20b;" horiz-adv-x="221" 
d="M150 565l-29 26c31 86 96 144 163 144c64 0 105 -53 98 -132l-66 -37c8 62 -16 104 -59 104c-42 0 -86 -39 -107 -105zM75 0l111 482h71l-111 -482h-71z" />
    <glyph glyph-name="uni020C" unicode="&#x20c;" horiz-adv-x="724" 
d="M664 764l-93 121l69 54l69 -139zM488 764l-93 121l68 54l69 -139zM353 -7c-178 0 -263 140 -214 351c50 215 204 359 387 359c180 0 270 -139 222 -347c-50 -218 -209 -363 -395 -363zM379 65c133 0 248 112 287 279c40 172 -27 286 -166 286c-130 0 -242 -110 -280 -274
c-40 -175 23 -291 159 -291z" />
    <glyph glyph-name="uni020D" unicode="&#x20d;" horiz-adv-x="493" 
d="M287 535l-52 169l72 43l22 -188zM433 535l-51 169l71 43l21 -188zM237 -10c-119 0 -174 92 -141 234c34 147 139 244 262 244c119 0 175 -91 142 -233c-34 -147 -140 -245 -263 -245zM263 60c76 0 140 65 163 164c24 103 -14 174 -94 174c-76 0 -140 -64 -163 -164
c-24 -104 14 -174 94 -174z" />
    <glyph glyph-name="uni020E" unicode="&#x20e;" horiz-adv-x="724" 
d="M443 757l-30 26c32 86 100 144 171 144c68 0 111 -53 105 -132l-68 -37c8 62 -18 104 -64 104c-45 0 -92 -39 -114 -105zM353 -7c-178 0 -263 140 -214 351c50 215 204 359 387 359c180 0 270 -139 222 -347c-50 -218 -209 -363 -395 -363zM379 65c133 0 248 112 287 279
c40 172 -27 286 -166 286c-130 0 -242 -110 -280 -274c-40 -175 23 -291 159 -291z" />
    <glyph glyph-name="uni020F" unicode="&#x20f;" horiz-adv-x="496" 
d="M283 551l-28 29c33 92 98 155 164 155c63 0 102 -57 94 -141l-66 -42c10 70 -12 118 -54 118c-41 0 -87 -44 -110 -119zM239 -10c-120 0 -176 92 -143 234c34 147 139 244 263 244c120 0 177 -91 144 -233c-34 -147 -140 -245 -264 -245zM264 60c77 0 143 65 166 164
c24 103 -15 174 -96 174c-77 0 -142 -64 -165 -164c-24 -104 14 -174 95 -174z" />
    <glyph glyph-name="uni0210" unicode="&#x210;" horiz-adv-x="596" 
d="M598 764l-93 121l69 54l69 -139zM422 764l-93 121l68 54l69 -139zM95 0l160 694h214c132 0 199 -72 171 -194c-21 -93 -87 -167 -173 -200l95 -300h-93l-84 282c-8 -1 -14 -1 -21 -1h-127l-65 -281h-77zM443 622h-128l-62 -271h137c88 0 147 49 167 134
c20 86 -22 137 -114 137z" />
    <glyph glyph-name="uni0211" unicode="&#x211;" horiz-adv-x="326" 
d="M238 535l-52 169l71 43l24 -188zM385 535l-51 169l71 43l21 -188zM71 0l106 458h59l-8 -70c42 47 94 75 144 75c19 0 36 -4 52 -11l-34 -74c-12 6 -28 9 -44 9c-46 0 -93 -23 -129 -63l-75 -324h-71z" />
    <glyph glyph-name="uni0212" unicode="&#x212;" horiz-adv-x="596" 
d="M377 757l-30 26c32 86 100 144 171 144c68 0 111 -53 105 -132l-68 -37c8 62 -18 104 -64 104c-45 0 -92 -39 -114 -105zM95 0l160 694h214c132 0 199 -72 171 -194c-21 -93 -87 -167 -173 -200l95 -300h-93l-84 282c-8 -1 -14 -1 -21 -1h-127l-65 -281h-77zM443 622
h-128l-62 -271h137c88 0 147 49 167 134c20 86 -22 137 -114 137z" />
    <glyph glyph-name="uni0213" unicode="&#x213;" horiz-adv-x="331" 
d="M233 551l-28 30c33 92 99 154 165 154c64 0 103 -57 95 -141l-67 -42c10 70 -13 118 -55 118c-41 0 -87 -44 -110 -119zM72 0l106 458h58l-8 -70c42 47 96 75 146 75c19 0 35 -4 52 -11l-34 -74c-13 6 -28 9 -44 9c-47 0 -94 -23 -130 -63l-75 -324h-71z" />
    <glyph glyph-name="uni0214" unicode="&#x214;" horiz-adv-x="657" 
d="M630 764l-93 121l69 54l69 -139zM454 764l-93 121l68 54l69 -139zM321 -10c-146 0 -216 100 -181 253l104 451h77l-102 -441c-28 -120 19 -190 129 -190c104 0 180 64 205 173l106 458h75l-103 -448c-36 -154 -160 -256 -310 -256z" />
    <glyph glyph-name="uni0215" unicode="&#x215;" horiz-adv-x="490" 
d="M283 553l-56 155l72 39l25 -172zM429 553l-54 155l69 39l26 -172zM246 482l-69 -300c-18 -78 9 -122 73 -122c37 0 79 16 115 44l87 378h71l-111 -482h-50l-6 42c-47 -33 -98 -52 -144 -52c-89 0 -135 69 -110 176l73 316h71z" />
    <glyph glyph-name="uni0216" unicode="&#x216;" horiz-adv-x="657" 
d="M409 757l-30 26c32 86 100 144 171 144c68 0 111 -53 105 -132l-68 -37c8 62 -18 104 -64 104c-45 0 -92 -39 -114 -105zM321 -10c-146 0 -216 100 -181 253l104 451h77l-102 -441c-28 -120 19 -190 129 -190c104 0 180 64 205 173l106 458h75l-103 -448
c-36 -154 -160 -256 -310 -256z" />
    <glyph glyph-name="uni0217" unicode="&#x217;" horiz-adv-x="491" 
d="M277 565l-28 26c31 86 95 144 161 144c63 0 103 -53 96 -132l-65 -37c8 62 -15 104 -57 104c-41 0 -86 -39 -107 -105zM247 482l-70 -300c-18 -78 9 -122 74 -122c37 0 78 16 115 44l88 378h71l-112 -482h-49l-7 42c-47 -33 -98 -52 -144 -52c-90 0 -136 69 -111 176
l73 316h72z" />
    <glyph glyph-name="uni0218" unicode="&#x218;" horiz-adv-x="542" 
d="M257 -10c-69 0 -136 19 -200 54l38 65c57 -28 125 -45 184 -45c98 0 164 45 180 115c41 177 -341 88 -286 326c28 121 140 198 284 198c61 0 120 -14 169 -40l-38 -65c-42 21 -98 33 -153 33c-99 0 -163 -40 -180 -113c-41 -179 344 -81 287 -327
c-28 -122 -141 -201 -285 -201zM154 -227c24 33 49 95 64 162h70c-15 -64 -42 -116 -83 -162h-51z" />
    <glyph glyph-name="uni0219" unicode="&#x219;" horiz-adv-x="409" 
d="M198 -10c-53 0 -110 14 -152 39l32 63c40 -21 95 -34 140 -34c58 0 97 23 107 65c26 111 -241 44 -203 207c20 86 102 138 212 138c45 0 85 -9 117 -26l-31 -64c-33 13 -73 22 -109 22c-63 0 -108 -25 -117 -65c-24 -103 243 -41 204 -208c-19 -84 -96 -137 -200 -137z
M95 -227c23 33 48 95 63 162h66c-15 -64 -41 -116 -81 -162h-48z" />
    <glyph glyph-name="uni021A" unicode="&#x21a;" horiz-adv-x="551" 
d="M237 0l143 622h-215l17 72h508l-17 -72h-216l-143 -622h-77zM161 -227c24 33 49 95 64 162h70c-15 -64 -42 -116 -83 -162h-51z" />
    <glyph glyph-name="uni021B" unicode="&#x21b;" horiz-adv-x="317" 
d="M208 -5c-77 0 -115 51 -98 126l62 270h-56l16 67h55l38 165h72l-39 -165h116l-16 -67h-115l-59 -256c-10 -45 11 -75 55 -75c15 0 34 3 49 10l3 -57c-23 -10 -54 -18 -83 -18zM68 -222c24 33 48 95 63 162h67c-15 -64 -41 -116 -81 -162h-49z" />
    <glyph glyph-name="uni022A" unicode="&#x22a;" horiz-adv-x="724" 
d="M436 950l15 66h291l-15 -66h-291zM446 777c-33 0 -48 21 -40 57s33 57 66 57s48 -21 40 -57s-33 -57 -66 -57zM632 777c-33 0 -48 21 -40 57s33 57 66 57s48 -21 40 -57s-33 -57 -66 -57zM353 -7c-178 0 -263 140 -214 351c50 215 204 359 387 359
c180 0 270 -139 222 -347c-50 -218 -209 -363 -395 -363zM379 65c133 0 248 112 287 279c40 172 -27 286 -166 286c-130 0 -242 -110 -280 -274c-40 -175 23 -291 159 -291z" />
    <glyph glyph-name="uni022B" unicode="&#x22b;" horiz-adv-x="500" 
d="M279 728l15 66h275l-15 -66h-275zM290 536c-29 0 -43 19 -35 52s30 52 59 52s42 -19 34 -52s-29 -52 -58 -52zM456 536c-29 0 -42 19 -34 52s29 52 58 52s42 -19 34 -52s-29 -52 -58 -52zM240 -10c-121 0 -177 92 -144 234c34 147 140 244 265 244
c121 0 179 -91 146 -233c-34 -147 -142 -245 -267 -245zM266 60c78 0 145 65 168 164c24 103 -16 174 -98 174c-78 0 -144 -64 -167 -164c-24 -104 15 -174 97 -174z" />
    <glyph glyph-name="uni022C" unicode="&#x22c;" horiz-adv-x="724" 
d="M441 970l15 66h292l-16 -66h-291zM425 762l-46 14c35 72 84 105 129 105c57 0 63 -53 104 -53c25 0 51 20 69 55l46 -14c-29 -69 -79 -105 -132 -105c-62 0 -67 51 -105 51c-24 0 -48 -21 -65 -53zM353 -7c-178 0 -263 140 -214 351c50 215 204 359 387 359
c180 0 270 -139 222 -347c-50 -218 -209 -363 -395 -363zM379 65c133 0 248 112 287 279c40 172 -27 286 -166 286c-130 0 -242 -110 -280 -274c-40 -175 23 -291 159 -291z" />
    <glyph glyph-name="uni022D" unicode="&#x22d;" horiz-adv-x="495" 
d="M288 765l15 66h270l-15 -66h-270zM275 560l-44 15c34 72 81 105 122 105c53 0 57 -53 95 -53c23 0 47 20 65 55l43 -14c-28 -69 -75 -105 -124 -105c-58 0 -61 51 -96 51c-22 0 -45 -22 -61 -54zM238 -10c-119 0 -175 92 -142 234c34 147 139 244 263 244
c119 0 176 -91 143 -233c-34 -147 -140 -245 -264 -245zM264 60c77 0 141 65 164 164c24 103 -15 174 -95 174c-77 0 -141 -64 -164 -164c-24 -104 15 -174 95 -174z" />
    <glyph glyph-name="uni0230" unicode="&#x230;" horiz-adv-x="724" 
d="M436 950l15 66h291l-15 -66h-291zM539 778c-33 0 -48 21 -40 57s33 57 66 57s48 -21 40 -57s-33 -57 -66 -57zM353 -7c-178 0 -263 140 -214 351c50 215 204 359 387 359c180 0 270 -139 222 -347c-50 -218 -209 -363 -395 -363zM379 65c133 0 248 112 287 279
c40 172 -27 286 -166 286c-130 0 -242 -110 -280 -274c-40 -175 23 -291 159 -291z" />
    <glyph glyph-name="uni0231" unicode="&#x231;" horiz-adv-x="496" 
d="M279 728l15 66h272l-15 -66h-272zM371 536c-29 0 -42 19 -34 52s29 52 58 52s42 -19 34 -52s-29 -52 -58 -52zM239 -10c-120 0 -176 92 -143 234c34 147 140 244 264 244c120 0 176 -91 143 -233c-34 -147 -140 -245 -264 -245zM264 60c77 0 143 65 166 164
c24 103 -15 174 -96 174c-77 0 -142 -64 -165 -164c-24 -104 14 -174 95 -174z" />
    <glyph glyph-name="uni0232" unicode="&#x232;" horiz-adv-x="562" 
d="M323 788l15 66h291l-15 -66h-291zM245 0l69 299l-136 395h90l104 -323l249 323h85l-315 -395l-69 -299h-77z" />
    <glyph glyph-name="uni0233" unicode="&#x233;" horiz-adv-x="413" 
d="M203 606l16 66h267l-15 -66h-268zM49 -217l125 217l-51 482h76l28 -404l217 404h68l-272 -482l-118 -217h-73z" />
    <glyph glyph-name="uni0237" unicode="&#x237;" horiz-adv-x="224" 
d="M-32 -227l-11 46c53 30 97 85 109 139l115 500h71l-112 -488c-20 -85 -84 -158 -172 -197z" />
    <glyph glyph-name="uni0259" unicode="&#x259;" horiz-adv-x="460" 
d="M306 468c133 0 194 -90 160 -237c-33 -141 -135 -241 -251 -241c-103 0 -154 80 -127 196c4 18 14 52 19 66h290c12 95 -31 151 -119 151c-36 0 -78 -10 -114 -27l-3 56c43 23 97 36 145 36zM236 58c69 0 122 47 148 134h-228c-20 -85 10 -134 80 -134z" />
    <glyph glyph-name="uni02B9" unicode="&#x2b9;" horiz-adv-x="302" 
d="M203 422l102 272h80l-121 -272h-61z" />
    <glyph glyph-name="uni02BA" unicode="&#x2ba;" horiz-adv-x="470" 
d="M203 422l102 272h80l-121 -272h-61zM370 422l102 272h80l-120 -272h-62z" />
    <glyph glyph-name="uni02BB" unicode="&#x2bb;" horiz-adv-x="301" 
d="M358 732c-26 -35 -53 -100 -67 -162h-69c15 67 41 118 81 162h55z" />
    <glyph glyph-name="uni02BC" unicode="&#x2bc;" horiz-adv-x="270" 
d="M170 474c44 72 96 198 114 275h79c-18 -79 -79 -205 -128 -275h-65z" />
    <glyph glyph-name="uni02BE" unicode="&#x2be;" horiz-adv-x="237" 
d="M198 556l13 60c35 1 57 16 63 43s-9 41 -43 41l14 60c73 0 102 -34 87 -100c-15 -67 -61 -103 -134 -104z" />
    <glyph glyph-name="uni02BF" unicode="&#x2bf;" horiz-adv-x="238" 
d="M298 556c-72 1 -101 37 -86 104c15 66 60 100 133 100l-14 -60c-34 0 -56 -14 -62 -41s9 -42 43 -43z" />
    <glyph glyph-name="circumflex" unicode="&#x2c6;" horiz-adv-x="349" 
d="M169 587l152 141h40l89 -127l-51 -42l-79 98l-125 -98z" />
    <glyph glyph-name="caron" unicode="&#x2c7;" horiz-adv-x="348" 
d="M285 567l-91 126l55 42l74 -100l128 101l25 -30l-151 -139h-40z" />
    <glyph glyph-name="uni02C8" unicode="&#x2c8;" horiz-adv-x="228" 
d="M320 750l-48 -184h-54l37 184h65z" />
    <glyph glyph-name="uni02C9" unicode="&#x2c9;" horiz-adv-x="451" 
d="M220 606l15 66h291l-15 -66h-291z" />
    <glyph glyph-name="uni02CA" unicode="&#x2ca;" horiz-adv-x="235" 
d="M211 560l-28 29l133 156l47 -51z" />
    <glyph glyph-name="uni02CB" unicode="&#x2cb;" horiz-adv-x="239" 
d="M283 560l-90 134l70 51l61 -156z" />
    <glyph glyph-name="uni02CC" unicode="&#x2cc;" horiz-adv-x="228" 
d="M29 -225l48 184h54l-37 -184h-65z" />
    <glyph glyph-name="breve" unicode="&#x2d8;" horiz-adv-x="379" 
d="M317 561c-71 0 -114 53 -109 132l68 37c-7 -62 20 -104 67 -104c49 0 97 42 118 105l30 -26c-32 -86 -102 -144 -174 -144z" />
    <glyph glyph-name="dotaccent" unicode="&#x2d9;" horiz-adv-x="244" 
d="M257 595c-33 0 -48 21 -40 57s33 57 66 57s48 -21 40 -57s-33 -57 -66 -57z" />
    <glyph glyph-name="ring" unicode="&#x2da;" horiz-adv-x="314" 
d="M283 555c-57 0 -85 41 -71 102c15 64 63 106 123 106c57 0 85 -41 71 -102c-15 -64 -63 -106 -123 -106zM300 613c24 0 45 18 51 44c7 29 -6 48 -33 48c-24 0 -45 -18 -51 -44c-7 -29 6 -48 33 -48z" />
    <glyph glyph-name="ogonek" unicode="&#x2db;" horiz-adv-x="550" 
d="M283 -252c-68 0 -101 40 -87 102c16 71 87 135 189 172l32 -22c-74 -36 -130 -90 -141 -136c-7 -32 9 -54 41 -54c15 0 35 5 50 11l-7 -52c-26 -14 -50 -21 -77 -21z" />
    <glyph glyph-name="tilde" unicode="&#x2dc;" horiz-adv-x="434" 
d="M234 572l-46 14c35 72 84 105 129 105c57 0 63 -53 104 -53c25 0 51 20 69 55l46 -14c-29 -69 -79 -105 -132 -105c-62 0 -67 51 -105 51c-24 0 -48 -21 -65 -53z" />
    <glyph glyph-name="hungarumlaut" unicode="&#x2dd;" horiz-adv-x="405" 
d="M379 553l-34 22l110 172l57 -39zM220 553l-34 22l111 172l57 -39z" />
    <glyph glyph-name="gravecomb" unicode="&#x300;" horiz-adv-x="3" 
d="M283 560l-90 134l70 51l61 -156z" />
    <glyph glyph-name="acutecomb" unicode="&#x301;" horiz-adv-x="3" 
d="M211 560l-28 29l133 156l47 -51z" />
    <glyph glyph-name="uni0302" unicode="&#x302;" horiz-adv-x="5" 
d="M176 587l152 141h40l89 -127l-51 -42l-79 98l-124 -98z" />
    <glyph glyph-name="tildecomb" unicode="&#x303;" horiz-adv-x="7" 
d="M237 572l-46 14c35 72 84 105 129 105c57 0 63 -53 104 -53c25 0 51 20 69 55l46 -14c-29 -69 -79 -105 -132 -105c-62 0 -67 51 -105 51c-24 0 -48 -21 -65 -53z" />
    <glyph glyph-name="uni0304" unicode="&#x304;" 
d="M220 606l15 66h291l-15 -66h-291z" />
    <glyph glyph-name="uni0306" unicode="&#x306;" 
d="M319 561c-71 0 -114 53 -109 132l68 37c-7 -62 20 -104 67 -104c49 0 96 42 117 105l31 -26c-32 -86 -102 -144 -174 -144z" />
    <glyph glyph-name="uni0307" unicode="&#x307;" horiz-adv-x="2" 
d="M260 595c-33 0 -48 21 -40 57s33 57 66 57s48 -21 40 -57s-33 -57 -66 -57z" />
    <glyph glyph-name="uni0308" unicode="&#x308;" 
d="M260 595c-33 0 -48 21 -40 57s33 57 66 57s48 -21 40 -57s-33 -57 -66 -57zM446 595c-33 0 -48 21 -40 57s33 57 66 57s48 -21 40 -57s-33 -57 -66 -57z" />
    <glyph glyph-name="hookabovecomb" unicode="&#x309;" horiz-adv-x="4" 
d="M252 549l-4 42c38 20 68 51 74 78c6 24 -9 40 -34 40c-19 0 -47 -9 -76 -23l-5 54c39 22 80 32 111 32c56 0 83 -33 71 -84c-12 -52 -61 -104 -137 -139z" />
    <glyph glyph-name="uni030A" unicode="&#x30a;" horiz-adv-x="4" 
d="M286 555c-57 0 -86 41 -72 102c15 64 64 106 124 106c57 0 85 -41 71 -102c-15 -64 -63 -106 -123 -106zM303 613c24 0 45 18 51 44c7 29 -7 48 -34 48c-24 0 -45 -18 -51 -44c-7 -29 7 -48 34 -48z" />
    <glyph glyph-name="uni030B" unicode="&#x30b;" 
d="M385 553l-34 22l110 172l57 -39zM227 553l-34 22l110 172l57 -39z" />
    <glyph glyph-name="uni030C" unicode="&#x30c;" 
d="M283 567l-92 126l55 42l75 -100l127 101l25 -30l-150 -139h-40z" />
    <glyph glyph-name="uni030D" unicode="&#x30d;" horiz-adv-x="1" 
d="M320 750l-48 -184h-54l37 184h65z" />
    <glyph glyph-name="uni030F" unicode="&#x30f;" 
d="M274 553l-61 155l75 39l31 -172zM433 553l-62 155l75 39l31 -172z" />
    <glyph glyph-name="uni0311" unicode="&#x311;" horiz-adv-x="5" 
d="M226 565l-30 26c32 86 99 144 170 144c68 0 112 -53 106 -132l-68 -37c8 62 -19 104 -65 104c-45 0 -91 -39 -113 -105z" />
    <glyph glyph-name="uni0312" unicode="&#x312;" horiz-adv-x="2" 
d="M358 732c-26 -35 -53 -100 -67 -162h-69c15 67 41 118 81 162h55z" />
    <glyph glyph-name="uni031B" unicode="&#x31b;" horiz-adv-x="3" 
d="M142 334l11 51c49 0 91 39 105 98c7 32 6 68 -5 98h71c13 -26 15 -58 6 -96c-22 -95 -92 -151 -188 -151z" />
    <glyph glyph-name="dotbelowcomb" unicode="&#x323;" horiz-adv-x="2" 
d="M80 -195c-33 0 -48 21 -40 57s33 57 66 57s48 -21 40 -57s-33 -57 -66 -57z" />
    <glyph glyph-name="uni0324" unicode="&#x324;" 
d="M80 -195c-33 0 -48 21 -40 57s33 57 66 57s48 -21 40 -57s-33 -57 -66 -57zM266 -195c-33 0 -48 21 -40 57s33 57 66 57s48 -21 40 -57s-33 -57 -66 -57z" />
    <glyph glyph-name="uni0326" unicode="&#x326;" horiz-adv-x="2" 
d="M38 -227c24 33 49 95 64 162h70c-15 -64 -42 -116 -83 -162h-51z" />
    <glyph glyph-name="uni0327" unicode="&#x327;" horiz-adv-x="4" 
d="M78 -256c-35 0 -65 8 -87 24l27 49c20 -11 49 -17 72 -17c34 0 56 14 62 39c8 34 -24 56 -87 59l43 107h54l-25 -64c68 -11 96 -43 83 -98c-15 -63 -66 -99 -142 -99z" />
    <glyph glyph-name="uni0328" unicode="&#x328;" horiz-adv-x="4" 
d="M283 -252c-68 0 -101 40 -87 102c16 71 87 135 189 172l32 -22c-74 -36 -130 -90 -141 -136c-7 -32 9 -54 41 -54c15 0 35 5 50 11l-7 -52c-26 -14 -50 -21 -77 -21z" />
    <glyph glyph-name="uni0329" unicode="&#x329;" horiz-adv-x="1" 
d="M29 -225l48 184h54l-37 -184h-65z" />
    <glyph glyph-name="uni032E" unicode="&#x32e;" 
d="M141 -212c-61 0 -107 43 -115 107l68 38c5 -49 34 -82 72 -82c45 0 83 28 112 82l31 -26c-41 -78 -99 -119 -168 -119z" />
    <glyph glyph-name="uni0331" unicode="&#x331;" 
d="M41 -171l15 65h291l-15 -65h-291z" />
    <glyph glyph-name="uni0335" unicode="&#x335;" horiz-adv-x="5" 
d="M143 269l13 58h258l-13 -58h-258z" />
    <glyph glyph-name="uni0336" unicode="&#x336;" horiz-adv-x="14" 
d="M152 312l14 60h663l-14 -60h-663z" />
    <glyph glyph-name="uni0337" unicode="&#x337;" horiz-adv-x="5" 
d="M107 192l-17 49l267 138l16 -50z" />
    <glyph glyph-name="uni0338" unicode="&#x338;" horiz-adv-x="8" 
d="M49 -57l-34 29l487 571l37 -29z" />
    <glyph glyph-name="pi" unicode="&#x3c0;" horiz-adv-x="527" 
d="M88 0l91 391h-69l16 67h463l-16 -67h-67l-63 -272c-10 -44 -1 -64 26 -64c11 0 22 3 31 7l-1 -55c-19 -9 -44 -17 -67 -17c-55 0 -80 42 -63 117l66 284h-185l-91 -391h-71z" />
    <glyph glyph-name="uni0400" unicode="&#x400;" horiz-adv-x="554" 
d="M466 744l-127 109l61 64l106 -131zM95 0l160 694h405l-16 -72h-329l-52 -227h303l-16 -72h-304l-58 -251h329l-17 -72h-405z" />
    <glyph glyph-name="uni0401" unicode="&#x401;" horiz-adv-x="554" 
d="M363 777c-33 0 -48 21 -40 57s34 57 67 57s47 -21 39 -57s-33 -57 -66 -57zM549 777c-33 0 -48 21 -40 57s34 57 67 57s47 -21 39 -57s-33 -57 -66 -57zM95 0l160 694h405l-16 -72h-329l-52 -227h303l-16 -72h-304l-58 -251h329l-17 -72h-405z" />
    <glyph glyph-name="uni0402" unicode="&#x402;" horiz-adv-x="742" 
d="M241 0l144 622h-206l17 72h507l-16 -72h-225l-56 -241c57 38 127 61 191 61c120 0 181 -79 153 -199c-32 -140 -154 -237 -304 -243l8 62c109 7 197 74 219 168c20 85 -27 142 -115 142c-56 0 -118 -22 -167 -58l-73 -314h-77z" />
    <glyph glyph-name="uni0403" unicode="&#x403;" horiz-adv-x="508" 
d="M421 744l-20 42l166 131l31 -64zM95 0l160 694h391l-17 -74h-314l-143 -620h-77z" />
    <glyph glyph-name="uni0404" unicode="&#x404;" horiz-adv-x="626" 
d="M382 -10c-195 0 -294 140 -246 349c50 218 221 364 426 364c65 0 130 -16 173 -43l-36 -62c-47 20 -106 32 -159 32c-151 0 -267 -91 -313 -242h371l-16 -68h-370c-22 -156 58 -257 205 -257c49 0 113 12 166 32l4 -61c-70 -29 -141 -44 -205 -44z" />
    <glyph glyph-name="uni0405" unicode="&#x405;" horiz-adv-x="542" 
d="M257 -10c-69 0 -136 19 -200 54l38 65c57 -28 125 -45 184 -45c98 0 164 45 180 115c41 177 -341 88 -286 326c28 121 140 198 284 198c61 0 120 -14 169 -40l-38 -65c-42 21 -98 33 -153 33c-99 0 -163 -40 -180 -113c-41 -179 344 -81 287 -327
c-28 -122 -141 -201 -285 -201z" />
    <glyph glyph-name="uni0406" unicode="&#x406;" horiz-adv-x="266" 
d="M95 0l160 694h77l-160 -694h-77z" />
    <glyph glyph-name="uni0407" unicode="&#x407;" horiz-adv-x="271" 
d="M220 777c-33 0 -48 21 -40 57s33 57 66 57s48 -21 40 -57s-33 -57 -66 -57zM406 777c-33 0 -48 21 -40 57s33 57 66 57s48 -21 40 -57s-33 -57 -66 -57zM97 0l160 694h77l-160 -694h-77z" />
    <glyph glyph-name="uni0408" unicode="&#x408;" horiz-adv-x="409" 
d="M147 -10c-39 0 -76 10 -108 34l37 62c23 -14 58 -23 86 -23c62 0 107 46 126 128l116 503h77l-114 -494c-31 -135 -110 -210 -220 -210z" />
    <glyph glyph-name="uni0409" unicode="&#x409;" horiz-adv-x="993" 
d="M98 -10c-34 0 -69 11 -92 29l35 64c18 -14 42 -21 62 -21c55 0 93 58 123 190l102 442h401l-61 -267h171c119 0 185 -88 157 -210c-30 -132 -143 -217 -286 -217h-216l144 624h-253l-86 -372c-41 -177 -106 -262 -201 -262zM814 355h-163l-65 -283h149
c98 0 158 43 178 128c21 90 -21 155 -99 155z" />
    <glyph glyph-name="uni040A" unicode="&#x40a;" horiz-adv-x="1013" 
d="M95 0l160 694h77l-69 -299h345l69 299h77l-61 -267h165c119 0 185 -88 157 -210c-30 -132 -143 -217 -286 -217h-212l74 323h-345l-74 -323h-77zM833 355h-157l-65 -283h144c98 0 157 43 177 128c21 90 -21 155 -99 155z" />
    <glyph glyph-name="uni040B" unicode="&#x40b;" horiz-adv-x="747" 
d="M241 0l144 622h-206l17 72h507l-16 -72h-225l-56 -243c56 27 118 43 176 43c123 0 187 -69 162 -176l-57 -246h-74l53 230c18 78 -27 122 -120 122c-53 0 -107 -14 -155 -37l-73 -315h-77z" />
    <glyph glyph-name="uni040C" unicode="&#x40c;" horiz-adv-x="606" 
d="M457 744l-20 42l166 131l32 -64zM94 0l160 694h76l-69 -299h122l270 299h82l-295 -329l147 -365h-89l-131 323h-122l-75 -323h-76z" />
    <glyph glyph-name="uni040D" unicode="&#x40d;" horiz-adv-x="706" 
d="M540 744l-128 109l62 64l105 -131zM95 0l160 694h75l-133 -578l489 578h86l-160 -694h-76l134 578l-493 -578h-82z" />
    <glyph glyph-name="uni040E" unicode="&#x40e;" horiz-adv-x="582" 
d="M476 762c-82 0 -130 51 -125 134l61 30c-5 -65 29 -108 81 -108c53 0 100 41 126 110l47 -30c-29 -82 -104 -136 -190 -136zM147 0l178 243l-147 451h93l111 -378l263 378h78l-494 -694h-82z" />
    <glyph glyph-name="uni040F" unicode="&#x40f;" horiz-adv-x="690" 
d="M272 -187l43 187h-220l160 694h76l-144 -623h349l144 623h76l-160 -694h-211l-43 -187h-70z" />
    <glyph glyph-name="uni0410" unicode="&#x410;" horiz-adv-x="628" 
d="M29 0l402 694h101l66 -694h-86l-17 206h-269l-116 -206h-81zM266 278h223l-29 345z" />
    <glyph glyph-name="uni0411" unicode="&#x411;" horiz-adv-x="594" 
d="M95 0l160 694h382l-16 -71h-305l-48 -206h169c121 0 187 -85 159 -205c-30 -130 -141 -212 -286 -212h-215zM188 72h148c100 0 158 40 177 123c21 89 -22 150 -101 150h-161z" />
    <glyph glyph-name="uni0412" unicode="&#x412;" horiz-adv-x="606" 
d="M95 0l160 694h196c138 0 202 -61 178 -167c-14 -61 -55 -118 -106 -145c69 -27 100 -93 80 -180c-29 -127 -134 -202 -283 -202h-225zM442 396h6c58 28 86 60 97 109c18 79 -21 118 -120 118h-109l-53 -227h179zM188 71h157c103 0 157 34 175 114c20 86 -20 142 -102 142
h-171z" />
    <glyph glyph-name="uni0413" unicode="&#x413;" horiz-adv-x="508" 
d="M95 0l160 694h391l-17 -74h-314l-143 -620h-77z" />
    <glyph glyph-name="uni0414" unicode="&#x414;" horiz-adv-x="727" 
d="M-6 -178l58 249h66c65 20 117 112 154 271l81 352h395l-144 -623h104l-57 -249h-70l41 178h-517l-41 -178h-70zM347 342c-29 -127 -73 -218 -129 -271h311l128 553h-245z" />
    <glyph glyph-name="uni0415" unicode="&#x415;" horiz-adv-x="554" 
d="M95 0l160 694h405l-16 -72h-329l-52 -227h303l-16 -72h-304l-58 -251h329l-17 -72h-405z" />
    <glyph glyph-name="uni0416" unicode="&#x416;" horiz-adv-x="895" 
d="M24 0l298 360l-126 334h92l111 -299h102l69 299h77l-69 -299h102l252 299h88l-277 -329l129 -365h-92l-114 323h-105l-74 -323h-77l74 323h-106l-266 -323h-88z" />
    <glyph glyph-name="uni0417" unicode="&#x417;" horiz-adv-x="561" 
d="M252 -10c-74 0 -143 20 -198 54l33 68c55 -34 129 -49 188 -49c100 0 171 43 190 126c20 88 -38 134 -164 134h-87l16 70h114c95 0 162 44 179 118s-30 120 -127 120c-61 0 -125 -18 -187 -46l-2 62c66 35 144 57 221 57c137 0 204 -67 178 -178
c-20 -85 -76 -141 -155 -157c80 -24 115 -85 95 -172c-29 -127 -147 -207 -294 -207z" />
    <glyph glyph-name="uni0418" unicode="&#x418;" horiz-adv-x="706" 
d="M95 0l160 694h75l-133 -578l489 578h86l-160 -694h-76l134 578l-493 -578h-82z" />
    <glyph glyph-name="uni0419" unicode="&#x419;" horiz-adv-x="706" 
d="M537 762c-82 0 -130 51 -125 134l62 30c-5 -65 28 -108 80 -108c53 0 101 41 127 110l47 -30c-29 -82 -105 -136 -191 -136zM95 0l160 694h75l-133 -578l489 578h86l-160 -694h-76l134 578l-493 -578h-82z" />
    <glyph glyph-name="uni041A" unicode="&#x41a;" horiz-adv-x="606" 
d="M94 0l160 694h76l-69 -299h122l270 299h82l-295 -329l147 -365h-89l-131 323h-122l-75 -323h-76z" />
    <glyph glyph-name="uni041B" unicode="&#x41b;" horiz-adv-x="663" 
d="M98 -10c-34 0 -69 11 -92 29l35 64c18 -14 42 -21 62 -21c55 0 93 58 123 190l102 442h401l-160 -694h-75l144 624h-253l-86 -372c-41 -177 -106 -262 -201 -262z" />
    <glyph glyph-name="uni041C" unicode="&#x41c;" horiz-adv-x="817" 
d="M95 0l160 694h79l121 -497l351 497h77l-161 -694h-73l128 554l-314 -446h-61l-108 437l-126 -545h-73z" />
    <glyph glyph-name="uni041D" unicode="&#x41d;" horiz-adv-x="688" 
d="M95 0l160 694h77l-69 -299h345l69 299h77l-160 -694h-77l74 323h-345l-74 -323h-77z" />
    <glyph glyph-name="uni041E" unicode="&#x41e;" horiz-adv-x="724" 
d="M353 -7c-178 0 -263 140 -214 351c50 215 204 359 387 359c180 0 270 -139 222 -347c-50 -218 -209 -363 -395 -363zM379 65c133 0 248 112 287 279c40 172 -27 286 -166 286c-130 0 -242 -110 -280 -274c-40 -175 23 -291 159 -291z" />
    <glyph glyph-name="uni041F" unicode="&#x41f;" horiz-adv-x="668" 
d="M95 0l160 694h479l-160 -694h-76l144 624h-328l-144 -624h-75z" />
    <glyph glyph-name="uni0420" unicode="&#x420;" horiz-adv-x="571" 
d="M95 0l160 694h201c136 0 207 -88 176 -221c-32 -139 -151 -231 -295 -231h-109l-56 -242h-77zM430 622h-115l-71 -308h124c96 0 159 50 181 144c23 98 -25 164 -119 164z" />
    <glyph glyph-name="uni0421" unicode="&#x421;" horiz-adv-x="605" 
d="M371 -10c-191 0 -285 140 -237 349c50 218 217 364 417 364c63 0 126 -16 167 -43l-36 -62c-45 20 -101 32 -153 32c-155 0 -273 -103 -312 -272c-41 -177 35 -295 189 -295c49 0 110 12 161 32l3 -61c-68 -29 -137 -44 -199 -44z" />
    <glyph glyph-name="uni0422" unicode="&#x422;" horiz-adv-x="551" 
d="M237 0l143 622h-215l17 72h508l-17 -72h-216l-143 -622h-77z" />
    <glyph glyph-name="uni0423" unicode="&#x423;" horiz-adv-x="582" 
d="M147 0l178 243l-147 451h93l111 -378l263 378h78l-494 -694h-82z" />
    <glyph glyph-name="uni0424" unicode="&#x424;" horiz-adv-x="765" 
d="M339 -20l21 89c-182 11 -267 111 -229 274c39 167 170 270 358 284l20 87h77l-20 -87c183 -11 267 -112 229 -277c-38 -164 -170 -267 -358 -280l-21 -90h-77zM212 350c-27 -119 33 -194 165 -207l95 411c-137 -10 -232 -84 -260 -204zM714 343c28 120 -32 196 -165 210
l-95 -411c137 11 233 84 260 201z" />
    <glyph glyph-name="uni0425" unicode="&#x425;" horiz-adv-x="587" 
d="M22 0l311 360l-132 334h92l99 -265l223 265h88l-287 -330l151 -364h-92l-117 296l-249 -296h-87z" />
    <glyph glyph-name="uni0426" unicode="&#x426;" horiz-adv-x="707" 
d="M561 -178l41 178h-507l160 694h76l-144 -623h317l144 623h77l-144 -623h108l-58 -249h-70z" />
    <glyph glyph-name="uni0427" unicode="&#x427;" horiz-adv-x="607" 
d="M317 252c-118 0 -181 69 -156 176l61 266h76l-57 -249c-18 -78 27 -122 113 -122c60 0 121 20 168 46l75 325h76l-160 -694h-76l70 304c-62 -35 -132 -52 -190 -52z" />
    <glyph glyph-name="uni0428" unicode="&#x428;" horiz-adv-x="946" 
d="M95 0l160 694h76l-144 -623h264l144 623h77l-144 -623h264l144 623h76l-160 -694h-757z" />
    <glyph glyph-name="uni0429" unicode="&#x429;" horiz-adv-x="990" 
d="M843 -178l41 178h-789l160 694h76l-144 -623h264l144 623h77l-144 -623h264l144 623h76l-144 -623h103l-57 -249h-71z" />
    <glyph glyph-name="uni042A" unicode="&#x42a;" horiz-adv-x="689" 
d="M202 0l144 622h-167l17 72h243l-61 -267h162c115 0 179 -88 151 -210c-30 -132 -141 -217 -280 -217h-209zM296 72h141c93 0 151 43 171 128c21 90 -19 155 -93 155h-154z" />
    <glyph glyph-name="uni042B" unicode="&#x42b;" horiz-adv-x="796" 
d="M95 0l160 694h77l-62 -267h151c119 0 185 -88 157 -210c-30 -132 -143 -217 -286 -217h-197zM625 0l160 694h77l-160 -694h-77zM188 72h130c98 0 157 43 177 128c21 90 -21 155 -99 155h-142z" />
    <glyph glyph-name="uni042C" unicode="&#x42c;" horiz-adv-x="590" 
d="M95 0l160 694h77l-62 -267h167c118 0 183 -88 155 -210c-30 -132 -143 -217 -283 -217h-214zM188 72h146c95 0 155 43 175 128c21 89 -20 155 -97 155h-158z" />
    <glyph glyph-name="uni042D" unicode="&#x42d;" horiz-adv-x="629" 
d="M238 -10c-70 0 -143 17 -184 43l37 62c47 -20 109 -32 166 -32c154 0 266 95 309 260h-391l16 68h387c16 148 -56 239 -196 239c-53 0 -123 -13 -176 -32l-4 61c68 28 147 44 214 44c193 0 285 -137 236 -351c-51 -220 -216 -362 -414 -362z" />
    <glyph glyph-name="uni042E" unicode="&#x42e;" horiz-adv-x="950" 
d="M95 0l160 694h77l-69 -299h129c60 189 198 308 363 308c179 0 266 -140 218 -350c-49 -213 -209 -360 -390 -360c-168 0 -248 128 -209 330h-128l-74 -323h-77zM605 65c133 0 248 112 287 279c39 169 -27 286 -162 286c-131 0 -233 -103 -273 -277
c-41 -177 16 -288 148 -288z" />
    <glyph glyph-name="uni042F" unicode="&#x42f;" horiz-adv-x="603" 
d="M51 0l215 268c-83 24 -121 96 -98 197c30 132 146 229 273 229h228l-160 -694h-78l60 260h-144l-204 -260h-92zM357 330h151l67 292h-160c-81 0 -144 -53 -165 -142c-21 -90 23 -150 107 -150z" />
    <glyph glyph-name="uni0430" unicode="&#x430;" horiz-adv-x="449" 
d="M179 -10c-86 0 -129 53 -110 135c23 98 114 141 301 143l7 29c15 65 -15 99 -89 99c-40 0 -86 -10 -134 -30l-4 56c52 29 114 46 169 46c109 0 154 -61 129 -170l-68 -298h-50l-7 45c-42 -35 -91 -55 -144 -55zM143 134c-10 -44 18 -74 73 -74c43 0 85 16 117 44l25 109
c-139 -1 -202 -24 -215 -79z" />
    <glyph glyph-name="uni0431" unicode="&#x431;" horiz-adv-x="487" 
d="M252 -10c-124 0 -173 120 -123 338c60 261 142 366 286 366c51 0 93 19 120 50l40 -38c-44 -58 -100 -86 -168 -86c-101 0 -148 -61 -197 -260c52 61 111 94 171 94c98 0 144 -86 115 -211c-36 -154 -130 -253 -244 -253zM338 382c-50 0 -101 -34 -143 -95
c-26 -145 4 -224 82 -224c63 0 117 63 141 166c21 92 -12 153 -80 153z" />
    <glyph glyph-name="uni0432" unicode="&#x432;" horiz-adv-x="462" 
d="M72 0l106 458h164c100 0 148 -40 132 -110c-9 -39 -38 -76 -74 -94c42 -20 59 -60 47 -113c-20 -87 -99 -141 -206 -141h-169zM326 270h15c32 15 50 33 55 57c10 41 -17 64 -76 64h-87l-28 -121h121zM158 67h105c34 0 92 3 106 63c11 47 -15 77 -67 77h-111z" />
    <glyph glyph-name="uni0433" unicode="&#x433;" horiz-adv-x="375" 
d="M72 0l106 458h290l-15 -68h-221l-90 -390h-70z" />
    <glyph glyph-name="uni0434" unicode="&#x434;" horiz-adv-x="503" 
d="M-9 -126l44 193h46c43 10 76 67 99 165l52 226h286l-90 -391h69l-44 -193h-64l29 126h-334l-29 -126h-64zM246 231c-17 -74 -43 -130 -78 -164h192l74 324h-151z" />
    <glyph glyph-name="uni0435" unicode="&#x435;" horiz-adv-x="461" 
d="M257 -10c-133 0 -194 90 -160 237c33 141 134 241 250 241c103 0 155 -80 128 -196c-4 -18 -14 -52 -19 -66h-290c-12 -95 31 -151 119 -151c36 0 78 10 114 27l3 -56c-43 -23 -97 -36 -145 -36zM327 400c-69 0 -122 -47 -148 -134h228c20 85 -10 134 -80 134z" />
    <glyph glyph-name="uni0436" unicode="&#x436;" horiz-adv-x="647" 
d="M10 0l201 236l-86 222h80l72 -185h75l42 185h71l-42 -185h74l159 185h78l-186 -214l88 -244h-80l-75 206h-74l-48 -206h-71l48 206h-75l-174 -206h-77z" />
    <glyph glyph-name="uni0437" unicode="&#x437;" horiz-adv-x="417" 
d="M182 -7c-54 0 -102 12 -143 37l32 63c35 -16 87 -27 130 -27c67 0 112 25 122 67c10 44 -30 69 -112 69h-50l16 67h62c61 0 111 26 120 64s-27 63 -89 63c-36 0 -80 -10 -129 -29l-2 60c52 28 109 41 162 41c99 0 152 -47 135 -121c-13 -55 -55 -92 -110 -102
c58 -14 86 -54 73 -110c-20 -86 -106 -142 -217 -142z" />
    <glyph glyph-name="uni0438" unicode="&#x438;" horiz-adv-x="490" 
d="M241 458l-65 -283c-17 -74 10 -115 74 -115c37 0 78 15 114 41l82 357h71l-105 -458h-50l-6 42c-47 -33 -98 -52 -144 -52c-89 0 -135 65 -112 167l70 301h71z" />
    <glyph glyph-name="uni0439" unicode="&#x439;" horiz-adv-x="509" 
d="M384 565c-76 0 -120 51 -114 134l59 30c-6 -65 24 -108 72 -108c49 0 94 41 119 110l44 -30c-28 -82 -100 -136 -180 -136zM72 0l111 482h68l-88 -379l314 379h66l-111 -482h-67l87 377l-316 -377h-64z" />
    <glyph glyph-name="uni043A" unicode="&#x43a;" horiz-adv-x="444" 
d="M73 0l105 458h72l-43 -187h85l158 187h76l-183 -216l85 -242h-81l-72 206h-83l-47 -206h-72z" />
    <glyph glyph-name="uni043B" unicode="&#x43b;" horiz-adv-x="509" 
d="M83 -11c-23 0 -45 8 -62 24l28 59c15 -8 29 -12 39 -12c38 0 68 48 90 142l59 256h302l-106 -458h-71l90 391h-164l-43 -186c-33 -142 -88 -216 -162 -216z" />
    <glyph glyph-name="uni043C" unicode="&#x43c;" horiz-adv-x="579" 
d="M72 0l106 458h69l75 -307l215 307h69l-106 -458h-66l77 334l-187 -264h-44l-67 257l-75 -327h-66z" />
    <glyph glyph-name="uni043D" unicode="&#x43d;" horiz-adv-x="504" 
d="M72 0l112 486h71l-46 -201h212l46 201h71l-112 -486h-71l51 218h-213l-50 -218h-71z" />
    <glyph glyph-name="uni043E" unicode="&#x43e;" horiz-adv-x="493" 
d="M237 -10c-119 0 -174 92 -141 234c34 147 139 244 262 244c119 0 175 -91 142 -233c-34 -147 -140 -245 -263 -245zM263 60c76 0 140 65 163 164c24 103 -14 174 -94 174c-76 0 -140 -64 -163 -164c-24 -104 14 -174 94 -174z" />
    <glyph glyph-name="uni043F" unicode="&#x43f;" horiz-adv-x="498" 
d="M72 0l106 458h49l6 -43c48 34 99 53 147 53c93 0 139 -65 116 -167l-69 -301h-71l65 283c17 74 -10 115 -77 115c-40 0 -81 -16 -119 -43l-82 -355h-71z" />
    <glyph glyph-name="uni0440" unicode="&#x440;" horiz-adv-x="500" 
d="M22 -217l156 675h49l7 -48c44 37 97 58 146 58c107 0 157 -92 125 -230c-34 -149 -134 -248 -250 -248c-46 0 -82 18 -103 51l-59 -258h-71zM344 398c-40 0 -85 -19 -121 -51l-48 -210c11 -48 48 -77 98 -77c74 0 136 67 159 168c24 103 -11 170 -88 170z" />
    <glyph glyph-name="uni0441" unicode="&#x441;" horiz-adv-x="405" 
d="M232 -10c-119 0 -171 84 -138 226c35 151 141 252 264 252c41 0 80 -11 113 -32l-31 -63c-30 17 -66 25 -98 25c-86 0 -147 -59 -172 -167c-25 -109 8 -175 94 -175c32 0 72 10 110 28l3 -56c-40 -24 -95 -38 -145 -38z" />
    <glyph glyph-name="uni0442" unicode="&#x442;" horiz-adv-x="773" 
d="M72 0l106 458h49l7 -42c46 33 97 52 144 52c57 0 96 -26 111 -72c53 46 113 72 168 72c93 0 138 -65 115 -167l-69 -301h-71l65 283c17 74 -9 115 -75 115c-42 0 -85 -17 -124 -48c1 -16 -2 -33 -6 -52l-69 -298h-71l65 283c17 74 -9 115 -75 115c-39 0 -80 -16 -117 -43
l-82 -355h-71z" />
    <glyph glyph-name="uni0443" unicode="&#x443;" horiz-adv-x="413" 
d="M49 -217l123 210l-55 465h76l31 -390l214 390h69l-268 -465l-117 -210h-73z" />
    <glyph glyph-name="uni0444" unicode="&#x444;" horiz-adv-x="689" 
d="M206 -5c-96 0 -139 94 -108 230c32 138 124 233 225 233c36 0 63 -14 82 -39l34 145c26 111 102 185 190 185c29 0 54 -10 77 -25l-29 -62c-18 13 -48 19 -70 19c-47 0 -78 -35 -97 -105l-37 -162c33 29 69 44 108 44c98 0 145 -91 114 -223
c-33 -143 -126 -240 -229 -240c-36 0 -64 13 -82 37l-17 -77c-24 -103 -99 -172 -187 -172c-29 0 -54 10 -77 25l28 60c19 -12 48 -17 70 -17c47 0 78 32 95 94l23 99c-34 -31 -73 -49 -113 -49zM172 233c-23 -100 5 -168 72 -168c32 0 64 17 90 46l53 227
c-13 33 -38 50 -74 50c-63 0 -120 -63 -141 -155zM545 388c-32 0 -62 -17 -89 -48l-52 -223c13 -33 39 -52 74 -52c64 0 120 62 142 158c22 97 -8 165 -75 165z" />
    <glyph glyph-name="uni0445" unicode="&#x445;" horiz-adv-x="401" 
d="M12 0l203 222l-98 236h79l70 -179l154 179h77l-210 -230l97 -228h-79l-68 170l-147 -170h-78z" />
    <glyph glyph-name="uni0446" unicode="&#x446;" horiz-adv-x="511" 
d="M387 -126l29 126h-344l106 458h70l-91 -392h189l91 392h70l-90 -392h78l-44 -192h-64z" />
    <glyph glyph-name="uni0447" unicode="&#x447;" horiz-adv-x="467" 
d="M226 161c-89 0 -136 49 -119 124l40 173h72l-31 -138c-13 -56 16 -89 77 -89c35 0 79 10 113 26l46 201h72l-106 -458h-72l45 196c-42 -22 -93 -35 -137 -35z" />
    <glyph glyph-name="uni0448" unicode="&#x448;" horiz-adv-x="773" 
d="M812 482l-106 -458h-49l-7 42c-46 -33 -97 -52 -144 -52c-57 0 -96 26 -111 72c-53 -46 -113 -72 -168 -72c-93 0 -138 65 -115 167l69 301h71l-65 -283c-17 -74 9 -115 75 -115c42 0 85 17 124 48c-1 16 2 33 6 52l69 298h71l-65 -283c-17 -74 9 -115 75 -115
c39 0 80 16 117 43l82 355h71z" />
    <glyph glyph-name="uni0449" unicode="&#x449;" horiz-adv-x="718" 
d="M605 -126l29 126h-562l106 458h71l-91 -392h173l91 392h70l-91 -392h173l91 392h71l-91 -392h70l-44 -192h-66z" />
    <glyph glyph-name="uni044A" unicode="&#x44a;" horiz-adv-x="503" 
d="M136 0l91 391h-117l16 67h187l-35 -153h113c89 0 133 -59 112 -149c-22 -97 -100 -156 -209 -156h-158zM223 67h96c59 0 100 29 112 81c12 54 -15 91 -67 91h-101z" />
    <glyph glyph-name="uni044B" unicode="&#x44b;" horiz-adv-x="623" 
d="M473 -1l112 483h71l-112 -483h-71zM72 0l111 482h71l-37 -162h104c91 0 138 -61 116 -156c-24 -102 -106 -164 -216 -164h-149zM158 67h89c61 0 104 33 117 89c13 58 -15 99 -69 99h-93z" />
    <glyph glyph-name="uni044C" unicode="&#x44c;" horiz-adv-x="447" 
d="M72 0l106 458h71l-35 -151h117c89 0 136 -59 115 -150c-23 -98 -102 -157 -212 -157h-162zM158 67h101c60 0 103 31 115 83c12 54 -17 92 -70 92h-105z" />
    <glyph glyph-name="uni044D" unicode="&#x44d;" horiz-adv-x="424" 
d="M167 -7c-39 0 -95 9 -129 30l33 59c28 -12 82 -19 114 -19c84 0 142 48 169 143h-226l15 65h222c6 82 -33 127 -110 127c-29 0 -86 -7 -116 -19l-2 57c41 20 109 32 151 32c122 0 176 -87 142 -233c-35 -150 -135 -242 -263 -242z" />
    <glyph glyph-name="uni044E" unicode="&#x44e;" horiz-adv-x="673" 
d="M72 0l106 458h69l-45 -192h94c40 122 130 198 238 198c119 0 177 -93 145 -232c-33 -141 -138 -238 -259 -238c-109 0 -162 80 -140 207h-93l-46 -201h-69zM440 61c78 0 146 68 168 165c23 100 -15 171 -94 171c-74 0 -135 -63 -158 -165c-24 -104 10 -171 84 -171z" />
    <glyph glyph-name="uni044F" unicode="&#x44f;" horiz-adv-x="457" 
d="M34 0l153 168c-61 17 -89 66 -73 136c21 92 103 154 203 154h169l-106 -458h-71l38 161h-89l-139 -161h-85zM263 226h99l37 162h-108c-52 0 -93 -28 -104 -76c-12 -51 20 -86 76 -86z" />
    <glyph glyph-name="uni0450" unicode="&#x450;" horiz-adv-x="461" 
d="M345 542l-78 147l67 56l50 -171zM257 -10c-133 0 -194 90 -160 237c33 141 134 241 250 241c103 0 155 -80 128 -196c-4 -18 -14 -52 -19 -66h-290c-12 -95 31 -151 119 -151c36 0 78 10 114 27l3 -56c-43 -23 -97 -36 -145 -36zM327 400c-69 0 -122 -47 -148 -134h228
c20 85 -10 134 -80 134z" />
    <glyph glyph-name="uni0451" unicode="&#x451;" horiz-adv-x="467" 
d="M283 595c-32 0 -46 21 -38 57s32 57 64 57s46 -21 38 -57s-32 -57 -64 -57zM458 595c-32 0 -46 21 -38 57s32 57 64 57s46 -21 38 -57s-32 -57 -64 -57zM261 -10c-135 0 -198 90 -164 237c33 141 136 241 254 241c105 0 157 -80 130 -196c-4 -18 -13 -52 -18 -66h-296
c-11 -95 31 -151 121 -151c37 0 81 10 117 27l4 -56c-43 -23 -99 -36 -148 -36zM330 400c-71 0 -125 -47 -151 -134h234c20 85 -11 134 -83 134z" />
    <glyph glyph-name="uni0452" unicode="&#x452;" horiz-adv-x="257" 
d="M128 4l67 6h-98l11 14h235l-13 -14h-113l-54 -6h-35z" />
    <glyph glyph-name="uni0453" unicode="&#x453;" horiz-adv-x="375" 
d="M325 543l-25 32l129 170l41 -56zM72 0l106 458h290l-15 -68h-221l-90 -390h-70z" />
    <glyph glyph-name="uni0454" unicode="&#x454;" horiz-adv-x="429" 
d="M244 -10c-126 0 -184 84 -151 226c35 151 147 252 278 252c41 0 85 -11 120 -32l-30 -63c-31 16 -71 25 -107 25c-80 0 -140 -43 -172 -124h226l-15 -65h-228c-16 -96 25 -153 111 -153c36 0 80 11 119 28l2 -56c-41 -23 -99 -38 -153 -38z" />
    <glyph glyph-name="uni0455" unicode="&#x455;" horiz-adv-x="406" 
d="M197 -10c-53 0 -109 14 -151 39l32 63c39 -21 95 -34 139 -34c57 0 96 23 106 65c26 111 -239 44 -201 207c20 86 101 138 210 138c44 0 85 -9 117 -26l-32 -64c-32 13 -72 22 -107 22c-62 0 -107 -25 -116 -65c-24 -103 240 -41 201 -208c-19 -84 -94 -137 -198 -137z
" />
    <glyph glyph-name="uni0456" unicode="&#x456;" horiz-adv-x="227" 
d="M250 595c-32 0 -46 21 -38 57s32 57 64 57s45 -21 37 -57s-31 -57 -63 -57zM76 0l111 482h71l-111 -482h-71z" />
    <glyph glyph-name="uni0457" unicode="&#x457;" horiz-adv-x="223" 
d="M162 595c-32 0 -46 21 -38 57s32 57 64 57s46 -21 38 -57s-32 -57 -64 -57zM340 595c-32 0 -46 21 -38 57s32 57 64 57s45 -21 37 -57s-31 -57 -63 -57zM77 0l111 482h71l-111 -482h-71z" />
    <glyph glyph-name="uni0458" unicode="&#x458;" horiz-adv-x="225" 
d="M249 595c-32 0 -46 21 -38 57s32 57 64 57s46 -21 38 -57s-32 -57 -64 -57zM-32 -227l-11 48c54 31 98 88 111 144l119 517h71l-116 -505c-20 -88 -85 -164 -174 -204z" />
    <glyph glyph-name="uni0459" unicode="&#x459;" horiz-adv-x="741" 
d="M83 -11c-23 0 -45 8 -62 24l28 59c15 -9 29 -12 39 -12c38 0 68 48 90 142l59 256h302l-36 -154h124c89 0 136 -58 115 -148c-22 -97 -103 -156 -212 -156h-168l90 391h-164l-43 -186c-33 -142 -88 -216 -162 -216zM600 239h-112l-39 -172h106c60 0 102 30 114 81
c12 53 -16 91 -69 91z" />
    <glyph glyph-name="uni045A" unicode="&#x45a;" horiz-adv-x="730" 
d="M72 0l112 486h71l-46 -201h212l46 201h71l-38 -166h117c89 0 135 -61 113 -156c-24 -102 -105 -164 -214 -164h-161l51 218h-213l-50 -218h-71zM590 255h-105l-43 -188h99c60 0 103 33 116 89c13 58 -14 99 -67 99z" />
    <glyph glyph-name="uni045B" unicode="&#x45b;" horiz-adv-x="495" 
d="M71 0l127 549h-52l13 58h52l31 132h71l-30 -132h116l-14 -58h-116l-30 -132c46 34 95 51 141 51c93 0 139 -65 116 -167l-70 -301h-71l66 283c17 74 -10 115 -77 115c-40 0 -81 -15 -120 -46l-82 -352h-71z" />
    <glyph glyph-name="uni045C" unicode="&#x45c;" horiz-adv-x="444" 
d="M362 560l-25 29l125 156l42 -51zM73 0l111 482h72l-46 -198h85l160 198h76l-185 -227l82 -255h-81l-69 219h-83l-50 -219h-72z" />
    <glyph glyph-name="uni045D" unicode="&#x45d;" horiz-adv-x="509" 
d="M370 560l-80 134l66 51l53 -156zM72 0l111 482h68l-88 -379l313 379h65l-111 -482h-66l87 377l-315 -377h-64z" />
    <glyph glyph-name="uni045E" unicode="&#x45e;" horiz-adv-x="416" 
d="M352 565c-76 0 -120 51 -114 134l59 30c-6 -65 24 -108 72 -108c49 0 93 41 118 110l45 -30c-28 -82 -100 -136 -180 -136zM50 -217l126 217l-53 482h76l30 -404l218 404h69l-273 -482l-119 -217h-74z" />
    <glyph glyph-name="uni045F" unicode="&#x45f;" horiz-adv-x="490" 
d="M241 458l-65 -283c-17 -74 10 -115 74 -115c37 0 78 15 114 41l82 357h71l-105 -458h-50l-6 42c-47 -33 -98 -52 -144 -52c-89 0 -135 65 -112 167l70 301h71z" />
    <glyph glyph-name="uni0462" unicode="&#x462;" horiz-adv-x="664" 
d="M155 0l121 523h-116l15 65h116l25 106h77l-25 -106h160l-15 -65h-160l-22 -96h179c119 0 185 -88 157 -210c-30 -132 -144 -217 -287 -217h-225zM249 72h157c98 0 158 43 178 128c21 90 -21 155 -99 155h-170z" />
    <glyph glyph-name="uni0463" unicode="&#x463;" horiz-adv-x="447" 
d="M78 0l100 433h-58l15 67h58l56 239h67l-55 -239h122l-15 -67h-122l-30 -127h118c89 0 136 -58 115 -149c-23 -98 -103 -157 -213 -157h-158zM161 67h100c60 0 103 30 115 82c12 54 -16 92 -69 92h-106z" />
    <glyph glyph-name="uni046A" unicode="&#x46a;" horiz-adv-x="740" 
d="M124 0h-76c54 235 159 361 327 392l-128 230l16 72h532l-16 -72l-235 -229c157 -29 204 -155 149 -393h-76c48 206 6 311 -133 328l-76 -328h-77l76 328c-145 -14 -235 -118 -283 -328zM337 624l123 -224h3l227 224h-353z" />
    <glyph glyph-name="uni046B" unicode="&#x46b;" horiz-adv-x="549" 
d="M100 0h-67c36 154 109 239 229 263l-97 128l15 67h395l-15 -67l-161 -126c115 -21 152 -106 115 -265h-67c30 130 1 196 -92 209l-48 -209h-69l49 209c-97 -10 -157 -77 -187 -209zM250 392l84 -122l140 122h-224z" />
    <glyph glyph-name="uni0472" unicode="&#x472;" horiz-adv-x="724" 
d="M353 -7c-178 0 -263 140 -214 351c50 215 204 359 387 359c180 0 270 -139 222 -347c-50 -218 -209 -363 -395 -363zM500 630c-125 0 -232 -101 -274 -253h447c24 153 -44 253 -173 253zM379 65c126 0 236 100 280 252h-446c-23 -153 40 -252 166 -252z" />
    <glyph glyph-name="uni0473" unicode="&#x473;" horiz-adv-x="493" 
d="M237 -10c-119 0 -174 92 -141 234c34 147 139 244 262 244c119 0 175 -91 142 -233c-34 -147 -140 -245 -263 -245zM332 398c-70 0 -129 -54 -156 -140h256c9 84 -29 140 -100 140zM263 60c70 0 130 54 157 140h-257c-9 -85 29 -140 100 -140z" />
    <glyph glyph-name="uni0474" unicode="&#x474;" horiz-adv-x="675" 
d="M271 0l-75 694h88l51 -589l212 401c68 128 151 195 246 195l-9 -78c-65 0 -122 -49 -183 -159l-255 -464h-75z" />
    <glyph glyph-name="uni0475" unicode="&#x475;" horiz-adv-x="438" 
d="M169 0l-43 462h72l26 -376l129 252c44 85 99 130 166 130l-8 -70c-50 0 -83 -36 -114 -93l-164 -305h-64z" />
    <glyph glyph-name="uni0490" unicode="&#x490;" horiz-adv-x="508" 
d="M95 0l160 694h330l37 160h61l-53 -232h-315l-143 -622h-77z" />
    <glyph glyph-name="uni0491" unicode="&#x491;" horiz-adv-x="386" 
d="M72 0l106 458h236l35 154h66l-51 -222h-232l-90 -390h-70z" />
    <glyph glyph-name="uni0492" unicode="&#x492;" horiz-adv-x="519" 
d="M116 0l68 295h-84l15 65h84l77 334h382l-17 -72h-305l-60 -262h155l-15 -65h-155l-68 -295h-77z" />
    <glyph glyph-name="uni0493" unicode="&#x493;" horiz-adv-x="397" 
d="M95 0l47 204h-73l15 67h74l43 187h291l-16 -68h-221l-27 -119h150l-16 -67h-149l-48 -204h-70z" />
    <glyph glyph-name="uni0494" unicode="&#x494;" horiz-adv-x="631" 
d="M95 0l160 694h382l-17 -72h-305l-65 -282c58 39 130 62 193 62c139 0 204 -111 165 -282c-45 -194 -193 -327 -395 -355l2 50c158 18 272 124 310 288c33 142 -14 229 -124 229c-55 0 -117 -22 -166 -58l-63 -274h-77z" />
    <glyph glyph-name="uni0495" unicode="&#x495;" horiz-adv-x="480" 
d="M70 -10l108 468h285l-15 -67h-213l-37 -160c42 28 89 44 134 44c106 0 155 -88 123 -225c-34 -148 -140 -248 -291 -278l2 48c108 19 187 99 213 213c24 105 -9 172 -86 172c-36 0 -76 -14 -110 -37l-40 -178h-73z" />
    <glyph glyph-name="uni0496" unicode="&#x496;" horiz-adv-x="964" 
d="M35 0l298 360l-125 334h92l110 -299h103l69 299h77l-69 -299h102l251 299h89l-277 -329l103 -293h87l-58 -250h-70l42 178h-67l-115 323h-104l-74 -323h-78l75 323h-106l-266 -323h-89z" />
    <glyph glyph-name="uni0497" unicode="&#x497;" horiz-adv-x="679" 
d="M9 -5l202 239l-86 224h80l71 -187h75l43 187h71l-43 -187h74l160 187h80l-188 -216l64 -183h56l-41 -179h-65l27 115h-34l-75 209h-74l-48 -209h-71l48 209h-75l-174 -209h-77z" />
    <glyph glyph-name="uni0498" unicode="&#x498;" horiz-adv-x="561" 
d="M222 -256c-35 0 -65 8 -87 24l27 49c20 -11 49 -17 72 -17c34 0 56 14 62 39c8 34 -24 56 -87 59l37 92c-72 1 -138 21 -192 54l33 68c55 -34 129 -49 188 -49c100 0 171 43 190 126c20 88 -38 134 -164 134h-87l16 70h114c95 0 162 44 179 118s-30 120 -127 120
c-61 0 -125 -18 -187 -46l-2 62c66 35 144 57 221 57c137 0 204 -67 178 -178c-20 -85 -76 -141 -155 -157c80 -24 115 -85 95 -172c-26 -112 -121 -188 -244 -204l-21 -52c68 -11 97 -43 84 -98c-15 -63 -67 -99 -143 -99z" />
    <glyph glyph-name="uni0499" unicode="&#x499;" horiz-adv-x="418" 
d="M148 -256c-33 0 -60 8 -81 24l26 49c18 -11 45 -17 66 -17c32 0 51 14 57 39c8 34 -20 56 -78 59l37 95c-51 1 -97 13 -136 37l32 63c35 -16 88 -27 131 -27c67 0 112 25 122 67c10 44 -30 69 -112 69h-51l16 67h63c61 0 111 26 120 64s-27 63 -90 63
c-36 0 -80 -10 -129 -29l-2 60c52 28 110 41 163 41c100 0 152 -47 135 -121c-13 -55 -55 -92 -110 -102c58 -14 86 -54 73 -110c-17 -73 -84 -125 -174 -138l-21 -56c64 -11 90 -43 77 -98c-15 -63 -63 -99 -134 -99z" />
    <glyph glyph-name="uni049A" unicode="&#x49a;" horiz-adv-x="671" 
d="M95 0l160 694h76l-69 -299h122l270 299h82l-295 -329l118 -293h93l-58 -250h-70l41 178h-66l-131 323h-123l-74 -323h-76z" />
    <glyph glyph-name="uni049B" unicode="&#x49b;" horiz-adv-x="476" 
d="M71 -5l107 463h72l-43 -189h84l159 189h77l-184 -218l62 -181h59l-41 -179h-65l27 115h-39l-71 209h-83l-49 -209h-72z" />
    <glyph glyph-name="uni049C" unicode="&#x49c;" horiz-adv-x="625" 
d="M95 0l160 694h76l-69 -299h59l34 150h64l-34 -150h30l253 299h82l-277 -329l128 -365h-88l-114 323h-31l-34 -148h-64l34 148h-59l-74 -323h-76z" />
    <glyph glyph-name="uni049D" unicode="&#x49d;" horiz-adv-x="453" 
d="M73 0l105 458h72l-43 -187h36l27 119h56l-28 -119h12l150 187h76l-174 -216l76 -242h-81l-64 206h-10l-29 -126h-56l30 126h-36l-47 -206h-72z" />
    <glyph glyph-name="uni04A0" unicode="&#x4a0;" horiz-adv-x="698" 
d="M186 0l143 622h-164l17 72h240l-69 -299h122l270 299h82l-295 -329l146 -365h-88l-131 323h-123l-74 -323h-76z" />
    <glyph glyph-name="uni04A1" unicode="&#x4a1;" horiz-adv-x="522" 
d="M155 0l90 391h-148l16 67h220l-44 -189h85l158 189h76l-183 -218l85 -240h-80l-73 204h-83l-47 -204h-72z" />
    <glyph glyph-name="uni04A2" unicode="&#x4a2;" horiz-adv-x="729" 
d="M95 0l160 694h77l-69 -299h345l69 299h77l-143 -622h98l-57 -250h-70l41 178h-106l74 323h-345l-74 -323h-77z" />
    <glyph glyph-name="uni04A3" unicode="&#x4a3;" horiz-adv-x="518" 
d="M72 0l112 486h71l-46 -201h212l46 201h72l-97 -419h65l-43 -187h-64l27 120h-72l51 218h-213l-50 -218h-71z" />
    <glyph glyph-name="uni04A4" unicode="&#x4a4;" horiz-adv-x="858" 
d="M95 0l160 694h77l-69 -299h345l69 299h320l-17 -72h-242l-144 -622h-77l74 323h-345l-74 -323h-77z" />
    <glyph glyph-name="uni04A5" unicode="&#x4a5;" horiz-adv-x="598" 
d="M72 0l106 458h71l-45 -192h213l44 192h231l-16 -67h-160l-90 -391h-71l46 199h-212l-46 -199h-71z" />
    <glyph glyph-name="uni04AA" unicode="&#x4aa;" horiz-adv-x="605" 
d="M276 -178l39 172c-153 26 -224 157 -181 345c50 218 217 364 417 364c63 0 126 -16 167 -43l-36 -62c-45 20 -101 32 -153 32c-155 0 -273 -103 -312 -272c-41 -177 35 -295 189 -295c49 0 110 12 161 32l3 -61c-63 -27 -127 -42 -186 -44l-39 -168h-69z" />
    <glyph glyph-name="uni04AB" unicode="&#x4ab;" horiz-adv-x="408" 
d="M171 -120l26 113c-94 16 -132 96 -103 223c35 151 142 252 266 252c42 0 80 -11 113 -32l-30 -63c-31 17 -66 25 -99 25c-86 0 -149 -59 -174 -167c-25 -109 10 -175 96 -175c32 0 72 10 111 28l2 -56c-33 -20 -75 -33 -116 -37l-26 -111h-66z" />
    <glyph glyph-name="Ustraitcy" unicode="&#x4ae;" horiz-adv-x="562" 
d="M245 0l69 299l-136 395h90l104 -323l249 323h85l-315 -395l-69 -299h-77z" />
    <glyph glyph-name="ustraitcy" unicode="&#x4af;" horiz-adv-x="433" 
d="M181 -7l-55 465h76l32 -390l216 390h68l-268 -465h12l-48 -210h-70l49 210h-12z" />
    <glyph glyph-name="Ustraitstrokecy" unicode="&#x4b0;" horiz-adv-x="562" 
d="M148 239l15 65h150l-135 390h90l104 -323l249 323h85l-311 -390h159l-15 -65h-161l-56 -239h-77l55 239h-152z" />
    <glyph glyph-name="uni04B2" unicode="&#x4b2;" horiz-adv-x="660" 
d="M34 0l311 360l-133 334h93l98 -265l224 265h88l-287 -330l121 -292h92l-58 -250h-70l41 178h-67l-117 296l-249 -296h-87z" />
    <glyph glyph-name="uni04B3" unicode="&#x4b3;" horiz-adv-x="434" 
d="M11 -5l203 225l-97 238h79l69 -181l155 181h80l-214 -232l70 -166h63l-41 -180h-65l27 115h-36l-68 172l-147 -172h-78z" />
    <glyph glyph-name="uni04B6" unicode="&#x4b6;" horiz-adv-x="643" 
d="M317 252c-118 0 -181 69 -156 176l61 266h76l-57 -249c-18 -78 27 -122 113 -122c60 0 121 20 168 46l75 325h76l-143 -622h93l-57 -250h-70l41 178h-100l70 304c-62 -35 -132 -52 -190 -52z" />
    <glyph glyph-name="uni04B7" unicode="&#x4b7;" horiz-adv-x="481" 
d="M226 158c-89 0 -137 49 -119 125l40 175h72l-32 -139c-13 -57 17 -91 78 -91c35 0 77 11 112 27l47 203h72l-92 -399h64l-42 -179h-64l26 115h-71l46 198c-42 -22 -93 -35 -137 -35z" />
    <glyph glyph-name="uni04B8" unicode="&#x4b8;" horiz-adv-x="625" 
d="M291 110l33 142c-123 1 -187 70 -163 176l61 266h75l-58 -250c-16 -71 21 -114 101 -121l36 157h65l-36 -155c48 5 94 21 136 44l75 325h75l-160 -694h-75l70 304c-43 -23 -91 -39 -137 -47l-34 -147h-64z" />
    <glyph glyph-name="uni04B9" unicode="&#x4b9;" horiz-adv-x="477" 
d="M206 50l25 111c-92 0 -141 49 -124 124l40 173h72l-31 -138c-12 -50 11 -80 60 -87l29 127h56l-29 -127c28 5 58 13 84 24l47 201h71l-105 -458h-72l45 197c-26 -14 -55 -24 -85 -30l-27 -117h-56z" />
    <glyph glyph-name="uni04BA" unicode="&#x4ba;" horiz-adv-x="600" 
d="M94 0l152 660h77l-65 -281c56 27 119 43 177 43c123 0 187 -69 162 -176l-57 -246h-74l53 230c18 78 -27 122 -120 122c-53 0 -107 -14 -155 -37l-73 -315h-77z" />
    <glyph glyph-name="uni04BB" unicode="&#x4bb;" horiz-adv-x="498" 
d="M72 0l170 739h72l-75 -322c46 34 96 51 142 51c93 0 138 -65 115 -167l-69 -301h-71l65 283c17 74 -10 115 -77 115c-40 0 -81 -15 -120 -46l-81 -352h-71z" />
    <glyph glyph-name="uni04C0" unicode="&#x4c0;" horiz-adv-x="266" 
d="M95 0l160 694h77l-160 -694h-77z" />
    <glyph glyph-name="uni04C1" unicode="&#x4c1;" horiz-adv-x="895" 
d="M633 762c-82 0 -130 51 -125 134l61 30c-5 -65 29 -108 81 -108c53 0 100 41 126 110l47 -30c-29 -82 -104 -136 -190 -136zM24 0l298 360l-126 334h92l111 -299h102l69 299h77l-69 -299h102l252 299h88l-277 -329l129 -365h-92l-114 323h-105l-74 -323h-77l74 323h-106
l-266 -323h-88z" />
    <glyph glyph-name="uni04C2" unicode="&#x4c2;" horiz-adv-x="651" 
d="M458 565c-77 0 -122 51 -116 134l59 30c-5 -65 25 -108 74 -108c50 0 95 41 120 110l44 -30c-29 -82 -100 -136 -181 -136zM10 0l204 249l-83 233h80l70 -196h75l46 196h71l-45 -196h75l162 196h78l-188 -225l85 -257h-80l-74 219h-74l-50 -219h-72l51 219h-76l-178 -219
h-77z" />
    <glyph glyph-name="uni04CB" unicode="&#x4cb;" horiz-adv-x="607" 
d="M317 252c-118 0 -181 69 -156 176l61 266h76l-57 -249c-18 -78 27 -122 113 -122c60 0 121 20 168 46l75 325h76l-160 -694h-63l-41 -178h-70l58 250h56l54 232c-62 -35 -132 -52 -190 -52z" />
    <glyph glyph-name="uni04CC" unicode="&#x4cc;" horiz-adv-x="469" 
d="M227 158c-90 0 -138 49 -120 125l40 175h72l-32 -139c-13 -57 18 -91 79 -91c35 0 78 11 113 27l47 203h72l-107 -463h-69l-27 -115h-64l43 183h61l30 130c-43 -22 -94 -35 -138 -35z" />
    <glyph glyph-name="uni04CF" unicode="&#x4cf;" horiz-adv-x="262" 
d="M90 0l160 694h74l-160 -694h-74z" />
    <glyph glyph-name="uni04D0" unicode="&#x4d0;" horiz-adv-x="628" 
d="M499 762c-82 0 -130 51 -125 134l61 30c-5 -65 29 -108 81 -108c53 0 100 41 126 110l47 -30c-29 -82 -104 -136 -190 -136zM29 0l402 694h101l66 -694h-86l-17 206h-269l-116 -206h-81zM266 278h223l-29 345z" />
    <glyph glyph-name="uni04D1" unicode="&#x4d1;" horiz-adv-x="450" 
d="M354 551c-76 0 -121 55 -113 144l60 34c-8 -74 21 -122 69 -122c49 0 95 46 122 124l44 -34c-30 -88 -102 -146 -182 -146zM180 -10c-86 0 -130 53 -111 135c23 98 114 141 302 143l7 29c15 65 -15 99 -89 99c-41 0 -87 -10 -135 -30l-4 56c52 29 115 46 170 46
c110 0 154 -61 129 -170l-68 -298h-50l-7 45c-42 -35 -91 -55 -144 -55zM143 134c-10 -44 19 -74 74 -74c43 0 85 16 117 44l25 109c-139 -1 -203 -24 -216 -79z" />
    <glyph glyph-name="uni04D2" unicode="&#x4d2;" horiz-adv-x="628" 
d="M398 777c-33 0 -48 21 -40 57s34 57 67 57s47 -21 39 -57s-33 -57 -66 -57zM584 777c-33 0 -48 21 -40 57s34 57 67 57s47 -21 39 -57s-33 -57 -66 -57zM29 0l402 694h101l66 -694h-86l-17 206h-269l-116 -206h-81zM266 278h223l-29 345z" />
    <glyph glyph-name="uni04D3" unicode="&#x4d3;" horiz-adv-x="454" 
d="M277 595c-32 0 -46 21 -38 57s32 57 64 57s46 -21 38 -57s-32 -57 -64 -57zM452 595c-32 0 -46 21 -38 57s32 57 64 57s46 -21 38 -57s-32 -57 -64 -57zM182 -10c-87 0 -132 53 -113 135c23 98 115 141 306 143l7 29c15 65 -15 99 -91 99c-41 0 -88 -10 -137 -30l-4 56
c53 29 116 46 172 46c111 0 156 -61 131 -170l-68 -298h-50l-7 45c-42 -35 -92 -55 -146 -55zM143 134c-10 -44 20 -74 76 -74c44 0 86 16 119 44l25 109c-142 -1 -207 -24 -220 -79z" />
    <glyph glyph-name="uni04D4" unicode="&#x4d4;" horiz-adv-x="906" 
d="M31 0l554 694h427l-16 -72h-329l-52 -227h303l-16 -72h-304l-58 -251h329l-17 -72h-405l46 202h-211l3 13l-169 -215h-85zM338 282h174l72 313z" />
    <glyph glyph-name="uni04D5" unicode="&#x4d5;" horiz-adv-x="726" 
d="M178 -10c-84 0 -128 49 -111 124c23 99 131 151 306 152c1 4 2 6 4 9l5 22c15 65 -18 99 -90 99c-43 0 -86 -12 -142 -39l-4 55c64 38 121 56 176 56c71 0 112 -29 121 -84c46 52 106 84 170 84c103 0 154 -80 127 -196c-4 -18 -14 -52 -19 -66h-297
c-10 -95 39 -151 125 -151c35 0 72 9 116 27l3 -56c-54 -25 -98 -36 -145 -36c-84 0 -138 35 -159 97c-47 -61 -115 -97 -186 -97zM592 400c-69 0 -128 -47 -155 -134h235c20 85 -10 134 -80 134zM141 128c-10 -41 20 -68 75 -68c53 0 103 25 138 65c-3 24 -2 51 3 81
c-137 -1 -203 -22 -216 -78z" />
    <glyph glyph-name="uni04D6" unicode="&#x4d6;" horiz-adv-x="554" 
d="M464 762c-82 0 -130 51 -125 134l61 30c-5 -65 29 -108 81 -108c53 0 100 41 126 110l47 -30c-29 -82 -104 -136 -190 -136zM95 0l160 694h405l-16 -72h-329l-52 -227h303l-16 -72h-304l-58 -251h329l-17 -72h-405z" />
    <glyph glyph-name="uni04D7" unicode="&#x4d7;" horiz-adv-x="462" 
d="M360 551c-76 0 -121 55 -113 144l61 34c-8 -74 20 -122 68 -122c49 0 95 46 122 124l44 -34c-30 -88 -102 -146 -182 -146zM258 -10c-133 0 -195 90 -161 237c33 141 134 241 251 241c104 0 156 -80 129 -196c-4 -18 -14 -52 -19 -66h-291c-12 -95 31 -151 119 -151
c36 0 79 10 115 27l3 -56c-43 -23 -98 -36 -146 -36zM327 400c-70 0 -122 -47 -148 -134h230c20 85 -11 134 -82 134z" />
    <glyph glyph-name="uni04D8" unicode="&#x4d8;" horiz-adv-x="689" 
d="M460 700c204 0 301 -134 250 -353c-50 -215 -205 -357 -383 -357c-164 0 -244 121 -202 301c5 21 14 54 21 77h488c26 167 -50 259 -204 259c-63 0 -132 -17 -199 -48l-4 61c74 40 152 60 233 60zM350 63c128 0 225 84 269 237h-421c-35 -152 22 -237 152 -237z" />
    <glyph glyph-name="uni04D9" unicode="&#x4d9;" horiz-adv-x="460" 
d="M306 468c133 0 194 -90 160 -237c-33 -141 -135 -241 -251 -241c-103 0 -154 80 -127 196c4 18 14 52 19 66h290c12 95 -31 151 -119 151c-36 0 -78 -10 -114 -27l-3 56c43 23 97 36 145 36zM236 58c69 0 122 47 148 134h-228c-20 -85 10 -134 80 -134z" />
    <glyph glyph-name="uni04DC" unicode="&#x4dc;" horiz-adv-x="895" 
d="M532 777c-33 0 -48 21 -40 57s34 57 67 57s47 -21 39 -57s-33 -57 -66 -57zM718 777c-33 0 -48 21 -40 57s34 57 67 57s47 -21 39 -57s-33 -57 -66 -57zM24 0l298 360l-126 334h92l111 -299h102l69 299h77l-69 -299h102l252 299h88l-277 -329l129 -365h-92l-114 323h-105
l-74 -323h-77l74 323h-106l-266 -323h-88z" />
    <glyph glyph-name="uni04DD" unicode="&#x4dd;" horiz-adv-x="655" 
d="M376 595c-32 0 -45 21 -37 57s32 57 64 57s45 -21 37 -57s-32 -57 -64 -57zM554 595c-32 0 -45 21 -37 57s31 57 63 57s46 -21 38 -57s-32 -57 -64 -57zM10 0l204 249l-83 233h80l70 -196h77l46 196h71l-46 -196h78l162 196h78l-188 -225l85 -257h-80l-73 219h-77
l-51 -219h-71l51 219h-78l-178 -219h-77z" />
    <glyph glyph-name="uni04DE" unicode="&#x4de;" horiz-adv-x="561" 
d="M363 777c-33 0 -47 21 -39 57s33 57 66 57s48 -21 40 -57s-34 -57 -67 -57zM549 777c-33 0 -47 21 -39 57s33 57 66 57s48 -21 40 -57s-34 -57 -67 -57zM252 -10c-74 0 -143 20 -198 54l33 68c55 -34 129 -49 188 -49c100 0 171 43 190 126c20 88 -38 134 -164 134h-87
l16 70h114c95 0 162 44 179 118s-30 120 -127 120c-61 0 -125 -18 -187 -46l-2 62c66 35 144 57 221 57c137 0 204 -67 178 -178c-20 -85 -76 -141 -155 -157c80 -24 115 -85 95 -172c-29 -127 -147 -207 -294 -207z" />
    <glyph glyph-name="uni04DF" unicode="&#x4df;" horiz-adv-x="423" 
d="M259 595c-32 0 -46 21 -38 57s32 57 64 57s45 -21 37 -57s-31 -57 -63 -57zM434 595c-32 0 -46 21 -38 57s32 57 64 57s46 -21 38 -57s-32 -57 -64 -57zM184 -7c-54 0 -103 12 -145 37l32 63c36 -16 90 -27 134 -27c68 0 114 25 124 67c10 44 -32 69 -115 69h-51l16 67
h64c62 0 112 26 121 64s-27 63 -91 63c-37 0 -82 -10 -132 -29l-2 60c53 28 111 41 165 41c101 0 154 -47 137 -121c-13 -55 -55 -92 -110 -102c58 -14 87 -54 74 -110c-20 -86 -109 -142 -221 -142z" />
    <glyph glyph-name="uni04E2" unicode="&#x4e2;" horiz-adv-x="706" 
d="M389 788l15 66h291l-15 -66h-291zM95 0l160 694h75l-133 -578l489 578h86l-160 -694h-76l134 578l-493 -578h-82z" />
    <glyph glyph-name="uni04E3" unicode="&#x4e3;" horiz-adv-x="509" 
d="M256 606l15 66h270l-15 -66h-270zM72 0l111 482h68l-88 -379l313 379h65l-111 -482h-66l87 377l-315 -377h-64z" />
    <glyph glyph-name="uni04E4" unicode="&#x4e4;" horiz-adv-x="706" 
d="M437 777c-33 0 -48 21 -40 57s33 57 66 57s48 -21 40 -57s-33 -57 -66 -57zM623 777c-33 0 -48 21 -40 57s33 57 66 57s48 -21 40 -57s-33 -57 -66 -57zM95 0l160 694h75l-133 -578l489 578h86l-160 -694h-76l134 578l-493 -578h-82z" />
    <glyph glyph-name="uni04E5" unicode="&#x4e5;" horiz-adv-x="515" 
d="M304 595c-32 0 -45 21 -37 57s32 57 64 57s45 -21 37 -57s-32 -57 -64 -57zM479 595c-32 0 -45 21 -37 57s32 57 64 57s45 -21 37 -57s-32 -57 -64 -57zM72 0l111 482h68l-88 -379l319 379h66l-112 -482h-66l87 377l-321 -377h-64z" />
    <glyph glyph-name="uni04E6" unicode="&#x4e6;" horiz-adv-x="724" 
d="M449 777c-33 0 -48 21 -40 57s33 57 66 57s48 -21 40 -57s-33 -57 -66 -57zM635 777c-33 0 -48 21 -40 57s33 57 66 57s48 -21 40 -57s-33 -57 -66 -57zM353 -7c-178 0 -263 140 -214 351c50 215 204 359 387 359c180 0 270 -139 222 -347c-50 -218 -209 -363 -395 -363z
M379 65c133 0 248 112 287 279c40 172 -27 286 -166 286c-130 0 -242 -110 -280 -274c-40 -175 23 -291 159 -291z" />
    <glyph glyph-name="uni04E7" unicode="&#x4e7;" horiz-adv-x="501" 
d="M301 595c-32 0 -46 21 -38 57s32 57 64 57s46 -21 38 -57s-32 -57 -64 -57zM476 595c-32 0 -46 21 -38 57s32 57 64 57s46 -21 38 -57s-32 -57 -64 -57zM241 -10c-121 0 -178 92 -145 234c34 147 141 244 266 244c121 0 178 -91 145 -233c-34 -147 -141 -245 -266 -245z
M267 60c78 0 144 65 167 164c24 103 -16 174 -98 174c-78 0 -144 -64 -167 -164c-24 -104 16 -174 98 -174z" />
    <glyph glyph-name="uni04E8" unicode="&#x4e8;" horiz-adv-x="724" 
d="M353 -7c-178 0 -263 140 -214 351c50 215 204 359 387 359c180 0 270 -139 222 -347c-50 -218 -209 -363 -395 -363zM500 630c-125 0 -232 -101 -274 -253h447c24 153 -44 253 -173 253zM379 65c126 0 236 100 280 252h-446c-23 -153 40 -252 166 -252z" />
    <glyph glyph-name="uni04E9" unicode="&#x4e9;" horiz-adv-x="493" 
d="M237 -10c-119 0 -174 92 -141 234c34 147 139 244 262 244c119 0 175 -91 142 -233c-34 -147 -140 -245 -263 -245zM332 398c-70 0 -129 -54 -156 -140h256c9 84 -29 140 -100 140zM263 60c70 0 130 54 157 140h-257c-9 -85 29 -140 100 -140z" />
    <glyph glyph-name="uni04EE" unicode="&#x4ee;" horiz-adv-x="582" 
d="M328 788l15 66h291l-15 -66h-291zM147 0l178 243l-147 451h93l111 -378l263 378h78l-494 -694h-82z" />
    <glyph glyph-name="uni04EF" unicode="&#x4ef;" horiz-adv-x="413" 
d="M224 606l15 66h268l-16 -66h-267zM49 -217l125 217l-51 482h76l28 -404l217 404h68l-272 -482l-118 -217h-73z" />
    <glyph glyph-name="uni04F0" unicode="&#x4f0;" horiz-adv-x="582" 
d="M375 777c-33 0 -48 21 -40 57s34 57 67 57s47 -21 39 -57s-33 -57 -66 -57zM561 777c-33 0 -48 21 -40 57s34 57 67 57s47 -21 39 -57s-33 -57 -66 -57zM147 0l178 243l-147 451h93l111 -378l263 378h78l-494 -694h-82z" />
    <glyph glyph-name="uni04F1" unicode="&#x4f1;" horiz-adv-x="420" 
d="M272 595c-32 0 -46 21 -38 57s32 57 64 57s46 -21 38 -57s-32 -57 -64 -57zM447 595c-32 0 -45 21 -37 57s31 57 63 57s46 -21 38 -57s-32 -57 -64 -57zM50 -217l127 217l-54 482h76l32 -404l220 404h69l-275 -482l-119 -217h-76z" />
    <glyph glyph-name="uni04F2" unicode="&#x4f2;" horiz-adv-x="582" 
d="M342 764l-28 36l134 139l43 -54zM519 764l-28 36l134 139l43 -54zM147 0l178 243l-147 451h93l111 -378l263 378h78l-494 -694h-82z" />
    <glyph glyph-name="uni04F3" unicode="&#x4f3;" horiz-adv-x="413" 
d="M423 553l-31 22l105 172l51 -39zM277 553l-30 22l104 172l52 -39zM49 -217l125 217l-51 482h76l28 -404l217 404h68l-272 -482l-118 -217h-73z" />
    <glyph glyph-name="uni04F4" unicode="&#x4f4;" horiz-adv-x="607" 
d="M389 777c-33 0 -48 21 -40 57s33 57 66 57s48 -21 40 -57s-33 -57 -66 -57zM575 777c-33 0 -48 21 -40 57s33 57 66 57s48 -21 40 -57s-33 -57 -66 -57zM317 252c-118 0 -181 69 -156 176l61 266h76l-57 -249c-18 -78 27 -122 113 -122c60 0 121 20 168 46l75 325h76
l-160 -694h-76l70 304c-62 -35 -132 -52 -190 -52z" />
    <glyph glyph-name="uni04F5" unicode="&#x4f5;" horiz-adv-x="472" 
d="M284 595c-32 0 -46 21 -38 57s32 57 64 57s46 -21 38 -57s-32 -57 -64 -57zM459 595c-32 0 -46 21 -38 57s32 57 64 57s46 -21 38 -57s-32 -57 -64 -57zM232 171c-91 0 -139 51 -121 130l42 181h72l-34 -146c-14 -60 17 -95 79 -95c36 0 79 11 115 28l50 213h72
l-112 -482h-72l48 206c-43 -22 -94 -35 -139 -35z" />
    <glyph glyph-name="uni04F6" unicode="&#x4f6;" horiz-adv-x="508" 
d="M95 0l160 694h391l-17 -74h-314l-127 -548h79l-58 -250h-70l41 178h-85z" />
    <glyph glyph-name="uni04F7" unicode="&#x4f7;" horiz-adv-x="377" 
d="M71 -5l107 463h293l-16 -68h-223l-76 -331h69l-41 -179h-65l26 115h-74z" />
    <glyph glyph-name="uni04F8" unicode="&#x4f8;" horiz-adv-x="796" 
d="M487 777c-33 0 -48 21 -40 57s33 57 66 57s48 -21 40 -57s-33 -57 -66 -57zM673 777c-33 0 -48 21 -40 57s33 57 66 57s48 -21 40 -57s-33 -57 -66 -57zM95 0l160 694h77l-62 -267h151c119 0 185 -88 157 -210c-30 -132 -143 -217 -286 -217h-197zM625 0l160 694h77
l-160 -694h-77zM188 72h130c98 0 157 43 177 128c21 90 -21 155 -99 155h-142z" />
    <glyph glyph-name="uni04F9" unicode="&#x4f9;" horiz-adv-x="628" 
d="M361 595c-32 0 -45 21 -37 57s31 57 63 57s46 -21 38 -57s-32 -57 -64 -57zM537 595c-32 0 -46 21 -38 57s32 57 64 57s46 -21 38 -57s-32 -57 -64 -57zM479 -1l111 483h72l-112 -483h-71zM72 0l111 482h71l-37 -162h106c92 0 140 -61 118 -156
c-24 -102 -106 -164 -218 -164h-151zM158 67h90c62 0 107 33 120 89c13 58 -16 99 -71 99h-95z" />
    <glyph glyph-name="uni051A" unicode="&#x51a;" horiz-adv-x="736" 
d="M353 -7c-178 0 -263 140 -214 351c50 215 204 359 387 359c180 0 270 -139 222 -347c-23 -100 -69 -184 -130 -246l70 -91l-58 -51l-69 92c-61 -43 -132 -67 -208 -67zM379 65c52 0 101 17 144 47l-109 147l53 50l111 -146c41 47 71 109 88 181c40 172 -27 286 -166 286
c-130 0 -242 -110 -280 -274c-40 -175 23 -291 159 -291z" />
    <glyph glyph-name="uni051B" unicode="&#x51b;" horiz-adv-x="499" 
d="M228 -10c-111 0 -164 94 -131 235c34 146 134 243 251 243c48 0 83 -17 106 -49l25 39h49l-156 -675h-71l60 260c-39 -34 -85 -53 -133 -53zM170 234c-24 -104 13 -174 95 -174c42 0 81 18 112 51l53 231c-17 35 -48 56 -94 56c-80 0 -143 -65 -166 -164z" />
    <glyph glyph-name="uni051C" unicode="&#x51c;" horiz-adv-x="943" 
d="M231 0l-43 694h89l20 -586l291 581h87l32 -575l292 580h78l-362 -694h-74l-38 584l-295 -584h-77z" />
    <glyph glyph-name="uni051D" unicode="&#x51d;" horiz-adv-x="673" 
d="M163 0l-45 458h78l20 -376l190 374h77l20 -373l195 375h68l-251 -458h-69l-26 370l-192 -370h-65z" />
    <glyph glyph-name="uni1E08" unicode="&#x1e08;" horiz-adv-x="605" 
d="M503 744l-20 42l166 131l32 -64zM371 -10h-4l-19 -49c68 -11 96 -43 83 -98c-15 -63 -67 -99 -143 -99c-35 0 -64 8 -86 24l27 49c20 -11 48 -17 71 -17c34 0 56 14 62 39c8 34 -23 56 -86 59l39 97c-152 25 -224 157 -181 344c50 218 217 364 417 364
c63 0 126 -16 167 -43l-36 -62c-45 20 -101 32 -153 32c-155 0 -273 -103 -312 -272c-41 -177 35 -295 189 -295c49 0 110 12 161 32l3 -61c-68 -29 -137 -44 -199 -44z" />
    <glyph glyph-name="uni1E09" unicode="&#x1e09;" horiz-adv-x="407" 
d="M362 542l-24 32l129 171l43 -56zM157 -256c-33 0 -59 8 -80 24l26 49c18 -11 44 -17 65 -17c32 0 52 14 58 39c8 34 -21 56 -79 59l38 98c-85 20 -119 99 -91 220c35 151 142 252 266 252c42 0 80 -11 113 -32l-31 -63c-31 17 -65 25 -98 25c-86 0 -149 -59 -174 -167
c-25 -109 10 -175 96 -175c32 0 72 10 111 28l2 -56c-40 -24 -95 -38 -146 -38l-18 -49c64 -11 90 -43 77 -98c-15 -63 -64 -99 -135 -99z" />
    <glyph glyph-name="uni1E0C" unicode="&#x1e0c;" horiz-adv-x="678" 
d="M95 0l160 694h211c197 0 285 -124 237 -334c-51 -223 -216 -360 -411 -360h-197zM188 72h130c153 0 263 100 303 275c41 176 -24 275 -181 275h-125zM264 -195c-33 0 -48 21 -40 57s33 57 66 57s48 -21 40 -57s-33 -57 -66 -57z" />
    <glyph glyph-name="uni1E0D" unicode="&#x1e0d;" horiz-adv-x="503" 
d="M231 -10c-113 0 -167 94 -134 235c34 146 135 243 254 243c45 0 79 -15 102 -43l73 314h71l-171 -739h-49l-7 47c-41 -36 -88 -57 -139 -57zM170 234c-24 -104 13 -174 97 -174c43 0 83 18 114 51l53 231c-17 35 -49 56 -96 56c-81 0 -145 -65 -168 -164zM206 -195
c-32 0 -46 21 -38 57s32 57 64 57s46 -21 38 -57s-32 -57 -64 -57z" />
    <glyph glyph-name="uni1E0E" unicode="&#x1e0e;" horiz-adv-x="678" 
d="M95 0l160 694h211c197 0 285 -124 237 -334c-51 -223 -216 -360 -411 -360h-197zM188 72h130c153 0 263 100 303 275c41 176 -24 275 -181 275h-125zM123 -171l15 65h291l-15 -65h-291z" />
    <glyph glyph-name="uni1E0F" unicode="&#x1e0f;" horiz-adv-x="499" 
d="M228 -10c-111 0 -164 94 -131 235c34 146 134 243 251 243c44 0 79 -15 102 -43l72 314h71l-171 -739h-49l-7 47c-40 -36 -88 -57 -138 -57zM170 234c-24 -104 13 -174 95 -174c42 0 81 18 112 51l53 231c-17 35 -48 56 -94 56c-80 0 -143 -65 -166 -164zM75 -171l15 65
h269l-15 -65h-269z" />
    <glyph glyph-name="uni1E14" unicode="&#x1e14;" horiz-adv-x="554" 
d="M532 907l-127 109l61 64l105 -131zM344 788l15 66h291l-15 -66h-291zM95 0l160 694h405l-16 -72h-329l-52 -227h303l-16 -72h-304l-58 -251h329l-17 -72h-405z" />
    <glyph glyph-name="uni1E15" unicode="&#x1e15;" horiz-adv-x="461" 
d="M381 679l-78 144l66 55l51 -168zM225 545l15 65h270l-15 -65h-270zM257 -10c-133 0 -194 90 -160 237c33 141 134 241 250 241c103 0 155 -80 128 -196c-4 -18 -14 -52 -19 -66h-290c-12 -95 31 -151 119 -151c36 0 78 10 114 27l3 -56c-43 -23 -97 -36 -145 -36z
M327 400c-69 0 -122 -47 -148 -134h228c20 85 -10 134 -80 134z" />
    <glyph glyph-name="uni1E16" unicode="&#x1e16;" horiz-adv-x="554" 
d="M502 907l-20 42l166 131l32 -64zM344 788l15 66h291l-15 -66h-291zM95 0l160 694h405l-16 -72h-329l-52 -227h303l-16 -72h-304l-58 -251h329l-17 -72h-405z" />
    <glyph glyph-name="uni1E17" unicode="&#x1e17;" horiz-adv-x="461" 
d="M396 679l-24 31l127 168l42 -55zM225 545l15 65h270l-15 -65h-270zM257 -10c-133 0 -194 90 -160 237c33 141 134 241 250 241c103 0 155 -80 128 -196c-4 -18 -14 -52 -19 -66h-290c-12 -95 31 -151 119 -151c36 0 78 10 114 27l3 -56c-43 -23 -97 -36 -145 -36z
M327 400c-69 0 -122 -47 -148 -134h228c20 85 -10 134 -80 134z" />
    <glyph glyph-name="uni1E1C" unicode="&#x1e1c;" horiz-adv-x="554" 
d="M479 758c-71 0 -114 53 -109 132l68 37c-7 -62 20 -104 67 -104c49 0 96 42 117 105l31 -26c-32 -86 -102 -144 -174 -144zM95 0l160 694h405l-16 -72h-329l-52 -227h303l-16 -72h-304l-58 -251h329l-17 -72h-187l-23 -59c68 -11 97 -43 84 -98c-15 -63 -67 -99 -143 -99
c-35 0 -65 8 -87 24l27 49c20 -11 49 -17 72 -17c34 0 56 14 62 39c8 34 -24 56 -87 59l41 102h-164z" />
    <glyph glyph-name="uni1E1D" unicode="&#x1e1d;" horiz-adv-x="464" 
d="M360 546c-66 0 -105 57 -98 142l66 42c-9 -71 13 -119 57 -119c46 0 91 48 114 120l28 -30c-33 -93 -100 -155 -167 -155zM192 -256c-33 0 -60 8 -81 24l26 49c18 -11 45 -17 66 -17c32 0 51 14 57 39c8 34 -20 56 -78 59l37 95c-106 17 -152 104 -122 234
c33 141 135 241 252 241c104 0 157 -80 130 -196c-4 -18 -14 -52 -19 -66h-293c-11 -95 31 -151 120 -151c37 0 80 10 116 27l3 -56c-40 -22 -93 -34 -139 -36l-18 -49c64 -11 90 -43 77 -98c-15 -63 -63 -99 -134 -99zM329 400c-70 0 -124 -47 -150 -134h232
c20 85 -11 134 -82 134z" />
    <glyph glyph-name="uni1E20" unicode="&#x1e20;" horiz-adv-x="684" 
d="M409 788l16 66h291l-15 -66h-292zM380 -9c-195 0 -292 139 -243 351c50 218 218 361 422 361c71 0 135 -16 185 -46l-37 -64c-51 23 -116 37 -175 37c-157 0 -272 -100 -312 -273c-41 -178 33 -293 188 -293c51 0 105 13 156 38l44 194h-183l17 72h260l-68 -294
c-78 -55 -165 -83 -254 -83z" />
    <glyph glyph-name="uni1E21" unicode="&#x1e21;" horiz-adv-x="499" 
d="M245 606l16 66h269l-15 -66h-270zM228 -10c-111 0 -164 94 -131 236c34 146 134 242 250 242c48 0 86 -18 109 -51l23 41h49l-104 -452c-32 -140 -133 -233 -253 -233c-43 0 -85 13 -122 38l30 61c34 -19 76 -30 113 -30c82 0 135 53 160 160l9 41
c-39 -34 -85 -53 -133 -53zM170 234c-24 -104 13 -174 95 -174c42 0 81 18 112 51l53 231c-17 35 -48 56 -94 56c-80 0 -143 -65 -166 -164z" />
    <glyph glyph-name="uni1E24" unicode="&#x1e24;" horiz-adv-x="688" 
d="M95 0l160 694h77l-69 -299h345l69 299h77l-160 -694h-77l74 323h-345l-74 -323h-77zM300 -195c-33 0 -48 21 -40 57s33 57 66 57s48 -21 40 -57s-33 -57 -66 -57z" />
    <glyph glyph-name="uni1E25" unicode="&#x1e25;" horiz-adv-x="502" 
d="M71 -4l171 743h72l-75 -322c46 34 97 51 143 51c95 0 142 -66 118 -169l-70 -303h-71l66 286c17 74 -11 116 -79 116c-41 0 -82 -16 -122 -47l-82 -355h-71zM203 -195c-32 0 -46 21 -38 57s32 57 64 57s45 -21 37 -57s-31 -57 -63 -57z" />
    <glyph glyph-name="uni1E2A" unicode="&#x1e2a;" horiz-adv-x="688" 
d="M95 0l160 694h77l-69 -299h345l69 299h77l-160 -694h-77l74 323h-345l-74 -323h-77zM295 -212c-61 0 -107 43 -115 107l68 38c5 -49 35 -82 73 -82c45 0 83 28 112 82l30 -26c-41 -78 -99 -119 -168 -119z" />
    <glyph glyph-name="uni1E2B" unicode="&#x1e2b;" horiz-adv-x="499" 
d="M70 -6l172 745h72l-75 -322c46 34 96 51 142 51c93 0 140 -67 116 -170l-71 -304h-71l67 287c17 75 -10 117 -77 117c-40 0 -82 -15 -121 -47l-82 -357h-72zM196 -212c-57 0 -99 42 -105 105l64 37c5 -47 31 -79 66 -79c41 0 76 27 103 79l29 -25
c-39 -76 -93 -117 -157 -117z" />
    <glyph glyph-name="uni1E2E" unicode="&#x1e2e;" horiz-adv-x="271" 
d="M330 906l-20 42l166 131l32 -64zM220 777c-33 0 -48 21 -40 57s33 57 66 57s48 -21 40 -57s-33 -57 -66 -57zM406 777c-33 0 -48 21 -40 57s33 57 66 57s48 -21 40 -57s-33 -57 -66 -57zM97 0l160 694h77l-160 -694h-77z" />
    <glyph glyph-name="uni1E2F" unicode="&#x1e2f;" horiz-adv-x="224" 
d="M276 682l-26 29l128 156l45 -51zM156 550c-29 0 -42 19 -34 52s29 52 58 52s42 -19 34 -52s-29 -52 -58 -52zM325 550c-29 0 -42 19 -34 52s29 52 58 52s42 -19 34 -52s-29 -52 -58 -52zM77 0l111 482h71l-111 -482h-71z" />
    <glyph glyph-name="uni1E30" unicode="&#x1e30;" horiz-adv-x="580" 
d="M451 744l-21 42l167 131l31 -64zM95 0l160 694h77l-76 -330l358 330h94l-361 -327l215 -367h-103l-205 358l-82 -358h-77z" />
    <glyph glyph-name="uni1E31" unicode="&#x1e31;" horiz-adv-x="433" 
d="M370 789l-18 42l155 131l28 -64zM72 0l170 739h72l-111 -480l234 223h81l-229 -218l137 -264h-91l-133 255l-59 -255h-71z" />
    <glyph glyph-name="uni1E36" unicode="&#x1e36;" horiz-adv-x="496" 
d="M95 0l160 694h77l-143 -620h289l-17 -74h-366zM234 -195c-33 0 -48 21 -40 57s33 57 66 57s48 -21 40 -57s-33 -57 -66 -57z" />
    <glyph glyph-name="uni1E37" unicode="&#x1e37;" horiz-adv-x="240" 
d="M164 -6c-58 0 -86 45 -70 114l146 631h71l-143 -621c-9 -37 1 -60 31 -60c11 0 21 3 33 8l2 -56c-19 -10 -47 -16 -70 -16zM95 -195c-32 0 -45 21 -37 57s32 57 64 57s45 -21 37 -57s-32 -57 -64 -57z" />
    <glyph glyph-name="uni1E3A" unicode="&#x1e3a;" horiz-adv-x="496" 
d="M95 0l160 694h77l-143 -620h289l-17 -74h-366zM93 -171l15 65h291l-15 -65h-291z" />
    <glyph glyph-name="uni1E3B" unicode="&#x1e3b;" horiz-adv-x="235" 
d="M162 -6c-57 0 -84 45 -68 114l145 631h72l-144 -621c-9 -37 2 -60 31 -60c10 0 21 3 32 8l2 -56c-19 -10 -47 -16 -70 -16zM-10 -171l15 65h217l-15 -65h-217z" />
    <glyph glyph-name="uni1E42" unicode="&#x1e42;" horiz-adv-x="817" 
d="M95 0l160 694h79l121 -497l351 497h77l-161 -694h-73l128 554l-314 -446h-61l-108 437l-126 -545h-73zM364 -195c-33 0 -48 21 -40 57s33 57 66 57s48 -21 40 -57s-33 -57 -66 -57z" />
    <glyph glyph-name="uni1E43" unicode="&#x1e43;" horiz-adv-x="775" 
d="M71 -4l107 462h49l7 -42c47 33 97 52 145 52c57 0 95 -26 110 -72c53 46 114 72 169 72c93 0 139 -66 115 -169l-70 -303h-71l66 286c17 74 -9 116 -75 116c-42 0 -86 -18 -125 -49c1 -16 -2 -33 -6 -52l-69 -301h-71l66 286c17 74 -10 116 -76 116
c-40 0 -80 -15 -117 -43l-83 -359h-71zM339 -195c-32 0 -45 21 -37 57s32 57 64 57s45 -21 37 -57s-32 -57 -64 -57z" />
    <glyph glyph-name="uni1E44" unicode="&#x1e44;" horiz-adv-x="715" 
d="M535 778c-33 0 -48 21 -40 57s33 57 66 57s48 -21 40 -57s-33 -57 -66 -57zM95 0l160 694h88l231 -583l135 583h72l-160 -694h-86l-233 583l-135 -583h-72z" />
    <glyph glyph-name="uni1E45" unicode="&#x1e45;" horiz-adv-x="502" 
d="M388 595c-32 0 -46 21 -38 57s32 57 64 57s45 -21 37 -57s-31 -57 -63 -57zM72 0l106 458h49l6 -43c48 34 101 53 149 53c95 0 141 -65 118 -167l-69 -301h-71l65 283c17 74 -11 115 -79 115c-41 0 -82 -16 -121 -43l-82 -355h-71z" />
    <glyph glyph-name="uni1E46" unicode="&#x1e46;" horiz-adv-x="715" 
d="M95 0l160 694h88l231 -583l135 583h72l-160 -694h-86l-233 583l-135 -583h-72zM313 -195c-33 0 -48 21 -40 57s33 57 66 57s48 -21 40 -57s-33 -57 -66 -57z" />
    <glyph glyph-name="uni1E47" unicode="&#x1e47;" horiz-adv-x="502" 
d="M71 -4l107 462h49l6 -43c48 34 101 53 149 53c95 0 142 -66 118 -169l-70 -303h-71l66 286c17 74 -11 116 -79 116c-41 0 -82 -15 -121 -43l-83 -359h-71zM205 -195c-32 0 -45 21 -37 57s31 57 63 57s46 -21 38 -57s-32 -57 -64 -57z" />
    <glyph glyph-name="uni1E48" unicode="&#x1e48;" horiz-adv-x="715" 
d="M95 0l160 694h88l231 -583l135 583h72l-160 -694h-86l-233 583l-135 -583h-72zM172 -171l15 65h291l-15 -65h-291z" />
    <glyph glyph-name="uni1E49" unicode="&#x1e49;" horiz-adv-x="498" 
d="M71 -5l107 463h49l6 -43c48 34 99 53 147 53c93 0 140 -66 116 -169l-70 -304h-71l66 286c17 74 -10 117 -77 117c-40 0 -81 -15 -119 -43l-83 -360h-71zM73 -171l15 65h270l-15 -65h-270z" />
    <glyph glyph-name="uni1E4C" unicode="&#x1e4c;" horiz-adv-x="724" 
d="M562 926l-20 42l166 131l32 -64zM425 762l-46 14c35 72 84 105 129 105c57 0 63 -53 104 -53c25 0 51 20 69 55l46 -14c-29 -69 -79 -105 -132 -105c-62 0 -67 51 -105 51c-24 0 -48 -21 -65 -53zM353 -7c-178 0 -263 140 -214 351c50 215 204 359 387 359
c180 0 270 -139 222 -347c-50 -218 -209 -363 -395 -363zM379 65c133 0 248 112 287 279c40 172 -27 286 -166 286c-130 0 -242 -110 -280 -274c-40 -175 23 -291 159 -291z" />
    <glyph glyph-name="uni1E4D" unicode="&#x1e4d;" horiz-adv-x="495" 
d="M414 704l-24 31l128 169l41 -55zM274 554l-44 15c34 72 80 105 121 105c53 0 58 -53 96 -53c23 0 46 20 64 55l44 -14c-28 -69 -75 -105 -124 -105c-58 0 -61 51 -96 51c-22 0 -45 -22 -61 -54zM238 -10c-119 0 -175 92 -142 234c34 147 139 244 263 244
c119 0 176 -91 143 -233c-34 -147 -140 -245 -264 -245zM264 60c77 0 141 65 164 164c24 103 -15 174 -95 174c-77 0 -141 -64 -164 -164c-24 -104 15 -174 95 -174z" />
    <glyph glyph-name="uni1E4E" unicode="&#x1e4e;" horiz-adv-x="724" 
d="M489 959c-33 0 -48 21 -40 57s33 57 66 57s48 -21 40 -57s-33 -57 -66 -57zM675 959c-33 0 -48 21 -40 57s33 57 66 57s48 -21 40 -57s-33 -57 -66 -57zM425 762l-46 14c35 72 84 105 129 105c57 0 63 -53 104 -53c25 0 51 20 69 55l46 -14c-29 -69 -79 -105 -132 -105
c-62 0 -67 51 -105 51c-24 0 -48 -21 -65 -53zM353 -7c-178 0 -263 140 -214 351c50 215 204 359 387 359c180 0 270 -139 222 -347c-50 -218 -209 -363 -395 -363zM379 65c133 0 248 112 287 279c40 172 -27 286 -166 286c-130 0 -242 -110 -280 -274
c-40 -175 23 -291 159 -291z" />
    <glyph glyph-name="uni1E4F" unicode="&#x1e4f;" horiz-adv-x="501" 
d="M336 754c-32 0 -46 21 -38 57s32 57 64 57s46 -21 38 -57s-32 -57 -64 -57zM511 754c-32 0 -46 21 -38 57s32 57 64 57s46 -21 38 -57s-32 -57 -64 -57zM275 561l-44 15c34 72 82 105 124 105c54 0 59 -53 98 -53c24 0 47 20 65 55l44 -14c-28 -69 -76 -105 -126 -105
c-59 0 -62 51 -98 51c-23 0 -47 -22 -63 -54zM241 -10c-121 0 -178 92 -145 234c34 147 141 244 266 244c121 0 178 -91 145 -233c-34 -147 -141 -245 -266 -245zM267 60c78 0 144 65 167 164c24 103 -16 174 -98 174c-78 0 -144 -64 -167 -164c-24 -104 16 -174 98 -174z
" />
    <glyph glyph-name="uni1E50" unicode="&#x1e50;" horiz-adv-x="724" 
d="M587 907l-128 109l62 64l105 -131zM398 788l15 66h292l-16 -66h-291zM353 -7c-178 0 -263 140 -214 351c50 215 204 359 387 359c180 0 270 -139 222 -347c-50 -218 -209 -363 -395 -363zM379 65c133 0 248 112 287 279c40 172 -27 286 -166 286
c-130 0 -242 -110 -280 -274c-40 -175 23 -291 159 -291z" />
    <glyph glyph-name="uni1E51" unicode="&#x1e51;" horiz-adv-x="493" 
d="M392 679l-78 144l66 55l51 -168zM237 545l15 65h268l-15 -65h-268zM237 -10c-119 0 -174 92 -141 234c34 147 139 244 262 244c119 0 175 -91 142 -233c-34 -147 -140 -245 -263 -245zM263 60c76 0 140 65 163 164c24 103 -14 174 -94 174c-76 0 -140 -64 -163 -164
c-24 -104 14 -174 94 -174z" />
    <glyph glyph-name="uni1E52" unicode="&#x1e52;" horiz-adv-x="724" 
d="M557 907l-20 42l166 131l32 -64zM398 788l15 66h292l-16 -66h-291zM353 -7c-178 0 -263 140 -214 351c50 215 204 359 387 359c180 0 270 -139 222 -347c-50 -218 -209 -363 -395 -363zM379 65c133 0 248 112 287 279c40 172 -27 286 -166 286
c-130 0 -242 -110 -280 -274c-40 -175 23 -291 159 -291z" />
    <glyph glyph-name="uni1E53" unicode="&#x1e53;" horiz-adv-x="493" 
d="M407 679l-24 31l127 168l42 -55zM237 545l15 65h268l-15 -65h-268zM237 -10c-119 0 -174 92 -141 234c34 147 139 244 262 244c119 0 175 -91 142 -233c-34 -147 -140 -245 -263 -245zM263 60c76 0 140 65 163 164c24 103 -14 174 -94 174c-76 0 -140 -64 -163 -164
c-24 -104 14 -174 94 -174z" />
    <glyph glyph-name="uni1E5A" unicode="&#x1e5a;" horiz-adv-x="596" 
d="M95 0l160 694h214c132 0 199 -72 171 -194c-21 -93 -87 -167 -173 -200l95 -300h-93l-84 282c-8 -1 -14 -1 -21 -1h-127l-65 -281h-77zM443 622h-128l-62 -271h137c88 0 147 49 167 134c20 86 -22 137 -114 137zM251 -195c-33 0 -47 21 -39 57s33 57 66 57s48 -21 40 -57
s-34 -57 -67 -57z" />
    <glyph glyph-name="uni1E5B" unicode="&#x1e5b;" horiz-adv-x="329" 
d="M71 -4l107 462h59l-8 -70c42 47 94 75 144 75c19 0 36 -4 52 -11l-34 -74c-12 6 -27 9 -43 9c-46 0 -94 -24 -130 -64l-75 -327h-72zM62 -195c-32 0 -46 21 -38 57s32 57 64 57s46 -21 38 -57s-32 -57 -64 -57z" />
    <glyph glyph-name="uni1E5E" unicode="&#x1e5e;" horiz-adv-x="596" 
d="M95 0l160 694h214c132 0 199 -72 171 -194c-21 -93 -87 -167 -173 -200l95 -300h-93l-84 282c-8 -1 -14 -1 -21 -1h-127l-65 -281h-77zM443 622h-128l-62 -271h137c88 0 147 49 167 134c20 86 -22 137 -114 137zM111 -171l15 65h291l-15 -65h-291z" />
    <glyph glyph-name="uni1E5F" unicode="&#x1e5f;" horiz-adv-x="324" 
d="M70 -5l107 463h58l-8 -70c42 47 94 75 144 75c19 0 36 -4 52 -11l-34 -74c-12 6 -27 9 -43 9c-46 0 -93 -24 -129 -64l-76 -328h-71zM-43 -171l15 65h217l-15 -65h-217z" />
    <glyph glyph-name="uni1E60" unicode="&#x1e60;" horiz-adv-x="542" 
d="M446 778c-33 0 -48 21 -40 57s33 57 66 57s48 -21 40 -57s-33 -57 -66 -57zM257 -10c-69 0 -136 19 -200 54l38 65c57 -28 125 -45 184 -45c98 0 164 45 180 115c41 177 -341 88 -286 326c28 121 140 198 284 198c61 0 120 -14 169 -40l-38 -65c-42 21 -98 33 -153 33
c-99 0 -163 -40 -180 -113c-41 -179 344 -81 287 -327c-28 -122 -141 -201 -285 -201z" />
    <glyph glyph-name="uni1E61" unicode="&#x1e61;" horiz-adv-x="410" 
d="M340 595c-32 0 -45 21 -37 57s31 57 63 57s46 -21 38 -57s-32 -57 -64 -57zM199 -10c-54 0 -110 14 -153 39l32 63c40 -21 96 -34 141 -34c58 0 97 23 107 65c26 111 -242 44 -204 207c20 86 102 138 212 138c45 0 87 -9 119 -26l-32 -64c-33 13 -73 22 -109 22
c-63 0 -109 -25 -118 -65c-24 -103 244 -41 205 -208c-19 -84 -95 -137 -200 -137z" />
    <glyph glyph-name="uni1E62" unicode="&#x1e62;" horiz-adv-x="542" 
d="M257 -10c-69 0 -136 19 -200 54l38 65c57 -28 125 -45 184 -45c98 0 164 45 180 115c41 177 -341 88 -286 326c28 121 140 198 284 198c61 0 120 -14 169 -40l-38 -65c-42 21 -98 33 -153 33c-99 0 -163 -40 -180 -113c-41 -179 344 -81 287 -327
c-28 -122 -141 -201 -285 -201zM224 -195c-33 0 -48 21 -40 57s33 57 66 57s48 -21 40 -57s-33 -57 -66 -57z" />
    <glyph glyph-name="uni1E63" unicode="&#x1e63;" horiz-adv-x="410" 
d="M199 -10c-54 0 -110 14 -153 39l32 63c40 -21 96 -34 141 -34c58 0 97 23 107 65c26 111 -242 44 -204 207c20 86 102 138 212 138c45 0 87 -9 119 -26l-32 -64c-33 13 -73 22 -109 22c-63 0 -109 -25 -118 -65c-24 -103 244 -41 205 -208c-19 -84 -95 -137 -200 -137z
M162 -195c-32 0 -46 21 -38 57s32 57 64 57s46 -21 38 -57s-32 -57 -64 -57z" />
    <glyph glyph-name="uni1E64" unicode="&#x1e64;" horiz-adv-x="542" 
d="M425 885c-33 0 -48 21 -40 57s33 57 66 57s48 -21 40 -57s-33 -57 -66 -57zM426 744l-20 42l166 131l31 -64zM257 -10c-69 0 -136 19 -200 54l38 65c57 -28 125 -45 184 -45c98 0 164 45 180 115c41 177 -341 88 -286 326c28 121 140 198 284 198c61 0 120 -14 169 -40
l-38 -65c-42 21 -98 33 -153 33c-99 0 -163 -40 -180 -113c-41 -179 344 -81 287 -327c-28 -122 -141 -201 -285 -201z" />
    <glyph glyph-name="uni1E65" unicode="&#x1e65;" horiz-adv-x="410" 
d="M327 695c-29 0 -42 19 -34 52s29 52 58 52s42 -19 34 -52s-29 -52 -58 -52zM333 546l-24 34l132 164l41 -53zM198 -10c-54 0 -109 14 -152 39l32 63c40 -21 96 -34 141 -34c58 0 97 23 107 65c26 111 -242 44 -204 207c20 86 102 138 212 138c45 0 86 -9 118 -26l-31 -64
c-33 13 -73 22 -109 22c-63 0 -109 -25 -118 -65c-24 -103 244 -41 205 -208c-19 -84 -96 -137 -201 -137z" />
    <glyph glyph-name="uni1E66" unicode="&#x1e66;" horiz-adv-x="542" 
d="M478 920c-33 0 -48 21 -40 57s34 57 67 57s47 -21 39 -57s-33 -57 -66 -57zM424 754l-92 126l56 42l74 -100l128 101l24 -30l-150 -139h-40zM257 -10c-69 0 -136 19 -200 54l38 65c57 -28 125 -45 184 -45c98 0 164 45 180 115c41 177 -341 88 -286 326
c28 121 140 198 284 198c61 0 120 -14 169 -40l-38 -65c-42 21 -98 33 -153 33c-99 0 -163 -40 -180 -113c-41 -179 344 -81 287 -327c-28 -122 -141 -201 -285 -201z" />
    <glyph glyph-name="uni1E67" unicode="&#x1e67;" horiz-adv-x="410" 
d="M363 695c-29 0 -42 19 -34 52s29 52 58 52s42 -19 34 -52s-29 -52 -58 -52zM486 656l-141 -133h-39l-84 112l51 50l74 -86l118 88zM198 -10c-54 0 -109 14 -152 39l32 63c40 -21 96 -34 141 -34c58 0 97 23 107 65c26 111 -242 44 -204 207c20 86 102 138 212 138
c45 0 86 -9 118 -26l-31 -64c-33 13 -73 22 -109 22c-63 0 -109 -25 -118 -65c-24 -103 244 -41 205 -208c-19 -84 -96 -137 -201 -137z" />
    <glyph glyph-name="uni1E68" unicode="&#x1e68;" horiz-adv-x="542" 
d="M446 778c-33 0 -48 21 -40 57s33 57 66 57s48 -21 40 -57s-33 -57 -66 -57zM257 -10c-69 0 -136 19 -200 54l38 65c57 -28 125 -45 184 -45c98 0 164 45 180 115c41 177 -341 88 -286 326c28 121 140 198 284 198c61 0 120 -14 169 -40l-38 -65c-42 21 -98 33 -153 33
c-99 0 -163 -40 -180 -113c-41 -179 344 -81 287 -327c-28 -122 -141 -201 -285 -201zM224 -195c-33 0 -48 21 -40 57s33 57 66 57s48 -21 40 -57s-33 -57 -66 -57z" />
    <glyph glyph-name="uni1E69" unicode="&#x1e69;" horiz-adv-x="410" 
d="M340 595c-32 0 -45 21 -37 57s31 57 63 57s46 -21 38 -57s-32 -57 -64 -57zM199 -10c-54 0 -110 14 -153 39l32 63c40 -21 96 -34 141 -34c58 0 97 23 107 65c26 111 -242 44 -204 207c20 86 102 138 212 138c45 0 87 -9 119 -26l-32 -64c-33 13 -73 22 -109 22
c-63 0 -109 -25 -118 -65c-24 -103 244 -41 205 -208c-19 -84 -95 -137 -200 -137zM162 -195c-32 0 -46 21 -38 57s32 57 64 57s46 -21 38 -57s-32 -57 -64 -57z" />
    <glyph glyph-name="uni1E6C" unicode="&#x1e6c;" horiz-adv-x="551" 
d="M237 0l143 622h-215l17 72h508l-17 -72h-216l-143 -622h-77zM231 -195c-33 0 -48 21 -40 57s33 57 66 57s48 -21 40 -57s-33 -57 -66 -57z" />
    <glyph glyph-name="uni1E6D" unicode="&#x1e6d;" horiz-adv-x="316" 
d="M209 -5c-77 0 -116 51 -99 126l62 270h-56l16 67h55l38 165h72l-39 -165h116l-15 -67h-116l-59 -256c-10 -45 11 -75 55 -75c15 0 35 3 50 10l2 -57c-23 -10 -53 -18 -82 -18zM135 -190c-32 0 -46 21 -38 57s32 57 64 57s46 -21 38 -57s-32 -57 -64 -57z" />
    <glyph glyph-name="uni1E6E" unicode="&#x1e6e;" horiz-adv-x="551" 
d="M237 0l143 622h-215l17 72h508l-17 -72h-216l-143 -622h-77zM90 -171l15 65h291l-15 -65h-291z" />
    <glyph glyph-name="uni1E6F" unicode="&#x1e6f;" horiz-adv-x="312" 
d="M207 -5c-76 0 -114 51 -97 126l62 270h-56l16 67h55l38 165h72l-39 -165h113l-15 -67h-113l-59 -256c-10 -45 11 -75 54 -75c15 0 34 3 48 10l2 -57c-22 -10 -52 -18 -81 -18zM2 -166l15 65h271l-15 -65h-271z" />
    <glyph glyph-name="uni1E78" unicode="&#x1e78;" horiz-adv-x="657" 
d="M528 926l-20 42l166 131l32 -64zM391 762l-46 14c35 72 84 105 129 105c57 0 63 -53 104 -53c25 0 51 20 69 55l46 -14c-29 -69 -80 -105 -133 -105c-62 0 -66 51 -104 51c-24 0 -48 -21 -65 -53zM321 -10c-146 0 -216 100 -181 253l104 451h77l-102 -441
c-28 -120 19 -190 129 -190c104 0 180 64 205 173l106 458h75l-103 -448c-36 -154 -160 -256 -310 -256z" />
    <glyph glyph-name="uni1E79" unicode="&#x1e79;" horiz-adv-x="490" 
d="M408 719l-25 29l125 156l43 -51zM268 572l-44 14c34 72 81 105 122 105c53 0 57 -53 95 -53c23 0 47 20 65 55l44 -14c-28 -69 -75 -105 -124 -105c-58 0 -61 51 -96 51c-22 0 -46 -21 -62 -53zM246 482l-69 -300c-18 -78 9 -122 73 -122c37 0 79 16 115 44l87 378h71
l-111 -482h-50l-6 42c-47 -33 -98 -52 -144 -52c-89 0 -135 69 -110 176l73 316h71z" />
    <glyph glyph-name="uni1E7A" unicode="&#x1e7a;" horiz-adv-x="657" 
d="M450 940c-33 0 -48 21 -40 57s33 57 66 57s48 -21 40 -57s-33 -57 -66 -57zM636 940c-33 0 -48 21 -40 57s33 57 66 57s48 -21 40 -57s-33 -57 -66 -57zM364 788l15 66h292l-16 -66h-291zM321 -10c-146 0 -216 100 -181 253l104 451h77l-102 -441
c-28 -120 19 -190 129 -190c104 0 180 64 205 173l106 458h75l-103 -448c-36 -154 -160 -256 -310 -256z" />
    <glyph glyph-name="uni1E7B" unicode="&#x1e7b;" horiz-adv-x="495" 
d="M320 728c-32 0 -45 21 -37 57s32 57 64 57s45 -21 37 -57s-32 -57 -64 -57zM495 728c-32 0 -45 21 -37 57s32 57 64 57s45 -21 37 -57s-32 -57 -64 -57zM232 564l15 65h275l-15 -65h-275zM247 482l-70 -300c-18 -78 10 -122 76 -122c38 0 80 16 117 44l87 378h71
l-111 -482h-50l-6 42c-47 -33 -99 -52 -146 -52c-91 0 -138 69 -113 176l73 316h72z" />
    <glyph glyph-name="Wgrave" unicode="&#x1e80;" horiz-adv-x="943" 
d="M656 744l-128 109l62 64l105 -131zM231 0l-43 694h89l20 -586l291 581h87l32 -575l292 580h78l-362 -694h-74l-38 584l-295 -584h-77z" />
    <glyph glyph-name="wgrave" unicode="&#x1e81;" horiz-adv-x="673" 
d="M462 560l-80 134l65 51l53 -156zM163 0l-40 482h78l16 -396l195 394h77l15 -393l199 395h68l-256 -482h-69l-22 390l-196 -390h-65z" />
    <glyph glyph-name="Wacute" unicode="&#x1e82;" horiz-adv-x="943" 
d="M626 744l-20 42l166 131l32 -64zM231 0l-43 694h89l20 -586l291 581h87l32 -575l292 580h78l-362 -694h-74l-38 584l-295 -584h-77z" />
    <glyph glyph-name="wacute" unicode="&#x1e83;" horiz-adv-x="673" 
d="M477 560l-25 29l125 156l42 -51zM163 0l-40 482h78l16 -396l195 394h77l15 -393l199 395h68l-256 -482h-69l-22 390l-196 -390h-65z" />
    <glyph glyph-name="Wdieresis" unicode="&#x1e84;" horiz-adv-x="943" 
d="M553 777c-33 0 -48 21 -40 57s33 57 66 57s48 -21 40 -57s-33 -57 -66 -57zM739 777c-33 0 -48 21 -40 57s33 57 66 57s48 -21 40 -57s-33 -57 -66 -57zM231 0l-43 694h89l20 -586l291 581h87l32 -575l292 580h78l-362 -694h-74l-38 584l-295 -584h-77z" />
    <glyph glyph-name="wdieresis" unicode="&#x1e85;" horiz-adv-x="682" 
d="M397 595c-32 0 -46 21 -38 57s32 57 64 57s46 -21 38 -57s-32 -57 -64 -57zM572 595c-32 0 -46 21 -38 57s32 57 64 57s46 -21 38 -57s-32 -57 -64 -57zM163 0l-40 482h78l16 -396l199 394h77l19 -393l199 395h68l-256 -482h-71l-24 390l-200 -390h-65z" />
    <glyph glyph-name="uni1E8E" unicode="&#x1e8e;" horiz-adv-x="562" 
d="M464 778c-33 0 -48 21 -40 57s33 57 66 57s48 -21 40 -57s-33 -57 -66 -57zM245 0l69 299l-136 395h90l104 -323l249 323h85l-315 -395l-69 -299h-77z" />
    <glyph glyph-name="uni1E8F" unicode="&#x1e8f;" horiz-adv-x="416" 
d="M337 595c-32 0 -45 21 -37 57s31 57 63 57s46 -21 38 -57s-32 -57 -64 -57zM49 -217l126 217l-52 482h76l30 -404l219 404h68l-274 -482l-119 -217h-74z" />
    <glyph glyph-name="uni1E92" unicode="&#x1e92;" horiz-adv-x="606" 
d="M44 0l12 53l536 569h-392l17 72h494l-12 -52l-537 -570h417l-16 -72h-519zM258 -195c-33 0 -48 21 -40 57s33 57 66 57s48 -21 40 -57s-33 -57 -66 -57z" />
    <glyph glyph-name="uni1E93" unicode="&#x1e93;" horiz-adv-x="404" 
d="M34 0l11 49l317 342h-238l15 67h328l-12 -49l-317 -342h249l-16 -67h-337zM156 -195c-32 0 -46 21 -38 57s32 57 64 57s46 -21 38 -57s-32 -57 -64 -57z" />
    <glyph glyph-name="uni1E97" unicode="&#x1e97;" horiz-adv-x="318" 
d="M198 736c-32 0 -46 21 -38 57s32 57 64 57s46 -21 38 -57s-32 -57 -64 -57zM376 736c-32 0 -46 21 -38 57s32 57 64 57s46 -21 38 -57s-32 -57 -64 -57zM212 -5c-78 0 -117 51 -100 126l62 270h-58l16 67h58l35 154h71l-35 -154h117l-16 -67h-117l-59 -256
c-10 -45 12 -75 56 -75c15 0 35 3 50 10l3 -57c-23 -10 -54 -18 -83 -18z" />
    <glyph glyph-name="uni1E9E" unicode="&#x1e9e;" horiz-adv-x="662" 
d="M412 -10c-51 0 -100 13 -136 36l38 65c33 -17 80 -28 119 -28c73 0 125 39 141 108c19 84 -31 141 -143 161l179 233c-12 40 -62 66 -130 66c-107 0 -187 -65 -210 -163l-108 -468h-77l108 468c33 142 155 236 308 236c109 0 187 -47 201 -121l-157 -201
c96 -30 133 -107 111 -201c-27 -115 -124 -191 -244 -191z" />
    <glyph glyph-name="uni1EA0" unicode="&#x1ea0;" horiz-adv-x="628" 
d="M29 0l402 694h101l66 -694h-86l-17 206h-269l-116 -206h-81zM266 278h223l-29 345zM270 -195c-33 0 -48 21 -40 57s33 57 66 57s48 -21 40 -57s-33 -57 -66 -57z" />
    <glyph glyph-name="uni1EA1" unicode="&#x1ea1;" horiz-adv-x="453" 
d="M181 -10c-87 0 -131 53 -112 135c23 98 115 141 305 143l7 29c15 65 -16 99 -91 99c-41 0 -88 -10 -136 -30l-4 56c52 29 116 46 171 46c111 0 156 -61 131 -170l-68 -298h-50l-7 45c-42 -35 -92 -55 -146 -55zM143 134c-10 -44 19 -74 75 -74c44 0 86 16 119 44l25 109
c-142 -1 -206 -24 -219 -79zM183 -195c-32 0 -45 21 -37 57s32 57 64 57s45 -21 37 -57s-32 -57 -64 -57z" />
    <glyph glyph-name="uni1EA2" unicode="&#x1ea2;" horiz-adv-x="628" 
d="M478 739l-4 42c38 20 67 51 73 78c6 24 -8 40 -33 40c-19 0 -47 -9 -76 -23l-5 54c39 22 79 32 110 32c56 0 83 -33 71 -84c-12 -52 -60 -104 -136 -139zM29 0l402 694h101l66 -694h-86l-17 206h-269l-116 -206h-81zM266 278h223l-29 345z" />
    <glyph glyph-name="uni1EA3" unicode="&#x1ea3;" horiz-adv-x="451" 
d="M322 531l-2 47c36 22 64 57 71 87c6 27 -6 44 -29 44c-17 0 -43 -10 -71 -26l-3 57c36 22 74 32 103 32c52 0 76 -36 63 -91c-13 -56 -59 -112 -132 -150zM181 -10c-86 0 -131 53 -112 135c23 98 115 141 304 143l7 29c15 65 -16 99 -91 99c-41 0 -87 -10 -135 -30l-4 56
c52 29 115 46 170 46c110 0 156 -61 131 -170l-69 -298h-50l-6 45c-42 -35 -92 -55 -145 -55zM143 134c-10 -44 19 -74 74 -74c43 0 86 16 118 44l25 109c-140 -1 -204 -24 -217 -79z" />
    <glyph glyph-name="uni1EA4" unicode="&#x1ea4;" horiz-adv-x="628" 
d="M684 877l-25 30l147 152l40 -53zM363 776l154 116h40l87 -102l-53 -42l-79 74l-125 -74zM29 0l402 694h101l66 -694h-86l-17 206h-269l-116 -206h-81zM266 278h223l-29 345z" />
    <glyph glyph-name="uni1EA5" unicode="&#x1ea5;" horiz-adv-x="445" 
d="M474 630l-25 32l134 163l39 -57zM214 545l139 125h37l84 -110l-49 -45l-75 79l-112 -79zM179 -10c-86 0 -129 53 -110 135c23 98 114 141 301 143l7 29c15 65 -15 99 -89 99c-40 0 -86 -10 -134 -30l-4 56c52 29 114 46 169 46c109 0 154 -61 129 -170l-68 -298h-50
l-7 45c-42 -35 -91 -55 -144 -55zM143 134c-10 -44 18 -74 73 -74c43 0 85 16 117 44l25 109c-139 -1 -202 -24 -215 -79z" />
    <glyph glyph-name="uni1EA6" unicode="&#x1ea6;" horiz-adv-x="628" 
d="M676 879l-95 123l71 56l66 -146zM363 776l154 116h40l87 -102l-53 -42l-79 74l-125 -74zM29 0l402 694h101l66 -694h-86l-17 206h-269l-116 -206h-81zM266 278h223l-29 345z" />
    <glyph glyph-name="uni1EA7" unicode="&#x1ea7;" horiz-adv-x="449" 
d="M475 632l-91 132l63 60l66 -157zM214 545l139 125h37l84 -110l-49 -45l-75 79l-112 -79zM179 -10c-86 0 -129 53 -110 135c23 98 114 141 301 143l7 29c15 65 -15 99 -89 99c-40 0 -86 -10 -134 -30l-4 56c52 29 114 46 169 46c109 0 154 -61 129 -170l-68 -298h-50
l-7 45c-42 -35 -91 -55 -144 -55zM143 134c-10 -44 18 -74 73 -74c43 0 85 16 117 44l25 109c-139 -1 -202 -24 -215 -79z" />
    <glyph glyph-name="uni1EA8" unicode="&#x1ea8;" horiz-adv-x="628" 
d="M665 879l-1 40c38 14 66 38 72 58c5 17 -9 30 -34 30c-19 0 -46 -7 -75 -17l-2 52c38 17 82 25 111 25c56 0 82 -29 69 -72s-64 -88 -140 -116zM363 776l154 116h40l87 -102l-53 -42l-79 74l-125 -74zM29 0l402 694h101l66 -694h-86l-17 206h-269l-116 -206h-81zM266 278
h223l-29 345z" />
    <glyph glyph-name="uni1EA9" unicode="&#x1ea9;" horiz-adv-x="448" 
d="M474 634l-4 43c36 15 63 41 68 63c4 18 -8 33 -32 33c-18 0 -44 -7 -71 -18l-4 53c36 17 76 25 103 25c53 0 79 -30 68 -76s-56 -93 -128 -123zM214 546l139 126h37l85 -111l-50 -45l-75 80l-112 -80zM179 -10c-86 0 -129 53 -110 135c23 98 114 141 301 143l7 29
c15 65 -15 99 -89 99c-40 0 -86 -10 -134 -30l-4 56c52 29 114 46 169 46c109 0 155 -61 130 -170l-69 -298h-50l-7 45c-42 -35 -91 -55 -144 -55zM143 134c-10 -44 18 -74 73 -74c43 0 85 16 117 44l25 109c-139 -1 -202 -24 -215 -79z" />
    </font>
</defs>
</svg>
