<?xml version="1.0" standalone="no"?>
<!DOCTYPE svg PUBLIC "-//W3C//DTD SVG 1.1//EN" "http://www.w3.org/Graphics/SVG/1.1/DTD/svg11.dtd" >
<svg xmlns="http://www.w3.org/2000/svg" xmlns:xlink="http://www.w3.org/1999/xlink" version="1.1">
<metadata>
Created by FontForge 20201107 at Sun Oct  4 15:41:22 2020
 By Reinhart Previano Koentjoro
Copyright c 2009--2017 The Cantarell Authors
</metadata>
<defs>
<font id="Cantarell-ExtraBold" horiz-adv-x="0" >
  <font-face 
    font-family="Cantarell"
    font-weight="800"
    font-stretch="normal"
    units-per-em="1000"
    panose-1="0 0 0 0 0 0 0 0 0 0"
    ascent="800"
    descent="-200"
    x-height="490"
    cap-height="694"
    bbox="-220 -258 1574 1228"
    underline-thickness="50"
    underline-position="-125"
    stemh="140"
    stemv="174"
    unicode-range="U+0020-FB02"
  />
<missing-glyph horiz-adv-x="500" 
d="M50 -217v956h400v-956h-400zM100 -167h300v856h-300v-856z" />
    <glyph glyph-name="f_f" unicode="ff" horiz-adv-x="766" 
d="M85 0v355h-78v135h78v38c0 133 87 221 217 221c47 0 93 -12 124 -32l-34 -123c-13 7 -41 13 -65 13c-50 0 -78 -25 -78 -67v-50h130v-135h-130v-355h-164zM468 0v355h-78v135h78v38c0 133 87 221 217 221c47 0 93 -12 124 -32l-34 -123c-13 7 -41 13 -65 13
c-50 0 -78 -25 -78 -67v-50h130v-135h-130v-355h-164z" />
    <glyph glyph-name="f_f_i" unicode="ffi" horiz-adv-x="1053" 
d="M910 557c-59 0 -99 40 -99 99c0 60 40 100 99 100s99 -40 99 -100c0 -59 -40 -99 -99 -99zM85 0v355h-78v135h78v38c0 133 87 221 217 221c47 0 93 -12 124 -32l-34 -123c-13 7 -41 13 -65 13c-50 0 -78 -25 -78 -67v-50h130v-135h-130v-355h-164zM468 0v355h-78v135h78
v38c0 133 87 221 217 221c47 0 93 -12 124 -32l-34 -123c-13 7 -41 13 -65 13c-50 0 -78 -25 -78 -67v-50h130v-135h-130v-355h-164zM823 0v490h173v-490h-173z" />
    <glyph glyph-name="f_f_l" unicode="ffl" horiz-adv-x="1076" 
d="M85 0v355h-78v135h78v38c0 133 87 221 217 221c47 0 93 -12 124 -32l-34 -123c-13 7 -41 13 -65 13c-50 0 -78 -25 -78 -67v-50h130v-135h-130v-355h-164zM468 0v355h-78v135h78v38c0 133 87 221 217 221c47 0 93 -12 124 -32l-34 -123c-13 7 -41 13 -65 13
c-50 0 -78 -25 -78 -67v-50h130v-135h-130v-355h-164zM974 -8c-103 0 -162 56 -162 155v592h170v-571c0 -31 14 -47 40 -47c6 0 17 1 27 4l34 -114c-33 -12 -72 -19 -109 -19z" />
    <glyph glyph-name="fi" unicode="fi" horiz-adv-x="670" 
d="M527 557c-59 0 -99 40 -99 99c0 60 40 100 99 100s99 -40 99 -100c0 -59 -40 -99 -99 -99zM85 0v355h-78v135h78v38c0 133 87 221 217 221c47 0 93 -12 124 -32l-34 -123c-13 7 -41 13 -65 13c-50 0 -78 -25 -78 -67v-50h130v-135h-130v-355h-164zM440 0v490h173v-490
h-173z" />
    <glyph glyph-name="fl" unicode="fl" horiz-adv-x="693" 
d="M85 0v355h-78v135h78v38c0 133 87 221 217 221c47 0 93 -12 124 -32l-34 -123c-13 7 -41 13 -65 13c-50 0 -78 -25 -78 -67v-50h130v-135h-130v-355h-164zM591 -8c-103 0 -162 56 -162 155v592h170v-571c0 -31 14 -47 40 -47c6 0 17 1 27 4l34 -114
c-33 -12 -72 -19 -109 -19z" />
    <glyph glyph-name=".notdef" horiz-adv-x="500" 
d="M50 -217v956h400v-956h-400zM100 -167h300v856h-300v-856z" />
    <glyph glyph-name="A" unicode="A" horiz-adv-x="708" 
d="M1 0l247 694h221l237 -694h-191l-45 143h-242l-42 -143h-185zM275 299h147l-75 242z" />
    <glyph glyph-name="Aacute" unicode="&#xc1;" horiz-adv-x="708" 
d="M337 734l-68 93l179 156l98 -134zM1 0l247 694h221l237 -694h-191l-45 143h-242l-42 -143h-185zM275 299h147l-75 242z" />
    <glyph glyph-name="Abreve" unicode="&#x102;" horiz-adv-x="708" 
d="M342 741c-105 0 -188 58 -202 153l124 77c6 -60 45 -100 97 -100c50 0 88 37 93 101l81 -56c-17 -107 -92 -175 -193 -175zM1 0l247 694h221l237 -694h-191l-45 143h-242l-42 -143h-185zM275 299h147l-75 242z" />
    <glyph glyph-name="uni1EAE" unicode="&#x1eae;" horiz-adv-x="708" 
d="M382 929l-70 64l132 174l110 -98zM347 723c-99 0 -175 54 -183 129l113 64c17 -44 57 -72 101 -72c50 0 91 31 99 75l73 -53c-23 -87 -103 -143 -203 -143zM1 0l247 694h221l237 -694h-191l-45 143h-242l-42 -143h-185zM275 299h147l-75 242z" />
    <glyph glyph-name="uni1EB6" unicode="&#x1eb6;" horiz-adv-x="708" 
d="M342 741c-105 0 -188 58 -202 153l124 77c6 -60 45 -100 97 -100c50 0 88 37 93 101l81 -56c-17 -107 -92 -175 -193 -175zM1 0l247 694h221l237 -694h-191l-45 143h-242l-42 -143h-185zM275 299h147l-75 242zM353 -225c-59 0 -99 40 -99 99c0 60 40 100 99 100
s99 -40 99 -100c0 -59 -40 -99 -99 -99z" />
    <glyph glyph-name="uni1EB0" unicode="&#x1eb0;" horiz-adv-x="708" 
d="M341 930l-158 135l121 102l114 -170zM347 723c-99 0 -175 54 -183 129l113 64c17 -44 57 -72 101 -72c50 0 91 31 99 75l73 -53c-23 -87 -103 -143 -203 -143zM1 0l247 694h221l237 -694h-191l-45 143h-242l-42 -143h-185zM275 299h147l-75 242z" />
    <glyph glyph-name="uni1EB2" unicode="&#x1eb2;" horiz-adv-x="708" 
d="M340 953l-23 75c26 5 43 19 44 32c0 12 -9 18 -31 18c-14 0 -29 -2 -53 -10l-32 94c45 16 90 25 128 25c76 0 123 -38 119 -93c-4 -57 -61 -112 -152 -141zM347 723c-99 0 -175 54 -183 129l113 64c17 -44 57 -72 101 -72c50 0 91 31 99 75l73 -53
c-23 -87 -103 -143 -203 -143zM1 0l247 694h221l237 -694h-191l-45 143h-242l-42 -143h-185zM275 299h147l-75 242z" />
    <glyph glyph-name="uni1EB4" unicode="&#x1eb4;" horiz-adv-x="708" 
d="M269 990l-96 23c19 83 73 139 136 139c49 0 83 -35 110 -35c16 0 32 12 42 36l94 -25c-15 -81 -74 -131 -142 -131c-55 0 -76 32 -103 32c-15 0 -32 -14 -41 -39zM347 723c-99 0 -175 54 -183 129l113 64c17 -44 57 -72 101 -72c50 0 91 31 99 75l73 -53
c-23 -87 -103 -143 -203 -143zM1 0l247 694h221l237 -694h-191l-45 143h-242l-42 -143h-185zM275 299h147l-75 242z" />
    <glyph glyph-name="uni01CD" unicode="&#x1cd;" horiz-adv-x="708" 
d="M311 742l-151 136l100 90l103 -94l108 93l68 -58l-142 -167h-86zM1 0l247 694h221l237 -694h-191l-45 143h-242l-42 -143h-185zM275 299h147l-75 242z" />
    <glyph glyph-name="Acircumflex" unicode="&#xc2;" horiz-adv-x="708" 
d="M174 794l146 168h85l147 -137l-96 -91l-104 84l-109 -83zM1 0l247 694h221l237 -694h-191l-45 143h-242l-42 -143h-185zM275 299h147l-75 242z" />
    <glyph glyph-name="uni1EA4" unicode="&#x1ea4;" horiz-adv-x="708" 
d="M560 881l-70 64l132 174l110 -98zM175 775l156 143h85l139 -112l-102 -91l-99 70l-114 -69zM1 0l247 694h221l237 -694h-191l-45 143h-242l-42 -143h-185zM275 299h147l-75 242z" />
    <glyph glyph-name="uni1EAC" unicode="&#x1eac;" horiz-adv-x="708" 
d="M174 794l146 168h85l147 -137l-96 -91l-104 84l-109 -83zM1 0l247 694h221l237 -694h-191l-45 143h-242l-42 -143h-185zM275 299h147l-75 242zM353 -225c-59 0 -99 40 -99 99c0 60 40 100 99 100s99 -40 99 -100c0 -59 -40 -99 -99 -99z" />
    <glyph glyph-name="uni1EA6" unicode="&#x1ea6;" horiz-adv-x="708" 
d="M519 882l-158 135l121 102l114 -170zM175 775l156 143h85l139 -112l-102 -91l-99 70l-114 -69zM1 0l247 694h221l237 -694h-191l-45 143h-242l-42 -143h-185zM275 299h147l-75 242z" />
    <glyph glyph-name="uni1EA8" unicode="&#x1ea8;" horiz-adv-x="708" 
d="M518 905l-23 75c26 5 43 19 44 32c0 12 -9 18 -31 18c-14 0 -29 -2 -53 -10l-32 94c45 16 90 25 128 25c76 0 123 -38 119 -93c-4 -57 -61 -112 -152 -141zM175 775l156 143h85l139 -112l-102 -91l-99 70l-114 -69zM1 0l247 694h221l237 -694h-191l-45 143h-242l-42 -143
h-185zM275 299h147l-75 242z" />
    <glyph glyph-name="uni1EAA" unicode="&#x1eaa;" horiz-adv-x="708" 
d="M274 1010l-96 23c19 83 73 139 136 139c49 0 83 -35 110 -35c16 0 32 12 42 36l94 -25c-15 -81 -74 -131 -142 -131c-55 0 -76 32 -103 32c-15 0 -32 -14 -41 -39zM175 775l156 143h85l139 -112l-102 -91l-99 70l-114 -69zM1 0l247 694h221l237 -694h-191l-45 143h-242
l-42 -143h-185zM275 299h147l-75 242z" />
    <glyph glyph-name="uni0200" unicode="&#x200;" horiz-adv-x="708" 
d="M508 739l-176 132l119 115l133 -174zM253 739l-176 132l119 115l133 -174zM1 0l247 694h221l237 -694h-191l-45 143h-242l-42 -143h-185zM275 299h147l-75 242z" />
    <glyph glyph-name="Adieresis" unicode="&#xc4;" horiz-adv-x="708" 
d="M222 747c-59 0 -99 40 -99 99c0 60 40 100 99 100s99 -40 99 -100c0 -59 -40 -99 -99 -99zM472 747c-59 0 -99 40 -99 99c0 60 40 100 99 100s99 -40 99 -100c0 -59 -40 -99 -99 -99zM1 0l247 694h221l237 -694h-191l-45 143h-242l-42 -143h-185zM275 299h147l-75 242z
" />
    <glyph glyph-name="uni1EA0" unicode="&#x1ea0;" horiz-adv-x="708" 
d="M1 0l247 694h221l237 -694h-191l-45 143h-242l-42 -143h-185zM275 299h147l-75 242zM353 -225c-59 0 -99 40 -99 99c0 60 40 100 99 100s99 -40 99 -100c0 -59 -40 -99 -99 -99z" />
    <glyph glyph-name="Agrave" unicode="&#xc0;" horiz-adv-x="708" 
d="M369 734l-209 115l98 134l179 -156zM1 0l247 694h221l237 -694h-191l-45 143h-242l-42 -143h-185zM275 299h147l-75 242z" />
    <glyph glyph-name="uni1EA2" unicode="&#x1ea2;" horiz-adv-x="708" 
d="M325 745l-28 77c27 11 41 28 41 49c0 15 -13 25 -33 25c-15 0 -32 -5 -51 -15l-39 102c44 21 87 32 126 32c76 0 126 -42 126 -106c0 -67 -53 -128 -142 -164zM1 0l247 694h221l237 -694h-191l-45 143h-242l-42 -143h-185zM275 299h147l-75 242z" />
    <glyph glyph-name="uni0202" unicode="&#x202;" horiz-adv-x="708" 
d="M248 708l-81 56c17 107 90 175 190 175c101 0 185 -58 198 -153l-124 -77c-5 60 -45 100 -94 100c-48 0 -85 -38 -89 -101zM1 0l247 694h221l237 -694h-191l-45 143h-242l-42 -143h-185zM275 299h147l-75 242z" />
    <glyph glyph-name="Amacron" unicode="&#x100;" horiz-adv-x="708" 
d="M176 769v136h360v-136h-360zM1 0l247 694h221l237 -694h-191l-45 143h-242l-42 -143h-185zM275 299h147l-75 242z" />
    <glyph glyph-name="Aogonek" unicode="&#x104;" horiz-adv-x="708" 
d="M1 0l247 694h221l237 -694c-62 -21 -100 -61 -100 -105c0 -25 16 -46 41 -46c8 0 26 3 40 10l13 -90c-27 -15 -64 -25 -104 -25c-88 0 -140 47 -140 116c0 61 41 112 109 140h-50l-45 143h-242l-42 -143h-185zM275 299h147l-75 242z" />
    <glyph glyph-name="Aring" unicode="&#xc5;" horiz-adv-x="708" 
d="M353 739c-77 0 -129 52 -129 131c0 77 52 128 131 128c77 0 129 -50 129 -126c0 -80 -52 -133 -131 -133zM355 825c25 0 42 18 42 45c0 25 -18 42 -44 42c-25 0 -42 -16 -42 -40c0 -28 18 -47 44 -47zM1 0l247 694h221l237 -694h-191l-45 143h-242l-42 -143h-185z
M275 299h147l-75 242z" />
    <glyph glyph-name="Aringacute" unicode="&#x1fa;" horiz-adv-x="708" 
d="M346 739c-77 0 -129 52 -129 131c0 77 52 128 131 128c31 0 58 -8 79 -23l139 84l73 -149l-163 -55c-7 -71 -57 -116 -130 -116zM348 825c25 0 42 18 42 45c0 7 -1 13 -4 18l-1 3c-7 13 -21 21 -39 21c-25 0 -42 -16 -42 -40c0 -28 18 -47 44 -47zM1 0l247 694h221
l237 -694h-191l-45 143h-242l-42 -143h-185zM275 299h147l-75 242z" />
    <glyph glyph-name="Atilde" unicode="&#xc3;" horiz-adv-x="708" 
d="M265 749l-106 25c13 94 67 156 136 156c52 0 92 -42 120 -42c18 0 34 14 43 44l105 -27c-11 -91 -69 -149 -144 -149c-58 0 -83 40 -113 40c-15 0 -32 -16 -41 -47zM1 0l247 694h221l237 -694h-191l-45 143h-242l-42 -143h-185zM275 299h147l-75 242z" />
    <glyph glyph-name="AE" unicode="&#xc6;" horiz-adv-x="1023" 
d="M-4 0l417 694h565v-152h-325v-112h297v-152h-297v-126h325v-152h-498v149h-210l-84 -149h-190zM357 305h123v218z" />
    <glyph glyph-name="AEacute" unicode="&#x1fc;" horiz-adv-x="1023" 
d="M532 734l-68 93l179 156l98 -134zM-4 0l417 694h565v-152h-325v-112h297v-152h-297v-126h325v-152h-498v149h-210l-84 -149h-190zM357 305h123v218z" />
    <glyph glyph-name="B" unicode="B" horiz-adv-x="652" 
d="M67 0v694h248c171 0 260 -56 260 -163c0 -51 -23 -96 -63 -126c78 -30 122 -92 122 -178c0 -136 -116 -227 -291 -227h-276zM237 558v-134h126c25 17 38 39 38 64c0 42 -38 70 -96 70h-68zM237 136h129c58 0 88 25 88 74c0 50 -36 82 -98 82h-119v-156z" />
    <glyph glyph-name="C" unicode="C" horiz-adv-x="624" 
d="M383 -10c-212 0 -358 141 -358 352c0 218 156 362 380 362c70 0 135 -14 202 -43l-48 -136c-38 16 -101 26 -156 26c-127 0 -198 -65 -198 -192c0 -135 80 -217 220 -217c44 0 95 8 135 22l38 -125c-53 -29 -139 -49 -215 -49z" />
    <glyph glyph-name="Cacute" unicode="&#x106;" horiz-adv-x="624" 
d="M333 734l-68 93l179 156l98 -134zM383 -10c-212 0 -358 141 -358 352c0 218 156 362 380 362c70 0 135 -14 202 -43l-48 -136c-38 16 -101 26 -156 26c-127 0 -198 -65 -198 -192c0 -135 80 -217 220 -217c44 0 95 8 135 22l38 -125c-53 -29 -139 -49 -215 -49z" />
    <glyph glyph-name="Ccaron" unicode="&#x10c;" horiz-adv-x="624" 
d="M307 742l-151 136l100 90l103 -94l108 93l68 -58l-142 -167h-86zM383 -10c-212 0 -358 141 -358 352c0 218 156 362 380 362c70 0 135 -14 202 -43l-48 -136c-38 16 -101 26 -156 26c-127 0 -198 -65 -198 -192c0 -135 80 -217 220 -217c44 0 95 8 135 22l38 -125
c-53 -29 -139 -49 -215 -49z" />
    <glyph glyph-name="Ccedilla" unicode="&#xc7;" horiz-adv-x="624" 
d="M340 -258c-43 0 -87 8 -115 23l17 92c21 -9 56 -15 82 -15c29 0 45 8 45 21c0 21 -30 35 -95 41l18 95c-162 35 -267 164 -267 343c0 218 156 362 380 362c70 0 135 -14 202 -43l-48 -136c-38 16 -101 26 -156 26c-127 0 -198 -65 -198 -192c0 -135 80 -217 220 -217
c44 0 95 8 135 22l38 -125c-48 -26 -123 -45 -193 -48l-7 -35c73 -11 108 -43 108 -95c0 -73 -64 -119 -166 -119z" />
    <glyph glyph-name="uni1E08" unicode="&#x1e08;" horiz-adv-x="624" 
d="M333 734l-68 93l179 156l98 -134zM340 -258c-43 0 -87 8 -115 23l17 92c21 -9 56 -15 82 -15c29 0 45 8 45 21c0 21 -30 35 -95 41l18 95c-162 35 -267 164 -267 343c0 218 156 362 380 362c70 0 135 -14 202 -43l-48 -136c-38 16 -101 26 -156 26
c-127 0 -198 -65 -198 -192c0 -135 80 -217 220 -217c44 0 95 8 135 22l38 -125c-48 -26 -123 -45 -193 -48l-7 -35c73 -11 108 -43 108 -95c0 -73 -64 -119 -166 -119z" />
    <glyph glyph-name="Ccircumflex" unicode="&#x108;" horiz-adv-x="624" 
d="M170 794l146 168h85l147 -137l-96 -91l-104 84l-109 -83zM383 -10c-212 0 -358 141 -358 352c0 218 156 362 380 362c70 0 135 -14 202 -43l-48 -136c-38 16 -101 26 -156 26c-127 0 -198 -65 -198 -192c0 -135 80 -217 220 -217c44 0 95 8 135 22l38 -125
c-53 -29 -139 -49 -215 -49z" />
    <glyph glyph-name="Cdotaccent" unicode="&#x10a;" horiz-adv-x="624" 
d="M320 747c-59 0 -99 40 -99 99c0 60 40 100 99 100s99 -40 99 -100c0 -59 -40 -99 -99 -99zM383 -10c-212 0 -358 141 -358 352c0 218 156 362 380 362c70 0 135 -14 202 -43l-48 -136c-38 16 -101 26 -156 26c-127 0 -198 -65 -198 -192c0 -135 80 -217 220 -217
c44 0 95 8 135 22l38 -125c-53 -29 -139 -49 -215 -49z" />
    <glyph glyph-name="D" unicode="D" horiz-adv-x="734" 
d="M67 0v694h260c240 0 382 -124 382 -333c0 -218 -157 -361 -395 -361h-247zM237 149h97c126 0 195 68 195 192c0 128 -79 204 -212 204h-80v-396z" />
    <glyph glyph-name="uni01C4" unicode="&#x1c4;" horiz-adv-x="1384" 
d="M1023 742l-151 136l100 90l103 -94l108 93l68 -58l-142 -167h-86zM67 0v694h260c240 0 382 -124 382 -333c0 -218 -157 -361 -395 -361h-247zM756 0v111l356 431h-338v152h580v-103l-363 -439h368v-152h-603zM237 149h97c126 0 195 68 195 192c0 128 -79 204 -212 204
h-80v-396z" />
    <glyph glyph-name="Eth" unicode="&#xd0;" horiz-adv-x="734" 
d="M67 0v284h-87v120h87v290h260c240 0 382 -124 382 -333c0 -218 -157 -361 -395 -361h-247zM237 149h97c126 0 195 68 195 192c0 128 -79 204 -212 204h-80v-141h134v-120h-134v-135z" />
    <glyph glyph-name="Dcaron" unicode="&#x10e;" horiz-adv-x="734" 
d="M293 742l-151 136l100 90l103 -94l108 93l68 -58l-142 -167h-86zM67 0v694h260c240 0 382 -124 382 -333c0 -218 -157 -361 -395 -361h-247zM237 149h97c126 0 195 68 195 192c0 128 -79 204 -212 204h-80v-396z" />
    <glyph glyph-name="Dcroat" unicode="&#x110;" horiz-adv-x="734" 
d="M67 0v284h-87v120h87v290h260c240 0 382 -124 382 -333c0 -218 -157 -361 -395 -361h-247zM237 149h97c126 0 195 68 195 192c0 128 -79 204 -212 204h-80v-141h134v-120h-134v-135z" />
    <glyph glyph-name="uni1E0C" unicode="&#x1e0c;" horiz-adv-x="734" 
d="M67 0v694h260c240 0 382 -124 382 -333c0 -218 -157 -361 -395 -361h-247zM237 149h97c126 0 195 68 195 192c0 128 -79 204 -212 204h-80v-396zM358 -225c-59 0 -99 40 -99 99c0 60 40 100 99 100s99 -40 99 -100c0 -59 -40 -99 -99 -99z" />
    <glyph glyph-name="uni1E0E" unicode="&#x1e0e;" horiz-adv-x="734" 
d="M67 0v694h260c240 0 382 -124 382 -333c0 -218 -157 -361 -395 -361h-247zM237 149h97c126 0 195 68 195 192c0 128 -79 204 -212 204h-80v-396zM181 -206v135h353v-135h-353z" />
    <glyph glyph-name="uni01C5" unicode="&#x1c5;" horiz-adv-x="1224" 
d="M939 547l-151 136l100 90l103 -94l108 93l68 -58l-142 -167h-86zM67 0v694h260c240 0 382 -124 382 -333c0 -218 -157 -361 -395 -361h-247zM237 149h97c126 0 195 68 195 192c0 128 -79 204 -212 204h-80v-396zM762 0v103l205 246h-205v141h426v-104l-205 -245h218v-141
h-439z" />
    <glyph glyph-name="E" unicode="E" horiz-adv-x="610" 
d="M67 0v694h498v-152h-325v-114h297v-152h-297v-124h325v-152h-498z" />
    <glyph glyph-name="Eacute" unicode="&#xc9;" horiz-adv-x="610" 
d="M297 734l-68 93l179 156l98 -134zM67 0v694h498v-152h-325v-114h297v-152h-297v-124h325v-152h-498z" />
    <glyph glyph-name="Ebreve" unicode="&#x114;" horiz-adv-x="610" 
d="M302 741c-105 0 -188 58 -202 153l124 77c6 -60 45 -100 97 -100c50 0 88 37 93 101l81 -56c-17 -107 -92 -175 -193 -175zM67 0v694h498v-152h-325v-114h297v-152h-297v-124h325v-152h-498z" />
    <glyph glyph-name="Ecaron" unicode="&#x11a;" horiz-adv-x="610" 
d="M271 742l-151 136l100 90l103 -94l108 93l68 -58l-142 -167h-86zM67 0v694h498v-152h-325v-114h297v-152h-297v-124h325v-152h-498z" />
    <glyph glyph-name="uni1E1C" unicode="&#x1e1c;" horiz-adv-x="610" 
d="M302 741c-105 0 -188 58 -202 153l124 77c6 -60 45 -100 97 -100c50 0 88 37 93 101l81 -56c-17 -107 -92 -175 -193 -175zM67 0v694h498v-152h-325v-114h297v-152h-297v-124h325v-152h-187l-9 -44c73 -11 108 -43 108 -95c0 -73 -64 -119 -166 -119c-43 0 -87 8 -115 23
l17 92c21 -9 56 -15 82 -15c29 0 45 8 45 21c0 21 -30 35 -95 41l18 96h-196z" />
    <glyph glyph-name="Ecircumflex" unicode="&#xca;" horiz-adv-x="610" 
d="M134 794l146 168h85l147 -137l-96 -91l-104 84l-109 -83zM67 0v694h498v-152h-325v-114h297v-152h-297v-124h325v-152h-498z" />
    <glyph glyph-name="uni1EBE" unicode="&#x1ebe;" horiz-adv-x="610" 
d="M520 881l-70 64l132 174l110 -98zM135 775l156 143h85l139 -112l-102 -91l-99 70l-114 -69zM67 0v694h498v-152h-325v-114h297v-152h-297v-124h325v-152h-498z" />
    <glyph glyph-name="uni1EC6" unicode="&#x1ec6;" horiz-adv-x="610" 
d="M134 794l146 168h85l147 -137l-96 -91l-104 84l-109 -83zM67 0v694h498v-152h-325v-114h297v-152h-297v-124h325v-152h-498zM320 -225c-59 0 -99 40 -99 99c0 60 40 100 99 100s99 -40 99 -100c0 -59 -40 -99 -99 -99z" />
    <glyph glyph-name="uni1EC0" unicode="&#x1ec0;" horiz-adv-x="610" 
d="M479 882l-158 135l121 102l114 -170zM135 775l156 143h85l139 -112l-102 -91l-99 70l-114 -69zM67 0v694h498v-152h-325v-114h297v-152h-297v-124h325v-152h-498z" />
    <glyph glyph-name="uni1EC2" unicode="&#x1ec2;" horiz-adv-x="610" 
d="M478 905l-23 75c26 5 43 19 44 32c0 12 -9 18 -31 18c-14 0 -29 -2 -53 -10l-32 94c45 16 90 25 128 25c76 0 123 -38 119 -93c-4 -57 -61 -112 -152 -141zM135 775l156 143h85l139 -112l-102 -91l-99 70l-114 -69zM67 0v694h498v-152h-325v-114h297v-152h-297v-124h325
v-152h-498z" />
    <glyph glyph-name="uni1EC4" unicode="&#x1ec4;" horiz-adv-x="610" 
d="M234 1010l-96 23c19 83 73 139 136 139c49 0 83 -35 110 -35c16 0 32 12 42 36l94 -25c-15 -81 -74 -131 -142 -131c-55 0 -76 32 -103 32c-15 0 -32 -14 -41 -39zM135 775l156 143h85l139 -112l-102 -91l-99 70l-114 -69zM67 0v694h498v-152h-325v-114h297v-152h-297
v-124h325v-152h-498z" />
    <glyph glyph-name="uni0204" unicode="&#x204;" horiz-adv-x="610" 
d="M468 739l-176 132l119 115l133 -174zM213 739l-176 132l119 115l133 -174zM67 0v694h498v-152h-325v-114h297v-152h-297v-124h325v-152h-498z" />
    <glyph glyph-name="Edieresis" unicode="&#xcb;" horiz-adv-x="610" 
d="M182 747c-59 0 -99 40 -99 99c0 60 40 100 99 100s99 -40 99 -100c0 -59 -40 -99 -99 -99zM432 747c-59 0 -99 40 -99 99c0 60 40 100 99 100s99 -40 99 -100c0 -59 -40 -99 -99 -99zM67 0v694h498v-152h-325v-114h297v-152h-297v-124h325v-152h-498z" />
    <glyph glyph-name="Edotaccent" unicode="&#x116;" horiz-adv-x="610" 
d="M284 747c-59 0 -99 40 -99 99c0 60 40 100 99 100s99 -40 99 -100c0 -59 -40 -99 -99 -99zM67 0v694h498v-152h-325v-114h297v-152h-297v-124h325v-152h-498z" />
    <glyph glyph-name="uni1EB8" unicode="&#x1eb8;" horiz-adv-x="610" 
d="M67 0v694h498v-152h-325v-114h297v-152h-297v-124h325v-152h-498zM320 -225c-59 0 -99 40 -99 99c0 60 40 100 99 100s99 -40 99 -100c0 -59 -40 -99 -99 -99z" />
    <glyph glyph-name="Egrave" unicode="&#xc8;" horiz-adv-x="610" 
d="M329 734l-209 115l98 134l179 -156zM67 0v694h498v-152h-325v-114h297v-152h-297v-124h325v-152h-498z" />
    <glyph glyph-name="uni1EBA" unicode="&#x1eba;" horiz-adv-x="610" 
d="M285 745l-28 77c27 11 41 28 41 49c0 15 -13 25 -33 25c-15 0 -32 -5 -51 -15l-39 102c44 21 87 32 126 32c76 0 126 -42 126 -106c0 -67 -53 -128 -142 -164zM67 0v694h498v-152h-325v-114h297v-152h-297v-124h325v-152h-498z" />
    <glyph glyph-name="uni0206" unicode="&#x206;" horiz-adv-x="610" 
d="M208 708l-81 56c17 107 90 175 190 175c101 0 185 -58 198 -153l-124 -77c-5 60 -45 100 -94 100c-48 0 -85 -38 -89 -101zM67 0v694h498v-152h-325v-114h297v-152h-297v-124h325v-152h-498z" />
    <glyph glyph-name="Emacron" unicode="&#x112;" horiz-adv-x="610" 
d="M136 769v136h360v-136h-360zM67 0v694h498v-152h-325v-114h297v-152h-297v-124h325v-152h-498z" />
    <glyph glyph-name="uni1E16" unicode="&#x1e16;" horiz-adv-x="610" 
d="M297 942l-68 93l179 156l98 -134zM136 769v136h360v-136h-360zM67 0v694h498v-152h-325v-114h297v-152h-297v-124h325v-152h-498z" />
    <glyph glyph-name="uni1E14" unicode="&#x1e14;" horiz-adv-x="610" 
d="M329 942l-209 115l98 134l179 -156zM136 769v136h360v-136h-360zM67 0v694h498v-152h-325v-114h297v-152h-297v-124h325v-152h-498z" />
    <glyph glyph-name="Eogonek" unicode="&#x118;" horiz-adv-x="610" 
d="M67 0v694h498v-152h-325v-114h297v-152h-297v-124h325v-152c-62 -21 -100 -61 -100 -105c0 -25 16 -46 41 -46c8 0 26 3 40 10l13 -90c-27 -15 -64 -25 -104 -25c-88 0 -140 47 -140 116c0 61 41 112 109 140h-357z" />
    <glyph glyph-name="uni1EBC" unicode="&#x1ebc;" horiz-adv-x="610" 
d="M225 749l-106 25c13 94 67 156 136 156c52 0 92 -42 120 -42c18 0 34 14 43 44l105 -27c-11 -91 -69 -149 -144 -149c-58 0 -83 40 -113 40c-15 0 -32 -16 -41 -47zM67 0v694h498v-152h-325v-114h297v-152h-297v-124h325v-152h-498z" />
    <glyph glyph-name="F" unicode="F" horiz-adv-x="583" 
d="M67 0v694h495v-152h-319v-133h283v-152h-283v-257h-176z" />
    <glyph glyph-name="G" unicode="G" horiz-adv-x="712" 
d="M389 -10c-218 0 -364 140 -364 349c0 217 157 365 403 365c79 0 158 -16 217 -44l-48 -136c-46 16 -115 27 -174 27c-141 0 -216 -69 -216 -198c0 -132 78 -213 203 -213c39 0 72 7 96 20v105h-147v146h312v-322c-78 -66 -172 -99 -282 -99z" />
    <glyph glyph-name="Gbreve" unicode="&#x11e;" horiz-adv-x="712" 
d="M360 741c-105 0 -188 58 -202 153l124 77c6 -60 45 -100 97 -100c50 0 88 37 93 101l81 -56c-17 -107 -92 -175 -193 -175zM389 -10c-218 0 -364 140 -364 349c0 217 157 365 403 365c79 0 158 -16 217 -44l-48 -136c-46 16 -115 27 -174 27c-141 0 -216 -69 -216 -198
c0 -132 78 -213 203 -213c39 0 72 7 96 20v105h-147v146h312v-322c-78 -66 -172 -99 -282 -99z" />
    <glyph glyph-name="Gcaron" unicode="&#x1e6;" horiz-adv-x="712" 
d="M329 742l-151 136l100 90l103 -94l108 93l68 -58l-142 -167h-86zM389 -10c-218 0 -364 140 -364 349c0 217 157 365 403 365c79 0 158 -16 217 -44l-48 -136c-46 16 -115 27 -174 27c-141 0 -216 -69 -216 -198c0 -132 78 -213 203 -213c39 0 72 7 96 20v105h-147v146
h312v-322c-78 -66 -172 -99 -282 -99z" />
    <glyph glyph-name="Gcircumflex" unicode="&#x11c;" horiz-adv-x="712" 
d="M192 794l146 168h85l147 -137l-96 -91l-104 84l-109 -83zM389 -10c-218 0 -364 140 -364 349c0 217 157 365 403 365c79 0 158 -16 217 -44l-48 -136c-46 16 -115 27 -174 27c-141 0 -216 -69 -216 -198c0 -132 78 -213 203 -213c39 0 72 7 96 20v105h-147v146h312v-322
c-78 -66 -172 -99 -282 -99z" />
    <glyph glyph-name="uni0122" unicode="&#x122;" horiz-adv-x="712" 
d="M389 -10c-218 0 -364 140 -364 349c0 217 157 365 403 365c79 0 158 -16 217 -44l-48 -136c-46 16 -115 27 -174 27c-141 0 -216 -69 -216 -198c0 -132 78 -213 203 -213c39 0 72 7 96 20v105h-147v146h312v-322c-78 -66 -172 -99 -282 -99zM244 -227
c17 40 28 105 28 171h161c0 -60 -25 -120 -72 -171h-117z" />
    <glyph glyph-name="Gdotaccent" unicode="&#x120;" horiz-adv-x="712" 
d="M342 747c-59 0 -99 40 -99 99c0 60 40 100 99 100s99 -40 99 -100c0 -59 -40 -99 -99 -99zM389 -10c-218 0 -364 140 -364 349c0 217 157 365 403 365c79 0 158 -16 217 -44l-48 -136c-46 16 -115 27 -174 27c-141 0 -216 -69 -216 -198c0 -132 78 -213 203 -213
c39 0 72 7 96 20v105h-147v146h312v-322c-78 -66 -172 -99 -282 -99z" />
    <glyph glyph-name="uni1E20" unicode="&#x1e20;" horiz-adv-x="712" 
d="M194 769v136h360v-136h-360zM389 -10c-218 0 -364 140 -364 349c0 217 157 365 403 365c79 0 158 -16 217 -44l-48 -136c-46 16 -115 27 -174 27c-141 0 -216 -69 -216 -198c0 -132 78 -213 203 -213c39 0 72 7 96 20v105h-147v146h312v-322c-78 -66 -172 -99 -282 -99z
" />
    <glyph glyph-name="H" unicode="H" horiz-adv-x="755" 
d="M67 0v694h176v-264h269v264h176v-694h-176v274h-269v-274h-176z" />
    <glyph glyph-name="Hbar" unicode="&#x126;" horiz-adv-x="755" 
d="M67 0v498h-62v135h62v61h176v-61h269v61h176v-61h60v-135h-60v-498h-176v274h-269v-274h-176zM243 430h269v68h-269v-68z" />
    <glyph glyph-name="uni1E2A" unicode="&#x1e2a;" horiz-adv-x="755" 
d="M67 0v694h176v-264h269v264h176v-694h-176v274h-269v-274h-176zM376 -227c-98 0 -174 55 -205 137l109 69c25 -52 63 -79 116 -79c50 0 84 25 99 79l88 -42c-29 -102 -103 -164 -207 -164z" />
    <glyph glyph-name="Hcircumflex" unicode="&#x124;" horiz-adv-x="755" 
d="M198 794l146 168h85l147 -137l-96 -91l-104 84l-109 -83zM67 0v694h176v-264h269v264h176v-694h-176v274h-269v-274h-176z" />
    <glyph glyph-name="uni1E24" unicode="&#x1e24;" horiz-adv-x="755" 
d="M67 0v694h176v-264h269v264h176v-694h-176v274h-269v-274h-176zM377 -225c-59 0 -99 40 -99 99c0 60 40 100 99 100s99 -40 99 -100c0 -59 -40 -99 -99 -99z" />
    <glyph glyph-name="I" unicode="I" horiz-adv-x="310" 
d="M67 0v694h176v-694h-176z" />
    <glyph glyph-name="Iacute" unicode="&#xcd;" horiz-adv-x="310" 
d="M139 734l-68 93l179 156l98 -134zM67 0v694h176v-694h-176z" />
    <glyph glyph-name="Ibreve" unicode="&#x12c;" horiz-adv-x="310" 
d="M144 741c-105 0 -188 58 -202 153l124 77c6 -60 45 -100 97 -100c50 0 88 37 93 101l81 -56c-17 -107 -92 -175 -193 -175zM67 0v694h176v-694h-176z" />
    <glyph glyph-name="uni01CF" unicode="&#x1cf;" horiz-adv-x="310" 
d="M113 742l-151 136l100 90l103 -94l108 93l68 -58l-142 -167h-86zM67 0v694h176v-694h-176z" />
    <glyph glyph-name="Icircumflex" unicode="&#xce;" horiz-adv-x="310" 
d="M-24 794l146 168h85l147 -137l-96 -91l-104 84l-109 -83zM67 0v694h176v-694h-176z" />
    <glyph glyph-name="uni0208" unicode="&#x208;" horiz-adv-x="310" 
d="M310 739l-176 132l119 115l133 -174zM55 739l-176 132l119 115l133 -174zM67 0v694h176v-694h-176z" />
    <glyph glyph-name="Idieresis" unicode="&#xcf;" horiz-adv-x="310" 
d="M24 747c-59 0 -99 40 -99 99c0 60 40 100 99 100s99 -40 99 -100c0 -59 -40 -99 -99 -99zM274 747c-59 0 -99 40 -99 99c0 60 40 100 99 100s99 -40 99 -100c0 -59 -40 -99 -99 -99zM67 0v694h176v-694h-176z" />
    <glyph glyph-name="uni1E2E" unicode="&#x1e2e;" horiz-adv-x="310" 
d="M139 946l-68 93l179 156l98 -134zM24 747c-59 0 -99 40 -99 99c0 60 40 100 99 100s99 -40 99 -100c0 -59 -40 -99 -99 -99zM274 747c-59 0 -99 40 -99 99c0 60 40 100 99 100s99 -40 99 -100c0 -59 -40 -99 -99 -99zM67 0v694h176v-694h-176z" />
    <glyph glyph-name="Idotaccent" unicode="&#x130;" horiz-adv-x="310" 
d="M126 747c-59 0 -99 40 -99 99c0 60 40 100 99 100s99 -40 99 -100c0 -59 -40 -99 -99 -99zM67 0v694h176v-694h-176z" />
    <glyph glyph-name="uni1ECA" unicode="&#x1eca;" horiz-adv-x="310" 
d="M67 0v694h176v-694h-176zM155 -225c-59 0 -99 40 -99 99c0 60 40 100 99 100s99 -40 99 -100c0 -59 -40 -99 -99 -99z" />
    <glyph glyph-name="Igrave" unicode="&#xcc;" horiz-adv-x="310" 
d="M171 734l-209 115l98 134l179 -156zM67 0v694h176v-694h-176z" />
    <glyph glyph-name="uni1EC8" unicode="&#x1ec8;" horiz-adv-x="310" 
d="M127 745l-28 77c27 11 41 28 41 49c0 15 -13 25 -33 25c-15 0 -32 -5 -51 -15l-39 102c44 21 87 32 126 32c76 0 126 -42 126 -106c0 -67 -53 -128 -142 -164zM67 0v694h176v-694h-176z" />
    <glyph glyph-name="uni020A" unicode="&#x20a;" horiz-adv-x="310" 
d="M50 708l-81 56c17 107 90 175 190 175c101 0 185 -58 198 -153l-124 -77c-5 60 -45 100 -94 100c-48 0 -85 -38 -89 -101zM67 0v694h176v-694h-176z" />
    <glyph glyph-name="Imacron" unicode="&#x12a;" horiz-adv-x="310" 
d="M13 767v135h283v-135h-283zM67 0v694h176v-694h-176z" />
    <glyph glyph-name="Iogonek" unicode="&#x12e;" horiz-adv-x="310" 
d="M67 0v694h176v-694c-45 -20 -75 -60 -75 -105c0 -28 10 -46 25 -46c11 0 23 4 29 8l13 -88c-25 -16 -60 -25 -93 -25c-78 0 -124 47 -124 116c0 61 36 112 95 140h-46z" />
    <glyph glyph-name="Itilde" unicode="&#x128;" horiz-adv-x="310" 
d="M67 749l-106 25c13 94 67 156 136 156c52 0 92 -42 120 -42c18 0 34 14 43 44l105 -27c-11 -91 -69 -149 -144 -149c-58 0 -83 40 -113 40c-15 0 -32 -16 -41 -47zM67 0v694h176v-694h-176z" />
    <glyph glyph-name="J" unicode="J" horiz-adv-x="455" 
d="M158 -10c-57 0 -110 12 -154 36l49 136c26 -11 61 -19 89 -19c55 0 83 30 83 90v461h174v-451c0 -160 -88 -253 -241 -253z" />
    <glyph glyph-name="uni00A40301" horiz-adv-x="455" 
d="M294 734l-68 93l179 156l98 -134zM158 -10c-57 0 -110 12 -154 36l49 136c26 -11 61 -19 89 -19c55 0 83 30 83 90v461h174v-451c0 -160 -88 -253 -241 -253z" />
    <glyph glyph-name="Jcircumflex" unicode="&#x134;" horiz-adv-x="455" 
d="M131 794l146 168h85l147 -137l-96 -91l-104 84l-109 -83zM158 -10c-57 0 -110 12 -154 36l49 136c26 -11 61 -19 89 -19c55 0 83 30 83 90v461h174v-451c0 -160 -88 -253 -241 -253z" />
    <glyph glyph-name="K" unicode="K" horiz-adv-x="686" 
d="M68 0v694h178v-313l227 313h209l-238 -320l254 -374h-232l-220 343v-343h-178z" />
    <glyph glyph-name="uni1E30" unicode="&#x1e30;" horiz-adv-x="686" 
d="M322 734l-68 93l179 156l98 -134zM68 0v694h178v-313l227 313h209l-238 -320l254 -374h-232l-220 343v-343h-178z" />
    <glyph glyph-name="uni0136" unicode="&#x136;" horiz-adv-x="686" 
d="M68 0v694h178v-313l227 313h209l-238 -320l254 -374h-232l-220 343v-343h-178zM231 -227c17 40 28 105 28 171h161c0 -60 -25 -120 -72 -171h-117z" />
    <glyph glyph-name="L" unicode="L" horiz-adv-x="537" 
d="M67 0v694h173v-541h287v-153h-460z" />
    <glyph glyph-name="uni01C7" unicode="&#x1c7;" horiz-adv-x="992" 
d="M67 0v694h173v-541h287v-153h-460zM695 -10c-57 0 -110 12 -154 36l49 136c26 -11 61 -19 89 -19c55 0 83 30 83 90v461h174v-451c0 -160 -88 -253 -241 -253z" />
    <glyph glyph-name="Lacute" unicode="&#x139;" horiz-adv-x="537" 
d="M136 734l-68 93l179 156l98 -134zM67 0v694h173v-541h287v-153h-460z" />
    <glyph glyph-name="Lcaron" unicode="&#x13d;" horiz-adv-x="537" 
d="M396 535l-100 15l11 203l137 -17zM67 0v694h173v-541h287v-153h-460z" />
    <glyph glyph-name="uni013B" unicode="&#x13b;" horiz-adv-x="537" 
d="M67 0v694h173v-541h287v-153h-460zM161 -227c17 40 28 105 28 171h161c0 -60 -25 -120 -72 -171h-117z" />
    <glyph glyph-name="Ldot" unicode="&#x13f;" horiz-adv-x="537" 
d="M67 0v694h173v-541h287v-153h-460zM423 294c-64 0 -106 46 -106 106c0 64 42 110 106 110s106 -46 106 -110c0 -60 -42 -106 -106 -106z" />
    <glyph glyph-name="uni1E36" unicode="&#x1e36;" horiz-adv-x="537" 
d="M67 0v694h173v-541h287v-153h-460zM268 -225c-59 0 -99 40 -99 99c0 60 40 100 99 100s99 -40 99 -100c0 -59 -40 -99 -99 -99z" />
    <glyph glyph-name="uni01C8" unicode="&#x1c8;" horiz-adv-x="824" 
d="M681 557c-59 0 -99 40 -99 99c0 60 40 100 99 100s99 -40 99 -100c0 -59 -40 -99 -99 -99zM67 0v694h173v-541h287v-153h-460zM561 -232l-50 94c52 38 83 99 83 164v464h173v-464c0 -114 -82 -217 -206 -258z" />
    <glyph glyph-name="uni1E3A" unicode="&#x1e3a;" horiz-adv-x="537" 
d="M67 0v694h173v-541h287v-153h-460zM91 -206v135h353v-135h-353z" />
    <glyph glyph-name="Lslash" unicode="&#x141;" horiz-adv-x="537" 
d="M67 0v250l-42 -23l-66 113l108 58v296h173v-202l105 57l65 -114l-170 -92v-190h287v-153h-460z" />
    <glyph glyph-name="M" unicode="M" horiz-adv-x="892" 
d="M67 0v694h167l219 -405l207 405h165v-694h-168v408l-147 -301h-131l-144 283v-390h-168z" />
    <glyph glyph-name="uni1E42" unicode="&#x1e42;" horiz-adv-x="892" 
d="M67 0v694h167l219 -405l207 405h165v-694h-168v408l-147 -301h-131l-144 283v-390h-168zM447 -225c-59 0 -99 40 -99 99c0 60 40 100 99 100s99 -40 99 -100c0 -59 -40 -99 -99 -99z" />
    <glyph glyph-name="N" unicode="N" horiz-adv-x="780" 
d="M67 0v694h198l280 -452l2 452h166v-694h-194l-288 456v-456h-164z" />
    <glyph glyph-name="uni01CA" unicode="&#x1ca;" horiz-adv-x="1235" 
d="M67 0v694h198l280 -452l2 452h166v-694h-194l-288 456v-456h-164zM938 -10c-57 0 -110 12 -154 36l49 136c26 -11 61 -19 89 -19c55 0 83 30 83 90v461h174v-451c0 -160 -88 -253 -241 -253z" />
    <glyph glyph-name="Nacute" unicode="&#x143;" horiz-adv-x="780" 
d="M373 734l-68 93l179 156l98 -134zM67 0v694h198l280 -452l2 452h166v-694h-194l-288 456v-456h-164z" />
    <glyph glyph-name="Ncaron" unicode="&#x147;" horiz-adv-x="780" 
d="M347 742l-151 136l100 90l103 -94l108 93l68 -58l-142 -167h-86zM67 0v694h198l280 -452l2 452h166v-694h-194l-288 456v-456h-164z" />
    <glyph glyph-name="uni0145" unicode="&#x145;" horiz-adv-x="780" 
d="M67 0v694h198l280 -452l2 452h166v-694h-194l-288 456v-456h-164zM282 -227c17 40 28 105 28 171h161c0 -60 -25 -120 -72 -171h-117z" />
    <glyph glyph-name="uni1E44" unicode="&#x1e44;" horiz-adv-x="780" 
d="M360 747c-59 0 -99 40 -99 99c0 60 40 100 99 100s99 -40 99 -100c0 -59 -40 -99 -99 -99zM67 0v694h198l280 -452l2 452h166v-694h-194l-288 456v-456h-164z" />
    <glyph glyph-name="uni1E46" unicode="&#x1e46;" horiz-adv-x="780" 
d="M67 0v694h198l280 -452l2 452h166v-694h-194l-288 456v-456h-164zM389 -225c-59 0 -99 40 -99 99c0 60 40 100 99 100s99 -40 99 -100c0 -59 -40 -99 -99 -99z" />
    <glyph glyph-name="Eng" unicode="&#x14a;" horiz-adv-x="785" 
d="M67 0v694h192l294 -444l2 444h163v-707c0 -108 -59 -200 -163 -230l-55 96c35 20 55 65 55 122v4l-325 464v-443h-163z" />
    <glyph glyph-name="uni01CB" unicode="&#x1cb;" horiz-adv-x="1067" 
d="M924 557c-59 0 -99 40 -99 99c0 60 40 100 99 100s99 -40 99 -100c0 -59 -40 -99 -99 -99zM67 0v694h198l280 -452l2 452h166v-694h-194l-288 456v-456h-164zM804 -232l-50 94c52 38 83 99 83 164v464h173v-464c0 -114 -82 -217 -206 -258z" />
    <glyph glyph-name="uni1E48" unicode="&#x1e48;" horiz-adv-x="780" 
d="M67 0v694h198l280 -452l2 452h166v-694h-194l-288 456v-456h-164zM212 -206v135h353v-135h-353z" />
    <glyph glyph-name="Ntilde" unicode="&#xd1;" horiz-adv-x="780" 
d="M301 749l-106 25c13 94 67 156 136 156c52 0 92 -42 120 -42c18 0 34 14 43 44l105 -27c-11 -91 -69 -149 -144 -149c-58 0 -83 40 -113 40c-15 0 -32 -16 -41 -47zM67 0v694h198l280 -452l2 452h166v-694h-194l-288 456v-456h-164z" />
    <glyph glyph-name="O" unicode="O" horiz-adv-x="760" 
d="M373 -10c-208 0 -347 140 -347 351c0 218 143 363 358 363c210 0 350 -141 350 -353c0 -217 -144 -361 -361 -361zM384 140c102 0 170 80 170 201c0 128 -72 213 -181 213c-100 0 -167 -81 -167 -203c0 -127 71 -211 178 -211z" />
    <glyph glyph-name="Oacute" unicode="&#xd3;" horiz-adv-x="760" 
d="M364 734l-68 93l179 156l98 -134zM373 -10c-208 0 -347 140 -347 351c0 218 143 363 358 363c210 0 350 -141 350 -353c0 -217 -144 -361 -361 -361zM384 140c102 0 170 80 170 201c0 128 -72 213 -181 213c-100 0 -167 -81 -167 -203c0 -127 71 -211 178 -211z" />
    <glyph glyph-name="Obreve" unicode="&#x14e;" horiz-adv-x="760" 
d="M369 741c-105 0 -188 58 -202 153l124 77c6 -60 45 -100 97 -100c50 0 88 37 93 101l81 -56c-17 -107 -92 -175 -193 -175zM373 -10c-208 0 -347 140 -347 351c0 218 143 363 358 363c210 0 350 -141 350 -353c0 -217 -144 -361 -361 -361zM384 140c102 0 170 80 170 201
c0 128 -72 213 -181 213c-100 0 -167 -81 -167 -203c0 -127 71 -211 178 -211z" />
    <glyph glyph-name="uni01D1" unicode="&#x1d1;" horiz-adv-x="760" 
d="M338 742l-151 136l100 90l103 -94l108 93l68 -58l-142 -167h-86zM373 -10c-208 0 -347 140 -347 351c0 218 143 363 358 363c210 0 350 -141 350 -353c0 -217 -144 -361 -361 -361zM384 140c102 0 170 80 170 201c0 128 -72 213 -181 213c-100 0 -167 -81 -167 -203
c0 -127 71 -211 178 -211z" />
    <glyph glyph-name="Ocircumflex" unicode="&#xd4;" horiz-adv-x="760" 
d="M201 794l146 168h85l147 -137l-96 -91l-104 84l-109 -83zM373 -10c-208 0 -347 140 -347 351c0 218 143 363 358 363c210 0 350 -141 350 -353c0 -217 -144 -361 -361 -361zM384 140c102 0 170 80 170 201c0 128 -72 213 -181 213c-100 0 -167 -81 -167 -203
c0 -127 71 -211 178 -211z" />
    <glyph glyph-name="uni1ED0" unicode="&#x1ed0;" horiz-adv-x="760" 
d="M587 881l-70 64l132 174l110 -98zM202 775l156 143h85l139 -112l-102 -91l-99 70l-114 -69zM373 -10c-208 0 -347 140 -347 351c0 218 143 363 358 363c210 0 350 -141 350 -353c0 -217 -144 -361 -361 -361zM384 140c102 0 170 80 170 201c0 128 -72 213 -181 213
c-100 0 -167 -81 -167 -203c0 -127 71 -211 178 -211z" />
    <glyph glyph-name="uni1ED8" unicode="&#x1ed8;" horiz-adv-x="760" 
d="M201 794l146 168h85l147 -137l-96 -91l-104 84l-109 -83zM373 -10c-208 0 -347 140 -347 351c0 218 143 363 358 363c210 0 350 -141 350 -353c0 -217 -144 -361 -361 -361zM384 140c102 0 170 80 170 201c0 128 -72 213 -181 213c-100 0 -167 -81 -167 -203
c0 -127 71 -211 178 -211zM380 -225c-59 0 -99 40 -99 99c0 60 40 100 99 100s99 -40 99 -100c0 -59 -40 -99 -99 -99z" />
    <glyph glyph-name="uni1ED2" unicode="&#x1ed2;" horiz-adv-x="760" 
d="M546 882l-158 135l121 102l114 -170zM202 775l156 143h85l139 -112l-102 -91l-99 70l-114 -69zM373 -10c-208 0 -347 140 -347 351c0 218 143 363 358 363c210 0 350 -141 350 -353c0 -217 -144 -361 -361 -361zM384 140c102 0 170 80 170 201c0 128 -72 213 -181 213
c-100 0 -167 -81 -167 -203c0 -127 71 -211 178 -211z" />
    <glyph glyph-name="uni1ED4" unicode="&#x1ed4;" horiz-adv-x="760" 
d="M545 905l-23 75c26 5 43 19 44 32c0 12 -9 18 -31 18c-14 0 -29 -2 -53 -10l-32 94c45 16 90 25 128 25c76 0 123 -38 119 -93c-4 -57 -61 -112 -152 -141zM202 775l156 143h85l139 -112l-102 -91l-99 70l-114 -69zM373 -10c-208 0 -347 140 -347 351
c0 218 143 363 358 363c210 0 350 -141 350 -353c0 -217 -144 -361 -361 -361zM384 140c102 0 170 80 170 201c0 128 -72 213 -181 213c-100 0 -167 -81 -167 -203c0 -127 71 -211 178 -211z" />
    <glyph glyph-name="uni1ED6" unicode="&#x1ed6;" horiz-adv-x="760" 
d="M301 1010l-96 23c19 83 73 139 136 139c49 0 83 -35 110 -35c16 0 32 12 42 36l94 -25c-15 -81 -74 -131 -142 -131c-55 0 -76 32 -103 32c-15 0 -32 -14 -41 -39zM202 775l156 143h85l139 -112l-102 -91l-99 70l-114 -69zM373 -10c-208 0 -347 140 -347 351
c0 218 143 363 358 363c210 0 350 -141 350 -353c0 -217 -144 -361 -361 -361zM384 140c102 0 170 80 170 201c0 128 -72 213 -181 213c-100 0 -167 -81 -167 -203c0 -127 71 -211 178 -211z" />
    <glyph glyph-name="uni020C" unicode="&#x20c;" horiz-adv-x="760" 
d="M535 739l-176 132l119 115l133 -174zM280 739l-176 132l119 115l133 -174zM373 -10c-208 0 -347 140 -347 351c0 218 143 363 358 363c210 0 350 -141 350 -353c0 -217 -144 -361 -361 -361zM384 140c102 0 170 80 170 201c0 128 -72 213 -181 213
c-100 0 -167 -81 -167 -203c0 -127 71 -211 178 -211z" />
    <glyph glyph-name="Odieresis" unicode="&#xd6;" horiz-adv-x="760" 
d="M249 747c-59 0 -99 40 -99 99c0 60 40 100 99 100s99 -40 99 -100c0 -59 -40 -99 -99 -99zM499 747c-59 0 -99 40 -99 99c0 60 40 100 99 100s99 -40 99 -100c0 -59 -40 -99 -99 -99zM373 -10c-208 0 -347 140 -347 351c0 218 143 363 358 363c210 0 350 -141 350 -353
c0 -217 -144 -361 -361 -361zM384 140c102 0 170 80 170 201c0 128 -72 213 -181 213c-100 0 -167 -81 -167 -203c0 -127 71 -211 178 -211z" />
    <glyph glyph-name="uni022A" unicode="&#x22a;" horiz-adv-x="760" 
d="M203 981v136h360v-136h-360zM249 747c-59 0 -99 40 -99 99c0 60 40 100 99 100s99 -40 99 -100c0 -59 -40 -99 -99 -99zM499 747c-59 0 -99 40 -99 99c0 60 40 100 99 100s99 -40 99 -100c0 -59 -40 -99 -99 -99zM373 -10c-208 0 -347 140 -347 351
c0 218 143 363 358 363c210 0 350 -141 350 -353c0 -217 -144 -361 -361 -361zM384 140c102 0 170 80 170 201c0 128 -72 213 -181 213c-100 0 -167 -81 -167 -203c0 -127 71 -211 178 -211z" />
    <glyph glyph-name="uni0230" unicode="&#x230;" horiz-adv-x="760" 
d="M203 1021v136h360v-136h-360zM351 747c-59 0 -99 40 -99 99c0 60 40 100 99 100s99 -40 99 -100c0 -59 -40 -99 -99 -99zM373 -10c-208 0 -347 140 -347 351c0 218 143 363 358 363c210 0 350 -141 350 -353c0 -217 -144 -361 -361 -361zM384 140c102 0 170 80 170 201
c0 128 -72 213 -181 213c-100 0 -167 -81 -167 -203c0 -127 71 -211 178 -211z" />
    <glyph glyph-name="uni1ECC" unicode="&#x1ecc;" horiz-adv-x="760" 
d="M373 -10c-208 0 -347 140 -347 351c0 218 143 363 358 363c210 0 350 -141 350 -353c0 -217 -144 -361 -361 -361zM384 140c102 0 170 80 170 201c0 128 -72 213 -181 213c-100 0 -167 -81 -167 -203c0 -127 71 -211 178 -211zM380 -225c-59 0 -99 40 -99 99
c0 60 40 100 99 100s99 -40 99 -100c0 -59 -40 -99 -99 -99z" />
    <glyph glyph-name="Ograve" unicode="&#xd2;" horiz-adv-x="760" 
d="M396 734l-209 115l98 134l179 -156zM373 -10c-208 0 -347 140 -347 351c0 218 143 363 358 363c210 0 350 -141 350 -353c0 -217 -144 -361 -361 -361zM384 140c102 0 170 80 170 201c0 128 -72 213 -181 213c-100 0 -167 -81 -167 -203c0 -127 71 -211 178 -211z" />
    <glyph glyph-name="uni1ECE" unicode="&#x1ece;" horiz-adv-x="760" 
d="M352 745l-28 77c27 11 41 28 41 49c0 15 -13 25 -33 25c-15 0 -32 -5 -51 -15l-39 102c44 21 87 32 126 32c76 0 126 -42 126 -106c0 -67 -53 -128 -142 -164zM373 -10c-208 0 -347 140 -347 351c0 218 143 363 358 363c210 0 350 -141 350 -353
c0 -217 -144 -361 -361 -361zM384 140c102 0 170 80 170 201c0 128 -72 213 -181 213c-100 0 -167 -81 -167 -203c0 -127 71 -211 178 -211z" />
    <glyph glyph-name="Ohorn" unicode="&#x1a0;" horiz-adv-x="842" 
d="M373 -10c-208 0 -347 140 -347 351c0 218 143 363 358 363c103 0 190 -34 251 -94c31 5 51 40 51 89c0 35 -10 67 -29 95h156c20 -30 29 -65 29 -102c0 -90 -55 -150 -145 -170c24 -49 37 -107 37 -171c0 -217 -144 -361 -361 -361zM384 140c102 0 170 80 170 201
c0 128 -72 213 -181 213c-100 0 -167 -81 -167 -203c0 -127 71 -211 178 -211z" />
    <glyph glyph-name="uni1EDA" unicode="&#x1eda;" horiz-adv-x="842" 
d="M364 734l-68 93l179 156l98 -134zM373 -10c-208 0 -347 140 -347 351c0 218 143 363 358 363c103 0 190 -34 251 -94c31 5 51 40 51 89c0 35 -10 67 -29 95h156c20 -30 29 -65 29 -102c0 -90 -55 -150 -145 -170c24 -49 37 -107 37 -171c0 -217 -144 -361 -361 -361z
M384 140c102 0 170 80 170 201c0 128 -72 213 -181 213c-100 0 -167 -81 -167 -203c0 -127 71 -211 178 -211z" />
    <glyph glyph-name="uni1EE2" unicode="&#x1ee2;" horiz-adv-x="842" 
d="M373 -10c-208 0 -347 140 -347 351c0 218 143 363 358 363c103 0 190 -34 251 -94c31 5 51 40 51 89c0 35 -10 67 -29 95h156c20 -30 29 -65 29 -102c0 -90 -55 -150 -145 -170c24 -49 37 -107 37 -171c0 -217 -144 -361 -361 -361zM384 140c102 0 170 80 170 201
c0 128 -72 213 -181 213c-100 0 -167 -81 -167 -203c0 -127 71 -211 178 -211zM380 -225c-59 0 -99 40 -99 99c0 60 40 100 99 100s99 -40 99 -100c0 -59 -40 -99 -99 -99z" />
    <glyph glyph-name="uni1EDC" unicode="&#x1edc;" horiz-adv-x="842" 
d="M396 734l-209 115l98 134l179 -156zM373 -10c-208 0 -347 140 -347 351c0 218 143 363 358 363c103 0 190 -34 251 -94c31 5 51 40 51 89c0 35 -10 67 -29 95h156c20 -30 29 -65 29 -102c0 -90 -55 -150 -145 -170c24 -49 37 -107 37 -171c0 -217 -144 -361 -361 -361z
M384 140c102 0 170 80 170 201c0 128 -72 213 -181 213c-100 0 -167 -81 -167 -203c0 -127 71 -211 178 -211z" />
    <glyph glyph-name="uni1EDE" unicode="&#x1ede;" horiz-adv-x="842" 
d="M352 745l-28 77c27 11 41 28 41 49c0 15 -13 25 -33 25c-15 0 -32 -5 -51 -15l-39 102c44 21 87 32 126 32c76 0 126 -42 126 -106c0 -67 -53 -128 -142 -164zM373 -10c-208 0 -347 140 -347 351c0 218 143 363 358 363c103 0 190 -34 251 -94c31 5 51 40 51 89
c0 35 -10 67 -29 95h156c20 -30 29 -65 29 -102c0 -90 -55 -150 -145 -170c24 -49 37 -107 37 -171c0 -217 -144 -361 -361 -361zM384 140c102 0 170 80 170 201c0 128 -72 213 -181 213c-100 0 -167 -81 -167 -203c0 -127 71 -211 178 -211z" />
    <glyph glyph-name="uni1EE0" unicode="&#x1ee0;" horiz-adv-x="842" 
d="M292 749l-106 25c13 94 67 156 136 156c52 0 92 -42 120 -42c18 0 34 14 43 44l105 -27c-11 -91 -69 -149 -144 -149c-58 0 -83 40 -113 40c-15 0 -32 -16 -41 -47zM373 -10c-208 0 -347 140 -347 351c0 218 143 363 358 363c103 0 190 -34 251 -94c31 5 51 40 51 89
c0 35 -10 67 -29 95h156c20 -30 29 -65 29 -102c0 -90 -55 -150 -145 -170c24 -49 37 -107 37 -171c0 -217 -144 -361 -361 -361zM384 140c102 0 170 80 170 201c0 128 -72 213 -181 213c-100 0 -167 -81 -167 -203c0 -127 71 -211 178 -211z" />
    <glyph glyph-name="Ohungarumlaut" unicode="&#x150;" horiz-adv-x="760" 
d="M225 739l-76 73l133 174l119 -115zM480 739l-76 73l133 174l119 -115zM373 -10c-208 0 -347 140 -347 351c0 218 143 363 358 363c210 0 350 -141 350 -353c0 -217 -144 -361 -361 -361zM384 140c102 0 170 80 170 201c0 128 -72 213 -181 213c-100 0 -167 -81 -167 -203
c0 -127 71 -211 178 -211z" />
    <glyph glyph-name="uni020E" unicode="&#x20e;" horiz-adv-x="760" 
d="M275 708l-81 56c17 107 90 175 190 175c101 0 185 -58 198 -153l-124 -77c-5 60 -45 100 -94 100c-48 0 -85 -38 -89 -101zM373 -10c-208 0 -347 140 -347 351c0 218 143 363 358 363c210 0 350 -141 350 -353c0 -217 -144 -361 -361 -361zM384 140c102 0 170 80 170 201
c0 128 -72 213 -181 213c-100 0 -167 -81 -167 -203c0 -127 71 -211 178 -211z" />
    <glyph glyph-name="Omacron" unicode="&#x14c;" horiz-adv-x="760" 
d="M203 769v136h360v-136h-360zM373 -10c-208 0 -347 140 -347 351c0 218 143 363 358 363c210 0 350 -141 350 -353c0 -217 -144 -361 -361 -361zM384 140c102 0 170 80 170 201c0 128 -72 213 -181 213c-100 0 -167 -81 -167 -203c0 -127 71 -211 178 -211z" />
    <glyph glyph-name="uni1E52" unicode="&#x1e52;" horiz-adv-x="760" 
d="M364 942l-68 93l179 156l98 -134zM203 769v136h360v-136h-360zM373 -10c-208 0 -347 140 -347 351c0 218 143 363 358 363c210 0 350 -141 350 -353c0 -217 -144 -361 -361 -361zM384 140c102 0 170 80 170 201c0 128 -72 213 -181 213c-100 0 -167 -81 -167 -203
c0 -127 71 -211 178 -211z" />
    <glyph glyph-name="uni1E50" unicode="&#x1e50;" horiz-adv-x="760" 
d="M396 942l-209 115l98 134l179 -156zM203 769v136h360v-136h-360zM373 -10c-208 0 -347 140 -347 351c0 218 143 363 358 363c210 0 350 -141 350 -353c0 -217 -144 -361 -361 -361zM384 140c102 0 170 80 170 201c0 128 -72 213 -181 213c-100 0 -167 -81 -167 -203
c0 -127 71 -211 178 -211z" />
    <glyph glyph-name="uni01EA" unicode="&#x1ea;" horiz-adv-x="760" 
d="M402 -256c-88 0 -140 50 -140 122c0 49 25 94 70 126c-185 17 -306 152 -306 349c0 218 143 363 358 363c210 0 350 -141 350 -353c0 -180 -99 -310 -256 -349c-42 -27 -66 -64 -66 -101c0 -28 16 -52 41 -52c8 0 26 4 40 11l13 -90c-27 -16 -67 -26 -104 -26zM384 140
c102 0 170 80 170 201c0 128 -72 213 -181 213c-100 0 -167 -81 -167 -203c0 -127 71 -211 178 -211z" />
    <glyph glyph-name="Oslash" unicode="&#xd8;" horiz-adv-x="760" 
d="M187 -59l-101 63l47 72c-68 61 -107 153 -107 265c0 218 143 363 358 363c53 0 101 -9 144 -26l48 74l104 -63l-49 -75c65 -62 103 -153 103 -263c0 -217 -144 -361 -361 -361c-50 0 -97 8 -138 24zM206 351c0 -47 10 -88 28 -122l205 313c-20 8 -42 12 -66 12
c-100 0 -167 -81 -167 -203zM384 140c102 0 170 80 170 201c0 45 -9 85 -26 118l-203 -309c18 -7 38 -10 59 -10z" />
    <glyph glyph-name="Oslashacute" unicode="&#x1fe;" horiz-adv-x="760" 
d="M364 734l-68 93l179 156l98 -134zM187 -59l-101 63l47 72c-68 61 -107 153 -107 265c0 218 143 363 358 363c53 0 101 -9 144 -26l48 74l104 -63l-49 -75c65 -62 103 -153 103 -263c0 -217 -144 -361 -361 -361c-50 0 -97 8 -138 24zM206 351c0 -47 10 -88 28 -122
l205 313c-20 8 -42 12 -66 12c-100 0 -167 -81 -167 -203zM384 140c102 0 170 80 170 201c0 45 -9 85 -26 118l-203 -309c18 -7 38 -10 59 -10z" />
    <glyph glyph-name="Otilde" unicode="&#xd5;" horiz-adv-x="760" 
d="M292 749l-106 25c13 94 67 156 136 156c52 0 92 -42 120 -42c18 0 34 14 43 44l105 -27c-11 -91 -69 -149 -144 -149c-58 0 -83 40 -113 40c-15 0 -32 -16 -41 -47zM373 -10c-208 0 -347 140 -347 351c0 218 143 363 358 363c210 0 350 -141 350 -353
c0 -217 -144 -361 -361 -361zM384 140c102 0 170 80 170 201c0 128 -72 213 -181 213c-100 0 -167 -81 -167 -203c0 -127 71 -211 178 -211z" />
    <glyph glyph-name="uni1E4C" unicode="&#x1e4c;" horiz-adv-x="760" 
d="M364 979l-68 93l179 156l98 -134zM292 749l-106 25c13 94 67 156 136 156c52 0 92 -42 120 -42c18 0 34 14 43 44l105 -27c-11 -91 -69 -149 -144 -149c-58 0 -83 40 -113 40c-15 0 -32 -16 -41 -47zM373 -10c-208 0 -347 140 -347 351c0 218 143 363 358 363
c210 0 350 -141 350 -353c0 -217 -144 -361 -361 -361zM384 140c102 0 170 80 170 201c0 128 -72 213 -181 213c-100 0 -167 -81 -167 -203c0 -127 71 -211 178 -211z" />
    <glyph glyph-name="uni1E4E" unicode="&#x1e4e;" horiz-adv-x="760" 
d="M249 992c-59 0 -99 40 -99 99c0 60 40 100 99 100s99 -40 99 -100c0 -59 -40 -99 -99 -99zM499 992c-59 0 -99 40 -99 99c0 60 40 100 99 100s99 -40 99 -100c0 -59 -40 -99 -99 -99zM292 749l-106 25c13 94 67 156 136 156c52 0 92 -42 120 -42c18 0 34 14 43 44
l105 -27c-11 -91 -69 -149 -144 -149c-58 0 -83 40 -113 40c-15 0 -32 -16 -41 -47zM373 -10c-208 0 -347 140 -347 351c0 218 143 363 358 363c210 0 350 -141 350 -353c0 -217 -144 -361 -361 -361zM384 140c102 0 170 80 170 201c0 128 -72 213 -181 213
c-100 0 -167 -81 -167 -203c0 -127 71 -211 178 -211z" />
    <glyph glyph-name="uni022C" unicode="&#x22c;" horiz-adv-x="760" 
d="M203 1014v136h360v-136h-360zM292 749l-106 25c13 94 67 156 136 156c52 0 92 -42 120 -42c18 0 34 14 43 44l105 -27c-11 -91 -69 -149 -144 -149c-58 0 -83 40 -113 40c-15 0 -32 -16 -41 -47zM373 -10c-208 0 -347 140 -347 351c0 218 143 363 358 363
c210 0 350 -141 350 -353c0 -217 -144 -361 -361 -361zM384 140c102 0 170 80 170 201c0 128 -72 213 -181 213c-100 0 -167 -81 -167 -203c0 -127 71 -211 178 -211z" />
    <glyph glyph-name="OE" unicode="&#x152;" horiz-adv-x="1043" 
d="M404 -10c-228 0 -378 140 -378 351c0 218 154 363 387 363c35 0 69 -3 100 -10h485v-152h-325v-112h297v-152h-297v-126h325v-152h-493c-32 -7 -66 -10 -101 -10zM206 351c0 -127 83 -211 207 -211c33 0 62 6 87 17v376c-28 14 -61 21 -97 21c-120 0 -197 -81 -197 -203z
" />
    <glyph glyph-name="P" unicode="P" horiz-adv-x="626" 
d="M67 0v694h259c177 0 283 -86 283 -231c0 -156 -124 -259 -312 -259h-57v-204h-173zM312 542h-72v-186h88c62 0 101 34 101 90c0 58 -47 96 -117 96z" />
    <glyph glyph-name="Thorn" unicode="&#xde;" horiz-adv-x="626" 
d="M67 0v694h173v-88h86c169 0 283 -96 283 -241c0 -149 -119 -249 -297 -249h-72v-116h-173zM317 454h-77v-186h88c65 0 101 31 101 87c0 60 -44 99 -112 99z" />
    <glyph glyph-name="Q" unicode="Q" horiz-adv-x="760" 
d="M373 -10c-208 0 -347 140 -347 351c0 218 143 363 358 363c210 0 350 -141 350 -353c0 -91 -25 -169 -70 -229l88 -84l-108 -101l-95 91c-51 -25 -110 -38 -176 -38zM384 140c15 0 30 2 44 5l-105 100l104 103l112 -107c11 28 17 62 17 100c0 134 -68 213 -183 213
c-106 0 -169 -75 -169 -203c0 -133 67 -211 180 -211z" />
    <glyph glyph-name="R" unicode="R" horiz-adv-x="663" 
d="M67 0v694h286c163 0 259 -76 259 -210c0 -94 -47 -169 -125 -211l173 -273h-208l-135 237h-77v-237h-173zM329 543h-89v-159h113c51 0 79 29 79 76c0 52 -38 83 -103 83z" />
    <glyph glyph-name="Racute" unicode="&#x154;" horiz-adv-x="663" 
d="M308 734l-68 93l179 156l98 -134zM67 0v694h286c163 0 259 -76 259 -210c0 -94 -47 -169 -125 -211l173 -273h-208l-135 237h-77v-237h-173zM329 543h-89v-159h113c51 0 79 29 79 76c0 52 -38 83 -103 83z" />
    <glyph glyph-name="Rcaron" unicode="&#x158;" horiz-adv-x="663" 
d="M282 742l-151 136l100 90l103 -94l108 93l68 -58l-142 -167h-86zM67 0v694h286c163 0 259 -76 259 -210c0 -94 -47 -169 -125 -211l173 -273h-208l-135 237h-77v-237h-173zM329 543h-89v-159h113c51 0 79 29 79 76c0 52 -38 83 -103 83z" />
    <glyph glyph-name="uni0156" unicode="&#x156;" horiz-adv-x="663" 
d="M67 0v694h286c163 0 259 -76 259 -210c0 -94 -47 -169 -125 -211l173 -273h-208l-135 237h-77v-237h-173zM329 543h-89v-159h113c51 0 79 29 79 76c0 52 -38 83 -103 83zM217 -227c17 40 28 105 28 171h161c0 -60 -25 -120 -72 -171h-117z" />
    <glyph glyph-name="uni0210" unicode="&#x210;" horiz-adv-x="663" 
d="M479 739l-176 132l119 115l133 -174zM224 739l-176 132l119 115l133 -174zM67 0v694h286c163 0 259 -76 259 -210c0 -94 -47 -169 -125 -211l173 -273h-208l-135 237h-77v-237h-173zM329 543h-89v-159h113c51 0 79 29 79 76c0 52 -38 83 -103 83z" />
    <glyph glyph-name="uni1E5A" unicode="&#x1e5a;" horiz-adv-x="663" 
d="M67 0v694h286c163 0 259 -76 259 -210c0 -94 -47 -169 -125 -211l173 -273h-208l-135 237h-77v-237h-173zM329 543h-89v-159h113c51 0 79 29 79 76c0 52 -38 83 -103 83zM324 -225c-59 0 -99 40 -99 99c0 60 40 100 99 100s99 -40 99 -100c0 -59 -40 -99 -99 -99z" />
    <glyph glyph-name="uni0212" unicode="&#x212;" horiz-adv-x="663" 
d="M219 708l-81 56c17 107 90 175 190 175c101 0 185 -58 198 -153l-124 -77c-5 60 -45 100 -94 100c-48 0 -85 -38 -89 -101zM67 0v694h286c163 0 259 -76 259 -210c0 -94 -47 -169 -125 -211l173 -273h-208l-135 237h-77v-237h-173zM329 543h-89v-159h113
c51 0 79 29 79 76c0 52 -38 83 -103 83z" />
    <glyph glyph-name="uni1E5E" unicode="&#x1e5e;" horiz-adv-x="663" 
d="M67 0v694h286c163 0 259 -76 259 -210c0 -94 -47 -169 -125 -211l173 -273h-208l-135 237h-77v-237h-173zM329 543h-89v-159h113c51 0 79 29 79 76c0 52 -38 83 -103 83zM147 -206v135h353v-135h-353z" />
    <glyph glyph-name="S" unicode="S" horiz-adv-x="584" 
d="M274 -10c-86 0 -178 23 -249 55l48 142c69 -29 145 -41 208 -41c67 0 97 18 97 50c0 107 -341 40 -341 276c0 140 120 232 296 232c71 0 148 -15 206 -41l-48 -138c-49 17 -111 27 -167 27c-68 0 -107 -19 -107 -54c0 -103 343 -26 343 -281c0 -139 -102 -227 -286 -227z
" />
    <glyph glyph-name="Sacute" unicode="&#x15a;" horiz-adv-x="584" 
d="M268 734l-68 93l179 156l98 -134zM274 -10c-86 0 -178 23 -249 55l48 142c69 -29 145 -41 208 -41c67 0 97 18 97 50c0 107 -341 40 -341 276c0 140 120 232 296 232c71 0 148 -15 206 -41l-48 -138c-49 17 -111 27 -167 27c-68 0 -107 -19 -107 -54
c0 -103 343 -26 343 -281c0 -139 -102 -227 -286 -227z" />
    <glyph glyph-name="uni1E64" unicode="&#x1e64;" horiz-adv-x="584" 
d="M158 892c-59 0 -99 40 -99 99c0 60 40 100 99 100s99 -40 99 -100c0 -59 -40 -99 -99 -99zM268 734l-68 93l179 156l98 -134zM274 -10c-86 0 -178 23 -249 55l48 142c69 -29 145 -41 208 -41c67 0 97 18 97 50c0 107 -341 40 -341 276c0 140 120 232 296 232
c71 0 148 -15 206 -41l-48 -138c-49 17 -111 27 -167 27c-68 0 -107 -19 -107 -54c0 -103 343 -26 343 -281c0 -139 -102 -227 -286 -227z" />
    <glyph glyph-name="uniA78B" unicode="&#xa78b;" horiz-adv-x="290" 
d="M67 71l-22 645h190l-22 -645h-146z" />
    <glyph glyph-name="Scaron" unicode="&#x160;" horiz-adv-x="584" 
d="M242 742l-151 136l100 90l103 -94l108 93l68 -58l-142 -167h-86zM274 -10c-86 0 -178 23 -249 55l48 142c69 -29 145 -41 208 -41c67 0 97 18 97 50c0 107 -341 40 -341 276c0 140 120 232 296 232c71 0 148 -15 206 -41l-48 -138c-49 17 -111 27 -167 27
c-68 0 -107 -19 -107 -54c0 -103 343 -26 343 -281c0 -139 -102 -227 -286 -227z" />
    <glyph glyph-name="uni1E66" unicode="&#x1e66;" horiz-adv-x="584" 
d="M290 941c-59 0 -99 40 -99 99c0 60 40 100 99 100s99 -40 99 -100c0 -59 -40 -99 -99 -99zM242 742l-151 136l100 90l103 -94l108 93l68 -58l-142 -167h-86zM274 -10c-86 0 -178 23 -249 55l48 142c69 -29 145 -41 208 -41c67 0 97 18 97 50c0 107 -341 40 -341 276
c0 140 120 232 296 232c71 0 148 -15 206 -41l-48 -138c-49 17 -111 27 -167 27c-68 0 -107 -19 -107 -54c0 -103 343 -26 343 -281c0 -139 -102 -227 -286 -227z" />
    <glyph glyph-name="Scedilla" unicode="&#x15e;" horiz-adv-x="584" 
d="M282 -258c-43 0 -87 8 -115 23l17 92c21 -9 56 -15 82 -15c29 0 45 8 45 21c0 21 -30 35 -95 41l16 88c-73 6 -147 26 -207 53l48 142c69 -29 145 -41 208 -41c67 0 97 18 97 50c0 107 -341 40 -341 276c0 140 120 232 296 232c71 0 148 -15 206 -41l-48 -138
c-49 17 -111 27 -167 27c-68 0 -107 -19 -107 -54c0 -103 343 -26 343 -281c0 -119 -75 -201 -212 -222l-8 -39c73 -11 108 -43 108 -95c0 -73 -64 -119 -166 -119z" />
    <glyph glyph-name="Scircumflex" unicode="&#x15c;" horiz-adv-x="584" 
d="M105 794l146 168h85l147 -137l-96 -91l-104 84l-109 -83zM274 -10c-86 0 -178 23 -249 55l48 142c69 -29 145 -41 208 -41c67 0 97 18 97 50c0 107 -341 40 -341 276c0 140 120 232 296 232c71 0 148 -15 206 -41l-48 -138c-49 17 -111 27 -167 27
c-68 0 -107 -19 -107 -54c0 -103 343 -26 343 -281c0 -139 -102 -227 -286 -227z" />
    <glyph glyph-name="uni0218" unicode="&#x218;" horiz-adv-x="584" 
d="M274 -10c-86 0 -178 23 -249 55l48 142c69 -29 145 -41 208 -41c67 0 97 18 97 50c0 107 -341 40 -341 276c0 140 120 232 296 232c71 0 148 -15 206 -41l-48 -138c-49 17 -111 27 -167 27c-68 0 -107 -19 -107 -54c0 -103 343 -26 343 -281c0 -139 -102 -227 -286 -227z
M184 -227c17 40 28 105 28 171h161c0 -60 -25 -120 -72 -171h-117z" />
    <glyph glyph-name="uni1E60" unicode="&#x1e60;" horiz-adv-x="584" 
d="M255 747c-59 0 -99 40 -99 99c0 60 40 100 99 100s99 -40 99 -100c0 -59 -40 -99 -99 -99zM274 -10c-86 0 -178 23 -249 55l48 142c69 -29 145 -41 208 -41c67 0 97 18 97 50c0 107 -341 40 -341 276c0 140 120 232 296 232c71 0 148 -15 206 -41l-48 -138
c-49 17 -111 27 -167 27c-68 0 -107 -19 -107 -54c0 -103 343 -26 343 -281c0 -139 -102 -227 -286 -227z" />
    <glyph glyph-name="uni1E62" unicode="&#x1e62;" horiz-adv-x="584" 
d="M274 -10c-86 0 -178 23 -249 55l48 142c69 -29 145 -41 208 -41c67 0 97 18 97 50c0 107 -341 40 -341 276c0 140 120 232 296 232c71 0 148 -15 206 -41l-48 -138c-49 17 -111 27 -167 27c-68 0 -107 -19 -107 -54c0 -103 343 -26 343 -281c0 -139 -102 -227 -286 -227z
M291 -225c-59 0 -99 40 -99 99c0 60 40 100 99 100s99 -40 99 -100c0 -59 -40 -99 -99 -99z" />
    <glyph glyph-name="uni1E68" unicode="&#x1e68;" horiz-adv-x="584" 
d="M255 747c-59 0 -99 40 -99 99c0 60 40 100 99 100s99 -40 99 -100c0 -59 -40 -99 -99 -99zM274 -10c-86 0 -178 23 -249 55l48 142c69 -29 145 -41 208 -41c67 0 97 18 97 50c0 107 -341 40 -341 276c0 140 120 232 296 232c71 0 148 -15 206 -41l-48 -138
c-49 17 -111 27 -167 27c-68 0 -107 -19 -107 -54c0 -103 343 -26 343 -281c0 -139 -102 -227 -286 -227zM291 -225c-59 0 -99 40 -99 99c0 60 40 100 99 100s99 -40 99 -100c0 -59 -40 -99 -99 -99z" />
    <glyph glyph-name="uni1E9E" unicode="&#x1e9e;" horiz-adv-x="737" 
d="M447 -10c-58 0 -115 13 -168 38l52 136c32 -15 72 -24 107 -24c55 0 89 23 89 60c0 52 -72 89 -174 104l113 209c-29 28 -61 41 -101 41c-76 0 -126 -47 -126 -120v-434h-176v434c0 162 120 270 307 270c134 0 249 -55 296 -145l-93 -165c85 -31 134 -97 134 -185
c0 -130 -106 -219 -260 -219z" />
    <glyph glyph-name="uni018F" unicode="&#x18f;" horiz-adv-x="741" 
d="M317 704c239 0 386 -133 386 -354c0 -217 -143 -360 -353 -360c-187 0 -305 115 -305 290c0 44 3 90 8 134h458c-27 97 -102 140 -223 140c-63 0 -129 -13 -189 -37l-39 131c80 37 167 56 257 56zM363 140c93 0 146 40 157 132h-309c0 -92 56 -132 152 -132z" />
    <glyph glyph-name="T" unicode="T" horiz-adv-x="620" 
d="M224 0v542h-214v152h600v-152h-216v-542h-170z" />
    <glyph glyph-name="Tbar" unicode="&#x166;" horiz-adv-x="620" 
d="M224 0v267h-110v120h110v155h-214v152h600v-152h-216v-155h111v-120h-111v-267h-170z" />
    <glyph glyph-name="Tcaron" unicode="&#x164;" horiz-adv-x="620" 
d="M267 742l-151 136l100 90l103 -94l108 93l68 -58l-142 -167h-86zM224 0v542h-214v152h600v-152h-216v-542h-170z" />
    <glyph glyph-name="uni0162" unicode="&#x162;" horiz-adv-x="620" 
d="M224 0v542h-214v152h600v-152h-216v-542h-25l-9 -44c73 -11 108 -43 108 -95c0 -73 -64 -119 -166 -119c-43 0 -87 8 -115 23l17 92c21 -9 56 -15 82 -15c29 0 45 8 45 21c0 21 -30 35 -95 41l18 96h-30z" />
    <glyph glyph-name="uni021A" unicode="&#x21a;" horiz-adv-x="620" 
d="M224 0v542h-214v152h600v-152h-216v-542h-170zM204 -227c17 40 28 105 28 171h161c0 -60 -25 -120 -72 -171h-117z" />
    <glyph glyph-name="uni1E6C" unicode="&#x1e6c;" horiz-adv-x="620" 
d="M224 0v542h-214v152h600v-152h-216v-542h-170zM311 -225c-59 0 -99 40 -99 99c0 60 40 100 99 100s99 -40 99 -100c0 -59 -40 -99 -99 -99z" />
    <glyph glyph-name="uni1E6E" unicode="&#x1e6e;" horiz-adv-x="620" 
d="M224 0v542h-214v152h600v-152h-216v-542h-170zM134 -206v135h353v-135h-353z" />
    <glyph glyph-name="U" unicode="U" horiz-adv-x="709" 
d="M347 -10c-184 0 -295 108 -295 287v417h173v-407c0 -92 52 -147 141 -147c76 0 121 47 121 127v427h171v-407c0 -180 -122 -297 -311 -297z" />
    <glyph glyph-name="Uacute" unicode="&#xda;" horiz-adv-x="709" 
d="M339 734l-68 93l179 156l98 -134zM347 -10c-184 0 -295 108 -295 287v417h173v-407c0 -92 52 -147 141 -147c76 0 121 47 121 127v427h171v-407c0 -180 -122 -297 -311 -297z" />
    <glyph glyph-name="Ubreve" unicode="&#x16c;" horiz-adv-x="709" 
d="M344 741c-105 0 -188 58 -202 153l124 77c6 -60 45 -100 97 -100c50 0 88 37 93 101l81 -56c-17 -107 -92 -175 -193 -175zM347 -10c-184 0 -295 108 -295 287v417h173v-407c0 -92 52 -147 141 -147c76 0 121 47 121 127v427h171v-407c0 -180 -122 -297 -311 -297z" />
    <glyph glyph-name="uni01D3" unicode="&#x1d3;" horiz-adv-x="709" 
d="M313 742l-151 136l100 90l103 -94l108 93l68 -58l-142 -167h-86zM347 -10c-184 0 -295 108 -295 287v417h173v-407c0 -92 52 -147 141 -147c76 0 121 47 121 127v427h171v-407c0 -180 -122 -297 -311 -297z" />
    <glyph glyph-name="Ucircumflex" unicode="&#xdb;" horiz-adv-x="709" 
d="M176 794l146 168h85l147 -137l-96 -91l-104 84l-109 -83zM347 -10c-184 0 -295 108 -295 287v417h173v-407c0 -92 52 -147 141 -147c76 0 121 47 121 127v427h171v-407c0 -180 -122 -297 -311 -297z" />
    <glyph glyph-name="uni0214" unicode="&#x214;" horiz-adv-x="709" 
d="M510 739l-176 132l119 115l133 -174zM255 739l-176 132l119 115l133 -174zM347 -10c-184 0 -295 108 -295 287v417h173v-407c0 -92 52 -147 141 -147c76 0 121 47 121 127v427h171v-407c0 -180 -122 -297 -311 -297z" />
    <glyph glyph-name="Udieresis" unicode="&#xdc;" horiz-adv-x="709" 
d="M224 747c-59 0 -99 40 -99 99c0 60 40 100 99 100s99 -40 99 -100c0 -59 -40 -99 -99 -99zM474 747c-59 0 -99 40 -99 99c0 60 40 100 99 100s99 -40 99 -100c0 -59 -40 -99 -99 -99zM347 -10c-184 0 -295 108 -295 287v417h173v-407c0 -92 52 -147 141 -147
c76 0 121 47 121 127v427h171v-407c0 -180 -122 -297 -311 -297z" />
    <glyph glyph-name="uni01D7" unicode="&#x1d7;" horiz-adv-x="709" 
d="M339 946l-68 93l179 156l98 -134zM224 747c-59 0 -99 40 -99 99c0 60 40 100 99 100s99 -40 99 -100c0 -59 -40 -99 -99 -99zM474 747c-59 0 -99 40 -99 99c0 60 40 100 99 100s99 -40 99 -100c0 -59 -40 -99 -99 -99zM347 -10c-184 0 -295 108 -295 287v417h173v-407
c0 -92 52 -147 141 -147c76 0 121 47 121 127v427h171v-407c0 -180 -122 -297 -311 -297z" />
    <glyph glyph-name="uni01D9" unicode="&#x1d9;" horiz-adv-x="709" 
d="M313 954l-151 136l100 90l103 -94l108 93l68 -58l-142 -167h-86zM224 747c-59 0 -99 40 -99 99c0 60 40 100 99 100s99 -40 99 -100c0 -59 -40 -99 -99 -99zM474 747c-59 0 -99 40 -99 99c0 60 40 100 99 100s99 -40 99 -100c0 -59 -40 -99 -99 -99zM347 -10
c-184 0 -295 108 -295 287v417h173v-407c0 -92 52 -147 141 -147c76 0 121 47 121 127v427h171v-407c0 -180 -122 -297 -311 -297z" />
    <glyph glyph-name="uni01DB" unicode="&#x1db;" horiz-adv-x="709" 
d="M371 946l-209 115l98 134l179 -156zM224 747c-59 0 -99 40 -99 99c0 60 40 100 99 100s99 -40 99 -100c0 -59 -40 -99 -99 -99zM474 747c-59 0 -99 40 -99 99c0 60 40 100 99 100s99 -40 99 -100c0 -59 -40 -99 -99 -99zM347 -10c-184 0 -295 108 -295 287v417h173v-407
c0 -92 52 -147 141 -147c76 0 121 47 121 127v427h171v-407c0 -180 -122 -297 -311 -297z" />
    <glyph glyph-name="uni01D5" unicode="&#x1d5;" horiz-adv-x="709" 
d="M178 981v136h360v-136h-360zM224 747c-59 0 -99 40 -99 99c0 60 40 100 99 100s99 -40 99 -100c0 -59 -40 -99 -99 -99zM474 747c-59 0 -99 40 -99 99c0 60 40 100 99 100s99 -40 99 -100c0 -59 -40 -99 -99 -99zM347 -10c-184 0 -295 108 -295 287v417h173v-407
c0 -92 52 -147 141 -147c76 0 121 47 121 127v427h171v-407c0 -180 -122 -297 -311 -297z" />
    <glyph glyph-name="uni1EE4" unicode="&#x1ee4;" horiz-adv-x="709" 
d="M347 -10c-184 0 -295 108 -295 287v417h173v-407c0 -92 52 -147 141 -147c76 0 121 47 121 127v427h171v-407c0 -180 -122 -297 -311 -297zM355 -225c-59 0 -99 40 -99 99c0 60 40 100 99 100s99 -40 99 -100c0 -59 -40 -99 -99 -99z" />
    <glyph glyph-name="Ugrave" unicode="&#xd9;" horiz-adv-x="709" 
d="M371 734l-209 115l98 134l179 -156zM347 -10c-184 0 -295 108 -295 287v417h173v-407c0 -92 52 -147 141 -147c76 0 121 47 121 127v427h171v-407c0 -180 -122 -297 -311 -297z" />
    <glyph glyph-name="uni1EE6" unicode="&#x1ee6;" horiz-adv-x="709" 
d="M327 745l-28 77c27 11 41 28 41 49c0 15 -13 25 -33 25c-15 0 -32 -5 -51 -15l-39 102c44 21 87 32 126 32c76 0 126 -42 126 -106c0 -67 -53 -128 -142 -164zM347 -10c-184 0 -295 108 -295 287v417h173v-407c0 -92 52 -147 141 -147c76 0 121 47 121 127v427h171v-407
c0 -180 -122 -297 -311 -297z" />
    <glyph glyph-name="Uhorn" unicode="&#x1af;" horiz-adv-x="874" 
d="M347 -10c-184 0 -295 108 -295 287v417h173v-407c0 -92 52 -147 141 -147c76 0 121 47 121 127v427h171v-85c36 0 60 36 60 90c0 35 -10 67 -29 95h156c20 -30 29 -65 29 -102c0 -112 -86 -177 -216 -177v-228c0 -180 -122 -297 -311 -297z" />
    <glyph glyph-name="uni1EE8" unicode="&#x1ee8;" horiz-adv-x="874" 
d="M339 734l-68 93l179 156l98 -134zM347 -10c-184 0 -295 108 -295 287v417h173v-407c0 -92 52 -147 141 -147c76 0 121 47 121 127v427h171v-85c36 0 60 36 60 90c0 35 -10 67 -29 95h156c20 -30 29 -65 29 -102c0 -112 -86 -177 -216 -177v-228
c0 -180 -122 -297 -311 -297z" />
    <glyph glyph-name="uni1EF0" unicode="&#x1ef0;" horiz-adv-x="874" 
d="M347 -10c-184 0 -295 108 -295 287v417h173v-407c0 -92 52 -147 141 -147c76 0 121 47 121 127v427h171v-85c36 0 60 36 60 90c0 35 -10 67 -29 95h156c20 -30 29 -65 29 -102c0 -112 -86 -177 -216 -177v-228c0 -180 -122 -297 -311 -297zM355 -225c-59 0 -99 40 -99 99
c0 60 40 100 99 100s99 -40 99 -100c0 -59 -40 -99 -99 -99z" />
    <glyph glyph-name="uni1EEA" unicode="&#x1eea;" horiz-adv-x="874" 
d="M371 734l-209 115l98 134l179 -156zM347 -10c-184 0 -295 108 -295 287v417h173v-407c0 -92 52 -147 141 -147c76 0 121 47 121 127v427h171v-85c36 0 60 36 60 90c0 35 -10 67 -29 95h156c20 -30 29 -65 29 -102c0 -112 -86 -177 -216 -177v-228
c0 -180 -122 -297 -311 -297z" />
    <glyph glyph-name="uni1EEC" unicode="&#x1eec;" horiz-adv-x="874" 
d="M327 745l-28 77c27 11 41 28 41 49c0 15 -13 25 -33 25c-15 0 -32 -5 -51 -15l-39 102c44 21 87 32 126 32c76 0 126 -42 126 -106c0 -67 -53 -128 -142 -164zM347 -10c-184 0 -295 108 -295 287v417h173v-407c0 -92 52 -147 141 -147c76 0 121 47 121 127v427h171v-85
c36 0 60 36 60 90c0 35 -10 67 -29 95h156c20 -30 29 -65 29 -102c0 -112 -86 -177 -216 -177v-228c0 -180 -122 -297 -311 -297z" />
    <glyph glyph-name="uni1EEE" unicode="&#x1eee;" horiz-adv-x="874" 
d="M267 749l-106 25c13 94 67 156 136 156c52 0 92 -42 120 -42c18 0 34 14 43 44l105 -27c-11 -91 -69 -149 -144 -149c-58 0 -83 40 -113 40c-15 0 -32 -16 -41 -47zM347 -10c-184 0 -295 108 -295 287v417h173v-407c0 -92 52 -147 141 -147c76 0 121 47 121 127v427h171
v-85c36 0 60 36 60 90c0 35 -10 67 -29 95h156c20 -30 29 -65 29 -102c0 -112 -86 -177 -216 -177v-228c0 -180 -122 -297 -311 -297z" />
    <glyph glyph-name="Uhungarumlaut" unicode="&#x170;" horiz-adv-x="709" 
d="M200 739l-76 73l133 174l119 -115zM455 739l-76 73l133 174l119 -115zM347 -10c-184 0 -295 108 -295 287v417h173v-407c0 -92 52 -147 141 -147c76 0 121 47 121 127v427h171v-407c0 -180 -122 -297 -311 -297z" />
    <glyph glyph-name="uni0216" unicode="&#x216;" horiz-adv-x="709" 
d="M250 708l-81 56c17 107 90 175 190 175c101 0 185 -58 198 -153l-124 -77c-5 60 -45 100 -94 100c-48 0 -85 -38 -89 -101zM347 -10c-184 0 -295 108 -295 287v417h173v-407c0 -92 52 -147 141 -147c76 0 121 47 121 127v427h171v-407c0 -180 -122 -297 -311 -297z" />
    <glyph glyph-name="Umacron" unicode="&#x16a;" horiz-adv-x="709" 
d="M178 769v136h360v-136h-360zM347 -10c-184 0 -295 108 -295 287v417h173v-407c0 -92 52 -147 141 -147c76 0 121 47 121 127v427h171v-407c0 -180 -122 -297 -311 -297z" />
    <glyph glyph-name="uni1E7A" unicode="&#x1e7a;" horiz-adv-x="709" 
d="M224 955c-59 0 -99 40 -99 99c0 60 40 100 99 100s99 -40 99 -100c0 -59 -40 -99 -99 -99zM474 955c-59 0 -99 40 -99 99c0 60 40 100 99 100s99 -40 99 -100c0 -59 -40 -99 -99 -99zM178 769v136h360v-136h-360zM347 -10c-184 0 -295 108 -295 287v417h173v-407
c0 -92 52 -147 141 -147c76 0 121 47 121 127v427h171v-407c0 -180 -122 -297 -311 -297z" />
    <glyph glyph-name="Uogonek" unicode="&#x172;" horiz-adv-x="709" 
d="M388 -256c-88 0 -140 50 -140 122c0 49 25 93 69 125c-166 11 -265 117 -265 286v417h173v-407c0 -92 52 -147 141 -147c76 0 121 47 121 127v427h171v-407c0 -131 -65 -229 -173 -272c-55 -28 -87 -71 -87 -114c0 -28 16 -52 41 -52c8 0 26 4 40 11l13 -90
c-27 -16 -67 -26 -104 -26z" />
    <glyph glyph-name="Uring" unicode="&#x16e;" horiz-adv-x="709" 
d="M355 739c-77 0 -129 52 -129 131c0 77 52 128 131 128c77 0 129 -50 129 -126c0 -80 -52 -133 -131 -133zM357 825c25 0 42 18 42 45c0 25 -18 42 -44 42c-25 0 -42 -16 -42 -40c0 -28 18 -47 44 -47zM347 -10c-184 0 -295 108 -295 287v417h173v-407
c0 -92 52 -147 141 -147c76 0 121 47 121 127v427h171v-407c0 -180 -122 -297 -311 -297z" />
    <glyph glyph-name="Utilde" unicode="&#x168;" horiz-adv-x="709" 
d="M267 749l-106 25c13 94 67 156 136 156c52 0 92 -42 120 -42c18 0 34 14 43 44l105 -27c-11 -91 -69 -149 -144 -149c-58 0 -83 40 -113 40c-15 0 -32 -16 -41 -47zM347 -10c-184 0 -295 108 -295 287v417h173v-407c0 -92 52 -147 141 -147c76 0 121 47 121 127v427h171
v-407c0 -180 -122 -297 -311 -297z" />
    <glyph glyph-name="uni1E78" unicode="&#x1e78;" horiz-adv-x="709" 
d="M339 979l-68 93l179 156l98 -134zM267 749l-106 25c13 94 67 156 136 156c52 0 92 -42 120 -42c18 0 34 14 43 44l105 -27c-11 -91 -69 -149 -144 -149c-58 0 -83 40 -113 40c-15 0 -32 -16 -41 -47zM347 -10c-184 0 -295 108 -295 287v417h173v-407
c0 -92 52 -147 141 -147c76 0 121 47 121 127v427h171v-407c0 -180 -122 -297 -311 -297z" />
    <glyph glyph-name="V" unicode="V" horiz-adv-x="672" 
d="M243 0l-245 694h202l143 -488l153 488h179l-247 -694h-185z" />
    <glyph glyph-name="W" unicode="W" horiz-adv-x="1026" 
d="M212 0l-212 694h195l117 -478l107 474h189l119 -465l124 469h175l-214 -694h-185l-121 444l-104 -444h-190z" />
    <glyph glyph-name="Wacute" unicode="&#x1e82;" horiz-adv-x="1026" 
d="M494 734l-68 93l179 156l98 -134zM212 0l-212 694h195l117 -478l107 474h189l119 -465l124 469h175l-214 -694h-185l-121 444l-104 -444h-190z" />
    <glyph glyph-name="Wcircumflex" unicode="&#x174;" horiz-adv-x="1026" 
d="M331 794l146 168h85l147 -137l-96 -91l-104 84l-109 -83zM212 0l-212 694h195l117 -478l107 474h189l119 -465l124 469h175l-214 -694h-185l-121 444l-104 -444h-190z" />
    <glyph glyph-name="Wdieresis" unicode="&#x1e84;" horiz-adv-x="1026" 
d="M379 747c-59 0 -99 40 -99 99c0 60 40 100 99 100s99 -40 99 -100c0 -59 -40 -99 -99 -99zM629 747c-59 0 -99 40 -99 99c0 60 40 100 99 100s99 -40 99 -100c0 -59 -40 -99 -99 -99zM212 0l-212 694h195l117 -478l107 474h189l119 -465l124 469h175l-214 -694h-185
l-121 444l-104 -444h-190z" />
    <glyph glyph-name="Wgrave" unicode="&#x1e80;" horiz-adv-x="1026" 
d="M526 734l-209 115l98 134l179 -156zM212 0l-212 694h195l117 -478l107 474h189l119 -465l124 469h175l-214 -694h-185l-121 444l-104 -444h-190z" />
    <glyph glyph-name="X" unicode="X" horiz-adv-x="672" 
d="M-5 0l244 362l-228 332h205l116 -189l116 189h203l-229 -327l257 -367h-209l-142 228l-132 -228h-201z" />
    <glyph glyph-name="Y" unicode="Y" horiz-adv-x="653" 
d="M245 0v251l-265 443h204l153 -292l141 292h194l-254 -447v-247h-173z" />
    <glyph glyph-name="Yacute" unicode="&#xdd;" horiz-adv-x="653" 
d="M308 734l-68 93l179 156l98 -134zM245 0v251l-265 443h204l153 -292l141 292h194l-254 -447v-247h-173z" />
    <glyph glyph-name="Ycircumflex" unicode="&#x176;" horiz-adv-x="653" 
d="M145 794l146 168h85l147 -137l-96 -91l-104 84l-109 -83zM245 0v251l-265 443h204l153 -292l141 292h194l-254 -447v-247h-173z" />
    <glyph glyph-name="Ydieresis" unicode="&#x178;" horiz-adv-x="653" 
d="M193 747c-59 0 -99 40 -99 99c0 60 40 100 99 100s99 -40 99 -100c0 -59 -40 -99 -99 -99zM443 747c-59 0 -99 40 -99 99c0 60 40 100 99 100s99 -40 99 -100c0 -59 -40 -99 -99 -99zM245 0v251l-265 443h204l153 -292l141 292h194l-254 -447v-247h-173z" />
    <glyph glyph-name="uni1E8E" unicode="&#x1e8e;" horiz-adv-x="653" 
d="M295 747c-59 0 -99 40 -99 99c0 60 40 100 99 100s99 -40 99 -100c0 -59 -40 -99 -99 -99zM245 0v251l-265 443h204l153 -292l141 292h194l-254 -447v-247h-173z" />
    <glyph glyph-name="uni1EF4" unicode="&#x1ef4;" horiz-adv-x="653" 
d="M245 0v251l-265 443h204l153 -292l141 292h194l-254 -447v-247h-173zM324 -225c-59 0 -99 40 -99 99c0 60 40 100 99 100s99 -40 99 -100c0 -59 -40 -99 -99 -99z" />
    <glyph glyph-name="Ygrave" unicode="&#x1ef2;" horiz-adv-x="653" 
d="M340 734l-209 115l98 134l179 -156zM245 0v251l-265 443h204l153 -292l141 292h194l-254 -447v-247h-173z" />
    <glyph glyph-name="uni1EF6" unicode="&#x1ef6;" horiz-adv-x="653" 
d="M296 745l-28 77c27 11 41 28 41 49c0 15 -13 25 -33 25c-15 0 -32 -5 -51 -15l-39 102c44 21 87 32 126 32c76 0 126 -42 126 -106c0 -67 -53 -128 -142 -164zM245 0v251l-265 443h204l153 -292l141 292h194l-254 -447v-247h-173z" />
    <glyph glyph-name="uni0232" unicode="&#x232;" horiz-adv-x="653" 
d="M147 769v136h360v-136h-360zM245 0v251l-265 443h204l153 -292l141 292h194l-254 -447v-247h-173z" />
    <glyph glyph-name="uni1EF8" unicode="&#x1ef8;" horiz-adv-x="653" 
d="M236 749l-106 25c13 94 67 156 136 156c52 0 92 -42 120 -42c18 0 34 14 43 44l105 -27c-11 -91 -69 -149 -144 -149c-58 0 -83 40 -113 40c-15 0 -32 -16 -41 -47zM245 0v251l-265 443h204l153 -292l141 292h194l-254 -447v-247h-173z" />
    <glyph glyph-name="Z" unicode="Z" horiz-adv-x="650" 
d="M22 0v111l356 431h-338v152h580v-103l-363 -439h368v-152h-603z" />
    <glyph glyph-name="Zacute" unicode="&#x179;" horiz-adv-x="650" 
d="M315 734l-68 93l179 156l98 -134zM22 0v111l356 431h-338v152h580v-103l-363 -439h368v-152h-603z" />
    <glyph glyph-name="Zcaron" unicode="&#x17d;" horiz-adv-x="650" 
d="M289 742l-151 136l100 90l103 -94l108 93l68 -58l-142 -167h-86zM22 0v111l356 431h-338v152h580v-103l-363 -439h368v-152h-603z" />
    <glyph glyph-name="Zdotaccent" unicode="&#x17b;" horiz-adv-x="650" 
d="M302 747c-59 0 -99 40 -99 99c0 60 40 100 99 100s99 -40 99 -100c0 -59 -40 -99 -99 -99zM22 0v111l356 431h-338v152h580v-103l-363 -439h368v-152h-603z" />
    <glyph glyph-name="uni1E92" unicode="&#x1e92;" horiz-adv-x="650" 
d="M22 0v111l356 431h-338v152h580v-103l-363 -439h368v-152h-603zM331 -225c-59 0 -99 40 -99 99c0 60 40 100 99 100s99 -40 99 -100c0 -59 -40 -99 -99 -99z" />
    <glyph glyph-name="a" unicode="a" horiz-adv-x="528" 
d="M195 -10c-106 0 -173 59 -173 148c0 104 93 153 297 158c-2 43 -42 66 -110 66c-43 0 -90 -9 -141 -27l-40 117c62 30 142 48 218 48c160 0 242 -80 242 -228v-272h-125l-18 52c-37 -41 -87 -62 -150 -62zM196 163c0 -26 24 -44 59 -44c24 0 46 8 64 23v68
c-89 -3 -123 -16 -123 -47z" />
    <glyph glyph-name="aacute" unicode="&#xe1;" horiz-adv-x="528" 
d="M265 532l-81 67l118 179l126 -102zM195 -10c-106 0 -173 59 -173 148c0 104 93 153 297 158c-2 43 -42 66 -110 66c-43 0 -90 -9 -141 -27l-40 117c62 30 142 48 218 48c160 0 242 -80 242 -228v-272h-125l-18 52c-37 -41 -87 -62 -150 -62zM196 163c0 -26 24 -44 59 -44
c24 0 46 8 64 23v68c-89 -3 -123 -16 -123 -47z" />
    <glyph glyph-name="abreve" unicode="&#x103;" horiz-adv-x="528" 
d="M258 541c-105 0 -188 58 -202 153l124 77c6 -60 45 -100 97 -100c50 0 88 37 93 101l81 -56c-17 -107 -92 -175 -193 -175zM195 -10c-106 0 -173 59 -173 148c0 104 93 153 297 158c-2 43 -42 66 -110 66c-43 0 -90 -9 -141 -27l-40 117c62 30 142 48 218 48
c160 0 242 -80 242 -228v-272h-125l-18 52c-37 -41 -87 -62 -150 -62zM196 163c0 -26 24 -44 59 -44c24 0 46 8 64 23v68c-89 -3 -123 -16 -123 -47z" />
    <glyph glyph-name="uni1EAF" unicode="&#x1eaf;" horiz-adv-x="528" 
d="M268 677l-75 64l120 174l117 -98zM249 519c-99 0 -179 54 -192 129l108 64c20 -44 62 -72 106 -72c50 0 89 31 94 75l77 -53c-17 -87 -93 -143 -193 -143zM195 -10c-106 0 -173 59 -173 148c0 104 93 153 297 158c-2 43 -42 66 -110 66c-43 0 -90 -9 -141 -27l-40 117
c62 30 142 48 218 48c160 0 242 -80 242 -228v-272h-125l-18 52c-37 -41 -87 -62 -150 -62zM196 163c0 -26 24 -44 59 -44c24 0 46 8 64 23v68c-89 -3 -123 -16 -123 -47z" />
    <glyph glyph-name="uni1EB7" unicode="&#x1eb7;" horiz-adv-x="528" 
d="M258 541c-105 0 -188 58 -202 153l124 77c6 -60 45 -100 97 -100c50 0 88 37 93 101l81 -56c-17 -107 -92 -175 -193 -175zM195 -10c-106 0 -173 59 -173 148c0 104 93 153 297 158c-2 43 -42 66 -110 66c-43 0 -90 -9 -141 -27l-40 117c62 30 142 48 218 48
c160 0 242 -80 242 -228v-272h-125l-18 52c-37 -41 -87 -62 -150 -62zM196 163c0 -26 24 -44 59 -44c24 0 46 8 64 23v68c-89 -3 -123 -16 -123 -47zM267 -225c-59 0 -99 40 -99 99c0 60 40 100 99 100s99 -40 99 -100c0 -59 -40 -99 -99 -99z" />
    <glyph glyph-name="uni1EB1" unicode="&#x1eb1;" horiz-adv-x="528" 
d="M265 678l-167 135l114 102l126 -170zM249 519c-99 0 -179 54 -192 129l108 64c20 -44 62 -72 106 -72c50 0 89 31 94 75l77 -53c-17 -87 -93 -143 -193 -143zM195 -10c-106 0 -173 59 -173 148c0 104 93 153 297 158c-2 43 -42 66 -110 66c-43 0 -90 -9 -141 -27l-40 117
c62 30 142 48 218 48c160 0 242 -80 242 -228v-272h-125l-18 52c-37 -41 -87 -62 -150 -62zM196 163c0 -26 24 -44 59 -44c24 0 46 8 64 23v68c-89 -3 -123 -16 -123 -47z" />
    <glyph glyph-name="uni1EB3" unicode="&#x1eb3;" horiz-adv-x="528" 
d="M231 700l-28 75c25 5 41 19 41 32c0 12 -10 18 -32 18c-14 0 -29 -2 -52 -10l-39 94c44 16 88 25 126 25c76 0 126 -38 126 -93c0 -57 -53 -112 -142 -141zM249 519c-99 0 -179 54 -192 129l108 64c20 -44 62 -72 106 -72c50 0 89 31 94 75l77 -53
c-17 -87 -93 -143 -193 -143zM195 -10c-106 0 -173 59 -173 148c0 104 93 153 297 158c-2 43 -42 66 -110 66c-43 0 -90 -9 -141 -27l-40 117c62 30 142 48 218 48c160 0 242 -80 242 -228v-272h-125l-18 52c-37 -41 -87 -62 -150 -62zM196 163c0 -26 24 -44 59 -44
c24 0 46 8 64 23v68c-89 -3 -123 -16 -123 -47z" />
    <glyph glyph-name="uni1EB5" unicode="&#x1eb5;" horiz-adv-x="528" 
d="M171 737l-97 23c13 83 63 139 126 139c49 0 85 -35 112 -35c16 0 32 12 40 36l96 -25c-10 -81 -65 -131 -133 -131c-55 0 -78 32 -105 32c-15 0 -31 -14 -39 -39zM249 519c-99 0 -179 54 -192 129l108 64c20 -44 62 -72 106 -72c50 0 89 31 94 75l77 -53
c-17 -87 -93 -143 -193 -143zM195 -10c-106 0 -173 59 -173 148c0 104 93 153 297 158c-2 43 -42 66 -110 66c-43 0 -90 -9 -141 -27l-40 117c62 30 142 48 218 48c160 0 242 -80 242 -228v-272h-125l-18 52c-37 -41 -87 -62 -150 -62zM196 163c0 -26 24 -44 59 -44
c24 0 46 8 64 23v68c-89 -3 -123 -16 -123 -47z" />
    <glyph glyph-name="uni01CE" unicode="&#x1ce;" horiz-adv-x="528" 
d="M217 547l-151 136l100 90l103 -94l108 93l68 -58l-142 -167h-86zM195 -10c-106 0 -173 59 -173 148c0 104 93 153 297 158c-2 43 -42 66 -110 66c-43 0 -90 -9 -141 -27l-40 117c62 30 142 48 218 48c160 0 242 -80 242 -228v-272h-125l-18 52c-37 -41 -87 -62 -150 -62z
M196 163c0 -26 24 -44 59 -44c24 0 46 8 64 23v68c-89 -3 -123 -16 -123 -47z" />
    <glyph glyph-name="acircumflex" unicode="&#xe2;" horiz-adv-x="528" 
d="M74 594l146 168h85l147 -137l-96 -91l-104 84l-109 -83zM195 -10c-106 0 -173 59 -173 148c0 104 93 153 297 158c-2 43 -42 66 -110 66c-43 0 -90 -9 -141 -27l-40 117c62 30 142 48 218 48c160 0 242 -80 242 -228v-272h-125l-18 52c-37 -41 -87 -62 -150 -62zM196 163
c0 -26 24 -44 59 -44c24 0 46 8 64 23v68c-89 -3 -123 -16 -123 -47z" />
    <glyph glyph-name="uni1EA5" unicode="&#x1ea5;" horiz-adv-x="528" 
d="M445 659l-75 64l120 174l117 -98zM73 571l146 143h85l147 -112l-96 -91l-104 70l-109 -69zM195 -10c-106 0 -173 59 -173 148c0 104 93 153 297 158c-2 43 -42 66 -110 66c-43 0 -90 -9 -141 -27l-40 117c62 30 142 48 218 48c160 0 242 -80 242 -228v-272h-125l-18 52
c-37 -41 -87 -62 -150 -62zM196 163c0 -26 24 -44 59 -44c24 0 46 8 64 23v68c-89 -3 -123 -16 -123 -47z" />
    <glyph glyph-name="uni1EAD" unicode="&#x1ead;" horiz-adv-x="528" 
d="M74 594l146 168h85l147 -137l-96 -91l-104 84l-109 -83zM195 -10c-106 0 -173 59 -173 148c0 104 93 153 297 158c-2 43 -42 66 -110 66c-43 0 -90 -9 -141 -27l-40 117c62 30 142 48 218 48c160 0 242 -80 242 -228v-272h-125l-18 52c-37 -41 -87 -62 -150 -62zM196 163
c0 -26 24 -44 59 -44c24 0 46 8 64 23v68c-89 -3 -123 -16 -123 -47zM267 -225c-59 0 -99 40 -99 99c0 60 40 100 99 100s99 -40 99 -100c0 -59 -40 -99 -99 -99z" />
    <glyph glyph-name="uni1EA7" unicode="&#x1ea7;" horiz-adv-x="528" 
d="M442 660l-167 135l114 102l126 -170zM73 571l146 143h85l147 -112l-96 -91l-104 70l-109 -69zM195 -10c-106 0 -173 59 -173 148c0 104 93 153 297 158c-2 43 -42 66 -110 66c-43 0 -90 -9 -141 -27l-40 117c62 30 142 48 218 48c160 0 242 -80 242 -228v-272h-125
l-18 52c-37 -41 -87 -62 -150 -62zM196 163c0 -26 24 -44 59 -44c24 0 46 8 64 23v68c-89 -3 -123 -16 -123 -47z" />
    <glyph glyph-name="uni1EA9" unicode="&#x1ea9;" horiz-adv-x="528" 
d="M408 682l-28 75c25 5 41 19 41 32c0 12 -10 18 -32 18c-14 0 -29 -2 -52 -10l-39 94c44 16 88 25 126 25c76 0 126 -38 126 -93c0 -57 -53 -112 -142 -141zM73 571l146 143h85l147 -112l-96 -91l-104 70l-109 -69zM195 -10c-106 0 -173 59 -173 148c0 104 93 153 297 158
c-2 43 -42 66 -110 66c-43 0 -90 -9 -141 -27l-40 117c62 30 142 48 218 48c160 0 242 -80 242 -228v-272h-125l-18 52c-37 -41 -87 -62 -150 -62zM196 163c0 -26 24 -44 59 -44c24 0 46 8 64 23v68c-89 -3 -123 -16 -123 -47z" />
    <glyph glyph-name="uni1EAB" unicode="&#x1eab;" horiz-adv-x="528" 
d="M171 737l-97 23c13 83 63 139 126 139c49 0 85 -35 112 -35c16 0 32 12 40 36l96 -25c-10 -81 -65 -131 -133 -131c-55 0 -78 32 -105 32c-15 0 -31 -14 -39 -39zM73 571l146 143h85l147 -112l-96 -91l-104 70l-109 -69zM195 -10c-106 0 -173 59 -173 148
c0 104 93 153 297 158c-2 43 -42 66 -110 66c-43 0 -90 -9 -141 -27l-40 117c62 30 142 48 218 48c160 0 242 -80 242 -228v-272h-125l-18 52c-37 -41 -87 -62 -150 -62zM196 163c0 -26 24 -44 59 -44c24 0 46 8 64 23v68c-89 -3 -123 -16 -123 -47z" />
    <glyph glyph-name="uni0201" unicode="&#x201;" horiz-adv-x="528" 
d="M334 527l-136 170l142 79l85 -197zM115 527l-135 170l141 78l85 -196zM195 -10c-106 0 -173 59 -173 148c0 104 93 153 297 158c-2 43 -42 66 -110 66c-43 0 -90 -9 -141 -27l-40 117c62 30 142 48 218 48c160 0 242 -80 242 -228v-272h-125l-18 52
c-37 -41 -87 -62 -150 -62zM196 163c0 -26 24 -44 59 -44c24 0 46 8 64 23v68c-89 -3 -123 -16 -123 -47z" />
    <glyph glyph-name="adieresis" unicode="&#xe4;" horiz-adv-x="528" 
d="M132 557c-59 0 -99 40 -99 99c0 60 40 100 99 100s99 -40 99 -100c0 -59 -40 -99 -99 -99zM382 557c-59 0 -99 40 -99 99c0 60 40 100 99 100s99 -40 99 -100c0 -59 -40 -99 -99 -99zM195 -10c-106 0 -173 59 -173 148c0 104 93 153 297 158c-2 43 -42 66 -110 66
c-43 0 -90 -9 -141 -27l-40 117c62 30 142 48 218 48c160 0 242 -80 242 -228v-272h-125l-18 52c-37 -41 -87 -62 -150 -62zM196 163c0 -26 24 -44 59 -44c24 0 46 8 64 23v68c-89 -3 -123 -16 -123 -47z" />
    <glyph glyph-name="uni1EA1" unicode="&#x1ea1;" horiz-adv-x="528" 
d="M195 -10c-106 0 -173 59 -173 148c0 104 93 153 297 158c-2 43 -42 66 -110 66c-43 0 -90 -9 -141 -27l-40 117c62 30 142 48 218 48c160 0 242 -80 242 -228v-272h-125l-18 52c-37 -41 -87 -62 -150 -62zM196 163c0 -26 24 -44 59 -44c24 0 46 8 64 23v68
c-89 -3 -123 -16 -123 -47zM267 -225c-59 0 -99 40 -99 99c0 60 40 100 99 100s99 -40 99 -100c0 -59 -40 -99 -99 -99z" />
    <glyph glyph-name="agrave" unicode="&#xe0;" horiz-adv-x="528" 
d="M240 532l-163 144l126 102l118 -179zM195 -10c-106 0 -173 59 -173 148c0 104 93 153 297 158c-2 43 -42 66 -110 66c-43 0 -90 -9 -141 -27l-40 117c62 30 142 48 218 48c160 0 242 -80 242 -228v-272h-125l-18 52c-37 -41 -87 -62 -150 -62zM196 163
c0 -26 24 -44 59 -44c24 0 46 8 64 23v68c-89 -3 -123 -16 -123 -47z" />
    <glyph glyph-name="uni1EA3" unicode="&#x1ea3;" horiz-adv-x="528" 
d="M230 545l-28 77c27 11 41 28 41 49c0 15 -13 25 -33 25c-15 0 -32 -5 -51 -15l-39 102c44 21 87 32 126 32c76 0 126 -42 126 -106c0 -67 -53 -128 -142 -164zM195 -10c-106 0 -173 59 -173 148c0 104 93 153 297 158c-2 43 -42 66 -110 66c-43 0 -90 -9 -141 -27
l-40 117c62 30 142 48 218 48c160 0 242 -80 242 -228v-272h-125l-18 52c-37 -41 -87 -62 -150 -62zM196 163c0 -26 24 -44 59 -44c24 0 46 8 64 23v68c-89 -3 -123 -16 -123 -47z" />
    <glyph glyph-name="uni0203" unicode="&#x203;" horiz-adv-x="528" 
d="M157 538l-81 56c17 107 90 175 190 175c101 0 185 -58 198 -153l-124 -77c-5 60 -45 100 -94 100c-48 0 -85 -38 -89 -101zM195 -10c-106 0 -173 59 -173 148c0 104 93 153 297 158c-2 43 -42 66 -110 66c-43 0 -90 -9 -141 -27l-40 117c62 30 142 48 218 48
c160 0 242 -80 242 -228v-272h-125l-18 52c-37 -41 -87 -62 -150 -62zM196 163c0 -26 24 -44 59 -44c24 0 46 8 64 23v68c-89 -3 -123 -16 -123 -47z" />
    <glyph glyph-name="amacron" unicode="&#x101;" horiz-adv-x="528" 
d="M77 577v136h360v-136h-360zM195 -10c-106 0 -173 59 -173 148c0 104 93 153 297 158c-2 43 -42 66 -110 66c-43 0 -90 -9 -141 -27l-40 117c62 30 142 48 218 48c160 0 242 -80 242 -228v-272h-125l-18 52c-37 -41 -87 -62 -150 -62zM196 163c0 -26 24 -44 59 -44
c24 0 46 8 64 23v68c-89 -3 -123 -16 -123 -47z" />
    <glyph glyph-name="aogonek" unicode="&#x105;" horiz-adv-x="528" 
d="M195 -10c-106 0 -173 59 -173 148c0 104 93 153 297 158c-2 43 -42 66 -110 66c-43 0 -90 -9 -141 -27l-40 117c62 30 142 48 218 48c160 0 242 -80 242 -228v-272c-62 -21 -100 -61 -100 -105c0 -25 16 -46 41 -46c8 0 26 3 40 10l13 -90c-27 -15 -64 -25 -104 -25
c-88 0 -140 47 -140 116c0 65 46 118 123 145l-16 47c-37 -41 -87 -62 -150 -62zM196 163c0 -26 24 -44 59 -44c24 0 46 8 64 23v68c-89 -3 -123 -16 -123 -47z" />
    <glyph glyph-name="aring" unicode="&#xe5;" horiz-adv-x="528" 
d="M257 547c-77 0 -129 52 -129 131c0 77 52 128 131 128c77 0 129 -50 129 -126c0 -80 -52 -133 -131 -133zM259 633c25 0 42 18 42 45c0 25 -18 42 -44 42c-25 0 -42 -16 -42 -40c0 -28 18 -47 44 -47zM195 -10c-106 0 -173 59 -173 148c0 104 93 153 297 158
c-2 43 -42 66 -110 66c-43 0 -90 -9 -141 -27l-40 117c62 30 142 48 218 48c160 0 242 -80 242 -228v-272h-125l-18 52c-37 -41 -87 -62 -150 -62zM196 163c0 -26 24 -44 59 -44c24 0 46 8 64 23v68c-89 -3 -123 -16 -123 -47z" />
    <glyph glyph-name="aringacute" unicode="&#x1fb;" horiz-adv-x="528" 
d="M250 547c-77 0 -129 52 -129 131c0 77 52 128 131 128c11 0 21 -1 31 -3l78 118l126 -102l-112 -99c4 -12 6 -25 6 -40c0 -80 -52 -133 -131 -133zM252 633c25 0 42 18 42 45c0 25 -18 42 -44 42c-25 0 -42 -16 -42 -40c0 -28 18 -47 44 -47zM195 -10
c-106 0 -173 59 -173 148c0 104 93 153 297 158c-2 43 -42 66 -110 66c-43 0 -90 -9 -141 -27l-40 117c62 30 142 48 218 48c160 0 242 -80 242 -228v-272h-125l-18 52c-37 -41 -87 -62 -150 -62zM196 163c0 -26 24 -44 59 -44c24 0 46 8 64 23v68c-89 -3 -123 -16 -123 -47
z" />
    <glyph glyph-name="atilde" unicode="&#xe3;" horiz-adv-x="528" 
d="M163 551l-106 25c13 94 67 156 136 156c52 0 92 -42 120 -42c18 0 34 14 43 44l105 -27c-11 -91 -69 -149 -144 -149c-58 0 -83 40 -113 40c-15 0 -32 -16 -41 -47zM195 -10c-106 0 -173 59 -173 148c0 104 93 153 297 158c-2 43 -42 66 -110 66c-43 0 -90 -9 -141 -27
l-40 117c62 30 142 48 218 48c160 0 242 -80 242 -228v-272h-125l-18 52c-37 -41 -87 -62 -150 -62zM196 163c0 -26 24 -44 59 -44c24 0 46 8 64 23v68c-89 -3 -123 -16 -123 -47z" />
    <glyph glyph-name="ae" unicode="&#xe6;" horiz-adv-x="796" 
d="M186 -10c-98 0 -164 54 -164 136c0 103 107 166 290 172c-8 39 -41 61 -95 61c-44 0 -100 -14 -152 -38l-38 117c64 39 148 62 226 62c62 0 109 -16 141 -50c38 33 89 50 151 50c140 0 223 -85 223 -229c0 -27 -3 -56 -7 -72h-289c17 -54 59 -79 131 -79
c37 0 77 7 117 21l39 -119c-62 -21 -125 -32 -185 -32c-98 0 -169 30 -211 87c-49 -59 -107 -87 -177 -87zM533 369c-37 0 -60 -23 -67 -70h132c0 44 -24 70 -65 70zM196 157c0 -24 19 -38 53 -38c27 0 55 10 81 29c-5 18 -8 36 -10 57c-87 -2 -124 -16 -124 -48z" />
    <glyph glyph-name="aeacute" unicode="&#x1fd;" horiz-adv-x="796" 
d="M405 532l-81 67l118 179l126 -102zM186 -10c-98 0 -164 54 -164 136c0 103 107 166 290 172c-8 39 -41 61 -95 61c-44 0 -100 -14 -152 -38l-38 117c64 39 148 62 226 62c62 0 109 -16 141 -50c38 33 89 50 151 50c140 0 223 -85 223 -229c0 -27 -3 -56 -7 -72h-289
c17 -54 59 -79 131 -79c37 0 77 7 117 21l39 -119c-62 -21 -125 -32 -185 -32c-98 0 -169 30 -211 87c-49 -59 -107 -87 -177 -87zM533 369c-37 0 -60 -23 -67 -70h132c0 44 -24 70 -65 70zM196 157c0 -24 19 -38 53 -38c27 0 55 10 81 29c-5 18 -8 36 -10 57
c-87 -2 -124 -16 -124 -48z" />
    <glyph glyph-name="b" unicode="b" horiz-adv-x="576" 
d="M54 0v739h166v-285c33 30 76 46 126 46c124 0 209 -100 209 -251c0 -155 -91 -259 -227 -259c-62 0 -109 22 -141 64l-27 -54h-106zM284 356c-24 0 -48 -6 -64 -25v-162c18 -23 45 -35 75 -35c54 0 84 39 84 109c0 73 -34 113 -95 113z" />
    <glyph glyph-name="c" unicode="c" horiz-adv-x="460" 
d="M284 -10c-167 0 -266 91 -266 246c0 162 108 264 278 264c52 0 107 -10 147 -27l-35 -134c-30 10 -70 17 -103 17c-74 0 -111 -39 -111 -108c0 -77 46 -120 127 -120c28 0 58 5 87 17l38 -117c-51 -26 -102 -38 -162 -38z" />
    <glyph glyph-name="cacute" unicode="&#x107;" horiz-adv-x="460" 
d="M249 532l-81 67l118 179l126 -102zM284 -10c-167 0 -266 91 -266 246c0 162 108 264 278 264c52 0 107 -10 147 -27l-35 -134c-30 10 -70 17 -103 17c-74 0 -111 -39 -111 -108c0 -77 46 -120 127 -120c28 0 58 5 87 17l38 -117c-51 -26 -102 -38 -162 -38z" />
    <glyph glyph-name="ccaron" unicode="&#x10d;" horiz-adv-x="460" 
d="M201 547l-151 136l100 90l103 -94l108 93l68 -58l-142 -167h-86zM284 -10c-167 0 -266 91 -266 246c0 162 108 264 278 264c52 0 107 -10 147 -27l-35 -134c-30 10 -70 17 -103 17c-74 0 -111 -39 -111 -108c0 -77 46 -120 127 -120c28 0 58 5 87 17l38 -117
c-51 -26 -102 -38 -162 -38z" />
    <glyph glyph-name="ccedilla" unicode="&#xe7;" horiz-adv-x="460" 
d="M284 -10h-3l-7 -34c73 -11 108 -43 108 -95c0 -73 -64 -119 -166 -119c-43 0 -87 8 -115 23l17 92c21 -9 56 -15 82 -15c29 0 45 8 45 21c0 21 -30 35 -95 41l19 104c-96 33 -151 113 -151 228c0 162 108 264 278 264c52 0 107 -10 147 -27l-35 -134
c-30 10 -70 17 -103 17c-74 0 -111 -39 -111 -108c0 -77 46 -120 127 -120c28 0 58 5 87 17l38 -117c-51 -26 -102 -38 -162 -38z" />
    <glyph glyph-name="uni1E09" unicode="&#x1e09;" horiz-adv-x="460" 
d="M249 532l-81 67l118 179l126 -102zM284 -10h-3l-7 -34c73 -11 108 -43 108 -95c0 -73 -64 -119 -166 -119c-43 0 -87 8 -115 23l17 92c21 -9 56 -15 82 -15c29 0 45 8 45 21c0 21 -30 35 -95 41l19 104c-96 33 -151 113 -151 228c0 162 108 264 278 264
c52 0 107 -10 147 -27l-35 -134c-30 10 -70 17 -103 17c-74 0 -111 -39 -111 -108c0 -77 46 -120 127 -120c28 0 58 5 87 17l38 -117c-51 -26 -102 -38 -162 -38z" />
    <glyph glyph-name="ccircumflex" unicode="&#x109;" horiz-adv-x="460" 
d="M58 594l146 168h85l147 -137l-96 -91l-104 84l-109 -83zM284 -10c-167 0 -266 91 -266 246c0 162 108 264 278 264c52 0 107 -10 147 -27l-35 -134c-30 10 -70 17 -103 17c-74 0 -111 -39 -111 -108c0 -77 46 -120 127 -120c28 0 58 5 87 17l38 -117
c-51 -26 -102 -38 -162 -38z" />
    <glyph glyph-name="cdotaccent" unicode="&#x10b;" horiz-adv-x="460" 
d="M241 557c-59 0 -99 40 -99 99c0 60 40 100 99 100s99 -40 99 -100c0 -59 -40 -99 -99 -99zM284 -10c-167 0 -266 91 -266 246c0 162 108 264 278 264c52 0 107 -10 147 -27l-35 -134c-30 10 -70 17 -103 17c-74 0 -111 -39 -111 -108c0 -77 46 -120 127 -120
c28 0 58 5 87 17l38 -117c-51 -26 -102 -38 -162 -38z" />
    <glyph glyph-name="d" unicode="d" horiz-adv-x="576" 
d="M228 -10c-120 0 -207 99 -207 251c0 156 92 259 229 259c42 0 77 -11 106 -32v271h166v-739h-106l-34 68c-36 -49 -90 -78 -154 -78zM197 248c0 -72 32 -114 86 -114c30 0 56 12 73 34v153c-18 22 -45 35 -75 35c-53 0 -84 -40 -84 -108z" />
    <glyph glyph-name="eth" unicode="&#xf0;" horiz-adv-x="571" 
d="M272 -9c-148 0 -247 90 -247 224c0 139 91 232 227 232c40 0 77 -8 108 -23c-18 34 -51 69 -96 104l-98 -59l-51 86l57 34c-22 13 -45 25 -70 37l47 124c60 -23 112 -49 158 -79l112 68l51 -86l-78 -47c93 -87 141 -195 141 -321c0 -184 -98 -294 -261 -294zM286 131
c46 0 77 33 77 84c0 55 -33 92 -83 92c-49 0 -78 -31 -78 -83c0 -56 34 -93 84 -93z" />
    <glyph glyph-name="dcaron" unicode="&#x10f;" horiz-adv-x="651" 
d="M657 535l-100 15l11 203l137 -17zM228 -10c-120 0 -207 99 -207 251c0 156 92 259 229 259c42 0 77 -11 106 -32v271h166v-739h-106l-34 68c-36 -49 -90 -78 -154 -78zM197 248c0 -72 32 -114 86 -114c30 0 56 12 73 34v153c-18 22 -45 35 -75 35c-53 0 -84 -40 -84 -108
z" />
    <glyph glyph-name="dcroat" unicode="&#x111;" horiz-adv-x="576" 
d="M228 -10c-120 0 -207 99 -207 251c0 156 92 259 229 259c42 0 77 -11 106 -32v78h-120v107h120v86h166v-86h67v-107h-67v-546h-106l-34 68c-36 -49 -90 -78 -154 -78zM197 248c0 -72 32 -114 86 -114c30 0 56 12 73 34v153c-18 22 -45 35 -75 35c-53 0 -84 -40 -84 -108z
" />
    <glyph glyph-name="uni1E0D" unicode="&#x1e0d;" horiz-adv-x="576" 
d="M228 -10c-120 0 -207 99 -207 251c0 156 92 259 229 259c42 0 77 -11 106 -32v271h166v-739h-106l-34 68c-36 -49 -90 -78 -154 -78zM197 248c0 -72 32 -114 86 -114c30 0 56 12 73 34v153c-18 22 -45 35 -75 35c-53 0 -84 -40 -84 -108zM284 -225c-59 0 -99 40 -99 99
c0 60 40 100 99 100s99 -40 99 -100c0 -59 -40 -99 -99 -99z" />
    <glyph glyph-name="uni1E0F" unicode="&#x1e0f;" horiz-adv-x="576" 
d="M228 -10c-120 0 -207 99 -207 251c0 156 92 259 229 259c42 0 77 -11 106 -32v271h166v-739h-106l-34 68c-36 -49 -90 -78 -154 -78zM197 248c0 -72 32 -114 86 -114c30 0 56 12 73 34v153c-18 22 -45 35 -75 35c-53 0 -84 -40 -84 -108zM107 -206v135h353v-135h-353z
" />
    <glyph glyph-name="uni01C6" unicode="&#x1c6;" horiz-adv-x="1066" 
d="M781 547l-151 136l100 90l103 -94l108 93l68 -58l-142 -167h-86zM228 -10c-120 0 -207 99 -207 251c0 156 92 259 229 259c42 0 77 -11 106 -32v271h166v-739h-106l-34 68c-36 -49 -90 -78 -154 -78zM604 0v103l205 246h-205v141h426v-104l-205 -245h218v-141h-439z
M197 248c0 -72 32 -114 86 -114c30 0 56 12 73 34v153c-18 22 -45 35 -75 35c-53 0 -84 -40 -84 -108z" />
    <glyph glyph-name="e" unicode="e" horiz-adv-x="526" 
d="M304 -10c-178 0 -286 96 -286 254c0 154 103 256 258 256c140 0 222 -84 222 -227c0 -26 -3 -51 -7 -76h-294c17 -55 61 -79 134 -79c40 0 79 7 120 21l38 -117c-62 -21 -125 -32 -185 -32zM264 373c-40 0 -65 -26 -73 -76h144c0 48 -26 76 -71 76z" />
    <glyph glyph-name="eacute" unicode="&#xe9;" horiz-adv-x="526" 
d="M275 532l-81 67l118 179l126 -102zM304 -10c-178 0 -286 96 -286 254c0 154 103 256 258 256c140 0 222 -84 222 -227c0 -26 -3 -51 -7 -76h-294c17 -55 61 -79 134 -79c40 0 79 7 120 21l38 -117c-62 -21 -125 -32 -185 -32zM264 373c-40 0 -65 -26 -73 -76h144
c0 48 -26 76 -71 76z" />
    <glyph glyph-name="ebreve" unicode="&#x115;" horiz-adv-x="526" 
d="M268 541c-105 0 -188 58 -202 153l124 77c6 -60 45 -100 97 -100c50 0 88 37 93 101l81 -56c-17 -107 -92 -175 -193 -175zM304 -10c-178 0 -286 96 -286 254c0 154 103 256 258 256c140 0 222 -84 222 -227c0 -26 -3 -51 -7 -76h-294c17 -55 61 -79 134 -79
c40 0 79 7 120 21l38 -117c-62 -21 -125 -32 -185 -32zM264 373c-40 0 -65 -26 -73 -76h144c0 48 -26 76 -71 76z" />
    <glyph glyph-name="ecaron" unicode="&#x11b;" horiz-adv-x="526" 
d="M227 547l-151 136l100 90l103 -94l108 93l68 -58l-142 -167h-86zM304 -10c-178 0 -286 96 -286 254c0 154 103 256 258 256c140 0 222 -84 222 -227c0 -26 -3 -51 -7 -76h-294c17 -55 61 -79 134 -79c40 0 79 7 120 21l38 -117c-62 -21 -125 -32 -185 -32zM264 373
c-40 0 -65 -26 -73 -76h144c0 48 -26 76 -71 76z" />
    <glyph glyph-name="uni1E1D" unicode="&#x1e1d;" horiz-adv-x="526" 
d="M268 541c-105 0 -188 58 -202 153l124 77c6 -60 45 -100 97 -100c50 0 88 37 93 101l81 -56c-17 -107 -92 -175 -193 -175zM256 -258c-43 0 -87 8 -115 23l17 92c21 -9 56 -15 82 -15c29 0 45 8 45 21c0 21 -30 35 -95 41l18 97c-120 29 -190 116 -190 243
c0 154 103 256 258 256c140 0 222 -84 222 -227c0 -26 -3 -51 -7 -76h-294c17 -55 61 -79 134 -79c40 0 79 7 120 21l38 -117c-56 -19 -113 -30 -168 -32l-7 -34c73 -11 108 -43 108 -95c0 -73 -64 -119 -166 -119zM264 373c-40 0 -65 -26 -73 -76h144c0 48 -26 76 -71 76z
" />
    <glyph glyph-name="ecircumflex" unicode="&#xea;" horiz-adv-x="526" 
d="M84 594l146 168h85l147 -137l-96 -91l-104 84l-109 -83zM304 -10c-178 0 -286 96 -286 254c0 154 103 256 258 256c140 0 222 -84 222 -227c0 -26 -3 -51 -7 -76h-294c17 -55 61 -79 134 -79c40 0 79 7 120 21l38 -117c-62 -21 -125 -32 -185 -32zM264 373
c-40 0 -65 -26 -73 -76h144c0 48 -26 76 -71 76z" />
    <glyph glyph-name="uni1EBF" unicode="&#x1ebf;" horiz-adv-x="526" 
d="M455 659l-75 64l120 174l117 -98zM83 571l146 143h85l147 -112l-96 -91l-104 70l-109 -69zM304 -10c-178 0 -286 96 -286 254c0 154 103 256 258 256c140 0 222 -84 222 -227c0 -26 -3 -51 -7 -76h-294c17 -55 61 -79 134 -79c40 0 79 7 120 21l38 -117
c-62 -21 -125 -32 -185 -32zM264 373c-40 0 -65 -26 -73 -76h144c0 48 -26 76 -71 76z" />
    <glyph glyph-name="uni1EC7" unicode="&#x1ec7;" horiz-adv-x="526" 
d="M84 594l146 168h85l147 -137l-96 -91l-104 84l-109 -83zM304 -10c-178 0 -286 96 -286 254c0 154 103 256 258 256c140 0 222 -84 222 -227c0 -26 -3 -51 -7 -76h-294c17 -55 61 -79 134 -79c40 0 79 7 120 21l38 -117c-62 -21 -125 -32 -185 -32zM264 373
c-40 0 -65 -26 -73 -76h144c0 48 -26 76 -71 76zM265 -225c-59 0 -99 40 -99 99c0 60 40 100 99 100s99 -40 99 -100c0 -59 -40 -99 -99 -99z" />
    <glyph glyph-name="uni1EC1" unicode="&#x1ec1;" horiz-adv-x="526" 
d="M452 660l-167 135l114 102l126 -170zM83 571l146 143h85l147 -112l-96 -91l-104 70l-109 -69zM304 -10c-178 0 -286 96 -286 254c0 154 103 256 258 256c140 0 222 -84 222 -227c0 -26 -3 -51 -7 -76h-294c17 -55 61 -79 134 -79c40 0 79 7 120 21l38 -117
c-62 -21 -125 -32 -185 -32zM264 373c-40 0 -65 -26 -73 -76h144c0 48 -26 76 -71 76z" />
    <glyph glyph-name="uni1EC3" unicode="&#x1ec3;" horiz-adv-x="526" 
d="M418 682l-28 75c25 5 41 19 41 32c0 12 -10 18 -32 18c-14 0 -29 -2 -52 -10l-39 94c44 16 88 25 126 25c76 0 126 -38 126 -93c0 -57 -53 -112 -142 -141zM83 571l146 143h85l147 -112l-96 -91l-104 70l-109 -69zM304 -10c-178 0 -286 96 -286 254
c0 154 103 256 258 256c140 0 222 -84 222 -227c0 -26 -3 -51 -7 -76h-294c17 -55 61 -79 134 -79c40 0 79 7 120 21l38 -117c-62 -21 -125 -32 -185 -32zM264 373c-40 0 -65 -26 -73 -76h144c0 48 -26 76 -71 76z" />
    <glyph glyph-name="uni1EC5" unicode="&#x1ec5;" horiz-adv-x="526" 
d="M181 737l-97 23c13 83 63 139 126 139c49 0 85 -35 112 -35c16 0 32 12 40 36l96 -25c-10 -81 -65 -131 -133 -131c-55 0 -78 32 -105 32c-15 0 -31 -14 -39 -39zM83 571l146 143h85l147 -112l-96 -91l-104 70l-109 -69zM304 -10c-178 0 -286 96 -286 254
c0 154 103 256 258 256c140 0 222 -84 222 -227c0 -26 -3 -51 -7 -76h-294c17 -55 61 -79 134 -79c40 0 79 7 120 21l38 -117c-62 -21 -125 -32 -185 -32zM264 373c-40 0 -65 -26 -73 -76h144c0 48 -26 76 -71 76z" />
    <glyph glyph-name="uni0205" unicode="&#x205;" horiz-adv-x="526" 
d="M344 527l-136 170l142 79l85 -197zM125 527l-135 170l141 78l85 -196zM304 -10c-178 0 -286 96 -286 254c0 154 103 256 258 256c140 0 222 -84 222 -227c0 -26 -3 -51 -7 -76h-294c17 -55 61 -79 134 -79c40 0 79 7 120 21l38 -117c-62 -21 -125 -32 -185 -32zM264 373
c-40 0 -65 -26 -73 -76h144c0 48 -26 76 -71 76z" />
    <glyph glyph-name="edieresis" unicode="&#xeb;" horiz-adv-x="526" 
d="M142 557c-59 0 -99 40 -99 99c0 60 40 100 99 100s99 -40 99 -100c0 -59 -40 -99 -99 -99zM392 557c-59 0 -99 40 -99 99c0 60 40 100 99 100s99 -40 99 -100c0 -59 -40 -99 -99 -99zM304 -10c-178 0 -286 96 -286 254c0 154 103 256 258 256c140 0 222 -84 222 -227
c0 -26 -3 -51 -7 -76h-294c17 -55 61 -79 134 -79c40 0 79 7 120 21l38 -117c-62 -21 -125 -32 -185 -32zM264 373c-40 0 -65 -26 -73 -76h144c0 48 -26 76 -71 76z" />
    <glyph glyph-name="edotaccent" unicode="&#x117;" horiz-adv-x="526" 
d="M267 557c-59 0 -99 40 -99 99c0 60 40 100 99 100s99 -40 99 -100c0 -59 -40 -99 -99 -99zM304 -10c-178 0 -286 96 -286 254c0 154 103 256 258 256c140 0 222 -84 222 -227c0 -26 -3 -51 -7 -76h-294c17 -55 61 -79 134 -79c40 0 79 7 120 21l38 -117
c-62 -21 -125 -32 -185 -32zM264 373c-40 0 -65 -26 -73 -76h144c0 48 -26 76 -71 76z" />
    <glyph glyph-name="uni1EB9" unicode="&#x1eb9;" horiz-adv-x="526" 
d="M304 -10c-178 0 -286 96 -286 254c0 154 103 256 258 256c140 0 222 -84 222 -227c0 -26 -3 -51 -7 -76h-294c17 -55 61 -79 134 -79c40 0 79 7 120 21l38 -117c-62 -21 -125 -32 -185 -32zM264 373c-40 0 -65 -26 -73 -76h144c0 48 -26 76 -71 76zM265 -225
c-59 0 -99 40 -99 99c0 60 40 100 99 100s99 -40 99 -100c0 -59 -40 -99 -99 -99z" />
    <glyph glyph-name="egrave" unicode="&#xe8;" horiz-adv-x="526" 
d="M250 532l-163 144l126 102l118 -179zM304 -10c-178 0 -286 96 -286 254c0 154 103 256 258 256c140 0 222 -84 222 -227c0 -26 -3 -51 -7 -76h-294c17 -55 61 -79 134 -79c40 0 79 7 120 21l38 -117c-62 -21 -125 -32 -185 -32zM264 373c-40 0 -65 -26 -73 -76h144
c0 48 -26 76 -71 76z" />
    <glyph glyph-name="uni1EBB" unicode="&#x1ebb;" horiz-adv-x="526" 
d="M240 545l-28 77c27 11 41 28 41 49c0 15 -13 25 -33 25c-15 0 -32 -5 -51 -15l-39 102c44 21 87 32 126 32c76 0 126 -42 126 -106c0 -67 -53 -128 -142 -164zM304 -10c-178 0 -286 96 -286 254c0 154 103 256 258 256c140 0 222 -84 222 -227c0 -26 -3 -51 -7 -76h-294
c17 -55 61 -79 134 -79c40 0 79 7 120 21l38 -117c-62 -21 -125 -32 -185 -32zM264 373c-40 0 -65 -26 -73 -76h144c0 48 -26 76 -71 76z" />
    <glyph glyph-name="uni0207" unicode="&#x207;" horiz-adv-x="526" 
d="M167 538l-81 56c17 107 90 175 190 175c101 0 185 -58 198 -153l-124 -77c-5 60 -45 100 -94 100c-48 0 -85 -38 -89 -101zM304 -10c-178 0 -286 96 -286 254c0 154 103 256 258 256c140 0 222 -84 222 -227c0 -26 -3 -51 -7 -76h-294c17 -55 61 -79 134 -79
c40 0 79 7 120 21l38 -117c-62 -21 -125 -32 -185 -32zM264 373c-40 0 -65 -26 -73 -76h144c0 48 -26 76 -71 76z" />
    <glyph glyph-name="emacron" unicode="&#x113;" horiz-adv-x="526" 
d="M87 577v136h360v-136h-360zM304 -10c-178 0 -286 96 -286 254c0 154 103 256 258 256c140 0 222 -84 222 -227c0 -26 -3 -51 -7 -76h-294c17 -55 61 -79 134 -79c40 0 79 7 120 21l38 -117c-62 -21 -125 -32 -185 -32zM264 373c-40 0 -65 -26 -73 -76h144
c0 48 -26 76 -71 76z" />
    <glyph glyph-name="uni1E17" unicode="&#x1e17;" horiz-adv-x="526" 
d="M275 726l-81 67l118 179l126 -102zM87 550v135h360v-135h-360zM304 -10c-178 0 -286 96 -286 254c0 154 103 256 258 256c140 0 222 -84 222 -227c0 -26 -3 -51 -7 -76h-294c17 -55 61 -79 134 -79c40 0 79 7 120 21l38 -117c-62 -21 -125 -32 -185 -32zM264 373
c-40 0 -65 -26 -73 -76h144c0 48 -26 76 -71 76z" />
    <glyph glyph-name="uni1E15" unicode="&#x1e15;" horiz-adv-x="526" 
d="M250 726l-163 144l126 102l118 -179zM87 550v135h360v-135h-360zM304 -10c-178 0 -286 96 -286 254c0 154 103 256 258 256c140 0 222 -84 222 -227c0 -26 -3 -51 -7 -76h-294c17 -55 61 -79 134 -79c40 0 79 7 120 21l38 -117c-62 -21 -125 -32 -185 -32zM264 373
c-40 0 -65 -26 -73 -76h144c0 48 -26 76 -71 76z" />
    <glyph glyph-name="eogonek" unicode="&#x119;" horiz-adv-x="526" 
d="M304 -10c-178 0 -286 96 -286 254c0 154 103 256 258 256c140 0 222 -84 222 -227c0 -26 -3 -51 -7 -76h-294c17 -55 61 -79 134 -79c40 0 79 7 120 21l38 -117c-8 -3 -15 -5 -23 -7c-58 -30 -92 -72 -92 -112c0 -34 24 -54 45 -54c8 0 27 3 41 10l13 -90
c-28 -16 -65 -26 -104 -26c-88 0 -138 50 -138 122c0 49 26 90 81 125h-8zM264 373c-40 0 -65 -26 -73 -76h144c0 48 -26 76 -71 76z" />
    <glyph glyph-name="uni1EBD" unicode="&#x1ebd;" horiz-adv-x="526" 
d="M173 551l-106 25c13 94 67 156 136 156c52 0 92 -42 120 -42c18 0 34 14 43 44l105 -27c-11 -91 -69 -149 -144 -149c-58 0 -83 40 -113 40c-15 0 -32 -16 -41 -47zM304 -10c-178 0 -286 96 -286 254c0 154 103 256 258 256c140 0 222 -84 222 -227c0 -26 -3 -51 -7 -76
h-294c17 -55 61 -79 134 -79c40 0 79 7 120 21l38 -117c-62 -21 -125 -32 -185 -32zM264 373c-40 0 -65 -26 -73 -76h144c0 48 -26 76 -71 76z" />
    <glyph glyph-name="uni0259" unicode="&#x259;" horiz-adv-x="526" 
d="M222 500c178 0 286 -96 286 -254c0 -154 -103 -256 -258 -256c-140 0 -222 84 -222 227c0 26 3 51 7 76h294c-17 55 -61 79 -134 79c-40 0 -79 -7 -120 -21l-38 117c62 21 125 32 185 32zM262 117c40 0 65 26 73 76h-144c0 -48 26 -76 71 -76z" />
    <glyph glyph-name="f" unicode="f" horiz-adv-x="383" 
d="M85 0v355h-78v135h78v38c0 133 87 221 217 221c47 0 93 -12 124 -32l-34 -123c-13 7 -41 13 -65 13c-50 0 -78 -25 -78 -67v-50h130v-135h-130v-355h-164z" />
    <glyph glyph-name="g" unicode="g" horiz-adv-x="578" 
d="M228 -10c-119 0 -206 98 -206 250c0 157 93 260 228 260c58 0 103 -19 134 -55l17 45h123v-488c0 -140 -113 -234 -282 -234c-60 0 -115 12 -170 37l33 128c41 -17 89 -27 129 -27c77 0 122 35 122 96v38c-34 -32 -78 -50 -128 -50zM198 248c0 -72 32 -114 85 -114
c31 0 56 11 73 30v154c-18 25 -44 38 -75 38c-52 0 -83 -40 -83 -108z" />
    <glyph glyph-name="gbreve" unicode="&#x11f;" horiz-adv-x="578" 
d="M266 541c-105 0 -188 58 -202 153l124 77c6 -60 45 -100 97 -100c50 0 88 37 93 101l81 -56c-17 -107 -92 -175 -193 -175zM228 -10c-119 0 -206 98 -206 250c0 157 93 260 228 260c58 0 103 -19 134 -55l17 45h123v-488c0 -140 -113 -234 -282 -234
c-60 0 -115 12 -170 37l33 128c41 -17 89 -27 129 -27c77 0 122 35 122 96v38c-34 -32 -78 -50 -128 -50zM198 248c0 -72 32 -114 85 -114c31 0 56 11 73 30v154c-18 25 -44 38 -75 38c-52 0 -83 -40 -83 -108z" />
    <glyph glyph-name="gcaron" unicode="&#x1e7;" horiz-adv-x="578" 
d="M225 547l-151 136l100 90l103 -94l108 93l68 -58l-142 -167h-86zM228 -10c-119 0 -206 98 -206 250c0 157 93 260 228 260c58 0 103 -19 134 -55l17 45h123v-488c0 -140 -113 -234 -282 -234c-60 0 -115 12 -170 37l33 128c41 -17 89 -27 129 -27c77 0 122 35 122 96v38
c-34 -32 -78 -50 -128 -50zM198 248c0 -72 32 -114 85 -114c31 0 56 11 73 30v154c-18 25 -44 38 -75 38c-52 0 -83 -40 -83 -108z" />
    <glyph glyph-name="gcircumflex" unicode="&#x11d;" horiz-adv-x="578" 
d="M82 594l146 168h85l147 -137l-96 -91l-104 84l-109 -83zM228 -10c-119 0 -206 98 -206 250c0 157 93 260 228 260c58 0 103 -19 134 -55l17 45h123v-488c0 -140 -113 -234 -282 -234c-60 0 -115 12 -170 37l33 128c41 -17 89 -27 129 -27c77 0 122 35 122 96v38
c-34 -32 -78 -50 -128 -50zM198 248c0 -72 32 -114 85 -114c31 0 56 11 73 30v154c-18 25 -44 38 -75 38c-52 0 -83 -40 -83 -108z" />
    <glyph glyph-name="uni0123" unicode="&#x123;" horiz-adv-x="578" 
d="M359 730c-14 -33 -25 -93 -25 -162h-167c0 73 16 124 51 162h141zM228 -10c-119 0 -206 98 -206 250c0 157 93 260 228 260c58 0 103 -19 134 -55l17 45h123v-488c0 -140 -113 -234 -282 -234c-60 0 -115 12 -170 37l33 128c41 -17 89 -27 129 -27c77 0 122 35 122 96v38
c-34 -32 -78 -50 -128 -50zM198 248c0 -72 32 -114 85 -114c31 0 56 11 73 30v154c-18 25 -44 38 -75 38c-52 0 -83 -40 -83 -108z" />
    <glyph glyph-name="gdotaccent" unicode="&#x121;" horiz-adv-x="578" 
d="M265 557c-59 0 -99 40 -99 99c0 60 40 100 99 100s99 -40 99 -100c0 -59 -40 -99 -99 -99zM228 -10c-119 0 -206 98 -206 250c0 157 93 260 228 260c58 0 103 -19 134 -55l17 45h123v-488c0 -140 -113 -234 -282 -234c-60 0 -115 12 -170 37l33 128
c41 -17 89 -27 129 -27c77 0 122 35 122 96v38c-34 -32 -78 -50 -128 -50zM198 248c0 -72 32 -114 85 -114c31 0 56 11 73 30v154c-18 25 -44 38 -75 38c-52 0 -83 -40 -83 -108z" />
    <glyph glyph-name="uni1E21" unicode="&#x1e21;" horiz-adv-x="578" 
d="M85 577v136h360v-136h-360zM228 -10c-119 0 -206 98 -206 250c0 157 93 260 228 260c58 0 103 -19 134 -55l17 45h123v-488c0 -140 -113 -234 -282 -234c-60 0 -115 12 -170 37l33 128c41 -17 89 -27 129 -27c77 0 122 35 122 96v38c-34 -32 -78 -50 -128 -50zM198 248
c0 -72 32 -114 85 -114c31 0 56 11 73 30v154c-18 25 -44 38 -75 38c-52 0 -83 -40 -83 -108z" />
    <glyph glyph-name="h" unicode="h" horiz-adv-x="579" 
d="M54 0v739h170v-294c36 35 82 51 133 51c112 0 179 -75 179 -202v-294h-173v265c0 55 -21 81 -71 81c-26 0 -48 -8 -68 -29v-317h-170z" />
    <glyph glyph-name="hbar" unicode="&#x127;" horiz-adv-x="579" 
d="M54 0v541h-66v107h66v91h170v-91h117v-107h-117v-96c36 35 82 51 133 51c112 0 179 -75 179 -202v-294h-173v265c0 55 -21 81 -71 81c-26 0 -48 -8 -68 -29v-317h-170z" />
    <glyph glyph-name="uni1E2B" unicode="&#x1e2b;" horiz-adv-x="579" 
d="M54 0v739h170v-294c36 35 82 51 133 51c112 0 179 -75 179 -202v-294h-173v265c0 55 -21 81 -71 81c-26 0 -48 -8 -68 -29v-317h-170zM292 -227c-98 0 -174 55 -205 137l109 69c25 -52 63 -79 116 -79c50 0 84 25 99 79l88 -42c-29 -102 -103 -164 -207 -164z" />
    <glyph glyph-name="hcircumflex" unicode="&#x125;" horiz-adv-x="579" 
d="M134 839l146 168h85l147 -137l-96 -91l-104 84l-109 -83zM54 0v739h170v-294c36 35 82 51 133 51c112 0 179 -75 179 -202v-294h-173v265c0 55 -21 81 -71 81c-26 0 -48 -8 -68 -29v-317h-170z" />
    <glyph glyph-name="uni1E25" unicode="&#x1e25;" horiz-adv-x="579" 
d="M54 0v739h170v-294c36 35 82 51 133 51c112 0 179 -75 179 -202v-294h-173v265c0 55 -21 81 -71 81c-26 0 -48 -8 -68 -29v-317h-170zM293 -225c-59 0 -99 40 -99 99c0 60 40 100 99 100s99 -40 99 -100c0 -59 -40 -99 -99 -99z" />
    <glyph glyph-name="i" unicode="i" horiz-adv-x="287" 
d="M144 557c-59 0 -99 40 -99 99c0 60 40 100 99 100s99 -40 99 -100c0 -59 -40 -99 -99 -99zM57 0v490h173v-490h-173z" />
    <glyph glyph-name="dotlessi" unicode="&#x131;" horiz-adv-x="287" 
d="M57 0v490h173v-490h-173z" />
    <glyph glyph-name="iacute" unicode="&#xed;" horiz-adv-x="287" 
d="M152 532l-81 67l118 179l126 -102zM57 0v490h173v-490h-173z" />
    <glyph glyph-name="ibreve" unicode="&#x12d;" horiz-adv-x="287" 
d="M145 541c-105 0 -188 58 -202 153l124 77c6 -60 45 -100 97 -100c50 0 88 37 93 101l81 -56c-17 -107 -92 -175 -193 -175zM57 0v490h173v-490h-173z" />
    <glyph glyph-name="uni01D0" unicode="&#x1d0;" horiz-adv-x="287" 
d="M104 547l-151 136l100 90l103 -94l108 93l68 -58l-142 -167h-86zM57 0v490h173v-490h-173z" />
    <glyph glyph-name="icircumflex" unicode="&#xee;" horiz-adv-x="287" 
d="M-39 594l146 168h85l147 -137l-96 -91l-104 84l-109 -83zM57 0v490h173v-490h-173z" />
    <glyph glyph-name="uni0209" unicode="&#x209;" horiz-adv-x="287" 
d="M221 527l-136 170l142 79l85 -197zM2 527l-135 170l141 78l85 -196zM57 0v490h173v-490h-173z" />
    <glyph glyph-name="idieresis" unicode="&#xef;" horiz-adv-x="287" 
d="M19 557c-59 0 -99 40 -99 99c0 60 40 100 99 100s99 -40 99 -100c0 -59 -40 -99 -99 -99zM269 557c-59 0 -99 40 -99 99c0 60 40 100 99 100s99 -40 99 -100c0 -59 -40 -99 -99 -99zM57 0v490h173v-490h-173z" />
    <glyph glyph-name="uni1E2F" unicode="&#x1e2f;" horiz-adv-x="287" 
d="M152 718l-81 67l118 179l126 -102zM24 536c-54 0 -90 36 -90 90c0 55 36 91 90 91s90 -36 90 -91c0 -54 -36 -90 -90 -90zM264 536c-54 0 -90 36 -90 90c0 55 36 91 90 91s90 -36 90 -91c0 -54 -36 -90 -90 -90zM57 0v490h173v-490h-173z" />
    <glyph glyph-name="i.loclTRK" horiz-adv-x="287" 
d="M144 557c-59 0 -99 40 -99 99c0 60 40 100 99 100s99 -40 99 -100c0 -59 -40 -99 -99 -99zM57 0v490h173v-490h-173z" />
    <glyph glyph-name="uni1ECB" unicode="&#x1ecb;" horiz-adv-x="287" 
d="M144 557c-59 0 -99 40 -99 99c0 60 40 100 99 100s99 -40 99 -100c0 -59 -40 -99 -99 -99zM57 0v490h173v-490h-173zM155 -225c-59 0 -99 40 -99 99c0 60 40 100 99 100s99 -40 99 -100c0 -59 -40 -99 -99 -99z" />
    <glyph glyph-name="igrave" unicode="&#xec;" horiz-adv-x="287" 
d="M127 532l-163 144l126 102l118 -179zM57 0v490h173v-490h-173z" />
    <glyph glyph-name="uni1EC9" unicode="&#x1ec9;" horiz-adv-x="287" 
d="M117 545l-28 77c27 11 41 28 41 49c0 15 -13 25 -33 25c-15 0 -32 -5 -51 -15l-39 102c44 21 87 32 126 32c76 0 126 -42 126 -106c0 -67 -53 -128 -142 -164zM57 0v490h173v-490h-173z" />
    <glyph glyph-name="uni020B" unicode="&#x20b;" horiz-adv-x="287" 
d="M44 538l-81 56c17 107 90 175 190 175c101 0 185 -58 198 -153l-124 -77c-5 60 -45 100 -94 100c-48 0 -85 -38 -89 -101zM57 0v490h173v-490h-173z" />
    <glyph glyph-name="imacron" unicode="&#x12b;" horiz-adv-x="287" 
d="M9 577v136h270v-136h-270zM57 0v490h173v-490h-173z" />
    <glyph glyph-name="iogonek" unicode="&#x12f;" horiz-adv-x="287" 
d="M144 557c-59 0 -99 40 -99 99c0 60 40 100 99 100s99 -40 99 -100c0 -59 -40 -99 -99 -99zM57 0v490h173v-490c-45 -20 -75 -60 -75 -105c0 -28 10 -46 25 -46c11 0 23 4 29 8l13 -88c-25 -16 -60 -25 -93 -25c-78 0 -124 47 -124 116c0 61 36 112 95 140h-43z" />
    <glyph glyph-name="itilde" unicode="&#x129;" horiz-adv-x="287" 
d="M50 551l-106 25c13 94 67 156 136 156c52 0 92 -42 120 -42c18 0 34 14 43 44l105 -27c-11 -91 -69 -149 -144 -149c-58 0 -83 40 -113 40c-15 0 -32 -16 -41 -47zM57 0v490h173v-490h-173z" />
    <glyph glyph-name="j" unicode="j" horiz-adv-x="287" 
d="M144 557c-59 0 -99 40 -99 99c0 60 40 100 99 100s99 -40 99 -100c0 -59 -40 -99 -99 -99zM24 -232l-50 94c52 38 83 99 83 164v464h173v-464c0 -114 -82 -217 -206 -258z" />
    <glyph glyph-name="uni0237" unicode="&#x237;" horiz-adv-x="287" 
d="M24 -232l-50 94c52 38 83 99 83 164v464h173v-464c0 -114 -82 -217 -206 -258z" />
    <glyph glyph-name="uni006A0301" horiz-adv-x="287" 
d="M152 532l-81 67l118 179l126 -102zM24 -232l-50 94c52 38 83 99 83 164v464h173v-464c0 -114 -82 -217 -206 -258z" />
    <glyph glyph-name="jcircumflex" unicode="&#x135;" horiz-adv-x="287" 
d="M-39 594l146 168h85l147 -137l-96 -91l-104 84l-109 -83zM24 -232l-50 94c52 38 83 99 83 164v464h173v-464c0 -114 -82 -217 -206 -258z" />
    <glyph glyph-name="k" unicode="k" horiz-adv-x="564" 
d="M54 0v739h170v-468l144 219h199l-156 -219l172 -271h-220l-139 241v-241h-170z" />
    <glyph glyph-name="uni1E31" unicode="&#x1e31;" horiz-adv-x="564" 
d="M248 779l-68 93l179 156l98 -134zM54 0v739h170v-468l144 219h199l-156 -219l172 -271h-220l-139 241v-241h-170z" />
    <glyph glyph-name="uni0137" unicode="&#x137;" horiz-adv-x="564" 
d="M54 0v739h170v-468l144 219h199l-156 -219l172 -271h-220l-139 241v-241h-170zM197 -227c17 40 28 105 28 171h161c0 -60 -25 -120 -72 -171h-117z" />
    <glyph glyph-name="kgreenlandic" unicode="&#x138;" horiz-adv-x="564" 
d="M54 0v490h173v-209l141 209h199l-156 -219l172 -271h-220l-136 230v-230h-173z" />
    <glyph glyph-name="l" unicode="l" horiz-adv-x="310" 
d="M208 -8c-103 0 -162 56 -162 155v592h170v-571c0 -31 14 -47 40 -47c6 0 17 1 27 4l34 -114c-33 -12 -72 -19 -109 -19z" />
    <glyph glyph-name="lacute" unicode="&#x13a;" horiz-adv-x="310" 
d="M111 779l-68 93l179 156l98 -134zM208 -8c-103 0 -162 56 -162 155v592h170v-571c0 -31 14 -47 40 -47c6 0 17 1 27 4l34 -114c-33 -12 -72 -19 -109 -19z" />
    <glyph glyph-name="lcaron" unicode="&#x13e;" horiz-adv-x="355" 
d="M354 535l-100 15l11 203l137 -17zM208 -8c-103 0 -162 56 -162 155v592h170v-571c0 -31 14 -47 40 -47c6 0 17 1 27 4l34 -114c-33 -12 -72 -19 -109 -19z" />
    <glyph glyph-name="uni013C" unicode="&#x13c;" horiz-adv-x="310" 
d="M208 -8c-103 0 -162 56 -162 155v592h170v-571c0 -31 14 -47 40 -47c6 0 17 1 27 4l34 -114c-33 -12 -72 -19 -109 -19zM61 -227c17 40 28 105 28 171h161c0 -60 -25 -120 -72 -171h-117z" />
    <glyph glyph-name="ldot" unicode="&#x140;" horiz-adv-x="310" 
d="M208 -8c-103 0 -162 56 -162 155v592h170v-571c0 -31 14 -47 40 -47c6 0 17 1 27 4l34 -114c-33 -12 -72 -19 -109 -19zM286 312c-40 0 -67 27 -67 67c0 42 27 69 67 69s66 -27 66 -69c0 -40 -26 -67 -66 -67z" />
    <glyph glyph-name="uni1E37" unicode="&#x1e37;" horiz-adv-x="310" 
d="M208 -8c-103 0 -162 56 -162 155v592h170v-571c0 -31 14 -47 40 -47c6 0 17 1 27 4l34 -114c-33 -12 -72 -19 -109 -19zM168 -225c-59 0 -99 40 -99 99c0 60 40 100 99 100s99 -40 99 -100c0 -59 -40 -99 -99 -99z" />
    <glyph glyph-name="uni01C9" unicode="&#x1c9;" horiz-adv-x="597" 
d="M454 557c-59 0 -99 40 -99 99c0 60 40 100 99 100s99 -40 99 -100c0 -59 -40 -99 -99 -99zM208 -8c-103 0 -162 56 -162 155v592h170v-571c0 -31 14 -47 40 -47c6 0 17 1 27 4l34 -114c-33 -12 -72 -19 -109 -19zM334 -232l-50 94c52 38 83 99 83 164v464h173v-464
c0 -114 -82 -217 -206 -258z" />
    <glyph glyph-name="uni1E3B" unicode="&#x1e3b;" horiz-adv-x="310" 
d="M208 -8c-103 0 -162 56 -162 155v592h170v-571c0 -31 14 -47 40 -47c6 0 17 1 27 4l34 -114c-33 -12 -72 -19 -109 -19zM18 -206v135h300v-135h-300z" />
    <glyph glyph-name="lslash" unicode="&#x142;" horiz-adv-x="310" 
d="M208 -8c-103 0 -162 56 -162 155v116l-23 -12l-62 106l85 44v338h170v-249l53 28l57 -107l-110 -58v-185c0 -31 14 -47 40 -47c6 0 17 1 27 4l34 -114c-33 -12 -72 -19 -109 -19z" />
    <glyph glyph-name="m" unicode="m" horiz-adv-x="902" 
d="M54 0v490h125l25 -59c41 42 97 65 158 65c67 0 118 -27 149 -76c40 47 98 76 168 76c112 0 181 -77 181 -202v-294h-173v265c0 42 -13 81 -73 81c-27 0 -51 -8 -72 -23c1 -9 1 -19 1 -29v-294h-172v265c0 37 -10 81 -74 81c-25 0 -49 -7 -70 -22v-324h-173z" />
    <glyph glyph-name="uni1E43" unicode="&#x1e43;" horiz-adv-x="902" 
d="M54 0v490h125l25 -59c41 42 97 65 158 65c67 0 118 -27 149 -76c40 47 98 76 168 76c112 0 181 -77 181 -202v-294h-173v265c0 42 -13 81 -73 81c-27 0 -51 -8 -72 -23c1 -9 1 -19 1 -29v-294h-172v265c0 37 -10 81 -74 81c-25 0 -49 -7 -70 -22v-324h-173zM467 -225
c-59 0 -99 40 -99 99c0 60 40 100 99 100s99 -40 99 -100c0 -59 -40 -99 -99 -99z" />
    <glyph glyph-name="n" unicode="n" horiz-adv-x="581" 
d="M54 0v490h125l27 -64c40 45 95 70 157 70c111 0 176 -78 176 -212v-284h-173v265c0 55 -21 81 -68 81c-27 0 -50 -9 -71 -26v-320h-173z" />
    <glyph glyph-name="nacute" unicode="&#x144;" horiz-adv-x="581" 
d="M304 532l-81 67l118 179l126 -102zM54 0v490h125l27 -64c40 45 95 70 157 70c111 0 176 -78 176 -212v-284h-173v265c0 55 -21 81 -68 81c-27 0 -50 -9 -71 -26v-320h-173z" />
    <glyph glyph-name="ncaron" unicode="&#x148;" horiz-adv-x="581" 
d="M256 547l-151 136l100 90l103 -94l108 93l68 -58l-142 -167h-86zM54 0v490h125l27 -64c40 45 95 70 157 70c111 0 176 -78 176 -212v-284h-173v265c0 55 -21 81 -68 81c-27 0 -50 -9 -71 -26v-320h-173z" />
    <glyph glyph-name="uni0146" unicode="&#x146;" horiz-adv-x="581" 
d="M54 0v490h125l27 -64c40 45 95 70 157 70c111 0 176 -78 176 -212v-284h-173v265c0 55 -21 81 -68 81c-27 0 -50 -9 -71 -26v-320h-173zM189 -227c17 40 28 105 28 171h161c0 -60 -25 -120 -72 -171h-117z" />
    <glyph glyph-name="uni1E45" unicode="&#x1e45;" horiz-adv-x="581" 
d="M296 557c-59 0 -99 40 -99 99c0 60 40 100 99 100s99 -40 99 -100c0 -59 -40 -99 -99 -99zM54 0v490h125l27 -64c40 45 95 70 157 70c111 0 176 -78 176 -212v-284h-173v265c0 55 -21 81 -68 81c-27 0 -50 -9 -71 -26v-320h-173z" />
    <glyph glyph-name="uni1E47" unicode="&#x1e47;" horiz-adv-x="581" 
d="M54 0v490h125l27 -64c40 45 95 70 157 70c111 0 176 -78 176 -212v-284h-173v265c0 55 -21 81 -68 81c-27 0 -50 -9 -71 -26v-320h-173zM296 -225c-59 0 -99 40 -99 99c0 60 40 100 99 100s99 -40 99 -100c0 -59 -40 -99 -99 -99z" />
    <glyph glyph-name="eng" unicode="&#x14b;" horiz-adv-x="581" 
d="M54 0v490h125l27 -64c40 45 95 70 157 70c108 0 176 -74 176 -192v-317c0 -98 -69 -184 -173 -214l-55 96c33 19 55 61 55 106v290c0 55 -21 81 -68 81c-27 0 -50 -9 -71 -26v-320h-173z" />
    <glyph glyph-name="uni01CC" unicode="&#x1cc;" horiz-adv-x="868" 
d="M725 557c-59 0 -99 40 -99 99c0 60 40 100 99 100s99 -40 99 -100c0 -59 -40 -99 -99 -99zM54 0v490h125l27 -64c40 45 95 70 157 70c111 0 176 -78 176 -212v-284h-173v265c0 55 -21 81 -68 81c-27 0 -50 -9 -71 -26v-320h-173zM605 -232l-50 94c52 38 83 99 83 164v464
h173v-464c0 -114 -82 -217 -206 -258z" />
    <glyph glyph-name="uni1E49" unicode="&#x1e49;" horiz-adv-x="581" 
d="M54 0v490h125l27 -64c40 45 95 70 157 70c111 0 176 -78 176 -212v-284h-173v265c0 55 -21 81 -68 81c-27 0 -50 -9 -71 -26v-320h-173zM119 -206v135h353v-135h-353z" />
    <glyph glyph-name="ntilde" unicode="&#xf1;" horiz-adv-x="581" 
d="M202 551l-106 25c13 94 67 156 136 156c52 0 92 -42 120 -42c18 0 34 14 43 44l105 -27c-11 -91 -69 -149 -144 -149c-58 0 -83 40 -113 40c-15 0 -32 -16 -41 -47zM54 0v490h125l27 -64c40 45 95 70 157 70c111 0 176 -78 176 -212v-284h-173v265c0 55 -21 81 -68 81
c-27 0 -50 -9 -71 -26v-320h-173z" />
    <glyph glyph-name="o" unicode="o" horiz-adv-x="567" 
d="M275 -10c-157 0 -257 97 -257 245c0 159 110 265 275 265c156 0 256 -97 256 -246c0 -158 -110 -264 -274 -264zM286 134c55 0 87 39 87 106c0 73 -34 116 -92 116c-55 0 -87 -41 -87 -110c0 -70 34 -112 92 -112z" />
    <glyph glyph-name="oacute" unicode="&#xf3;" horiz-adv-x="567" 
d="M290 532l-81 67l118 179l126 -102zM275 -10c-157 0 -257 97 -257 245c0 159 110 265 275 265c156 0 256 -97 256 -246c0 -158 -110 -264 -274 -264zM286 134c55 0 87 39 87 106c0 73 -34 116 -92 116c-55 0 -87 -41 -87 -110c0 -70 34 -112 92 -112z" />
    <glyph glyph-name="obreve" unicode="&#x14f;" horiz-adv-x="567" 
d="M283 541c-105 0 -188 58 -202 153l124 77c6 -60 45 -100 97 -100c50 0 88 37 93 101l81 -56c-17 -107 -92 -175 -193 -175zM275 -10c-157 0 -257 97 -257 245c0 159 110 265 275 265c156 0 256 -97 256 -246c0 -158 -110 -264 -274 -264zM286 134c55 0 87 39 87 106
c0 73 -34 116 -92 116c-55 0 -87 -41 -87 -110c0 -70 34 -112 92 -112z" />
    <glyph glyph-name="uni01D2" unicode="&#x1d2;" horiz-adv-x="567" 
d="M242 547l-151 136l100 90l103 -94l108 93l68 -58l-142 -167h-86zM275 -10c-157 0 -257 97 -257 245c0 159 110 265 275 265c156 0 256 -97 256 -246c0 -158 -110 -264 -274 -264zM286 134c55 0 87 39 87 106c0 73 -34 116 -92 116c-55 0 -87 -41 -87 -110
c0 -70 34 -112 92 -112z" />
    <glyph glyph-name="ocircumflex" unicode="&#xf4;" horiz-adv-x="567" 
d="M99 594l146 168h85l147 -137l-96 -91l-104 84l-109 -83zM275 -10c-157 0 -257 97 -257 245c0 159 110 265 275 265c156 0 256 -97 256 -246c0 -158 -110 -264 -274 -264zM286 134c55 0 87 39 87 106c0 73 -34 116 -92 116c-55 0 -87 -41 -87 -110c0 -70 34 -112 92 -112z
" />
    <glyph glyph-name="uni1ED1" unicode="&#x1ed1;" horiz-adv-x="567" 
d="M470 659l-75 64l120 174l117 -98zM98 571l146 143h85l147 -112l-96 -91l-104 70l-109 -69zM275 -10c-157 0 -257 97 -257 245c0 159 110 265 275 265c156 0 256 -97 256 -246c0 -158 -110 -264 -274 -264zM286 134c55 0 87 39 87 106c0 73 -34 116 -92 116
c-55 0 -87 -41 -87 -110c0 -70 34 -112 92 -112z" />
    <glyph glyph-name="uni1ED9" unicode="&#x1ed9;" horiz-adv-x="567" 
d="M99 594l146 168h85l147 -137l-96 -91l-104 84l-109 -83zM275 -10c-157 0 -257 97 -257 245c0 159 110 265 275 265c156 0 256 -97 256 -246c0 -158 -110 -264 -274 -264zM286 134c55 0 87 39 87 106c0 73 -34 116 -92 116c-55 0 -87 -41 -87 -110c0 -70 34 -112 92 -112z
M282 -225c-59 0 -99 40 -99 99c0 60 40 100 99 100s99 -40 99 -100c0 -59 -40 -99 -99 -99z" />
    <glyph glyph-name="uni1ED3" unicode="&#x1ed3;" horiz-adv-x="567" 
d="M467 660l-167 135l114 102l126 -170zM98 571l146 143h85l147 -112l-96 -91l-104 70l-109 -69zM275 -10c-157 0 -257 97 -257 245c0 159 110 265 275 265c156 0 256 -97 256 -246c0 -158 -110 -264 -274 -264zM286 134c55 0 87 39 87 106c0 73 -34 116 -92 116
c-55 0 -87 -41 -87 -110c0 -70 34 -112 92 -112z" />
    <glyph glyph-name="uni1ED5" unicode="&#x1ed5;" horiz-adv-x="567" 
d="M433 682l-28 75c25 5 41 19 41 32c0 12 -10 18 -32 18c-14 0 -29 -2 -52 -10l-39 94c44 16 88 25 126 25c76 0 126 -38 126 -93c0 -57 -53 -112 -142 -141zM98 571l146 143h85l147 -112l-96 -91l-104 70l-109 -69zM275 -10c-157 0 -257 97 -257 245
c0 159 110 265 275 265c156 0 256 -97 256 -246c0 -158 -110 -264 -274 -264zM286 134c55 0 87 39 87 106c0 73 -34 116 -92 116c-55 0 -87 -41 -87 -110c0 -70 34 -112 92 -112z" />
    <glyph glyph-name="uni1ED7" unicode="&#x1ed7;" horiz-adv-x="567" 
d="M196 737l-97 23c13 83 63 139 126 139c49 0 85 -35 112 -35c16 0 32 12 40 36l96 -25c-10 -81 -65 -131 -133 -131c-55 0 -78 32 -105 32c-15 0 -31 -14 -39 -39zM98 571l146 143h85l147 -112l-96 -91l-104 70l-109 -69zM275 -10c-157 0 -257 97 -257 245
c0 159 110 265 275 265c156 0 256 -97 256 -246c0 -158 -110 -264 -274 -264zM286 134c55 0 87 39 87 106c0 73 -34 116 -92 116c-55 0 -87 -41 -87 -110c0 -70 34 -112 92 -112z" />
    <glyph glyph-name="uni020D" unicode="&#x20d;" horiz-adv-x="567" 
d="M359 527l-136 170l142 79l85 -197zM140 527l-135 170l141 78l85 -196zM275 -10c-157 0 -257 97 -257 245c0 159 110 265 275 265c156 0 256 -97 256 -246c0 -158 -110 -264 -274 -264zM286 134c55 0 87 39 87 106c0 73 -34 116 -92 116c-55 0 -87 -41 -87 -110
c0 -70 34 -112 92 -112z" />
    <glyph glyph-name="odieresis" unicode="&#xf6;" horiz-adv-x="567" 
d="M157 557c-59 0 -99 40 -99 99c0 60 40 100 99 100s99 -40 99 -100c0 -59 -40 -99 -99 -99zM407 557c-59 0 -99 40 -99 99c0 60 40 100 99 100s99 -40 99 -100c0 -59 -40 -99 -99 -99zM275 -10c-157 0 -257 97 -257 245c0 159 110 265 275 265c156 0 256 -97 256 -246
c0 -158 -110 -264 -274 -264zM286 134c55 0 87 39 87 106c0 73 -34 116 -92 116c-55 0 -87 -41 -87 -110c0 -70 34 -112 92 -112z" />
    <glyph glyph-name="uni022B" unicode="&#x22b;" horiz-adv-x="567" 
d="M102 763v136h360v-136h-360zM162 536c-54 0 -90 36 -90 90c0 55 36 91 90 91s90 -36 90 -91c0 -54 -36 -90 -90 -90zM402 536c-54 0 -90 36 -90 90c0 55 36 91 90 91s90 -36 90 -91c0 -54 -36 -90 -90 -90zM275 -10c-157 0 -257 97 -257 245c0 159 110 265 275 265
c156 0 256 -97 256 -246c0 -158 -110 -264 -274 -264zM286 134c55 0 87 39 87 106c0 73 -34 116 -92 116c-55 0 -87 -41 -87 -110c0 -70 34 -112 92 -112z" />
    <glyph glyph-name="uni0231" unicode="&#x231;" horiz-adv-x="567" 
d="M102 763v136h360v-136h-360zM282 536c-54 0 -90 36 -90 90c0 55 36 91 90 91s90 -36 90 -91c0 -54 -36 -90 -90 -90zM275 -10c-157 0 -257 97 -257 245c0 159 110 265 275 265c156 0 256 -97 256 -246c0 -158 -110 -264 -274 -264zM286 134c55 0 87 39 87 106
c0 73 -34 116 -92 116c-55 0 -87 -41 -87 -110c0 -70 34 -112 92 -112z" />
    <glyph glyph-name="uni1ECD" unicode="&#x1ecd;" horiz-adv-x="567" 
d="M275 -10c-157 0 -257 97 -257 245c0 159 110 265 275 265c156 0 256 -97 256 -246c0 -158 -110 -264 -274 -264zM286 134c55 0 87 39 87 106c0 73 -34 116 -92 116c-55 0 -87 -41 -87 -110c0 -70 34 -112 92 -112zM282 -225c-59 0 -99 40 -99 99c0 60 40 100 99 100
s99 -40 99 -100c0 -59 -40 -99 -99 -99z" />
    <glyph glyph-name="ograve" unicode="&#xf2;" horiz-adv-x="567" 
d="M265 532l-163 144l126 102l118 -179zM275 -10c-157 0 -257 97 -257 245c0 159 110 265 275 265c156 0 256 -97 256 -246c0 -158 -110 -264 -274 -264zM286 134c55 0 87 39 87 106c0 73 -34 116 -92 116c-55 0 -87 -41 -87 -110c0 -70 34 -112 92 -112z" />
    <glyph glyph-name="uni1ECF" unicode="&#x1ecf;" horiz-adv-x="567" 
d="M255 545l-28 77c27 11 41 28 41 49c0 15 -13 25 -33 25c-15 0 -32 -5 -51 -15l-39 102c44 21 87 32 126 32c76 0 126 -42 126 -106c0 -67 -53 -128 -142 -164zM275 -10c-157 0 -257 97 -257 245c0 159 110 265 275 265c156 0 256 -97 256 -246
c0 -158 -110 -264 -274 -264zM286 134c55 0 87 39 87 106c0 73 -34 116 -92 116c-55 0 -87 -41 -87 -110c0 -70 34 -112 92 -112z" />
    <glyph glyph-name="ohorn" unicode="&#x1a1;" horiz-adv-x="685" 
d="M275 -10c-157 0 -257 97 -257 245c0 159 110 265 275 265c91 0 163 -33 207 -90c23 12 38 43 38 85c0 35 -10 67 -29 95h156c20 -30 29 -65 29 -102c0 -92 -58 -153 -152 -171c5 -20 7 -41 7 -63c0 -158 -110 -264 -274 -264zM286 134c55 0 87 39 87 106
c0 73 -34 116 -92 116c-55 0 -87 -41 -87 -110c0 -70 34 -112 92 -112z" />
    <glyph glyph-name="uni1EDB" unicode="&#x1edb;" horiz-adv-x="685" 
d="M290 532l-81 67l118 179l126 -102zM275 -10c-157 0 -257 97 -257 245c0 159 110 265 275 265c91 0 163 -33 207 -90c23 12 38 43 38 85c0 35 -10 67 -29 95h156c20 -30 29 -65 29 -102c0 -92 -58 -153 -152 -171c5 -20 7 -41 7 -63c0 -158 -110 -264 -274 -264zM286 134
c55 0 87 39 87 106c0 73 -34 116 -92 116c-55 0 -87 -41 -87 -110c0 -70 34 -112 92 -112z" />
    <glyph glyph-name="uni1EE3" unicode="&#x1ee3;" horiz-adv-x="685" 
d="M275 -10c-157 0 -257 97 -257 245c0 159 110 265 275 265c91 0 163 -33 207 -90c23 12 38 43 38 85c0 35 -10 67 -29 95h156c20 -30 29 -65 29 -102c0 -92 -58 -153 -152 -171c5 -20 7 -41 7 -63c0 -158 -110 -264 -274 -264zM286 134c55 0 87 39 87 106
c0 73 -34 116 -92 116c-55 0 -87 -41 -87 -110c0 -70 34 -112 92 -112zM282 -225c-59 0 -99 40 -99 99c0 60 40 100 99 100s99 -40 99 -100c0 -59 -40 -99 -99 -99z" />
    <glyph glyph-name="uni1EDD" unicode="&#x1edd;" horiz-adv-x="685" 
d="M265 532l-163 144l126 102l118 -179zM275 -10c-157 0 -257 97 -257 245c0 159 110 265 275 265c91 0 163 -33 207 -90c23 12 38 43 38 85c0 35 -10 67 -29 95h156c20 -30 29 -65 29 -102c0 -92 -58 -153 -152 -171c5 -20 7 -41 7 -63c0 -158 -110 -264 -274 -264z
M286 134c55 0 87 39 87 106c0 73 -34 116 -92 116c-55 0 -87 -41 -87 -110c0 -70 34 -112 92 -112z" />
    <glyph glyph-name="uni1EDF" unicode="&#x1edf;" horiz-adv-x="685" 
d="M255 545l-28 77c27 11 41 28 41 49c0 15 -13 25 -33 25c-15 0 -32 -5 -51 -15l-39 102c44 21 87 32 126 32c76 0 126 -42 126 -106c0 -67 -53 -128 -142 -164zM275 -10c-157 0 -257 97 -257 245c0 159 110 265 275 265c91 0 163 -33 207 -90c23 12 38 43 38 85
c0 35 -10 67 -29 95h156c20 -30 29 -65 29 -102c0 -92 -58 -153 -152 -171c5 -20 7 -41 7 -63c0 -158 -110 -264 -274 -264zM286 134c55 0 87 39 87 106c0 73 -34 116 -92 116c-55 0 -87 -41 -87 -110c0 -70 34 -112 92 -112z" />
    <glyph glyph-name="uni1EE1" unicode="&#x1ee1;" horiz-adv-x="685" 
d="M188 551l-106 25c13 94 67 156 136 156c52 0 92 -42 120 -42c18 0 34 14 43 44l105 -27c-11 -91 -69 -149 -144 -149c-58 0 -83 40 -113 40c-15 0 -32 -16 -41 -47zM275 -10c-157 0 -257 97 -257 245c0 159 110 265 275 265c91 0 163 -33 207 -90c23 12 38 43 38 85
c0 35 -10 67 -29 95h156c20 -30 29 -65 29 -102c0 -92 -58 -153 -152 -171c5 -20 7 -41 7 -63c0 -158 -110 -264 -274 -264zM286 134c55 0 87 39 87 106c0 73 -34 116 -92 116c-55 0 -87 -41 -87 -110c0 -70 34 -112 92 -112z" />
    <glyph glyph-name="ohungarumlaut" unicode="&#x151;" horiz-adv-x="567" 
d="M194 527l-92 52l85 197l142 -79zM412 527l-91 52l85 196l141 -78zM275 -10c-157 0 -257 97 -257 245c0 159 110 265 275 265c156 0 256 -97 256 -246c0 -158 -110 -264 -274 -264zM286 134c55 0 87 39 87 106c0 73 -34 116 -92 116c-55 0 -87 -41 -87 -110
c0 -70 34 -112 92 -112z" />
    <glyph glyph-name="uni020F" unicode="&#x20f;" horiz-adv-x="567" 
d="M182 538l-81 56c17 107 90 175 190 175c101 0 185 -58 198 -153l-124 -77c-5 60 -45 100 -94 100c-48 0 -85 -38 -89 -101zM275 -10c-157 0 -257 97 -257 245c0 159 110 265 275 265c156 0 256 -97 256 -246c0 -158 -110 -264 -274 -264zM286 134c55 0 87 39 87 106
c0 73 -34 116 -92 116c-55 0 -87 -41 -87 -110c0 -70 34 -112 92 -112z" />
    <glyph glyph-name="omacron" unicode="&#x14d;" horiz-adv-x="567" 
d="M102 577v136h360v-136h-360zM275 -10c-157 0 -257 97 -257 245c0 159 110 265 275 265c156 0 256 -97 256 -246c0 -158 -110 -264 -274 -264zM286 134c55 0 87 39 87 106c0 73 -34 116 -92 116c-55 0 -87 -41 -87 -110c0 -70 34 -112 92 -112z" />
    <glyph glyph-name="uni1E53" unicode="&#x1e53;" horiz-adv-x="567" 
d="M290 726l-81 67l118 179l126 -102zM102 550v135h360v-135h-360zM275 -10c-157 0 -257 97 -257 245c0 159 110 265 275 265c156 0 256 -97 256 -246c0 -158 -110 -264 -274 -264zM286 134c55 0 87 39 87 106c0 73 -34 116 -92 116c-55 0 -87 -41 -87 -110
c0 -70 34 -112 92 -112z" />
    <glyph glyph-name="uni1E51" unicode="&#x1e51;" horiz-adv-x="567" 
d="M265 726l-163 144l126 102l118 -179zM102 550v135h360v-135h-360zM275 -10c-157 0 -257 97 -257 245c0 159 110 265 275 265c156 0 256 -97 256 -246c0 -158 -110 -264 -274 -264zM286 134c55 0 87 39 87 106c0 73 -34 116 -92 116c-55 0 -87 -41 -87 -110
c0 -70 34 -112 92 -112z" />
    <glyph glyph-name="uni01EB" unicode="&#x1eb;" horiz-adv-x="567" 
d="M305 -257c-88 0 -138 50 -138 122c0 50 26 91 83 126c-143 10 -232 104 -232 244c0 159 110 265 275 265c156 0 256 -97 256 -246c0 -107 -51 -190 -134 -233c-66 -30 -105 -75 -105 -118c0 -34 24 -54 45 -54c8 0 27 3 41 10l13 -90c-28 -16 -65 -26 -104 -26zM286 134
c55 0 87 39 87 106c0 73 -34 116 -92 116c-55 0 -87 -41 -87 -110c0 -70 34 -112 92 -112z" />
    <glyph glyph-name="oslash" unicode="&#xf8;" horiz-adv-x="567" 
d="M127 -62l-70 43l43 65c-52 43 -82 108 -82 189c0 159 110 265 275 265c37 0 71 -6 101 -16l46 68l72 -43l-44 -66c52 -43 81 -108 81 -189c0 -158 -110 -264 -274 -264c-37 0 -72 6 -102 16zM191 246c0 -20 3 -38 8 -53l108 160c-8 2 -17 3 -26 3c-57 0 -90 -41 -90 -110
zM286 134c57 0 90 39 90 106c0 21 -3 39 -8 55l-107 -158c8 -2 16 -3 25 -3z" />
    <glyph glyph-name="oslashacute" unicode="&#x1ff;" horiz-adv-x="567" 
d="M292 532l-81 67l118 179l126 -102zM127 -62l-70 43l43 65c-52 43 -82 108 -82 189c0 159 110 265 275 265c37 0 71 -6 101 -16l46 68l72 -43l-44 -66c52 -43 81 -108 81 -189c0 -158 -110 -264 -274 -264c-37 0 -72 6 -102 16zM191 246c0 -20 3 -38 8 -53l108 160
c-8 2 -17 3 -26 3c-57 0 -90 -41 -90 -110zM286 134c57 0 90 39 90 106c0 21 -3 39 -8 55l-107 -158c8 -2 16 -3 25 -3z" />
    <glyph glyph-name="otilde" unicode="&#xf5;" horiz-adv-x="567" 
d="M188 551l-106 25c13 94 67 156 136 156c52 0 92 -42 120 -42c18 0 34 14 43 44l105 -27c-11 -91 -69 -149 -144 -149c-58 0 -83 40 -113 40c-15 0 -32 -16 -41 -47zM275 -10c-157 0 -257 97 -257 245c0 159 110 265 275 265c156 0 256 -97 256 -246
c0 -158 -110 -264 -274 -264zM286 134c55 0 87 39 87 106c0 73 -34 116 -92 116c-55 0 -87 -41 -87 -110c0 -70 34 -112 92 -112z" />
    <glyph glyph-name="uni1E4D" unicode="&#x1e4d;" horiz-adv-x="567" 
d="M290 743l-81 67l118 179l126 -102zM188 551l-106 25c13 94 67 156 136 156c52 0 92 -42 120 -42c18 0 34 14 43 44l105 -27c-11 -91 -69 -149 -144 -149c-58 0 -83 40 -113 40c-15 0 -32 -16 -41 -47zM275 -10c-157 0 -257 97 -257 245c0 159 110 265 275 265
c156 0 256 -97 256 -246c0 -158 -110 -264 -274 -264zM286 134c55 0 87 39 87 106c0 73 -34 116 -92 116c-55 0 -87 -41 -87 -110c0 -70 34 -112 92 -112z" />
    <glyph glyph-name="uni1E4F" unicode="&#x1e4f;" horiz-adv-x="567" 
d="M157 768c-59 0 -99 40 -99 99c0 60 40 100 99 100s99 -40 99 -100c0 -59 -40 -99 -99 -99zM407 768c-59 0 -99 40 -99 99c0 60 40 100 99 100s99 -40 99 -100c0 -59 -40 -99 -99 -99zM188 551l-106 25c13 94 67 156 136 156c52 0 92 -42 120 -42c18 0 34 14 43 44
l105 -27c-11 -91 -69 -149 -144 -149c-58 0 -83 40 -113 40c-15 0 -32 -16 -41 -47zM275 -10c-157 0 -257 97 -257 245c0 159 110 265 275 265c156 0 256 -97 256 -246c0 -158 -110 -264 -274 -264zM286 134c55 0 87 39 87 106c0 73 -34 116 -92 116c-55 0 -87 -41 -87 -110
c0 -70 34 -112 92 -112z" />
    <glyph glyph-name="uni022D" unicode="&#x22d;" horiz-adv-x="567" 
d="M102 788v136h360v-136h-360zM188 551l-106 25c13 94 67 156 136 156c52 0 92 -42 120 -42c18 0 34 14 43 44l105 -27c-11 -91 -69 -149 -144 -149c-58 0 -83 40 -113 40c-15 0 -32 -16 -41 -47zM275 -10c-157 0 -257 97 -257 245c0 159 110 265 275 265
c156 0 256 -97 256 -246c0 -158 -110 -264 -274 -264zM286 134c55 0 87 39 87 106c0 73 -34 116 -92 116c-55 0 -87 -41 -87 -110c0 -70 34 -112 92 -112z" />
    <glyph glyph-name="oe" unicode="&#x153;" horiz-adv-x="881" 
d="M259 -10c-144 0 -241 100 -241 247c0 154 106 263 256 263c73 0 131 -26 170 -74c47 47 114 74 191 74c134 0 218 -84 218 -227c0 -26 -3 -51 -7 -76h-294c17 -55 61 -79 134 -79c40 0 79 7 120 21l38 -117c-62 -21 -126 -32 -181 -32c-92 0 -169 31 -220 83
c-42 -53 -106 -83 -184 -83zM619 373c-39 0 -65 -25 -73 -76h144c0 50 -30 76 -71 76zM286 134c53 0 87 42 87 106c0 70 -37 116 -92 116c-53 0 -87 -43 -87 -110s37 -112 92 -112z" />
    <glyph glyph-name="p" unicode="p" horiz-adv-x="574" 
d="M54 -217v707h115l24 -57c35 43 84 67 144 67c126 0 217 -104 217 -249c0 -150 -97 -261 -226 -261c-42 0 -79 12 -109 35v-242h-165zM287 356c-27 0 -51 -10 -68 -28v-163c18 -20 44 -31 72 -31c55 0 87 40 87 108c0 72 -35 114 -91 114z" />
    <glyph glyph-name="thorn" unicode="&#xfe;" horiz-adv-x="574" 
d="M54 -217v956h165v-280c32 27 72 41 118 41c126 0 217 -104 217 -249c0 -150 -97 -261 -226 -261c-42 0 -79 12 -109 35v-242h-165zM286 356c-26 0 -50 -10 -67 -28v-163c18 -20 44 -31 72 -31c56 0 87 42 87 107c0 69 -34 115 -92 115z" />
    <glyph glyph-name="q" unicode="q" horiz-adv-x="577" 
d="M230 -10c-124 0 -208 101 -208 252c0 155 92 258 228 258c60 0 107 -20 138 -58l20 48h115v-707h-166v257c-34 -32 -77 -50 -127 -50zM198 248c0 -72 32 -114 86 -114c31 0 56 11 73 31v153c-17 24 -43 38 -75 38c-53 0 -84 -40 -84 -108z" />
    <glyph glyph-name="r" unicode="r" horiz-adv-x="435" 
d="M55 0v490h135l15 -76c36 51 91 80 149 80c30 0 63 -8 87 -22l-39 -148c-21 11 -51 18 -77 18c-37 0 -71 -16 -97 -44v-298h-173z" />
    <glyph glyph-name="racute" unicode="&#x155;" horiz-adv-x="435" 
d="M222 532l-81 67l118 179l126 -102zM55 0v490h135l15 -76c36 51 91 80 149 80c30 0 63 -8 87 -22l-39 -148c-21 11 -51 18 -77 18c-37 0 -71 -16 -97 -44v-298h-173z" />
    <glyph glyph-name="rcaron" unicode="&#x159;" horiz-adv-x="435" 
d="M174 547l-151 136l100 90l103 -94l108 93l68 -58l-142 -167h-86zM55 0v490h135l15 -76c36 51 91 80 149 80c30 0 63 -8 87 -22l-39 -148c-21 11 -51 18 -77 18c-37 0 -71 -16 -97 -44v-298h-173z" />
    <glyph glyph-name="uni0157" unicode="&#x157;" horiz-adv-x="435" 
d="M55 0v490h135l15 -76c36 51 91 80 149 80c30 0 63 -8 87 -22l-39 -148c-21 11 -51 18 -77 18c-37 0 -71 -16 -97 -44v-298h-173zM35 -227c17 40 28 105 28 171h161c0 -60 -25 -120 -72 -171h-117z" />
    <glyph glyph-name="uni0211" unicode="&#x211;" horiz-adv-x="435" 
d="M291 527l-136 170l142 79l85 -197zM72 527l-135 170l141 78l85 -196zM55 0v490h135l15 -76c36 51 91 80 149 80c30 0 63 -8 87 -22l-39 -148c-21 11 -51 18 -77 18c-37 0 -71 -16 -97 -44v-298h-173z" />
    <glyph glyph-name="uni1E5B" unicode="&#x1e5b;" horiz-adv-x="435" 
d="M55 0v490h135l15 -76c36 51 91 80 149 80c30 0 63 -8 87 -22l-39 -148c-21 11 -51 18 -77 18c-37 0 -71 -16 -97 -44v-298h-173zM142 -225c-59 0 -99 40 -99 99c0 60 40 100 99 100s99 -40 99 -100c0 -59 -40 -99 -99 -99z" />
    <glyph glyph-name="uni0213" unicode="&#x213;" horiz-adv-x="435" 
d="M114 538l-81 56c17 107 90 175 190 175c101 0 185 -58 198 -153l-124 -77c-5 60 -45 100 -94 100c-48 0 -85 -38 -89 -101zM55 0v490h135l15 -76c36 51 91 80 149 80c30 0 63 -8 87 -22l-39 -148c-21 11 -51 18 -77 18c-37 0 -71 -16 -97 -44v-298h-173z" />
    <glyph glyph-name="uni1E5F" unicode="&#x1e5f;" horiz-adv-x="435" 
d="M55 0v490h135l15 -76c36 51 91 80 149 80c30 0 63 -8 87 -22l-39 -148c-21 11 -51 18 -77 18c-37 0 -71 -16 -97 -44v-298h-173zM-8 -206v135h300v-135h-300z" />
    <glyph glyph-name="s" unicode="s" horiz-adv-x="477" 
d="M225 -10c-71 0 -146 14 -202 37l37 123c51 -18 113 -30 156 -30s70 13 70 32c0 60 -256 -6 -256 183c0 107 82 165 234 165c59 0 124 -9 172 -24l-33 -125c-49 12 -97 19 -136 19c-48 0 -72 -10 -72 -27c0 -56 262 1 262 -186c0 -106 -84 -167 -232 -167z" />
    <glyph glyph-name="sacute" unicode="&#x15b;" horiz-adv-x="477" 
d="M246 532l-81 67l118 179l126 -102zM225 -10c-71 0 -146 14 -202 37l37 123c51 -18 113 -30 156 -30s70 13 70 32c0 60 -256 -6 -256 183c0 107 82 165 234 165c59 0 124 -9 172 -24l-33 -125c-49 12 -97 19 -136 19c-48 0 -72 -10 -72 -27c0 -56 262 1 262 -186
c0 -106 -84 -167 -232 -167z" />
    <glyph glyph-name="uni1E65" unicode="&#x1e65;" horiz-adv-x="477" 
d="M163 705c-54 0 -90 36 -90 90c0 55 36 91 90 91s90 -36 90 -91c0 -54 -36 -90 -90 -90zM249 537l-75 64l120 174l117 -98zM225 -10c-71 0 -146 14 -202 37l37 123c51 -18 113 -30 156 -30s70 13 70 32c0 60 -256 -6 -256 183c0 107 82 165 234 165c59 0 124 -9 172 -24
l-33 -125c-49 12 -97 19 -136 19c-48 0 -72 -10 -72 -27c0 -56 262 1 262 -186c0 -106 -84 -167 -232 -167z" />
    <glyph glyph-name="uniA78C" unicode="&#xa78c;" horiz-adv-x="177" 
d="M13 290l-21 418h183l-21 -418h-141z" />
    <glyph glyph-name="scaron" unicode="&#x161;" horiz-adv-x="477" 
d="M198 547l-151 136l100 90l103 -94l108 93l68 -58l-142 -167h-86zM225 -10c-71 0 -146 14 -202 37l37 123c51 -18 113 -30 156 -30s70 13 70 32c0 60 -256 -6 -256 183c0 107 82 165 234 165c59 0 124 -9 172 -24l-33 -125c-49 12 -97 19 -136 19c-48 0 -72 -10 -72 -27
c0 -56 262 1 262 -186c0 -106 -84 -167 -232 -167z" />
    <glyph glyph-name="uni1E67" unicode="&#x1e67;" horiz-adv-x="477" 
d="M238 731c-54 0 -90 36 -90 90c0 55 36 91 90 91s90 -36 90 -91c0 -54 -36 -90 -90 -90zM429 687l-144 -154h-100l-144 113l97 93l116 -79l114 80zM225 -10c-71 0 -146 14 -202 37l37 123c51 -18 113 -30 156 -30s70 13 70 32c0 60 -256 -6 -256 183c0 107 82 165 234 165
c59 0 124 -9 172 -24l-33 -125c-49 12 -97 19 -136 19c-48 0 -72 -10 -72 -27c0 -56 262 1 262 -186c0 -106 -84 -167 -232 -167z" />
    <glyph glyph-name="scedilla" unicode="&#x15f;" horiz-adv-x="477" 
d="M231 -258c-43 0 -87 8 -115 23l17 92c21 -9 56 -15 82 -15c29 0 45 8 45 21c0 21 -30 35 -95 41l16 88c-57 4 -113 17 -158 35l37 123c51 -18 113 -30 156 -30s70 13 70 32c0 60 -256 -6 -256 183c0 107 82 165 234 165c59 0 124 -9 172 -24l-33 -125
c-49 12 -97 19 -136 19c-48 0 -72 -10 -72 -27c0 -56 262 1 262 -186c0 -87 -57 -144 -160 -161l-8 -40c73 -11 108 -43 108 -95c0 -73 -64 -119 -166 -119z" />
    <glyph glyph-name="scircumflex" unicode="&#x15d;" horiz-adv-x="477" 
d="M55 594l146 168h85l147 -137l-96 -91l-104 84l-109 -83zM225 -10c-71 0 -146 14 -202 37l37 123c51 -18 113 -30 156 -30s70 13 70 32c0 60 -256 -6 -256 183c0 107 82 165 234 165c59 0 124 -9 172 -24l-33 -125c-49 12 -97 19 -136 19c-48 0 -72 -10 -72 -27
c0 -56 262 1 262 -186c0 -106 -84 -167 -232 -167z" />
    <glyph glyph-name="uni0219" unicode="&#x219;" horiz-adv-x="477" 
d="M225 -10c-71 0 -146 14 -202 37l37 123c51 -18 113 -30 156 -30s70 13 70 32c0 60 -256 -6 -256 183c0 107 82 165 234 165c59 0 124 -9 172 -24l-33 -125c-49 12 -97 19 -136 19c-48 0 -72 -10 -72 -27c0 -56 262 1 262 -186c0 -106 -84 -167 -232 -167zM133 -227
c17 40 28 105 28 171h161c0 -60 -25 -120 -72 -171h-117z" />
    <glyph glyph-name="uni1E61" unicode="&#x1e61;" horiz-adv-x="477" 
d="M238 557c-59 0 -99 40 -99 99c0 60 40 100 99 100s99 -40 99 -100c0 -59 -40 -99 -99 -99zM225 -10c-71 0 -146 14 -202 37l37 123c51 -18 113 -30 156 -30s70 13 70 32c0 60 -256 -6 -256 183c0 107 82 165 234 165c59 0 124 -9 172 -24l-33 -125c-49 12 -97 19 -136 19
c-48 0 -72 -10 -72 -27c0 -56 262 1 262 -186c0 -106 -84 -167 -232 -167z" />
    <glyph glyph-name="uni1E63" unicode="&#x1e63;" horiz-adv-x="477" 
d="M225 -10c-71 0 -146 14 -202 37l37 123c51 -18 113 -30 156 -30s70 13 70 32c0 60 -256 -6 -256 183c0 107 82 165 234 165c59 0 124 -9 172 -24l-33 -125c-49 12 -97 19 -136 19c-48 0 -72 -10 -72 -27c0 -56 262 1 262 -186c0 -106 -84 -167 -232 -167zM240 -225
c-59 0 -99 40 -99 99c0 60 40 100 99 100s99 -40 99 -100c0 -59 -40 -99 -99 -99z" />
    <glyph glyph-name="uni1E69" unicode="&#x1e69;" horiz-adv-x="477" 
d="M238 557c-59 0 -99 40 -99 99c0 60 40 100 99 100s99 -40 99 -100c0 -59 -40 -99 -99 -99zM225 -10c-71 0 -146 14 -202 37l37 123c51 -18 113 -30 156 -30s70 13 70 32c0 60 -256 -6 -256 183c0 107 82 165 234 165c59 0 124 -9 172 -24l-33 -125c-49 12 -97 19 -136 19
c-48 0 -72 -10 -72 -27c0 -56 262 1 262 -186c0 -106 -84 -167 -232 -167zM240 -225c-59 0 -99 40 -99 99c0 60 40 100 99 100s99 -40 99 -100c0 -59 -40 -99 -99 -99z" />
    <glyph glyph-name="germandbls" unicode="&#xdf;" horiz-adv-x="663" 
d="M410 -10c-53 0 -100 11 -149 33l39 132c33 -17 68 -25 101 -25c41 0 69 14 69 35c0 51 -170 61 -170 201c0 102 91 120 91 178c0 35 -34 61 -80 61c-48 0 -76 -28 -76 -75v-530h-173v531c0 130 102 218 254 218c143 0 250 -79 250 -186c0 -97 -90 -115 -90 -168
c0 -74 170 -71 170 -221c0 -111 -93 -184 -236 -184z" />
    <glyph glyph-name="t" unicode="t" horiz-adv-x="397" 
d="M274 -8c-127 0 -199 68 -199 184v179h-70v135h70v141h170v-141h113v-135h-113v-174c0 -36 25 -58 67 -58c13 0 27 2 40 7l33 -122c-39 -11 -77 -16 -111 -16z" />
    <glyph glyph-name="tbar" unicode="&#x167;" horiz-adv-x="397" 
d="M5 189v107h70v59h-70v135h70v141h170v-141h113v-135h-113v-59h113v-107h-113v-8c0 -36 25 -58 67 -58c13 0 27 2 40 7l33 -122c-39 -11 -77 -16 -111 -16c-127 0 -199 68 -199 184v13h-70z" />
    <glyph glyph-name="tcaron" unicode="&#x165;" horiz-adv-x="397" 
d="M378 535l-100 15l11 203l137 -17zM274 -8c-127 0 -199 68 -199 184v179h-70v135h70v141h170v-141h113v-135h-113v-174c0 -36 25 -58 67 -58c13 0 27 2 40 7l33 -122c-39 -11 -77 -16 -111 -16z" />
    <glyph glyph-name="uni0163" unicode="&#x163;" horiz-adv-x="397" 
d="M216 -258c-43 0 -87 8 -115 23l17 92c21 -9 56 -15 82 -15c29 0 45 8 45 21c0 21 -30 35 -95 41l20 108c-62 28 -95 85 -95 164v179h-70v135h70v141h170v-141h113v-135h-113v-174c0 -36 25 -58 67 -58c13 0 27 2 40 7l33 -122c-36 -10 -72 -15 -104 -16l-7 -36
c73 -11 108 -43 108 -95c0 -73 -64 -119 -166 -119z" />
    <glyph glyph-name="uni021B" unicode="&#x21b;" horiz-adv-x="397" 
d="M274 -8c-127 0 -199 68 -199 184v179h-70v135h70v141h170v-141h113v-135h-113v-174c0 -36 25 -58 67 -58c13 0 27 2 40 7l33 -122c-39 -11 -77 -16 -111 -16zM118 -227c17 40 28 105 28 171h161c0 -60 -25 -120 -72 -171h-117z" />
    <glyph glyph-name="uni1E97" unicode="&#x1e97;" horiz-adv-x="397" 
d="M36 698c-59 0 -99 40 -99 99c0 60 40 100 99 100s99 -40 99 -100c0 -59 -40 -99 -99 -99zM286 698c-59 0 -99 40 -99 99c0 60 40 100 99 100s99 -40 99 -100c0 -59 -40 -99 -99 -99zM274 -8c-127 0 -199 68 -199 184v179h-70v135h70v141h170v-141h113v-135h-113v-174
c0 -36 25 -58 67 -58c13 0 27 2 40 7l33 -122c-39 -11 -77 -16 -111 -16z" />
    <glyph glyph-name="uni1E6D" unicode="&#x1e6d;" horiz-adv-x="397" 
d="M274 -8c-127 0 -199 68 -199 184v179h-70v135h70v141h170v-141h113v-135h-113v-174c0 -36 25 -58 67 -58c13 0 27 2 40 7l33 -122c-39 -11 -77 -16 -111 -16zM225 -225c-59 0 -99 40 -99 99c0 60 40 100 99 100s99 -40 99 -100c0 -59 -40 -99 -99 -99z" />
    <glyph glyph-name="uni1E6F" unicode="&#x1e6f;" horiz-adv-x="397" 
d="M274 -8c-127 0 -199 68 -199 184v179h-70v135h70v141h170v-141h113v-135h-113v-174c0 -36 25 -58 67 -58c13 0 27 2 40 7l33 -122c-39 -11 -77 -16 -111 -16zM48 -206v135h353v-135h-353z" />
    <glyph glyph-name="u" unicode="u" horiz-adv-x="577" 
d="M217 490v-265c0 -36 8 -81 65 -81c26 0 49 10 68 25v321h173v-490h-125l-27 64c-40 -45 -95 -70 -155 -70c-104 0 -172 74 -172 192v304h173z" />
    <glyph glyph-name="uacute" unicode="&#xfa;" horiz-adv-x="577" 
d="M290 532l-81 67l118 179l126 -102zM217 490v-265c0 -36 8 -81 65 -81c26 0 49 10 68 25v321h173v-490h-125l-27 64c-40 -45 -95 -70 -155 -70c-104 0 -172 74 -172 192v304h173z" />
    <glyph glyph-name="ubreve" unicode="&#x16d;" horiz-adv-x="577" 
d="M283 541c-105 0 -188 58 -202 153l124 77c6 -60 45 -100 97 -100c50 0 88 37 93 101l81 -56c-17 -107 -92 -175 -193 -175zM217 490v-265c0 -36 8 -81 65 -81c26 0 49 10 68 25v321h173v-490h-125l-27 64c-40 -45 -95 -70 -155 -70c-104 0 -172 74 -172 192v304h173z" />
    <glyph glyph-name="uni01D4" unicode="&#x1d4;" horiz-adv-x="577" 
d="M242 547l-151 136l100 90l103 -94l108 93l68 -58l-142 -167h-86zM217 490v-265c0 -36 8 -81 65 -81c26 0 49 10 68 25v321h173v-490h-125l-27 64c-40 -45 -95 -70 -155 -70c-104 0 -172 74 -172 192v304h173z" />
    <glyph glyph-name="ucircumflex" unicode="&#xfb;" horiz-adv-x="577" 
d="M99 594l146 168h85l147 -137l-96 -91l-104 84l-109 -83zM217 490v-265c0 -36 8 -81 65 -81c26 0 49 10 68 25v321h173v-490h-125l-27 64c-40 -45 -95 -70 -155 -70c-104 0 -172 74 -172 192v304h173z" />
    <glyph glyph-name="uni0215" unicode="&#x215;" horiz-adv-x="577" 
d="M359 527l-136 170l142 79l85 -197zM140 527l-135 170l141 78l85 -196zM217 490v-265c0 -36 8 -81 65 -81c26 0 49 10 68 25v321h173v-490h-125l-27 64c-40 -45 -95 -70 -155 -70c-104 0 -172 74 -172 192v304h173z" />
    <glyph glyph-name="udieresis" unicode="&#xfc;" horiz-adv-x="577" 
d="M157 557c-59 0 -99 40 -99 99c0 60 40 100 99 100s99 -40 99 -100c0 -59 -40 -99 -99 -99zM407 557c-59 0 -99 40 -99 99c0 60 40 100 99 100s99 -40 99 -100c0 -59 -40 -99 -99 -99zM217 490v-265c0 -36 8 -81 65 -81c26 0 49 10 68 25v321h173v-490h-125l-27 64
c-40 -45 -95 -70 -155 -70c-104 0 -172 74 -172 192v304h173z" />
    <glyph glyph-name="uni01D8" unicode="&#x1d8;" horiz-adv-x="577" 
d="M290 718l-81 67l118 179l126 -102zM162 536c-54 0 -90 36 -90 90c0 55 36 91 90 91s90 -36 90 -91c0 -54 -36 -90 -90 -90zM402 536c-54 0 -90 36 -90 90c0 55 36 91 90 91s90 -36 90 -91c0 -54 -36 -90 -90 -90zM217 490v-265c0 -36 8 -81 65 -81c26 0 49 10 68 25v321
h173v-490h-125l-27 64c-40 -45 -95 -70 -155 -70c-104 0 -172 74 -172 192v304h173z" />
    <glyph glyph-name="uni01DA" unicode="&#x1da;" horiz-adv-x="577" 
d="M242 733l-151 136l100 90l103 -94l108 93l68 -58l-142 -167h-86zM162 536c-54 0 -90 36 -90 90c0 55 36 91 90 91s90 -36 90 -91c0 -54 -36 -90 -90 -90zM402 536c-54 0 -90 36 -90 90c0 55 36 91 90 91s90 -36 90 -91c0 -54 -36 -90 -90 -90zM217 490v-265
c0 -36 8 -81 65 -81c26 0 49 10 68 25v321h173v-490h-125l-27 64c-40 -45 -95 -70 -155 -70c-104 0 -172 74 -172 192v304h173z" />
    <glyph glyph-name="uni01DC" unicode="&#x1dc;" horiz-adv-x="577" 
d="M265 718l-163 144l126 102l118 -179zM162 536c-54 0 -90 36 -90 90c0 55 36 91 90 91s90 -36 90 -91c0 -54 -36 -90 -90 -90zM402 536c-54 0 -90 36 -90 90c0 55 36 91 90 91s90 -36 90 -91c0 -54 -36 -90 -90 -90zM217 490v-265c0 -36 8 -81 65 -81c26 0 49 10 68 25
v321h173v-490h-125l-27 64c-40 -45 -95 -70 -155 -70c-104 0 -172 74 -172 192v304h173z" />
    <glyph glyph-name="uni01D6" unicode="&#x1d6;" horiz-adv-x="577" 
d="M102 763v136h360v-136h-360zM162 536c-54 0 -90 36 -90 90c0 55 36 91 90 91s90 -36 90 -91c0 -54 -36 -90 -90 -90zM402 536c-54 0 -90 36 -90 90c0 55 36 91 90 91s90 -36 90 -91c0 -54 -36 -90 -90 -90zM217 490v-265c0 -36 8 -81 65 -81c26 0 49 10 68 25v321h173
v-490h-125l-27 64c-40 -45 -95 -70 -155 -70c-104 0 -172 74 -172 192v304h173z" />
    <glyph glyph-name="uni1EE5" unicode="&#x1ee5;" horiz-adv-x="577" 
d="M217 490v-265c0 -36 8 -81 65 -81c26 0 49 10 68 25v321h173v-490h-125l-27 64c-40 -45 -95 -70 -155 -70c-104 0 -172 74 -172 192v304h173zM282 -225c-59 0 -99 40 -99 99c0 60 40 100 99 100s99 -40 99 -100c0 -59 -40 -99 -99 -99z" />
    <glyph glyph-name="ugrave" unicode="&#xf9;" horiz-adv-x="577" 
d="M265 532l-163 144l126 102l118 -179zM217 490v-265c0 -36 8 -81 65 -81c26 0 49 10 68 25v321h173v-490h-125l-27 64c-40 -45 -95 -70 -155 -70c-104 0 -172 74 -172 192v304h173z" />
    <glyph glyph-name="uni1EE7" unicode="&#x1ee7;" horiz-adv-x="577" 
d="M255 545l-28 77c27 11 41 28 41 49c0 15 -13 25 -33 25c-15 0 -32 -5 -51 -15l-39 102c44 21 87 32 126 32c76 0 126 -42 126 -106c0 -67 -53 -128 -142 -164zM217 490v-265c0 -36 8 -81 65 -81c26 0 49 10 68 25v321h173v-490h-125l-27 64c-40 -45 -95 -70 -155 -70
c-104 0 -172 74 -172 192v304h173z" />
    <glyph glyph-name="uhorn" unicode="&#x1b0;" horiz-adv-x="730" 
d="M217 490v-265c0 -36 8 -81 65 -81c26 0 49 10 68 25v321h173v-85c35 1 59 37 59 90c0 35 -10 67 -29 95h156c20 -30 29 -65 29 -102c0 -112 -86 -177 -215 -177v-311h-125l-27 64c-40 -45 -95 -70 -155 -70c-104 0 -172 74 -172 192v304h173z" />
    <glyph glyph-name="uni1EE9" unicode="&#x1ee9;" horiz-adv-x="730" 
d="M290 532l-81 67l118 179l126 -102zM217 490v-265c0 -36 8 -81 65 -81c26 0 49 10 68 25v321h173v-85c35 1 59 37 59 90c0 35 -10 67 -29 95h156c20 -30 29 -65 29 -102c0 -112 -86 -177 -215 -177v-311h-125l-27 64c-40 -45 -95 -70 -155 -70c-104 0 -172 74 -172 192
v304h173z" />
    <glyph glyph-name="uni1EF1" unicode="&#x1ef1;" horiz-adv-x="730" 
d="M217 490v-265c0 -36 8 -81 65 -81c26 0 49 10 68 25v321h173v-85c35 1 59 37 59 90c0 35 -10 67 -29 95h156c20 -30 29 -65 29 -102c0 -112 -86 -177 -215 -177v-311h-125l-27 64c-40 -45 -95 -70 -155 -70c-104 0 -172 74 -172 192v304h173zM282 -225
c-59 0 -99 40 -99 99c0 60 40 100 99 100s99 -40 99 -100c0 -59 -40 -99 -99 -99z" />
    <glyph glyph-name="uni1EEB" unicode="&#x1eeb;" horiz-adv-x="730" 
d="M265 532l-163 144l126 102l118 -179zM217 490v-265c0 -36 8 -81 65 -81c26 0 49 10 68 25v321h173v-85c35 1 59 37 59 90c0 35 -10 67 -29 95h156c20 -30 29 -65 29 -102c0 -112 -86 -177 -215 -177v-311h-125l-27 64c-40 -45 -95 -70 -155 -70c-104 0 -172 74 -172 192
v304h173z" />
    <glyph glyph-name="uni1EED" unicode="&#x1eed;" horiz-adv-x="730" 
d="M255 545l-28 77c27 11 41 28 41 49c0 15 -13 25 -33 25c-15 0 -32 -5 -51 -15l-39 102c44 21 87 32 126 32c76 0 126 -42 126 -106c0 -67 -53 -128 -142 -164zM217 490v-265c0 -36 8 -81 65 -81c26 0 49 10 68 25v321h173v-85c35 1 59 37 59 90c0 35 -10 67 -29 95h156
c20 -30 29 -65 29 -102c0 -112 -86 -177 -215 -177v-311h-125l-27 64c-40 -45 -95 -70 -155 -70c-104 0 -172 74 -172 192v304h173z" />
    <glyph glyph-name="uni1EEF" unicode="&#x1eef;" horiz-adv-x="730" 
d="M188 551l-106 25c13 94 67 156 136 156c52 0 92 -42 120 -42c18 0 34 14 43 44l105 -27c-11 -91 -69 -149 -144 -149c-58 0 -83 40 -113 40c-15 0 -32 -16 -41 -47zM217 490v-265c0 -36 8 -81 65 -81c26 0 49 10 68 25v321h173v-85c35 1 59 37 59 90c0 35 -10 67 -29 95
h156c20 -30 29 -65 29 -102c0 -112 -86 -177 -215 -177v-311h-125l-27 64c-40 -45 -95 -70 -155 -70c-104 0 -172 74 -172 192v304h173z" />
    <glyph glyph-name="uhungarumlaut" unicode="&#x171;" horiz-adv-x="577" 
d="M194 527l-92 52l85 197l142 -79zM412 527l-91 52l85 196l141 -78zM217 490v-265c0 -36 8 -81 65 -81c26 0 49 10 68 25v321h173v-490h-125l-27 64c-40 -45 -95 -70 -155 -70c-104 0 -172 74 -172 192v304h173z" />
    <glyph glyph-name="uni0217" unicode="&#x217;" horiz-adv-x="577" 
d="M182 538l-81 56c17 107 90 175 190 175c101 0 185 -58 198 -153l-124 -77c-5 60 -45 100 -94 100c-48 0 -85 -38 -89 -101zM217 490v-265c0 -36 8 -81 65 -81c26 0 49 10 68 25v321h173v-490h-125l-27 64c-40 -45 -95 -70 -155 -70c-104 0 -172 74 -172 192v304h173z" />
    <glyph glyph-name="umacron" unicode="&#x16b;" horiz-adv-x="577" 
d="M102 577v136h360v-136h-360zM217 490v-265c0 -36 8 -81 65 -81c26 0 49 10 68 25v321h173v-490h-125l-27 64c-40 -45 -95 -70 -155 -70c-104 0 -172 74 -172 192v304h173z" />
    <glyph glyph-name="uni1E7B" unicode="&#x1e7b;" horiz-adv-x="577" 
d="M157 751c-59 0 -99 40 -99 99c0 60 40 100 99 100s99 -40 99 -100c0 -59 -40 -99 -99 -99zM407 751c-59 0 -99 40 -99 99c0 60 40 100 99 100s99 -40 99 -100c0 -59 -40 -99 -99 -99zM102 550v135h360v-135h-360zM217 490v-265c0 -36 8 -81 65 -81c26 0 49 10 68 25v321
h173v-490h-125l-27 64c-40 -45 -95 -70 -155 -70c-104 0 -172 74 -172 192v304h173z" />
    <glyph glyph-name="uogonek" unicode="&#x173;" horiz-adv-x="577" 
d="M413 -256c-88 0 -140 47 -140 116c0 65 46 118 123 145l-25 59c-40 -45 -95 -70 -155 -70c-104 0 -172 74 -172 192v304h173v-265c0 -36 8 -81 65 -81c26 0 49 10 68 25v321h173v-490c-62 -21 -100 -61 -100 -105c0 -25 16 -46 41 -46c8 0 26 3 40 10l13 -90
c-27 -15 -64 -25 -104 -25z" />
    <glyph glyph-name="uring" unicode="&#x16f;" horiz-adv-x="577" 
d="M282 547c-77 0 -129 52 -129 131c0 77 52 128 131 128c77 0 129 -50 129 -126c0 -80 -52 -133 -131 -133zM284 633c25 0 42 18 42 45c0 25 -18 42 -44 42c-25 0 -42 -16 -42 -40c0 -28 18 -47 44 -47zM217 490v-265c0 -36 8 -81 65 -81c26 0 49 10 68 25v321h173v-490
h-125l-27 64c-40 -45 -95 -70 -155 -70c-104 0 -172 74 -172 192v304h173z" />
    <glyph glyph-name="utilde" unicode="&#x169;" horiz-adv-x="577" 
d="M188 551l-106 25c13 94 67 156 136 156c52 0 92 -42 120 -42c18 0 34 14 43 44l105 -27c-11 -91 -69 -149 -144 -149c-58 0 -83 40 -113 40c-15 0 -32 -16 -41 -47zM217 490v-265c0 -36 8 -81 65 -81c26 0 49 10 68 25v321h173v-490h-125l-27 64
c-40 -45 -95 -70 -155 -70c-104 0 -172 74 -172 192v304h173z" />
    <glyph glyph-name="uni1E79" unicode="&#x1e79;" horiz-adv-x="577" 
d="M290 743l-81 67l118 179l126 -102zM188 551l-106 25c13 94 67 156 136 156c52 0 92 -42 120 -42c18 0 34 14 43 44l105 -27c-11 -91 -69 -149 -144 -149c-58 0 -83 40 -113 40c-15 0 -32 -16 -41 -47zM217 490v-265c0 -36 8 -81 65 -81c26 0 49 10 68 25v321h173v-490
h-125l-27 64c-40 -45 -95 -70 -155 -70c-104 0 -172 74 -172 192v304h173z" />
    <glyph glyph-name="v" unicode="v" horiz-adv-x="534" 
d="M180 0l-188 490h190l88 -326l99 326h174l-190 -490h-173z" />
    <glyph glyph-name="w" unicode="w" horiz-adv-x="843" 
d="M172 0l-180 490h187l83 -314l83 312h163l84 -303l91 305h168l-178 -490h-172l-89 294l-79 -294h-161z" />
    <glyph glyph-name="wacute" unicode="&#x1e83;" horiz-adv-x="843" 
d="M432 532l-81 67l118 179l126 -102zM172 0l-180 490h187l83 -314l83 312h163l84 -303l91 305h168l-178 -490h-172l-89 294l-79 -294h-161z" />
    <glyph glyph-name="wcircumflex" unicode="&#x175;" horiz-adv-x="843" 
d="M241 594l146 168h85l147 -137l-96 -91l-104 84l-109 -83zM172 0l-180 490h187l83 -314l83 312h163l84 -303l91 305h168l-178 -490h-172l-89 294l-79 -294h-161z" />
    <glyph glyph-name="wdieresis" unicode="&#x1e85;" horiz-adv-x="843" 
d="M299 557c-59 0 -99 40 -99 99c0 60 40 100 99 100s99 -40 99 -100c0 -59 -40 -99 -99 -99zM549 557c-59 0 -99 40 -99 99c0 60 40 100 99 100s99 -40 99 -100c0 -59 -40 -99 -99 -99zM172 0l-180 490h187l83 -314l83 312h163l84 -303l91 305h168l-178 -490h-172l-89 294
l-79 -294h-161z" />
    <glyph glyph-name="wgrave" unicode="&#x1e81;" horiz-adv-x="843" 
d="M407 532l-163 144l126 102l118 -179zM172 0l-180 490h187l83 -314l83 312h163l84 -303l91 305h168l-178 -490h-172l-89 294l-79 -294h-161z" />
    <glyph glyph-name="x" unicode="x" horiz-adv-x="524" 
d="M-5 0l179 241l-182 249h199l73 -121l79 121h192l-190 -243l176 -247h-198l-71 116l-75 -116h-182z" />
    <glyph glyph-name="y" unicode="y" horiz-adv-x="532" 
d="M91 -217l89 217l-188 490h191l88 -327l97 327h172l-185 -490l-76 -217h-188z" />
    <glyph glyph-name="yacute" unicode="&#xfd;" horiz-adv-x="532" 
d="M270 532l-81 67l118 179l126 -102zM91 -217l89 217l-188 490h191l88 -327l97 327h172l-185 -490l-76 -217h-188z" />
    <glyph glyph-name="ycircumflex" unicode="&#x177;" horiz-adv-x="532" 
d="M79 594l146 168h85l147 -137l-96 -91l-104 84l-109 -83zM91 -217l89 217l-188 490h191l88 -327l97 327h172l-185 -490l-76 -217h-188z" />
    <glyph glyph-name="ydieresis" unicode="&#xff;" horiz-adv-x="532" 
d="M137 557c-59 0 -99 40 -99 99c0 60 40 100 99 100s99 -40 99 -100c0 -59 -40 -99 -99 -99zM387 557c-59 0 -99 40 -99 99c0 60 40 100 99 100s99 -40 99 -100c0 -59 -40 -99 -99 -99zM91 -217l89 217l-188 490h191l88 -327l97 327h172l-185 -490l-76 -217h-188z" />
    <glyph glyph-name="uni1E8F" unicode="&#x1e8f;" horiz-adv-x="532" 
d="M262 557c-59 0 -99 40 -99 99c0 60 40 100 99 100s99 -40 99 -100c0 -59 -40 -99 -99 -99zM91 -217l89 217l-188 490h191l88 -327l97 327h172l-185 -490l-76 -217h-188z" />
    <glyph glyph-name="uni1EF5" unicode="&#x1ef5;" horiz-adv-x="532" 
d="M91 -217l89 217l-188 490h191l88 -327l97 327h172l-185 -490l-76 -217h-188zM444 -225c-59 0 -99 40 -99 99c0 60 40 100 99 100s99 -40 99 -100c0 -59 -40 -99 -99 -99z" />
    <glyph glyph-name="ygrave" unicode="&#x1ef3;" horiz-adv-x="532" 
d="M245 532l-163 144l126 102l118 -179zM91 -217l89 217l-188 490h191l88 -327l97 327h172l-185 -490l-76 -217h-188z" />
    <glyph glyph-name="uni1EF7" unicode="&#x1ef7;" horiz-adv-x="532" 
d="M235 545l-28 77c27 11 41 28 41 49c0 15 -13 25 -33 25c-15 0 -32 -5 -51 -15l-39 102c44 21 87 32 126 32c76 0 126 -42 126 -106c0 -67 -53 -128 -142 -164zM91 -217l89 217l-188 490h191l88 -327l97 327h172l-185 -490l-76 -217h-188z" />
    <glyph glyph-name="uni0233" unicode="&#x233;" horiz-adv-x="532" 
d="M82 577v136h360v-136h-360zM91 -217l89 217l-188 490h191l88 -327l97 327h172l-185 -490l-76 -217h-188z" />
    <glyph glyph-name="uni1EF9" unicode="&#x1ef9;" horiz-adv-x="532" 
d="M168 551l-106 25c13 94 67 156 136 156c52 0 92 -42 120 -42c18 0 34 14 43 44l105 -27c-11 -91 -69 -149 -144 -149c-58 0 -83 40 -113 40c-15 0 -32 -16 -41 -47zM91 -217l89 217l-188 490h191l88 -327l97 327h172l-185 -490l-76 -217h-188z" />
    <glyph glyph-name="z" unicode="z" horiz-adv-x="490" 
d="M28 0v103l205 246h-205v141h426v-104l-205 -245h218v-141h-439z" />
    <glyph glyph-name="zacute" unicode="&#x17a;" horiz-adv-x="490" 
d="M253 532l-81 67l118 179l126 -102zM28 0v103l205 246h-205v141h426v-104l-205 -245h218v-141h-439z" />
    <glyph glyph-name="zcaron" unicode="&#x17e;" horiz-adv-x="490" 
d="M205 547l-151 136l100 90l103 -94l108 93l68 -58l-142 -167h-86zM28 0v103l205 246h-205v141h426v-104l-205 -245h218v-141h-439z" />
    <glyph glyph-name="zdotaccent" unicode="&#x17c;" horiz-adv-x="490" 
d="M245 557c-59 0 -99 40 -99 99c0 60 40 100 99 100s99 -40 99 -100c0 -59 -40 -99 -99 -99zM28 0v103l205 246h-205v141h426v-104l-205 -245h218v-141h-439z" />
    <glyph glyph-name="uni1E93" unicode="&#x1e93;" horiz-adv-x="490" 
d="M28 0v103l205 246h-205v141h426v-104l-205 -245h218v-141h-439zM245 -225c-59 0 -99 40 -99 99c0 60 40 100 99 100s99 -40 99 -100c0 -59 -40 -99 -99 -99z" />
    <glyph glyph-name="ordfeminine" unicode="&#xaa;" horiz-adv-x="399" 
d="M151 369c-80 0 -130 44 -130 111c0 79 69 115 224 118c-1 35 -31 53 -84 53c-29 0 -64 -5 -106 -21l-29 84c45 23 104 36 160 36c118 0 178 -58 178 -165v-209h-87l-14 35c-28 -27 -66 -42 -112 -42zM143 497c0 -21 21 -35 49 -35c20 0 39 7 53 18v53
c-74 -2 -102 -12 -102 -36z" />
    <glyph glyph-name="ordmasculine" unicode="&#xba;" horiz-adv-x="428" 
d="M207 369c-115 0 -188 72 -188 183c0 119 81 198 202 198c114 0 188 -72 188 -184c0 -118 -82 -197 -202 -197zM217 468c45 0 72 34 72 87c0 58 -31 95 -78 95c-45 0 -72 -34 -72 -89c0 -56 30 -93 78 -93z" />
    <glyph glyph-name="uni0410" unicode="&#x410;" horiz-adv-x="708" 
d="M1 0l247 694h221l237 -694h-191l-45 143h-242l-42 -143h-185zM275 299h147l-75 242z" />
    <glyph glyph-name="uni0411" unicode="&#x411;" horiz-adv-x="637" 
d="M67 0v694h475v-151h-305v-109h145c149 0 240 -77 240 -202c0 -138 -118 -232 -291 -232h-264zM237 136h117c56 0 88 28 88 79c0 53 -39 87 -98 87h-107v-166z" />
    <glyph glyph-name="uni0412" unicode="&#x412;" horiz-adv-x="652" 
d="M67 0v694h248c171 0 260 -56 260 -163c0 -51 -23 -96 -63 -126c78 -30 122 -92 122 -178c0 -136 -116 -227 -291 -227h-276zM237 558v-134h126c25 17 38 39 38 64c0 42 -38 70 -96 70h-68zM237 136h129c58 0 88 25 88 74c0 50 -36 82 -98 82h-119v-156z" />
    <glyph glyph-name="uni0413" unicode="&#x413;" horiz-adv-x="553" 
d="M68 0v694h485v-157h-309v-537h-176z" />
    <glyph glyph-name="uni0403" unicode="&#x403;" horiz-adv-x="553" 
d="M268 734l-68 93l179 156l98 -134zM68 0v694h485v-157h-309v-537h-176z" />
    <glyph glyph-name="uni0490" unicode="&#x490;" horiz-adv-x="552" 
d="M68 0v694h352v166h133v-318h-309v-542h-176z" />
    <glyph glyph-name="uni0414" unicode="&#x414;" horiz-adv-x="830" 
d="M10 -187v338h58c64 9 97 80 97 209v334h522v-543h133v-338h-163v187h-485v-187h-162zM331 364c0 -96 -24 -167 -72 -213h257v394h-185v-181z" />
    <glyph glyph-name="uni0415" unicode="&#x415;" horiz-adv-x="610" 
d="M67 0v694h498v-152h-325v-114h297v-152h-297v-124h325v-152h-498z" />
    <glyph glyph-name="uni0400" unicode="&#x400;" horiz-adv-x="610" 
d="M321 734l-209 115l98 134l179 -156zM67 0v694h498v-152h-325v-114h297v-152h-297v-124h325v-152h-498z" />
    <glyph glyph-name="uni0401" unicode="&#x401;" horiz-adv-x="610" 
d="M174 747c-59 0 -99 40 -99 99c0 60 40 100 99 100s99 -40 99 -100c0 -59 -40 -99 -99 -99zM424 747c-59 0 -99 40 -99 99c0 60 40 100 99 100s99 -40 99 -100c0 -59 -40 -99 -99 -99zM67 0v694h498v-152h-325v-114h297v-152h-297v-124h325v-152h-498z" />
    <glyph glyph-name="uni0416" unicode="&#x416;" horiz-adv-x="1041" 
d="M-3 0l208 348l-192 346h205l140 -264h79v264h173v-264h76l145 264h203l-196 -324l204 -370h-197l-150 278h-85v-278h-173v278h-89l-156 -278h-195z" />
    <glyph glyph-name="uni0417" unicode="&#x417;" horiz-adv-x="592" 
d="M245 -10c-81 0 -148 14 -227 51l42 142c61 -24 133 -37 191 -37c78 0 124 24 124 66c0 44 -50 69 -138 69h-107v137h105c72 0 120 29 120 73c0 37 -39 57 -113 57c-51 0 -105 -12 -172 -38l-41 137c74 37 159 57 244 57c166 0 273 -73 273 -186c0 -74 -48 -131 -119 -148
c85 -17 138 -77 138 -160c0 -133 -126 -220 -320 -220z" />
    <glyph glyph-name="uni0418" unicode="&#x418;" horiz-adv-x="770" 
d="M67 0v694h172v-448l273 448h191v-694h-172v446l-277 -446h-187z" />
    <glyph glyph-name="uni0419" unicode="&#x419;" horiz-adv-x="770" 
d="M390 747c-121 0 -203 59 -220 158l120 66c9 -63 54 -105 109 -105c54 0 93 37 107 101l118 -56c-16 -103 -104 -164 -234 -164zM67 0v694h172v-448l273 448h191v-694h-172v446l-277 -446h-187z" />
    <glyph glyph-name="uni040D" unicode="&#x40d;" horiz-adv-x="770" 
d="M401 734l-209 115l98 134l179 -156zM67 0v694h172v-448l273 448h191v-694h-172v446l-277 -446h-187z" />
    <glyph glyph-name="uni041A" unicode="&#x41a;" horiz-adv-x="681" 
d="M67 0v694h175v-257h92l159 257h190l-206 -321l214 -373h-197l-162 285h-90v-285h-175z" />
    <glyph glyph-name="uni040C" unicode="&#x40c;" horiz-adv-x="681" 
d="M309 734l-68 93l179 156l98 -134zM67 0v694h175v-257h92l159 257h190l-206 -321l214 -373h-197l-162 285h-90v-285h-175z" />
    <glyph glyph-name="uni041B" unicode="&#x41b;" horiz-adv-x="799" 
d="M150 -10c-58 0 -100 14 -137 41l46 129c17 -11 40 -17 62 -17c57 0 88 38 88 107v444h523v-694h-171v543h-188v-259c0 -198 -73 -294 -223 -294z" />
    <glyph glyph-name="uni041C" unicode="&#x41c;" horiz-adv-x="892" 
d="M67 0v694h167l219 -405l207 405h165v-694h-168v408l-147 -301h-131l-144 283v-390h-168z" />
    <glyph glyph-name="uni041D" unicode="&#x41d;" horiz-adv-x="755" 
d="M67 0v694h176v-264h269v264h176v-694h-176v274h-269v-274h-176z" />
    <glyph glyph-name="uni041E" unicode="&#x41e;" horiz-adv-x="760" 
d="M373 -10c-208 0 -347 140 -347 351c0 218 143 363 358 363c210 0 350 -141 350 -353c0 -217 -144 -361 -361 -361zM384 140c102 0 170 80 170 201c0 128 -72 213 -181 213c-100 0 -167 -81 -167 -203c0 -127 71 -211 178 -211z" />
    <glyph glyph-name="uni041F" unicode="&#x41f;" horiz-adv-x="736" 
d="M67 0v694h602v-694h-171v543h-260v-543h-171z" />
    <glyph glyph-name="uni0420" unicode="&#x420;" horiz-adv-x="626" 
d="M67 0v694h259c177 0 283 -86 283 -231c0 -156 -124 -259 -312 -259h-57v-204h-173zM312 542h-72v-186h88c62 0 101 34 101 90c0 58 -47 96 -117 96z" />
    <glyph glyph-name="uni0421" unicode="&#x421;" horiz-adv-x="624" 
d="M383 -10c-212 0 -358 141 -358 352c0 218 156 362 380 362c70 0 135 -14 202 -43l-48 -136c-38 16 -101 26 -156 26c-127 0 -198 -65 -198 -192c0 -135 80 -217 220 -217c44 0 95 8 135 22l38 -125c-53 -29 -139 -49 -215 -49z" />
    <glyph glyph-name="uni0422" unicode="&#x422;" horiz-adv-x="620" 
d="M224 0v542h-214v152h600v-152h-216v-542h-170z" />
    <glyph glyph-name="uni0423" unicode="&#x423;" horiz-adv-x="654" 
d="M121 0l130 237l-259 457h208l148 -292l136 292h177l-347 -694h-193z" />
    <glyph glyph-name="uni040E" unicode="&#x40e;" horiz-adv-x="654" 
d="M332 747c-121 0 -203 59 -220 158l120 66c9 -63 54 -105 109 -105c54 0 93 37 107 101l118 -56c-16 -103 -104 -164 -234 -164zM121 0l130 237l-259 457h208l148 -292l136 292h177l-347 -694h-193z" />
    <glyph glyph-name="uni0424" unicode="&#x424;" horiz-adv-x="814" 
d="M322 -20v73c-191 22 -302 127 -302 291c0 166 111 272 302 296v74h170v-72c191 -23 302 -128 302 -291c0 -166 -110 -273 -302 -298v-73h-170zM190 351c0 -75 48 -127 132 -148v290c-84 -19 -132 -69 -132 -142zM624 343c0 75 -48 128 -132 148v-290
c84 18 132 69 132 142z" />
    <glyph glyph-name="uni0425" unicode="&#x425;" horiz-adv-x="672" 
d="M-5 0l244 362l-228 332h205l116 -189l116 189h203l-229 -327l257 -367h-209l-142 228l-132 -228h-201z" />
    <glyph glyph-name="uni0427" unicode="&#x427;" horiz-adv-x="654" 
d="M246 239c-130 0 -216 75 -216 202v253h172v-224c0 -55 38 -81 105 -81c36 0 75 7 110 22v283h170v-694h-170v285c-48 -29 -110 -46 -171 -46z" />
    <glyph glyph-name="uni0426" unicode="&#x426;" horiz-adv-x="799" 
d="M627 -187v187h-560v694h171v-543h247v543h171v-543h133v-338h-162z" />
    <glyph glyph-name="uni0428" unicode="&#x428;" horiz-adv-x="1065" 
d="M67 0v694h171v-543h209v543h171v-543h209v543h171v-694h-931z" />
    <glyph glyph-name="uni0429" unicode="&#x429;" horiz-adv-x="1141" 
d="M969 -187v187h-902v694h170v-543h210v543h170v-543h211v543h170v-543h133v-338h-162z" />
    <glyph glyph-name="uni040F" unicode="&#x40f;" horiz-adv-x="756" 
d="M302 -187v187h-235v694h171v-543h280v543h171v-694h-225v-187h-162z" />
    <glyph glyph-name="uni042C" unicode="&#x42c;" horiz-adv-x="638" 
d="M67 0v694h170v-240h145c143 0 240 -85 240 -213c0 -151 -109 -241 -291 -241h-264zM237 136h117c55 0 88 33 88 88c0 59 -39 98 -98 98h-107v-186z" />
    <glyph glyph-name="uni042A" unicode="&#x42a;" horiz-adv-x="744" 
d="M187 0v543h-177v151h347v-240h138c139 0 232 -85 232 -212c0 -152 -105 -242 -283 -242h-257zM357 136h110c50 0 80 33 80 89c0 58 -37 97 -91 97h-99v-186z" />
    <glyph glyph-name="uni042B" unicode="&#x42b;" horiz-adv-x="907" 
d="M67 0v694h170v-240h125c144 0 240 -85 240 -212c0 -152 -108 -242 -291 -242h-244zM664 -3v694h176v-694h-176zM237 136h97c55 0 88 33 88 89c0 58 -39 97 -98 97h-87v-186z" />
    <glyph glyph-name="uni0409" unicode="&#x409;" horiz-adv-x="1131" 
d="M150 -10c-58 0 -100 14 -137 41l46 129c17 -11 40 -17 62 -17c57 0 88 38 88 107v444h523v-250h144c147 0 240 -80 240 -207c0 -139 -120 -237 -291 -237h-264v543h-188v-259c0 -198 -73 -294 -223 -294zM838 312h-106v-176h116c55 0 88 32 88 84c0 54 -40 92 -98 92z
" />
    <glyph glyph-name="uni040A" unicode="&#x40a;" horiz-adv-x="1082" 
d="M67 0v694h176v-264h269v264h176v-250h139c147 0 240 -80 240 -207c0 -139 -120 -237 -291 -237h-264v274h-269v-274h-176zM789 312h-101v-176h111c55 0 88 32 88 84c0 54 -40 92 -98 92z" />
    <glyph glyph-name="uni0405" unicode="&#x405;" horiz-adv-x="584" 
d="M274 -10c-86 0 -178 23 -249 55l48 142c69 -29 145 -41 208 -41c67 0 97 18 97 50c0 107 -341 40 -341 276c0 140 120 232 296 232c71 0 148 -15 206 -41l-48 -138c-49 17 -111 27 -167 27c-68 0 -107 -19 -107 -54c0 -103 343 -26 343 -281c0 -139 -102 -227 -286 -227z
" />
    <glyph glyph-name="uni0404" unicode="&#x404;" horiz-adv-x="636" 
d="M392 -10c-217 0 -367 141 -367 352c0 218 161 362 389 362c71 0 139 -14 207 -43l-48 -136c-42 17 -110 26 -161 26c-111 0 -182 -46 -201 -136h314v-140h-307c29 -84 105 -133 216 -133c44 0 99 8 140 22l38 -125c-53 -28 -140 -49 -220 -49z" />
    <glyph glyph-name="uni042D" unicode="&#x42d;" horiz-adv-x="638" 
d="M233 -10c-76 0 -156 16 -217 43l48 136c50 -16 114 -26 171 -26c115 0 177 43 193 135h-288v140h282c-26 89 -98 134 -213 134c-47 0 -103 -8 -146 -22l-38 125c58 31 145 49 224 49c218 0 364 -141 364 -354c0 -214 -148 -360 -380 -360z" />
    <glyph glyph-name="uni0406" unicode="&#x406;" horiz-adv-x="310" 
d="M67 0v694h176v-694h-176z" />
    <glyph glyph-name="uni0407" unicode="&#x407;" horiz-adv-x="310" 
d="M24 747c-59 0 -99 40 -99 99c0 60 40 100 99 100s99 -40 99 -100c0 -59 -40 -99 -99 -99zM274 747c-59 0 -99 40 -99 99c0 60 40 100 99 100s99 -40 99 -100c0 -59 -40 -99 -99 -99zM67 0v694h176v-694h-176z" />
    <glyph glyph-name="uni0408" unicode="&#x408;" horiz-adv-x="455" 
d="M158 -10c-57 0 -110 12 -154 36l49 136c26 -11 61 -19 89 -19c55 0 83 30 83 90v461h174v-451c0 -160 -88 -253 -241 -253z" />
    <glyph glyph-name="uni040B" unicode="&#x40b;" horiz-adv-x="799" 
d="M214 0v542h-204v152h600v-152h-226v-148c49 26 106 41 165 41c136 0 222 -75 222 -202v-233h-172v204c0 55 -38 81 -111 81c-36 0 -71 -6 -104 -18v-267h-170z" />
    <glyph glyph-name="uni042E" unicode="&#x42e;" horiz-adv-x="1072" 
d="M67 0v694h176v-264h108c31 172 155 274 340 274c215 0 355 -139 355 -353c0 -218 -144 -361 -364 -361c-189 0 -310 105 -334 284h-105v-274h-176zM693 140c105 0 173 79 173 202c0 127 -72 212 -181 212c-104 0 -166 -75 -166 -203c0 -130 67 -211 174 -211z" />
    <glyph glyph-name="uni042F" unicode="&#x42f;" horiz-adv-x="659" 
d="M8 0l176 244c-96 28 -148 96 -148 199c0 150 112 251 278 251h277v-694h-173v231h-57l-145 -231h-208zM314 368h104v175h-128c-45 0 -74 -29 -74 -77c0 -58 41 -98 98 -98z" />
    <glyph glyph-name="uni0402" unicode="&#x402;" horiz-adv-x="805" 
d="M218 0v542h-208v152h608v-152h-230v-143c52 40 114 62 181 62c133 0 221 -86 221 -216c0 -148 -114 -244 -301 -255l-14 138c85 11 136 50 136 105c0 47 -41 78 -102 78c-42 0 -85 -16 -121 -43v-268h-170z" />
    <glyph glyph-name="uni0462" unicode="&#x462;" horiz-adv-x="700" 
d="M120 0v493h-108v128h108v73h170v-73h143v-128h-143v-49h155c147 0 240 -80 240 -207c0 -139 -120 -237 -291 -237h-274zM290 136h127c55 0 88 32 88 84c0 54 -40 92 -98 92h-117v-176z" />
    <glyph glyph-name="uni046A" unicode="&#x46a;" horiz-adv-x="794" 
d="M183 0h-168c0 213 67 340 209 392l-141 154v148h622v-148l-150 -146c153 -46 225 -176 225 -400h-168c0 154 -42 243 -131 276v-276h-167v280c-90 -29 -131 -119 -131 -280zM291 550l101 -130l101 130h-202z" />
    <glyph glyph-name="uni0472" unicode="&#x472;" horiz-adv-x="760" 
d="M373 -10c-208 0 -347 140 -347 351c0 218 143 363 358 363c210 0 350 -141 350 -353c0 -217 -144 -361 -361 -361zM373 554c-82 0 -141 -54 -160 -140h332c-22 86 -85 140 -172 140zM384 140c83 0 144 53 163 139h-332c21 -86 84 -139 169 -139z" />
    <glyph glyph-name="uni0474" unicode="&#x474;" horiz-adv-x="730" 
d="M246 0l-245 694h202l142 -484l83 296c36 130 130 198 273 198l21 -163c-77 0 -123 -35 -148 -111l-143 -430h-185z" />
    <glyph glyph-name="uni0492" unicode="&#x492;" horiz-adv-x="579" 
d="M105 0v267h-103v120h103v307h475v-152h-299v-155h152v-120h-152v-267h-176z" />
    <glyph glyph-name="uni0494" unicode="&#x494;" horiz-adv-x="688" 
d="M67 0v694h475v-152h-305v-189c50 31 109 48 172 48c159 0 261 -108 261 -277c0 -192 -131 -329 -353 -370l-21 108c125 22 200 106 200 223c0 103 -59 166 -155 166c-37 0 -73 -10 -104 -28v-223h-170z" />
    <glyph glyph-name="uni0496" unicode="&#x496;" horiz-adv-x="1086" 
d="M2 0l208 348l-192 346h205l140 -264h79v264h173v-264h76l145 264h203l-196 -324l121 -219h110v-338h-162v187h-63v2l-149 276h-85v-278h-173v278h-89l-156 -278h-195z" />
    <glyph glyph-name="uni0498" unicode="&#x498;" horiz-adv-x="592" 
d="M288 -258c-43 0 -87 8 -115 23l17 92c21 -9 56 -15 82 -15c29 0 45 8 45 21c0 21 -30 35 -95 41l16 86c-78 1 -143 15 -220 51l42 142c61 -24 133 -37 191 -37c78 0 124 24 124 66c0 44 -50 69 -138 69h-107v137h105c72 0 120 29 120 73c0 37 -39 57 -113 57
c-51 0 -105 -12 -172 -38l-41 137c74 37 159 57 244 57c166 0 273 -73 273 -186c0 -74 -48 -131 -119 -148c85 -17 138 -77 138 -160c0 -106 -80 -183 -210 -210l-9 -44c73 -11 108 -43 108 -95c0 -73 -64 -119 -166 -119z" />
    <glyph glyph-name="uni049A" unicode="&#x49a;" horiz-adv-x="730" 
d="M67 0v694h175v-257h92l159 257h190l-206 -321l128 -222h113v-338h-162v187h-63v2l-161 283h-90v-285h-175z" />
    <glyph glyph-name="uni049C" unicode="&#x49c;" horiz-adv-x="719" 
d="M67 0v694h175v-257h39v118h90v-118h14l144 257h190l-187 -321l195 -373h-197l-146 285h-13v-116h-90v116h-39v-285h-175z" />
    <glyph glyph-name="uni04A0" unicode="&#x4a0;" horiz-adv-x="774" 
d="M160 0v542h-163v152h338v-257h92l159 257h190l-206 -321l214 -373h-197l-162 285h-90v-285h-175z" />
    <glyph glyph-name="uni04A2" unicode="&#x4a2;" horiz-adv-x="810" 
d="M67 0v694h176v-264h269v264h176v-543h127v-338h-162v187h-141v274h-269v-274h-176z" />
    <glyph glyph-name="uni04A4" unicode="&#x4a4;" horiz-adv-x="957" 
d="M68 0v694h176v-264h269v264h438v-152h-262v-542h-176v274h-269v-274h-176z" />
    <glyph glyph-name="uni04AA" unicode="&#x4aa;" horiz-adv-x="624" 
d="M259 -187v195c-143 44 -234 167 -234 334c0 218 156 362 380 362c70 0 135 -14 202 -43l-48 -136c-38 16 -101 26 -156 26c-127 0 -198 -65 -198 -192c0 -135 80 -217 220 -217c44 0 95 8 135 22l38 -125c-43 -24 -109 -41 -173 -47v-179h-166z" />
    <glyph glyph-name="Ustraitcy" unicode="&#x4ae;" horiz-adv-x="653" 
d="M245 0v251l-265 443h204l153 -292l141 292h194l-254 -447v-247h-173z" />
    <glyph glyph-name="Ustraitstrokecy" unicode="&#x4b0;" horiz-adv-x="653" 
d="M60 173v120h160l-240 401h204l153 -292l141 292h194l-228 -401h163v-120h-189v-173h-173v173h-185z" />
    <glyph glyph-name="uni04B2" unicode="&#x4b2;" horiz-adv-x="712" 
d="M0 0l244 362l-228 332h205l116 -189l116 189h203l-229 -327l151 -216h123v-338h-162v187h-64l-142 228l-132 -228h-201z" />
    <glyph glyph-name="uni04B6" unicode="&#x4b6;" horiz-adv-x="728" 
d="M246 239c-130 0 -216 75 -216 202v253h172v-224c0 -55 38 -81 105 -81c36 0 75 7 110 22v283h170v-543h131v-338h-162v187h-139v285c-48 -29 -110 -46 -171 -46z" />
    <glyph glyph-name="uni04B8" unicode="&#x4b8;" horiz-adv-x="674" 
d="M273 130v109h-16c-138 0 -227 75 -227 202v253h172v-224c0 -43 24 -68 71 -77v123h101v-122c22 3 43 9 63 17v283h170v-694h-170v286c-20 -12 -41 -21 -63 -28v-128h-101z" />
    <glyph glyph-name="uni04BA" unicode="&#x4ba;" horiz-adv-x="651" 
d="M66 0v660h170v-266c49 26 106 41 165 41c136 0 222 -75 222 -202v-233h-172v204c0 55 -38 81 -111 81c-36 0 -71 -6 -104 -18v-267h-170z" />
    <glyph glyph-name="uni04C0" unicode="&#x4c0;" horiz-adv-x="310" 
d="M67 0v694h176v-694h-176z" />
    <glyph glyph-name="uni04C1" unicode="&#x4c1;" horiz-adv-x="1041" 
d="M526 747c-121 0 -203 59 -220 158l120 66c9 -63 54 -105 109 -105c54 0 93 37 107 101l118 -56c-16 -103 -104 -164 -234 -164zM-3 0l208 348l-192 346h205l140 -264h79v264h173v-264h76l145 264h203l-196 -324l204 -370h-197l-150 278h-85v-278h-173v278h-89l-156 -278
h-195z" />
    <glyph glyph-name="uni04CB" unicode="&#x4cb;" horiz-adv-x="654" 
d="M246 239c-130 0 -216 75 -216 202v253h172v-224c0 -55 38 -81 105 -81c36 0 75 7 110 22v283h170v-694h-92v-187h-162v338h84v134c-48 -29 -110 -46 -171 -46z" />
    <glyph glyph-name="uni04D0" unicode="&#x4d0;" horiz-adv-x="708" 
d="M358 747c-121 0 -203 59 -220 158l120 66c9 -63 54 -105 109 -105c54 0 93 37 107 101l118 -56c-16 -103 -104 -164 -234 -164zM1 0l247 694h221l237 -694h-191l-45 143h-242l-42 -143h-185zM275 299h147l-75 242z" />
    <glyph glyph-name="uni04D2" unicode="&#x4d2;" horiz-adv-x="708" 
d="M222 747c-59 0 -99 40 -99 99c0 60 40 100 99 100s99 -40 99 -100c0 -59 -40 -99 -99 -99zM472 747c-59 0 -99 40 -99 99c0 60 40 100 99 100s99 -40 99 -100c0 -59 -40 -99 -99 -99zM1 0l247 694h221l237 -694h-191l-45 143h-242l-42 -143h-185zM275 299h147l-75 242z
" />
    <glyph glyph-name="uni04D4" unicode="&#x4d4;" horiz-adv-x="1023" 
d="M-4 0l417 694h565v-152h-325v-112h297v-152h-297v-126h325v-152h-498v149h-210l-84 -149h-190zM357 305h123v218z" />
    <glyph glyph-name="uni04D6" unicode="&#x4d6;" horiz-adv-x="610" 
d="M310 747c-121 0 -203 59 -220 158l120 66c9 -63 54 -105 109 -105c54 0 93 37 107 101l118 -56c-16 -103 -104 -164 -234 -164zM67 0v694h498v-152h-325v-114h297v-152h-297v-124h325v-152h-498z" />
    <glyph glyph-name="uni04D8" unicode="&#x4d8;" horiz-adv-x="741" 
d="M317 704c239 0 386 -133 386 -354c0 -217 -143 -360 -353 -360c-187 0 -305 115 -305 290c0 44 3 90 8 134h458c-27 97 -102 140 -223 140c-63 0 -129 -13 -189 -37l-39 131c80 37 167 56 257 56zM363 140c93 0 146 40 157 132h-309c0 -92 56 -132 152 -132z" />
    <glyph glyph-name="uni04DC" unicode="&#x4dc;" horiz-adv-x="1041" 
d="M390 747c-59 0 -99 40 -99 99c0 60 40 100 99 100s99 -40 99 -100c0 -59 -40 -99 -99 -99zM640 747c-59 0 -99 40 -99 99c0 60 40 100 99 100s99 -40 99 -100c0 -59 -40 -99 -99 -99zM-3 0l208 348l-192 346h205l140 -264h79v264h173v-264h76l145 264h203l-196 -324
l204 -370h-197l-150 278h-85v-278h-173v278h-89l-156 -278h-195z" />
    <glyph glyph-name="uni04DE" unicode="&#x4de;" horiz-adv-x="592" 
d="M166 747c-59 0 -99 40 -99 99c0 60 40 100 99 100s99 -40 99 -100c0 -59 -40 -99 -99 -99zM416 747c-59 0 -99 40 -99 99c0 60 40 100 99 100s99 -40 99 -100c0 -59 -40 -99 -99 -99zM245 -10c-81 0 -148 14 -227 51l42 142c61 -24 133 -37 191 -37c78 0 124 24 124 66
c0 44 -50 69 -138 69h-107v137h105c72 0 120 29 120 73c0 37 -39 57 -113 57c-51 0 -105 -12 -172 -38l-41 137c74 37 159 57 244 57c166 0 273 -73 273 -186c0 -74 -48 -131 -119 -148c85 -17 138 -77 138 -160c0 -133 -126 -220 -320 -220z" />
    <glyph glyph-name="uni04E2" unicode="&#x4e2;" horiz-adv-x="770" 
d="M208 769v136h360v-136h-360zM67 0v694h172v-448l273 448h191v-694h-172v446l-277 -446h-187z" />
    <glyph glyph-name="uni04E4" unicode="&#x4e4;" horiz-adv-x="770" 
d="M254 747c-59 0 -99 40 -99 99c0 60 40 100 99 100s99 -40 99 -100c0 -59 -40 -99 -99 -99zM504 747c-59 0 -99 40 -99 99c0 60 40 100 99 100s99 -40 99 -100c0 -59 -40 -99 -99 -99zM67 0v694h172v-448l273 448h191v-694h-172v446l-277 -446h-187z" />
    <glyph glyph-name="uni04E6" unicode="&#x4e6;" horiz-adv-x="760" 
d="M249 747c-59 0 -99 40 -99 99c0 60 40 100 99 100s99 -40 99 -100c0 -59 -40 -99 -99 -99zM499 747c-59 0 -99 40 -99 99c0 60 40 100 99 100s99 -40 99 -100c0 -59 -40 -99 -99 -99zM373 -10c-208 0 -347 140 -347 351c0 218 143 363 358 363c210 0 350 -141 350 -353
c0 -217 -144 -361 -361 -361zM384 140c102 0 170 80 170 201c0 128 -72 213 -181 213c-100 0 -167 -81 -167 -203c0 -127 71 -211 178 -211z" />
    <glyph glyph-name="uni04E8" unicode="&#x4e8;" horiz-adv-x="760" 
d="M373 -10c-208 0 -347 140 -347 351c0 218 143 363 358 363c210 0 350 -141 350 -353c0 -217 -144 -361 -361 -361zM373 554c-82 0 -141 -54 -160 -140h332c-22 86 -85 140 -172 140zM384 140c83 0 144 53 163 139h-332c21 -86 84 -139 169 -139z" />
    <glyph glyph-name="uni04EE" unicode="&#x4ee;" horiz-adv-x="654" 
d="M150 769v136h360v-136h-360zM121 0l130 237l-259 457h208l148 -292l136 292h177l-347 -694h-193z" />
    <glyph glyph-name="uni04F0" unicode="&#x4f0;" horiz-adv-x="654" 
d="M196 747c-59 0 -99 40 -99 99c0 60 40 100 99 100s99 -40 99 -100c0 -59 -40 -99 -99 -99zM446 747c-59 0 -99 40 -99 99c0 60 40 100 99 100s99 -40 99 -100c0 -59 -40 -99 -99 -99zM121 0l130 237l-259 457h208l148 -292l136 292h177l-347 -694h-193z" />
    <glyph glyph-name="uni04F2" unicode="&#x4f2;" horiz-adv-x="654" 
d="M172 739l-76 73l133 174l119 -115zM427 739l-76 73l133 174l119 -115zM121 0l130 237l-259 457h208l148 -292l136 292h177l-347 -694h-193z" />
    <glyph glyph-name="uni04F4" unicode="&#x4f4;" horiz-adv-x="654" 
d="M197 747c-59 0 -99 40 -99 99c0 60 40 100 99 100s99 -40 99 -100c0 -59 -40 -99 -99 -99zM447 747c-59 0 -99 40 -99 99c0 60 40 100 99 100s99 -40 99 -100c0 -59 -40 -99 -99 -99zM246 239c-130 0 -216 75 -216 202v253h172v-224c0 -55 38 -81 105 -81
c36 0 75 7 110 22v283h170v-694h-170v285c-48 -29 -110 -46 -171 -46z" />
    <glyph glyph-name="uni04F6" unicode="&#x4f6;" horiz-adv-x="553" 
d="M68 0v694h485v-157h-309v-386h107v-338h-162v187h-121z" />
    <glyph glyph-name="uni04F8" unicode="&#x4f8;" horiz-adv-x="907" 
d="M333 747c-59 0 -99 40 -99 99c0 60 40 100 99 100s99 -40 99 -100c0 -59 -40 -99 -99 -99zM583 747c-59 0 -99 40 -99 99c0 60 40 100 99 100s99 -40 99 -100c0 -59 -40 -99 -99 -99zM67 0v694h170v-240h125c144 0 240 -85 240 -212c0 -152 -108 -242 -291 -242h-244z
M664 -3v694h176v-694h-176zM237 136h97c55 0 88 33 88 89c0 58 -39 97 -98 97h-87v-186z" />
    <glyph glyph-name="uni051A" unicode="&#x51a;" horiz-adv-x="760" 
d="M373 -10c-208 0 -347 140 -347 351c0 218 143 363 358 363c210 0 350 -141 350 -353c0 -91 -25 -169 -70 -229l88 -84l-108 -101l-95 91c-51 -25 -110 -38 -176 -38zM384 140c15 0 30 2 44 5l-105 100l104 103l112 -107c11 28 17 62 17 100c0 134 -68 213 -183 213
c-106 0 -169 -75 -169 -203c0 -133 67 -211 180 -211z" />
    <glyph glyph-name="uni051C" unicode="&#x51c;" horiz-adv-x="1026" 
d="M212 0l-212 694h195l117 -478l107 474h189l119 -465l124 469h175l-214 -694h-185l-121 444l-104 -444h-190z" />
    <glyph glyph-name="uni0430" unicode="&#x430;" horiz-adv-x="528" 
d="M195 -10c-106 0 -173 59 -173 148c0 104 93 153 297 158c-2 43 -42 66 -110 66c-43 0 -90 -9 -141 -27l-40 117c62 30 142 48 218 48c160 0 242 -80 242 -228v-272h-125l-18 52c-37 -41 -87 -62 -150 -62zM196 163c0 -26 24 -44 59 -44c24 0 46 8 64 23v68
c-89 -3 -123 -16 -123 -47z" />
    <glyph glyph-name="uni0431" unicode="&#x431;" horiz-adv-x="567" 
d="M297 -10c-175 0 -267 119 -267 345c0 247 70 359 242 359c68 0 118 16 149 52l107 -73c-53 -90 -113 -129 -202 -129c-86 0 -118 -34 -125 -144c39 44 91 66 152 66c123 0 195 -84 195 -222c0 -159 -96 -254 -251 -254zM300 329c-34 0 -71 -20 -96 -51
c11 -95 46 -145 101 -145c48 0 75 38 75 98c0 62 -30 98 -80 98z" />
    <glyph glyph-name="uni0432" unicode="&#x432;" horiz-adv-x="533" 
d="M54 0v490h252c119 0 179 -39 179 -117c0 -40 -15 -71 -44 -91c49 -21 74 -61 74 -116c0 -97 -83 -166 -207 -166h-254zM219 378v-75h88c10 9 15 20 15 34c0 30 -19 41 -47 41h-56zM219 112h85c26 0 43 16 43 42c0 27 -17 40 -53 40h-75v-82z" />
    <glyph glyph-name="uni0433" unicode="&#x433;" horiz-adv-x="451" 
d="M55 0v490h397v-134h-224v-356h-173z" />
    <glyph glyph-name="uni0453" unicode="&#x453;" horiz-adv-x="451" 
d="M236 532l-81 67l118 179l126 -102zM55 0v490h397v-134h-224v-356h-173z" />
    <glyph glyph-name="uni0491" unicode="&#x491;" horiz-adv-x="461" 
d="M55 0v490h251v134h156v-268h-234v-356h-173z" />
    <glyph glyph-name="uni0434" unicode="&#x434;" horiz-adv-x="626" 
d="M3 -135v266h36c43 8 65 63 65 154v205h420v-359h99v-266h-153v135h-313v-135h-154zM249 289c0 -70 -17 -123 -50 -158h165v224h-115v-66z" />
    <glyph glyph-name="uni0435" unicode="&#x435;" horiz-adv-x="526" 
d="M304 -10c-178 0 -286 96 -286 254c0 154 103 256 258 256c140 0 222 -84 222 -227c0 -26 -3 -51 -7 -76h-294c17 -55 61 -79 134 -79c40 0 79 7 120 21l38 -117c-62 -21 -125 -32 -185 -32zM264 373c-40 0 -65 -26 -73 -76h144c0 48 -26 76 -71 76z" />
    <glyph glyph-name="uni0450" unicode="&#x450;" horiz-adv-x="526" 
d="M246 532l-163 144l126 102l118 -179zM304 -10c-178 0 -286 96 -286 254c0 154 103 256 258 256c140 0 222 -84 222 -227c0 -26 -3 -51 -7 -76h-294c17 -55 61 -79 134 -79c40 0 79 7 120 21l38 -117c-62 -21 -125 -32 -185 -32zM264 373c-40 0 -65 -26 -73 -76h144
c0 48 -26 76 -71 76z" />
    <glyph glyph-name="uni0451" unicode="&#x451;" horiz-adv-x="526" 
d="M138 557c-59 0 -99 40 -99 99c0 60 40 100 99 100s99 -40 99 -100c0 -59 -40 -99 -99 -99zM388 557c-59 0 -99 40 -99 99c0 60 40 100 99 100s99 -40 99 -100c0 -59 -40 -99 -99 -99zM304 -10c-178 0 -286 96 -286 254c0 154 103 256 258 256c140 0 222 -84 222 -227
c0 -26 -3 -51 -7 -76h-294c17 -55 61 -79 134 -79c40 0 79 7 120 21l38 -117c-62 -21 -125 -32 -185 -32zM264 373c-40 0 -65 -26 -73 -76h144c0 48 -26 76 -71 76z" />
    <glyph glyph-name="uni0436" unicode="&#x436;" horiz-adv-x="822" 
d="M-11 0l158 234l-145 256h183l95 -177h56v177h154v-177h55l98 177h182l-146 -234l151 -256h-176l-104 180h-60v-180h-154v180h-61l-112 -180h-174z" />
    <glyph glyph-name="uni0437" unicode="&#x437;" horiz-adv-x="469" 
d="M188 -7c-67 0 -122 12 -174 34l36 119c43 -14 99 -23 148 -23c56 0 85 11 85 33s-38 35 -102 35h-72v109h70c57 0 89 14 89 38c0 21 -25 32 -75 32c-46 0 -92 -9 -141 -27l-35 113c62 28 133 44 199 44c132 0 217 -52 217 -134c0 -53 -35 -91 -91 -102
c68 -12 107 -52 107 -110c0 -97 -104 -161 -261 -161z" />
    <glyph glyph-name="uni0438" unicode="&#x438;" horiz-adv-x="590" 
d="M54 0v490h156v-264l175 264h151v-490h-154v264l-180 -264h-148z" />
    <glyph glyph-name="uni0439" unicode="&#x439;" horiz-adv-x="590" 
d="M300 547c-121 0 -203 59 -220 158l120 66c9 -63 54 -105 109 -105c54 0 93 37 107 101l118 -56c-16 -103 -104 -164 -234 -164zM54 0v490h156v-264l175 264h151v-490h-154v264l-180 -264h-148z" />
    <glyph glyph-name="uni045D" unicode="&#x45d;" horiz-adv-x="590" 
d="M278 532l-163 144l126 102l118 -179zM54 0v490h156v-264l175 264h151v-490h-154v264l-180 -264h-148z" />
    <glyph glyph-name="uni043A" unicode="&#x43a;" horiz-adv-x="562" 
d="M55 0v490h165v-177h72l98 177h179l-145 -230l150 -260h-185l-93 176h-76v-176h-165z" />
    <glyph glyph-name="uni045C" unicode="&#x45c;" horiz-adv-x="562" 
d="M295 532l-81 67l118 179l126 -102zM55 0v490h165v-177h72l98 177h179l-145 -230l150 -260h-185l-93 176h-76v-176h-165z" />
    <glyph glyph-name="uni043B" unicode="&#x43b;" horiz-adv-x="602" 
d="M96 -17c-39 0 -75 12 -100 32l27 116c14 -9 35 -16 43 -16c42 0 54 61 54 79v297h428v-491h-166v351h-109v-151c0 -110 -66 -217 -177 -217z" />
    <glyph glyph-name="uni043C" unicode="&#x43c;" horiz-adv-x="665" 
d="M54 0v490h142l143 -258l131 258h141v-490h-144v246l-91 -170h-88l-91 159v-235h-143z" />
    <glyph glyph-name="uni043D" unicode="&#x43d;" horiz-adv-x="596" 
d="M54 0v490h168v-176h152v176h168v-490h-168v179h-152v-179h-168z" />
    <glyph glyph-name="uni043E" unicode="&#x43e;" horiz-adv-x="567" 
d="M275 -10c-157 0 -257 97 -257 245c0 159 110 265 275 265c156 0 256 -97 256 -246c0 -158 -110 -264 -274 -264zM286 134c55 0 87 39 87 106c0 73 -34 116 -92 116c-55 0 -87 -41 -87 -110c0 -70 34 -112 92 -112z" />
    <glyph glyph-name="uni043F" unicode="&#x43f;" horiz-adv-x="577" 
d="M54 0v490h469v-490h-160v352h-149v-352h-160z" />
    <glyph glyph-name="uni0440" unicode="&#x440;" horiz-adv-x="574" 
d="M54 -217v707h115l24 -57c35 43 84 67 144 67c126 0 217 -104 217 -249c0 -150 -97 -261 -226 -261c-42 0 -79 12 -109 35v-242h-165zM287 356c-27 0 -51 -10 -68 -28v-163c18 -20 44 -31 72 -31c55 0 87 40 87 108c0 72 -35 114 -91 114z" />
    <glyph glyph-name="uni0441" unicode="&#x441;" horiz-adv-x="460" 
d="M284 -10c-167 0 -266 91 -266 246c0 162 108 264 278 264c52 0 107 -10 147 -27l-35 -134c-30 10 -70 17 -103 17c-74 0 -111 -39 -111 -108c0 -77 46 -120 127 -120c28 0 58 5 87 17l38 -117c-51 -26 -102 -38 -162 -38z" />
    <glyph glyph-name="uni0442" unicode="&#x442;" horiz-adv-x="494" 
d="M166 0v355h-166v135h494v-135h-168v-355h-160z" />
    <glyph glyph-name="uni0443" unicode="&#x443;" horiz-adv-x="532" 
d="M91 -217l89 217l-188 490h191l88 -327l97 327h172l-185 -490l-76 -217h-188z" />
    <glyph glyph-name="uni045E" unicode="&#x45e;" horiz-adv-x="532" 
d="M271 547c-121 0 -203 59 -220 158l120 66c9 -63 54 -105 109 -105c54 0 93 37 107 101l118 -56c-16 -103 -104 -164 -234 -164zM91 -217l89 217l-188 490h191l88 -327l97 327h172l-185 -490l-76 -217h-188z" />
    <glyph glyph-name="uni0444" unicode="&#x444;" horiz-adv-x="792" 
d="M221 -5c-117 0 -200 102 -200 246c0 147 91 249 222 249c28 0 54 -6 77 -17v266h156v-273c27 16 59 24 93 24c119 0 202 -100 202 -241c0 -151 -90 -254 -220 -254c-28 0 -53 5 -75 14v-226h-156v241c-29 -19 -62 -29 -99 -29zM192 248c0 -70 32 -113 83 -113
c17 0 32 4 45 12v190c-14 8 -30 13 -47 13c-49 0 -81 -40 -81 -102zM508 350c-11 0 -22 -2 -32 -6v-198c13 -7 28 -11 43 -11c51 0 81 40 81 108c0 67 -35 107 -92 107z" />
    <glyph glyph-name="uni0445" unicode="&#x445;" horiz-adv-x="524" 
d="M-5 0l179 241l-182 249h199l73 -121l79 121h192l-190 -243l176 -247h-198l-71 116l-75 -116h-182z" />
    <glyph glyph-name="uni0447" unicode="&#x447;" horiz-adv-x="558" 
d="M201 162c-110 0 -182 58 -182 153v175h165v-136c0 -25 36 -44 79 -44c22 0 50 5 73 13v167h168v-490h-168v197c-39 -24 -86 -35 -135 -35z" />
    <glyph glyph-name="uni0446" unicode="&#x446;" horiz-adv-x="641" 
d="M483 -136v136h-429v490h166v-357h137v357h166v-357h116v-269h-156z" />
    <glyph glyph-name="uni0448" unicode="&#x448;" horiz-adv-x="854" 
d="M54 0v490h161v-357h131v357h161v-357h133v357h160v-490h-746z" />
    <glyph glyph-name="uni0449" unicode="&#x449;" horiz-adv-x="898" 
d="M740 -135v135h-686v490h160v-357h133v357h160v-357h136v357h159v-357h94v-268h-156z" />
    <glyph glyph-name="uni045F" unicode="&#x45f;" horiz-adv-x="598" 
d="M223 -134v134h-169v490h165v-355h160v355h165v-490h-165v-134h-156z" />
    <glyph glyph-name="uni044C" unicode="&#x44c;" horiz-adv-x="515" 
d="M54 0v490h160v-146h100c115 0 193 -63 193 -157c0 -117 -88 -187 -238 -187h-215zM214 126h76c29 0 48 18 48 47s-26 47 -60 47h-64v-94z" />
    <glyph glyph-name="uni044A" unicode="&#x44a;" horiz-adv-x="563" 
d="M127 0v355h-124v135h284v-146h74c117 0 195 -63 195 -157c0 -117 -89 -187 -240 -187h-189zM287 126h50c31 0 50 18 50 47s-26 47 -62 47h-38v-94z" />
    <glyph glyph-name="uni044B" unicode="&#x44b;" horiz-adv-x="767" 
d="M547 -3v493h166v-493h-166zM54 0v490h160v-146h85c116 0 195 -63 195 -157c0 -117 -89 -187 -239 -187h-201zM214 126h61c31 0 50 18 50 47s-27 47 -62 47h-49v-94z" />
    <glyph glyph-name="uni0459" unicode="&#x459;" horiz-adv-x="861" 
d="M96 -17c-39 0 -75 12 -100 32l27 116c14 -9 35 -16 43 -16c42 0 54 61 54 79v297h428v-147h112c115 0 193 -63 193 -157c0 -117 -88 -187 -238 -187h-233v351h-109v-151c0 -110 -66 -217 -177 -217zM624 220h-76v-94h88c29 0 48 18 48 47s-26 47 -60 47z" />
    <glyph glyph-name="uni045A" unicode="&#x45a;" horiz-adv-x="857" 
d="M54 0v490h168v-176h152v176h168v-146h114c115 0 193 -63 193 -157c0 -117 -88 -187 -238 -187h-237v179h-152v-179h-168zM620 220h-78v-94h90c29 0 48 18 48 47s-26 47 -60 47z" />
    <glyph glyph-name="uni0455" unicode="&#x455;" horiz-adv-x="477" 
d="M225 -10c-71 0 -146 14 -202 37l37 123c51 -18 113 -30 156 -30s70 13 70 32c0 60 -256 -6 -256 183c0 107 82 165 234 165c59 0 124 -9 172 -24l-33 -125c-49 12 -97 19 -136 19c-48 0 -72 -10 -72 -27c0 -56 262 1 262 -186c0 -106 -84 -167 -232 -167z" />
    <glyph glyph-name="uni0454" unicode="&#x454;" horiz-adv-x="482" 
d="M293 -10c-171 0 -275 91 -275 245c0 161 115 264 290 264c52 0 112 -10 157 -28l-32 -123c-33 11 -82 19 -118 19c-62 0 -105 -21 -124 -61h201v-112h-205c20 -50 69 -78 141 -78c35 0 72 7 105 19l35 -107c-55 -27 -114 -38 -175 -38z" />
    <glyph glyph-name="uni044D" unicode="&#x44d;" horiz-adv-x="477" 
d="M187 -7c-54 0 -127 10 -177 31l40 113c28 -10 96 -17 137 -17c67 0 104 20 116 69h-205v117h198c-20 46 -62 68 -129 68c-27 0 -88 -5 -118 -15l-31 106c37 19 126 35 187 35c153 0 253 -95 253 -250c0 -159 -106 -257 -271 -257z" />
    <glyph glyph-name="uni0456" unicode="&#x456;" horiz-adv-x="287" 
d="M144 557c-59 0 -99 40 -99 99c0 60 40 100 99 100s99 -40 99 -100c0 -59 -40 -99 -99 -99zM57 0v490h173v-490h-173z" />
    <glyph glyph-name="uni0457" unicode="&#x457;" horiz-adv-x="287" 
d="M19 557c-59 0 -99 40 -99 99c0 60 40 100 99 100s99 -40 99 -100c0 -59 -40 -99 -99 -99zM269 557c-59 0 -99 40 -99 99c0 60 40 100 99 100s99 -40 99 -100c0 -59 -40 -99 -99 -99zM57 0v490h173v-490h-173z" />
    <glyph glyph-name="uni0458" unicode="&#x458;" horiz-adv-x="287" 
d="M144 557c-59 0 -99 40 -99 99c0 60 40 100 99 100s99 -40 99 -100c0 -59 -40 -99 -99 -99zM24 -232l-50 94c52 38 83 99 83 164v464h173v-464c0 -114 -82 -217 -206 -258z" />
    <glyph glyph-name="uni045B" unicode="&#x45b;" horiz-adv-x="579" 
d="M54 0v541h-66v107h66v91h170v-91h117v-107h-117v-96c36 35 82 51 133 51c112 0 179 -75 179 -202v-294h-173v265c0 55 -21 81 -71 81c-26 0 -48 -8 -68 -29v-317h-170z" />
    <glyph glyph-name="uni044E" unicode="&#x44e;" horiz-adv-x="819" 
d="M54 0v490h160v-178h82c25 117 114 186 246 186c156 0 259 -98 259 -250c0 -155 -106 -255 -266 -255c-133 0 -219 68 -241 186h-80v-179h-160zM544 129c57 0 92 45 92 112c0 71 -38 120 -98 120c-54 0 -85 -41 -85 -113c0 -74 35 -119 91 -119z" />
    <glyph glyph-name="uni044F" unicode="&#x44f;" horiz-adv-x="535" 
d="M-1 0l141 167c-74 21 -115 71 -115 144c0 107 92 179 226 179h229v-490h-158v156h-19l-114 -156h-190zM251 275h71v80h-92c-26 0 -41 -14 -41 -38c0 -28 23 -42 62 -42z" />
    <glyph glyph-name="uni0452" unicode="&#x452;" horiz-adv-x="579" 
d="M54 0v541h-66v107h66v91h170v-91h117v-107h-117v-96c36 35 82 51 133 51c112 0 179 -75 179 -202v-307c0 -98 -69 -184 -173 -214l-55 96c33 19 55 61 55 106v290c0 55 -21 81 -71 81c-26 0 -48 -8 -68 -29v-317h-170z" />
    <glyph glyph-name="uni0463" unicode="&#x463;" horiz-adv-x="525" 
d="M69 0v425h-74v135h74v179h155v-179h134v-135h-134v-81h100c115 0 193 -63 193 -157c0 -117 -88 -187 -238 -187h-210zM224 126h76c29 0 48 18 48 47s-26 47 -60 47h-64v-94z" />
    <glyph glyph-name="uni046B" unicode="&#x46b;" horiz-adv-x="635" 
d="M158 0h-150c0 141 50 231 158 270l-102 95v124h503v-124l-110 -88c117 -36 172 -128 172 -277h-151c0 91 -29 145 -90 167v-167h-140v170c-61 -20 -90 -75 -90 -170zM243 369l63 -75h15l64 75h-142z" />
    <glyph glyph-name="uni0473" unicode="&#x473;" horiz-adv-x="567" 
d="M275 -10c-157 0 -257 97 -257 245c0 159 110 265 275 265c156 0 256 -97 256 -246c0 -158 -110 -264 -274 -264zM281 356c-39 0 -67 -21 -79 -58h162c-14 37 -43 58 -83 58zM286 134c40 0 67 20 80 57h-163c14 -36 42 -57 83 -57z" />
    <glyph glyph-name="uni0475" unicode="&#x475;" horiz-adv-x="526" 
d="M163 0l-169 486h183l76 -295l40 159c23 93 97 143 213 143l19 -147c-61 0 -89 -24 -102 -64l-91 -282h-169z" />
    <glyph glyph-name="uni0493" unicode="&#x493;" horiz-adv-x="483" 
d="M86 0v174h-79v120h79v196h397v-134h-224v-62h144v-120h-144v-174h-173z" />
    <glyph glyph-name="uni0495" unicode="&#x495;" horiz-adv-x="559" 
d="M54 0v490h369v-135h-209v-97c36 21 78 32 123 32c130 0 217 -93 217 -232c0 -155 -105 -266 -283 -298l-21 100c84 20 133 82 133 167c0 79 -45 132 -112 132c-20 0 -39 -5 -57 -14v-145h-160z" />
    <glyph glyph-name="uni0497" unicode="&#x497;" horiz-adv-x="855" 
d="M-11 0l158 234l-145 256h183l95 -177h56v177h154v-177h55l98 177h182l-146 -234l76 -128h94v-264h-148v136h-47l-104 180h-60v-180h-154v180h-61l-112 -180h-174z" />
    <glyph glyph-name="uni0499" unicode="&#x499;" horiz-adv-x="469" 
d="M226 -258c-43 0 -87 8 -115 23l17 92c21 -9 56 -15 82 -15c29 0 45 8 45 21c0 21 -30 35 -95 41l16 89c-61 1 -113 13 -162 34l36 119c43 -14 99 -23 148 -23c56 0 85 11 85 33s-38 35 -102 35h-72v109h70c57 0 89 14 89 38c0 21 -25 32 -75 32c-46 0 -92 -9 -141 -27
l-35 113c62 28 133 44 199 44c132 0 217 -52 217 -134c0 -53 -35 -91 -91 -102c68 -12 107 -52 107 -110c0 -73 -59 -128 -156 -150l-9 -48c73 -11 108 -43 108 -95c0 -73 -64 -119 -166 -119z" />
    <glyph glyph-name="uni049B" unicode="&#x49b;" horiz-adv-x="595" 
d="M55 0v490h165v-177h72l98 177h179l-145 -230l76 -132h88v-264h-148v136h-51l-93 176h-76v-176h-165z" />
    <glyph glyph-name="uni049D" unicode="&#x49d;" horiz-adv-x="592" 
d="M55 0v490h165v-177h20v105h80v-105h2l98 177h179l-135 -230l140 -260h-185l-93 176h-6v-98h-80v98h-20v-176h-165z" />
    <glyph glyph-name="uni04A1" unicode="&#x4a1;" horiz-adv-x="658" 
d="M151 0v357h-157v133h322v-177h64l106 177h179l-145 -230l150 -260h-185l-100 176h-69v-176h-165z" />
    <glyph glyph-name="uni04A3" unicode="&#x4a3;" horiz-adv-x="630" 
d="M54 0v490h168v-176h152v176h168v-362h87v-264h-148v136h-107v179h-152v-179h-168z" />
    <glyph glyph-name="uni04A5" unicode="&#x4a5;" horiz-adv-x="716" 
d="M55 0v490h168v-176h152v176h342v-133h-174v-357h-168v179h-152v-179h-168z" />
    <glyph glyph-name="uni04AB" unicode="&#x4ab;" horiz-adv-x="460" 
d="M186 -136v138c-107 30 -168 112 -168 234c0 162 108 264 278 264c52 0 107 -10 147 -27l-35 -134c-30 10 -70 17 -103 17c-74 0 -111 -39 -111 -108c0 -77 46 -120 127 -120c28 0 58 5 87 17l38 -117c-34 -17 -68 -28 -104 -34v-130h-156z" />
    <glyph glyph-name="ustraitcy" unicode="&#x4af;" horiz-adv-x="534" 
d="M180 0l-188 490h190l88 -326l99 326h174l-190 -490v-217h-173v217z" />
    <glyph glyph-name="uni04B3" unicode="&#x4b3;" horiz-adv-x="543" 
d="M-5 0l179 241l-182 249h199l73 -121l79 121h192l-190 -243l85 -119h100v-264h-148v136h-59l-71 116l-75 -116h-182z" />
    <glyph glyph-name="uni04B7" unicode="&#x4b7;" horiz-adv-x="599" 
d="M201 162c-110 0 -182 58 -182 153v175h165v-136c0 -25 36 -44 79 -44c22 0 50 5 73 13v167h168v-362h87v-264h-148v136h-107v197c-39 -24 -86 -35 -135 -35z" />
    <glyph glyph-name="uni04B9" unicode="&#x4b9;" horiz-adv-x="557" 
d="M218 67v95h-17c-111 0 -182 58 -182 153v175h165v-136c0 -15 13 -29 34 -36v100h81v-105c12 3 25 6 36 10v167h168v-490h-168v196c-11 -6 -23 -12 -36 -17v-112h-81z" />
    <glyph glyph-name="uni04BB" unicode="&#x4bb;" horiz-adv-x="579" 
d="M54 0v739h170v-294c36 35 82 51 133 51c112 0 179 -75 179 -202v-294h-173v265c0 55 -21 81 -71 81c-26 0 -48 -8 -68 -29v-317h-170z" />
    <glyph glyph-name="uni04CF" unicode="&#x4cf;" horiz-adv-x="310" 
d="M67 0v694h176v-694h-176z" />
    <glyph glyph-name="uni04C2" unicode="&#x4c2;" horiz-adv-x="822" 
d="M416 547c-121 0 -203 59 -220 158l120 66c9 -63 54 -105 109 -105c54 0 93 37 107 101l118 -56c-16 -103 -104 -164 -234 -164zM-11 0l158 234l-145 256h183l95 -177h56v177h154v-177h55l98 177h182l-146 -234l151 -256h-176l-104 180h-60v-180h-154v180h-61l-112 -180
h-174z" />
    <glyph glyph-name="uni04CC" unicode="&#x4cc;" horiz-adv-x="558" 
d="M201 162c-110 0 -182 58 -182 153v175h165v-136c0 -25 36 -44 79 -44c22 0 50 5 73 13v167h168v-490h-109v-136h-156v259h97v74c-39 -24 -86 -35 -135 -35z" />
    <glyph glyph-name="uni04D1" unicode="&#x4d1;" horiz-adv-x="528" 
d="M269 547c-121 0 -203 59 -220 158l120 66c9 -63 54 -105 109 -105c54 0 93 37 107 101l118 -56c-16 -103 -104 -164 -234 -164zM195 -10c-106 0 -173 59 -173 148c0 104 93 153 297 158c-2 43 -42 66 -110 66c-43 0 -90 -9 -141 -27l-40 117c62 30 142 48 218 48
c160 0 242 -80 242 -228v-272h-125l-18 52c-37 -41 -87 -62 -150 -62zM196 163c0 -26 24 -44 59 -44c24 0 46 8 64 23v68c-89 -3 -123 -16 -123 -47z" />
    <glyph glyph-name="uni04D3" unicode="&#x4d3;" horiz-adv-x="528" 
d="M139 557c-59 0 -99 40 -99 99c0 60 40 100 99 100s99 -40 99 -100c0 -59 -40 -99 -99 -99zM389 557c-59 0 -99 40 -99 99c0 60 40 100 99 100s99 -40 99 -100c0 -59 -40 -99 -99 -99zM195 -10c-106 0 -173 59 -173 148c0 104 93 153 297 158c-2 43 -42 66 -110 66
c-43 0 -90 -9 -141 -27l-40 117c62 30 142 48 218 48c160 0 242 -80 242 -228v-272h-125l-18 52c-37 -41 -87 -62 -150 -62zM196 163c0 -26 24 -44 59 -44c24 0 46 8 64 23v68c-89 -3 -123 -16 -123 -47z" />
    <glyph glyph-name="uni04D5" unicode="&#x4d5;" horiz-adv-x="796" 
d="M186 -10c-98 0 -164 54 -164 136c0 103 107 166 290 172c-8 39 -41 61 -95 61c-44 0 -100 -14 -152 -38l-38 117c64 39 148 62 226 62c62 0 109 -16 141 -50c38 33 89 50 151 50c140 0 223 -85 223 -229c0 -27 -3 -56 -7 -72h-289c17 -54 59 -79 131 -79
c37 0 77 7 117 21l39 -119c-62 -21 -125 -32 -185 -32c-98 0 -169 30 -211 87c-49 -59 -107 -87 -177 -87zM533 369c-37 0 -60 -23 -67 -70h132c0 44 -24 70 -65 70zM196 157c0 -24 19 -38 53 -38c27 0 55 10 81 29c-5 18 -8 36 -10 57c-87 -2 -124 -16 -124 -48z" />
    <glyph glyph-name="uni04D7" unicode="&#x4d7;" horiz-adv-x="526" 
d="M268 547c-121 0 -203 59 -220 158l120 66c9 -63 54 -105 109 -105c54 0 93 37 107 101l118 -56c-16 -103 -104 -164 -234 -164zM304 -10c-178 0 -286 96 -286 254c0 154 103 256 258 256c140 0 222 -84 222 -227c0 -26 -3 -51 -7 -76h-294c17 -55 61 -79 134 -79
c40 0 79 7 120 21l38 -117c-62 -21 -125 -32 -185 -32zM264 373c-40 0 -65 -26 -73 -76h144c0 48 -26 76 -71 76z" />
    <glyph glyph-name="uni04D9" unicode="&#x4d9;" horiz-adv-x="526" 
d="M222 500c178 0 286 -96 286 -254c0 -154 -103 -256 -258 -256c-140 0 -222 84 -222 227c0 26 3 51 7 76h294c-17 55 -61 79 -134 79c-40 0 -79 -7 -120 -21l-38 117c62 21 125 32 185 32zM262 117c40 0 65 26 73 76h-144c0 -48 26 -76 71 -76z" />
    <glyph glyph-name="uni04DD" unicode="&#x4dd;" horiz-adv-x="822" 
d="M286 557c-59 0 -99 40 -99 99c0 60 40 100 99 100s99 -40 99 -100c0 -59 -40 -99 -99 -99zM536 557c-59 0 -99 40 -99 99c0 60 40 100 99 100s99 -40 99 -100c0 -59 -40 -99 -99 -99zM-11 0l158 234l-145 256h183l95 -177h56v177h154v-177h55l98 177h182l-146 -234
l151 -256h-176l-104 180h-60v-180h-154v180h-61l-112 -180h-174z" />
    <glyph glyph-name="uni04DF" unicode="&#x4df;" horiz-adv-x="469" 
d="M110 557c-59 0 -99 40 -99 99c0 60 40 100 99 100s99 -40 99 -100c0 -59 -40 -99 -99 -99zM360 557c-59 0 -99 40 -99 99c0 60 40 100 99 100s99 -40 99 -100c0 -59 -40 -99 -99 -99zM188 -7c-67 0 -122 12 -174 34l36 119c43 -14 99 -23 148 -23c56 0 85 11 85 33
s-38 35 -102 35h-72v109h70c57 0 89 14 89 38c0 21 -25 32 -75 32c-46 0 -92 -9 -141 -27l-35 113c62 28 133 44 199 44c132 0 217 -52 217 -134c0 -53 -35 -91 -91 -102c68 -12 107 -52 107 -110c0 -97 -104 -161 -261 -161z" />
    <glyph glyph-name="uni04E3" unicode="&#x4e3;" horiz-adv-x="590" 
d="M115 577v136h360v-136h-360zM54 0v490h156v-264l175 264h151v-490h-154v264l-180 -264h-148z" />
    <glyph glyph-name="uni04E5" unicode="&#x4e5;" horiz-adv-x="590" 
d="M170 557c-59 0 -99 40 -99 99c0 60 40 100 99 100s99 -40 99 -100c0 -59 -40 -99 -99 -99zM420 557c-59 0 -99 40 -99 99c0 60 40 100 99 100s99 -40 99 -100c0 -59 -40 -99 -99 -99zM54 0v490h156v-264l175 264h151v-490h-154v264l-180 -264h-148z" />
    <glyph glyph-name="uni04E7" unicode="&#x4e7;" horiz-adv-x="567" 
d="M159 557c-59 0 -99 40 -99 99c0 60 40 100 99 100s99 -40 99 -100c0 -59 -40 -99 -99 -99zM409 557c-59 0 -99 40 -99 99c0 60 40 100 99 100s99 -40 99 -100c0 -59 -40 -99 -99 -99zM275 -10c-157 0 -257 97 -257 245c0 159 110 265 275 265c156 0 256 -97 256 -246
c0 -158 -110 -264 -274 -264zM286 134c55 0 87 39 87 106c0 73 -34 116 -92 116c-55 0 -87 -41 -87 -110c0 -70 34 -112 92 -112z" />
    <glyph glyph-name="uni04E9" unicode="&#x4e9;" horiz-adv-x="567" 
d="M275 -10c-157 0 -257 97 -257 245c0 159 110 265 275 265c156 0 256 -97 256 -246c0 -158 -110 -264 -274 -264zM281 356c-39 0 -67 -21 -79 -58h162c-14 37 -43 58 -83 58zM286 134c40 0 67 20 80 57h-163c14 -36 42 -57 83 -57z" />
    <glyph glyph-name="uni04EF" unicode="&#x4ef;" horiz-adv-x="532" 
d="M86 577v136h360v-136h-360zM91 -217l89 217l-188 490h191l88 -327l97 327h172l-185 -490l-76 -217h-188z" />
    <glyph glyph-name="uni04F1" unicode="&#x4f1;" horiz-adv-x="532" 
d="M141 557c-59 0 -99 40 -99 99c0 60 40 100 99 100s99 -40 99 -100c0 -59 -40 -99 -99 -99zM391 557c-59 0 -99 40 -99 99c0 60 40 100 99 100s99 -40 99 -100c0 -59 -40 -99 -99 -99zM91 -217l89 217l-188 490h191l88 -327l97 327h172l-185 -490l-76 -217h-188z" />
    <glyph glyph-name="uni04F3" unicode="&#x4f3;" horiz-adv-x="532" 
d="M178 527l-92 52l85 197l142 -79zM396 527l-91 52l85 196l141 -78zM91 -217l89 217l-188 490h191l88 -327l97 327h172l-185 -490l-76 -217h-188z" />
    <glyph glyph-name="uni04F5" unicode="&#x4f5;" horiz-adv-x="558" 
d="M155 557c-59 0 -99 40 -99 99c0 60 40 100 99 100s99 -40 99 -100c0 -59 -40 -99 -99 -99zM405 557c-59 0 -99 40 -99 99c0 60 40 100 99 100s99 -40 99 -100c0 -59 -40 -99 -99 -99zM201 162c-110 0 -182 58 -182 153v175h165v-136c0 -25 36 -44 79 -44c22 0 50 5 73 13
v167h168v-490h-168v197c-39 -24 -86 -35 -135 -35z" />
    <glyph glyph-name="uni04F7" unicode="&#x4f7;" horiz-adv-x="451" 
d="M55 0v490h397v-134h-224v-228h102v-264h-148v136h-127z" />
    <glyph glyph-name="uni04F9" unicode="&#x4f9;" horiz-adv-x="767" 
d="M259 557c-59 0 -99 40 -99 99c0 60 40 100 99 100s99 -40 99 -100c0 -59 -40 -99 -99 -99zM509 557c-59 0 -99 40 -99 99c0 60 40 100 99 100s99 -40 99 -100c0 -59 -40 -99 -99 -99zM547 -3v493h166v-493h-166zM54 0v490h160v-146h85c116 0 195 -63 195 -157
c0 -117 -89 -187 -239 -187h-201zM214 126h61c31 0 50 18 50 47s-27 47 -62 47h-49v-94z" />
    <glyph glyph-name="uni051B" unicode="&#x51b;" horiz-adv-x="577" 
d="M230 -10c-124 0 -208 101 -208 252c0 155 92 258 228 258c60 0 107 -20 138 -58l20 48h115v-707h-166v257c-34 -32 -77 -50 -127 -50zM198 248c0 -72 32 -114 86 -114c31 0 56 11 73 31v153c-17 24 -43 38 -75 38c-53 0 -84 -40 -84 -108z" />
    <glyph glyph-name="uni051D" unicode="&#x51d;" horiz-adv-x="843" 
d="M172 0l-180 490h187l83 -314l83 312h163l84 -303l91 305h168l-178 -490h-172l-89 294l-79 -294h-161z" />
    <glyph glyph-name="pi" unicode="&#x3c0;" horiz-adv-x="695" 
d="M105 0v355h-91v135h635v-135h-102v-154c0 -44 18 -71 50 -71c12 0 27 4 45 9l29 -118c-41 -20 -76 -29 -116 -29c-115 0 -181 71 -181 190v173h-96v-355h-173z" />
    </font>
</defs>
</svg>
