<?xml version="1.0" standalone="no"?>
<!DOCTYPE svg PUBLIC "-//W3C//DTD SVG 1.1//EN" "http://www.w3.org/Graphics/SVG/1.1/DTD/svg11.dtd" >
<svg xmlns="http://www.w3.org/2000/svg" xmlns:xlink="http://www.w3.org/1999/xlink" version="1.1">
<metadata>
Created by FontForge 20201107 at Fri Dec 31 21:31:06 2021
 By Reinhart Previano Koentjoro
Copyright c 2009--2017 The Cantarell Authors
</metadata>
<defs>
<font id="Cantarell-ExtraBoldItalic" horiz-adv-x="7" >
  <font-face 
    font-family="Cantarell"
    font-weight="800"
    font-style="italic"
    font-stretch="normal"
    units-per-em="1000"
    panose-1="0 0 0 0 0 0 0 0 0 0"
    ascent="800"
    descent="-200"
    x-height="466"
    cap-height="694"
    bbox="-122 -258 1528.31 1228"
    underline-thickness="50"
    underline-position="-125"
    stemh="140"
    stemv="174"
    unicode-range="U+0020-FB02"
  />
<missing-glyph horiz-adv-x="463" 
d="M-5 -217l221 956h372l-221 -956h-372zM53 -167h279l198 856h-279z" />
    <glyph glyph-name="fi" unicode="fi" horiz-adv-x="581" 
d="M588 557c-52 0 -80 40 -66 99c14 60 59 100 111 100s79 -40 65 -100c-14 -59 -58 -99 -110 -99zM69 -12l79 342h-67l32 136h66l10 41c34 146 132 242 245 242c41 0 79 -12 101 -32l-58 -123c-10 7 -31 13 -52 13c-43 0 -74 -30 -86 -81l-14 -60h111l-31 -136h-111
l-76 -331c-30 -130 -127 -216 -240 -216c-41 0 -78 12 -100 32l57 122c10 -7 32 -12 53 -12c43 0 72 23 81 63zM381 -4l108 470h154l-108 -470h-154z" />
    <glyph glyph-name="fl" unicode="fl" horiz-adv-x="598" 
d="M70 -8l78 338h-67l32 136h66l10 41c34 146 132 242 245 242c41 0 79 -12 101 -32l-58 -126c-9 8 -31 16 -52 16c-43 0 -74 -30 -86 -81l-14 -60h111l-31 -136h-111l-75 -326c-31 -133 -128 -221 -241 -221c-41 0 -78 12 -100 32l57 123c9 -7 32 -13 53 -13
c43 0 72 25 82 67zM512 -8c-90 0 -129 56 -106 155l136 592h152l-132 -571c-7 -31 1 -47 23 -47c5 0 15 1 24 4l3 -114c-32 -12 -68 -19 -100 -19z" />
    <glyph glyph-name="f_f" unicode="ff" horiz-adv-x="658" 
d="M69 -12l79 342h-67l32 136h66l10 41c34 146 132 242 245 242c41 0 79 -12 101 -32l-58 -126c-9 8 -31 16 -52 16c-43 0 -74 -30 -86 -81l-14 -60h111l-31 -136h-111l-76 -331c-30 -130 -127 -216 -240 -216c-41 0 -78 12 -100 32l57 122c10 -7 32 -12 53 -12
c43 0 72 23 81 63zM402 -12l79 342h-66l31 136h67l9 41c34 146 132 242 245 242c41 0 79 -12 101 -32l-58 -126c-9 8 -31 16 -52 16c-43 0 -74 -30 -86 -81l-14 -60h112l-32 -136h-111l-76 -331c-30 -130 -126 -216 -239 -216c-41 0 -79 12 -101 32l57 122
c10 -7 32 -12 53 -12c43 0 72 23 81 63z" />
    <glyph glyph-name="f_f_i" unicode="ffi" horiz-adv-x="915" 
d="M921 557c-52 0 -79 40 -65 99c14 60 59 100 111 100s79 -40 65 -100c-14 -59 -59 -99 -111 -99zM69 -12l79 342h-67l32 136h66l10 41c34 146 132 242 245 242c41 0 79 -12 101 -32l-58 -123c-10 7 -31 13 -52 13c-43 0 -74 -30 -86 -81l-14 -60h111l-31 -136h-111
l-76 -331c-30 -130 -127 -216 -240 -216c-41 0 -78 12 -100 32l57 122c10 -7 32 -12 53 -12c43 0 72 23 81 63zM402 -12l79 342h-66l31 136h67l9 41c34 146 132 242 245 242c41 0 79 -12 101 -32l-58 -123c-9 7 -31 13 -52 13c-43 0 -74 -30 -86 -81l-14 -60h112l-32 -136
h-111l-76 -331c-30 -130 -126 -216 -239 -216c-41 0 -79 12 -101 32l57 122c10 -7 32 -12 53 -12c43 0 72 23 81 63zM714 -4l108 470h154l-108 -470h-154z" />
    <glyph glyph-name="f_f_l" unicode="ffl" horiz-adv-x="931" 
d="M70 -8l78 338h-67l32 136h66l10 41c34 146 132 242 245 242c41 0 79 -12 101 -32l-58 -126c-9 8 -31 16 -52 16c-43 0 -74 -30 -86 -81l-14 -60h111l-31 -136h-111l-75 -326c-31 -133 -128 -221 -241 -221c-41 0 -78 12 -100 32l57 123c9 -7 32 -13 53 -13
c43 0 72 25 82 67zM403 -8l78 338h-66l31 136h67l9 41c34 146 132 242 245 242c41 0 79 -12 101 -32l-58 -126c-9 8 -31 16 -52 16c-43 0 -74 -30 -86 -81l-14 -60h112l-32 -136h-111l-75 -326c-31 -133 -127 -221 -240 -221c-41 0 -79 12 -101 32l57 123
c10 -7 32 -13 53 -13c43 0 72 25 82 67zM845 -8c-90 0 -129 56 -106 155l137 592h151l-132 -571c-7 -31 1 -47 23 -47c5 0 15 1 24 4l3 -114c-32 -12 -68 -19 -100 -19z" />
    <glyph glyph-name=".notdef" horiz-adv-x="463" 
d="M-5 -217l221 956h372l-221 -956h-372zM53 -167h279l198 856h-279z" />
    <glyph glyph-name="space" unicode=" " horiz-adv-x="145" 
 />
    <glyph glyph-name="exclam" unicode="!" horiz-adv-x="241" 
d="M120 267l82 427h158l-116 -427h-124zM116 -10c-60 0 -88 46 -74 106c15 64 64 110 124 110s88 -46 73 -110c-14 -60 -63 -106 -123 -106z" />
    <glyph glyph-name="quotedbl" unicode="&#x22;" horiz-adv-x="462" 
d="M152 406l50 298h170l-88 -298h-132zM366 406l50 298h170l-89 -298h-131z" />
    <glyph glyph-name="numbersign" unicode="#" horiz-adv-x="639" 
d="M111 0l35 151h-91l29 125h91l33 145h-91l29 125h91l34 148h150l-34 -148h124l34 148h149l-35 -148h87l-29 -125h-86l-34 -145h87l-29 -125h-87l-35 -151h-148l34 151h-123l-35 -151h-150zM325 276h123l34 145h-124z" />
    <glyph glyph-name="dollar" unicode="$" horiz-adv-x="555" 
d="M173 -149l33 142c-62 7 -121 27 -166 52l77 142c57 -29 125 -41 184 -41c62 0 95 18 102 50c25 107 -308 40 -254 276c24 106 107 185 218 217l34 148h154l-31 -135c51 -6 99 -19 136 -39l-76 -138c-42 17 -97 27 -149 27c-63 0 -104 -19 -112 -54
c-24 -103 313 -26 254 -281c-25 -109 -100 -186 -214 -215l-35 -151h-155z" />
    <glyph glyph-name="percent" unicode="%" horiz-adv-x="949" 
d="M269 259c-111 0 -161 84 -130 220c32 139 125 225 238 225c111 0 162 -83 131 -218c-32 -140 -126 -227 -239 -227zM224 0l513 694h158l-529 -694h-142zM300 377c32 0 59 37 74 102c15 67 5 106 -28 106c-32 0 -59 -36 -74 -99c-16 -68 -6 -109 28 -109zM734 -6
c-111 0 -162 84 -131 220c32 139 125 225 238 225c111 0 162 -83 131 -218c-32 -140 -125 -227 -238 -227zM765 112c32 0 58 37 73 102c15 67 5 106 -28 106c-32 0 -58 -36 -73 -99c-16 -68 -6 -109 28 -109z" />
    <glyph glyph-name="ampersand" unicode="&#x26;" horiz-adv-x="641" 
d="M538 -10c-24 27 -48 52 -69 76c-72 -50 -146 -76 -220 -76c-136 0 -207 85 -178 210c23 100 92 154 167 192c-15 46 -17 85 -8 125c26 112 125 187 242 187c115 0 177 -70 154 -171c-24 -104 -117 -148 -208 -186c21 -31 47 -65 83 -104c28 32 56 71 85 115l91 -68
c-32 -49 -65 -92 -100 -129c21 -22 44 -45 68 -69zM373 511c-5 -21 -5 -42 -1 -64c56 22 100 44 109 81c6 26 -11 44 -42 44c-33 0 -57 -21 -66 -61zM227 208c-12 -50 19 -82 75 -82c31 0 62 9 93 27c-44 52 -78 96 -104 135c-33 -20 -56 -45 -64 -80z" />
    <glyph glyph-name="quotesingle" unicode="'" horiz-adv-x="248" 
d="M152 406l50 298h170l-88 -298h-132z" />
    <glyph glyph-name="parenleft" unicode="(" horiz-adv-x="287" 
d="M120 -205c-62 112 -76 295 -36 470c41 179 144 370 261 484l96 -61c-90 -114 -166 -264 -200 -413c-36 -154 -35 -314 1 -415z" />
    <glyph glyph-name="parenright" unicode=")" horiz-adv-x="285" 
d="M72 -205l-93 65c83 101 157 261 193 415c34 149 27 299 -10 413l124 61c64 -114 79 -305 38 -484c-40 -175 -138 -358 -252 -470z" />
    <glyph glyph-name="asterisk" unicode="*" horiz-adv-x="432" 
d="M209 272l66 147l-129 -96l-32 118l146 46l-124 48l88 116l83 -95l1 148h139l-67 -152l132 91l33 -117l-146 -41l121 -48l-88 -117l-81 96l-4 -144h-138z" />
    <glyph glyph-name="plus" unicode="+" horiz-adv-x="562" 
d="M221 59l45 192h-175l35 155h175l44 187h148l-43 -187h173l-36 -155h-173l-44 -192h-149z" />
    <glyph glyph-name="comma" unicode="," horiz-adv-x="260" 
d="M-24 -178c44 84 83 193 106 291h160c-17 -72 -69 -180 -142 -291h-124z" />
    <glyph glyph-name="hyphen" unicode="-" horiz-adv-x="367" 
d="M93 189l32 140h270l-33 -140h-269z" />
    <glyph glyph-name="period" unicode="." horiz-adv-x="260" 
d="M128 -10c-60 0 -88 46 -74 106c15 64 64 110 124 110s88 -46 73 -110c-14 -60 -63 -106 -123 -106z" />
    <glyph glyph-name="slash" unicode="/" horiz-adv-x="338" 
d="M-36 -115l398 854h158l-409 -854h-147z" />
    <glyph glyph-name="zero" unicode="0" horiz-adv-x="594" 
d="M293 -10c-162 0 -238 142 -189 354c50 216 193 360 358 360c161 0 238 -141 189 -353c-50 -217 -194 -361 -358 -361zM331 138c62 0 124 82 152 205c30 128 5 213 -59 213c-63 0 -124 -82 -153 -206c-29 -127 -6 -212 60 -212z" />
    <glyph glyph-name="one" unicode="1" horiz-adv-x="457" 
d="M41 0l34 148h125l78 338l-110 -54l-31 124l254 138h95l-126 -546h125l-34 -148h-410z" />
    <glyph glyph-name="two" unicode="2" horiz-adv-x="514" 
d="M35 0l28 122c203 150 330 254 350 340c12 54 -20 91 -84 91c-46 0 -102 -20 -163 -59l-12 127c75 55 158 83 242 83c146 0 221 -85 191 -215c-25 -110 -119 -222 -283 -339h221l-34 -150h-456z" />
    <glyph glyph-name="three" unicode="3" horiz-adv-x="523" 
d="M217 -10c-76 0 -132 15 -193 50l68 135c48 -24 109 -37 166 -37c73 0 119 21 128 62c12 53 -45 85 -153 85h-26l30 130h26c86 0 143 29 154 77c9 40 -22 64 -80 64c-46 0 -99 -15 -163 -42l-6 129c80 41 161 61 237 61c143 0 213 -70 186 -186
c-18 -78 -71 -134 -139 -152c81 -18 120 -84 100 -172c-28 -123 -161 -204 -335 -204z" />
    <glyph glyph-name="four" unicode="4" horiz-adv-x="578" 
d="M298 -5l30 129h-296l21 91l411 479h153l-98 -424h113l-33 -146h-114l-30 -129h-157zM227 272l135 -1l53 230z" />
    <glyph glyph-name="five" unicode="5" horiz-adv-x="525" 
d="M223 -10c-76 0 -143 18 -197 52l75 136c41 -24 100 -38 156 -38c73 0 118 25 129 72c13 56 -35 89 -132 89c-38 0 -90 -6 -132 -14l110 407h398l-34 -151h-241l-30 -109c10 1 23 2 37 2c156 0 226 -74 196 -206c-35 -150 -165 -240 -335 -240z" />
    <glyph glyph-name="six" unicode="6" horiz-adv-x="555" 
d="M282 -10c-164 0 -230 117 -179 340c55 239 194 374 400 374c70 0 128 -15 171 -41l-70 -129c-34 18 -85 30 -127 30c-98 0 -167 -65 -204 -186c50 45 108 68 169 68c115 0 173 -84 143 -214c-33 -145 -154 -242 -303 -242zM360 309c-35 0 -76 -18 -109 -48
c-5 -82 20 -128 75 -128c48 0 88 34 100 86c12 54 -14 90 -66 90z" />
    <glyph glyph-name="seven" unicode="7" horiz-adv-x="493" 
d="M60 0l367 544h-293l34 150h479l-24 -104l-393 -590h-170z" />
    <glyph glyph-name="eight" unicode="8" horiz-adv-x="559" 
d="M274 -10c-151 0 -236 78 -209 193c16 70 67 125 140 155c-42 31 -69 77 -51 155c29 126 146 211 295 211c136 0 215 -70 191 -175c-15 -64 -64 -119 -138 -155c60 -30 106 -77 84 -171c-29 -127 -154 -213 -312 -213zM313 502c-9 -41 23 -63 71 -81c46 8 83 37 92 76
c10 42 -17 69 -67 69s-87 -27 -96 -64zM229 215c-12 -53 22 -87 87 -87c60 0 102 27 111 65c12 52 -50 71 -119 96c-43 -11 -70 -36 -79 -74z" />
    <glyph glyph-name="nine" unicode="9" horiz-adv-x="556" 
d="M436 704c164 0 230 -117 179 -340c-55 -239 -194 -374 -400 -374c-70 0 -128 15 -171 41l70 129c34 -18 85 -30 127 -30c98 0 167 65 204 186c-50 -45 -108 -68 -169 -68c-115 0 -173 84 -143 214c33 145 154 242 303 242zM292 475c-12 -54 14 -90 66 -90
c35 0 76 18 109 48c5 82 -20 128 -75 128c-48 0 -88 -34 -100 -86z" />
    <glyph glyph-name="colon" unicode=":" horiz-adv-x="260" 
d="M194 274c-60 0 -88 46 -74 106c15 64 64 110 124 110s88 -46 73 -110c-14 -60 -63 -106 -123 -106zM128 -10c-60 0 -88 46 -74 106c15 64 64 110 124 110s88 -46 73 -110c-14 -60 -63 -106 -123 -106z" />
    <glyph glyph-name="semicolon" unicode=";" horiz-adv-x="261" 
d="M188 274c-60 0 -89 46 -75 106c15 64 64 110 124 110s89 -46 74 -110c-14 -60 -63 -106 -123 -106zM-27 -178c44 84 83 193 106 291h160c-17 -72 -70 -180 -143 -291h-123z" />
    <glyph glyph-name="less" unicode="&#x3c;" horiz-adv-x="527" 
d="M619 640l-41 -176l-284 -93l240 -99l-43 -185l-402 212l33 142z" />
    <glyph glyph-name="equal" unicode="=" horiz-adv-x="616" 
d="M158 371l35 150h471l-35 -150h-471zM103 131l35 150h470l-34 -150h-471z" />
    <glyph glyph-name="greater" unicode="&#x3e;" horiz-adv-x="527" 
d="M72 71l38 166l285 95l-237 113l41 175l392 -220l-31 -134z" />
    <glyph glyph-name="question" unicode="?" horiz-adv-x="410" 
d="M190 267l6 27c22 94 147 137 163 206c8 35 -21 54 -82 54c-41 0 -83 -8 -126 -26l-7 131c66 28 139 45 208 45c141 0 207 -65 181 -178c-34 -146 -161 -175 -174 -232l-6 -27h-163zM213 -10c-58 0 -88 44 -74 106c15 65 65 110 124 110s88 -45 73 -110
c-14 -62 -65 -106 -123 -106z" />
    <glyph glyph-name="at" unicode="@" horiz-adv-x="895" 
d="M412 37c-106 0 -157 82 -129 205c32 140 147 244 267 244c45 0 76 -15 92 -42l17 30h115l-85 -283h1c-8 -34 3 -59 24 -59c33 0 68 57 87 140c43 187 -41 308 -211 308c-179 0 -328 -134 -372 -325c-43 -187 41 -311 209 -311c55 0 113 13 164 38l9 -107
c-72 -34 -143 -50 -215 -50c-232 0 -355 167 -295 426c63 271 279 453 537 453c241 0 364 -163 308 -404c-39 -168 -141 -278 -258 -278c-57 0 -99 26 -118 69c-46 -35 -98 -54 -147 -54zM442 256c-14 -60 0 -99 39 -99c20 0 49 13 72 38l29 101c3 41 -18 70 -50 70
c-38 0 -75 -46 -90 -110z" />
    <glyph glyph-name="A" unicode="A" horiz-adv-x="658" 
d="M1 0l390 694h205l61 -694h-178l-9 143h-225l-72 -143h-172zM325 299h136l-13 242z" />
    <glyph glyph-name="B" unicode="B" horiz-adv-x="604" 
d="M61 0l160 694h231c159 0 229 -56 204 -163c-12 -51 -44 -96 -88 -126c66 -30 93 -92 73 -178c-31 -136 -160 -227 -323 -227h-257zM348 558l-31 -134h117c27 17 44 39 50 64c10 42 -19 70 -73 70h-63zM250 136h120c54 0 88 25 99 74c12 50 -14 82 -72 82h-111z" />
    <glyph glyph-name="C" unicode="C" horiz-adv-x="579" 
d="M353 -10c-197 0 -300 141 -251 352c50 218 229 362 437 362c65 0 122 -14 178 -43l-76 -136c-32 16 -89 26 -140 26c-118 0 -199 -65 -228 -192c-31 -135 25 -217 155 -217c41 0 90 8 130 22l7 -125c-56 -29 -141 -49 -212 -49z" />
    <glyph glyph-name="D" unicode="D" horiz-adv-x="680" 
d="M61 0l160 694h242c223 0 326 -124 278 -333c-50 -218 -229 -361 -450 -361h-230zM253 149h91c117 0 196 68 225 192c30 128 -26 204 -150 204h-74z" />
    <glyph glyph-name="E" unicode="E" horiz-adv-x="565" 
d="M61 0l160 694h463l-35 -152h-302l-26 -114h276l-35 -152h-276l-29 -124h302l-35 -152h-463z" />
    <glyph glyph-name="F" unicode="F" horiz-adv-x="540" 
d="M61 0l160 694h461l-36 -152h-296l-31 -133h263l-35 -152h-263l-59 -257h-164z" />
    <glyph glyph-name="G" unicode="G" horiz-adv-x="660" 
d="M359 -10c-203 0 -306 140 -258 349c50 217 230 365 459 365c73 0 144 -16 192 -44l-76 -136c-39 16 -101 27 -156 27c-131 0 -216 -69 -246 -198c-30 -132 23 -213 139 -213c36 0 69 7 94 20l24 105h-136l33 146h290l-74 -322c-88 -66 -183 -99 -285 -99z" />
    <glyph glyph-name="H" unicode="H" horiz-adv-x="699" 
d="M61 0l160 694h164l-61 -264h250l61 264h164l-161 -694h-163l63 274h-250l-63 -274h-164z" />
    <glyph glyph-name="I" unicode="I" horiz-adv-x="285" 
d="M61 0l160 694h164l-160 -694h-164z" />
    <glyph glyph-name="J" unicode="J" horiz-adv-x="421" 
d="M145 -10c-53 0 -100 12 -135 36l77 136c22 -11 52 -19 78 -19c51 0 84 30 98 90l106 461h162l-104 -451c-37 -160 -140 -253 -282 -253z" />
    <glyph glyph-name="K" unicode="K" horiz-adv-x="636" 
d="M62 0l160 694h166l-73 -313l284 313h194l-295 -320l150 -374h-216l-125 343l-80 -343h-165z" />
    <glyph glyph-name="L" unicode="L" horiz-adv-x="497" 
d="M61 0l160 694h161l-125 -541h267l-35 -153h-428z" />
    <glyph glyph-name="M" unicode="M" horiz-adv-x="826" 
d="M61 0l160 694h156l110 -405l286 405h153l-160 -694h-156l94 408l-206 -301h-122l-69 283l-90 -390h-156z" />
    <glyph glyph-name="N" unicode="N" horiz-adv-x="722" 
d="M61 0l160 694h184l156 -452l107 452h154l-160 -694h-181l-162 456l-106 -456h-152z" />
    <glyph glyph-name="O" unicode="O" horiz-adv-x="705" 
d="M344 -10c-193 0 -291 140 -242 351c50 218 217 363 417 363c195 0 293 -141 244 -353c-50 -217 -217 -361 -419 -361zM389 140c95 0 176 80 204 201c30 128 -18 213 -119 213c-93 0 -174 -81 -202 -203c-29 -127 17 -211 117 -211z" />
    <glyph glyph-name="P" unicode="P" horiz-adv-x="580" 
d="M61 0l160 694h241c165 0 243 -86 210 -231c-36 -156 -175 -259 -350 -259h-53l-47 -204h-161zM414 542h-67l-43 -186h82c58 0 102 34 115 90c13 58 -22 96 -87 96z" />
    <glyph glyph-name="Q" unicode="Q" horiz-adv-x="706" 
d="M344 -10c-193 0 -291 140 -242 351c50 218 217 363 417 363c195 0 293 -141 244 -353c-21 -91 -62 -169 -118 -229l63 -84l-124 -101l-67 91c-53 -25 -112 -38 -173 -38zM389 140c14 0 28 2 42 5l-75 100l121 103l79 -107c17 28 30 62 39 100c31 134 -14 213 -121 213
c-99 0 -174 -75 -204 -203c-31 -133 14 -211 119 -211z" />
    <glyph glyph-name="R" unicode="R" horiz-adv-x="615" 
d="M61 0l160 694h266c152 0 224 -76 193 -210c-22 -94 -83 -169 -165 -211l97 -273h-193l-71 237h-71l-55 -237h-161zM430 543h-83l-36 -159h105c47 0 80 29 91 76c12 52 -17 83 -77 83z" />
    <glyph glyph-name="S" unicode="S" horiz-adv-x="542" 
d="M252 -10c-80 0 -160 23 -219 55l78 142c57 -29 125 -41 184 -41c62 0 94 18 101 50c25 107 -307 40 -253 276c32 140 165 232 329 232c66 0 134 -15 182 -41l-77 -138c-42 17 -97 27 -149 27c-63 0 -104 -19 -112 -54c-24 -103 313 -26 254 -281
c-32 -139 -147 -227 -318 -227z" />
    <glyph glyph-name="T" unicode="T" horiz-adv-x="576" 
d="M208 0l125 542h-199l35 152h558l-35 -152h-201l-125 -542h-158z" />
    <glyph glyph-name="U" unicode="U" horiz-adv-x="657" 
d="M319 -10c-171 0 -249 108 -208 287l97 417h160l-94 -407c-21 -92 15 -147 98 -147c71 0 124 47 142 127l98 427h159l-94 -407c-42 -180 -182 -297 -358 -297z" />
    <glyph glyph-name="V" unicode="V" horiz-adv-x="625" 
d="M226 0l-68 694h188l21 -488l255 488h166l-390 -694h-172z" />
    <glyph glyph-name="W" unicode="W" horiz-adv-x="954" 
d="M197 0l-37 694h182l-2 -478l209 474h176l3 -465l224 469h162l-359 -694h-172l-10 444l-199 -444h-177z" />
    <glyph glyph-name="X" unicode="X" horiz-adv-x="625" 
d="M-5 0l311 362l-135 332h190l64 -189l152 189h189l-289 -327l155 -367h-195l-79 228l-176 -228h-187z" />
    <glyph glyph-name="Y" unicode="Y" horiz-adv-x="608" 
d="M228 0l58 251l-144 443h190l75 -292l198 292h181l-340 -447l-57 -247h-161z" />
    <glyph glyph-name="Z" unicode="Z" horiz-adv-x="603" 
d="M20 0l26 111l430 431h-314l35 152h539l-23 -103l-439 -439h342l-35 -152h-561z" />
    <glyph glyph-name="bracketleft" unicode="[" horiz-adv-x="352" 
d="M17 -180l212 919h281l-31 -134h-135l-150 -651h134l-30 -134h-281z" />
    <glyph glyph-name="backslash" unicode="\" horiz-adv-x="338" 
d="M321 -115h-146l-14 854h157z" />
    <glyph glyph-name="bracketright" unicode="]" horiz-adv-x="360" 
d="M253 -180h-281l31 134h135l150 651h-135l31 134h281z" />
    <glyph glyph-name="asciicircum" unicode="^" horiz-adv-x="600" 
d="M183 176l-111 59l326 460h122l121 -448l-170 -72l-73 295z" />
    <glyph glyph-name="underscore" unicode="_" horiz-adv-x="516" 
d="M15 -148l34 148h419l-35 -148h-418z" />
    <glyph glyph-name="grave" unicode="`" horiz-adv-x="266" 
d="M299 532l-118 144l140 102l69 -179z" />
    <glyph glyph-name="a" unicode="a" horiz-adv-x="466" 
d="M168 -10c-93 0 -139 56 -119 141c23 99 115 146 295 151c7 36 -24 56 -83 56c-38 0 -80 -8 -128 -23l-10 113c62 30 136 48 203 48c141 0 195 -76 163 -217l-60 -259h-111l-4 52c-42 -41 -91 -62 -146 -62zM210 156c-5 -22 12 -37 42 -37c21 0 41 6 59 19l13 58
c-77 -3 -108 -14 -114 -40z" />
    <glyph glyph-name="b" unicode="b" horiz-adv-x="507" 
d="M47 0l170 739h148l-71 -309c36 30 76 46 120 46c108 0 161 -95 128 -239c-34 -148 -137 -247 -256 -247c-54 0 -90 22 -108 64l-37 -54h-94zM326 332c-21 0 -42 -6 -60 -23l-33 -144c11 -20 31 -31 57 -31c46 0 80 35 94 97c15 65 -6 101 -58 101z" />
    <glyph glyph-name="c" unicode="c" horiz-adv-x="400" 
d="M245 -10c-145 0 -212 86 -178 234c36 154 152 252 300 252c45 0 91 -11 122 -28l-61 -132c-24 9 -56 16 -84 16c-63 0 -104 -35 -118 -97c-16 -69 15 -107 84 -107c24 0 51 4 78 15l6 -115c-50 -26 -97 -38 -149 -38z" />
    <glyph glyph-name="d" unicode="d" horiz-adv-x="507" 
d="M197 -10c-105 0 -159 94 -126 239c34 149 137 247 257 247c37 0 65 -11 85 -32l68 295h148l-171 -739h-94l-14 68c-43 -49 -97 -78 -153 -78zM229 235c-15 -64 4 -101 50 -101c26 0 51 10 70 30l31 136c-11 20 -31 32 -57 32c-45 0 -80 -37 -94 -97z" />
    <glyph glyph-name="e" unicode="e" horiz-adv-x="457" 
d="M261 -10c-154 0 -227 92 -192 242c34 147 146 244 280 244c121 0 174 -81 142 -218c-6 -25 -14 -49 -23 -73h-257c4 -46 38 -67 102 -67c35 0 70 6 108 18l8 -114c-59 -21 -116 -32 -168 -32zM306 348c-34 0 -60 -21 -77 -63h123c9 40 -7 63 -46 63z" />
    <glyph glyph-name="f" unicode="f" horiz-adv-x="325" 
d="M69 -12l79 342h-67l32 136h66l10 41c34 146 132 242 245 242c41 0 79 -12 101 -32l-58 -126c-9 8 -31 16 -52 16c-43 0 -74 -30 -86 -81l-14 -60h111l-31 -136h-111l-76 -331c-30 -130 -127 -216 -240 -216c-41 0 -78 12 -100 32l57 122c10 -7 32 -12 53 -12
c43 0 72 23 81 63z" />
    <glyph glyph-name="g" unicode="g" horiz-adv-x="509" 
d="M197 -10c-104 0 -158 93 -125 238c35 149 138 248 256 248c51 0 86 -20 105 -56l25 46h110l-109 -472c-31 -135 -152 -226 -300 -226c-53 0 -97 12 -140 37l58 128c32 -17 71 -27 106 -27c67 0 114 35 128 96l9 38c-37 -32 -79 -50 -123 -50zM230 235
c-15 -64 4 -101 49 -101c27 0 51 10 69 27l32 137c-10 22 -30 34 -57 34c-44 0 -79 -37 -93 -97z" />
    <glyph glyph-name="h" unicode="h" horiz-adv-x="511" 
d="M47 0l170 739h152l-74 -319c40 35 83 52 128 52c98 0 140 -72 112 -193l-64 -279h-154l57 246c12 51 -1 76 -44 76c-22 0 -42 -7 -64 -27l-68 -295h-151z" />
    <glyph glyph-name="i" unicode="i" horiz-adv-x="256" 
d="M256 557c-52 0 -80 40 -66 99c14 60 60 100 112 100s79 -40 65 -100c-14 -59 -59 -99 -111 -99zM50 0l113 490h154l-113 -490h-154z" />
    <glyph glyph-name="j" unicode="j" horiz-adv-x="252" 
d="M255 557c-53 0 -79 40 -65 99c14 60 58 100 111 100s79 -40 65 -100c-14 -59 -58 -99 -111 -99zM-33 -232l-21 94c54 38 94 99 109 164l107 464h154l-107 -464c-26 -114 -123 -217 -242 -258z" />
    <glyph glyph-name="k" unicode="k" horiz-adv-x="489" 
d="M47 0l170 739h152l-108 -468l173 219h170l-184 -219l85 -271h-188l-63 241l-56 -241h-151z" />
    <glyph glyph-name="l" unicode="l" horiz-adv-x="272" 
d="M180 -8c-90 0 -129 56 -106 155l136 592h152l-132 -571c-7 -31 1 -47 23 -47c5 0 15 1 24 4l3 -114c-32 -12 -68 -19 -100 -19z" />
    <glyph glyph-name="m" unicode="m" horiz-adv-x="793" 
d="M47 0l107 466h111l9 -60c46 42 100 66 153 66c59 0 97 -27 113 -76c46 47 103 76 164 76c98 0 141 -74 114 -193l-64 -279h-154l57 246c9 39 6 76 -45 76c-23 0 -46 -8 -67 -22c-1 -8 -3 -18 -5 -27l-63 -273h-153l57 246c8 34 9 76 -46 76c-21 0 -44 -7 -65 -21
l-69 -301h-154z" />
    <glyph glyph-name="n" unicode="n" horiz-adv-x="513" 
d="M47 0l107 466h111l10 -64c45 45 99 70 153 70c97 0 137 -75 108 -202l-63 -270h-153l56 246c12 51 0 76 -40 76c-23 0 -45 -9 -67 -25l-68 -297h-154z" />
    <glyph glyph-name="o" unicode="o" horiz-adv-x="498" 
d="M239 -10c-138 0 -205 92 -172 233c35 151 155 253 300 253c137 0 204 -93 171 -235c-35 -150 -155 -251 -299 -251zM282 134c47 0 82 34 96 94c15 65 -5 104 -55 104c-47 0 -83 -37 -97 -98c-14 -62 6 -100 56 -100z" />
    <glyph glyph-name="p" unicode="p" horiz-adv-x="505" 
d="M-3 -217l157 683h103l8 -58c41 43 89 68 141 68c110 0 167 -100 135 -238c-33 -143 -142 -248 -255 -248c-37 0 -66 12 -87 35l-56 -242h-146zM328 332c-23 0 -46 -9 -64 -25l-33 -145c11 -18 31 -28 55 -28c47 0 83 36 97 96c15 64 -7 102 -55 102z" />
    <glyph glyph-name="q" unicode="q" horiz-adv-x="508" 
d="M198 -10c-108 0 -159 96 -126 240c34 148 137 246 256 246c53 0 90 -20 108 -58l29 48h102l-158 -683h-147l59 257c-37 -32 -79 -50 -123 -50zM230 235c-15 -64 4 -101 50 -101c27 0 50 10 69 28l31 136c-10 21 -29 34 -56 34c-45 0 -80 -37 -94 -97z" />
    <glyph glyph-name="r" unicode="r" horiz-adv-x="380" 
d="M48 0l107 466h120l-4 -76c43 51 96 80 146 80c26 0 53 -8 70 -22l-67 -147c-16 10 -40 17 -62 17c-32 0 -65 -15 -93 -41l-63 -277h-154z" />
    <glyph glyph-name="s" unicode="s" horiz-adv-x="409" 
d="M190 -10c-61 0 -121 14 -164 37l59 120c40 -16 91 -27 128 -27s62 12 66 30c13 56 -220 -6 -179 171c23 100 106 155 236 155c50 0 103 -9 141 -24l-56 -124c-39 11 -80 18 -113 18c-41 0 -63 -10 -67 -26c-12 -52 224 1 184 -174c-23 -99 -108 -156 -235 -156z" />
    <glyph glyph-name="t" unicode="t" horiz-adv-x="345" 
d="M236 -8c-111 0 -159 64 -134 172l39 166h-60l31 136h60l38 165h151l-38 -165h97l-32 -136h-96l-36 -155c-7 -32 9 -52 45 -52c11 0 24 2 36 6v-121c-37 -11 -71 -16 -101 -16z" />
    <glyph glyph-name="u" unicode="u" horiz-adv-x="509" 
d="M299 466l-56 -247c-8 -33 -11 -75 38 -75c22 0 44 9 63 23l69 299h154l-107 -466h-111l-10 64c-45 -45 -99 -70 -152 -70c-91 0 -134 71 -108 183l67 289h153z" />
    <glyph glyph-name="v" unicode="v" horiz-adv-x="455" 
d="M154 0l-53 466h162l4 -310l156 310h149l-270 -466h-148z" />
    <glyph glyph-name="w" unicode="w" horiz-adv-x="719" 
d="M147 0l-46 466h159l3 -299l139 297h139l6 -288l144 290h144l-260 -466h-147l-11 279l-132 -279h-138z" />
    <glyph glyph-name="x" unicode="x" horiz-adv-x="446" 
d="M-4 0l206 229l-101 237h170l36 -115l94 115h164l-216 -231l96 -235h-169l-35 110l-90 -110h-155z" />
    <glyph glyph-name="y" unicode="y" horiz-adv-x="453" 
d="M28 -217l124 209l-51 474h163l2 -316l156 316h147l-267 -474l-114 -209h-160z" />
    <glyph glyph-name="z" unicode="z" horiz-adv-x="421" 
d="M24 0l24 103l226 221h-175l33 142h364l-24 -104l-226 -221h186l-32 -141h-376z" />
    <glyph glyph-name="braceleft" unicode="{" horiz-adv-x="387" 
d="M331 -183c-154 0 -231 72 -203 192l25 111c14 61 -23 121 -94 151l11 47c66 21 146 74 158 126l24 102c29 126 139 203 294 203l-33 -141c-64 0 -105 -33 -119 -93l-14 -61c-15 -67 -72 -130 -141 -159v-1c58 -18 84 -84 66 -164l-18 -80c-14 -59 13 -92 76 -92z" />
    <glyph glyph-name="bar" unicode="|" horiz-adv-x="299" 
d="M36 -161l208 904h154l-209 -904h-153z" />
    <glyph glyph-name="braceright" unicode="}" horiz-adv-x="382" 
d="M187 749c154 0 232 -72 204 -192l-26 -111c-14 -61 23 -121 94 -151l-11 -47c-66 -21 -146 -74 -158 -126l-23 -102c-29 -126 -140 -203 -295 -203l33 141c64 0 105 33 119 93l14 61c15 67 72 130 141 159v1c-58 18 -84 84 -66 164l18 80c14 59 -13 92 -76 92z" />
    <glyph glyph-name="asciitilde" unicode="~" horiz-adv-x="583" 
d="M173 219l-76 42c55 103 139 175 215 175c74 0 85 -66 149 -66c33 0 67 21 92 57l84 -43c-58 -105 -154 -176 -230 -176c-74 0 -95 66 -151 66c-29 0 -59 -21 -83 -55z" />
    <glyph glyph-name="uni00A0" unicode="&#xa0;" horiz-adv-x="145" 
 />
    <glyph glyph-name="exclamdown" unicode="&#xa1;" horiz-adv-x="243" 
d="M226 490c60 0 88 -46 74 -106c-15 -64 -64 -110 -124 -110s-88 46 -73 110c14 60 63 106 123 106zM102 213h124l-81 -427h-158z" />
    <glyph glyph-name="cent" unicode="&#xa2;" horiz-adv-x="460" 
d="M153 -149l35 151c-93 30 -131 112 -103 234s106 209 209 246l36 158h155l-33 -143c32 -4 60 -13 83 -24l-63 -134c-26 10 -61 17 -92 17c-69 0 -112 -39 -128 -108c-18 -77 15 -120 90 -120c26 0 55 5 85 17l8 -117c-33 -16 -62 -26 -94 -32l-34 -145h-154z" />
    <glyph glyph-name="sterling" unicode="&#xa3;" horiz-adv-x="570" 
d="M47 0l36 156c44 14 80 61 100 136h-70l28 121h69l8 38c33 152 173 253 341 253c50 0 93 -9 128 -27l-68 -141c-29 11 -68 18 -101 18c-73 0 -122 -37 -135 -93l-12 -48h162l-28 -121h-163c-23 -80 -51 -120 -94 -136h316l-36 -156h-481z" />
    <glyph glyph-name="currency" unicode="&#xa4;" horiz-adv-x="652" 
d="M123 21l-61 88l98 84c-12 38 -12 85 0 137c12 53 34 100 63 139l-69 97l113 96l68 -98c41 20 87 31 134 31c44 0 82 -10 111 -28l105 91l68 -96l-104 -89c9 -36 9 -80 -2 -129c-13 -55 -35 -104 -66 -144l69 -94l-111 -96l-68 97c-40 -20 -86 -31 -133 -31
c-46 0 -84 11 -114 30zM385 246c47 0 88 35 100 87c13 55 -13 92 -64 92c-47 0 -87 -34 -99 -86c-13 -56 12 -93 63 -93z" />
    <glyph glyph-name="yen" unicode="&#xa5;" horiz-adv-x="676" 
d="M101 67l27 120h176l17 71h-176l28 120h127l-125 316h190l81 -264l192 264h180l-260 -316h127l-28 -120h-176l-16 -71h176l-28 -120h-176l-15 -67h-161l15 67h-175z" />
    <glyph glyph-name="brokenbar" unicode="&#xa6;" horiz-adv-x="303" 
d="M168 412l76 331h158l-76 -331h-158zM36 -161l79 342h158l-79 -342h-158z" />
    <glyph glyph-name="section" unicode="&#xa7;" horiz-adv-x="499" 
d="M219 -61c-64 0 -133 14 -178 38l64 129c44 -21 99 -33 145 -33c41 0 66 11 71 31c15 66 -241 14 -200 190c11 47 38 85 79 112c-26 22 -40 57 -26 117c26 113 125 181 267 181c51 0 102 -10 148 -28l-64 -129c-40 14 -85 23 -124 23c-35 0 -62 -12 -66 -30
c-13 -57 240 -18 200 -190c-11 -47 -40 -85 -82 -110c27 -24 42 -61 27 -125c-26 -114 -117 -176 -261 -176zM285 325c-6 -26 21 -34 56 -42c15 8 26 21 29 36c6 26 -19 36 -52 44c-17 -8 -29 -22 -33 -38z" />
    <glyph glyph-name="dieresis" unicode="&#xa8;" horiz-adv-x="498" 
d="M255 557c-55 0 -83 40 -69 99c14 60 60 100 115 100s83 -40 69 -100c-14 -59 -60 -99 -115 -99zM488 557c-55 0 -83 40 -69 99c14 60 60 100 115 100s83 -40 69 -100c-14 -59 -60 -99 -115 -99z" />
    <glyph glyph-name="copyright" unicode="&#xa9;" horiz-adv-x="750" 
d="M369 -10c-202 0 -304 140 -256 350c50 218 222 364 428 364c203 0 305 -142 256 -354c-50 -216 -221 -360 -428 -360zM398 81c151 0 275 104 311 260c38 163 -41 272 -196 272c-151 0 -276 -105 -312 -263c-37 -161 42 -269 197 -269zM419 134c-124 0 -187 84 -158 211
c30 132 140 218 275 218c39 0 74 -7 102 -22l-71 -134c-16 9 -43 15 -64 15c-42 0 -73 -26 -83 -68c-11 -48 16 -79 67 -79c16 0 36 3 52 8l5 -125c-35 -14 -84 -24 -125 -24z" />
    <glyph glyph-name="ordfeminine" unicode="&#xaa;" horiz-adv-x="369" 
d="M225 369c-74 0 -110 44 -95 111c18 79 90 115 235 118c7 35 -16 53 -65 53c-27 0 -61 -5 -104 -21l-7 84c47 23 105 36 157 36c110 0 152 -58 127 -165l-48 -209h-81l-5 35c-32 -27 -71 -42 -114 -42zM247 497c-5 -21 12 -35 38 -35c19 0 37 7 53 18l12 53
c-69 -2 -97 -12 -103 -36z" />
    <glyph glyph-name="guillemotleft" unicode="&#xab;" horiz-adv-x="545" 
d="M146 27l-84 215l186 211h147l-174 -208l82 -218h-157zM389 27l-83 215l185 211h147l-173 -208l81 -218h-157z" />
    <glyph glyph-name="logicalnot" unicode="&#xac;" horiz-adv-x="614" 
d="M111 284l31 135h497l-31 -135h-1l-33 -142h-156l33 142h-340z" />
    <glyph glyph-name="uni00AD" unicode="&#xad;" horiz-adv-x="367" 
d="M85 189l33 140h270l-33 -140h-270z" />
    <glyph glyph-name="registered" unicode="&#xae;" horiz-adv-x="553" 
d="M336 266c-140 0 -212 97 -178 244c35 151 154 252 297 252c140 0 211 -99 177 -247c-35 -150 -153 -249 -296 -249zM264 380l64 278h114c57 0 88 -33 75 -88c-8 -34 -30 -63 -58 -80l33 -104c36 30 61 73 73 124c25 110 -28 182 -131 182c-100 0 -185 -70 -209 -176
c-25 -108 30 -180 133 -180c47 0 92 16 127 44h-81l-27 91h-15l-21 -91h-77zM419 586h-31l-10 -46h36c10 0 20 10 23 23c3 14 -4 23 -18 23z" />
    <glyph glyph-name="macron" unicode="&#xaf;" horiz-adv-x="441" 
d="M184 577l32 136h334l-31 -136h-335z" />
    <glyph glyph-name="degree" unicode="&#xb0;" horiz-adv-x="396" 
d="M288 399c-89 0 -134 63 -112 158c22 97 99 162 191 162c88 0 133 -63 111 -158c-22 -97 -98 -162 -190 -162zM318 507c29 0 52 20 59 50c8 33 -8 55 -40 55c-30 0 -53 -20 -60 -51c-7 -32 8 -54 41 -54z" />
    <glyph glyph-name="plusminus" unicode="&#xb1;" horiz-adv-x="553" 
d="M255 199l35 151h-164l33 140h163l38 164h130l-37 -164h168l-32 -140h-169l-35 -151h-130zM54 36l30 130h462l-30 -130h-462z" />
    <glyph glyph-name="uni00B2" unicode="&#xb2;" horiz-adv-x="406" 
d="M118 370l24 107c127 73 228 148 240 200c7 32 -21 48 -58 48c-33 0 -74 -13 -119 -38l-10 110c58 39 122 59 187 59c113 0 172 -61 151 -153c-17 -72 -79 -147 -170 -203h134l-30 -130h-349z" />
    <glyph glyph-name="uni00B3" unicode="&#xb3;" horiz-adv-x="403" 
d="M248 363c-54 0 -95 9 -142 34l60 116c36 -15 81 -22 124 -22c42 0 71 7 75 24c5 23 -44 40 -128 40l25 112c70 0 115 17 120 37c3 15 -20 24 -53 24c-35 0 -74 -10 -120 -26l-5 111c62 29 123 43 182 43c110 0 164 -48 145 -131c-12 -51 -46 -87 -92 -100
c55 -13 82 -59 69 -116c-20 -88 -123 -146 -260 -146z" />
    <glyph glyph-name="acute" unicode="&#xb4;" horiz-adv-x="266" 
d="M215 532l-59 67l151 179l93 -102z" />
    <glyph glyph-name="uni00B5" unicode="&#xb5;" horiz-adv-x="554" 
d="M19 -217l158 683h151l-64 -276c10 -30 31 -46 58 -46c21 0 39 8 59 23l69 299h154l-107 -466h-129l1 34c-31 -27 -65 -40 -93 -40c-20 0 -38 6 -52 22l-54 -233h-151z" />
    <glyph glyph-name="paragraph" unicode="&#xb6;" horiz-adv-x="702" 
d="M189 -177l89 386c-124 0 -182 104 -149 245c35 150 149 240 289 240h372l-201 -871h-151l168 731h-101l-169 -731h-147z" />
    <glyph glyph-name="periodcentered" unicode="&#xb7;" horiz-adv-x="260" 
d="M167 160c-60 0 -88 46 -74 106c15 64 64 110 124 110s88 -46 73 -110c-14 -60 -63 -106 -123 -106z" />
    <glyph glyph-name="cedilla" unicode="&#xb8;" horiz-adv-x="296" 
d="M72 -258c-40 0 -79 8 -102 23l37 92c17 -9 49 -15 73 -15c27 0 44 8 47 21c5 21 -20 35 -79 41l46 114h107l-26 -62c65 -11 91 -43 79 -95c-17 -73 -87 -119 -182 -119z" />
    <glyph glyph-name="uni00B9" unicode="&#xb9;" horiz-adv-x="354" 
d="M123 370l30 128h91l40 175l-75 -32l-27 108l199 100h83l-81 -351h84l-29 -128h-315z" />
    <glyph glyph-name="ordmasculine" unicode="&#xba;" horiz-adv-x="397" 
d="M277 369c-107 0 -158 72 -132 183c27 119 120 198 233 198c106 0 159 -72 133 -184c-27 -118 -122 -197 -234 -197zM309 468c42 0 76 34 88 87c13 58 -7 95 -51 95c-42 0 -75 -34 -88 -89c-13 -56 6 -93 51 -93z" />
    <glyph glyph-name="guillemotright" unicode="&#xbb;" horiz-adv-x="537" 
d="M253 27l175 210l-84 216h158l85 -211l-187 -215h-147zM19 27l174 210l-83 216h157l85 -211l-186 -215h-147z" />
    <glyph glyph-name="onequarter" unicode="&#xbc;" horiz-adv-x="1112" 
d="M98 260l30 128h91l40 175l-75 -32l-27 108l198 100h83l-81 -351h85l-30 -128h-314zM293 0l432 694h155l-446 -694h-141zM885 -2l17 74h-214l18 79l293 328h133l-65 -280h85l-30 -127h-84l-18 -74h-135zM859 201l72 -1l27 116z" />
    <glyph glyph-name="onehalf" unicode="&#xbd;" horiz-adv-x="1075" 
d="M98 260l30 128h91l40 175l-75 -32l-27 108l198 100h83l-81 -351h85l-30 -128h-314zM293 0l432 694h155l-446 -694h-141zM701 0l25 107c127 73 227 148 239 200c7 32 -20 48 -57 48c-33 0 -75 -13 -120 -38l-10 110c58 39 122 59 187 59c113 0 172 -61 151 -153
c-17 -72 -79 -147 -170 -203h135l-30 -130h-350z" />
    <glyph glyph-name="threequarters" unicode="&#xbe;" horiz-adv-x="1162" 
d="M223 253c-54 0 -95 9 -142 34l59 116c36 -15 81 -22 124 -22c42 0 72 7 76 24c5 23 -45 40 -129 40l26 112c70 0 114 17 119 37c3 15 -20 24 -53 24c-35 0 -73 -10 -119 -26l-5 111c62 29 123 43 182 43c110 0 163 -48 144 -131c-12 -51 -46 -87 -92 -100
c55 -13 82 -59 69 -116c-20 -88 -122 -146 -259 -146zM343 0l432 694h155l-446 -694h-141zM935 -2l17 74h-214l18 79l294 328h132l-65 -280h85l-30 -127h-84l-17 -74h-136zM909 201l72 -1l27 116z" />
    <glyph glyph-name="questiondown" unicode="&#xbf;" horiz-adv-x="388" 
d="M299 489c58 0 88 -44 74 -106c-15 -65 -65 -110 -124 -110s-88 45 -73 110c14 62 65 106 123 106zM322 212l-7 -27c-22 -94 -146 -137 -162 -206c-8 -35 21 -54 82 -54c41 0 83 8 126 26l7 -131c-66 -28 -140 -45 -209 -45c-141 0 -206 65 -180 178
c34 146 161 175 174 232l6 27h163z" />
    <glyph glyph-name="Agrave" unicode="&#xc0;" horiz-adv-x="658" 
d="M513 734l-168 115l122 134l130 -156zM1 0l390 694h205l61 -694h-178l-9 143h-225l-72 -143h-172zM325 299h136l-13 242z" />
    <glyph glyph-name="Aacute" unicode="&#xc1;" horiz-adv-x="658" 
d="M483 734l-42 93l203 156l60 -134zM1 0l390 694h205l61 -694h-178l-9 143h-225l-72 -143h-172zM325 299h136l-13 242z" />
    <glyph glyph-name="Acircumflex" unicode="&#xc2;" horiz-adv-x="658" 
d="M345 794l175 168h79l105 -137l-110 -91l-78 84l-120 -83zM1 0l390 694h205l61 -694h-178l-9 143h-225l-72 -143h-172zM325 299h136l-13 242z" />
    <glyph glyph-name="Atilde" unicode="&#xc3;" horiz-adv-x="658" 
d="M419 749l-92 25c34 94 98 156 162 156c48 0 76 -42 102 -42c17 0 35 14 50 44l92 -27c-31 -91 -99 -149 -169 -149c-54 0 -68 40 -96 40c-14 0 -33 -16 -49 -47zM1 0l390 694h205l61 -694h-178l-9 143h-225l-72 -143h-172zM325 299h136l-13 242z" />
    <glyph glyph-name="Adieresis" unicode="&#xc4;" horiz-adv-x="658" 
d="M379 747c-55 0 -83 40 -69 99c14 60 60 100 115 100s83 -40 69 -100c-14 -59 -60 -99 -115 -99zM611 747c-55 0 -83 40 -69 99c14 60 60 100 115 100s83 -40 69 -100c-14 -59 -60 -99 -115 -99zM1 0l390 694h205l61 -694h-178l-9 143h-225l-72 -143h-172zM325 299h136
l-13 242z" />
    <glyph glyph-name="Aring" unicode="&#xc5;" horiz-adv-x="658" 
d="M499 739c-72 0 -108 52 -90 131c18 77 79 128 152 128c72 0 108 -50 90 -126c-18 -80 -79 -133 -152 -133zM521 825c23 0 43 18 49 45c6 25 -7 42 -31 42c-23 0 -42 -16 -48 -40c-6 -28 6 -47 30 -47zM1 0l390 694h205l61 -694h-178l-9 143h-225l-72 -143h-172zM325 299
h136l-13 242z" />
    <glyph glyph-name="AE" unicode="&#xc6;" horiz-adv-x="950" 
d="M-4 0l548 694h526l-35 -152h-302l-26 -112h276l-35 -152h-276l-30 -126h303l-35 -152h-464l35 149h-195l-113 -149h-177zM403 305h114l50 218z" />
    <glyph glyph-name="Ccedilla" unicode="&#xc7;" horiz-adv-x="579" 
d="M256 -258c-40 0 -79 8 -102 23l38 92c17 -9 48 -15 72 -15c27 0 44 8 47 21c5 21 -20 35 -79 41l39 95c-143 35 -210 164 -169 343c50 218 229 362 437 362c65 0 122 -14 178 -43l-76 -136c-32 16 -89 26 -140 26c-118 0 -199 -65 -228 -192c-31 -135 25 -217 155 -217
c41 0 90 8 130 22l7 -125c-51 -26 -125 -45 -191 -48l-15 -35c65 -11 91 -43 79 -95c-17 -73 -87 -119 -182 -119z" />
    <glyph glyph-name="Egrave" unicode="&#xc8;" horiz-adv-x="565" 
d="M474 734l-168 115l122 134l131 -156zM61 0l160 694h463l-35 -152h-302l-26 -114h276l-35 -152h-276l-29 -124h302l-35 -152h-463z" />
    <glyph glyph-name="Eacute" unicode="&#xc9;" horiz-adv-x="565" 
d="M444 734l-41 93l202 156l60 -134zM61 0l160 694h463l-35 -152h-302l-26 -114h276l-35 -152h-276l-29 -124h302l-35 -152h-463z" />
    <glyph glyph-name="Ecircumflex" unicode="&#xca;" horiz-adv-x="565" 
d="M307 794l174 168h79l105 -137l-110 -91l-77 84l-121 -83zM61 0l160 694h463l-35 -152h-302l-26 -114h276l-35 -152h-276l-29 -124h302l-35 -152h-463z" />
    <glyph glyph-name="Edieresis" unicode="&#xcb;" horiz-adv-x="565" 
d="M340 747c-55 0 -83 40 -69 99c14 60 60 100 115 100s83 -40 69 -100c-14 -59 -60 -99 -115 -99zM573 747c-55 0 -83 40 -69 99c14 60 60 100 115 100s83 -40 69 -100c-14 -59 -60 -99 -115 -99zM61 0l160 694h463l-35 -152h-302l-26 -114h276l-35 -152h-276l-29 -124h302
l-35 -152h-463z" />
    <glyph glyph-name="Igrave" unicode="&#xcc;" horiz-adv-x="287" 
d="M329 734l-168 115l123 134l130 -156zM63 0l160 694h164l-160 -694h-164z" />
    <glyph glyph-name="Iacute" unicode="&#xcd;" horiz-adv-x="287" 
d="M297 734l-41 93l202 156l60 -134zM61 0l160 694h164l-160 -694h-164z" />
    <glyph glyph-name="Icircumflex" unicode="&#xce;" horiz-adv-x="289" 
d="M161 794l175 168h79l105 -137l-110 -91l-77 84l-121 -83zM63 0l160 694h164l-161 -694h-163z" />
    <glyph glyph-name="Idieresis" unicode="&#xcf;" horiz-adv-x="291" 
d="M196 747c-55 0 -83 40 -69 99c14 60 60 100 115 100s83 -40 69 -100c-14 -59 -60 -99 -115 -99zM429 747c-55 0 -83 40 -69 99c14 60 60 100 115 100s83 -40 69 -100c-14 -59 -60 -99 -115 -99zM64 0l160 694h164l-161 -694h-163z" />
    <glyph glyph-name="Eth" unicode="&#xd0;" horiz-adv-x="682" 
d="M63 0l65 284h-81l28 120h81l67 290h242c223 0 326 -124 278 -333c-50 -218 -230 -361 -451 -361h-229zM255 149h90c117 0 197 68 226 192c30 128 -26 204 -150 204h-74l-33 -141h125l-28 -120h-125z" />
    <glyph glyph-name="Ntilde" unicode="&#xd1;" horiz-adv-x="722" 
d="M452 749l-93 25c34 94 98 156 162 156c48 0 76 -42 102 -42c17 0 35 14 50 44l92 -27c-31 -91 -99 -149 -169 -149c-54 0 -68 40 -96 40c-14 0 -32 -16 -48 -47zM61 0l160 694h184l156 -452l107 452h154l-160 -694h-181l-162 456l-106 -456h-152z" />
    <glyph glyph-name="Ograve" unicode="&#xd2;" horiz-adv-x="705" 
d="M537 734l-168 115l122 134l131 -156zM344 -10c-193 0 -291 140 -242 351c50 218 217 363 417 363c195 0 293 -141 244 -353c-50 -217 -217 -361 -419 -361zM389 140c95 0 176 80 204 201c30 128 -18 213 -119 213c-93 0 -174 -81 -202 -203c-29 -127 17 -211 117 -211z
" />
    <glyph glyph-name="Oacute" unicode="&#xd3;" horiz-adv-x="705" 
d="M507 734l-41 93l202 156l60 -134zM344 -10c-193 0 -291 140 -242 351c50 218 217 363 417 363c195 0 293 -141 244 -353c-50 -217 -217 -361 -419 -361zM389 140c95 0 176 80 204 201c30 128 -18 213 -119 213c-93 0 -174 -81 -202 -203c-29 -127 17 -211 117 -211z" />
    <glyph glyph-name="Ocircumflex" unicode="&#xd4;" horiz-adv-x="705" 
d="M370 794l174 168h79l105 -137l-110 -91l-77 84l-121 -83zM344 -10c-193 0 -291 140 -242 351c50 218 217 363 417 363c195 0 293 -141 244 -353c-50 -217 -217 -361 -419 -361zM389 140c95 0 176 80 204 201c30 128 -18 213 -119 213c-93 0 -174 -81 -202 -203
c-29 -127 17 -211 117 -211z" />
    <glyph glyph-name="Otilde" unicode="&#xd5;" horiz-adv-x="705" 
d="M444 749l-93 25c34 94 99 156 163 156c48 0 76 -42 102 -42c17 0 35 14 50 44l91 -27c-31 -91 -98 -149 -168 -149c-54 0 -68 40 -96 40c-14 0 -33 -16 -49 -47zM344 -10c-193 0 -291 140 -242 351c50 218 217 363 417 363c195 0 293 -141 244 -353
c-50 -217 -217 -361 -419 -361zM389 140c95 0 176 80 204 201c30 128 -18 213 -119 213c-93 0 -174 -81 -202 -203c-29 -127 17 -211 117 -211z" />
    <glyph glyph-name="Odieresis" unicode="&#xd6;" horiz-adv-x="705" 
d="M404 747c-55 0 -84 40 -70 99c14 60 60 100 115 100s83 -40 69 -100c-14 -59 -59 -99 -114 -99zM636 747c-55 0 -83 40 -69 99c14 60 60 100 115 100s83 -40 69 -100c-14 -59 -60 -99 -115 -99zM344 -10c-193 0 -291 140 -242 351c50 218 217 363 417 363
c195 0 293 -141 244 -353c-50 -217 -217 -361 -419 -361zM389 140c95 0 176 80 204 201c30 128 -18 213 -119 213c-93 0 -174 -81 -202 -203c-29 -127 17 -211 117 -211z" />
    <glyph glyph-name="multiply" unicode="&#xd7;" horiz-adv-x="534" 
d="M130 38l-75 108l180 158l-97 145l131 113l97 -143l168 146l80 -113l-171 -146l104 -154l-131 -113l-105 154z" />
    <glyph glyph-name="Oslash" unicode="&#xd8;" horiz-adv-x="705" 
d="M160 -59l-80 63l61 72c-49 61 -65 153 -39 265c50 218 217 363 417 363c49 0 92 -9 128 -26l62 74l82 -63l-63 -75c46 -62 60 -153 35 -263c-50 -217 -217 -361 -419 -361c-46 0 -89 8 -123 24zM272 351c-11 -47 -11 -88 -2 -122l263 313c-17 8 -37 12 -59 12
c-93 0 -174 -81 -202 -203zM389 140c95 0 176 80 204 201c10 45 11 85 3 118l-260 -309c15 -7 33 -10 53 -10z" />
    <glyph glyph-name="Ugrave" unicode="&#xd9;" horiz-adv-x="657" 
d="M513 734l-167 115l122 134l130 -156zM319 -10c-171 0 -249 108 -208 287l97 417h160l-94 -407c-21 -92 15 -147 98 -147c71 0 124 47 142 127l98 427h159l-94 -407c-42 -180 -182 -297 -358 -297z" />
    <glyph glyph-name="Uacute" unicode="&#xda;" horiz-adv-x="657" 
d="M484 734l-42 93l202 156l61 -134zM319 -10c-171 0 -249 108 -208 287l97 417h160l-94 -407c-21 -92 15 -147 98 -147c71 0 124 47 142 127l98 427h159l-94 -407c-42 -180 -182 -297 -358 -297z" />
    <glyph glyph-name="Ucircumflex" unicode="&#xdb;" horiz-adv-x="657" 
d="M346 794l175 168h79l105 -137l-111 -91l-77 84l-121 -83zM319 -10c-171 0 -249 108 -208 287l97 417h160l-94 -407c-21 -92 15 -147 98 -147c71 0 124 47 142 127l98 427h159l-94 -407c-42 -180 -182 -297 -358 -297z" />
    <glyph glyph-name="Udieresis" unicode="&#xdc;" horiz-adv-x="657" 
d="M380 747c-55 0 -83 40 -69 99c14 60 60 100 115 100s83 -40 69 -100c-14 -59 -60 -99 -115 -99zM612 747c-55 0 -83 40 -69 99c14 60 60 100 115 100s83 -40 69 -100c-14 -59 -60 -99 -115 -99zM319 -10c-171 0 -249 108 -208 287l97 417h160l-94 -407
c-21 -92 15 -147 98 -147c71 0 124 47 142 127l98 427h159l-94 -407c-42 -180 -182 -297 -358 -297z" />
    <glyph glyph-name="Yacute" unicode="&#xdd;" horiz-adv-x="608" 
d="M456 734l-41 93l202 156l60 -134zM228 0l58 251l-144 443h190l75 -292l198 292h181l-340 -447l-57 -247h-161z" />
    <glyph glyph-name="Thorn" unicode="&#xde;" horiz-adv-x="580" 
d="M61 0l160 694h161l-20 -88h80c157 0 240 -96 207 -241c-34 -149 -167 -249 -333 -249h-67l-27 -116h-161zM398 454h-71l-43 -186h82c60 0 101 31 114 87c14 60 -19 99 -82 99z" />
    <glyph glyph-name="germandbls" unicode="&#xdf;" horiz-adv-x="589" 
d="M360 -10c-47 0 -87 11 -125 33l64 132c25 -17 55 -25 84 -25c36 0 65 14 70 35c12 51 -137 61 -105 201c24 102 109 120 122 178c8 35 -16 61 -56 61c-42 0 -73 -28 -84 -75l-122 -530h-154l122 531c30 130 141 218 276 218c127 0 203 -79 178 -186
c-22 -97 -107 -115 -119 -168c-17 -74 135 -71 100 -221c-26 -111 -124 -184 -251 -184z" />
    <glyph glyph-name="agrave" unicode="&#xe0;" horiz-adv-x="466" 
d="M329 510l-107 157l137 111l57 -195zM168 -10c-93 0 -139 56 -119 141c23 99 115 146 295 151c7 36 -24 56 -83 56c-38 0 -80 -8 -128 -23l-10 113c62 30 136 48 203 48c141 0 195 -76 163 -217l-60 -259h-111l-4 52c-42 -41 -91 -62 -146 -62zM210 156
c-5 -22 12 -37 42 -37c21 0 41 6 59 19l13 58c-77 -3 -108 -14 -114 -40z" />
    <glyph glyph-name="aacute" unicode="&#xe1;" horiz-adv-x="466" 
d="M351 510l-53 73l146 195l86 -111zM168 -10c-93 0 -139 56 -119 141c23 99 115 146 295 151c7 36 -24 56 -83 56c-38 0 -80 -8 -128 -23l-10 113c62 30 136 48 203 48c141 0 195 -76 163 -217l-60 -259h-111l-4 52c-42 -41 -91 -62 -146 -62zM210 156
c-5 -22 12 -37 42 -37c21 0 41 6 59 19l13 58c-77 -3 -108 -14 -114 -40z" />
    <glyph glyph-name="acircumflex" unicode="&#xe2;" horiz-adv-x="466" 
d="M199 578l171 184h73l96 -150l-109 -99l-69 92l-116 -91zM168 -10c-93 0 -139 56 -119 141c23 99 115 146 295 151c7 36 -24 56 -83 56c-38 0 -80 -8 -128 -23l-10 113c62 30 136 48 203 48c141 0 195 -76 163 -217l-60 -259h-111l-4 52c-42 -41 -91 -62 -146 -62z
M210 156c-5 -22 12 -37 42 -37c21 0 41 6 59 19l13 58c-77 -3 -108 -14 -114 -40z" />
    <glyph glyph-name="atilde" unicode="&#xe3;" horiz-adv-x="466" 
d="M271 547l-88 28c33 94 95 156 155 156c46 0 71 -42 96 -42c16 0 33 14 48 45l87 -28c-31 -91 -95 -149 -161 -149c-51 0 -64 40 -90 40c-13 0 -32 -17 -47 -50zM168 -10c-93 0 -139 56 -119 141c23 99 115 146 295 151c7 36 -24 56 -83 56c-38 0 -80 -8 -128 -23l-10 113
c62 30 136 48 203 48c141 0 195 -76 163 -217l-60 -259h-111l-4 52c-42 -41 -91 -62 -146 -62zM210 156c-5 -22 12 -37 42 -37c21 0 41 6 59 19l13 58c-77 -3 -108 -14 -114 -40z" />
    <glyph glyph-name="adieresis" unicode="&#xe4;" horiz-adv-x="468" 
d="M246 557c-53 0 -80 40 -66 99c14 60 58 100 111 100s79 -40 65 -100c-14 -59 -57 -99 -110 -99zM466 557c-53 0 -79 40 -65 99c14 60 58 100 111 100s79 -40 65 -100c-14 -59 -58 -99 -111 -99zM170 -10c-94 0 -141 56 -121 141c23 99 117 146 298 151
c7 36 -25 56 -85 56c-38 0 -80 -8 -129 -23l-10 113c62 30 137 48 204 48c142 0 197 -76 165 -217l-60 -259h-111l-4 52c-42 -41 -91 -62 -147 -62zM210 156c-5 -22 12 -37 43 -37c21 0 42 6 61 19l13 58c-78 -3 -111 -14 -117 -40z" />
    <glyph glyph-name="aring" unicode="&#xe5;" horiz-adv-x="468" 
d="M349 531c-68 0 -100 55 -81 139c19 82 78 136 147 136c68 0 101 -53 82 -134c-20 -85 -79 -141 -148 -141zM371 617c21 0 41 21 48 53c7 30 -4 50 -26 50c-21 0 -40 -19 -47 -47c-8 -33 3 -56 25 -56zM169 -10c-93 0 -140 56 -120 141c23 99 115 146 296 151
c7 36 -23 56 -83 56c-38 0 -81 -8 -129 -23l-10 113c62 30 137 48 204 48c141 0 195 -76 163 -217l-59 -259h-111l-4 52c-42 -41 -92 -62 -147 -62zM210 156c-5 -22 12 -37 42 -37c21 0 41 6 60 19l14 58c-78 -3 -110 -14 -116 -40z" />
    <glyph glyph-name="ae" unicode="&#xe6;" horiz-adv-x="694" 
d="M160 -10c-86 0 -131 52 -113 130c23 98 130 158 292 164c0 32 -25 50 -72 50c-38 0 -90 -11 -140 -31l-8 111c65 39 143 62 211 62c54 0 91 -16 111 -50c41 33 89 50 143 50c122 0 176 -83 144 -222c-6 -26 -15 -54 -22 -69h-253c5 -45 36 -65 99 -65c32 0 68 5 106 17
l8 -115c-59 -21 -116 -32 -168 -32c-85 0 -141 30 -164 87c-56 -59 -113 -87 -174 -87zM542 344c-32 0 -56 -19 -71 -59h113c9 37 -7 59 -42 59zM209 151c-5 -20 9 -32 38 -32c23 0 48 8 74 24c-1 15 1 30 3 48c-75 -2 -109 -13 -115 -40z" />
    <glyph glyph-name="ccedilla" unicode="&#xe7;" horiz-adv-x="400" 
d="M247 -10h-3l-14 -34c60 -11 83 -43 71 -95c-17 -73 -83 -119 -171 -119c-37 0 -74 8 -95 23l37 92c16 -9 45 -15 68 -15c25 0 41 8 44 21c5 21 -18 35 -73 41l41 104c-78 31 -110 108 -85 217c36 154 152 251 300 251c45 0 91 -11 122 -28l-61 -132c-24 9 -56 16 -84 16
c-63 0 -104 -35 -118 -97c-16 -69 15 -107 84 -107c24 0 51 4 78 15l6 -115c-50 -26 -96 -38 -147 -38z" />
    <glyph glyph-name="egrave" unicode="&#xe8;" horiz-adv-x="457" 
d="M332 510l-103 157l133 111l56 -195zM261 -10c-154 0 -227 92 -192 242c34 147 146 244 280 244c121 0 174 -81 142 -218c-6 -25 -14 -49 -23 -73h-257c4 -46 38 -67 102 -67c35 0 70 6 108 18l8 -114c-59 -21 -116 -32 -168 -32zM306 348c-34 0 -60 -21 -77 -63h123
c9 40 -7 63 -46 63z" />
    <glyph glyph-name="eacute" unicode="&#xe9;" horiz-adv-x="457" 
d="M353 510l-52 73l146 195l85 -111zM261 -10c-154 0 -227 92 -192 242c34 147 146 244 280 244c121 0 174 -81 142 -218c-6 -25 -14 -49 -23 -73h-257c4 -46 38 -67 102 -67c35 0 70 6 108 18l8 -114c-59 -21 -116 -32 -168 -32zM306 348c-34 0 -60 -21 -77 -63h123
c9 40 -7 63 -46 63z" />
    <glyph glyph-name="ecircumflex" unicode="&#xea;" horiz-adv-x="457" 
d="M206 578l167 184h72l96 -150l-108 -99l-69 92l-114 -91zM261 -10c-154 0 -227 92 -192 242c34 147 146 244 280 244c121 0 174 -81 142 -218c-6 -25 -14 -49 -23 -73h-257c4 -46 38 -67 102 -67c35 0 70 6 108 18l8 -114c-59 -21 -116 -32 -168 -32zM306 348
c-34 0 -60 -21 -77 -63h123c9 40 -7 63 -46 63z" />
    <glyph glyph-name="edieresis" unicode="&#xeb;" horiz-adv-x="465" 
d="M254 557c-53 0 -80 40 -66 99c14 60 60 100 112 100c53 0 79 -40 65 -100c-14 -59 -59 -99 -111 -99zM474 557c-53 0 -79 40 -65 99c14 60 58 100 111 100s79 -40 65 -100c-14 -59 -58 -99 -111 -99zM266 -10c-157 0 -232 92 -197 242c34 147 148 244 285 244
c124 0 178 -81 146 -218c-6 -25 -15 -49 -24 -73h-259c4 -46 39 -67 103 -67c35 0 71 6 110 18l7 -114c-60 -21 -118 -32 -171 -32zM313 348c-35 0 -62 -21 -79 -63h127c9 40 -9 63 -48 63z" />
    <glyph glyph-name="igrave" unicode="&#xec;" horiz-adv-x="251" 
d="M234 532l-109 144l132 102l64 -179zM48 0l114 490h153l-113 -490h-154z" />
    <glyph glyph-name="iacute" unicode="&#xed;" horiz-adv-x="252" 
d="M257 532l-57 67l146 179l86 -102zM49 0l113 490h154l-113 -490h-154z" />
    <glyph glyph-name="icircumflex" unicode="&#xee;" horiz-adv-x="245" 
d="M103 594l166 168h75l96 -137l-103 -91l-73 84l-115 -83zM48 0l113 490h154l-113 -490h-154z" />
    <glyph glyph-name="idieresis" unicode="&#xef;" horiz-adv-x="251" 
d="M144 557c-52 0 -79 40 -65 99c14 60 59 100 111 100s79 -40 65 -100c-14 -59 -59 -99 -111 -99zM366 557c-53 0 -79 40 -65 99c14 60 58 100 111 100s79 -40 65 -100c-14 -59 -58 -99 -111 -99zM49 0l113 490h154l-113 -490h-154z" />
    <glyph glyph-name="eth" unicode="&#xf0;" horiz-adv-x="503" 
d="M237 -9c-130 0 -197 90 -166 224c32 139 133 232 252 232c35 0 65 -8 89 -23c-8 34 -28 69 -58 104l-99 -59l-25 86l58 34c-17 13 -34 25 -53 37l70 124c47 -23 86 -49 119 -79l113 68l26 -86l-80 -47c63 -87 80 -195 51 -321c-42 -184 -154 -294 -297 -294zM281 131
c39 0 74 33 86 84c13 55 -7 92 -50 92c-42 0 -74 -31 -86 -83c-13 -56 7 -93 50 -93z" />
    <glyph glyph-name="ntilde" unicode="&#xf1;" horiz-adv-x="513" 
d="M305 548l-88 27c33 94 95 156 155 156c45 0 71 -42 95 -42c16 0 33 14 48 45l87 -28c-31 -91 -94 -149 -160 -149c-51 0 -64 40 -90 40c-13 0 -32 -16 -47 -49zM47 0l107 466h111l10 -64c45 45 99 70 153 70c97 0 137 -75 108 -202l-63 -270h-153l56 246
c12 51 0 76 -40 76c-23 0 -45 -9 -67 -25l-68 -297h-154z" />
    <glyph glyph-name="ograve" unicode="&#xf2;" horiz-adv-x="498" 
d="M351 510l-107 157l137 111l56 -195zM239 -10c-138 0 -205 92 -172 233c35 151 155 253 300 253c137 0 204 -93 171 -235c-35 -150 -155 -251 -299 -251zM282 134c47 0 82 34 96 94c15 65 -5 104 -55 104c-47 0 -83 -37 -97 -98c-14 -62 6 -100 56 -100z" />
    <glyph glyph-name="oacute" unicode="&#xf3;" horiz-adv-x="498" 
d="M372 510l-52 73l146 195l85 -111zM239 -10c-138 0 -205 92 -172 233c35 151 155 253 300 253c137 0 204 -93 171 -235c-35 -150 -155 -251 -299 -251zM282 134c47 0 82 34 96 94c15 65 -5 104 -55 104c-47 0 -83 -37 -97 -98c-14 -62 6 -100 56 -100z" />
    <glyph glyph-name="ocircumflex" unicode="&#xf4;" horiz-adv-x="498" 
d="M221 578l171 184h72l95 -150l-108 -99l-68 92l-115 -91zM239 -10c-138 0 -205 92 -172 233c35 151 155 253 300 253c137 0 204 -93 171 -235c-35 -150 -155 -251 -299 -251zM282 134c47 0 82 34 96 94c15 65 -5 104 -55 104c-47 0 -83 -37 -97 -98
c-14 -62 6 -100 56 -100z" />
    <glyph glyph-name="otilde" unicode="&#xf5;" horiz-adv-x="498" 
d="M293 547l-88 28c33 94 95 156 155 156c45 0 70 -42 94 -42c16 0 33 14 48 45l87 -28c-31 -91 -95 -149 -160 -149c-50 0 -63 40 -89 40c-13 0 -32 -17 -47 -50zM239 -10c-138 0 -205 92 -172 233c35 151 155 253 300 253c137 0 204 -93 171 -235
c-35 -150 -155 -251 -299 -251zM282 134c47 0 82 34 96 94c15 65 -5 104 -55 104c-47 0 -83 -37 -97 -98c-14 -62 6 -100 56 -100z" />
    <glyph glyph-name="odieresis" unicode="&#xf6;" horiz-adv-x="502" 
d="M268 557c-53 0 -79 40 -65 99c14 60 58 100 111 100s79 -40 65 -100c-14 -59 -58 -99 -111 -99zM489 557c-53 0 -80 40 -66 99c14 60 59 100 112 100s79 -40 65 -100c-14 -59 -58 -99 -111 -99zM241 -10c-139 0 -207 92 -174 233c35 151 156 253 302 253
c138 0 206 -93 173 -235c-35 -150 -156 -251 -301 -251zM284 134c48 0 84 34 98 94c15 65 -6 104 -57 104c-48 0 -85 -37 -99 -98c-14 -62 7 -100 58 -100z" />
    <glyph glyph-name="divide" unicode="&#xf7;" horiz-adv-x="556" 
d="M379 435c-55 0 -83 40 -69 99c14 60 60 100 115 100s83 -40 69 -100c-14 -59 -60 -99 -115 -99zM87 262l31 135h504l-31 -135h-504zM284 25c-55 0 -83 40 -69 99c14 60 60 100 115 100s83 -40 69 -100c-14 -59 -60 -99 -115 -99z" />
    <glyph glyph-name="oslash" unicode="&#xf8;" horiz-adv-x="498" 
d="M98 -62l-53 39l53 64c-37 41 -49 104 -31 181c35 152 154 254 298 254c32 0 61 -6 85 -16l62 92l50 -63l-56 -71c37 -41 49 -103 31 -180c-35 -151 -155 -253 -298 -253c-32 0 -61 6 -85 16zM223 231c-4 -18 -5 -34 -4 -48l126 146c-6 2 -14 3 -22 3
c-49 0 -85 -38 -100 -101zM281 129c49 0 85 36 99 97c4 19 6 35 5 50l-125 -144c6 -2 13 -3 21 -3z" />
    <glyph glyph-name="ugrave" unicode="&#xf9;" horiz-adv-x="509" 
d="M356 532l-110 144l135 102l60 -179zM305 490l-61 -265c-8 -36 -12 -81 37 -81c22 0 44 10 64 25l74 321h154l-113 -490h-111l-10 64c-45 -45 -99 -70 -152 -70c-91 0 -133 74 -106 192l70 304h154z" />
    <glyph glyph-name="uacute" unicode="&#xfa;" horiz-adv-x="509" 
d="M377 532l-54 67l143 179l88 -102zM305 490l-61 -265c-8 -36 -12 -81 37 -81c22 0 44 10 64 25l74 321h154l-113 -490h-111l-10 64c-45 -45 -99 -70 -152 -70c-91 0 -133 74 -106 192l70 304h154z" />
    <glyph glyph-name="ucircumflex" unicode="&#xfb;" horiz-adv-x="509" 
d="M224 594l168 168h73l98 -137l-106 -91l-71 84l-114 -83zM305 490l-61 -265c-8 -36 -12 -81 37 -81c22 0 44 10 64 25l74 321h154l-113 -490h-111l-10 64c-45 -45 -99 -70 -152 -70c-91 0 -133 74 -106 192l70 304h154z" />
    <glyph glyph-name="udieresis" unicode="&#xfc;" horiz-adv-x="513" 
d="M267 557c-52 0 -79 40 -65 99c14 60 59 100 111 100s79 -40 65 -100c-14 -59 -59 -99 -111 -99zM488 557c-53 0 -79 40 -65 99c14 60 58 100 111 100s79 -40 65 -100c-14 -59 -58 -99 -111 -99zM305 490l-61 -265c-8 -36 -12 -81 38 -81c23 0 46 10 66 25l74 321h154
l-113 -490h-112l-9 64c-46 -45 -100 -70 -153 -70c-92 0 -135 74 -108 192l70 304h154z" />
    <glyph glyph-name="yacute" unicode="&#xfd;" horiz-adv-x="453" 
d="M354 532l-54 67l142 179l84 -102zM28 -217l126 217l-48 490h164l-1 -327l159 327h147l-272 -490l-115 -217h-160z" />
    <glyph glyph-name="thorn" unicode="&#xfe;" horiz-adv-x="505" 
d="M-3 -217l220 956h147l-70 -305c34 27 72 42 112 42c110 0 167 -100 135 -238c-33 -143 -142 -248 -255 -248c-37 0 -66 12 -87 35l-56 -242h-146zM327 332c-22 0 -45 -9 -63 -25l-33 -145c11 -18 31 -28 55 -28c48 0 84 37 97 95c14 61 -6 103 -56 103z" />
    <glyph glyph-name="ydieresis" unicode="&#xff;" horiz-adv-x="467" 
d="M249 557c-53 0 -79 40 -65 99c14 60 58 100 111 100s79 -40 65 -100c-14 -59 -58 -99 -111 -99zM470 557c-52 0 -79 40 -65 99c14 60 59 100 111 100s79 -40 65 -100c-14 -59 -59 -99 -111 -99zM30 -217l129 217l-53 490h169l1 -327l161 327h152l-277 -490l-117 -217
h-165z" />
    <glyph glyph-name="Amacron" unicode="&#x100;" horiz-adv-x="658" 
d="M341 769l32 136h334l-31 -136h-335zM1 0l390 694h205l61 -694h-178l-9 143h-225l-72 -143h-172zM325 299h136l-13 242z" />
    <glyph glyph-name="amacron" unicode="&#x101;" horiz-adv-x="466" 
d="M201 577l32 136h316l-32 -136h-316zM168 -10c-93 0 -139 56 -119 141c23 99 115 146 295 151c7 36 -24 56 -83 56c-38 0 -80 -8 -128 -23l-10 113c62 30 136 48 203 48c141 0 195 -76 163 -217l-60 -259h-111l-4 52c-42 -41 -91 -62 -146 -62zM210 156
c-5 -22 12 -37 42 -37c21 0 41 6 59 19l13 58c-77 -3 -108 -14 -114 -40z" />
    <glyph glyph-name="Abreve" unicode="&#x102;" horiz-adv-x="658" 
d="M489 741c-98 0 -161 58 -152 153l133 77c-8 -60 19 -100 67 -100c46 0 91 37 110 101l62 -56c-41 -107 -126 -175 -220 -175zM1 0l390 694h205l61 -694h-178l-9 143h-225l-72 -143h-172zM325 299h136l-13 242z" />
    <glyph glyph-name="abreve" unicode="&#x103;" horiz-adv-x="466" 
d="M348 524c-92 0 -152 60 -142 157l132 90c-11 -70 12 -117 57 -117c43 0 86 43 108 118l57 -66c-41 -112 -123 -182 -212 -182zM168 -10c-93 0 -139 56 -119 141c23 99 115 146 295 151c7 36 -24 56 -83 56c-38 0 -80 -8 -128 -23l-10 113c62 30 136 48 203 48
c141 0 195 -76 163 -217l-60 -259h-111l-4 52c-42 -41 -91 -62 -146 -62zM210 156c-5 -22 12 -37 42 -37c21 0 41 6 59 19l13 58c-77 -3 -108 -14 -114 -40z" />
    <glyph glyph-name="Aogonek" unicode="&#x104;" horiz-adv-x="658" 
d="M1 0l390 694h205l61 -694c-63 -21 -108 -61 -118 -105c-6 -25 5 -46 28 -46c7 0 24 3 39 10l-8 -90c-29 -15 -66 -25 -103 -25c-82 0 -119 47 -103 116c14 61 63 112 133 140h-46l-9 143h-225l-72 -143h-172zM325 299h136l-13 242z" />
    <glyph glyph-name="aogonek" unicode="&#x105;" horiz-adv-x="469" 
d="M170 -10c-94 0 -141 56 -121 141c23 99 116 146 298 151c7 36 -24 56 -84 56c-38 0 -81 -8 -130 -23l-10 113c62 30 137 48 204 48c142 0 197 -76 165 -217l-60 -259c-60 -21 -103 -61 -113 -105c-6 -25 4 -46 26 -46c7 0 24 3 38 10l-9 -90c-27 -15 -63 -25 -99 -25
c-78 0 -113 47 -97 116c15 65 67 118 142 145l-3 47c-42 -41 -91 -62 -147 -62zM210 156c-5 -22 12 -37 43 -37c21 0 42 6 61 19l13 58c-79 -3 -111 -14 -117 -40z" />
    <glyph glyph-name="Cacute" unicode="&#x106;" horiz-adv-x="579" 
d="M479 734l-42 93l202 156l61 -134zM353 -10c-197 0 -300 141 -251 352c50 218 229 362 437 362c65 0 122 -14 178 -43l-76 -136c-32 16 -89 26 -140 26c-118 0 -199 -65 -228 -192c-31 -135 25 -217 155 -217c41 0 90 8 130 22l7 -125c-56 -29 -141 -49 -212 -49z" />
    <glyph glyph-name="cacute" unicode="&#x107;" horiz-adv-x="400" 
d="M337 510l-53 73l146 195l83 -111zM245 -10c-145 0 -212 86 -178 234c36 154 152 252 300 252c45 0 91 -11 122 -28l-61 -132c-24 9 -56 16 -84 16c-63 0 -104 -35 -118 -97c-16 -69 15 -107 84 -107c24 0 51 4 78 15l6 -115c-50 -26 -97 -38 -149 -38z" />
    <glyph glyph-name="Ccircumflex" unicode="&#x108;" horiz-adv-x="579" 
d="M341 794l174 168h80l105 -137l-111 -91l-77 84l-121 -83zM353 -10c-197 0 -300 141 -251 352c50 218 229 362 437 362c65 0 122 -14 178 -43l-76 -136c-32 16 -89 26 -140 26c-118 0 -199 -65 -228 -192c-31 -135 25 -217 155 -217c41 0 90 8 130 22l7 -125
c-56 -29 -141 -49 -212 -49z" />
    <glyph glyph-name="ccircumflex" unicode="&#x109;" horiz-adv-x="400" 
d="M185 578l172 184h72l91 -150l-105 -99l-67 92l-117 -91zM245 -10c-145 0 -212 86 -178 234c36 154 152 252 300 252c45 0 91 -11 122 -28l-61 -132c-24 9 -56 16 -84 16c-63 0 -104 -35 -118 -97c-16 -69 15 -107 84 -107c24 0 51 4 78 15l6 -115
c-50 -26 -97 -38 -149 -38z" />
    <glyph glyph-name="Cdotaccent" unicode="&#x10a;" horiz-adv-x="579" 
d="M470 747c-55 0 -84 40 -70 99c14 60 61 100 116 100s82 -40 68 -100c-14 -59 -59 -99 -114 -99zM353 -10c-197 0 -300 141 -251 352c50 218 229 362 437 362c65 0 122 -14 178 -43l-76 -136c-32 16 -89 26 -140 26c-118 0 -199 -65 -228 -192c-31 -135 25 -217 155 -217
c41 0 90 8 130 22l7 -125c-56 -29 -141 -49 -212 -49z" />
    <glyph glyph-name="cdotaccent" unicode="&#x10b;" horiz-adv-x="406" 
d="M343 557c-53 0 -80 40 -66 99c14 60 59 100 112 100s79 -40 65 -100c-14 -59 -58 -99 -111 -99zM248 -10c-147 0 -215 86 -181 234c36 154 153 252 303 252c46 0 93 -11 124 -28l-61 -132c-24 9 -58 16 -87 16c-65 0 -106 -35 -120 -97c-16 -69 16 -107 87 -107
c25 0 52 4 80 15l6 -115c-51 -26 -98 -38 -151 -38z" />
    <glyph glyph-name="Ccaron" unicode="&#x10c;" horiz-adv-x="579" 
d="M456 742l-109 136l114 90l74 -94l122 93l50 -58l-171 -167h-80zM353 -10c-197 0 -300 141 -251 352c50 218 229 362 437 362c65 0 122 -14 178 -43l-76 -136c-32 16 -89 26 -140 26c-118 0 -199 -65 -228 -192c-31 -135 25 -217 155 -217c41 0 90 8 130 22l7 -125
c-56 -29 -141 -49 -212 -49z" />
    <glyph glyph-name="ccaron" unicode="&#x10d;" horiz-adv-x="400" 
d="M300 527l-100 148l112 98l65 -102l116 101l44 -63l-164 -182h-73zM245 -10c-145 0 -212 86 -178 234c36 154 152 252 300 252c45 0 91 -11 122 -28l-61 -132c-24 9 -56 16 -84 16c-63 0 -104 -35 -118 -97c-16 -69 15 -107 84 -107c24 0 51 4 78 15l6 -115
c-50 -26 -97 -38 -149 -38z" />
    <glyph glyph-name="Dcaron" unicode="&#x10e;" horiz-adv-x="680" 
d="M442 742l-109 136l114 90l74 -94l122 93l50 -58l-171 -167h-80zM61 0l160 694h242c223 0 326 -124 278 -333c-50 -218 -229 -361 -450 -361h-230zM253 149h91c117 0 196 68 225 192c30 128 -26 204 -150 204h-74z" />
    <glyph glyph-name="dcaron" unicode="&#x10f;" horiz-adv-x="566" 
d="M693 514l-82 16l61 223l112 -19zM197 -10c-105 0 -159 94 -126 239c34 149 137 247 257 247c37 0 65 -11 85 -32l68 294h148l-171 -738h-94l-14 68c-43 -49 -97 -78 -153 -78zM229 235c-15 -64 4 -101 50 -101c26 0 51 10 70 30l31 136c-11 20 -31 32 -57 32
c-45 0 -80 -37 -94 -97z" />
    <glyph glyph-name="Dcroat" unicode="&#x110;" horiz-adv-x="682" 
d="M63 0l65 284h-81l28 120h81l67 290h242c223 0 326 -124 278 -333c-50 -218 -230 -361 -451 -361h-229zM255 149h90c117 0 197 68 226 192c30 128 -26 204 -150 204h-74l-33 -141h125l-28 -120h-125z" />
    <glyph glyph-name="dcroat" unicode="&#x111;" horiz-adv-x="504" 
d="M197 -10c-105 0 -159 94 -126 239c34 149 137 247 257 247c37 0 65 -11 85 -32l20 86h-102l24 107h103l23 102h148l-23 -102h57l-25 -107h-57l-123 -530h-94l-14 68c-43 -49 -97 -78 -153 -78zM229 235c-15 -64 4 -101 50 -101c26 0 51 10 70 30l31 136
c-11 20 -31 32 -57 32c-45 0 -80 -37 -94 -97z" />
    <glyph glyph-name="Emacron" unicode="&#x112;" horiz-adv-x="565" 
d="M303 769l31 136h335l-32 -136h-334zM61 0l160 694h463l-35 -152h-302l-26 -114h276l-35 -152h-276l-29 -124h302l-35 -152h-463z" />
    <glyph glyph-name="emacron" unicode="&#x113;" horiz-adv-x="457" 
d="M208 577l31 136h312l-31 -136h-312zM261 -10c-154 0 -227 92 -192 242c34 147 146 244 280 244c121 0 174 -81 142 -218c-6 -25 -14 -49 -23 -73h-257c4 -46 38 -67 102 -67c35 0 70 6 108 18l8 -114c-59 -21 -116 -32 -168 -32zM306 348c-34 0 -60 -21 -77 -63h123
c9 40 -7 63 -46 63z" />
    <glyph glyph-name="Ebreve" unicode="&#x114;" horiz-adv-x="565" 
d="M451 741c-98 0 -162 58 -153 153l133 77c-8 -60 19 -100 67 -100c46 0 91 37 110 101l62 -56c-41 -107 -125 -175 -219 -175zM61 0l160 694h463l-35 -152h-302l-26 -114h276l-35 -152h-276l-29 -124h302l-35 -152h-463z" />
    <glyph glyph-name="ebreve" unicode="&#x115;" horiz-adv-x="457" 
d="M353 524c-91 0 -149 60 -139 157l127 90c-11 -70 11 -117 56 -117c43 0 86 43 108 118l57 -66c-41 -112 -121 -182 -209 -182zM261 -10c-154 0 -227 92 -192 242c34 147 146 244 280 244c121 0 174 -81 142 -218c-6 -25 -14 -49 -23 -73h-257c4 -46 38 -67 102 -67
c35 0 70 6 108 18l8 -114c-59 -21 -116 -32 -168 -32zM306 348c-34 0 -60 -21 -77 -63h123c9 40 -7 63 -46 63z" />
    <glyph glyph-name="Edotaccent" unicode="&#x116;" horiz-adv-x="565" 
d="M435 747c-55 0 -83 40 -69 99c14 60 60 100 115 100s83 -40 69 -100c-14 -59 -60 -99 -115 -99zM61 0l160 694h463l-35 -152h-302l-26 -114h276l-35 -152h-276l-29 -124h302l-35 -152h-463z" />
    <glyph glyph-name="edotaccent" unicode="&#x117;" horiz-adv-x="463" 
d="M361 557c-53 0 -80 40 -66 99c14 60 59 100 112 100s79 -40 65 -100c-14 -59 -58 -99 -111 -99zM265 -10c-156 0 -231 92 -196 242c34 147 147 244 283 244c123 0 177 -81 145 -218c-6 -25 -14 -49 -23 -73h-262c4 -46 39 -67 104 -67c36 0 72 6 111 18l8 -114
c-59 -21 -117 -32 -170 -32zM310 348c-36 0 -63 -21 -80 -63h128c9 40 -8 63 -48 63z" />
    <glyph glyph-name="Eogonek" unicode="&#x118;" horiz-adv-x="565" 
d="M61 0l160 694h463l-35 -152h-302l-26 -114h276l-35 -152h-276l-29 -124h302l-35 -152c-63 -21 -107 -61 -117 -105c-6 -25 4 -46 27 -46c7 0 25 3 40 10l-9 -90c-29 -15 -65 -25 -102 -25c-82 0 -120 47 -104 116c14 61 64 112 134 140h-332z" />
    <glyph glyph-name="eogonek" unicode="&#x119;" horiz-adv-x="461" 
d="M261 -10c-154 0 -227 92 -192 242c34 147 146 244 282 244c122 0 176 -81 144 -218c-6 -25 -14 -49 -23 -73h-261c4 -46 39 -67 104 -67c35 0 71 6 110 18l7 -114c-8 -3 -14 -5 -22 -7c-59 -30 -98 -72 -107 -112c-8 -34 8 -54 27 -54c7 0 25 3 39 10l-9 -90
c-29 -16 -64 -26 -99 -26c-78 0 -111 50 -94 122c11 49 44 90 101 125h-7zM308 348c-35 0 -62 -21 -79 -63h127c9 40 -8 63 -48 63z" />
    <glyph glyph-name="Ecaron" unicode="&#x11a;" horiz-adv-x="565" 
d="M422 742l-109 136l114 90l74 -94l122 93l50 -58l-171 -167h-80zM61 0l160 694h463l-35 -152h-302l-26 -114h276l-35 -152h-276l-29 -124h302l-35 -152h-463z" />
    <glyph glyph-name="ecaron" unicode="&#x11b;" horiz-adv-x="457" 
d="M316 527l-95 148l108 98l65 -102l117 101l46 -63l-168 -182h-73zM261 -10c-154 0 -227 92 -192 242c34 147 146 244 280 244c121 0 174 -81 142 -218c-6 -25 -14 -49 -23 -73h-257c4 -46 38 -67 102 -67c35 0 70 6 108 18l8 -114c-59 -21 -116 -32 -168 -32zM306 348
c-34 0 -60 -21 -77 -63h123c9 40 -7 63 -46 63z" />
    <glyph glyph-name="Gcircumflex" unicode="&#x11c;" horiz-adv-x="660" 
d="M361 794l175 168h79l105 -137l-110 -91l-78 84l-120 -83zM359 -10c-203 0 -306 140 -258 349c50 217 230 365 459 365c73 0 144 -16 192 -44l-76 -136c-39 16 -101 27 -156 27c-131 0 -216 -69 -246 -198c-30 -132 23 -213 139 -213c36 0 69 7 94 20l24 105h-136l33 146
h290l-74 -322c-88 -66 -183 -99 -285 -99z" />
    <glyph glyph-name="gcircumflex" unicode="&#x11d;" horiz-adv-x="509" 
d="M206 578l171 184h73l95 -150l-109 -99l-68 92l-116 -91zM197 -10c-104 0 -158 93 -125 238c35 149 138 248 256 248c51 0 86 -20 105 -56l25 46h110l-109 -472c-31 -135 -152 -226 -300 -226c-53 0 -97 12 -140 37l58 128c32 -17 71 -27 106 -27c67 0 114 35 128 96l9 38
c-37 -32 -79 -50 -123 -50zM230 235c-15 -64 4 -101 49 -101c27 0 51 10 69 27l32 137c-10 22 -30 34 -57 34c-44 0 -79 -37 -93 -97z" />
    <glyph glyph-name="Gbreve" unicode="&#x11e;" horiz-adv-x="660" 
d="M505 741c-98 0 -161 58 -152 153l133 77c-8 -60 19 -100 67 -100c46 0 91 37 110 101l62 -56c-41 -107 -126 -175 -220 -175zM359 -10c-203 0 -306 140 -258 349c50 217 230 365 459 365c73 0 144 -16 192 -44l-76 -136c-39 16 -101 27 -156 27
c-131 0 -216 -69 -246 -198c-30 -132 23 -213 139 -213c36 0 69 7 94 20l24 105h-136l33 146h290l-74 -322c-88 -66 -183 -99 -285 -99z" />
    <glyph glyph-name="gbreve" unicode="&#x11f;" horiz-adv-x="509" 
d="M354 524c-92 0 -150 60 -140 157l131 90c-11 -70 11 -117 56 -117c43 0 86 43 108 118l57 -66c-41 -112 -124 -182 -212 -182zM197 -10c-104 0 -158 93 -125 238c35 149 138 248 256 248c51 0 86 -20 105 -56l25 46h110l-109 -472c-31 -135 -152 -226 -300 -226
c-53 0 -97 12 -140 37l58 128c32 -17 71 -27 106 -27c67 0 114 35 128 96l9 38c-37 -32 -79 -50 -123 -50zM230 235c-15 -64 4 -101 49 -101c27 0 51 10 69 27l32 137c-10 22 -30 34 -57 34c-44 0 -79 -37 -93 -97z" />
    <glyph glyph-name="Gdotaccent" unicode="&#x120;" horiz-adv-x="660" 
d="M490 747c-55 0 -83 40 -69 99c14 60 60 100 115 100s83 -40 69 -100c-14 -59 -60 -99 -115 -99zM359 -10c-203 0 -306 140 -258 349c50 217 230 365 459 365c73 0 144 -16 192 -44l-76 -136c-39 16 -101 27 -156 27c-131 0 -216 -69 -246 -198c-30 -132 23 -213 139 -213
c36 0 69 7 94 20l24 105h-136l33 146h290l-74 -322c-88 -66 -183 -99 -285 -99z" />
    <glyph glyph-name="gdotaccent" unicode="&#x121;" horiz-adv-x="514" 
d="M364 557c-53 0 -79 40 -65 99c14 60 58 100 111 100s79 -40 65 -100c-14 -59 -58 -99 -111 -99zM200 -10c-106 0 -161 93 -128 238c35 149 140 248 260 248c52 0 87 -20 106 -56l26 46h109l-109 -472c-31 -135 -153 -226 -303 -226c-53 0 -99 12 -142 37l58 128
c33 -17 73 -27 109 -27c69 0 117 35 131 96l9 38c-38 -32 -82 -50 -126 -50zM230 235c-15 -64 5 -101 52 -101c28 0 52 10 71 27l32 137c-11 22 -31 34 -59 34c-46 0 -82 -37 -96 -97z" />
    <glyph glyph-name="uni0122" unicode="&#x122;" horiz-adv-x="660" 
d="M359 -10c-203 0 -306 140 -258 349c50 217 230 365 459 365c73 0 144 -16 192 -44l-76 -136c-39 16 -101 27 -156 27c-131 0 -216 -69 -246 -198c-30 -132 23 -213 139 -213c36 0 69 7 94 20l24 105h-136l33 146h290l-74 -322c-88 -66 -183 -99 -285 -99zM174 -227
c25 40 51 105 66 171h149c-14 -60 -51 -120 -106 -171h-109z" />
    <glyph glyph-name="uni0123" unicode="&#x123;" horiz-adv-x="514" 
d="M487 730c-20 -33 -43 -93 -59 -162h-149c17 73 43 124 83 162h125zM200 -10c-106 0 -161 93 -128 238c35 149 139 248 259 248c51 0 88 -20 107 -56l25 46h109l-108 -472c-31 -135 -153 -226 -303 -226c-53 0 -99 12 -142 37l58 128c32 -17 74 -27 109 -27
c68 0 116 35 130 96l9 38c-38 -32 -81 -50 -125 -50zM230 235c-15 -64 5 -101 52 -101c27 0 52 10 71 27l31 137c-11 22 -31 34 -58 34c-46 0 -82 -37 -96 -97z" />
    <glyph glyph-name="Hcircumflex" unicode="&#x124;" horiz-adv-x="699" 
d="M366 794l175 168h79l105 -137l-110 -91l-78 84l-120 -83zM61 0l160 694h164l-61 -264h250l61 264h164l-161 -694h-163l63 274h-250l-63 -274h-164z" />
    <glyph glyph-name="hcircumflex" unicode="&#x125;" horiz-adv-x="511" 
d="M310 831l168 176h73l98 -144l-108 -95l-70 88l-114 -87zM47 0l167 726h152l-71 -306c40 35 83 52 128 52c98 0 140 -72 112 -193l-64 -279h-154l57 246c12 51 -1 76 -44 76c-22 0 -42 -7 -64 -27l-68 -295h-151z" />
    <glyph glyph-name="Hbar" unicode="&#x126;" horiz-adv-x="701" 
d="M62 0l115 498h-57l31 135h57l14 61h164l-14 -61h250l14 61h164l-14 -61h56l-31 -135h-56l-115 -498h-164l63 274h-250l-63 -274h-164zM325 430h250l16 68h-250z" />
    <glyph glyph-name="hbar" unicode="&#x127;" horiz-adv-x="507" 
d="M46 0l121 525h-56l24 107h57l25 107h151l-25 -107h100l-24 -107h-101l-24 -105c40 35 84 52 129 52c98 0 140 -72 112 -193l-65 -279h-154l57 246c12 51 0 76 -43 76c-22 0 -43 -7 -65 -27l-68 -295h-151z" />
    <glyph glyph-name="Itilde" unicode="&#x128;" horiz-adv-x="290" 
d="M236 749l-93 25c34 94 99 156 163 156c48 0 76 -42 102 -42c17 0 35 14 50 44l91 -27c-31 -91 -98 -149 -168 -149c-54 0 -68 40 -96 40c-14 0 -33 -16 -49 -47zM63 0l160 694h164l-160 -694h-164z" />
    <glyph glyph-name="itilde" unicode="&#x129;" horiz-adv-x="244" 
d="M169 551l-84 25c33 94 95 156 155 156c46 0 70 -42 95 -42c16 0 33 14 48 44l83 -27c-31 -91 -94 -149 -160 -149c-51 0 -64 40 -90 40c-13 0 -32 -16 -47 -47zM48 0l113 490h154l-113 -490h-154z" />
    <glyph glyph-name="Imacron" unicode="&#x12a;" horiz-adv-x="287" 
d="M189 767l31 135h263l-31 -135h-263zM62 0l160 694h164l-160 -694h-164z" />
    <glyph glyph-name="imacron" unicode="&#x12b;" horiz-adv-x="251" 
d="M141 577l31 136h237l-31 -136h-237zM49 0l113 490h154l-113 -490h-154z" />
    <glyph glyph-name="Ibreve" unicode="&#x12c;" horiz-adv-x="290" 
d="M306 741c-98 0 -161 58 -152 153l133 77c-8 -60 19 -100 67 -100c46 0 91 37 110 101l62 -56c-41 -107 -126 -175 -220 -175zM63 0l161 694h163l-160 -694h-164z" />
    <glyph glyph-name="ibreve" unicode="&#x12d;" horiz-adv-x="245" 
d="M251 541c-91 0 -150 58 -140 153l124 77c-9 -60 17 -100 63 -100c44 0 86 37 105 101l57 -56c-39 -107 -121 -175 -209 -175zM48 0l113 490h154l-113 -490h-154z" />
    <glyph glyph-name="Iogonek" unicode="&#x12e;" horiz-adv-x="286" 
d="M62 0l160 694h164l-160 -694c-46 -20 -84 -60 -94 -105c-6 -28 -2 -46 12 -46c10 0 22 4 29 8l-8 -88c-27 -16 -61 -25 -92 -25c-73 0 -105 47 -89 116c14 61 60 112 121 140h-43z" />
    <glyph glyph-name="iogonek" unicode="&#x12f;" horiz-adv-x="255" 
d="M257 557c-53 0 -80 40 -66 99c14 60 59 100 112 100s79 -40 65 -100c-14 -59 -58 -99 -111 -99zM51 0l113 490h154l-113 -490c-45 -20 -81 -60 -91 -105c-6 -28 -2 -46 11 -46c10 0 22 4 28 8l-9 -88c-26 -16 -59 -25 -88 -25c-69 0 -100 47 -84 116
c14 61 58 112 117 140h-38z" />
    <glyph glyph-name="Idotaccent" unicode="&#x130;" horiz-adv-x="286" 
d="M289 747c-55 0 -83 40 -69 99c14 60 60 100 115 100s83 -40 69 -100c-14 -59 -60 -99 -115 -99zM62 0l160 694h164l-161 -694h-163z" />
    <glyph glyph-name="dotlessi" unicode="&#x131;" horiz-adv-x="256" 
d="M49 0l108 466h154l-108 -466h-154z" />
    <glyph glyph-name="Jcircumflex" unicode="&#x134;" horiz-adv-x="424" 
d="M305 794l175 168h79l105 -137l-111 -91l-77 84l-120 -83zM145 -10c-53 0 -100 12 -135 36l77 136c22 -11 52 -19 78 -19c51 0 84 30 98 90l106 461h162l-104 -451c-37 -160 -140 -253 -282 -253z" />
    <glyph glyph-name="jcircumflex" unicode="&#x135;" horiz-adv-x="245" 
d="M103 594l166 168h75l96 -137l-103 -91l-73 84l-115 -83zM-33 -232l-21 94c53 38 93 99 108 164l107 464h154l-107 -464c-26 -114 -122 -217 -241 -258z" />
    <glyph glyph-name="uni0136" unicode="&#x136;" horiz-adv-x="636" 
d="M62 0l160 694h166l-73 -313l284 313h194l-295 -320l150 -374h-216l-125 343l-80 -343h-165zM161 -227c25 40 51 105 66 171h149c-14 -60 -51 -120 -106 -171h-109z" />
    <glyph glyph-name="uni0137" unicode="&#x137;" horiz-adv-x="495" 
d="M47 0l170 739h152l-108 -468l178 219h171l-184 -219l85 -271h-189l-68 241l-56 -241h-151zM122 -227c24 40 49 105 64 171h143c-14 -60 -49 -120 -103 -171h-104z" />
    <glyph glyph-name="kgreenlandic" unicode="&#x138;" horiz-adv-x="489" 
d="M47 0l107 466h154l-46 -199l167 199h170l-182 -209l88 -257h-188l-66 218l-50 -218h-154z" />
    <glyph glyph-name="Lacute" unicode="&#x139;" horiz-adv-x="497" 
d="M295 734l-42 93l202 156l61 -134zM61 0l160 694h161l-125 -541h267l-35 -153h-428z" />
    <glyph glyph-name="lacute" unicode="&#x13a;" horiz-adv-x="272" 
d="M277 779l-39 93l196 156l52 -134zM180 -8c-90 0 -129 56 -106 155l136 592h152l-132 -571c-7 -31 1 -47 23 -47c5 0 15 1 24 4l3 -114c-32 -12 -68 -19 -100 -19z" />
    <glyph glyph-name="uni013B" unicode="&#x13b;" horiz-adv-x="497" 
d="M61 0l160 694h161l-125 -541h267l-35 -153h-428zM96 -227c25 40 51 105 66 171h149c-14 -60 -51 -120 -106 -171h-109z" />
    <glyph glyph-name="uni013C" unicode="&#x13c;" horiz-adv-x="273" 
d="M181 -8c-91 0 -130 56 -107 155l136 592h152l-132 -571c-7 -31 1 -47 24 -47c5 0 15 1 24 4l3 -114c-32 -12 -67 -19 -100 -19zM1 -227c24 40 49 105 64 171h143c-14 -60 -49 -120 -103 -171h-104z" />
    <glyph glyph-name="Lcaron" unicode="&#x13d;" horiz-adv-x="497" 
d="M490 535l-89 15l57 203l123 -17zM61 0l160 694h161l-125 -541h267l-35 -153h-428z" />
    <glyph glyph-name="lcaron" unicode="&#x13e;" horiz-adv-x="308" 
d="M433 535l-82 15l56 203l113 -17zM180 -8c-90 0 -129 56 -106 155l136 592h152l-132 -571c-7 -31 1 -47 23 -47c5 0 15 1 24 4l3 -114c-32 -12 -68 -19 -100 -19z" />
    <glyph glyph-name="Ldot" unicode="&#x13f;" horiz-adv-x="497" 
d="M61 0l160 694h161l-125 -541h267l-35 -153h-428zM460 294c-60 0 -88 46 -74 106c15 64 64 110 124 110s88 -46 73 -110c-14 -60 -63 -106 -123 -106z" />
    <glyph glyph-name="ldot" unicode="&#x140;" horiz-adv-x="275" 
d="M182 -8c-92 0 -131 56 -108 155l136 592h152l-132 -571c-7 -31 2 -47 25 -47c5 0 14 1 24 4l4 -114c-32 -12 -68 -19 -101 -19zM325 312c-36 0 -53 27 -44 67c10 42 40 69 76 69s53 -27 43 -69c-9 -40 -39 -67 -75 -67z" />
    <glyph glyph-name="Lslash" unicode="&#x141;" horiz-adv-x="500" 
d="M63 0l58 250l-45 -23l-35 113l114 58l68 296h161l-46 -202l110 57l35 -114l-180 -92l-44 -190h267l-35 -153h-428z" />
    <glyph glyph-name="lslash" unicode="&#x142;" horiz-adv-x="267" 
d="M179 -8c-90 0 -129 56 -106 155l27 116l-23 -12l-28 106l83 44l78 338h151l-58 -249l52 28l24 -107l-107 -58l-43 -185c-7 -31 1 -47 23 -47c5 0 15 1 24 4l3 -114c-32 -12 -68 -19 -100 -19z" />
    <glyph glyph-name="Nacute" unicode="&#x143;" horiz-adv-x="722" 
d="M515 734l-42 93l203 156l60 -134zM61 0l160 694h184l156 -452l107 452h154l-160 -694h-181l-162 456l-106 -456h-152z" />
    <glyph glyph-name="nacute" unicode="&#x144;" horiz-adv-x="513" 
d="M384 511l-52 72l146 195l86 -111zM47 0l107 466h111l10 -64c45 45 99 70 153 70c97 0 137 -75 108 -202l-63 -270h-153l56 246c12 51 0 76 -40 76c-23 0 -45 -9 -67 -25l-68 -297h-154z" />
    <glyph glyph-name="uni0145" unicode="&#x145;" horiz-adv-x="722" 
d="M61 0l160 694h184l156 -452l107 452h154l-160 -694h-181l-162 456l-106 -456h-152zM209 -227c25 40 50 105 65 171h150c-14 -60 -52 -120 -107 -171h-108z" />
    <glyph glyph-name="uni0146" unicode="&#x146;" horiz-adv-x="518" 
d="M44 -10l110 476h111l10 -64c46 45 101 70 156 70c99 0 139 -76 109 -206l-64 -276h-154l59 254c12 53 -1 78 -43 78c-24 0 -47 -9 -69 -25l-71 -307h-154zM114 -227c24 38 48 101 63 164h143c-13 -57 -48 -115 -101 -164h-105z" />
    <glyph glyph-name="Ncaron" unicode="&#x147;" horiz-adv-x="722" 
d="M493 742l-109 136l113 90l75 -94l121 93l50 -58l-170 -167h-80zM61 0l160 694h184l156 -452l107 452h154l-160 -694h-181l-162 456l-106 -456h-152z" />
    <glyph glyph-name="ncaron" unicode="&#x148;" horiz-adv-x="513" 
d="M347 527l-99 148l112 98l65 -102l117 101l46 -63l-167 -182h-74zM47 0l107 466h111l10 -64c45 45 99 70 153 70c97 0 137 -75 108 -202l-63 -270h-153l56 246c12 51 0 76 -40 76c-23 0 -45 -9 -67 -25l-68 -297h-154z" />
    <glyph glyph-name="Eng" unicode="&#x14a;" horiz-adv-x="727" 
d="M61 0l160 694h179l171 -444l104 444h152l-164 -707c-25 -108 -100 -200 -204 -230l-29 96c37 20 66 65 79 122l1 4l-195 464l-102 -443h-152z" />
    <glyph glyph-name="eng" unicode="&#x14b;" horiz-adv-x="513" 
d="M44 -10l110 476h111l10 -64c45 45 97 70 150 70c96 0 140 -72 114 -186l-70 -306c-22 -95 -103 -178 -202 -207l-26 92c32 18 61 58 71 101l64 278c12 53 0 78 -40 78c-23 0 -45 -9 -67 -25l-71 -307h-154z" />
    <glyph glyph-name="Omacron" unicode="&#x14c;" horiz-adv-x="705" 
d="M366 769l31 136h335l-31 -136h-335zM344 -10c-193 0 -291 140 -242 351c50 218 217 363 417 363c195 0 293 -141 244 -353c-50 -217 -217 -361 -419 -361zM389 140c95 0 176 80 204 201c30 128 -18 213 -119 213c-93 0 -174 -81 -202 -203c-29 -127 17 -211 117 -211z
" />
    <glyph glyph-name="omacron" unicode="&#x14d;" horiz-adv-x="498" 
d="M224 577l31 136h314l-31 -136h-314zM239 -10c-138 0 -205 92 -172 233c35 151 155 253 300 253c137 0 204 -93 171 -235c-35 -150 -155 -251 -299 -251zM282 134c47 0 82 34 96 94c15 65 -5 104 -55 104c-47 0 -83 -37 -97 -98c-14 -62 6 -100 56 -100z" />
    <glyph glyph-name="Obreve" unicode="&#x14e;" horiz-adv-x="705" 
d="M514 741c-98 0 -162 58 -153 153l133 77c-8 -60 19 -100 67 -100c46 0 91 37 110 101l63 -56c-41 -107 -126 -175 -220 -175zM344 -10c-193 0 -291 140 -242 351c50 218 217 363 417 363c195 0 293 -141 244 -353c-50 -217 -217 -361 -419 -361zM389 140
c95 0 176 80 204 201c30 128 -18 213 -119 213c-93 0 -174 -81 -202 -203c-29 -127 17 -211 117 -211z" />
    <glyph glyph-name="obreve" unicode="&#x14f;" horiz-adv-x="498" 
d="M369 524c-92 0 -150 60 -140 157l131 90c-11 -70 11 -117 56 -117c43 0 85 43 107 118l57 -66c-41 -112 -123 -182 -211 -182zM239 -10c-138 0 -205 92 -172 233c35 151 155 253 300 253c137 0 204 -93 171 -235c-35 -150 -155 -251 -299 -251zM282 134c47 0 82 34 96 94
c15 65 -5 104 -55 104c-47 0 -83 -37 -97 -98c-14 -62 6 -100 56 -100z" />
    <glyph glyph-name="Ohungarumlaut" unicode="&#x150;" horiz-adv-x="705" 
d="M379 739l-53 73l163 174l84 -115zM616 739l-53 73l164 174l84 -115zM344 -10c-193 0 -291 140 -242 351c50 218 217 363 417 363c195 0 293 -141 244 -353c-50 -217 -217 -361 -419 -361zM389 140c95 0 176 80 204 201c30 128 -18 213 -119 213c-93 0 -174 -81 -202 -203
c-29 -127 17 -211 117 -211z" />
    <glyph glyph-name="ohungarumlaut" unicode="&#x151;" horiz-adv-x="498" 
d="M289 505l-69 57l125 214l102 -86zM477 505l-67 57l124 213l105 -85zM239 -10c-138 0 -205 92 -172 233c35 151 155 253 300 253c137 0 204 -93 171 -235c-35 -150 -155 -251 -299 -251zM282 134c47 0 82 34 96 94c15 65 -5 104 -55 104c-47 0 -83 -37 -97 -98
c-14 -62 6 -100 56 -100z" />
    <glyph glyph-name="OE" unicode="&#x152;" horiz-adv-x="968" 
d="M373 -10c-212 0 -320 140 -271 351c50 218 227 363 444 363c33 0 64 -3 91 -10h451l-35 -152h-302l-26 -112h276l-35 -152h-276l-30 -126h303l-35 -152h-459c-31 -7 -63 -10 -96 -10zM272 351c-29 -127 29 -211 144 -211c31 0 59 6 85 17l87 376c-23 14 -53 21 -86 21
c-112 0 -202 -81 -230 -203z" />
    <glyph glyph-name="oe" unicode="&#x153;" horiz-adv-x="777" 
d="M224 -10c-126 0 -188 95 -156 235c34 147 150 251 281 251c64 0 109 -26 132 -74c53 47 118 74 187 74c119 0 176 -82 144 -219c-6 -25 -14 -49 -23 -73h-262c4 -46 39 -66 104 -66c36 0 72 7 112 20l7 -116c-60 -21 -120 -32 -169 -32c-82 0 -143 31 -176 83
c-49 -53 -113 -83 -181 -83zM625 348c-35 0 -63 -21 -80 -64h128c10 42 -12 64 -48 64zM282 134c45 0 83 37 96 94c14 62 -8 104 -55 104c-45 0 -83 -38 -97 -98s9 -100 56 -100z" />
    <glyph glyph-name="Racute" unicode="&#x154;" horiz-adv-x="615" 
d="M455 734l-42 93l202 156l60 -134zM61 0l160 694h266c152 0 224 -76 193 -210c-22 -94 -83 -169 -165 -211l97 -273h-193l-71 237h-71l-55 -237h-161zM430 543h-83l-36 -159h105c47 0 80 29 91 76c12 52 -17 83 -77 83z" />
    <glyph glyph-name="racute" unicode="&#x155;" horiz-adv-x="380" 
d="M314 511l-55 73l149 194l82 -111zM48 0l107 466h120l-4 -76c43 51 96 80 146 80c26 0 53 -8 70 -22l-67 -147c-16 10 -40 17 -62 17c-32 0 -65 -15 -93 -41l-63 -277h-154z" />
    <glyph glyph-name="uni0156" unicode="&#x156;" horiz-adv-x="615" 
d="M61 0l160 694h266c152 0 224 -76 193 -210c-22 -94 -83 -169 -165 -211l97 -273h-193l-71 237h-71l-55 -237h-161zM430 543h-83l-36 -159h105c47 0 80 29 91 76c12 52 -17 83 -77 83zM148 -227c25 40 51 105 66 171h149c-14 -60 -51 -120 -106 -171h-109z" />
    <glyph glyph-name="uni0157" unicode="&#x157;" horiz-adv-x="379" 
d="M45 -10l110 476h120l-4 -76c43 51 96 80 146 80c26 0 53 -8 70 -22l-68 -148c-16 11 -39 18 -61 18c-32 0 -65 -16 -93 -43l-66 -285h-154zM-22 -227c24 38 47 101 62 164h143c-13 -57 -49 -115 -102 -164h-103z" />
    <glyph glyph-name="Rcaron" unicode="&#x158;" horiz-adv-x="615" 
d="M432 742l-109 136l114 90l74 -94l122 93l50 -58l-171 -167h-80zM61 0l160 694h266c152 0 224 -76 193 -210c-22 -94 -83 -169 -165 -211l97 -273h-193l-71 237h-71l-55 -237h-161zM430 543h-83l-36 -159h105c47 0 80 29 91 76c12 52 -17 83 -77 83z" />
    <glyph glyph-name="rcaron" unicode="&#x159;" horiz-adv-x="377" 
d="M275 527l-99 148l110 98l68 -102l116 101l44 -63l-164 -182h-75zM47 0l108 466h120l-4 -76c43 51 96 80 146 80c26 0 53 -8 70 -22l-68 -147c-16 10 -40 17 -62 17c-32 0 -64 -15 -92 -41l-64 -277h-154z" />
    <glyph glyph-name="Sacute" unicode="&#x15a;" horiz-adv-x="542" 
d="M418 734l-42 93l203 156l60 -134zM252 -10c-80 0 -160 23 -219 55l78 142c57 -29 125 -41 184 -41c62 0 94 18 101 50c25 107 -307 40 -253 276c32 140 165 232 329 232c66 0 134 -15 182 -41l-77 -138c-42 17 -97 27 -149 27c-63 0 -104 -19 -112 -54
c-24 -103 313 -26 254 -281c-32 -139 -147 -227 -318 -227z" />
    <glyph glyph-name="sacute" unicode="&#x15b;" horiz-adv-x="409" 
d="M328 510l-52 73l146 195l82 -111zM190 -10c-61 0 -121 14 -164 37l59 120c40 -16 91 -27 128 -27s62 12 66 30c13 56 -220 -6 -179 171c23 100 106 155 236 155c50 0 103 -9 141 -24l-56 -124c-39 11 -80 18 -113 18c-41 0 -63 -10 -67 -26c-12 -52 224 1 184 -174
c-23 -99 -108 -156 -235 -156z" />
    <glyph glyph-name="Scircumflex" unicode="&#x15c;" horiz-adv-x="542" 
d="M280 794l175 168h79l105 -137l-110 -91l-77 84l-121 -83zM252 -10c-80 0 -160 23 -219 55l78 142c57 -29 125 -41 184 -41c62 0 94 18 101 50c25 107 -307 40 -253 276c32 140 165 232 329 232c66 0 134 -15 182 -41l-77 -138c-42 17 -97 27 -149 27
c-63 0 -104 -19 -112 -54c-24 -103 313 -26 254 -281c-32 -139 -147 -227 -318 -227z" />
    <glyph glyph-name="scircumflex" unicode="&#x15d;" horiz-adv-x="409" 
d="M181 578l167 184h73l91 -150l-105 -99l-68 92l-114 -91zM190 -10c-61 0 -121 14 -164 37l59 120c40 -16 91 -27 128 -27s62 12 66 30c13 56 -220 -6 -179 171c23 100 106 155 236 155c50 0 103 -9 141 -24l-56 -124c-39 11 -80 18 -113 18c-41 0 -63 -10 -67 -26
c-12 -52 224 1 184 -174c-23 -99 -108 -156 -235 -156z" />
    <glyph glyph-name="Scedilla" unicode="&#x15e;" horiz-adv-x="542" 
d="M202 -258c-40 0 -78 8 -101 23l37 92c17 -9 48 -15 72 -15c27 0 44 8 47 21c5 21 -20 35 -79 41l35 88c-67 6 -130 26 -180 53l78 142c57 -29 125 -41 184 -41c62 0 94 18 101 50c25 107 -307 40 -253 276c32 140 165 232 329 232c66 0 134 -15 182 -41l-77 -138
c-42 17 -97 27 -149 27c-63 0 -104 -19 -112 -54c-24 -103 313 -26 254 -281c-27 -119 -116 -201 -248 -222l-16 -39c65 -11 90 -43 78 -95c-17 -73 -87 -119 -182 -119z" />
    <glyph glyph-name="scedilla" unicode="&#x15f;" horiz-adv-x="413" 
d="M140 -258c-37 0 -74 8 -95 23l36 92c16 -9 45 -15 68 -15c25 0 42 8 45 21c5 21 -19 35 -75 41l34 88c-48 4 -93 17 -127 35l59 120c41 -16 93 -27 130 -27s64 12 68 30c13 56 -224 -6 -183 171c23 100 107 155 238 155c51 0 105 -9 143 -24l-57 -124
c-40 11 -80 18 -114 18c-42 0 -65 -10 -69 -26c-12 -52 228 1 188 -174c-19 -81 -80 -134 -172 -150l-16 -40c60 -11 82 -43 70 -95c-17 -73 -82 -119 -171 -119z" />
    <glyph glyph-name="Scaron" unicode="&#x160;" horiz-adv-x="542" 
d="M396 742l-109 136l114 90l74 -94l122 93l49 -58l-170 -167h-80zM252 -10c-80 0 -160 23 -219 55l78 142c57 -29 125 -41 184 -41c62 0 94 18 101 50c25 107 -307 40 -253 276c32 140 165 232 329 232c66 0 134 -15 182 -41l-77 -138c-42 17 -97 27 -149 27
c-63 0 -104 -19 -112 -54c-24 -103 313 -26 254 -281c-32 -139 -147 -227 -318 -227z" />
    <glyph glyph-name="scaron" unicode="&#x161;" horiz-adv-x="409" 
d="M291 527l-95 148l108 98l65 -102l116 101l43 -63l-163 -182h-74zM190 -10c-61 0 -121 14 -164 37l59 120c40 -16 91 -27 128 -27s62 12 66 30c13 56 -220 -6 -179 171c23 100 106 155 236 155c50 0 103 -9 141 -24l-56 -124c-39 11 -80 18 -113 18c-41 0 -63 -10 -67 -26
c-12 -52 224 1 184 -174c-23 -99 -108 -156 -235 -156z" />
    <glyph glyph-name="uni0162" unicode="&#x162;" horiz-adv-x="576" 
d="M208 0l125 542h-199l35 152h558l-35 -152h-201l-125 -542h-23l-19 -44c65 -11 91 -43 79 -95c-17 -73 -87 -119 -182 -119c-40 0 -79 8 -102 23l38 92c17 -9 48 -15 72 -15c27 0 44 8 47 21c5 21 -20 35 -79 41l39 96h-28z" />
    <glyph glyph-name="uni0163" unicode="&#x163;" horiz-adv-x="345" 
d="M128 -258c-38 0 -74 8 -95 23l36 92c17 -9 47 -15 70 -15c26 0 42 8 45 21c5 21 -19 35 -75 41l43 108c-49 26 -67 79 -50 152l39 166h-60l31 136h60l38 165h151l-38 -165h97l-32 -136h-96l-36 -155c-7 -32 9 -52 45 -52c11 0 24 2 36 6v-121c-33 -10 -65 -15 -93 -16
l-14 -36c60 -11 83 -43 71 -95c-17 -73 -84 -119 -173 -119z" />
    <glyph glyph-name="Tcaron" unicode="&#x164;" horiz-adv-x="576" 
d="M419 742l-109 136l114 90l74 -94l122 93l50 -58l-171 -167h-80zM208 0l125 542h-199l35 152h558l-35 -152h-201l-125 -542h-158z" />
    <glyph glyph-name="tcaron" unicode="&#x165;" horiz-adv-x="343" 
d="M448 515l-82 16l61 222l113 -19zM236 -8c-111 0 -159 64 -134 172l39 166h-60l31 136h60l35 154h152l-36 -154h97l-32 -136h-96l-36 -155c-7 -32 9 -52 45 -52c11 0 24 2 36 6v-121c-37 -11 -71 -16 -101 -16z" />
    <glyph glyph-name="Tbar" unicode="&#x166;" horiz-adv-x="576" 
d="M208 0l62 267h-103l28 120h102l36 155h-199l35 152h558l-35 -152h-201l-35 -155h103l-28 -120h-103l-62 -267h-158z" />
    <glyph glyph-name="tbar" unicode="&#x167;" horiz-adv-x="351" 
d="M45 176l25 107h62l11 47h-62l31 136h62l38 165h152l-39 -165h101l-31 -136h-101l-11 -47h101l-25 -107h-100l-2 -6c-7 -29 12 -47 49 -47c12 0 25 2 37 6v-121c-37 -11 -72 -16 -102 -16c-113 0 -162 64 -137 172l3 12h-62z" />
    <glyph glyph-name="Utilde" unicode="&#x168;" horiz-adv-x="657" 
d="M420 749l-93 25c34 94 99 156 163 156c48 0 76 -42 102 -42c17 0 35 14 50 44l91 -27c-31 -91 -98 -149 -168 -149c-54 0 -68 40 -96 40c-14 0 -33 -16 -49 -47zM319 -10c-171 0 -249 108 -208 287l97 417h160l-94 -407c-21 -92 15 -147 98 -147c71 0 124 47 142 127
l98 427h159l-94 -407c-42 -180 -182 -297 -358 -297z" />
    <glyph glyph-name="utilde" unicode="&#x169;" horiz-adv-x="509" 
d="M293 551l-88 25c33 94 95 156 155 156c45 0 71 -42 95 -42c16 0 33 14 48 44l87 -27c-31 -91 -94 -149 -160 -149c-51 0 -64 40 -90 40c-13 0 -32 -16 -47 -47zM305 490l-61 -265c-8 -36 -12 -81 37 -81c22 0 44 10 64 25l74 321h154l-113 -490h-111l-10 64
c-45 -45 -99 -70 -152 -70c-91 0 -133 74 -106 192l70 304h154z" />
    <glyph glyph-name="Umacron" unicode="&#x16a;" horiz-adv-x="657" 
d="M342 769l31 136h335l-31 -136h-335zM319 -10c-171 0 -249 108 -208 287l97 417h160l-94 -407c-21 -92 15 -147 98 -147c71 0 124 47 142 127l98 427h159l-94 -407c-42 -180 -182 -297 -358 -297z" />
    <glyph glyph-name="umacron" unicode="&#x16b;" horiz-adv-x="509" 
d="M223 577l31 136h316l-31 -136h-316zM305 490l-61 -265c-8 -36 -12 -81 37 -81c22 0 44 10 64 25l74 321h154l-113 -490h-111l-10 64c-45 -45 -99 -70 -152 -70c-91 0 -133 74 -106 192l70 304h154z" />
    <glyph glyph-name="Ubreve" unicode="&#x16c;" horiz-adv-x="657" 
d="M490 741c-98 0 -162 58 -153 153l134 77c-8 -60 19 -100 67 -100c46 0 90 37 109 101l63 -56c-41 -107 -126 -175 -220 -175zM319 -10c-171 0 -249 108 -208 287l97 417h160l-94 -407c-21 -92 15 -147 98 -147c71 0 124 47 142 127l98 427h159l-94 -407
c-42 -180 -182 -297 -358 -297z" />
    <glyph glyph-name="ubreve" unicode="&#x16d;" horiz-adv-x="509" 
d="M373 541c-92 0 -152 58 -142 153l128 77c-9 -60 16 -100 61 -100c43 0 85 37 104 101l59 -56c-40 -107 -121 -175 -210 -175zM305 490l-61 -265c-8 -36 -12 -81 37 -81c22 0 44 10 64 25l74 321h154l-113 -490h-111l-10 64c-45 -45 -99 -70 -152 -70
c-91 0 -133 74 -106 192l70 304h154z" />
    <glyph glyph-name="Uring" unicode="&#x16e;" horiz-adv-x="657" 
d="M500 739c-72 0 -108 52 -90 131c18 77 78 128 151 128c72 0 109 -50 91 -126c-18 -80 -79 -133 -152 -133zM521 825c23 0 44 18 50 45c6 25 -7 42 -31 42c-23 0 -43 -16 -49 -40c-6 -28 6 -47 30 -47zM319 -10c-171 0 -249 108 -208 287l97 417h160l-94 -407
c-21 -92 15 -147 98 -147c71 0 124 47 142 127l98 427h159l-94 -407c-42 -180 -182 -297 -358 -297z" />
    <glyph glyph-name="uring" unicode="&#x16f;" horiz-adv-x="512" 
d="M375 547c-68 0 -101 52 -83 131c18 77 75 128 144 128c68 0 103 -50 85 -126c-18 -80 -77 -133 -146 -133zM396 633c21 0 41 18 47 45c6 25 -6 42 -28 42c-21 0 -40 -16 -46 -40c-6 -28 5 -47 27 -47zM305 490l-61 -265c-8 -36 -11 -81 38 -81c23 0 44 10 64 25l75 321
h153l-113 -490h-111l-9 64c-46 -45 -100 -70 -153 -70c-92 0 -134 74 -107 192l70 304h154z" />
    <glyph glyph-name="Uhungarumlaut" unicode="&#x170;" horiz-adv-x="657" 
d="M356 739l-54 73l164 174l84 -115zM593 739l-54 73l164 174l84 -115zM319 -10c-171 0 -249 108 -208 287l97 417h160l-94 -407c-21 -92 15 -147 98 -147c71 0 124 47 142 127l98 427h159l-94 -407c-42 -180 -182 -297 -358 -297z" />
    <glyph glyph-name="uhungarumlaut" unicode="&#x171;" horiz-adv-x="508" 
d="M293 527l-70 52l122 197l104 -79zM483 527l-68 52l120 196l106 -78zM305 490l-61 -265c-8 -36 -12 -81 37 -81c22 0 44 10 64 25l74 321h154l-113 -490h-111l-10 64c-45 -45 -99 -70 -152 -70c-91 0 -133 74 -106 192l70 304h154z" />
    <glyph glyph-name="Uogonek" unicode="&#x172;" horiz-adv-x="657" 
d="M301 -256c-82 0 -119 50 -102 122c11 49 45 93 93 125c-152 11 -220 117 -181 286l97 417h160l-94 -407c-21 -92 15 -147 98 -147c71 0 124 47 142 127l98 427h159l-94 -407c-30 -131 -114 -229 -224 -272c-58 -28 -97 -71 -107 -114c-6 -28 3 -52 26 -52c7 0 25 4 40 11
l-9 -90c-29 -16 -68 -26 -102 -26z" />
    <glyph glyph-name="uogonek" unicode="&#x173;" horiz-adv-x="513" 
d="M305 -256c-78 0 -113 47 -97 116c15 65 68 118 143 145l-9 59c-46 -45 -100 -70 -153 -70c-92 0 -136 71 -110 183l67 289h153l-56 -247c-8 -33 -11 -75 39 -75c23 0 45 9 65 23l69 299h154l-108 -466c-60 -21 -103 -61 -113 -105c-6 -25 4 -46 26 -46c7 0 24 3 38 10
l-9 -90c-27 -15 -63 -25 -99 -25z" />
    <glyph glyph-name="Wcircumflex" unicode="&#x174;" horiz-adv-x="954" 
d="M491 794l175 168h79l105 -137l-110 -91l-78 84l-120 -83zM197 0l-37 694h182l-2 -478l209 474h176l3 -465l224 469h162l-359 -694h-172l-10 444l-199 -444h-177z" />
    <glyph glyph-name="wcircumflex" unicode="&#x175;" horiz-adv-x="719" 
d="M343 594l164 168h72l94 -137l-103 -91l-69 84l-113 -83zM147 0l-41 490h160l-1 -314l143 312h139l2 -303l148 305h144l-266 -490h-147l-8 294l-135 -294h-138z" />
    <glyph glyph-name="Ycircumflex" unicode="&#x176;" horiz-adv-x="608" 
d="M319 794l174 168h79l105 -137l-110 -91l-77 84l-121 -83zM228 0l58 251l-144 443h190l75 -292l198 292h181l-340 -447l-57 -247h-161z" />
    <glyph glyph-name="ycircumflex" unicode="&#x177;" horiz-adv-x="453" 
d="M205 594l163 168h73l94 -137l-103 -91l-70 84l-112 -83zM28 -217l126 217l-48 490h164l-1 -327l159 327h147l-272 -490l-115 -217h-160z" />
    <glyph glyph-name="Ydieresis" unicode="&#x178;" horiz-adv-x="608" 
d="M352 747c-55 0 -83 40 -69 99c14 60 60 100 115 100s83 -40 69 -100c-14 -59 -60 -99 -115 -99zM585 747c-55 0 -83 40 -69 99c14 60 60 100 115 100s83 -40 69 -100c-14 -59 -60 -99 -115 -99zM228 0l58 251l-144 443h190l75 -292l198 292h181l-340 -447l-57 -247h-161z
" />
    <glyph glyph-name="Zacute" unicode="&#x179;" horiz-adv-x="603" 
d="M462 734l-42 93l203 156l60 -134zM20 0l26 111l430 431h-314l35 152h539l-23 -103l-439 -439h342l-35 -152h-561z" />
    <glyph glyph-name="zacute" unicode="&#x17a;" horiz-adv-x="421" 
d="M335 511l-53 73l146 194l82 -111zM24 0l24 103l226 221h-175l33 142h364l-24 -104l-226 -221h186l-32 -141h-376z" />
    <glyph glyph-name="Zdotaccent" unicode="&#x17b;" horiz-adv-x="603" 
d="M453 747c-55 0 -83 40 -69 99c14 60 60 100 115 100s83 -40 69 -100c-14 -59 -60 -99 -115 -99zM20 0l26 111l430 431h-314l35 152h539l-23 -103l-439 -439h342l-35 -152h-561z" />
    <glyph glyph-name="zdotaccent" unicode="&#x17c;" horiz-adv-x="428" 
d="M342 557c-52 0 -79 40 -65 99c14 60 59 100 111 100s79 -40 65 -100c-14 -59 -59 -99 -111 -99zM24 0l24 103l230 221h-179l33 142h371l-24 -104l-230 -221h190l-33 -141h-382z" />
    <glyph glyph-name="Zcaron" unicode="&#x17d;" horiz-adv-x="603" 
d="M440 742l-109 136l113 90l74 -94l122 93l50 -58l-170 -167h-80zM20 0l26 111l430 431h-314l35 152h539l-23 -103l-439 -439h342l-35 -152h-561z" />
    <glyph glyph-name="zcaron" unicode="&#x17e;" horiz-adv-x="421" 
d="M297 527l-95 148l108 98l65 -102l116 101l43 -63l-163 -182h-74zM24 0l24 103l226 221h-175l33 142h364l-24 -104l-226 -221h186l-32 -141h-376z" />
    <glyph glyph-name="uni018F" unicode="&#x18f;" horiz-adv-x="687" 
d="M456 704c222 0 329 -133 278 -354c-50 -217 -217 -360 -412 -360c-174 0 -256 115 -216 290c10 44 23 90 38 134h426c-3 97 -62 140 -175 140c-59 0 -123 -13 -184 -37l-6 131c83 37 167 56 251 56zM369 140c86 0 145 40 176 132h-287c-21 -92 22 -132 111 -132z" />
    <glyph glyph-name="florin" unicode="&#x192;" horiz-adv-x="426" 
d="M39 -227l-25 92c32 18 60 58 70 101l84 364h-67l31 136h67l7 30c36 158 137 253 264 253c42 0 80 -9 103 -26l-63 -138c-20 15 -42 22 -61 22c-40 0 -71 -31 -84 -88l-12 -53h117l-31 -136h-117l-81 -352c-22 -94 -103 -176 -202 -205z" />
    <glyph glyph-name="Ohorn" unicode="&#x1a0;" horiz-adv-x="782" 
d="M344 -10c-193 0 -291 140 -242 351c50 218 217 363 417 363c96 0 169 -34 212 -94c30 5 57 40 68 89c8 35 6 67 -5 95h145c12 -30 12 -65 3 -102c-21 -90 -86 -150 -174 -170c11 -49 10 -107 -5 -171c-50 -217 -217 -361 -419 -361zM389 140c95 0 176 80 204 201
c30 128 -18 213 -119 213c-93 0 -174 -81 -202 -203c-29 -127 17 -211 117 -211z" />
    <glyph glyph-name="ohorn" unicode="&#x1a1;" horiz-adv-x="602" 
d="M239 -10c-138 0 -205 92 -172 233c35 151 155 253 300 253c80 0 135 -33 160 -90c24 14 45 48 56 96c9 40 10 76 0 108h138c10 -32 10 -70 1 -110c-23 -99 -90 -164 -178 -183c0 -19 -2 -38 -7 -59c-34 -148 -154 -248 -298 -248zM282 134c47 0 82 34 96 94
c15 65 -5 104 -55 104c-47 0 -83 -37 -97 -98c-14 -62 6 -100 56 -100z" />
    <glyph glyph-name="Uhorn" unicode="&#x1af;" horiz-adv-x="811" 
d="M319 -10c-171 0 -249 108 -208 287l97 417h160l-94 -407c-21 -92 15 -147 98 -147c71 0 124 47 142 127l98 427h159l-20 -85c33 0 65 36 77 90c8 35 6 67 -5 95h145c12 -30 13 -65 4 -102c-26 -112 -121 -177 -242 -177l-53 -228c-42 -180 -182 -297 -358 -297z" />
    <glyph glyph-name="uhorn" unicode="&#x1b0;" horiz-adv-x="643" 
d="M305 490l-61 -265c-8 -36 -12 -81 37 -81c22 0 44 10 64 25l74 321h154l-20 -85c30 1 60 37 72 90c8 35 7 67 -3 95h138c11 -30 11 -65 2 -102c-26 -112 -117 -177 -231 -177l-71 -311h-111l-10 64c-45 -45 -99 -70 -152 -70c-91 0 -133 74 -106 192l70 304h154z" />
    <glyph glyph-name="uni01C4" unicode="&#x1c4;" horiz-adv-x="1285" 
d="M1121 742l-109 136l114 90l74 -94l122 93l50 -58l-171 -167h-80zM61 0l160 694h242c223 0 326 -124 278 -333c-50 -218 -229 -361 -450 -361h-230zM702 0l25 111l431 431h-314l35 152h539l-24 -103l-439 -439h343l-35 -152h-561zM253 149h91c117 0 196 68 225 192
c30 128 -26 204 -150 204h-74z" />
    <glyph glyph-name="uni01C5" unicode="&#x1c5;" horiz-adv-x="1136" 
d="M998 547l-109 136l114 90l74 -94l122 93l50 -58l-171 -167h-80zM61 0l160 694h242c223 0 326 -124 278 -333c-50 -218 -229 -361 -450 -361h-230zM253 149h91c117 0 196 68 225 192c30 128 -26 204 -150 204h-74zM707 0l24 103l248 246h-191l32 141h397l-24 -104
l-248 -245h203l-32 -141h-409z" />
    <glyph glyph-name="uni01C6" unicode="&#x1c6;" horiz-adv-x="925" 
d="M802 527l-95 148l108 98l64 -102l116 101l43 -63l-163 -182h-73zM197 -10c-105 0 -159 94 -126 239c34 149 137 247 257 247c37 0 65 -11 85 -32l68 292h147l-170 -736h-94l-14 68c-43 -49 -97 -78 -153 -78zM529 0l23 103l227 221h-175l32 142h364l-24 -104l-226 -221
h186l-32 -141h-375zM229 235c-15 -64 4 -101 50 -101c26 0 51 11 70 31l31 135c-11 20 -31 32 -57 32c-45 0 -80 -37 -94 -97z" />
    <glyph glyph-name="uni01C7" unicode="&#x1c7;" horiz-adv-x="920" 
d="M61 0l160 694h161l-125 -541h267l-35 -153h-428zM643 -10c-53 0 -100 12 -135 36l77 136c22 -11 52 -19 78 -19c51 0 84 30 98 90l107 461h161l-104 -451c-37 -160 -140 -253 -282 -253z" />
    <glyph glyph-name="uni01C8" unicode="&#x1c8;" horiz-adv-x="764" 
d="M761 557c-55 0 -84 40 -70 99c14 60 61 100 116 100s83 -40 69 -100c-14 -59 -60 -99 -115 -99zM61 0l160 694h161l-125 -541h267l-35 -153h-428zM467 -232l-25 94c57 38 100 99 115 164l107 464h161l-107 -464c-26 -114 -126 -217 -251 -258z" />
    <glyph glyph-name="uni01C9" unicode="&#x1c9;" horiz-adv-x="527" 
d="M527 557c-52 0 -80 40 -66 99c14 60 60 100 112 100s79 -40 65 -100c-14 -59 -59 -99 -111 -99zM180 -8c-90 0 -129 56 -106 155l136 592h152l-132 -571c-7 -31 1 -47 23 -47c5 0 15 1 24 4l3 -114c-32 -12 -68 -19 -100 -19zM238 -232l-21 94c54 38 95 99 110 164
l107 464h154l-107 -464c-26 -114 -124 -217 -243 -258z" />
    <glyph glyph-name="uni01CA" unicode="&#x1ca;" horiz-adv-x="1146" 
d="M61 0l160 694h184l156 -452l107 452h154l-160 -694h-181l-162 456l-106 -456h-152zM869 -10c-53 0 -100 12 -135 36l77 136c22 -11 52 -19 78 -19c51 0 84 30 98 90l107 461h161l-104 -451c-37 -160 -140 -253 -282 -253z" />
    <glyph glyph-name="uni01CB" unicode="&#x1cb;" horiz-adv-x="990" 
d="M987 557c-55 0 -84 40 -70 99c14 60 61 100 116 100s82 -40 68 -100c-14 -59 -59 -99 -114 -99zM61 0l160 694h184l156 -452l107 452h154l-160 -694h-181l-162 456l-106 -456h-152zM693 -232l-25 94c57 38 100 99 115 164l107 464h161l-107 -464
c-26 -114 -126 -217 -251 -258z" />
    <glyph glyph-name="uni01CC" unicode="&#x1cc;" horiz-adv-x="765" 
d="M765 557c-52 0 -80 40 -66 99c14 60 60 100 112 100s79 -40 65 -100c-14 -59 -59 -99 -111 -99zM44 -10l110 476h111l10 -64c45 45 99 70 153 70c97 0 137 -76 107 -206l-64 -276h-154l59 254c12 53 0 78 -40 78c-23 0 -45 -9 -67 -25l-71 -307h-154zM476 -232l-22 90
c53 37 94 96 109 159l103 449h154l-103 -449c-25 -110 -122 -209 -241 -249z" />
    <glyph glyph-name="uni01CD" unicode="&#x1cd;" horiz-adv-x="658" 
d="M461 742l-110 136l114 90l74 -94l122 93l50 -58l-171 -167h-79zM1 0l390 694h205l61 -694h-178l-9 143h-225l-72 -143h-172zM325 299h136l-13 242z" />
    <glyph glyph-name="uni01CE" unicode="&#x1ce;" horiz-adv-x="466" 
d="M313 527l-99 148l112 98l65 -102l118 101l46 -63l-168 -182h-74zM168 -10c-93 0 -139 56 -119 141c23 99 115 146 295 151c7 36 -24 56 -83 56c-38 0 -80 -8 -128 -23l-10 113c62 30 136 48 203 48c141 0 195 -76 163 -217l-60 -259h-111l-4 52c-42 -41 -91 -62 -146 -62
zM210 156c-5 -22 12 -37 42 -37c21 0 41 6 59 19l13 58c-77 -3 -108 -14 -114 -40z" />
    <glyph glyph-name="uni01CF" unicode="&#x1cf;" horiz-adv-x="289" 
d="M277 742l-109 136l114 90l74 -94l122 93l50 -58l-171 -167h-80zM63 0l160 694h164l-160 -694h-164z" />
    <glyph glyph-name="uni01D0" unicode="&#x1d0;" horiz-adv-x="245" 
d="M216 547l-99 136l106 90l70 -94l117 93l44 -58l-161 -167h-77zM48 0l113 490h154l-113 -490h-154z" />
    <glyph glyph-name="uni01D1" unicode="&#x1d1;" horiz-adv-x="705" 
d="M485 742l-109 136l114 90l74 -94l122 93l50 -58l-171 -167h-80zM344 -10c-193 0 -291 140 -242 351c50 218 217 363 417 363c195 0 293 -141 244 -353c-50 -217 -217 -361 -419 -361zM389 140c95 0 176 80 204 201c30 128 -18 213 -119 213c-93 0 -174 -81 -202 -203
c-29 -127 17 -211 117 -211z" />
    <glyph glyph-name="uni01D2" unicode="&#x1d2;" horiz-adv-x="498" 
d="M335 527l-99 148l112 98l65 -102l116 101l46 -63l-167 -182h-73zM239 -10c-138 0 -205 92 -172 233c35 151 155 253 300 253c137 0 204 -93 171 -235c-35 -150 -155 -251 -299 -251zM282 134c47 0 82 34 96 94c15 65 -5 104 -55 104c-47 0 -83 -37 -97 -98
c-14 -62 6 -100 56 -100z" />
    <glyph glyph-name="uni01D3" unicode="&#x1d3;" horiz-adv-x="657" 
d="M461 742l-109 136l114 90l74 -94l122 93l50 -58l-171 -167h-80zM319 -10c-171 0 -249 108 -208 287l97 417h160l-94 -407c-21 -92 15 -147 98 -147c71 0 124 47 142 127l98 427h159l-94 -407c-42 -180 -182 -297 -358 -297z" />
    <glyph glyph-name="uni01D4" unicode="&#x1d4;" horiz-adv-x="509" 
d="M340 547l-102 136l109 90l68 -94l115 93l47 -58l-164 -167h-73zM305 490l-61 -265c-8 -36 -12 -81 37 -81c22 0 44 10 64 25l74 321h154l-113 -490h-111l-10 64c-45 -45 -99 -70 -152 -70c-91 0 -133 74 -106 192l70 304h154z" />
    <glyph glyph-name="uni01D5" unicode="&#x1d5;" horiz-adv-x="657" 
d="M391 981l31 136h335l-31 -136h-335zM380 747c-55 0 -83 40 -69 99c14 60 60 100 115 100s83 -40 69 -100c-14 -59 -60 -99 -115 -99zM612 747c-55 0 -83 40 -69 99c14 60 60 100 115 100s83 -40 69 -100c-14 -59 -60 -99 -115 -99zM319 -10c-171 0 -249 108 -208 287
l97 417h160l-94 -407c-21 -92 15 -147 98 -147c71 0 124 47 142 127l98 427h159l-94 -407c-42 -180 -182 -297 -358 -297z" />
    <glyph glyph-name="uni01D6" unicode="&#x1d6;" horiz-adv-x="513" 
d="M266 763l31 136h319l-32 -136h-318zM267 536c-48 0 -71 36 -59 90c13 55 53 91 101 91s72 -36 59 -91c-12 -54 -53 -90 -101 -90zM478 536c-48 0 -71 36 -59 90c13 55 53 91 101 91s72 -36 59 -91c-12 -54 -53 -90 -101 -90zM305 490l-61 -265c-8 -36 -12 -81 38 -81
c23 0 45 10 65 25l74 321h154l-113 -490h-111l-9 64c-46 -45 -100 -70 -153 -70c-92 0 -135 74 -108 192l70 304h154z" />
    <glyph glyph-name="uni01D7" unicode="&#x1d7;" horiz-adv-x="657" 
d="M533 946l-42 93l202 156l61 -134zM380 747c-55 0 -83 40 -69 99c14 60 60 100 115 100s83 -40 69 -100c-14 -59 -60 -99 -115 -99zM612 747c-55 0 -83 40 -69 99c14 60 60 100 115 100s83 -40 69 -100c-14 -59 -60 -99 -115 -99zM319 -10c-171 0 -249 108 -208 287
l97 417h160l-94 -407c-21 -92 15 -147 98 -147c71 0 124 47 142 127l98 427h159l-94 -407c-42 -180 -182 -297 -358 -297z" />
    <glyph glyph-name="uni01D8" unicode="&#x1d8;" horiz-adv-x="513" 
d="M421 718l-55 67l144 179l89 -102zM267 536c-48 0 -71 36 -59 90c13 55 53 91 101 91s72 -36 59 -91c-12 -54 -53 -90 -101 -90zM478 536c-48 0 -71 36 -59 90c13 55 53 91 101 91s72 -36 59 -91c-12 -54 -53 -90 -101 -90zM305 490l-61 -265c-8 -36 -12 -81 38 -81
c23 0 45 10 65 25l74 321h154l-113 -490h-111l-9 64c-46 -45 -100 -70 -153 -70c-92 0 -135 74 -108 192l70 304h154z" />
    <glyph glyph-name="uni01D9" unicode="&#x1d9;" horiz-adv-x="657" 
d="M510 954l-109 136l114 90l74 -94l122 93l50 -58l-171 -167h-80zM380 747c-55 0 -83 40 -69 99c14 60 60 100 115 100s83 -40 69 -100c-14 -59 -60 -99 -115 -99zM612 747c-55 0 -83 40 -69 99c14 60 60 100 115 100s83 -40 69 -100c-14 -59 -60 -99 -115 -99zM319 -10
c-171 0 -249 108 -208 287l97 417h160l-94 -407c-21 -92 15 -147 98 -147c71 0 124 47 142 127l98 427h159l-94 -407c-42 -180 -182 -297 -358 -297z" />
    <glyph glyph-name="uni01DA" unicode="&#x1da;" horiz-adv-x="513" 
d="M384 733l-103 136l109 90l69 -94l117 93l47 -58l-165 -167h-74zM267 536c-48 0 -71 36 -59 90c13 55 53 91 101 91s72 -36 59 -91c-12 -54 -53 -90 -101 -90zM478 536c-48 0 -71 36 -59 90c13 55 53 91 101 91s72 -36 59 -91c-12 -54 -53 -90 -101 -90zM305 490l-61 -265
c-8 -36 -12 -81 38 -81c23 0 45 10 65 25l74 321h154l-113 -490h-111l-9 64c-46 -45 -100 -70 -153 -70c-92 0 -135 74 -108 192l70 304h154z" />
    <glyph glyph-name="uni01DB" unicode="&#x1db;" horiz-adv-x="657" 
d="M562 946l-167 115l122 134l130 -156zM380 747c-55 0 -83 40 -69 99c14 60 60 100 115 100s83 -40 69 -100c-14 -59 -60 -99 -115 -99zM612 747c-55 0 -83 40 -69 99c14 60 60 100 115 100s83 -40 69 -100c-14 -59 -60 -99 -115 -99zM319 -10c-171 0 -249 108 -208 287
l97 417h160l-94 -407c-21 -92 15 -147 98 -147c71 0 124 47 142 127l98 427h159l-94 -407c-42 -180 -182 -297 -358 -297z" />
    <glyph glyph-name="uni01DC" unicode="&#x1dc;" horiz-adv-x="513" 
d="M400 718l-111 144l135 102l62 -179zM267 536c-48 0 -71 36 -59 90c13 55 53 91 101 91s72 -36 59 -91c-12 -54 -53 -90 -101 -90zM478 536c-48 0 -71 36 -59 90c13 55 53 91 101 91s72 -36 59 -91c-12 -54 -53 -90 -101 -90zM305 490l-61 -265c-8 -36 -12 -81 38 -81
c23 0 45 10 65 25l74 321h154l-113 -490h-111l-9 64c-46 -45 -100 -70 -153 -70c-92 0 -135 74 -108 192l70 304h154z" />
    <glyph glyph-name="Gcaron" unicode="&#x1e6;" horiz-adv-x="660" 
d="M477 742l-109 136l114 90l74 -94l122 93l49 -58l-170 -167h-80zM359 -10c-203 0 -306 140 -258 349c50 217 230 365 459 365c73 0 144 -16 192 -44l-76 -136c-39 16 -101 27 -156 27c-131 0 -216 -69 -246 -198c-30 -132 23 -213 139 -213c36 0 69 7 94 20l24 105h-136
l33 146h290l-74 -322c-88 -66 -183 -99 -285 -99z" />
    <glyph glyph-name="gcaron" unicode="&#x1e7;" horiz-adv-x="509" 
d="M320 527l-99 148l112 98l65 -102l117 101l46 -63l-167 -182h-74zM197 -10c-104 0 -158 93 -125 238c35 149 138 248 256 248c51 0 86 -20 105 -56l25 46h110l-109 -472c-31 -135 -152 -226 -300 -226c-53 0 -97 12 -140 37l58 128c32 -17 71 -27 106 -27
c67 0 114 35 128 96l9 38c-37 -32 -79 -50 -123 -50zM230 235c-15 -64 4 -101 49 -101c27 0 51 10 69 27l32 137c-10 22 -30 34 -57 34c-44 0 -79 -37 -93 -97z" />
    <glyph glyph-name="uni01EA" unicode="&#x1ea;" horiz-adv-x="705" 
d="M314 -256c-82 0 -119 50 -102 122c11 49 45 94 94 126c-168 17 -249 152 -204 349c50 218 217 363 417 363c195 0 293 -141 244 -353c-42 -180 -164 -310 -319 -349c-45 -27 -75 -64 -84 -101c-6 -28 3 -52 26 -52c7 0 25 4 40 11l-9 -90c-29 -16 -69 -26 -103 -26z
M389 140c95 0 176 80 204 201c30 128 -18 213 -119 213c-93 0 -174 -81 -202 -203c-29 -127 17 -211 117 -211z" />
    <glyph glyph-name="uni01EB" unicode="&#x1eb;" horiz-adv-x="502" 
d="M210 -257c-78 0 -110 49 -94 119c11 49 43 88 102 122c-125 10 -183 101 -152 236c35 153 157 256 303 256c138 0 205 -94 172 -237c-24 -103 -87 -183 -170 -224c-65 -29 -108 -73 -118 -114c-8 -33 9 -52 27 -52c7 0 23 3 37 10l-9 -90c-28 -16 -64 -26 -98 -26z
M281 120c48 0 84 37 99 101c16 69 -4 111 -55 111c-48 0 -85 -39 -100 -105c-15 -67 5 -107 56 -107z" />
    <glyph glyph-name="Aringacute" unicode="&#x1fa;" horiz-adv-x="658" 
d="M492 739c-72 0 -107 52 -89 131c18 77 78 128 151 128c29 0 52 -8 68 -23l149 84l33 -149l-164 -55c-23 -71 -80 -116 -148 -116zM514 825c23 0 44 18 50 45c2 7 2 13 0 18v3c-4 13 -15 21 -32 21c-23 0 -42 -16 -48 -40c-6 -28 6 -47 30 -47zM1 0l390 694h205l61 -694
h-178l-9 143h-225l-72 -143h-172zM325 299h136l-13 242z" />
    <glyph glyph-name="aringacute" unicode="&#x1fb;" horiz-adv-x="468" 
d="M342 527c-68 0 -101 53 -82 135c18 80 76 133 145 133c10 0 18 -1 26 -3l99 129l87 -112l-123 -100c1 -13 0 -26 -4 -42c-19 -84 -79 -140 -148 -140zM364 613c21 0 40 20 47 50c6 27 -5 46 -27 46c-21 0 -40 -18 -46 -44c-7 -31 4 -52 26 -52zM169 -10
c-93 0 -140 56 -120 141c23 99 115 146 296 151c7 36 -23 56 -83 56c-38 0 -81 -8 -129 -23l-10 113c62 30 137 48 204 48c141 0 195 -76 163 -217l-59 -259h-111l-4 52c-42 -41 -92 -62 -147 -62zM210 156c-5 -22 12 -37 42 -37c21 0 41 6 60 19l14 58
c-78 -3 -110 -14 -116 -40z" />
    <glyph glyph-name="AEacute" unicode="&#x1fc;" horiz-adv-x="950" 
d="M664 734l-41 93l202 156l60 -134zM-4 0l548 694h526l-35 -152h-302l-26 -112h276l-35 -152h-276l-30 -126h303l-35 -152h-464l35 149h-195l-113 -149h-177zM403 305h114l50 218z" />
    <glyph glyph-name="aeacute" unicode="&#x1fd;" horiz-adv-x="694" 
d="M470 510l-52 73l146 195l82 -111zM160 -10c-86 0 -131 52 -113 130c23 98 130 158 292 164c0 32 -25 50 -72 50c-38 0 -90 -11 -140 -31l-8 111c65 39 143 62 211 62c54 0 91 -16 111 -50c41 33 89 50 143 50c122 0 176 -83 144 -222c-6 -26 -15 -54 -22 -69h-253
c5 -45 36 -65 99 -65c32 0 68 5 106 17l8 -115c-59 -21 -116 -32 -168 -32c-85 0 -141 30 -164 87c-56 -59 -113 -87 -174 -87zM542 344c-32 0 -56 -19 -71 -59h113c9 37 -7 59 -42 59zM209 151c-5 -20 9 -32 38 -32c23 0 48 8 74 24c-1 15 1 30 3 48
c-75 -2 -109 -13 -115 -40z" />
    <glyph glyph-name="Oslashacute" unicode="&#x1fe;" horiz-adv-x="705" 
d="M507 734l-41 93l202 156l60 -134zM160 -59l-80 63l61 72c-49 61 -65 153 -39 265c50 218 217 363 417 363c49 0 92 -9 128 -26l62 74l82 -63l-63 -75c46 -62 60 -153 35 -263c-50 -217 -217 -361 -419 -361c-46 0 -89 8 -123 24zM272 351c-11 -47 -11 -88 -2 -122
l263 313c-17 8 -37 12 -59 12c-93 0 -174 -81 -202 -203zM389 140c95 0 176 80 204 201c10 45 11 85 3 118l-260 -309c15 -7 33 -10 53 -10z" />
    <glyph glyph-name="oslashacute" unicode="&#x1ff;" horiz-adv-x="498" 
d="M374 510l-53 73l146 195l85 -111zM98 -62l-53 39l53 64c-37 41 -49 104 -31 181c35 152 154 254 298 254c32 0 61 -6 85 -16l58 72l53 -47l-55 -67c37 -41 49 -103 31 -180c-35 -151 -155 -253 -298 -253c-32 0 -61 6 -85 16zM223 231c-4 -18 -5 -34 -4 -48l126 146
c-6 2 -14 3 -22 3c-49 0 -85 -38 -100 -101zM281 129c49 0 85 36 99 97c4 19 6 35 5 50l-125 -144c6 -2 13 -3 21 -3z" />
    <glyph glyph-name="uni0200" unicode="&#x200;" horiz-adv-x="658" 
d="M643 739l-133 132l137 115l84 -174zM406 739l-133 132l137 115l83 -174zM1 0l390 694h205l61 -694h-178l-9 143h-225l-72 -143h-172zM325 299h136l-13 242z" />
    <glyph glyph-name="uni0201" unicode="&#x201;" horiz-adv-x="463" 
d="M409 505l-75 185l143 86l26 -214zM218 505l-76 185l144 85l26 -213zM168 -10c-93 0 -139 56 -119 141c23 99 115 146 295 151c7 36 -24 56 -83 56c-38 0 -81 -8 -129 -23l-9 113c62 30 136 48 203 48c141 0 195 -76 163 -217l-60 -259h-111l-4 52
c-42 -41 -91 -62 -146 -62zM210 156c-5 -22 11 -37 41 -37c21 0 42 6 60 19l13 58c-77 -3 -108 -14 -114 -40z" />
    <glyph glyph-name="uni0202" unicode="&#x202;" horiz-adv-x="658" 
d="M394 708l-62 56c41 107 124 175 217 175c94 0 159 -58 149 -153l-134 -77c9 60 -18 100 -64 100c-45 0 -88 -38 -106 -101zM1 0l390 694h205l61 -694h-178l-9 143h-225l-72 -143h-172zM325 299h136l-13 242z" />
    <glyph glyph-name="uni0203" unicode="&#x203;" horiz-adv-x="466" 
d="M259 520l-57 66c41 112 122 183 210 183c89 0 148 -59 137 -157l-131 -91c12 71 -12 118 -54 118s-84 -45 -105 -119zM168 -10c-93 0 -139 56 -119 141c23 99 115 146 295 151c7 36 -24 56 -83 56c-38 0 -80 -8 -128 -23l-10 113c62 30 136 48 203 48
c141 0 195 -76 163 -217l-60 -259h-111l-4 52c-42 -41 -91 -62 -146 -62zM210 156c-5 -22 12 -37 42 -37c21 0 41 6 59 19l13 58c-77 -3 -108 -14 -114 -40z" />
    <glyph glyph-name="uni0204" unicode="&#x204;" horiz-adv-x="565" 
d="M605 739l-133 132l137 115l84 -174zM368 739l-133 132l137 115l83 -174zM62 0l160 694h463l-35 -152h-302l-27 -114h276l-35 -152h-276l-28 -124h302l-35 -152h-463z" />
    <glyph glyph-name="uni0205" unicode="&#x205;" horiz-adv-x="455" 
d="M411 505l-74 185l142 86l26 -214zM223 505l-72 185l140 85l23 -213zM261 -10c-154 0 -227 92 -192 242c34 147 146 244 280 244c121 0 174 -81 142 -218c-6 -25 -14 -49 -23 -73h-257c4 -46 37 -67 101 -67c35 0 71 6 109 18l8 -114c-59 -21 -116 -32 -168 -32zM306 348
c-34 0 -60 -21 -77 -63h123c9 40 -7 63 -46 63z" />
    <glyph glyph-name="uni0206" unicode="&#x206;" horiz-adv-x="565" 
d="M356 708l-63 56c41 107 124 175 217 175c94 0 159 -58 149 -153l-133 -77c9 60 -18 100 -64 100c-45 0 -88 -38 -106 -101zM61 0l160 694h463l-35 -152h-302l-26 -114h276l-35 -152h-276l-29 -124h302l-35 -152h-463z" />
    <glyph glyph-name="uni0207" unicode="&#x207;" horiz-adv-x="457" 
d="M263 520l-54 66c41 112 120 183 207 183c88 0 147 -59 136 -157l-132 -91c12 71 -11 118 -53 118c-41 0 -83 -45 -104 -119zM261 -10c-154 0 -227 92 -192 242c34 147 146 244 280 244c121 0 174 -81 142 -218c-6 -25 -14 -49 -23 -73h-257c4 -46 38 -67 102 -67
c35 0 70 6 108 18l8 -114c-59 -21 -116 -32 -168 -32zM306 348c-34 0 -60 -21 -77 -63h123c9 40 -7 63 -46 63z" />
    <glyph glyph-name="uni0208" unicode="&#x208;" horiz-adv-x="292" 
d="M461 739l-133 132l137 115l84 -174zM224 739l-133 132l137 115l84 -174zM65 0l160 694h164l-161 -694h-163z" />
    <glyph glyph-name="uni0209" unicode="&#x209;" horiz-adv-x="241" 
d="M315 527l-82 170l145 79l27 -197zM122 527l-76 170l138 78l29 -196zM47 0l114 490h154l-114 -490h-154z" />
    <glyph glyph-name="uni020A" unicode="&#x20a;" horiz-adv-x="289" 
d="M211 708l-63 56c41 107 124 175 217 175c94 0 159 -58 149 -153l-133 -77c9 60 -18 100 -64 100c-45 0 -88 -38 -106 -101zM63 0l160 694h164l-160 -694h-164z" />
    <glyph glyph-name="uni020B" unicode="&#x20b;" horiz-adv-x="245" 
d="M161 538l-56 56c40 107 119 175 206 175c88 0 148 -58 137 -153l-124 -77c9 60 -17 100 -60 100s-85 -38 -103 -101zM48 0l114 490h153l-113 -490h-154z" />
    <glyph glyph-name="uni020C" unicode="&#x20c;" horiz-adv-x="705" 
d="M668 739l-134 132l138 115l83 -174zM430 739l-133 132l138 115l83 -174zM344 -10c-193 0 -291 140 -242 351c50 218 217 363 417 363c195 0 293 -141 244 -353c-50 -217 -217 -361 -419 -361zM389 140c95 0 176 80 204 201c30 128 -18 213 -119 213
c-93 0 -174 -81 -202 -203c-29 -127 17 -211 117 -211z" />
    <glyph glyph-name="uni020D" unicode="&#x20d;" horiz-adv-x="498" 
d="M430 505l-74 185l141 86l26 -214zM241 505l-77 185l144 85l25 -213zM239 -10c-138 0 -205 92 -172 233c35 151 155 253 300 253c137 0 203 -93 170 -235c-35 -150 -154 -251 -298 -251zM282 134c47 0 82 34 96 94c15 65 -5 104 -55 104c-47 0 -83 -37 -97 -98
c-14 -62 6 -100 56 -100z" />
    <glyph glyph-name="uni020E" unicode="&#x20e;" horiz-adv-x="705" 
d="M419 708l-63 56c41 107 124 175 217 175c94 0 159 -58 149 -153l-133 -77c9 60 -18 100 -64 100c-45 0 -88 -38 -106 -101zM344 -10c-193 0 -291 140 -242 351c50 218 217 363 417 363c195 0 293 -141 244 -353c-50 -217 -217 -361 -419 -361zM389 140
c95 0 176 80 204 201c30 128 -18 213 -119 213c-93 0 -174 -81 -202 -203c-29 -127 17 -211 117 -211z" />
    <glyph glyph-name="uni020F" unicode="&#x20f;" horiz-adv-x="498" 
d="M282 520l-57 66c41 112 121 183 208 183c88 0 148 -59 137 -157l-131 -91c12 71 -12 118 -54 118c-41 0 -82 -45 -103 -119zM239 -10c-138 0 -205 92 -172 233c35 151 155 253 300 253c137 0 204 -93 171 -235c-35 -150 -155 -251 -299 -251zM282 134c47 0 82 34 96 94
c15 65 -5 104 -55 104c-47 0 -83 -37 -97 -98c-14 -62 6 -100 56 -100z" />
    <glyph glyph-name="uni0210" unicode="&#x210;" horiz-adv-x="615" 
d="M615 739l-133 132l137 115l84 -174zM378 739l-133 132l137 115l84 -174zM61 0l161 694h266c152 0 223 -76 192 -210c-22 -94 -83 -169 -165 -211l98 -273h-194l-70 237h-72l-55 -237h-161zM430 543h-82l-37 -159h105c47 0 80 29 91 76c12 52 -17 83 -77 83z" />
    <glyph glyph-name="uni0211" unicode="&#x211;" horiz-adv-x="374" 
d="M371 505l-76 185l144 86l23 -214zM178 505l-73 185l141 85l26 -213zM46 0l108 466h120l-4 -76c43 51 96 80 146 80c26 0 53 -8 70 -22l-67 -147c-16 10 -40 17 -62 17c-32 0 -65 -15 -93 -41l-64 -277h-154z" />
    <glyph glyph-name="uni0212" unicode="&#x212;" horiz-adv-x="615" 
d="M366 708l-63 56c41 107 124 175 217 175c94 0 159 -58 149 -153l-133 -77c9 60 -18 100 -64 100c-45 0 -88 -38 -106 -101zM61 0l160 694h266c152 0 224 -76 193 -210c-22 -94 -83 -169 -165 -211l97 -273h-193l-71 237h-71l-55 -237h-161zM430 543h-83l-36 -159h105
c47 0 80 29 91 76c12 52 -17 83 -77 83z" />
    <glyph glyph-name="uni0213" unicode="&#x213;" horiz-adv-x="379" 
d="M220 521l-56 65c41 112 120 183 207 183c88 0 148 -60 137 -157l-127 -90c12 70 -13 117 -56 117c-42 0 -84 -44 -105 -118zM47 0l108 466h120l-4 -76c43 51 96 80 146 80c26 0 53 -8 70 -22l-67 -147c-16 10 -40 17 -62 17c-32 0 -65 -15 -93 -41l-64 -277h-154z" />
    <glyph glyph-name="uni0214" unicode="&#x214;" horiz-adv-x="657" 
d="M644 739l-133 132l137 115l83 -174zM407 739l-133 132l137 115l83 -174zM319 -10c-171 0 -249 108 -208 287l97 417h160l-94 -407c-21 -92 15 -147 98 -147c71 0 124 47 142 127l98 427h159l-94 -407c-42 -180 -182 -297 -358 -297z" />
    <glyph glyph-name="uni0215" unicode="&#x215;" horiz-adv-x="508" 
d="M435 527l-77 170l140 79l30 -197zM245 527l-80 170l142 78l30 -196zM305 490l-61 -265c-8 -36 -12 -81 37 -81c22 0 43 10 63 25l75 321h153l-113 -490h-111l-9 64c-45 -45 -99 -70 -152 -70c-91 0 -133 74 -106 192l70 304h154z" />
    <glyph glyph-name="uni0216" unicode="&#x216;" horiz-adv-x="657" 
d="M395 708l-62 56c41 107 124 175 217 175c94 0 158 -58 148 -153l-133 -77c9 60 -18 100 -64 100c-45 0 -88 -38 -106 -101zM319 -10c-171 0 -249 108 -208 287l97 417h160l-94 -407c-21 -92 15 -147 98 -147c71 0 124 47 142 127l98 427h159l-94 -407
c-42 -180 -182 -297 -358 -297z" />
    <glyph glyph-name="uni0217" unicode="&#x217;" horiz-adv-x="509" 
d="M285 538l-59 56c40 107 119 175 207 175c89 0 150 -58 139 -153l-128 -77c10 60 -17 100 -59 100s-82 -38 -100 -101zM305 490l-61 -265c-8 -36 -12 -81 37 -81c22 0 44 10 64 25l74 321h154l-113 -490h-111l-10 64c-45 -45 -99 -70 -152 -70c-91 0 -133 74 -106 192
l70 304h154z" />
    <glyph glyph-name="uni0218" unicode="&#x218;" horiz-adv-x="542" 
d="M252 -10c-80 0 -160 23 -219 55l78 142c57 -29 125 -41 184 -41c62 0 94 18 101 50c25 107 -307 40 -253 276c32 140 165 232 329 232c66 0 134 -15 182 -41l-77 -138c-42 17 -97 27 -149 27c-63 0 -104 -19 -112 -54c-24 -103 313 -26 254 -281
c-32 -139 -147 -227 -318 -227zM118 -227c25 40 51 105 66 171h149c-14 -60 -51 -120 -106 -171h-109z" />
    <glyph glyph-name="uni0219" unicode="&#x219;" horiz-adv-x="415" 
d="M193 -10c-62 0 -124 14 -167 37l59 120c41 -16 93 -27 131 -27s64 12 68 30c13 56 -225 -6 -184 171c23 100 107 155 239 155c51 0 106 -9 144 -24l-57 -124c-40 11 -81 18 -115 18c-42 0 -65 -10 -69 -26c-12 -52 228 1 188 -174c-23 -99 -109 -156 -237 -156zM62 -227
c24 40 48 105 63 171h143c-14 -60 -49 -120 -103 -171h-103z" />
    <glyph glyph-name="uni021A" unicode="&#x21a;" horiz-adv-x="576" 
d="M208 0l125 542h-199l35 152h558l-35 -152h-201l-125 -542h-158zM137 -227c25 40 51 105 66 171h149c-14 -60 -51 -120 -106 -171h-109z" />
    <glyph glyph-name="uni021B" unicode="&#x21b;" horiz-adv-x="348" 
d="M238 -8c-112 0 -161 64 -136 172l39 166h-60l31 136h60l38 165h151l-38 -165h99l-31 -136h-99l-36 -155c-7 -32 10 -52 47 -52c11 0 24 2 36 6v-121c-37 -11 -71 -16 -101 -16zM50 -227c24 40 49 105 64 171h144c-14 -60 -50 -120 -104 -171h-104z" />
    <glyph glyph-name="uni022A" unicode="&#x22a;" horiz-adv-x="705" 
d="M415 981l31 136h335l-31 -136h-335zM404 747c-55 0 -84 40 -70 99c14 60 60 100 115 100s83 -40 69 -100c-14 -59 -59 -99 -114 -99zM636 747c-55 0 -83 40 -69 99c14 60 60 100 115 100s83 -40 69 -100c-14 -59 -60 -99 -115 -99zM344 -10c-193 0 -291 140 -242 351
c50 218 217 363 417 363c195 0 293 -141 244 -353c-50 -217 -217 -361 -419 -361zM389 140c95 0 176 80 204 201c30 128 -18 213 -119 213c-93 0 -174 -81 -202 -203c-29 -127 17 -211 117 -211z" />
    <glyph glyph-name="uni022B" unicode="&#x22b;" horiz-adv-x="502" 
d="M266 763l32 136h318l-31 -136h-319zM264 522c-48 0 -71 36 -59 90c13 55 53 91 101 91s72 -36 59 -91c-12 -54 -53 -90 -101 -90zM476 522c-48 0 -71 36 -59 90c13 55 53 91 101 91s72 -36 59 -91c-12 -54 -53 -90 -101 -90zM241 -10c-139 0 -207 92 -174 233
c35 151 156 253 302 253c138 0 206 -93 173 -235c-35 -150 -156 -251 -301 -251zM284 134c48 0 84 34 98 94c15 65 -6 104 -57 104c-48 0 -85 -37 -99 -98c-14 -62 7 -100 58 -100z" />
    <glyph glyph-name="uni022C" unicode="&#x22c;" horiz-adv-x="705" 
d="M422 1014l32 136h335l-32 -136h-335zM444 749l-93 25c34 94 99 156 163 156c48 0 76 -42 102 -42c17 0 35 14 50 44l91 -27c-31 -91 -98 -149 -168 -149c-54 0 -68 40 -96 40c-14 0 -33 -16 -49 -47zM344 -10c-193 0 -291 140 -242 351c50 218 217 363 417 363
c195 0 293 -141 244 -353c-50 -217 -217 -361 -419 -361zM389 140c95 0 176 80 204 201c30 128 -18 213 -119 213c-93 0 -174 -81 -202 -203c-29 -127 17 -211 117 -211z" />
    <glyph glyph-name="uni022D" unicode="&#x22d;" horiz-adv-x="498" 
d="M272 788l32 136h314l-32 -136h-314zM291 537l-88 27c33 94 94 156 154 156c45 0 71 -42 95 -42c16 0 32 14 47 44l87 -27c-31 -91 -94 -149 -159 -149c-50 0 -63 40 -89 40c-13 0 -32 -17 -47 -49zM239 -10c-138 0 -205 92 -172 233c35 151 155 253 300 253
c137 0 204 -93 171 -235c-35 -150 -155 -251 -299 -251zM282 134c47 0 82 34 96 94c15 65 -5 104 -55 104c-47 0 -83 -37 -97 -98c-14 -62 6 -100 56 -100z" />
    <glyph glyph-name="uni0230" unicode="&#x230;" horiz-adv-x="705" 
d="M424 1021l31 136h335l-31 -136h-335zM498 747c-55 0 -83 40 -69 99c14 60 60 100 115 100s83 -40 69 -100c-14 -59 -60 -99 -115 -99zM344 -10c-193 0 -291 140 -242 351c50 218 217 363 417 363c195 0 293 -141 244 -353c-50 -217 -217 -361 -419 -361zM389 140
c95 0 176 80 204 201c30 128 -18 213 -119 213c-93 0 -174 -81 -202 -203c-29 -127 17 -211 117 -211z" />
    <glyph glyph-name="uni0231" unicode="&#x231;" horiz-adv-x="504" 
d="M266 763l32 136h320l-31 -136h-321zM371 522c-48 0 -71 36 -59 90c13 55 53 91 101 91s72 -36 59 -91c-12 -54 -53 -90 -101 -90zM242 -10c-140 0 -208 92 -175 233c35 151 156 253 303 253c139 0 207 -93 174 -235c-35 -150 -156 -251 -302 -251zM285 134
c49 0 85 34 99 94c15 65 -6 104 -58 104c-49 0 -86 -37 -100 -98c-14 -62 7 -100 59 -100z" />
    <glyph glyph-name="uni0232" unicode="&#x232;" horiz-adv-x="608" 
d="M315 769l31 136h335l-32 -136h-334zM228 0l58 251l-144 443h190l75 -292l198 292h181l-340 -447l-57 -247h-161z" />
    <glyph glyph-name="uni0233" unicode="&#x233;" horiz-adv-x="453" 
d="M203 577l32 136h307l-31 -136h-308zM28 -217l126 217l-48 490h164l-1 -327l159 327h147l-272 -490l-115 -217h-160z" />
    <glyph glyph-name="uni0237" unicode="&#x237;" horiz-adv-x="252" 
d="M-33 -232l-22 91c53 37 93 95 107 158l104 449h154l-104 -449c-25 -110 -120 -209 -239 -249z" />
    <glyph glyph-name="uni0259" unicode="&#x259;" horiz-adv-x="457" 
d="M302 476c154 0 227 -92 192 -242c-34 -147 -146 -244 -280 -244c-121 0 -174 81 -142 218c6 25 14 49 23 73h257c-4 46 -37 67 -101 67c-35 0 -71 -6 -109 -18l-7 114c59 21 115 32 167 32zM257 117c34 0 60 22 77 64h-123c-9 -40 8 -64 46 -64z" />
    <glyph glyph-name="uni02B9" unicode="&#x2b9;" horiz-adv-x="314" 
d="M139 406l103 298h170l-142 -298h-131z" />
    <glyph glyph-name="uni02BA" unicode="&#x2ba;" horiz-adv-x="528" 
d="M147 406l102 298h170l-141 -298h-131zM360 406l103 298h170l-141 -298h-132z" />
    <glyph glyph-name="uni02BB" unicode="&#x2bb;" horiz-adv-x="263" 
d="M391 730c-21 -33 -45 -93 -61 -162h-155c17 73 44 124 85 162h131z" />
    <glyph glyph-name="uni02BC" unicode="&#x2bc;" horiz-adv-x="266" 
d="M125 460c47 89 91 208 112 297h174c-17 -73 -87 -206 -150 -297h-136z" />
    <glyph glyph-name="uni02BE" unicode="&#x2be;" horiz-adv-x="214" 
d="M178 548l19 79c24 1 41 12 45 31s-7 29 -32 29l19 79c83 0 117 -37 101 -107c-17 -72 -69 -110 -152 -111z" />
    <glyph glyph-name="uni02BF" unicode="&#x2bf;" horiz-adv-x="213" 
d="M288 548c-83 1 -117 39 -100 111c16 70 68 107 151 107l-18 -79c-25 0 -41 -10 -45 -29s7 -30 31 -31z" />
    <glyph glyph-name="circumflex" unicode="&#x2c6;" horiz-adv-x="383" 
d="M152 594l174 168h79l105 -137l-110 -91l-77 84l-121 -83z" />
    <glyph glyph-name="caron" unicode="&#x2c7;" horiz-adv-x="383" 
d="M278 547l-109 136l113 90l74 -94l122 93l50 -58l-170 -167h-80z" />
    <glyph glyph-name="uni02C8" unicode="&#x2c8;" horiz-adv-x="206" 
d="M342 760l-56 -204h-108l38 204h126z" />
    <glyph glyph-name="uni02C9" unicode="&#x2c9;" horiz-adv-x="441" 
d="M190 577l31 136h335l-32 -136h-334z" />
    <glyph glyph-name="uni02CA" unicode="&#x2ca;" horiz-adv-x="266" 
d="M219 532l-60 67l151 179l94 -102z" />
    <glyph glyph-name="uni02CB" unicode="&#x2cb;" horiz-adv-x="266" 
d="M291 532l-119 144l141 102l69 -179z" />
    <glyph glyph-name="uni02CC" unicode="&#x2cc;" horiz-adv-x="206" 
d="M-15 -244l55 204h108l-38 -204h-125z" />
    <glyph glyph-name="breve" unicode="&#x2d8;" horiz-adv-x="426" 
d="M304 541c-98 0 -162 58 -153 153l133 77c-8 -60 19 -100 67 -100c46 0 91 37 110 101l63 -56c-41 -107 -126 -175 -220 -175z" />
    <glyph glyph-name="dotaccent" unicode="&#x2d9;" horiz-adv-x="266" 
d="M236 557c-55 0 -83 40 -69 99c14 60 60 100 115 100s83 -40 69 -100c-14 -59 -60 -99 -115 -99z" />
    <glyph glyph-name="ring" unicode="&#x2da;" horiz-adv-x="307" 
d="M280 547c-72 0 -108 52 -90 131c18 77 79 128 152 128c72 0 108 -50 90 -126c-18 -80 -79 -133 -152 -133zM302 633c23 0 43 18 49 45c6 25 -7 42 -31 42c-23 0 -42 -16 -48 -40c-6 -28 6 -47 30 -47z" />
    <glyph glyph-name="ogonek" unicode="&#x2db;" horiz-adv-x="551" 
d="M305 -256c-82 0 -119 47 -103 116c19 81 99 143 207 160l57 -20c-63 -21 -107 -61 -117 -105c-6 -25 5 -46 28 -46c7 0 24 3 39 10l-9 -90c-29 -15 -65 -25 -102 -25z" />
    <glyph glyph-name="tilde" unicode="&#x2dc;" horiz-adv-x="424" 
d="M256 551l-93 25c34 94 99 156 163 156c48 0 75 -42 101 -42c17 0 36 14 51 44l91 -27c-31 -91 -98 -149 -168 -149c-54 0 -68 40 -96 40c-14 0 -33 -16 -49 -47z" />
    <glyph glyph-name="hungarumlaut" unicode="&#x2dd;" horiz-adv-x="479" 
d="M199 527l-74 52l125 197l114 -79zM402 527l-73 52l124 196l114 -78z" />
    <glyph glyph-name="gravecomb" unicode="&#x300;" horiz-adv-x="4" 
d="M291 532l-119 144l141 102l69 -179z" />
    <glyph glyph-name="acutecomb" unicode="&#x301;" horiz-adv-x="4" 
d="M219 532l-60 67l151 179l94 -102z" />
    <glyph glyph-name="uni0302" unicode="&#x302;" 
d="M155 594l175 168h79l105 -137l-110 -91l-78 84l-120 -83z" />
    <glyph glyph-name="tildecomb" unicode="&#x303;" horiz-adv-x="8" 
d="M258 551l-93 25c34 94 98 156 162 156c48 0 76 -42 102 -42c17 0 35 14 50 44l92 -27c-31 -91 -99 -149 -169 -149c-54 0 -67 40 -95 40c-14 0 -33 -16 -49 -47z" />
    <glyph glyph-name="uni0304" unicode="&#x304;" 
d="M190 577l31 136h335l-32 -136h-334z" />
    <glyph glyph-name="uni0306" unicode="&#x306;" 
d="M326 541c-98 0 -161 58 -152 153l133 77c-8 -60 19 -100 67 -100c46 0 91 37 110 101l62 -56c-41 -107 -126 -175 -220 -175z" />
    <glyph glyph-name="uni0307" unicode="&#x307;" horiz-adv-x="3" 
d="M262 557c-55 0 -84 40 -70 99c14 60 61 100 116 100s83 -40 69 -100c-14 -59 -60 -99 -115 -99z" />
    <glyph glyph-name="uni0308" unicode="&#x308;" horiz-adv-x="8" 
d="M262 557c-55 0 -84 40 -70 99c14 60 61 100 116 100s83 -40 69 -100c-14 -59 -60 -99 -115 -99zM494 557c-55 0 -83 40 -69 99c14 60 60 100 115 100s83 -40 69 -100c-14 -59 -60 -99 -115 -99z" />
    <glyph glyph-name="hookabovecomb" unicode="&#x309;" horiz-adv-x="5" 
d="M244 545l-9 77c28 11 45 28 50 49c3 15 -6 25 -25 25c-14 0 -31 -5 -51 -15l-13 102c46 21 89 32 125 32c71 0 108 -42 93 -106c-15 -67 -79 -128 -170 -164z" />
    <glyph glyph-name="uni030A" unicode="&#x30a;" horiz-adv-x="5" 
d="M280 547c-72 0 -108 52 -90 131c18 77 79 128 152 128c72 0 108 -50 90 -126c-18 -80 -79 -133 -152 -133zM302 633c23 0 43 18 49 45c6 25 -7 42 -31 42c-23 0 -42 -16 -48 -40c-6 -28 6 -47 30 -47z" />
    <glyph glyph-name="uni030B" unicode="&#x30b;" horiz-adv-x="8" 
d="M239 527l-73 52l124 197l114 -79zM442 527l-73 52l124 196l114 -78z" />
    <glyph glyph-name="uni030C" unicode="&#x30c;" 
d="M280 547l-109 136l114 90l74 -94l122 93l50 -58l-171 -167h-80z" />
    <glyph glyph-name="uni030D" unicode="&#x30d;" horiz-adv-x="2" 
d="M342 760l-56 -204h-108l38 204h126z" />
    <glyph glyph-name="uni030F" unicode="&#x30f;" horiz-adv-x="8" 
d="M473 527l-88 170l151 79l33 -197zM269 527l-86 170l149 78l34 -196z" />
    <glyph glyph-name="uni0311" unicode="&#x311;" 
d="M240 538l-62 56c41 107 124 175 217 175c94 0 159 -58 149 -153l-133 -77c9 60 -18 100 -64 100c-45 0 -89 -38 -107 -101z" />
    <glyph glyph-name="uni0312" unicode="&#x312;" horiz-adv-x="3" 
d="M391 730c-21 -33 -45 -93 -61 -162h-155c17 73 44 124 85 162h131z" />
    <glyph glyph-name="uni031B" unicode="&#x31b;" horiz-adv-x="4" 
d="M135 303l21 94c33 0 65 36 77 90c8 35 6 67 -5 95h145c12 -30 12 -65 3 -102c-26 -112 -120 -177 -241 -177z" />
    <glyph glyph-name="dotbelowcomb" unicode="&#x323;" horiz-adv-x="3" 
d="M87 -225c-55 0 -84 40 -70 99c14 60 60 100 115 100s83 -40 69 -100c-14 -59 -59 -99 -114 -99z" />
    <glyph glyph-name="uni0324" unicode="&#x324;" horiz-adv-x="8" 
d="M86 -227c-55 0 -83 40 -69 99c14 60 60 100 115 100s83 -40 69 -100c-14 -59 -60 -99 -115 -99zM319 -227c-55 0 -84 40 -70 99c14 60 61 100 116 100s83 -40 69 -100c-14 -59 -60 -99 -115 -99z" />
    <glyph glyph-name="uni0326" unicode="&#x326;" horiz-adv-x="3" 
d="M-42 -227c25 40 50 105 65 171h150c-14 -60 -52 -120 -107 -171h-108z" />
    <glyph glyph-name="uni0327" unicode="&#x327;" horiz-adv-x="5" 
d="M78 -258c-40 0 -78 8 -101 23l37 92c17 -9 49 -15 73 -15c27 0 43 8 46 21c5 21 -20 35 -79 41l46 114h107l-25 -62c65 -11 90 -43 78 -95c-17 -73 -87 -119 -182 -119z" />
    <glyph glyph-name="uni0328" unicode="&#x328;" horiz-adv-x="5" 
d="M305 -256c-82 0 -119 47 -103 116c19 81 99 143 207 160l57 -20c-63 -21 -107 -61 -117 -105c-6 -25 5 -46 28 -46c7 0 24 3 39 10l-9 -90c-29 -15 -65 -25 -102 -25z" />
    <glyph glyph-name="uni0329" unicode="&#x329;" horiz-adv-x="2" 
d="M-15 -244l55 204h108l-38 -204h-125z" />
    <glyph glyph-name="uni032E" unicode="&#x32e;" horiz-adv-x="8" 
d="M163 -227c-91 0 -149 55 -159 137l117 69c11 -52 41 -79 90 -79c46 0 84 25 110 79l72 -42c-51 -102 -133 -164 -230 -164z" />
    <glyph glyph-name="uni0331" unicode="&#x331;" 
d="M14 -206l31 135h329l-31 -135h-329z" />
    <glyph glyph-name="uni0335" unicode="&#x335;" 
d="M91 245l25 107h328l-25 -107h-328z" />
    <glyph glyph-name="uni0336" unicode="&#x336;" horiz-adv-x="14" 
d="M125 275l32 135h691l-32 -135h-691z" />
    <glyph glyph-name="uni0337" unicode="&#x337;" 
d="M116 132l-33 106l324 161l28 -107z" />
    <glyph glyph-name="uni0338" unicode="&#x338;" horiz-adv-x="9" 
d="M51 -76l-55 43l488 571l57 -43z" />
    <glyph glyph-name="pi" unicode="&#x3c0;" horiz-adv-x="608" 
d="M90 0l76 330h-78l32 136h555l-32 -136h-87l-31 -137c-9 -39 1 -63 28 -63c10 0 24 4 40 8l-2 -117c-40 -20 -73 -29 -108 -29c-101 0 -144 66 -118 177l37 161h-82l-76 -330h-154z" />
    <glyph glyph-name="uni0400" unicode="&#x400;" horiz-adv-x="565" 
d="M467 734l-168 115l122 134l130 -156zM61 0l160 694h463l-35 -152h-302l-26 -114h276l-35 -152h-276l-29 -124h302l-35 -152h-463z" />
    <glyph glyph-name="uni0401" unicode="&#x401;" horiz-adv-x="565" 
d="M333 747c-55 0 -83 40 -69 99c14 60 60 100 115 100s83 -40 69 -100c-14 -59 -60 -99 -115 -99zM565 747c-55 0 -83 40 -69 99c14 60 60 100 115 100s83 -40 69 -100c-14 -59 -60 -99 -115 -99zM61 0l160 694h463l-35 -152h-302l-26 -114h276l-35 -152h-276l-29 -124h302
l-35 -152h-463z" />
    <glyph glyph-name="uni0402" unicode="&#x402;" horiz-adv-x="748" 
d="M203 0l125 542h-194l35 152h566l-35 -152h-214l-33 -143c58 40 120 62 182 62c124 0 186 -86 156 -216c-34 -148 -163 -244 -339 -255l19 138c82 11 138 50 151 105c11 47 -20 78 -77 78c-39 0 -82 -16 -122 -43l-62 -268h-158z" />
    <glyph glyph-name="uni0403" unicode="&#x403;" horiz-adv-x="512" 
d="M417 734l-41 93l202 156l60 -134zM62 0l160 694h451l-36 -157h-287l-124 -537h-164z" />
    <glyph glyph-name="uni0404" unicode="&#x404;" horiz-adv-x="590" 
d="M362 -10c-202 0 -309 141 -260 352c50 218 233 362 445 362c66 0 126 -14 183 -43l-76 -136c-35 17 -97 26 -144 26c-103 0 -180 -46 -218 -136h292l-33 -140h-285c8 -84 67 -133 170 -133c41 0 94 8 135 22l7 -125c-56 -28 -142 -49 -216 -49z" />
    <glyph glyph-name="uni0405" unicode="&#x405;" horiz-adv-x="542" 
d="M252 -10c-80 0 -160 23 -219 55l78 142c57 -29 125 -41 184 -41c62 0 94 18 101 50c25 107 -307 40 -253 276c32 140 165 232 329 232c66 0 134 -15 182 -41l-77 -138c-42 17 -97 27 -149 27c-63 0 -104 -19 -112 -54c-24 -103 313 -26 254 -281
c-32 -139 -147 -227 -318 -227z" />
    <glyph glyph-name="uni0406" unicode="&#x406;" horiz-adv-x="285" 
d="M61 0l160 694h164l-160 -694h-164z" />
    <glyph glyph-name="uni0407" unicode="&#x407;" horiz-adv-x="291" 
d="M196 747c-55 0 -83 40 -69 99c14 60 60 100 115 100s83 -40 69 -100c-14 -59 -60 -99 -115 -99zM429 747c-55 0 -83 40 -69 99c14 60 60 100 115 100s83 -40 69 -100c-14 -59 -60 -99 -115 -99zM64 0l160 694h164l-161 -694h-163z" />
    <glyph glyph-name="uni0408" unicode="&#x408;" horiz-adv-x="421" 
d="M145 -10c-53 0 -100 12 -135 36l77 136c22 -11 52 -19 78 -19c51 0 84 30 98 90l106 461h162l-104 -451c-37 -160 -140 -253 -282 -253z" />
    <glyph glyph-name="uni0409" unicode="&#x409;" horiz-adv-x="1051" 
d="M137 -10c-54 0 -90 14 -118 41l73 129c13 -11 33 -17 53 -17c53 0 91 38 107 107l102 444h487l-58 -250h134c137 0 204 -80 175 -207c-32 -139 -166 -237 -325 -237h-246l126 543h-175l-60 -259c-46 -198 -135 -294 -275 -294zM851 312h-98l-41 -176h108
c51 0 89 32 101 84c12 54 -16 92 -70 92z" />
    <glyph glyph-name="uni040A" unicode="&#x40a;" horiz-adv-x="1004" 
d="M61 0l160 694h164l-61 -264h250l61 264h164l-58 -250h129c137 0 205 -80 176 -207c-32 -139 -167 -237 -326 -237h-245l63 274h-250l-63 -274h-164zM804 312h-93l-41 -176h103c51 0 89 32 101 84c12 54 -16 92 -70 92z" />
    <glyph glyph-name="uni040B" unicode="&#x40b;" horiz-adv-x="742" 
d="M199 0l125 542h-190l35 152h558l-35 -152h-210l-34 -148c52 26 108 41 163 41c126 0 189 -75 160 -202l-54 -233h-160l47 204c13 55 -17 81 -85 81c-33 0 -67 -6 -100 -18l-62 -267h-158z" />
    <glyph glyph-name="uni040C" unicode="&#x40c;" horiz-adv-x="632" 
d="M455 734l-41 93l202 156l60 -134zM61 0l160 694h163l-59 -257h85l207 257h177l-266 -321l113 -373h-183l-85 285h-83l-66 -285h-163z" />
    <glyph glyph-name="uni040D" unicode="&#x40d;" horiz-adv-x="713" 
d="M541 734l-168 115l122 134l131 -156zM61 0l160 694h160l-103 -448l357 448h178l-161 -694h-160l103 446l-360 -446h-174z" />
    <glyph glyph-name="uni040E" unicode="&#x40e;" horiz-adv-x="608" 
d="M481 747c-113 0 -175 59 -168 158l127 66c-6 -63 26 -105 77 -105c50 0 95 37 123 101l97 -56c-39 -103 -135 -164 -256 -164zM113 0l175 237l-135 457h193l71 -292l194 292h164l-483 -694h-179z" />
    <glyph glyph-name="uni040F" unicode="&#x40f;" horiz-adv-x="700" 
d="M236 -187l44 187h-219l160 694h159l-125 -543h260l126 543h159l-161 -694h-209l-43 -187h-151z" />
    <glyph glyph-name="uni0410" unicode="&#x410;" horiz-adv-x="658" 
d="M1 0l390 694h205l61 -694h-178l-9 143h-225l-72 -143h-172zM325 299h136l-13 242z" />
    <glyph glyph-name="uni0411" unicode="&#x411;" horiz-adv-x="590" 
d="M61 0l160 694h442l-35 -151h-284l-25 -109h135c139 0 206 -77 177 -202c-32 -138 -164 -232 -325 -232h-245zM250 136h109c52 0 88 28 100 79c12 53 -16 87 -71 87h-99z" />
    <glyph glyph-name="uni0412" unicode="&#x412;" horiz-adv-x="604" 
d="M61 0l160 694h231c159 0 229 -56 204 -163c-12 -51 -44 -96 -88 -126c66 -30 93 -92 73 -178c-31 -136 -160 -227 -323 -227h-257zM348 558l-31 -134h117c27 17 44 39 50 64c10 42 -19 70 -73 70h-63zM250 136h120c54 0 88 25 99 74c12 50 -14 82 -72 82h-111z" />
    <glyph glyph-name="uni0413" unicode="&#x413;" horiz-adv-x="512" 
d="M62 0l160 694h451l-36 -157h-287l-124 -537h-164z" />
    <glyph glyph-name="uni0414" unicode="&#x414;" horiz-adv-x="771" 
d="M-34 -187l78 338h54c62 9 108 80 138 209l77 334h486l-125 -543h123l-78 -338h-151l43 187h-451l-43 -187h-151zM392 364c-22 -96 -61 -167 -116 -213h239l91 394h-173z" />
    <glyph glyph-name="uni0415" unicode="&#x415;" horiz-adv-x="565" 
d="M61 0l160 694h463l-35 -152h-302l-26 -114h276l-35 -152h-276l-29 -124h302l-35 -152h-463z" />
    <glyph glyph-name="uni0416" unicode="&#x416;" horiz-adv-x="968" 
d="M-3 0l274 348l-99 346h191l69 -264h74l61 264h161l-61 -264h70l196 264h189l-257 -324l104 -370h-183l-75 278h-79l-65 -278h-161l65 278h-83l-209 -278h-182z" />
    <glyph glyph-name="uni0417" unicode="&#x417;" horiz-adv-x="549" 
d="M225 -10c-75 0 -134 14 -199 51l72 142c51 -24 115 -37 169 -37c73 0 120 24 130 66c10 44 -30 69 -112 69h-100l32 137h98c67 0 118 29 128 73c9 37 -23 57 -92 57c-47 0 -101 -12 -169 -38l-6 137c77 37 161 57 240 57c154 0 237 -73 211 -186
c-17 -74 -75 -131 -145 -148c75 -17 111 -77 92 -160c-31 -133 -169 -220 -349 -220z" />
    <glyph glyph-name="uni0418" unicode="&#x418;" horiz-adv-x="713" 
d="M61 0l160 694h160l-103 -448l357 448h178l-161 -694h-160l103 446l-360 -446h-174z" />
    <glyph glyph-name="uni0419" unicode="&#x419;" horiz-adv-x="713" 
d="M534 747c-113 0 -175 59 -168 158l127 66c-6 -63 26 -105 77 -105c50 0 94 37 122 101l97 -56c-39 -103 -134 -164 -255 -164zM61 0l160 694h160l-103 -448l357 448h178l-161 -694h-160l103 446l-360 -446h-174z" />
    <glyph glyph-name="uni041A" unicode="&#x41a;" horiz-adv-x="632" 
d="M61 0l160 694h163l-59 -257h85l207 257h177l-266 -321l113 -373h-183l-85 285h-83l-66 -285h-163z" />
    <glyph glyph-name="uni041B" unicode="&#x41b;" horiz-adv-x="741" 
d="M137 -10c-54 0 -90 14 -118 41l73 129c13 -11 33 -17 53 -17c53 0 91 38 107 107l102 444h487l-161 -694h-159l126 543h-175l-60 -259c-46 -198 -135 -294 -275 -294z" />
    <glyph glyph-name="uni041C" unicode="&#x41c;" horiz-adv-x="826" 
d="M61 0l160 694h156l110 -405l286 405h153l-160 -694h-156l94 408l-206 -301h-122l-69 283l-90 -390h-156z" />
    <glyph glyph-name="uni041D" unicode="&#x41d;" horiz-adv-x="699" 
d="M61 0l160 694h164l-61 -264h250l61 264h164l-161 -694h-163l63 274h-250l-63 -274h-164z" />
    <glyph glyph-name="uni041E" unicode="&#x41e;" horiz-adv-x="705" 
d="M344 -10c-193 0 -291 140 -242 351c50 218 217 363 417 363c195 0 293 -141 244 -353c-50 -217 -217 -361 -419 -361zM389 140c95 0 176 80 204 201c30 128 -18 213 -119 213c-93 0 -174 -81 -202 -203c-29 -127 17 -211 117 -211z" />
    <glyph glyph-name="uni041F" unicode="&#x41f;" horiz-adv-x="681" 
d="M61 0l160 694h560l-160 -694h-159l125 543h-242l-125 -543h-159z" />
    <glyph glyph-name="uni0420" unicode="&#x420;" horiz-adv-x="580" 
d="M61 0l160 694h241c165 0 243 -86 210 -231c-36 -156 -175 -259 -350 -259h-53l-47 -204h-161zM414 542h-67l-43 -186h82c58 0 102 34 115 90c13 58 -22 96 -87 96z" />
    <glyph glyph-name="uni0421" unicode="&#x421;" horiz-adv-x="579" 
d="M353 -10c-197 0 -300 141 -251 352c50 218 229 362 437 362c65 0 122 -14 178 -43l-76 -136c-32 16 -89 26 -140 26c-118 0 -199 -65 -228 -192c-31 -135 25 -217 155 -217c41 0 90 8 130 22l7 -125c-56 -29 -141 -49 -212 -49z" />
    <glyph glyph-name="uni0422" unicode="&#x422;" horiz-adv-x="576" 
d="M208 0l125 542h-199l35 152h558l-35 -152h-201l-125 -542h-158z" />
    <glyph glyph-name="uni0423" unicode="&#x423;" horiz-adv-x="608" 
d="M113 0l175 237l-135 457h193l71 -292l194 292h164l-483 -694h-179z" />
    <glyph glyph-name="uni0424" unicode="&#x424;" horiz-adv-x="756" 
d="M294 -20l17 73c-173 22 -251 127 -213 291c38 166 166 272 349 296l17 74h158l-17 -72c172 -23 252 -128 214 -291c-38 -166 -166 -273 -350 -298l-16 -73h-159zM257 351c-17 -75 16 -127 89 -148l67 290c-83 -19 -139 -69 -156 -142zM659 343c17 75 -14 128 -88 148
l-67 -290c82 18 138 69 155 142z" />
    <glyph glyph-name="uni0425" unicode="&#x425;" horiz-adv-x="625" 
d="M-5 0l311 362l-135 332h190l64 -189l152 189h189l-289 -327l155 -367h-195l-79 228l-176 -228h-187z" />
    <glyph glyph-name="uni0426" unicode="&#x426;" horiz-adv-x="741" 
d="M539 -187l43 187h-521l160 694h159l-125 -543h230l125 543h159l-125 -543h123l-78 -338h-150z" />
    <glyph glyph-name="uni0427" unicode="&#x427;" horiz-adv-x="606" 
d="M283 239c-121 0 -183 75 -154 202l59 253h159l-51 -224c-13 -55 17 -81 79 -81c33 0 71 7 107 22l65 283h159l-161 -694h-158l66 285c-51 -29 -113 -46 -170 -46z" />
    <glyph glyph-name="uni0428" unicode="&#x428;" horiz-adv-x="987" 
d="M61 0l160 694h159l-125 -543h194l126 543h159l-126 -543h195l125 543h159l-160 -694h-866z" />
    <glyph glyph-name="uni0429" unicode="&#x429;" horiz-adv-x="1059" 
d="M857 -187l43 187h-839l160 694h158l-125 -543h195l126 543h158l-126 -543h197l125 543h158l-125 -543h123l-78 -338h-150z" />
    <glyph glyph-name="uni042A" unicode="&#x42a;" horiz-adv-x="691" 
d="M174 0l125 543h-165l35 151h323l-55 -240h128c129 0 196 -85 167 -212c-35 -152 -153 -242 -319 -242h-239zM363 136h103c46 0 81 33 94 89c13 58 -12 97 -62 97h-92z" />
    <glyph glyph-name="uni042B" unicode="&#x42b;" horiz-adv-x="840" 
d="M61 0l160 694h158l-55 -240h116c134 0 203 -85 174 -212c-35 -152 -156 -242 -326 -242h-227zM615 -3l161 694h163l-160 -694h-164zM250 136h91c51 0 89 33 102 89c13 58 -14 97 -69 97h-81z" />
    <glyph glyph-name="uni042C" unicode="&#x42c;" horiz-adv-x="591" 
d="M61 0l160 694h158l-55 -240h135c133 0 204 -85 174 -213c-35 -151 -158 -241 -327 -241h-245zM250 136h109c51 0 89 33 102 88c14 59 -13 98 -68 98h-100z" />
    <glyph glyph-name="uni042D" unicode="&#x42d;" horiz-adv-x="592" 
d="M214 -10c-71 0 -142 16 -192 43l76 136c43 -16 100 -26 153 -26c107 0 175 43 211 135h-268l32 140h263c-4 89 -61 134 -168 134c-44 0 -97 -8 -140 -22l-7 125c61 31 147 49 220 49c203 0 306 -141 257 -354c-49 -214 -221 -360 -437 -360z" />
    <glyph glyph-name="uni042E" unicode="&#x42e;" horiz-adv-x="995" 
d="M61 0l160 694h164l-61 -264h100c69 172 208 274 380 274c200 0 297 -139 248 -353c-50 -218 -216 -361 -421 -361c-176 0 -264 105 -245 284h-98l-63 -274h-164zM675 140c98 0 180 79 208 202c29 127 -18 212 -119 212c-97 0 -172 -75 -202 -203
c-30 -130 13 -211 113 -211z" />
    <glyph glyph-name="uni042F" unicode="&#x42f;" horiz-adv-x="611" 
d="M7 0l220 244c-83 28 -115 96 -91 199c35 150 162 251 316 251h258l-161 -694h-160l53 231h-53l-188 -231h-194zM377 368h97l40 175h-119c-42 0 -76 -29 -87 -77c-13 -58 16 -98 69 -98z" />
    <glyph glyph-name="uni0430" unicode="&#x430;" horiz-adv-x="466" 
d="M168 -10c-93 0 -139 56 -119 141c23 99 115 146 295 151c7 36 -24 56 -83 56c-38 0 -80 -8 -128 -23l-10 113c62 30 136 48 203 48c141 0 195 -76 163 -217l-60 -259h-111l-4 52c-42 -41 -91 -62 -146 -62zM210 156c-5 -22 12 -37 42 -37c21 0 41 6 59 19l13 58
c-77 -3 -108 -14 -114 -40z" />
    <glyph glyph-name="uni0431" unicode="&#x431;" horiz-adv-x="493" 
d="M255 -10c-152 0 -204 119 -152 345c57 247 143 359 291 359c58 0 105 16 140 52l78 -73c-67 -90 -127 -129 -205 -129c-75 0 -112 -34 -143 -144c44 44 95 66 148 66c107 0 151 -84 119 -222c-37 -159 -142 -254 -276 -254zM333 329c-29 0 -65 -20 -94 -51
c-13 -95 6 -145 53 -145c41 0 73 38 87 98c14 62 -3 98 -46 98z" />
    <glyph glyph-name="uni0432" unicode="&#x432;" horiz-adv-x="471" 
d="M47 0l107 466h222c105 0 150 -37 133 -111c-9 -38 -29 -67 -59 -86c39 -20 52 -58 40 -111c-21 -93 -110 -158 -219 -158h-224zM275 354l-14 -64h75c10 8 16 17 19 29c6 25 -8 35 -32 35h-48zM219 112h74c22 0 40 13 45 35c5 23 -7 34 -38 34h-65z" />
    <glyph glyph-name="uni0433" unicode="&#x433;" horiz-adv-x="393" 
d="M48 0l107 466h346l-31 -134h-192l-76 -332h-154z" />
    <glyph glyph-name="uni0434" unicode="&#x434;" horiz-adv-x="552" 
d="M-29 -135l62 266h32c40 7 71 58 91 143l44 192h370l-77 -335h88l-62 -266h-136l31 135h-274l-32 -135h-137zM284 272c-14 -62 -40 -110 -77 -141h143l46 199h-98z" />
    <glyph glyph-name="uni0435" unicode="&#x435;" horiz-adv-x="457" 
d="M261 -10c-154 0 -227 92 -192 242c34 147 146 244 280 244c121 0 174 -81 142 -218c-6 -25 -14 -49 -23 -73h-257c4 -46 38 -67 102 -67c35 0 70 6 108 18l8 -114c-59 -21 -116 -32 -168 -32zM306 348c-34 0 -60 -21 -77 -63h123c9 40 -7 63 -46 63z" />
    <glyph glyph-name="uni0436" unicode="&#x436;" horiz-adv-x="707" 
d="M-10 0l187 222l-68 244h157l43 -165h48l38 165h137l-38 -165h47l122 165h155l-176 -222l73 -244h-151l-50 168h-51l-39 -168h-137l39 168h-52l-135 -168h-149z" />
    <glyph glyph-name="uni0437" unicode="&#x437;" horiz-adv-x="407" 
d="M162 -7c-58 0 -104 12 -144 34l58 115c34 -12 80 -19 122 -19c48 0 75 9 79 27s-26 29 -81 29h-61l25 109h60c49 0 78 11 83 31c4 17 -15 27 -58 27c-39 0 -81 -8 -126 -23l-5 109c60 28 126 44 183 44c115 0 178 -49 160 -127c-12 -50 -52 -87 -104 -97
c57 -11 84 -50 71 -105c-21 -93 -126 -154 -262 -154z" />
    <glyph glyph-name="uni0438" unicode="&#x438;" horiz-adv-x="509" 
d="M299 466l-56 -247c-8 -33 -11 -75 38 -75c22 0 44 9 63 23l69 299h154l-107 -466h-111l-10 64c-45 -45 -99 -70 -152 -70c-91 0 -134 71 -108 183l67 289h153z" />
    <glyph glyph-name="uni0439" unicode="&#x439;" horiz-adv-x="520" 
d="M389 547c-106 0 -164 59 -156 158l122 66c-7 -63 22 -105 69 -105s89 37 116 101l92 -56c-38 -103 -129 -164 -243 -164zM47 0l113 490h139l-61 -264l211 264h134l-113 -490h-137l61 264l-216 -264h-131z" />
    <glyph glyph-name="uni043A" unicode="&#x43a;" horiz-adv-x="488" 
d="M48 0l107 466h147l-38 -165h61l122 165h153l-174 -218l71 -248h-158l-42 164h-65l-38 -164h-146z" />
    <glyph glyph-name="uni043B" unicode="&#x43b;" horiz-adv-x="528" 
d="M80 -17c-34 0 -63 12 -80 32l49 114c10 -8 27 -14 34 -14c36 0 59 57 63 74l64 277h377l-107 -466h-148l75 326h-93l-32 -140c-24 -103 -105 -203 -202 -203z" />
    <glyph glyph-name="uni043C" unicode="&#x43c;" horiz-adv-x="583" 
d="M47 0l107 466h127l65 -246l169 246h125l-107 -466h-128l54 234l-115 -162h-76l-43 151l-51 -223h-127z" />
    <glyph glyph-name="uni043D" unicode="&#x43d;" horiz-adv-x="527" 
d="M47 0l107 466h150l-38 -164h130l38 164h149l-107 -466h-150l39 167h-130l-39 -167h-149z" />
    <glyph glyph-name="uni043E" unicode="&#x43e;" horiz-adv-x="498" 
d="M239 -10c-138 0 -205 92 -172 233c35 151 155 253 300 253c137 0 204 -93 171 -235c-35 -150 -155 -251 -299 -251zM282 134c47 0 82 34 96 94c15 65 -5 104 -55 104c-47 0 -83 -37 -97 -98c-14 -62 6 -100 56 -100z" />
    <glyph glyph-name="uni043F" unicode="&#x43f;" horiz-adv-x="513" 
d="M47 0l107 466h111l10 -64c45 45 99 70 153 70c97 0 137 -75 108 -202l-63 -270h-153l56 246c12 51 0 76 -40 76c-23 0 -45 -9 -67 -25l-68 -297h-154z" />
    <glyph glyph-name="uni0440" unicode="&#x440;" horiz-adv-x="505" 
d="M-3 -217l157 683h103l8 -58c41 43 89 68 141 68c110 0 167 -100 135 -238c-33 -143 -142 -248 -255 -248c-37 0 -66 12 -87 35l-56 -242h-146zM328 332c-23 0 -46 -9 -64 -25l-33 -145c11 -18 31 -28 55 -28c47 0 83 36 97 96c15 64 -7 102 -55 102z" />
    <glyph glyph-name="uni0441" unicode="&#x441;" horiz-adv-x="400" 
d="M245 -10c-145 0 -212 86 -178 234c36 154 152 252 300 252c45 0 91 -11 122 -28l-61 -132c-24 9 -56 16 -84 16c-63 0 -104 -35 -118 -97c-16 -69 15 -107 84 -107c24 0 51 4 78 15l6 -115c-50 -26 -97 -38 -149 -38z" />
    <glyph glyph-name="uni0442" unicode="&#x442;" horiz-adv-x="793" 
d="M47 0l107 466h111l9 -60c46 42 100 66 153 66c59 0 97 -27 113 -76c46 47 103 76 164 76c98 0 141 -74 114 -193l-64 -279h-154l57 246c9 39 6 76 -45 76c-23 0 -46 -8 -67 -22c-1 -8 -3 -18 -5 -27l-63 -273h-153l57 246c8 34 9 76 -46 76c-21 0 -44 -7 -65 -21
l-69 -301h-154z" />
    <glyph glyph-name="uni0443" unicode="&#x443;" horiz-adv-x="453" 
d="M28 -217l124 209l-51 474h163l2 -316l156 316h147l-267 -474l-114 -209h-160z" />
    <glyph glyph-name="uni0444" unicode="&#x444;" horiz-adv-x="696" 
d="M192 -5c-102 0 -153 97 -121 234c32 140 134 237 249 237c25 0 45 -7 63 -18l15 63c33 143 131 238 245 238c41 0 79 -12 102 -32l-60 -126c-9 8 -35 16 -56 16c-43 0 -70 -30 -89 -81l-19 -84c27 16 56 24 86 24c104 0 155 -96 124 -230c-33 -144 -134 -241 -248 -241
c-25 0 -45 5 -62 14l-1 -5c-31 -133 -128 -221 -242 -221c-41 0 -78 12 -101 32l59 123c10 -7 35 -13 56 -13c43 0 69 25 86 67l7 32c-30 -19 -61 -29 -93 -29zM225 235c-14 -62 4 -100 48 -100c15 0 27 4 40 11l39 168c-10 7 -22 12 -37 12c-42 0 -77 -36 -90 -91zM521 326
c-9 0 -19 -2 -28 -6l-41 -175c10 -6 22 -10 35 -10c44 0 77 36 91 96c14 59 -8 95 -57 95z" />
    <glyph glyph-name="uni0445" unicode="&#x445;" horiz-adv-x="446" 
d="M-4 0l206 229l-101 237h170l36 -115l94 115h164l-216 -231l96 -235h-169l-35 110l-90 -110h-155z" />
    <glyph glyph-name="uni0446" unicode="&#x446;" horiz-adv-x="565" 
d="M392 -136l32 136h-377l107 466h148l-77 -333h117l77 333h148l-77 -333h103l-62 -269h-139z" />
    <glyph glyph-name="uni0447" unicode="&#x447;" horiz-adv-x="492" 
d="M210 150c-96 0 -146 56 -125 147l39 169h147l-29 -127c-5 -23 21 -41 58 -41c19 0 44 5 65 12l36 156h149l-107 -466h-150l43 185c-40 -24 -83 -35 -126 -35z" />
    <glyph glyph-name="uni0448" unicode="&#x448;" horiz-adv-x="793" 
d="M859 490l-107 -466h-111l-9 60c-46 -42 -100 -66 -153 -66c-59 0 -97 27 -113 76c-46 -47 -103 -76 -164 -76c-98 0 -141 74 -114 193l64 279h154l-57 -246c-9 -39 -6 -76 45 -76c23 0 46 8 67 22c1 8 3 18 5 27l63 273h153l-57 -246c-8 -34 -9 -76 46 -76
c21 0 44 7 65 21l69 301h154z" />
    <glyph glyph-name="uni0449" unicode="&#x449;" horiz-adv-x="790" 
d="M617 -135l31 135h-601l107 466h143l-77 -333h114l76 333h143l-77 -333h116l77 333h142l-77 -333h83l-62 -268h-138z" />
    <glyph glyph-name="uni044A" unicode="&#x44a;" horiz-adv-x="492" 
d="M109 0l76 330h-106l31 136h248l-33 -144h65c103 0 157 -59 137 -147c-25 -110 -119 -175 -252 -175h-166zM280 126h43c27 0 46 14 51 36s-14 36 -45 36h-32z" />
    <glyph glyph-name="uni044B" unicode="&#x44b;" horiz-adv-x="678" 
d="M479 -3l108 469h148l-108 -469h-148zM47 0l107 466h143l-31 -132h75c102 0 156 -61 135 -152c-26 -114 -120 -182 -252 -182h-177zM218 126h52c27 0 47 16 53 42s-13 42 -43 42h-42z" />
    <glyph glyph-name="uni044C" unicode="&#x44c;" horiz-adv-x="454" 
d="M47 0l107 466h143l-31 -132h88c101 0 154 -61 133 -152c-26 -114 -119 -182 -251 -182h-189zM218 126h65c25 0 45 16 51 42s-13 42 -42 42h-54z" />
    <glyph glyph-name="uni044D" unicode="&#x44d;" horiz-adv-x="421" 
d="M163 -7c-48 0 -110 10 -149 31l60 110c23 -8 82 -14 118 -14c59 0 95 17 115 57h-182l27 117h176c-9 38 -42 56 -101 56c-24 0 -79 -5 -107 -13l-3 103c37 19 120 36 174 36c135 0 202 -90 168 -238c-35 -151 -150 -245 -296 -245z" />
    <glyph glyph-name="uni044E" unicode="&#x44e;" horiz-adv-x="714" 
d="M47 0l107 466h143l-39 -166h70c47 109 140 174 254 174c135 0 202 -93 169 -238c-34 -147 -147 -243 -286 -243c-115 0 -175 64 -169 174h-68l-39 -167h-142zM501 129c49 0 88 40 102 100c15 64 -8 107 -59 107c-46 0 -81 -37 -96 -101c-15 -66 5 -106 53 -106z" />
    <glyph glyph-name="uni044F" unicode="&#x44f;" horiz-adv-x="470" 
d="M-1 0l161 155c-61 20 -87 69 -71 139c24 103 121 172 239 172h201l-107 -466h-141l34 145h-17l-131 -145h-168zM279 256h61l17 74h-78c-22 0 -39 -13 -44 -35c-6 -26 11 -39 44 -39z" />
    <glyph glyph-name="uni0450" unicode="&#x450;" horiz-adv-x="457" 
d="M328 510l-103 157l133 111l56 -195zM261 -10c-154 0 -227 92 -192 242c34 147 146 244 280 244c121 0 174 -81 142 -218c-6 -25 -14 -49 -23 -73h-257c4 -46 38 -67 102 -67c35 0 70 6 108 18l8 -114c-59 -21 -116 -32 -168 -32zM306 348c-34 0 -60 -21 -77 -63h123
c9 40 -7 63 -46 63z" />
    <glyph glyph-name="uni0451" unicode="&#x451;" horiz-adv-x="465" 
d="M250 557c-53 0 -79 40 -65 99c14 60 58 100 111 100s79 -40 65 -100c-14 -59 -58 -99 -111 -99zM471 557c-53 0 -79 40 -65 99c14 60 58 100 111 100s79 -40 65 -100c-14 -59 -58 -99 -111 -99zM266 -10c-157 0 -232 92 -197 242c34 147 148 244 285 244
c124 0 178 -81 146 -218c-6 -25 -14 -49 -23 -73h-260c4 -46 39 -67 103 -67c35 0 71 6 110 18l7 -114c-60 -21 -118 -32 -171 -32zM313 348c-35 0 -61 -21 -78 -63h126c9 40 -9 63 -48 63z" />
    <glyph glyph-name="uni0452" unicode="&#x452;" horiz-adv-x="168" 
d="M78 0h54h-16h-18h159h-19h-90h1h-71z" />
    <glyph glyph-name="uni0453" unicode="&#x453;" horiz-adv-x="393" 
d="M326 511l-55 73l149 194l82 -111zM48 0l107 466h346l-31 -134h-192l-76 -332h-154z" />
    <glyph glyph-name="uni0454" unicode="&#x454;" horiz-adv-x="426" 
d="M256 -10c-151 0 -223 86 -189 233c35 153 160 251 315 251c46 0 96 -10 132 -28l-55 -119c-27 9 -69 15 -101 15c-55 0 -97 -17 -121 -50h179l-26 -112h-182c8 -41 45 -64 109 -64c31 0 66 6 97 16l6 -104c-55 -27 -110 -38 -164 -38z" />
    <glyph glyph-name="uni0455" unicode="&#x455;" horiz-adv-x="409" 
d="M190 -10c-61 0 -121 14 -164 37l59 120c40 -16 91 -27 128 -27s62 12 66 30c13 56 -220 -6 -179 171c23 100 106 155 236 155c50 0 103 -9 141 -24l-56 -124c-39 11 -80 18 -113 18c-41 0 -63 -10 -67 -26c-12 -52 224 1 184 -174c-23 -99 -108 -156 -235 -156z" />
    <glyph glyph-name="uni0456" unicode="&#x456;" horiz-adv-x="256" 
d="M256 557c-52 0 -80 40 -66 99c14 60 60 100 112 100s79 -40 65 -100c-14 -59 -59 -99 -111 -99zM50 0l113 490h154l-113 -490h-154z" />
    <glyph glyph-name="uni0457" unicode="&#x457;" horiz-adv-x="251" 
d="M144 557c-52 0 -79 40 -65 99c14 60 59 100 111 100s79 -40 65 -100c-14 -59 -59 -99 -111 -99zM366 557c-53 0 -79 40 -65 99c14 60 58 100 111 100s79 -40 65 -100c-14 -59 -58 -99 -111 -99zM49 0l113 490h154l-113 -490h-154z" />
    <glyph glyph-name="uni0458" unicode="&#x458;" horiz-adv-x="252" 
d="M255 557c-53 0 -79 40 -65 99c14 60 58 100 111 100s79 -40 65 -100c-14 -59 -58 -99 -111 -99zM-33 -232l-21 94c54 38 94 99 109 164l107 464h154l-107 -464c-26 -114 -123 -217 -242 -258z" />
    <glyph glyph-name="uni0459" unicode="&#x459;" horiz-adv-x="753" 
d="M80 -17c-34 0 -63 12 -80 32l50 115c10 -8 26 -15 33 -15c36 0 59 57 63 74l64 277h377l-33 -145h98c101 0 155 -58 135 -146c-25 -109 -118 -175 -250 -175h-205l75 326h-93l-32 -140c-24 -103 -105 -203 -202 -203zM590 197h-65l-16 -71h75c25 0 44 14 49 36
s-14 35 -43 35z" />
    <glyph glyph-name="uni045A" unicode="&#x45a;" horiz-adv-x="752" 
d="M47 0l107 466h150l-37 -159h130l37 159h149l-29 -129h99c101 0 154 -62 133 -154c-26 -115 -119 -183 -251 -183h-209l40 172h-130l-40 -172h-149zM592 213h-67l-20 -87h77c25 0 45 17 51 44s-12 43 -41 43z" />
    <glyph glyph-name="uni045B" unicode="&#x45b;" horiz-adv-x="507" 
d="M46 0l121 525h-56l24 107h57l25 107h151l-25 -107h100l-24 -107h-101l-24 -105c40 35 84 52 129 52c98 0 140 -72 112 -193l-65 -279h-154l57 246c12 51 0 76 -43 76c-22 0 -43 -7 -65 -27l-68 -295h-151z" />
    <glyph glyph-name="uni045C" unicode="&#x45c;" horiz-adv-x="488" 
d="M381 532l-54 67l143 179l84 -102zM48 0l113 490h147l-41 -177h61l125 177h153l-177 -230l68 -260h-158l-39 176h-65l-41 -176h-146z" />
    <glyph glyph-name="uni045D" unicode="&#x45d;" horiz-adv-x="520" 
d="M366 532l-109 144l135 102l59 -179zM47 0l113 490h139l-61 -264l211 264h134l-113 -490h-137l61 264l-216 -264h-131z" />
    <glyph glyph-name="uni045E" unicode="&#x45e;" horiz-adv-x="453" 
d="M358 547c-103 0 -160 59 -152 158l118 66c-7 -63 22 -105 69 -105c46 0 88 37 115 101l88 -56c-37 -103 -127 -164 -238 -164zM28 -217l126 217l-48 490h164l-1 -327l159 327h147l-272 -490l-115 -217h-160z" />
    <glyph glyph-name="uni045F" unicode="&#x45f;" horiz-adv-x="509" 
d="M299 466l-56 -247c-8 -33 -11 -75 38 -75c22 0 44 9 63 23l69 299h154l-107 -466h-111l-10 64c-45 -45 -99 -70 -152 -70c-91 0 -134 71 -108 183l67 289h153z" />
    <glyph glyph-name="uni0462" unicode="&#x462;" horiz-adv-x="650" 
d="M111 0l114 493h-100l29 128h101l17 73h158l-17 -73h133l-30 -128h-133l-11 -49h144c137 0 205 -80 176 -207c-32 -139 -167 -237 -326 -237h-255zM301 136h118c51 0 89 32 101 84c12 54 -16 92 -70 92h-109z" />
    <glyph glyph-name="uni0463" unicode="&#x463;" horiz-adv-x="460" 
d="M59 0l92 400h-63l31 136h64l47 203h138l-47 -203h115l-32 -136h-115l-16 -69h88c101 0 155 -61 134 -151c-26 -113 -119 -180 -251 -180h-185zM226 126h65c25 0 44 15 50 40s-13 41 -42 41h-54z" />
    <glyph glyph-name="uni046A" unicode="&#x46a;" horiz-adv-x="737" 
d="M170 0h-156c49 213 141 340 285 392l-96 154l34 148h579l-35 -148l-173 -146c132 -46 169 -176 117 -400h-156c36 154 17 243 -58 276l-64 -276h-155l64 280c-90 -29 -149 -119 -186 -280zM397 550l64 -130l124 130h-188z" />
    <glyph glyph-name="uni046B" unicode="&#x46b;" horiz-adv-x="558" 
d="M140 0h-133c33 141 98 231 203 270l-69 95l29 124h441l-29 -124l-117 -88c95 -36 122 -128 88 -277h-134c21 91 9 145 -38 167l-39 -167h-125l40 170c-57 -20 -95 -75 -117 -170zM298 369l39 -75h13l75 75h-127z" />
    <glyph glyph-name="uni0472" unicode="&#x472;" horiz-adv-x="705" 
d="M344 -10c-193 0 -291 140 -242 351c50 218 217 363 417 363c195 0 293 -141 244 -353c-50 -217 -217 -361 -419 -361zM474 554c-76 0 -143 -54 -181 -140h309c-1 86 -47 140 -128 140zM389 140c77 0 146 53 184 139h-309c0 -86 46 -139 125 -139z" />
    <glyph glyph-name="uni0473" unicode="&#x473;" horiz-adv-x="486" 
d="M233 -10c-134 0 -199 92 -166 233c35 151 152 253 293 253c133 0 198 -93 165 -235c-35 -150 -152 -251 -292 -251zM317 332c-33 0 -61 -17 -78 -46h138c-5 29 -26 46 -60 46zM276 134c34 0 60 16 78 45h-139c5 -28 26 -45 61 -45z" />
    <glyph glyph-name="uni0474" unicode="&#x474;" horiz-adv-x="678" 
d="M229 0l-68 694h188l20 -484l146 296c63 130 166 198 299 198l-18 -163c-72 0 -122 -35 -163 -111l-232 -430h-172z" />
    <glyph glyph-name="uni0475" unicode="&#x475;" horiz-adv-x="449" 
d="M139 0l-32 486h156l-3 -295l71 159c41 93 116 143 215 143l-17 -147c-52 0 -82 -24 -102 -64l-143 -282h-145z" />
    <glyph glyph-name="uni0490" unicode="&#x490;" horiz-adv-x="512" 
d="M62 0l160 694h327l39 166h123l-73 -318h-287l-125 -542h-164z" />
    <glyph glyph-name="uni0491" unicode="&#x491;" horiz-adv-x="408" 
d="M48 0l107 466h221l36 158h139l-67 -292h-206l-76 -332h-154z" />
    <glyph glyph-name="uni0492" unicode="&#x492;" horiz-adv-x="538" 
d="M98 0l61 267h-96l28 120h96l71 307h442l-36 -152h-278l-35 -155h141l-28 -120h-141l-62 -267h-163z" />
    <glyph glyph-name="uni0493" unicode="&#x493;" horiz-adv-x="419" 
d="M74 0l36 156h-68l28 120h67l44 190h346l-31 -134h-192l-13 -56h123l-27 -120h-123l-36 -156h-154z" />
    <glyph glyph-name="uni0494" unicode="&#x494;" horiz-adv-x="638" 
d="M61 0l160 694h442l-35 -152h-284l-43 -189c54 31 112 48 171 48c148 0 217 -108 178 -277c-44 -192 -197 -329 -413 -370l5 108c121 22 211 106 238 223c24 103 -17 166 -106 166c-34 0 -70 -10 -103 -28l-52 -223h-158z" />
    <glyph glyph-name="uni0495" unicode="&#x495;" horiz-adv-x="492" 
d="M44 -13l110 479h323l-31 -136h-181l-21 -93c36 21 76 32 115 32c113 0 168 -90 137 -223c-34 -149 -151 -255 -314 -286l4 95c76 19 132 77 151 158c17 75 -10 125 -67 125c-17 0 -35 -4 -52 -13l-32 -138h-142z" />
    <glyph glyph-name="uni0496" unicode="&#x496;" horiz-adv-x="1009" 
d="M2 0l274 348l-99 346h191l69 -264h73l61 264h161l-61 -264h71l196 264h188l-257 -324l62 -219h103l-78 -338h-151l43 187h-58v2l-75 276h-79l-64 -278h-161l64 278h-83l-209 -278h-181z" />
    <glyph glyph-name="uni0497" unicode="&#x497;" horiz-adv-x="740" 
d="M-11 -7l187 225l-67 248h157l42 -169h48l39 169h137l-39 -169h47l123 169h160l-182 -226l38 -125h84l-58 -251h-131l29 129h-40l-50 171h-51l-39 -171h-137l39 171h-52l-135 -171h-149z" />
    <glyph glyph-name="uni0498" unicode="&#x498;" horiz-adv-x="549" 
d="M208 -258c-40 0 -79 8 -102 23l37 92c17 -9 49 -15 73 -15c27 0 44 8 47 21c5 21 -20 35 -79 41l35 86c-72 1 -130 15 -193 51l72 142c51 -24 115 -37 169 -37c73 0 120 24 130 66c10 44 -30 69 -112 69h-100l32 137h98c67 0 118 29 128 73c9 37 -23 57 -92 57
c-47 0 -101 -12 -169 -38l-6 137c77 37 161 57 240 57c154 0 237 -73 211 -186c-17 -74 -75 -131 -145 -148c75 -17 111 -77 92 -160c-24 -106 -117 -183 -244 -210l-19 -44c65 -11 91 -43 79 -95c-17 -73 -87 -119 -182 -119z" />
    <glyph glyph-name="uni0499" unicode="&#x499;" horiz-adv-x="407" 
d="M136 -258c-37 0 -74 8 -95 23l36 92c16 -9 44 -15 66 -15c25 0 41 8 44 21c5 21 -18 35 -72 41l34 89c-52 1 -94 13 -131 34l58 115c34 -12 80 -19 122 -19c48 0 75 9 79 27s-26 29 -81 29h-61l25 109h60c49 0 78 11 83 31c4 17 -15 27 -58 27c-39 0 -81 -8 -126 -23
l-5 109c60 28 126 44 183 44c115 0 178 -49 160 -127c-12 -50 -52 -87 -104 -97c57 -11 84 -50 71 -105c-16 -70 -80 -122 -171 -143l-20 -48c62 -11 87 -43 75 -95c-17 -73 -83 -119 -172 -119z" />
    <glyph glyph-name="uni049A" unicode="&#x49a;" horiz-adv-x="677" 
d="M61 0l160 694h163l-59 -257h85l207 257h177l-266 -321l68 -222h105l-78 -338h-150l43 187h-59l1 2l-85 283h-83l-66 -285h-163z" />
    <glyph glyph-name="uni049B" unicode="&#x49b;" horiz-adv-x="522" 
d="M46 -7l109 473h147l-39 -169h62l122 169h158l-180 -222l38 -129h78l-58 -251h-132l30 129h-44l-41 167h-65l-38 -167h-147z" />
    <glyph glyph-name="uni049C" unicode="&#x49c;" horiz-adv-x="667" 
d="M61 0l160 694h163l-59 -257h36l27 118h84l-27 -118h13l193 257h177l-248 -321l95 -373h-183l-70 285h-13l-26 -116h-84l27 116h-36l-66 -285h-163z" />
    <glyph glyph-name="uni049D" unicode="&#x49d;" horiz-adv-x="516" 
d="M48 0l107 466h147l-39 -169h17l23 100h71l-23 -100h2l123 169h153l-166 -219l63 -247h-159l-41 167h-5l-21 -93h-71l21 93h-17l-39 -167h-146z" />
    <glyph glyph-name="uni04A0" unicode="&#x4a0;" horiz-adv-x="720" 
d="M149 0l125 542h-152l35 152h315l-60 -257h86l207 257h177l-266 -321l113 -373h-183l-85 285h-84l-65 -285h-163z" />
    <glyph glyph-name="uni04A1" unicode="&#x4a1;" horiz-adv-x="567" 
d="M129 0l77 332h-134l30 134h281l-40 -174h55l131 174h153l-176 -224l73 -242h-159l-47 164h-59l-38 -164h-147z" />
    <glyph glyph-name="uni04A2" unicode="&#x4a2;" horiz-adv-x="752" 
d="M61 0l160 694h164l-61 -264h250l61 264h164l-126 -543h118l-78 -338h-150l43 187h-131l63 274h-250l-63 -274h-164z" />
    <glyph glyph-name="uni04A3" unicode="&#x4a3;" horiz-adv-x="556" 
d="M45 -7l109 473h150l-39 -168h130l39 168h149l-81 -351h78l-58 -251h-132l30 129h-95l39 170h-130l-39 -170h-150z" />
    <glyph glyph-name="uni04A4" unicode="&#x4a4;" horiz-adv-x="888" 
d="M62 0l160 694h164l-61 -264h250l61 264h407l-35 -152h-243l-126 -542h-163l63 274h-250l-63 -274h-164z" />
    <glyph glyph-name="uni04A5" unicode="&#x4a5;" horiz-adv-x="626" 
d="M48 0l107 466h150l-40 -172h130l40 172h298l-31 -134h-149l-76 -332h-150l37 159h-130l-37 -159h-149z" />
    <glyph glyph-name="uni04AA" unicode="&#x4aa;" horiz-adv-x="579" 
d="M197 -187l45 195c-123 44 -179 167 -140 334c50 218 229 362 437 362c65 0 122 -14 178 -43l-76 -136c-32 16 -89 26 -140 26c-118 0 -199 -65 -228 -192c-31 -135 25 -217 155 -217c41 0 90 8 130 22l7 -125c-46 -24 -111 -41 -172 -47l-41 -179h-155z" />
    <glyph glyph-name="uni04AB" unicode="&#x4ab;" horiz-adv-x="406" 
d="M134 -136l32 138c-89 29 -126 106 -99 222c36 154 153 252 303 252c46 0 93 -11 124 -28l-61 -132c-24 9 -58 16 -87 16c-65 0 -106 -35 -120 -97c-16 -69 16 -107 87 -107c25 0 52 4 80 15l6 -115c-33 -17 -64 -28 -96 -34l-30 -130h-139z" />
    <glyph glyph-name="Ustraitcy" unicode="&#x4ae;" horiz-adv-x="608" 
d="M228 0l58 251l-144 443h190l75 -292l198 292h181l-340 -447l-57 -247h-161z" />
    <glyph glyph-name="ustraitcy" unicode="&#x4af;" horiz-adv-x="460" 
d="M152 -8l-51 474h162l6 -315l160 315h149l-272 -474l-48 -209h-154z" />
    <glyph glyph-name="Ustraitstrokecy" unicode="&#x4b0;" horiz-adv-x="608" 
d="M96 173l28 120h149l-131 401h190l75 -292l198 292h181l-305 -401h152l-28 -120h-176l-40 -173h-161l40 173h-172z" />
    <glyph glyph-name="uni04B2" unicode="&#x4b2;" horiz-adv-x="661" 
d="M0 0l310 362l-135 332h191l64 -189l152 189h188l-288 -327l90 -216h115l-78 -338h-151l43 187h-59l-80 228l-175 -228h-187z" />
    <glyph glyph-name="uni04B3" unicode="&#x4b3;" horiz-adv-x="469" 
d="M-6 -5l207 231l-100 240h170l35 -117l95 117h169l-222 -234l49 -114h88l-58 -254h-132l30 131h-50l-35 111l-90 -111h-156z" />
    <glyph glyph-name="uni04B6" unicode="&#x4b6;" horiz-adv-x="676" 
d="M283 239c-121 0 -183 75 -154 202l59 253h159l-51 -224c-13 -55 17 -81 79 -81c33 0 71 7 107 22l65 283h159l-126 -543h122l-78 -338h-151l43 187h-129l66 285c-51 -29 -113 -46 -170 -46z" />
    <glyph glyph-name="uni04B7" unicode="&#x4b7;" horiz-adv-x="528" 
d="M209 147c-96 0 -145 56 -124 148l39 171h147l-30 -130c-5 -24 21 -41 58 -41c19 0 44 4 65 12l37 159h149l-81 -352h78l-58 -250h-132l30 129h-95l43 189c-40 -24 -83 -35 -126 -35z" />
    <glyph glyph-name="uni04B8" unicode="&#x4b8;" horiz-adv-x="624" 
d="M283 130l25 109h-14c-128 0 -194 75 -165 202l59 253h159l-51 -224c-10 -43 6 -68 48 -77l28 123h94l-28 -122c21 3 43 9 63 17l65 283h158l-160 -694h-158l66 286c-21 -12 -43 -21 -65 -28l-30 -128h-94z" />
    <glyph glyph-name="uni04B9" unicode="&#x4b9;" horiz-adv-x="493" 
d="M207 64l21 90h-15c-98 0 -148 55 -127 145l38 167h147l-30 -130c-3 -14 5 -27 21 -34l22 95h72l-23 -100c11 3 23 6 33 10l37 159h149l-107 -466h-150l43 186c-11 -6 -22 -11 -34 -16l-25 -106h-72z" />
    <glyph glyph-name="uni04BA" unicode="&#x4ba;" horiz-adv-x="603" 
d="M60 0l152 660h159l-62 -266c52 26 108 41 163 41c126 0 189 -75 160 -202l-54 -233h-160l47 204c13 55 -16 81 -84 81c-33 0 -68 -6 -101 -18l-62 -267h-158z" />
    <glyph glyph-name="uni04BB" unicode="&#x4bb;" horiz-adv-x="511" 
d="M47 0l170 739h152l-74 -319c40 35 83 52 128 52c98 0 140 -72 112 -193l-64 -279h-154l57 246c12 51 -1 76 -44 76c-22 0 -42 -7 -64 -27l-68 -295h-151z" />
    <glyph glyph-name="uni04C0" unicode="&#x4c0;" horiz-adv-x="285" 
d="M61 0l160 694h164l-160 -694h-164z" />
    <glyph glyph-name="uni04C1" unicode="&#x4c1;" horiz-adv-x="968" 
d="M662 747c-113 0 -175 59 -168 158l126 66c-6 -63 27 -105 78 -105c50 0 94 37 122 101l97 -56c-39 -103 -134 -164 -255 -164zM-3 0l274 348l-99 346h191l69 -264h74l61 264h161l-61 -264h70l196 264h189l-257 -324l104 -370h-183l-75 278h-79l-65 -278h-161l65 278h-83
l-209 -278h-182z" />
    <glyph glyph-name="uni04C2" unicode="&#x4c2;" horiz-adv-x="707" 
d="M484 547c-105 0 -162 59 -154 158l118 66c-7 -63 24 -105 72 -105s90 37 117 101l88 -56c-38 -103 -128 -164 -241 -164zM-10 0l190 234l-65 256h156l41 -177h48l40 177h137l-41 -177h48l124 177h156l-179 -234l70 -256h-151l-47 180h-51l-42 -180h-137l42 180h-52
l-138 -180h-149z" />
    <glyph glyph-name="uni04CB" unicode="&#x4cb;" horiz-adv-x="606" 
d="M283 239c-121 0 -183 75 -154 202l59 253h159l-51 -224c-13 -55 17 -81 79 -81c33 0 71 7 107 22l65 283h159l-161 -694h-85l-43 -187h-151l78 338h78l31 134c-51 -29 -113 -46 -170 -46z" />
    <glyph glyph-name="uni04CC" unicode="&#x4cc;" horiz-adv-x="495" 
d="M211 147c-97 0 -147 56 -126 148l39 171h147l-30 -130c-5 -24 22 -41 60 -41c19 0 45 4 67 12l36 159h150l-109 -473h-97l-30 -129h-139l57 246h86l17 72c-40 -24 -85 -35 -128 -35z" />
    <glyph glyph-name="uni04CF" unicode="&#x4cf;" horiz-adv-x="277" 
d="M58 0l160 694h157l-160 -694h-157z" />
    <glyph glyph-name="uni04D0" unicode="&#x4d0;" horiz-adv-x="658" 
d="M505 747c-113 0 -175 59 -168 158l127 66c-6 -63 26 -105 77 -105c50 0 95 37 123 101l97 -56c-39 -103 -135 -164 -256 -164zM1 0l390 694h205l61 -694h-178l-9 143h-225l-72 -143h-172zM325 299h136l-13 242z" />
    <glyph glyph-name="uni04D1" unicode="&#x4d1;" horiz-adv-x="465" 
d="M359 530c-106 0 -165 61 -156 164l125 77c-9 -73 19 -122 67 -122c47 0 91 43 120 117l89 -65c-39 -108 -131 -171 -245 -171zM168 -10c-93 0 -139 56 -119 141c23 99 115 146 295 151c7 36 -24 56 -83 56c-38 0 -80 -8 -128 -23l-10 113c62 30 136 48 203 48
c141 0 195 -76 163 -217l-60 -259h-111l-4 52c-42 -41 -91 -62 -146 -62zM210 156c-5 -22 12 -37 42 -37c21 0 41 6 59 19l13 58c-77 -3 -108 -14 -114 -40z" />
    <glyph glyph-name="uni04D2" unicode="&#x4d2;" horiz-adv-x="658" 
d="M379 747c-55 0 -83 40 -69 99c14 60 60 100 115 100s83 -40 69 -100c-14 -59 -60 -99 -115 -99zM611 747c-55 0 -83 40 -69 99c14 60 60 100 115 100s83 -40 69 -100c-14 -59 -60 -99 -115 -99zM1 0l390 694h205l61 -694h-178l-9 143h-225l-72 -143h-172zM325 299h136
l-13 242z" />
    <glyph glyph-name="uni04D3" unicode="&#x4d3;" horiz-adv-x="468" 
d="M252 557c-53 0 -79 40 -65 99c14 60 58 100 111 100s79 -40 65 -100c-14 -59 -58 -99 -111 -99zM472 557c-52 0 -79 40 -65 99c14 60 59 100 111 100s79 -40 65 -100c-14 -59 -59 -99 -111 -99zM170 -10c-94 0 -141 56 -121 141c23 99 117 146 298 151
c7 36 -25 56 -85 56c-38 0 -80 -8 -129 -23l-10 113c62 30 137 48 204 48c142 0 197 -76 165 -217l-60 -259h-111l-4 52c-42 -41 -91 -62 -147 -62zM210 156c-5 -22 12 -37 43 -37c21 0 42 6 61 19l13 58c-78 -3 -111 -14 -117 -40z" />
    <glyph glyph-name="uni04D4" unicode="&#x4d4;" horiz-adv-x="950" 
d="M-4 0l548 694h526l-35 -152h-302l-26 -112h276l-35 -152h-276l-30 -126h303l-35 -152h-464l35 149h-195l-113 -149h-177zM403 305h114l50 218z" />
    <glyph glyph-name="uni04D5" unicode="&#x4d5;" horiz-adv-x="694" 
d="M160 -10c-86 0 -131 52 -113 130c23 98 130 158 292 164c0 32 -25 50 -72 50c-38 0 -90 -11 -140 -31l-8 111c65 39 143 62 211 62c54 0 91 -16 111 -50c41 33 89 50 143 50c122 0 176 -83 144 -222c-6 -26 -15 -54 -22 -69h-253c5 -45 36 -65 99 -65c32 0 68 5 106 17
l8 -115c-59 -21 -116 -32 -168 -32c-85 0 -141 30 -164 87c-56 -59 -113 -87 -174 -87zM542 344c-32 0 -56 -19 -71 -59h113c9 37 -7 59 -42 59zM209 151c-5 -20 9 -32 38 -32c23 0 48 8 74 24c-1 15 1 30 3 48c-75 -2 -109 -13 -115 -40z" />
    <glyph glyph-name="uni04D6" unicode="&#x4d6;" horiz-adv-x="565" 
d="M459 747c-113 0 -175 59 -168 158l127 66c-6 -63 26 -105 77 -105c50 0 95 37 123 101l97 -56c-39 -103 -135 -164 -256 -164zM61 0l160 694h463l-35 -152h-302l-26 -114h276l-35 -152h-276l-29 -124h302l-35 -152h-463z" />
    <glyph glyph-name="uni04D7" unicode="&#x4d7;" horiz-adv-x="457" 
d="M354 530c-105 0 -161 61 -152 164l120 77c-9 -73 18 -122 66 -122c47 0 90 43 119 117l90 -65c-39 -108 -130 -171 -243 -171zM261 -10c-154 0 -227 92 -192 242c34 147 146 244 280 244c121 0 174 -81 142 -218c-6 -25 -14 -49 -23 -73h-257c4 -46 38 -67 102 -67
c35 0 70 6 108 18l8 -114c-59 -21 -116 -32 -168 -32zM306 348c-34 0 -60 -21 -77 -63h123c9 40 -7 63 -46 63z" />
    <glyph glyph-name="uni04D8" unicode="&#x4d8;" horiz-adv-x="687" 
d="M456 704c222 0 329 -133 278 -354c-50 -217 -217 -360 -412 -360c-174 0 -256 115 -216 290c10 44 23 90 38 134h426c-3 97 -62 140 -175 140c-59 0 -123 -13 -184 -37l-6 131c83 37 167 56 251 56zM369 140c86 0 145 40 176 132h-287c-21 -92 22 -132 111 -132z" />
    <glyph glyph-name="uni04D9" unicode="&#x4d9;" horiz-adv-x="457" 
d="M302 476c154 0 227 -92 192 -242c-34 -147 -146 -244 -280 -244c-121 0 -174 81 -142 218c6 25 14 49 23 73h257c-4 46 -37 67 -101 67c-35 0 -71 -6 -109 -18l-7 114c59 21 115 32 167 32zM257 117c34 0 60 22 77 64h-123c-9 -40 8 -64 46 -64z" />
    <glyph glyph-name="uni04DC" unicode="&#x4dc;" horiz-adv-x="968" 
d="M535 747c-55 0 -83 40 -69 99c14 60 60 100 115 100s83 -40 69 -100c-14 -59 -60 -99 -115 -99zM768 747c-55 0 -83 40 -69 99c14 60 60 100 115 100s83 -40 69 -100c-14 -59 -60 -99 -115 -99zM-3 0l274 348l-99 346h191l69 -264h74l61 264h161l-61 -264h70l196 264h189
l-257 -324l104 -370h-183l-75 278h-79l-65 -278h-161l65 278h-83l-209 -278h-182z" />
    <glyph glyph-name="uni04DD" unicode="&#x4dd;" horiz-adv-x="717" 
d="M377 557c-53 0 -80 40 -66 99c14 60 59 100 112 100s79 -40 65 -100c-14 -59 -58 -99 -111 -99zM599 557c-52 0 -79 40 -65 99c14 60 59 100 111 100s79 -40 65 -100c-14 -59 -59 -99 -111 -99zM-10 0l190 234l-65 256h156l44 -177h50l41 177h137l-41 -177h49l127 177
h156l-179 -234l70 -256h-150l-51 180h-53l-41 -180h-138l42 180h-54l-141 -180h-149z" />
    <glyph glyph-name="uni04DE" unicode="&#x4de;" horiz-adv-x="549" 
d="M326 747c-55 0 -83 40 -69 99c14 60 60 100 115 100s83 -40 69 -100c-14 -59 -60 -99 -115 -99zM559 747c-55 0 -83 40 -69 99c14 60 60 100 115 100s83 -40 69 -100c-14 -59 -60 -99 -115 -99zM225 -10c-75 0 -134 14 -199 51l72 142c51 -24 115 -37 169 -37
c73 0 120 24 130 66c10 44 -30 69 -112 69h-100l32 137h98c67 0 118 29 128 73c9 37 -23 57 -92 57c-47 0 -101 -12 -169 -38l-6 137c77 37 161 57 240 57c154 0 237 -73 211 -186c-17 -74 -75 -131 -145 -148c75 -17 111 -77 92 -160c-31 -133 -169 -220 -349 -220z" />
    <glyph glyph-name="uni04DF" unicode="&#x4df;" horiz-adv-x="415" 
d="M226 557c-53 0 -79 40 -65 99c14 60 58 100 111 100s79 -40 65 -100c-14 -59 -58 -99 -111 -99zM447 557c-52 0 -79 40 -65 99c14 60 59 100 111 100s79 -40 65 -100c-14 -59 -59 -99 -111 -99zM165 -7c-59 0 -106 12 -147 34l59 115c35 -12 83 -19 126 -19
c49 0 77 9 81 27s-27 29 -83 29h-63l25 109h62c50 0 80 11 85 31c4 17 -16 27 -60 27c-41 0 -82 -8 -129 -23l-7 109c61 28 129 44 187 44c117 0 181 -49 163 -127c-12 -50 -52 -87 -104 -97c58 -11 84 -50 71 -105c-21 -93 -127 -154 -266 -154z" />
    <glyph glyph-name="uni04E2" unicode="&#x4e2;" horiz-adv-x="713" 
d="M370 769l31 136h335l-32 -136h-334zM61 0l160 694h160l-103 -448l357 448h178l-161 -694h-160l103 446l-360 -446h-174z" />
    <glyph glyph-name="uni04E3" unicode="&#x4e3;" horiz-adv-x="520" 
d="M234 577l32 136h314l-31 -136h-315zM47 0l113 490h139l-61 -264l211 264h134l-113 -490h-137l61 264l-216 -264h-131z" />
    <glyph glyph-name="uni04E4" unicode="&#x4e4;" horiz-adv-x="713" 
d="M407 747c-55 0 -83 40 -69 99c14 60 60 100 115 100s83 -40 69 -100c-14 -59 -60 -99 -115 -99zM640 747c-55 0 -83 40 -69 99c14 60 60 100 115 100s83 -40 69 -100c-14 -59 -60 -99 -115 -99zM61 0l160 694h160l-103 -448l357 448h178l-161 -694h-160l103 446
l-360 -446h-174z" />
    <glyph glyph-name="uni04E5" unicode="&#x4e5;" horiz-adv-x="524" 
d="M279 557c-52 0 -80 40 -66 99c14 60 59 100 111 100s79 -40 65 -100c-14 -59 -58 -99 -110 -99zM499 557c-53 0 -79 40 -65 99c14 60 58 100 111 100s79 -40 65 -100c-14 -59 -58 -99 -111 -99zM47 0l113 490h139l-61 -264l215 264h134l-113 -490h-137l61 264l-220 -264
h-131z" />
    <glyph glyph-name="uni04E6" unicode="&#x4e6;" horiz-adv-x="705" 
d="M404 747c-55 0 -84 40 -70 99c14 60 60 100 115 100s83 -40 69 -100c-14 -59 -59 -99 -114 -99zM636 747c-55 0 -83 40 -69 99c14 60 60 100 115 100s83 -40 69 -100c-14 -59 -60 -99 -115 -99zM344 -10c-193 0 -291 140 -242 351c50 218 217 363 417 363
c195 0 293 -141 244 -353c-50 -217 -217 -361 -419 -361zM389 140c95 0 176 80 204 201c30 128 -18 213 -119 213c-93 0 -174 -81 -202 -203c-29 -127 17 -211 117 -211z" />
    <glyph glyph-name="uni04E7" unicode="&#x4e7;" horiz-adv-x="502" 
d="M270 557c-53 0 -80 40 -66 99c14 60 59 100 112 100s79 -40 65 -100c-14 -59 -58 -99 -111 -99zM490 557c-53 0 -79 40 -65 99c14 60 58 100 111 100s79 -40 65 -100c-14 -59 -58 -99 -111 -99zM241 -10c-139 0 -207 92 -174 233c35 151 156 253 302 253
c138 0 206 -93 173 -235c-35 -150 -156 -251 -301 -251zM284 134c48 0 84 34 98 94c15 65 -6 104 -57 104c-48 0 -85 -37 -99 -98c-14 -62 7 -100 58 -100z" />
    <glyph glyph-name="uni04E8" unicode="&#x4e8;" horiz-adv-x="705" 
d="M344 -10c-193 0 -291 140 -242 351c50 218 217 363 417 363c195 0 293 -141 244 -353c-50 -217 -217 -361 -419 -361zM474 554c-76 0 -143 -54 -181 -140h309c-1 86 -47 140 -128 140zM389 140c77 0 146 53 184 139h-309c0 -86 46 -139 125 -139z" />
    <glyph glyph-name="uni04E9" unicode="&#x4e9;" horiz-adv-x="486" 
d="M233 -10c-134 0 -199 92 -166 233c35 151 152 253 293 253c133 0 198 -93 165 -235c-35 -150 -152 -251 -292 -251zM317 332c-33 0 -61 -17 -78 -46h138c-5 29 -26 46 -60 46zM276 134c34 0 60 16 78 45h-139c5 -28 26 -45 61 -45z" />
    <glyph glyph-name="uni04EE" unicode="&#x4ee;" horiz-adv-x="608" 
d="M317 769l32 136h334l-31 -136h-335zM113 0l175 237l-135 457h193l71 -292l194 292h164l-483 -694h-179z" />
    <glyph glyph-name="uni04EF" unicode="&#x4ef;" horiz-adv-x="453" 
d="M207 577l31 136h308l-32 -136h-307zM28 -217l126 217l-48 490h164l-1 -327l159 327h147l-272 -490l-115 -217h-160z" />
    <glyph glyph-name="uni04F0" unicode="&#x4f0;" horiz-adv-x="608" 
d="M355 747c-55 0 -83 40 -69 99c14 60 60 100 115 100s83 -40 69 -100c-14 -59 -60 -99 -115 -99zM587 747c-55 0 -83 40 -69 99c14 60 60 100 115 100s83 -40 69 -100c-14 -59 -60 -99 -115 -99zM113 0l175 237l-135 457h193l71 -292l194 292h164l-483 -694h-179z" />
    <glyph glyph-name="uni04F1" unicode="&#x4f1;" horiz-adv-x="467" 
d="M253 557c-53 0 -80 40 -66 99c14 60 58 100 111 100s80 -40 66 -100c-14 -59 -58 -99 -111 -99zM473 557c-52 0 -79 40 -65 99c14 60 59 100 111 100s79 -40 65 -100c-14 -59 -59 -99 -111 -99zM29 -217l130 217l-53 490h168l2 -327l161 327h152l-277 -490l-117 -217
h-166z" />
    <glyph glyph-name="uni04F2" unicode="&#x4f2;" horiz-adv-x="608" 
d="M331 739l-54 73l164 174l84 -115zM568 739l-54 73l164 174l84 -115zM113 0l175 237l-135 457h193l71 -292l194 292h164l-483 -694h-179z" />
    <glyph glyph-name="uni04F3" unicode="&#x4f3;" horiz-adv-x="453" 
d="M274 527l-67 52l118 197l103 -79zM460 527l-66 52l118 196l103 -78zM28 -217l126 217l-48 490h164l-1 -327l159 327h147l-272 -490l-115 -217h-160z" />
    <glyph glyph-name="uni04F4" unicode="&#x4f4;" horiz-adv-x="606" 
d="M355 747c-55 0 -83 40 -69 99c14 60 60 100 115 100s83 -40 69 -100c-14 -59 -60 -99 -115 -99zM588 747c-55 0 -84 40 -70 99c14 60 61 100 116 100s82 -40 68 -100c-14 -59 -59 -99 -114 -99zM283 239c-121 0 -183 75 -154 202l59 253h159l-51 -224
c-13 -55 17 -81 79 -81c33 0 71 7 107 22l65 283h159l-161 -694h-158l66 285c-51 -29 -113 -46 -170 -46z" />
    <glyph glyph-name="uni04F5" unicode="&#x4f5;" horiz-adv-x="495" 
d="M266 557c-53 0 -79 40 -65 99c14 60 58 100 111 100s79 -40 65 -100c-14 -59 -58 -99 -111 -99zM487 557c-52 0 -79 40 -65 99c14 60 59 100 111 100s79 -40 65 -100c-14 -59 -59 -99 -111 -99zM215 162c-97 0 -148 58 -126 153l41 175h146l-31 -136
c-6 -25 21 -44 59 -44c19 0 45 5 67 13l39 167h149l-113 -490h-149l45 197c-40 -24 -84 -35 -127 -35z" />
    <glyph glyph-name="uni04F6" unicode="&#x4f6;" horiz-adv-x="512" 
d="M62 0l160 694h451l-36 -157h-287l-90 -386h100l-78 -338h-151l43 187h-112z" />
    <glyph glyph-name="uni04F7" unicode="&#x4f7;" horiz-adv-x="397" 
d="M46 -7l109 473h349l-31 -134h-195l-50 -217h91l-58 -251h-132l30 129h-113z" />
    <glyph glyph-name="uni04F8" unicode="&#x4f8;" horiz-adv-x="840" 
d="M481 747c-55 0 -83 40 -69 99c14 60 60 100 115 100s83 -40 69 -100c-14 -59 -60 -99 -115 -99zM713 747c-55 0 -83 40 -69 99c14 60 60 100 115 100s83 -40 69 -100c-14 -59 -60 -99 -115 -99zM61 0l160 694h158l-55 -240h116c134 0 203 -85 174 -212
c-35 -152 -156 -242 -326 -242h-227zM615 -3l161 694h163l-160 -694h-164zM250 136h91c51 0 89 33 102 89c13 58 -14 97 -69 97h-81z" />
    <glyph glyph-name="uni04F9" unicode="&#x4f9;" horiz-adv-x="683" 
d="M358 557c-53 0 -79 40 -65 99c14 60 58 100 111 100s79 -40 65 -100c-14 -59 -58 -99 -111 -99zM580 557c-53 0 -79 40 -65 99c14 60 58 100 111 100s79 -40 65 -100c-14 -59 -58 -99 -111 -99zM485 -3l114 493h147l-113 -493h-148zM47 0l113 490h142l-33 -146h75
c103 0 160 -63 138 -157c-27 -117 -122 -187 -256 -187h-179zM218 126h55c28 0 48 18 55 47s-13 47 -44 47h-44z" />
    <glyph glyph-name="uni051A" unicode="&#x51a;" horiz-adv-x="706" 
d="M344 -10c-193 0 -291 140 -242 351c50 218 217 363 417 363c195 0 293 -141 244 -353c-21 -91 -62 -169 -118 -229l63 -84l-124 -101l-67 91c-53 -25 -112 -38 -173 -38zM389 140c14 0 28 2 42 5l-75 100l121 103l79 -107c17 28 30 62 39 100c31 134 -14 213 -121 213
c-99 0 -174 -75 -204 -203c-31 -133 14 -211 119 -211z" />
    <glyph glyph-name="uni051B" unicode="&#x51b;" horiz-adv-x="508" 
d="M198 -10c-108 0 -159 96 -126 240c34 148 137 246 256 246c53 0 90 -20 108 -58l29 48h102l-158 -683h-147l59 257c-37 -32 -79 -50 -123 -50zM230 235c-15 -64 4 -101 50 -101c27 0 50 10 69 28l31 136c-10 21 -29 34 -56 34c-45 0 -80 -37 -94 -97z" />
    <glyph glyph-name="uni051C" unicode="&#x51c;" horiz-adv-x="954" 
d="M197 0l-37 694h182l-2 -478l209 474h176l3 -465l224 469h162l-359 -694h-172l-10 444l-199 -444h-177z" />
    <glyph glyph-name="uni051D" unicode="&#x51d;" horiz-adv-x="719" 
d="M147 0l-46 466h159l3 -299l139 297h139l6 -288l144 290h144l-260 -466h-147l-11 279l-132 -279h-138z" />
    <glyph glyph-name="uni1E08" unicode="&#x1e08;" horiz-adv-x="579" 
d="M479 734l-42 93l202 156l61 -134zM256 -258c-40 0 -79 8 -102 23l38 92c17 -9 48 -15 72 -15c27 0 44 8 47 21c5 21 -20 35 -79 41l39 95c-143 35 -210 164 -169 343c50 218 229 362 437 362c65 0 122 -14 178 -43l-76 -136c-32 16 -89 26 -140 26
c-118 0 -199 -65 -228 -192c-31 -135 25 -217 155 -217c41 0 90 8 130 22l7 -125c-51 -26 -125 -45 -191 -48l-15 -35c65 -11 91 -43 79 -95c-17 -73 -87 -119 -182 -119z" />
    <glyph glyph-name="uni1E09" unicode="&#x1e09;" horiz-adv-x="400" 
d="M337 510l-53 73l146 195l83 -111zM247 -10h-3l-14 -34c60 -11 83 -43 71 -95c-17 -73 -83 -119 -171 -119c-37 0 -74 8 -95 23l37 92c16 -9 45 -15 68 -15c25 0 41 8 44 21c5 21 -18 35 -73 41l41 104c-78 31 -110 108 -85 217c36 154 152 251 300 251
c45 0 91 -11 122 -28l-61 -132c-24 9 -56 16 -84 16c-63 0 -104 -35 -118 -97c-16 -69 15 -107 84 -107c24 0 51 4 78 15l6 -115c-50 -26 -96 -38 -147 -38z" />
    <glyph glyph-name="uni1E0C" unicode="&#x1e0c;" horiz-adv-x="680" 
d="M61 0l160 694h242c223 0 326 -124 278 -333c-50 -218 -229 -361 -450 -361h-230zM253 149h91c117 0 196 68 225 192c30 128 -26 204 -150 204h-74zM280 -225c-55 0 -84 40 -70 99c14 60 61 100 116 100s83 -40 69 -100c-14 -59 -60 -99 -115 -99z" />
    <glyph glyph-name="uni1E0D" unicode="&#x1e0d;" horiz-adv-x="513" 
d="M200 -10c-107 0 -162 94 -129 239c34 149 139 247 261 247c37 0 66 -11 87 -32l68 295h148l-171 -739h-94l-15 68c-43 -49 -98 -78 -155 -78zM229 235c-15 -64 5 -101 53 -101c27 0 52 10 72 30l32 136c-12 20 -33 32 -60 32c-47 0 -83 -37 -97 -97zM200 -225
c-53 0 -79 40 -65 99c14 60 58 100 111 100s79 -40 65 -100c-14 -59 -58 -99 -111 -99z" />
    <glyph glyph-name="uni1E0E" unicode="&#x1e0e;" horiz-adv-x="680" 
d="M61 0l160 694h242c223 0 326 -124 278 -333c-50 -218 -229 -361 -450 -361h-230zM253 149h91c117 0 196 68 225 192c30 128 -26 204 -150 204h-74zM119 -206l32 135h328l-31 -135h-329z" />
    <glyph glyph-name="uni1E0F" unicode="&#x1e0f;" horiz-adv-x="507" 
d="M197 -10c-105 0 -159 94 -126 239c34 149 137 247 257 247c37 0 65 -11 85 -32l68 295h148l-171 -739h-94l-14 68c-43 -49 -97 -78 -153 -78zM229 235c-15 -64 4 -101 50 -101c26 0 51 10 70 30l31 136c-11 20 -31 32 -57 32c-45 0 -80 -37 -94 -97zM47 -206l31 135h309
l-31 -135h-309z" />
    <glyph glyph-name="uni1E14" unicode="&#x1e14;" horiz-adv-x="565" 
d="M522 942l-168 115l122 134l131 -156zM303 769l31 136h335l-32 -136h-334zM61 0l160 694h463l-35 -152h-302l-26 -114h276l-35 -152h-276l-29 -124h302l-35 -152h-463z" />
    <glyph glyph-name="uni1E15" unicode="&#x1e15;" horiz-adv-x="457" 
d="M377 708l-103 155l133 109l56 -192zM197 529l31 135h312l-31 -135h-312zM261 -10c-154 0 -227 92 -192 242c34 147 146 244 280 244c121 0 174 -81 142 -218c-6 -25 -14 -49 -23 -73h-257c4 -46 38 -67 102 -67c35 0 70 6 108 18l8 -114c-59 -21 -116 -32 -168 -32z
M306 348c-34 0 -60 -21 -77 -63h123c9 40 -7 63 -46 63z" />
    <glyph glyph-name="uni1E16" unicode="&#x1e16;" horiz-adv-x="565" 
d="M492 942l-41 93l202 156l60 -134zM303 769l31 136h335l-32 -136h-334zM61 0l160 694h463l-35 -152h-302l-26 -114h276l-35 -152h-276l-29 -124h302l-35 -152h-463z" />
    <glyph glyph-name="uni1E17" unicode="&#x1e17;" horiz-adv-x="457" 
d="M399 708l-53 72l145 192l87 -109zM197 529l31 135h312l-31 -135h-312zM261 -10c-154 0 -227 92 -192 242c34 147 146 244 280 244c121 0 174 -81 142 -218c-6 -25 -14 -49 -23 -73h-257c4 -46 38 -67 102 -67c35 0 70 6 108 18l8 -114c-59 -21 -116 -32 -168 -32z
M306 348c-34 0 -60 -21 -77 -63h123c9 40 -7 63 -46 63z" />
    <glyph glyph-name="uni1E1C" unicode="&#x1e1c;" horiz-adv-x="565" 
d="M451 741c-98 0 -162 58 -153 153l133 77c-8 -60 19 -100 67 -100c46 0 91 37 110 101l62 -56c-41 -107 -125 -175 -219 -175zM61 0l160 694h463l-35 -152h-302l-26 -114h276l-35 -152h-276l-29 -124h302l-35 -152h-174l-18 -44c65 -11 90 -43 78 -95
c-17 -73 -87 -119 -182 -119c-40 0 -78 8 -101 23l37 92c17 -9 49 -15 73 -15c27 0 43 8 46 21c5 21 -20 35 -79 41l39 96h-182z" />
    <glyph glyph-name="uni1E1D" unicode="&#x1e1d;" horiz-adv-x="457" 
d="M353 524c-91 0 -149 60 -139 157l127 90c-11 -70 11 -117 56 -117c43 0 86 43 108 118l57 -66c-41 -112 -121 -182 -209 -182zM161 -258c-37 0 -74 8 -95 23l36 92c16 -9 45 -15 67 -15c25 0 40 8 43 21c5 21 -18 35 -72 41l38 97c-96 28 -137 110 -109 231
c34 146 146 244 280 244c121 0 174 -81 142 -218c-6 -25 -14 -49 -23 -73h-257c4 -46 38 -67 102 -67c35 0 70 6 108 18l8 -114c-54 -19 -108 -30 -157 -32l-14 -34c62 -11 86 -43 74 -95c-17 -73 -83 -119 -171 -119zM306 348c-34 0 -60 -21 -77 -63h123c9 40 -7 63 -46 63
z" />
    <glyph glyph-name="uni1E20" unicode="&#x1e20;" horiz-adv-x="660" 
d="M357 769l32 136h335l-32 -136h-335zM359 -10c-203 0 -306 140 -258 349c50 217 230 365 459 365c73 0 144 -16 192 -44l-76 -136c-39 16 -101 27 -156 27c-131 0 -216 -69 -246 -198c-30 -132 23 -213 139 -213c36 0 69 7 94 20l24 105h-136l33 146h290l-74 -322
c-88 -66 -183 -99 -285 -99z" />
    <glyph glyph-name="uni1E21" unicode="&#x1e21;" horiz-adv-x="509" 
d="M208 577l32 136h315l-32 -136h-315zM197 -10c-104 0 -158 93 -125 238c35 149 138 248 256 248c51 0 86 -20 105 -56l25 46h110l-109 -472c-31 -135 -152 -226 -300 -226c-53 0 -97 12 -140 37l58 128c32 -17 71 -27 106 -27c67 0 114 35 128 96l9 38
c-37 -32 -79 -50 -123 -50zM230 235c-15 -64 4 -101 49 -101c27 0 51 10 69 27l32 137c-10 22 -30 34 -57 34c-44 0 -79 -37 -93 -97z" />
    <glyph glyph-name="uni1E24" unicode="&#x1e24;" horiz-adv-x="699" 
d="M61 0l160 694h164l-61 -264h250l61 264h164l-161 -694h-163l63 274h-250l-63 -274h-164zM297 -225c-55 0 -83 40 -69 99c14 60 60 100 115 100s83 -40 69 -100c-14 -59 -60 -99 -115 -99z" />
    <glyph glyph-name="uni1E25" unicode="&#x1e25;" horiz-adv-x="516" 
d="M46 -2l171 741h152l-74 -319c40 35 85 52 130 52c100 0 143 -72 115 -193l-65 -281h-154l58 248c12 51 -2 76 -46 76c-23 0 -45 -8 -67 -28l-68 -296h-152zM208 -225c-53 0 -80 40 -66 99c14 60 58 100 111 100s79 -40 65 -100c-14 -59 -57 -99 -110 -99z" />
    <glyph glyph-name="uni1E2A" unicode="&#x1e2a;" horiz-adv-x="699" 
d="M61 0l160 694h164l-61 -264h250l61 264h164l-161 -694h-163l63 274h-250l-63 -274h-164zM296 -227c-91 0 -149 55 -159 137l117 69c11 -52 41 -79 90 -79c46 0 84 25 110 79l72 -42c-51 -102 -133 -164 -230 -164z" />
    <glyph glyph-name="uni1E2B" unicode="&#x1e2b;" horiz-adv-x="511" 
d="M45 -5l172 744h152l-74 -319c40 35 83 52 128 52c98 0 140 -73 112 -195l-65 -282h-154l58 250c12 52 -1 77 -44 77c-22 0 -42 -8 -64 -28l-69 -299h-152zM204 -227c-86 0 -141 54 -149 136l112 66c10 -49 38 -75 84 -75c43 0 78 24 103 75l69 -40
c-49 -101 -128 -162 -219 -162z" />
    <glyph glyph-name="uni1E2E" unicode="&#x1e2e;" horiz-adv-x="291" 
d="M349 946l-42 93l203 156l60 -134zM196 747c-55 0 -83 40 -69 99c14 60 60 100 115 100s83 -40 69 -100c-14 -59 -60 -99 -115 -99zM429 747c-55 0 -83 40 -69 99c14 60 60 100 115 100s83 -40 69 -100c-14 -59 -60 -99 -115 -99zM64 0l160 694h164l-161 -694h-163z" />
    <glyph glyph-name="uni1E2F" unicode="&#x1e2f;" horiz-adv-x="251" 
d="M300 718l-57 67l146 179l89 -102zM144 536c-48 0 -71 36 -59 90c13 55 53 91 101 91s72 -36 59 -91c-12 -54 -53 -90 -101 -90zM357 536c-48 0 -71 36 -59 90c13 55 53 91 101 91s72 -36 59 -91c-12 -54 -53 -90 -101 -90zM49 0l114 490h154l-114 -490h-154z" />
    <glyph glyph-name="uni1E30" unicode="&#x1e30;" horiz-adv-x="636" 
d="M468 734l-42 93l202 156l60 -134zM62 0l160 694h166l-73 -313l284 313h194l-295 -320l150 -374h-216l-125 343l-80 -343h-165z" />
    <glyph glyph-name="uni1E31" unicode="&#x1e31;" horiz-adv-x="489" 
d="M398 779l-38 93l191 156l53 -134zM47 0l170 739h152l-108 -468l173 219h170l-184 -219l85 -271h-188l-63 241l-56 -241h-151z" />
    <glyph glyph-name="uni1E36" unicode="&#x1e36;" horiz-adv-x="497" 
d="M61 0l160 694h161l-125 -541h267l-35 -153h-428zM196 -225c-55 0 -83 40 -69 99c14 60 60 100 115 100s83 -40 69 -100c-14 -59 -60 -99 -115 -99z" />
    <glyph glyph-name="uni1E37" unicode="&#x1e37;" horiz-adv-x="274" 
d="M181 -8c-91 0 -130 56 -107 155l136 592h152l-132 -571c-7 -31 1 -47 24 -47c5 0 15 1 25 4l3 -114c-32 -12 -68 -19 -101 -19zM96 -225c-52 0 -79 40 -65 99c14 60 59 100 111 100s79 -40 65 -100c-14 -59 -59 -99 -111 -99z" />
    <glyph glyph-name="uni1E3A" unicode="&#x1e3a;" horiz-adv-x="497" 
d="M61 0l160 694h161l-125 -541h267l-35 -153h-428zM36 -206l31 135h328l-31 -135h-328z" />
    <glyph glyph-name="uni1E3B" unicode="&#x1e3b;" horiz-adv-x="271" 
d="M180 -8c-90 0 -130 56 -107 155l137 592h151l-131 -571c-7 -31 1 -47 23 -47c5 0 15 1 24 4l3 -114c-32 -12 -68 -19 -100 -19zM-32 -206l31 135h263l-32 -135h-262z" />
    <glyph glyph-name="uni1E42" unicode="&#x1e42;" horiz-adv-x="826" 
d="M61 0l160 694h156l110 -405l286 405h153l-160 -694h-156l94 408l-206 -301h-122l-69 283l-90 -390h-156zM362 -225c-55 0 -83 40 -69 99c14 60 60 100 115 100s83 -40 69 -100c-14 -59 -60 -99 -115 -99z" />
    <glyph glyph-name="uni1E43" unicode="&#x1e43;" horiz-adv-x="795" 
d="M46 -2l108 468h111l9 -60c46 42 100 66 153 66c59 0 97 -27 113 -76c46 47 104 76 165 76c98 0 142 -74 114 -193l-65 -281h-153l57 248c9 39 6 76 -46 76c-23 0 -46 -8 -67 -22c-1 -8 -3 -18 -5 -27l-63 -275h-153l57 248c8 35 9 76 -46 76c-21 0 -44 -7 -65 -21
l-70 -303h-154zM357 -225c-52 0 -79 40 -65 99c14 60 59 100 111 100s79 -40 65 -100c-14 -59 -59 -99 -111 -99z" />
    <glyph glyph-name="uni1E44" unicode="&#x1e44;" horiz-adv-x="722" 
d="M506 747c-55 0 -83 40 -69 99c14 60 60 100 115 100s83 -40 69 -100c-14 -59 -60 -99 -115 -99zM61 0l160 694h184l156 -452l107 452h154l-160 -694h-181l-162 456l-106 -456h-152z" />
    <glyph glyph-name="uni1E45" unicode="&#x1e45;" horiz-adv-x="518" 
d="M391 557c-53 0 -80 40 -66 99c14 60 59 100 112 100s79 -40 65 -100c-14 -59 -58 -99 -111 -99zM47 0l107 466h111l10 -64c46 45 101 70 156 70c99 0 139 -75 110 -202l-63 -270h-154l57 246c12 51 -1 76 -43 76c-24 0 -47 -9 -69 -25l-68 -297h-154z" />
    <glyph glyph-name="uni1E46" unicode="&#x1e46;" horiz-adv-x="722" 
d="M61 0l160 694h184l156 -452l107 452h154l-160 -694h-181l-162 456l-106 -456h-152zM308 -225c-55 0 -83 40 -69 99c14 60 60 100 115 100s83 -40 69 -100c-14 -59 -60 -99 -115 -99z" />
    <glyph glyph-name="uni1E47" unicode="&#x1e47;" horiz-adv-x="518" 
d="M46 -2l108 468h111l10 -64c46 45 101 70 156 70c99 0 139 -75 109 -203l-62 -271h-154l57 248c12 51 -1 76 -43 76c-24 0 -47 -9 -69 -25l-69 -299h-154zM210 -225c-53 0 -79 40 -65 99c14 60 58 100 111 100s79 -40 65 -100c-14 -59 -58 -99 -111 -99z" />
    <glyph glyph-name="uni1E48" unicode="&#x1e48;" horiz-adv-x="722" 
d="M61 0l160 694h184l156 -452l107 452h154l-160 -694h-181l-162 456l-106 -456h-152zM148 -206l31 135h329l-31 -135h-329z" />
    <glyph glyph-name="uni1E49" unicode="&#x1e49;" horiz-adv-x="513" 
d="M46 -4l108 470h111l10 -64c45 45 99 70 153 70c97 0 137 -75 107 -204l-62 -272h-154l57 249c12 52 0 77 -40 77c-23 0 -45 -9 -67 -25l-69 -301h-154zM57 -206l31 135h310l-32 -135h-309z" />
    <glyph glyph-name="uni1E4C" unicode="&#x1e4c;" horiz-adv-x="705" 
d="M564 979l-42 93l203 156l60 -134zM444 749l-93 25c34 94 99 156 163 156c48 0 76 -42 102 -42c17 0 35 14 50 44l91 -27c-31 -91 -98 -149 -168 -149c-54 0 -68 40 -96 40c-14 0 -33 -16 -49 -47zM344 -10c-193 0 -291 140 -242 351c50 218 217 363 417 363
c195 0 293 -141 244 -353c-50 -217 -217 -361 -419 -361zM389 140c95 0 176 80 204 201c30 128 -18 213 -119 213c-93 0 -174 -81 -202 -203c-29 -127 17 -211 117 -211z" />
    <glyph glyph-name="uni1E4D" unicode="&#x1e4d;" horiz-adv-x="498" 
d="M421 724l-52 72l145 193l86 -110zM289 530l-88 26c33 94 94 156 154 156c45 0 71 -42 95 -42c16 0 32 14 47 44l88 -27c-31 -91 -95 -149 -160 -149c-50 0 -63 40 -89 40c-13 0 -32 -17 -47 -48zM239 -10c-138 0 -205 92 -172 233c35 151 155 253 300 253
c137 0 204 -93 171 -235c-35 -150 -155 -251 -299 -251zM282 134c47 0 82 34 96 94c15 65 -5 104 -55 104c-47 0 -83 -37 -97 -98c-14 -62 6 -100 56 -100z" />
    <glyph glyph-name="uni1E4E" unicode="&#x1e4e;" horiz-adv-x="705" 
d="M460 992c-55 0 -83 40 -69 99c14 60 60 100 115 100s83 -40 69 -100c-14 -59 -60 -99 -115 -99zM693 992c-55 0 -84 40 -70 99c14 60 61 100 116 100s82 -40 68 -100c-14 -59 -59 -99 -114 -99zM444 749l-93 25c34 94 99 156 163 156c48 0 76 -42 102 -42
c17 0 35 14 50 44l91 -27c-31 -91 -98 -149 -168 -149c-54 0 -68 40 -96 40c-14 0 -33 -16 -49 -47zM344 -10c-193 0 -291 140 -242 351c50 218 217 363 417 363c195 0 293 -141 244 -353c-50 -217 -217 -361 -419 -361zM389 140c95 0 176 80 204 201
c30 128 -18 213 -119 213c-93 0 -174 -81 -202 -203c-29 -127 17 -211 117 -211z" />
    <glyph glyph-name="uni1E4F" unicode="&#x1e4f;" horiz-adv-x="502" 
d="M317 768c-53 0 -80 40 -66 99c14 60 59 100 112 100s79 -40 65 -100c-14 -59 -58 -99 -111 -99zM537 768c-53 0 -79 40 -65 99c14 60 58 100 111 100s79 -40 65 -100c-14 -59 -58 -99 -111 -99zM292 540l-89 27c33 94 96 156 157 156c46 0 71 -42 96 -42
c16 0 33 14 48 44l87 -27c-31 -91 -95 -149 -161 -149c-51 0 -64 40 -91 40c-13 0 -32 -17 -47 -49zM241 -10c-139 0 -207 92 -174 233c35 151 156 253 302 253c138 0 206 -93 173 -235c-35 -150 -156 -251 -301 -251zM284 134c48 0 84 34 98 94c15 65 -6 104 -57 104
c-48 0 -85 -37 -99 -98c-14 -62 7 -100 58 -100z" />
    <glyph glyph-name="uni1E50" unicode="&#x1e50;" horiz-adv-x="705" 
d="M585 942l-168 115l122 134l131 -156zM366 769l31 136h335l-31 -136h-335zM344 -10c-193 0 -291 140 -242 351c50 218 217 363 417 363c195 0 293 -141 244 -353c-50 -217 -217 -361 -419 -361zM389 140c95 0 176 80 204 201c30 128 -18 213 -119 213
c-93 0 -174 -81 -202 -203c-29 -127 17 -211 117 -211z" />
    <glyph glyph-name="uni1E51" unicode="&#x1e51;" horiz-adv-x="498" 
d="M396 708l-107 155l137 109l56 -192zM212 529l32 135h314l-31 -135h-315zM239 -10c-138 0 -205 92 -172 233c35 151 155 253 300 253c137 0 204 -93 171 -235c-35 -150 -155 -251 -299 -251zM282 134c47 0 82 34 96 94c15 65 -5 104 -55 104c-47 0 -83 -37 -97 -98
c-14 -62 6 -100 56 -100z" />
    <glyph glyph-name="uni1E52" unicode="&#x1e52;" horiz-adv-x="705" 
d="M555 942l-41 93l202 156l60 -134zM366 769l31 136h335l-31 -136h-335zM344 -10c-193 0 -291 140 -242 351c50 218 217 363 417 363c195 0 293 -141 244 -353c-50 -217 -217 -361 -419 -361zM389 140c95 0 176 80 204 201c30 128 -18 213 -119 213
c-93 0 -174 -81 -202 -203c-29 -127 17 -211 117 -211z" />
    <glyph glyph-name="uni1E53" unicode="&#x1e53;" horiz-adv-x="498" 
d="M418 708l-53 72l145 192l86 -109zM212 529l32 135h314l-31 -135h-315zM239 -10c-138 0 -205 92 -172 233c35 151 155 253 300 253c137 0 204 -93 171 -235c-35 -150 -155 -251 -299 -251zM282 134c47 0 82 34 96 94c15 65 -5 104 -55 104c-47 0 -83 -37 -97 -98
c-14 -62 6 -100 56 -100z" />
    <glyph glyph-name="uni1E5A" unicode="&#x1e5a;" horiz-adv-x="615" 
d="M61 0l160 694h266c152 0 224 -76 193 -210c-22 -94 -83 -169 -165 -211l97 -273h-193l-71 237h-71l-55 -237h-161zM430 543h-83l-36 -159h105c47 0 80 29 91 76c12 52 -17 83 -77 83zM248 -225c-55 0 -83 40 -69 99c14 60 60 100 115 100s83 -40 69 -100
c-14 -59 -60 -99 -115 -99z" />
    <glyph glyph-name="uni1E5B" unicode="&#x1e5b;" horiz-adv-x="379" 
d="M47 -2l108 468h121l-5 -76c43 51 97 80 147 80c26 0 53 -8 70 -22l-68 -147c-16 10 -40 17 -62 17c-32 0 -64 -16 -92 -42l-65 -278h-154zM73 -225c-52 0 -79 40 -65 99c14 60 59 100 111 100s79 -40 65 -100c-14 -59 -59 -99 -111 -99z" />
    <glyph glyph-name="uni1E5E" unicode="&#x1e5e;" horiz-adv-x="615" 
d="M61 0l160 694h266c152 0 224 -76 193 -210c-22 -94 -83 -169 -165 -211l97 -273h-193l-71 237h-71l-55 -237h-161zM430 543h-83l-36 -159h105c47 0 80 29 91 76c12 52 -17 83 -77 83zM88 -206l31 135h328l-31 -135h-328z" />
    <glyph glyph-name="uni1E5F" unicode="&#x1e5f;" horiz-adv-x="376" 
d="M46 -4l108 470h121l-5 -76c43 51 97 80 147 80c26 0 52 -8 69 -22l-67 -147c-16 10 -40 17 -62 17c-32 0 -64 -16 -92 -42l-65 -280h-154zM-54 -206l31 135h262l-31 -135h-262z" />
    <glyph glyph-name="uni1E60" unicode="&#x1e60;" horiz-adv-x="542" 
d="M409 747c-55 0 -83 40 -69 99c14 60 60 100 115 100s83 -40 69 -100c-14 -59 -60 -99 -115 -99zM252 -10c-80 0 -160 23 -219 55l78 142c57 -29 125 -41 184 -41c62 0 94 18 101 50c25 107 -307 40 -253 276c32 140 165 232 329 232c66 0 134 -15 182 -41l-77 -138
c-42 17 -97 27 -149 27c-63 0 -104 -19 -112 -54c-24 -103 313 -26 254 -281c-32 -139 -147 -227 -318 -227z" />
    <glyph glyph-name="uni1E61" unicode="&#x1e61;" horiz-adv-x="416" 
d="M336 557c-52 0 -79 40 -65 99c14 60 59 100 111 100s79 -40 65 -100c-14 -59 -59 -99 -111 -99zM194 -10c-62 0 -125 14 -168 37l59 120c41 -16 93 -27 131 -27s65 12 69 30c13 56 -226 -6 -185 171c23 100 107 155 240 155c51 0 106 -9 144 -24l-56 -124
c-41 11 -82 18 -116 18c-42 0 -65 -10 -69 -26c-12 -52 229 1 189 -174c-23 -99 -109 -156 -238 -156z" />
    <glyph glyph-name="uni1E62" unicode="&#x1e62;" horiz-adv-x="542" 
d="M252 -10c-80 0 -160 23 -219 55l78 142c57 -29 125 -41 184 -41c62 0 94 18 101 50c25 107 -307 40 -253 276c32 140 165 232 329 232c66 0 134 -15 182 -41l-77 -138c-42 17 -97 27 -149 27c-63 0 -104 -19 -112 -54c-24 -103 313 -26 254 -281
c-32 -139 -147 -227 -318 -227zM218 -225c-55 0 -83 40 -69 99c14 60 60 100 115 100s83 -40 69 -100c-14 -59 -60 -99 -115 -99z" />
    <glyph glyph-name="uni1E63" unicode="&#x1e63;" horiz-adv-x="416" 
d="M194 -10c-62 0 -125 14 -168 37l59 120c41 -16 93 -27 131 -27s65 12 69 30c13 56 -226 -6 -185 171c23 100 107 155 240 155c51 0 106 -9 144 -24l-56 -124c-41 11 -82 18 -116 18c-42 0 -65 -10 -69 -26c-12 -52 229 1 189 -174c-23 -99 -109 -156 -238 -156zM157 -225
c-52 0 -79 40 -65 99c14 60 59 100 111 100s79 -40 65 -100c-14 -59 -59 -99 -111 -99z" />
    <glyph glyph-name="uni1E64" unicode="&#x1e64;" horiz-adv-x="542" 
d="M352 892c-55 0 -83 40 -69 99c14 60 60 100 115 100s83 -40 69 -100c-14 -59 -60 -99 -115 -99zM418 734l-42 93l203 156l60 -134zM252 -10c-80 0 -160 23 -219 55l78 142c57 -29 125 -41 184 -41c62 0 94 18 101 50c25 107 -307 40 -253 276c32 140 165 232 329 232
c66 0 134 -15 182 -41l-77 -138c-42 17 -97 27 -149 27c-63 0 -104 -19 -112 -54c-24 -103 313 -26 254 -281c-32 -139 -147 -227 -318 -227z" />
    <glyph glyph-name="uni1E65" unicode="&#x1e65;" horiz-adv-x="415" 
d="M306 705c-48 0 -72 36 -60 90c13 55 53 91 101 91s72 -36 59 -91c-12 -54 -52 -90 -100 -90zM339 517l-51 72l149 186l76 -101zM193 -10c-62 0 -124 14 -167 37l59 120c41 -16 94 -27 132 -27s65 12 69 30c13 56 -227 -6 -186 171c23 100 107 155 239 155
c51 0 107 -9 145 -24l-57 -124c-40 11 -80 18 -114 18c-41 0 -64 -10 -68 -26c-12 -52 226 1 186 -174c-23 -99 -109 -156 -238 -156z" />
    <glyph glyph-name="uni1E66" unicode="&#x1e66;" horiz-adv-x="542" 
d="M486 941c-55 0 -83 40 -69 99c14 60 60 100 115 100s83 -40 69 -100c-14 -59 -60 -99 -115 -99zM396 742l-109 136l114 90l74 -94l122 93l49 -58l-170 -167h-80zM252 -10c-80 0 -160 23 -219 55l78 142c57 -29 125 -41 184 -41c62 0 94 18 101 50
c25 107 -307 40 -253 276c32 140 165 232 329 232c66 0 134 -15 182 -41l-77 -138c-42 17 -97 27 -149 27c-63 0 -104 -19 -112 -54c-24 -103 313 -26 254 -281c-32 -139 -147 -227 -318 -227z" />
    <glyph glyph-name="uni1E67" unicode="&#x1e67;" horiz-adv-x="415" 
d="M376 731c-48 0 -72 36 -60 90c13 55 53 91 101 91s73 -36 60 -91c-12 -54 -53 -90 -101 -90zM531 682l-164 -170h-89l-96 125l107 102l83 -87l120 88zM193 -10c-62 0 -124 14 -167 37l59 120c41 -16 93 -27 131 -27s64 12 68 30c13 56 -225 -6 -184 171
c23 100 107 155 239 155c51 0 107 -9 145 -24l-57 -124c-40 11 -81 18 -115 18c-42 0 -65 -10 -69 -26c-12 -52 228 1 188 -174c-23 -99 -109 -156 -238 -156z" />
    <glyph glyph-name="uni1E68" unicode="&#x1e68;" horiz-adv-x="542" 
d="M409 747c-55 0 -83 40 -69 99c14 60 60 100 115 100s83 -40 69 -100c-14 -59 -60 -99 -115 -99zM252 -10c-80 0 -160 23 -219 55l78 142c57 -29 125 -41 184 -41c62 0 94 18 101 50c25 107 -307 40 -253 276c32 140 165 232 329 232c66 0 134 -15 182 -41l-77 -138
c-42 17 -97 27 -149 27c-63 0 -104 -19 -112 -54c-24 -103 313 -26 254 -281c-32 -139 -147 -227 -318 -227zM218 -225c-55 0 -83 40 -69 99c14 60 60 100 115 100s83 -40 69 -100c-14 -59 -60 -99 -115 -99z" />
    <glyph glyph-name="uni1E69" unicode="&#x1e69;" horiz-adv-x="416" 
d="M336 557c-53 0 -79 40 -65 99c14 60 58 100 111 100s79 -40 65 -100c-14 -59 -58 -99 -111 -99zM194 -10c-62 0 -125 14 -168 37l59 120c41 -16 93 -27 131 -27s65 12 69 30c13 56 -226 -6 -185 171c23 100 107 155 240 155c51 0 106 -9 144 -24l-56 -124
c-41 11 -82 18 -116 18c-42 0 -65 -10 -69 -26c-12 -52 229 1 189 -174c-23 -99 -109 -156 -238 -156zM157 -225c-52 0 -79 40 -65 99c14 60 59 100 111 100s79 -40 65 -100c-14 -59 -59 -99 -111 -99z" />
    <glyph glyph-name="uni1E6C" unicode="&#x1e6c;" horiz-adv-x="576" 
d="M208 0l125 542h-199l35 152h558l-35 -152h-201l-125 -542h-158zM237 -225c-55 0 -83 40 -69 99c14 60 60 100 115 100s83 -40 69 -100c-14 -59 -60 -99 -115 -99z" />
    <glyph glyph-name="uni1E6D" unicode="&#x1e6d;" horiz-adv-x="348" 
d="M238 -8c-112 0 -161 64 -136 172l39 166h-60l31 136h60l38 165h151l-38 -165h99l-31 -136h-99l-36 -155c-7 -32 10 -52 47 -52c11 0 25 2 37 6v-121c-37 -11 -72 -16 -102 -16zM146 -225c-52 0 -79 40 -65 99c14 60 59 100 111 100s79 -40 65 -100
c-14 -59 -59 -99 -111 -99z" />
    <glyph glyph-name="uni1E6E" unicode="&#x1e6e;" horiz-adv-x="576" 
d="M208 0l125 542h-199l35 152h558l-35 -152h-201l-125 -542h-158zM77 -206l31 135h328l-31 -135h-328z" />
    <glyph glyph-name="uni1E6F" unicode="&#x1e6f;" horiz-adv-x="344" 
d="M236 -8c-111 0 -159 64 -134 172l39 166h-60l31 136h60l38 165h151l-38 -165h97l-32 -136h-96l-36 -155c-7 -32 9 -52 45 -52c11 0 24 2 36 6v-121c-37 -11 -71 -16 -101 -16zM-6 -206l31 135h307l-31 -135h-307z" />
    <glyph glyph-name="uni1E78" unicode="&#x1e78;" horiz-adv-x="657" 
d="M540 979l-42 93l203 156l60 -134zM420 749l-93 25c34 94 99 156 163 156c48 0 76 -42 102 -42c17 0 35 14 50 44l91 -27c-31 -91 -98 -149 -168 -149c-54 0 -68 40 -96 40c-14 0 -33 -16 -49 -47zM319 -10c-171 0 -249 108 -208 287l97 417h160l-94 -407
c-21 -92 15 -147 98 -147c71 0 124 47 142 127l98 427h159l-94 -407c-42 -180 -182 -297 -358 -297z" />
    <glyph glyph-name="uni1E79" unicode="&#x1e79;" horiz-adv-x="509" 
d="M426 743l-54 67l142 179l88 -102zM293 551l-88 25c33 94 95 156 155 156c45 0 71 -42 95 -42c16 0 33 14 48 44l87 -27c-31 -91 -94 -149 -160 -149c-51 0 -64 40 -90 40c-13 0 -32 -16 -47 -47zM305 490l-61 -265c-8 -36 -12 -81 37 -81c22 0 44 10 64 25l74 321h154
l-113 -490h-111l-10 64c-45 -45 -99 -70 -152 -70c-91 0 -133 74 -106 192l70 304h154z" />
    <glyph glyph-name="uni1E7A" unicode="&#x1e7a;" horiz-adv-x="657" 
d="M428 955c-55 0 -83 40 -69 99c14 60 60 100 115 100s83 -40 69 -100c-14 -59 -60 -99 -115 -99zM660 955c-55 0 -83 40 -69 99c14 60 60 100 115 100s83 -40 69 -100c-14 -59 -60 -99 -115 -99zM342 769l31 136h335l-31 -136h-335zM319 -10c-171 0 -249 108 -208 287
l97 417h160l-94 -407c-21 -92 15 -147 98 -147c71 0 124 47 142 127l98 427h159l-94 -407c-42 -180 -182 -297 -358 -297z" />
    <glyph glyph-name="uni1E7B" unicode="&#x1e7b;" horiz-adv-x="513" 
d="M312 751c-52 0 -79 40 -65 99c14 60 59 100 111 100s79 -40 65 -100c-14 -59 -59 -99 -111 -99zM533 751c-53 0 -80 40 -66 99c14 60 59 100 112 100s79 -40 65 -100c-14 -59 -58 -99 -111 -99zM217 550l31 135h318l-31 -135h-318zM305 490l-61 -265
c-8 -36 -12 -81 38 -81c23 0 46 10 66 25l74 321h154l-113 -490h-112l-9 64c-46 -45 -100 -70 -153 -70c-92 0 -135 74 -108 192l70 304h154z" />
    <glyph glyph-name="Wgrave" unicode="&#x1e80;" horiz-adv-x="954" 
d="M659 734l-168 115l122 134l130 -156zM197 0l-37 694h182l-2 -478l209 474h176l3 -465l224 469h162l-359 -694h-172l-10 444l-199 -444h-177z" />
    <glyph glyph-name="wgrave" unicode="&#x1e81;" horiz-adv-x="719" 
d="M471 532l-106 144l131 102l59 -179zM147 0l-41 490h160l-1 -314l143 312h139l2 -303l148 305h144l-266 -490h-147l-8 294l-135 -294h-138z" />
    <glyph glyph-name="Wacute" unicode="&#x1e82;" horiz-adv-x="954" 
d="M629 734l-42 93l203 156l60 -134zM197 0l-37 694h182l-2 -478l209 474h176l3 -465l224 469h162l-359 -694h-172l-10 444l-199 -444h-177z" />
    <glyph glyph-name="wacute" unicode="&#x1e83;" horiz-adv-x="719" 
d="M492 532l-54 67l143 179l84 -102zM147 0l-41 490h160l-1 -314l143 312h139l2 -303l148 305h144l-266 -490h-147l-8 294l-135 -294h-138z" />
    <glyph glyph-name="Wdieresis" unicode="&#x1e84;" horiz-adv-x="954" 
d="M525 747c-55 0 -83 40 -69 99c14 60 60 100 115 100s83 -40 69 -100c-14 -59 -60 -99 -115 -99zM757 747c-55 0 -83 40 -69 99c14 60 60 100 115 100s83 -40 69 -100c-14 -59 -60 -99 -115 -99zM197 0l-37 694h182l-2 -478l209 474h176l3 -465l224 469h162l-359 -694
h-172l-10 444l-199 -444h-177z" />
    <glyph glyph-name="wdieresis" unicode="&#x1e85;" horiz-adv-x="733" 
d="M388 557c-52 0 -80 40 -66 99c14 60 60 100 112 100s79 -40 65 -100c-14 -59 -59 -99 -111 -99zM608 557c-52 0 -79 40 -65 99c14 60 59 100 111 100s79 -40 65 -100c-14 -59 -59 -99 -111 -99zM147 0l-41 490h160l1 -314l146 312h143l5 -303l150 305h144l-266 -490h-152
l-10 294l-138 -294h-142z" />
    <glyph glyph-name="uni1E8E" unicode="&#x1e8e;" horiz-adv-x="608" 
d="M447 747c-55 0 -83 40 -69 99c14 60 60 100 115 100s83 -40 69 -100c-14 -59 -60 -99 -115 -99zM228 0l58 251l-144 443h190l75 -292l198 292h181l-340 -447l-57 -247h-161z" />
    <glyph glyph-name="uni1E8F" unicode="&#x1e8f;" horiz-adv-x="460" 
d="M356 557c-52 0 -79 40 -65 99c14 60 59 100 111 100s79 -40 65 -100c-14 -59 -59 -99 -111 -99zM28 -217l126 217l-48 490h164l3 -327l162 327h147l-274 -490l-115 -217h-165z" />
    <glyph glyph-name="uni1E92" unicode="&#x1e92;" horiz-adv-x="603" 
d="M20 0l26 111l430 431h-314l35 152h539l-23 -103l-439 -439h342l-35 -152h-561zM255 -225c-55 0 -83 40 -69 99c14 60 60 100 115 100s83 -40 69 -100c-14 -59 -60 -99 -115 -99z" />
    <glyph glyph-name="uni1E93" unicode="&#x1e93;" horiz-adv-x="428" 
d="M24 0l24 103l230 221h-179l33 142h371l-24 -104l-230 -221h190l-33 -141h-382zM161 -225c-52 0 -79 40 -65 99c14 60 59 100 111 100s79 -40 65 -100c-14 -59 -59 -99 -111 -99z" />
    <glyph glyph-name="uni1E97" unicode="&#x1e97;" horiz-adv-x="351" 
d="M192 698c-52 0 -79 40 -65 99c14 60 59 100 111 100s79 -40 65 -100c-14 -59 -59 -99 -111 -99zM414 698c-53 0 -79 40 -65 99c14 60 58 100 111 100s79 -40 65 -100c-14 -59 -58 -99 -111 -99zM241 -8c-113 0 -163 64 -138 172l39 166h-63l32 136h62l36 157h152
l-37 -157h101l-31 -136h-101l-36 -155c-7 -32 11 -52 48 -52c12 0 24 2 37 6l1 -121c-37 -11 -72 -16 -102 -16z" />
    <glyph glyph-name="uni1E9E" unicode="&#x1e9e;" horiz-adv-x="683" 
d="M412 -10c-54 0 -103 13 -147 38l79 136c26 -15 61 -24 94 -24c51 0 88 23 97 60c12 52 -47 89 -138 104l154 209c-21 28 -48 41 -85 41c-71 0 -128 -47 -145 -120l-100 -434h-164l101 434c37 162 173 270 347 270c125 0 219 -55 242 -145l-124 -165
c72 -31 102 -97 82 -185c-30 -130 -150 -219 -293 -219z" />
    <glyph glyph-name="uni1EA0" unicode="&#x1ea0;" horiz-adv-x="658" 
d="M1 0l390 694h205l61 -694h-178l-9 143h-225l-72 -143h-172zM325 299h136l-13 242zM276 -225c-55 0 -83 40 -69 99c14 60 60 100 115 100s83 -40 69 -100c-14 -59 -60 -99 -115 -99z" />
    <glyph glyph-name="uni1EA1" unicode="&#x1ea1;" horiz-adv-x="470" 
d="M171 -10c-94 0 -142 56 -122 141c23 99 116 146 299 151c7 36 -24 56 -85 56c-38 0 -81 -8 -130 -23l-10 113c62 30 137 48 205 48c142 0 197 -76 165 -217l-59 -259h-111l-4 52c-42 -41 -92 -62 -148 -62zM210 156c-5 -22 13 -37 44 -37c21 0 42 6 61 19l14 58
c-80 -3 -113 -14 -119 -40zM185 -225c-53 0 -79 40 -65 99c14 60 58 100 111 100s79 -40 65 -100c-14 -59 -58 -99 -111 -99z" />
    </font>
</defs>
</svg>
