<svg xmlns="http://www.w3.org/2000/svg" width="1080" height="1080" viewBox="0 0 1080 1080"><defs><clipPath id="a"><path d="M0 0h1080v1080H0z"/></clipPath></defs><g data-name="Group 198" clip-path="url(#a)"><path data-name="Path 1037 - Outline" d="M984.98 1044h-13.3l-18.161-39.082h-68L867.355 1044h-13.3l60.873-130.439h9.181zm-93.739-51.139h56.554l-28.276-60.724zM849.166 1044h-12.057V931.668l-56.572 56.422-56.4-56.4V1044h-12.063V913.561h10.939l57.529 57.686 57.689-57.686h10.935zm-220.089 0a65.035 65.035 0 0 1-65.22-65.219 65.035 65.035 0 0 1 65.217-65.22 65.386 65.386 0 0 1 25.464 5.1 65.131 65.131 0 0 1 39.917 60.117 65.131 65.131 0 0 1-39.917 60.117 65.386 65.386 0 0 1-25.464 5.105zm0-118.544a53.039 53.039 0 0 0-53.325 53.325 53.406 53.406 0 1 0 106.812 0 53.177 53.177 0 0 0-53.49-53.325zM549.945 1044h-13.9l-28.707-49.789h-27.751V1044h-11.895V913.561h45.435a40.118 40.118 0 0 1 28.536 11.872 40.117 40.117 0 0 1 11.872 28.536 39.858 39.858 0 0 1-11.68 28.262 40.392 40.392 0 0 1-21.041 11.243zm-70.358-61.68h33.523a28.429 28.429 0 0 0 19.894-8.343 28.059 28.059 0 0 0 8.312-20.008 28.586 28.586 0 0 0-28.206-28.513h-33.523zM385.502 1044h-49.976V913.561h50.159a65.427 65.427 0 0 1 65.036 65.219 65.319 65.319 0 0 1-39.838 60.09 64.767 64.767 0 0 1-25.382 5.13zm-37.919-12.057h37.591a53.163 53.163 0 1 0 0-106.325h-37.591zM327.716 1044h-13.3l-18.161-39.082h-68L210.091 1044h-13.3l60.873-130.439h9.181zm-93.742-51.139h56.554l-28.274-60.724zM128.657 1044h-11.895V913.561h84.546v12.057h-72.651v45.675h67.623v12.056h-67.623z" fill="#65b34c"/><g data-name="Group 196"><path data-name="Subtraction 11" d="M353.66 852.141l-.206-.27 164.708-24.255 24.1-115.029a127.984 127.984 0 0 0 7.708 34.139 114.458 114.458 0 0 0 16.407 29.594 101.9 101.9 0 0 0 12.514 13.511 91.652 91.652 0 0 0 14.428 10.617 83.329 83.329 0 0 0 16.016 7.339 78.491 78.491 0 0 0 17.287 3.678zm-3.873-5.1L135.871 565.2V112.847l351.9-48.12-62.928 9.405 209.472 85.238v46.92l-1.3.317-.166 2.129-7.3-3.255 6.654 2.815v-48.38l-202.3-81.946v44.7l22.884 9.685-114.461 321.05-36.769-29.465-164.1 22.324v2.362l.371.368-.229 116.4 207.563 275.334 4.791 1.049-.163 5.254zm314.259-41.149h.008a87.521 87.521 0 0 0 23.483-14.441 102.626 102.626 0 0 0 18.98-21.573 123.311 123.311 0 0 0 19.627-58.775l71.012-18.112a119.97 119.97 0 0 0 12.971 31.32 105.085 105.085 0 0 0 20.251 24.757 88.983 88.983 0 0 0 25.913 16.267 79.712 79.712 0 0 0 64.353-1.943 88.52 88.52 0 0 0 15.189-9.181 97.548 97.548 0 0 0 13.428-12.2 107.357 107.357 0 0 0 11.353-14.849 116.029 116.029 0 0 0 8.961-17.121 126 126 0 0 0 9.487-39.557v88.471zM354.491 695.57l.861-30.353.081.08zm624.573-45.438c-.1-1.362-.23-2.735-.377-4.08V348.319l-8.072 1.9 1.549-2.01-95.254-46.476-5.4-86.584-13.071 4-19.044-9.439-7.719 69.949-24.083-11.75.164-101.939 24.416-5.985v-45.884l-98.043 22.117 101.167-24.463-181.68-69.709.567-.078 324.878 124.419zM858.145 199.189l-25.233 6.432 2.1.116 26.113 9.209 17.716-6.777.743.041-.405-.171.367-.14-.8-.041-20.6-8.669zM557.764 638.57l1.385-6.614-7.761 1.246 7.611-2.96-.458-.367 10.46-7.526a110.06 110.06 0 0 0-11.237 16.221z" fill="#65b34c"/><path data-name="Path 997 - Outline" d="M351.729 856.885l-1.578-2.079-218.686-288.122V109.001l518.451-72.872 1.054.4 332.5 126.824v599.389zm-211.45-293.167l215.314 283.683 619.063-92.249V169.42L649.364 45.02l-509.085 71.672z" fill="#65b34c"/><path data-name="Path 1031 - Outline" d="M133.438 438.162l226.4 224.144-5.247 185.005-11.969-2.621-.983-1.3-208.454-276.52zm217.481 227.715L142.21 459.248l-.206 104.679 204.127 270.776z" fill="#65b34c"/><path data-name="Path 1034 - Outline" d="M564.774 626.594s-13.819 28.984-18.419 50.967 0 36.963 0 36.963l-24.51 117-170.2 25.065-6.352-6.676.057-1.84 5.805-187.192zm-50.3 197.109l23.569-112.509s-.8-22.064 3.071-40.531a127.4 127.4 0 0 1 12.4-33.337l-193.775 31.102-5.527 178.08.664.7z" fill="#65b34c"/><path data-name="Union 3" d="M835.698 202.965l23.119 11.459 16.734-5.125 5.966 95.593-24.895 9.2-31.187-18.127zm22.347 20.913l-14.969-7.419-8.251 74.767 22.638 13.157 14.85-5.487-4.862-77.9z" fill="#65b34c"/><path data-name="Path 1038 - Outline" d="M634.139 814.234a83.165 83.165 0 0 1-37.954-9.189 97.53 97.53 0 0 1-30.756-24.867 118.267 118.267 0 0 1-20.569-36.6 133.852 133.852 0 0 1-7.511-44.613c0-23.981 6.118-46.968 17.693-66.476a109.535 109.535 0 0 1 20.021-24.86 93.87 93.87 0 0 1 23.223-15.775l30.583-388.78 183.307-42.575-.377 222.565 171.292-40.309v303.062a137.732 137.732 0 0 1 .765 14.5 132.816 132.816 0 0 1-7.579 44.628 118.006 118.006 0 0 1-20.754 36.6 98.212 98.212 0 0 1-31.018 24.86 84.171 84.171 0 0 1-69.863 3.012 93.327 93.327 0 0 1-27.2-17.065 109.454 109.454 0 0 1-21.1-25.791 123.526 123.526 0 0 1-12.278-28.237l-63.8 14.272c-2.689 27.192-13.416 52.3-30.391 71.009-17.926 19.751-41.274 30.629-65.734 30.629zm3.018-604.1l-30.493 387.628-2.42 1.059a84.458 84.458 0 0 0-23.22 15.3 100.735 100.735 0 0 0-18.4 22.866c-10.77 18.146-16.462 39.578-16.462 61.978a125.063 125.063 0 0 0 7.009 41.689 109.484 109.484 0 0 0 19.028 33.882 88.777 88.777 0 0 0 27.974 22.65 74.433 74.433 0 0 0 33.966 8.235c21.946 0 42.973-9.852 59.207-27.74 16.32-17.983 26.408-42.458 28.405-68.915l.238-3.156 78.333-17.979 1.1 4.251a115.5 115.5 0 0 0 12.491 30.171 100.658 100.658 0 0 0 19.4 23.723 84.545 84.545 0 0 0 24.627 15.469 75.359 75.359 0 0 0 62.6-2.712 89.454 89.454 0 0 0 28.233-22.658 109.228 109.228 0 0 0 19.2-33.88 124.028 124.028 0 0 0 7.07-41.676 128.855 128.855 0 0 0-.739-13.792l-.026-.236V353.884l-171.312 40.313.378-222.48z" fill="#65b34c"/><path data-name="Path 999 - Outline" d="M558.301 635.478l-2.61-2.083-221.882-178.316 117.617-328.027 187.056 79.367-31.929 391.451-24.312 11.327zM344.224 452.113l214.352 172.31 20.006-18.879 19.642-12.883 30.987-380.727-172.679-72.956z" fill="#65b34c"/><path data-name="Path 1005" d="M416.722 324.789l144.77 89.368 33.433-191.19-123.932-49.349z" fill="none" stroke="#65b34c" stroke-width="2.5"/><path data-name="Path 1005 - Outline" d="M564.713 421.325l-153.345-94.662 57.019-158.829 131.5 52.365zm-142.636-98.409l136.2 84.075 31.7-181.255L473.6 179.395z" fill="#65b34c"/><path data-name="Path 1006" d="M659.468 230.759l115.852-26.388v192l-126.528 28.931z" fill="none" stroke="#65b34c" stroke-width="2.5"/><path data-name="Path 1006 - Outline" d="M779.726 198.847v201.036l-135.655 31.019 11.174-203.707zm-8.813 194.01V209.895l-107.227 24.422-10.174 185.385z" fill="#65b34c"/><path data-name="Path 1039 - Outline" d="M858.283 197.336l20.864 8.778.488.025.094.592.133-.316.405.17-.333 1.441.241 1.519-.367.14-.16-.419-.162.7-.367-.02-17.972 6.878-26.486-9.34-1.846-.1-.338-3.468zm16.164 10.626l-16.44-6.916-18 4.587 21.088 7.437z" fill="#65b34c"/><path data-name="Path 1028" d="M351.717 856.846l-119.163-14.485 60.176-44.016-94.825-15.7 53.065-40.836-88.966-20.4 46.852-40.365-82.182-20.458 39.372-36.736-66.883-10.089 33.26-49.122 6.384 6.076-23.161 38.513 67.878 10.361-38.968 36.359 82.955 20.65-46.553 40.108 90.2 20.685-51.808 39.87 95.511 15.816-59.1 43.228 97.018 11.8z" fill="#65b34c"/><path data-name="Path 1002 - Outline" d="M650.157 36l199.934 76.713-214.592 51.891-227.216-92.453zm170.346 74.8L649.166 45.059 441.403 76.112l194.786 79.257z" fill="#65b34c"/><path data-name="Path 1032 - Outline" d="M836.581 108.591v54.852l-206.672 50.658v-58.887zm-8.813 47.938v-36.915l-189.045 42.647v40.606z" fill="#65b34c"/><path data-name="Path 1033 - Outline" d="M636.602 214.943l-211.1-89.349V71.433l211.1 85.51zm-202.29-95.191l193.476 81.891v-38.76L434.312 84.512z" fill="#65b34c"/><path data-name="Path 1035 - Outline" d="M302.836 419.322l1.476 1.183 259.943 208.4-13.786 9.383-.454.075-195.572 32.168-1.6-1.589-219.796-218.475v-8.043zM550.28 628.908l-250-200.342-155.479 21.15 212.662 211.391 190.672-31.362z" fill="#65b34c"/></g></g></svg>
