<svg xmlns="http://www.w3.org/2000/svg" xmlns:xlink="http://www.w3.org/1999/xlink" width="862" height="862" viewBox="0 0 862 862">
  <defs>
    <clipPath id="clip-Fadroma-862x862-transperant">
      <rect width="862" height="862"/>
    </clipPath>
  </defs>
  <g id="Fadroma-862x862-transperant" clip-path="url(#clip-Fadroma-862x862-transperant)">
    <g id="Group_125" data-name="Group 125" transform="translate(-981.319 178.836)">
      <g id="Group_124" data-name="Group 124" transform="translate(1146.524 71.177)">
        <g id="Path_172" data-name="Path 172" transform="translate(253.51 121.093) rotate(-17)" fill="#fff">
          <path d="M 36.14839935302734 247.9188842773438 L 0.5145654082298279 107.6982269287109 L 25.16265869140625 1.652264356613159 L 74.31123352050781 123.0939254760742 L 36.14839935302734 247.9188842773438 Z" stroke="none"/>
          <path d="M 25.29193496704102 3.304550170898438 L 1.02911376953125 107.6929626464844 L 36.19279098510742 246.0635223388672 L 73.78125 123.1172485351562 L 25.29193496704102 3.304550170898438 M 25.03335189819336 0 L 74.84119415283203 123.0706634521484 L 36.10400772094727 249.7742614746094 L 7.62939453125e-06 107.7035064697266 L 25.03335189819336 0 Z" stroke="none" fill="#832df4"/>
        </g>
        <g id="Path_160" data-name="Path 160" transform="translate(130.782 70.039)" fill="#fff">
          <path d="M 105.4784851074219 162.0075073242188 L 72.39300537109375 104.2706604003906 L 110.9015121459961 -50.1117057800293 L 157.5038604736328 -10.91940593719482 L 105.4784851074219 162.0075073242188 Z" stroke="none"/>
          <path d="M 111.1927795410156 -49.21343994140625 L 72.92681884765625 104.1965713500977 L 105.3344879150391 160.7505798339844 L 156.9302673339844 -10.74846649169922 L 111.1927795410156 -49.21343994140625 M 110.6102523803711 -51.00996398925781 L 158.0774230957031 -11.09035491943359 L 105.6224746704102 163.2644195556641 L 71.85919189453125 104.3447799682617 L 110.6102523803711 -51.00996398925781 Z" stroke="none" fill="#832df4"/>
        </g>
        <g id="Path_161" data-name="Path 161" transform="translate(271.157 64.444)" fill="#fff">
          <path d="M -34.11832427978516 164.5576171875 L 14.291335105896 -0.004682855680584908 L 145.5162353515625 -19.66719818115234 L 145.5162353515625 143.3114929199219 L -34.11832427978516 164.5576171875 Z" stroke="none"/>
          <path d="M 144.5162200927734 -18.50617980957031 L 15.07058715820312 0.8897247314453125 L -32.73149108886719 163.3866271972656 L 144.5162200927734 142.4228057861328 L 144.5162200927734 -18.50617980957031 M 146.5162200927734 -20.82818603515625 L 146.5162200927734 144.2001800537109 L -35.50518798828125 165.7286071777344 L 13.51206970214844 -0.8990936279296875 L 146.5162200927734 -20.82818603515625 Z" stroke="none" fill="#832df4"/>
        </g>
        <g id="Path_163" data-name="Path 163" transform="translate(167.131 20.417)" fill="#fff">
          <path d="M 117.1325302124023 52.82674407958984 L 66.695556640625 8.447039604187012 L 66.695556640625 -8.178767204284668 L 117.1325302124023 35.60329818725586 L 117.1325302124023 52.82674407958984 Z" stroke="none"/>
          <path d="M 116.6325302124023 51.72077941894531 L 116.6325302124023 35.83138275146484 L 67.195556640625 -7.082627773284912 L 67.195556640625 8.220979690551758 L 116.6325302124023 51.72077941894531 M 117.6325302124023 53.93268966674805 L 66.195556640625 8.673081398010254 L 66.195556640625 -9.27488899230957 L 117.6325302124023 35.3752326965332 L 117.6325302124023 53.93268966674805 Z" stroke="none" fill="#832df4"/>
        </g>
        <g id="Path_169" data-name="Path 169" transform="translate(237.972 62.321)" fill="#fff">
          <path d="M 2.663655281066895 107.1057739257812 C -0.9054901599884033 107.1057739257812 -4.44547176361084 103.6728515625 -6.786635398864746 100.7929916381836 C -9.450435638427734 97.51626586914062 -11.17823600769043 94.21376037597656 -11.19538116455078 94.18077850341797 L -11.22254467010498 94.12852478027344 L -11.25370788574219 94.07857513427734 C -11.26912689208984 94.05375671386719 -12.88189029693604 91.43939208984375 -14.39443588256836 87.32057952880859 C -15.27799892425537 84.91454315185547 -15.95545387268066 82.47203063964844 -16.40796279907227 80.06088256835938 C -16.97007179260254 77.06577301025391 -17.18461799621582 74.11103057861328 -17.04561805725098 71.27875518798828 C -16.41654396057129 58.44350433349609 1.182382583618164 -7.463114261627197 1.360073447227478 -8.12733268737793 L 1.381218910217285 -8.206332206726074 L 1.39363706111908 -8.287150382995605 C 1.397237062454224 -8.310423851013184 1.773382544517517 -10.70876884460449 2.595055341720581 -13.04758739471436 C 3.447979211807251 -15.4752893447876 4.334951400756836 -16.60199928283691 4.990780353546143 -16.91130828857422 C 7.834006786346436 -14.821946144104 21.7031078338623 -4.529860973358154 28.97016525268555 2.700740098953247 C 32.45965576171875 6.172721862792969 34.56007385253906 8.872212409973145 35.58034515380859 11.19621276855469 C 36.43830871582031 13.15048599243164 36.43252944946289 14.65821266174316 36.42585372924805 16.40399551391602 C 36.42553329467773 16.48640632629395 36.42522048950195 16.56906890869141 36.42499160766602 16.65203666687012 L 9.340776443481445 102.4775848388672 C 8.235170364379883 104.1138000488281 7.072010517120361 105.3320388793945 5.881473541259766 106.1002502441406 C 4.832873344421387 106.7768707275391 3.780328035354614 107.1057739257812 2.663655281066895 107.1057739257812 Z" stroke="none"/>
          <path d="M 5.121600151062012 -14.95012664794922 C 4.756284713745117 -14.39052581787109 4.265923500061035 -13.41300964355469 3.771533012390137 -11.82917785644531 C 3.163013458251953 -9.879615783691406 2.878633499145508 -8.074577331542969 2.876253128051758 -8.059333801269531 L 2.851413726806641 -7.897674560546875 L 2.809133529663086 -7.739692687988281 C 2.764673233032227 -7.573455810546875 -1.690107345581055 9.094085693359375 -6.164926528930664 27.14600372314453 C -13.59870719909668 57.13486480712891 -15.37028694152832 67.73796081542969 -15.54742622375488 71.35230255126953 C -15.84924507141113 77.50234222412109 -14.33598518371582 83.10918426513672 -13.01338768005371 86.72978210449219 C -11.57104873657227 90.6781005859375 -10.03007698059082 93.20473480224609 -9.979486465454102 93.28711700439453 L -9.922447204589844 93.37738037109375 L -9.865667343139648 93.48660278320312 C -9.848766326904297 93.51898193359375 -8.145647048950195 96.76060485839844 -5.563966751098633 99.91884613037109 C -2.566205978393555 103.5861053466797 0.3557529449462891 105.6057662963867 2.663654327392578 105.6057662963867 C 3.482933044433594 105.6057662963867 4.269473075866699 105.355224609375 5.068193435668945 104.83984375 C 6.04670524597168 104.2084503173828 7.024054527282715 103.1917419433594 7.977112770080566 101.8144454956055 L 34.92577743530273 16.41844177246094 C 34.92580413818359 16.41169738769531 34.92582702636719 16.40496063232422 34.92585372924805 16.39822387695312 C 34.932373046875 14.69390106201172 34.93709564208984 13.46248626708984 34.20687484741211 11.79916381835938 C 33.27741241455078 9.681983947753906 31.21839332580566 7.053680419921875 27.91217422485352 3.764045715332031 C 21.36720848083496 -2.748077392578125 9.359302520751953 -11.80747222900391 5.121600151062012 -14.95012664794922 M 5.35637378692627 -18.50269317626953 C 5.35637378692627 -18.50269317626953 21.76751327514648 -6.581794738769531 30.02815246582031 1.637405395507812 C 38.28879547119141 9.856605529785156 37.92463302612305 12.97370147705078 37.92463302612305 16.88418579101562 L 10.70679378509521 103.1331634521484 C 8.076320648193359 107.1095809936523 5.319526672363281 108.6057586669922 2.663652420043945 108.6057586669922 C -5.387622833251953 108.6057586669922 -12.52630615234375 94.87260437011719 -12.52630615234375 94.87260437011719 C -12.52630615234375 94.87260437011719 -19.18184471130371 84.20592498779297 -18.54382514953613 71.20524597167969 C -17.89960670471191 58.06140518188477 -0.08894729614257812 -8.514999389648438 -0.08894729614257812 -8.514999389648438 C -0.08894729614257812 -8.514999389648438 1.445873260498047 -18.50269317626953 5.35637378692627 -18.50269317626953 Z" stroke="none" fill="#832df4"/>
        </g>
        <g id="Path_164" data-name="Path 164" transform="translate(218.117 -11.86)" fill="#fff">
          <path d="M 67.64446258544922 69.9793701171875 L 15.22659015655518 23.53511238098145 L 137.8272247314453 12.37256908416748 L 207.8337554931641 53.61996459960938 L 67.64446258544922 69.9793701171875 Z" stroke="none"/>
          <path d="M 137.7121429443359 12.88510131835938 L 16.42414855957031 23.92813110351562 L 67.80868530273438 69.45681762695312 L 206.2984924316406 53.29573059082031 L 137.7121429443359 12.88510131835938 M 137.9422607421875 11.86001586914062 L 209.3690185546875 53.94419479370117 L 67.48028564453125 70.50192260742188 L 14.02906799316406 23.14207077026367 L 137.9422607421875 11.86001586914062 Z" stroke="none" fill="#832df4"/>
        </g>
        <g id="Group_122" data-name="Group 122" transform="translate(258.291 40.346)">
          <path id="Path_191" data-name="Path 191" d="M0,0V150.715" transform="translate(71.437 26.74)" fill="none" stroke="#832df4" stroke-width="5"/>
          <g id="Path_165" data-name="Path 165" transform="translate(-86.612 63.862)" fill="#fff">
            <path d="M 92.81764221191406 -33.30569839477539 L 88.81264495849609 -37.47422027587891 C 88.64472198486328 -37.71135330200195 87.11243438720703 -39.97132110595703 87.11243438720703 -43.38968276977539 C 87.11243438720703 -46.26040267944336 88.17775726318359 -50.00764846801758 88.66389465332031 -51.56801223754883 L 93.18983459472656 -47.41875076293945 C 92.85585021972656 -46.45519256591797 91.93459320068359 -43.49073791503906 91.93459320068359 -40.11094284057617 C 91.93459320068359 -37.64472198486328 92.42546844482422 -35.01393508911133 92.81764221191406 -33.30569839477539 Z" stroke="none"/>
            <path d="M 88.91243743896484 -50.66183853149414 C 88.39073944091797 -48.87615585327148 87.61241912841797 -45.80688095092773 87.61241912841797 -43.38968276977539 C 87.61241912841797 -40.22339248657227 88.98806762695312 -38.10067749023438 89.19963836669922 -37.79311752319336 L 91.97542572021484 -34.90399551391602 C 91.68663024902344 -36.45802307128906 91.43459320068359 -38.3256721496582 91.43459320068359 -40.11094284057617 C 91.43459320068359 -43.25119400024414 92.21341705322266 -46.04424285888672 92.61263275146484 -47.26959991455078 L 88.91243743896484 -50.66183853149414 M 88.42807006835938 -52.46253204345703 L 93.77338409423828 -47.56209182739258 C 93.77338409423828 -47.56209182739258 92.43459320068359 -44.10415267944336 92.43459320068359 -40.11094284057617 C 92.43459320068359 -36.11774063110352 93.77338409423828 -31.58926010131836 93.77338409423828 -31.58926010131836 L 88.42807006835938 -37.15281295776367 C 88.42807006835938 -37.15281295776367 86.61241912841797 -39.56225204467773 86.61241912841797 -43.38968276977539 C 86.61241912841797 -47.21711349487305 88.42807006835938 -52.46253204345703 88.42807006835938 -52.46253204345703 Z" stroke="none" fill="#832df4"/>
          </g>
          <g id="Path_162" data-name="Path 162" transform="translate(6.42 1.154)" fill="#fff">
            <path d="M 20.6110782623291 31.77865982055664 L 20.6110782623291 15.23295116424561 L 161.3384552001953 -0.03995557129383087 L 161.3384552001953 16.50575256347656 L 20.6110782623291 31.77865982055664 Z" stroke="none"/>
            <path d="M 160.3384552001953 1.074426651000977 L 21.611083984375 16.13027381896973 L 21.611083984375 30.66425704956055 L 160.3384552001953 15.60843086242676 L 160.3384552001953 1.074426651000977 M 162.3384552001953 -1.154369354248047 L 162.3384552001953 17.40311241149902 L 19.611083984375 32.89305114746094 L 19.611083984375 14.33559226989746 L 162.3384552001953 -1.154369354248047 Z" stroke="none" fill="#832df4"/>
          </g>
          <g id="Path_166" data-name="Path 166" transform="translate(7.144 35.089)" fill="#fff">
            <path d="M 0.3424224555492401 -3.401476621627808 C -0.02833412401378155 -4.508424282073975 -0.9931023716926575 -7.691591739654541 -0.9931023716926575 -10.83724308013916 C -0.9931023716926575 -14.12204742431641 0.05537789687514305 -17.45575904846191 0.386495977640152 -18.42646408081055 L 14.48257732391357 -20.25897216796875 L 14.48257732391357 -6.563100814819336 L 0.3424224555492401 -3.401476621627808 Z" stroke="none"/>
            <path d="M 13.98257637023926 -19.68977165222168 L 0.7616033554077148 -17.97101783752441 C 0.3680877685546875 -16.76118659973145 -0.49310302734375 -13.77731323242188 -0.49310302734375 -10.83724308013916 C -0.49310302734375 -8.100648880004883 0.2580556869506836 -5.32533073425293 0.6775989532470703 -3.988773345947266 L 13.98257637023926 -6.963649749755859 L 13.98257637023926 -19.68977165222168 M 14.98257637023926 -20.82819366455078 L 14.98257637023926 -6.162551879882812 L 0.01718711853027344 -2.816423416137695 C 0.01718711853027344 -2.816423416137695 -1.49310302734375 -6.820682525634766 -1.49310302734375 -10.83724308013916 C -1.49310302734375 -14.85380268096924 0.01718711853027344 -18.88266372680664 0.01718711853027344 -18.88266372680664 L 14.98257637023926 -20.82819366455078 Z" stroke="none" fill="#832df4"/>
          </g>
          <g id="Path_167" data-name="Path 167" transform="translate(4.848 -2.386)" fill="#fff">
            <path d="M 2.575071334838867 18.43162727355957 L -1.766298890113831 14.33587646484375 L 11.48304748535156 12.63005447387695 L 16.51112747192383 16.51823425292969 L 2.575071334838867 18.43162727355957 Z" stroke="none"/>
            <path d="M 11.34120559692383 13.15243530273438 L -0.6549959182739258 14.69691848754883 L 2.744115829467773 17.90371894836426 L 15.26274681091309 16.1849365234375 L 11.34120559692383 13.15243530273438 M 11.62485885620117 12.107666015625 L 17.75947952270508 16.85152626037598 L 2.406008720397949 18.95952606201172 L -2.877620697021484 13.97482681274414 L 11.62485885620117 12.107666015625 Z" stroke="none" fill="#832df4"/>
          </g>
        </g>
        <g id="Group_123" data-name="Group 123" transform="translate(0 19.881)">
          <g id="Path_183" data-name="Path 183" transform="translate(53.997 194.642)" fill="#fff">
            <path d="M 51.27311325073242 110.1748352050781 L -32.60368347167969 110.1748352050781 L -9.399806976318359 -5.048666477203369 L 50.99569702148438 18.69835662841797 C 51.73355484008789 20.00441360473633 57.05579376220703 29.51810836791992 62.31288528442383 41.36837387084961 C 65.61986541748047 48.82282257080078 68.25414276123047 55.72900772094727 70.14254760742188 61.8951301574707 C 72.49565124511719 69.57865142822266 73.68877410888672 76.11974334716797 73.68877410888672 81.33670043945312 C 73.68877410888672 86.51017761230469 72.51268768310547 91.24209594726562 70.19317626953125 95.40100860595703 C 68.33571624755859 98.73146820068359 65.74294281005859 101.7086029052734 62.48691558837891 104.2497482299805 C 57.23258972167969 108.3504333496094 51.90422058105469 109.9901123046875 51.27311325073242 110.1748352050781 Z" stroke="none"/>
            <path d="M -9.027439117431641 -4.364990234375 L -31.99296188354492 109.6748352050781 L 51.20125961303711 109.6748352050781 C 52.04344940185547 109.4229888916016 57.11296844482422 107.8010330200195 62.15163803100586 103.8771286010742 C 65.36167144775391 101.3772964477539 67.91685485839844 98.44977569580078 69.74620819091797 95.17588043212891 C 72.030517578125 91.08776092529297 73.18876647949219 86.43159484863281 73.18876647949219 81.33670043945312 C 73.18876647949219 76.17047119140625 72.00350189208984 69.68022155761719 69.66588592529297 62.04623794555664 C 67.78399658203125 55.90046691894531 65.15760803222656 49.01457595825195 61.85968399047852 41.5798225402832 C 56.78210067749023 30.13301086425781 51.64237976074219 20.86823272705078 50.64734649658203 19.09864044189453 L -9.027439117431641 -4.364990234375 M -9.772163391113281 -5.732330322265625 L 51.34334564208984 18.29777526855469 C 51.34334564208984 18.29777526855469 74.18876647949219 58.24243545532227 74.18876647949219 81.33670043945312 C 74.18876647949219 104.4309463500977 51.34334564208984 110.6748352050781 51.34334564208984 110.6748352050781 L -33.21442031860352 110.6748352050781 L -9.772163391113281 -5.732330322265625 Z" stroke="none" fill="#832df4"/>
          </g>
          <g id="Path_165-2" data-name="Path 165" transform="translate(140.315 53.816)" fill="#fff">
            <path d="M 92.09137725830078 -37.02013397216797 L 88.83037567138672 -40.41427230834961 C 88.635986328125 -40.77671432495117 87.47686767578125 -43.05142974853516 87.47686767578125 -45.72954177856445 C 87.47686767578125 -47.90446090698242 88.23300170898438 -50.40352630615234 88.63856506347656 -51.58739471435547 L 92.17353820800781 -48.34663772583008 C 92.01820373535156 -47.70729446411133 91.70381927490234 -46.10342788696289 91.70381927490234 -43.59579086303711 C 91.70381927490234 -41.48025131225586 91.93327331542969 -38.69092178344727 92.09137725830078 -37.02013397216797 Z" stroke="none"/>
            <path d="M 88.87265777587891 -50.6944580078125 C 88.47557067871094 -49.41405487060547 87.97686767578125 -47.46125793457031 87.97686767578125 -45.72954177856445 C 87.97686767578125 -43.28355407714844 88.99504089355469 -41.17980575561523 89.23946380615234 -40.71016693115234 L 91.46604919433594 -38.39268112182617 C 91.33384704589844 -39.98684692382812 91.20381927490234 -41.96842575073242 91.20381927490234 -43.59579086303711 C 91.20381927490234 -45.82676696777344 91.45132446289062 -47.37235641479492 91.62225341796875 -48.17370986938477 L 88.87265777587891 -50.6944580078125 M 88.42387390136719 -52.46253204345703 L 92.73472595214844 -48.51047134399414 C 92.73472595214844 -48.51047134399414 92.20381927490234 -46.81619262695312 92.20381927490234 -43.59579086303711 C 92.20381927490234 -40.37538146972656 92.73472595214844 -35.62884140014648 92.73472595214844 -35.62884140014648 L 88.42387390136719 -40.11568069458008 C 88.42387390136719 -40.11568069458008 86.97686767578125 -42.642822265625 86.97686767578125 -45.72954177856445 C 86.97686767578125 -48.81625366210938 88.42387390136719 -52.46253204345703 88.42387390136719 -52.46253204345703 Z" stroke="none" fill="#832df4"/>
          </g>
          <g id="Path_166-2" data-name="Path 166" transform="translate(233.038 24.489)" fill="#fff">
            <path d="M 0.3913582861423492 -6.899490356445312 C 0.1342923790216446 -8.101495742797852 -0.4973187446594238 -11.3111047744751 -0.4973187446594238 -13.82660865783691 C -0.4973187446594238 -16.30798721313477 0.115909680724144 -18.15557479858398 0.3637231290340424 -18.80076026916504 L 11.58064079284668 -20.25897789001465 L 11.58064079284668 -9.401327133178711 L 0.3913582861423492 -6.899490356445312 Z" stroke="none"/>
            <path d="M 11.08064079284668 -19.68976783752441 L 0.7282781600952148 -18.34394454956055 C 0.4593400955200195 -17.5699577331543 0.002681732177734375 -15.9438304901123 0.002681732177734375 -13.82660865783691 C 0.002681732177734375 -11.64632892608643 0.4892110824584961 -8.921201705932617 0.7774467468261719 -7.498161315917969 L 11.08064079284668 -9.801874160766602 L 11.08064079284668 -19.68976783752441 M 12.08064079284668 -20.82818984985352 L 12.08064079284668 -9.000778198242188 L 0.01148128509521484 -6.302207946777344 C 0.01148128509521484 -6.302207946777344 -0.9973182678222656 -10.58736801147461 -0.9973182678222656 -13.82660865783691 C -0.9973182678222656 -17.06584930419922 0.01148128509521484 -19.25917816162109 0.01148128509521484 -19.25917816162109 L 12.08064079284668 -20.82818984985352 Z" stroke="none" fill="#832df4"/>
          </g>
          <g id="Path_167-2" data-name="Path 167" transform="translate(231.741 -12.108)" fill="#fff">
            <path d="M 1.552533745765686 17.10560035705566 L -1.766298770904541 13.97453022003174 L 8.676400184631348 12.63004875183105 L 12.51726055145264 15.60015964508057 L 1.552533745765686 17.10560035705566 Z" stroke="none"/>
            <path d="M 8.534557342529297 13.15243148803711 L -0.6550045013427734 14.33557224273682 L 1.721577644348145 16.57769393920898 L 11.26887321472168 15.26686382293701 L 8.534557342529297 13.15243148803711 M 8.818210601806641 12.10766220092773 L 13.76560020446777 15.93345165252686 L 1.38347053527832 17.63350296020508 L -2.877629280090332 13.61348152160645 L 8.818210601806641 12.10766220092773 Z" stroke="none" fill="#832df4"/>
          </g>
          <g id="Path_176" data-name="Path 176" transform="translate(-8.197 194.884)" fill="#fff">
            <path d="M 176.9584655761719 181.634521484375 L 125.3764190673828 71.62651062011719 L 216.5202484130859 -43.25080871582031 L 245.6873321533203 -4.675086975097656 L 176.9584655761719 181.634521484375 Z" stroke="none"/>
            <path d="M 176.9033508300781 180.3392333984375 L 245.1235961914062 -4.591633796691895 L 216.5107269287109 -42.43436813354492 L 125.9606018066406 71.69464111328125 L 176.9033508300781 180.3392333984375 M 177.0135803222656 182.9297943115234 L 124.7922286987305 71.55835723876953 L 216.5297546386719 -44.0672607421875 L 246.2510528564453 -4.758556842803955 L 177.0135803222656 182.9297943115234 Z" stroke="none" fill="#832df4"/>
          </g>
          <g id="Path_178" data-name="Path 178" transform="translate(0.192 190.419)" fill="#fff">
            <path d="M 22.16410827636719 114.6238479614258 L 0.6075796484947205 114.6238479614258 L 23.30012130737305 -1.10213565826416 L 44.85666656494141 -1.10213565826416 L 22.16410827636719 114.6238479614258 Z" stroke="none"/>
            <path d="M 23.71158981323242 -0.6021499633789062 L 1.215122222900391 114.1238327026367 L 21.75263977050781 114.1238327026367 L 44.24909210205078 -0.6021499633789062 L 23.71158981323242 -0.6021499633789062 M 22.88863754272461 -1.602149963378906 L 45.4642219543457 -1.602149963378906 L 22.57559204101562 115.1238327026367 L -7.62939453125e-06 115.1238327026367 L 22.88863754272461 -1.602149963378906 Z" stroke="none" fill="#832df4"/>
          </g>
          <g id="Path_179" data-name="Path 179" transform="translate(9.476 323.623)" fill="#fff">
            <path d="M 153.6122894287109 84.69644165039062 L 29.97242736816406 84.69644165039062 L -8.756500244140625 -19.45193099975586 L 83.90540313720703 -19.45193099975586 L 153.6122894287109 84.69644165039062 Z" stroke="none"/>
            <path d="M -8.037139892578125 -18.95192718505859 L 30.3199462890625 84.19644165039062 L 152.6759643554688 84.19644165039062 L 83.63839721679688 -18.95192718505859 L -8.037139892578125 -18.95192718505859 M -9.475906372070312 -19.95192718505859 L 84.17240905761719 -19.95192718505859 L 154.5485687255859 85.19644165039062 L 29.62490844726562 85.19644165039062 L -9.475906372070312 -19.95192718505859 Z" stroke="none" fill="#832df4"/>
          </g>
          <g id="Path_177" data-name="Path 177" transform="translate(201.522 210.457)" fill="#fff">
            <path d="M -20.23320960998535 135.3151245117188 L 30.64977073669434 -4.12723970413208 L 94.62683868408203 -8.166613578796387 L 62.52949142456055 131.0003662109375 L -20.23320960998535 135.3151245117188 Z" stroke="none"/>
            <path d="M 93.35089111328125 -7.084075927734375 L 31.36510848999023 -3.170425415039062 L -18.77561950683594 134.2377777099609 L 61.72451019287109 130.0409698486328 L 93.35089111328125 -7.084075927734375 M 95.90275573730469 -9.249176025390625 L 63.33447265625 131.9597473144531 L -21.69086456298828 136.3924713134766 L 29.93441390991211 -5.084075927734375 L 95.90275573730469 -9.249176025390625 Z" stroke="none" fill="#832df4"/>
          </g>
          <g id="Path_182" data-name="Path 182" transform="translate(98.215 274.223)" fill="#fff">
            <path d="M 66.05860900878906 134.0967559814453 L -32.60675430297852 134.0967559814453 L -5.298601150512695 -5.042243480682373 L 65.77874755859375 23.6333179473877 C 66.58034515380859 25.08782958984375 72.87659454345703 36.61638641357422 79.09546661376953 50.99981307983398 C 82.98270416259766 59.99050521850586 86.07936096191406 68.3204345703125 88.29937744140625 75.75820922851562 C 91.06741333007812 85.03197479248047 92.47092437744141 92.92888641357422 92.47092437744141 99.22957611083984 C 92.47092437744141 105.4871215820312 91.08401489257812 111.2109069824219 88.34870147705078 116.241943359375 C 86.15919494628906 120.2690887451172 83.103759765625 123.8683242797852 79.26723480224609 126.9396820068359 C 73.05475616455078 131.9131011962891 66.75633239746094 133.8880615234375 66.05860900878906 134.0967559814453 Z" stroke="none"/>
            <path d="M -4.92449951171875 -4.3521728515625 L -31.99908447265625 133.5967559814453 L 65.98461151123047 133.5967559814453 C 66.92501068115234 133.30859375 72.99900054931641 131.3263092041016 78.98328399658203 126.5264892578125 C 82.76046752929688 123.4969253540039 85.76722717285156 119.9497756958008 87.92006683349609 115.9835586547852 C 90.60801696777344 111.0314483642578 91.97092437744141 105.3945922851562 91.97092437744141 99.22957611083984 C 91.97092437744141 92.9783935546875 90.57490539550781 85.13117980957031 87.82167053222656 75.9058837890625 C 85.60786437988281 68.48812103271484 82.518798828125 60.17816162109375 78.64026641845703 51.20687103271484 C 72.61270141601562 37.26473999023438 66.51126098632812 26.00711059570312 65.42645263671875 24.03031921386719 L -4.92449951171875 -4.3521728515625 M -5.672698974609375 -5.732330322265625 L 66.13041687011719 23.23601531982422 C 66.13041687011719 23.23601531982422 92.97092437744141 71.38938903808594 92.97092437744141 99.22957611083984 C 92.97092437744141 127.0697555541992 66.13041687011719 134.5967559814453 66.13041687011719 134.5967559814453 L -33.21442413330078 134.5967559814453 L -5.672698974609375 -5.732330322265625 Z" stroke="none" fill="#832df4"/>
          </g>
          <g id="Path_185" data-name="Path 185" transform="translate(38.919 269.213)" fill="#fff">
            <path d="M 26.89928817749023 139.1067657470703 L 0.6075676679611206 139.1067657470703 L 28.10093307495117 -1.102142810821533 L 54.39265441894531 -1.102142810821533 L 26.89928817749023 139.1067657470703 Z" stroke="none"/>
            <path d="M 28.51240730285645 -0.602142333984375 L 1.215129852294922 138.6067657470703 L 26.48781394958496 138.6067657470703 L 53.78509140014648 -0.602142333984375 L 28.51240730285645 -0.602142333984375 M 27.68945693969727 -1.602142333984375 L 55.00022125244141 -1.602142333984375 L 27.31076431274414 139.6067657470703 L 0 139.6067657470703 L 27.68945693969727 -1.602142333984375 Z" stroke="none" fill="#832df4"/>
          </g>
          <path id="Path_186" data-name="Path 186" d="M2.723,0H64.879L85.652,12l17.16,33.234,5.694,11.785L62.447,29.494,0,32.152Z" transform="translate(235.323 219.237) rotate(16)" fill="#fff" stroke="#832df4" stroke-width="2"/>
        </g>
        <g id="Path_174" data-name="Path 174" transform="matrix(0.966, 0, -0.058, 0.974, 402.346, 240.77)" fill="#fff">
          <path d="M 77.01839447021484 127.8612442016602 C 73.17076110839844 127.8612442016602 68.70762634277344 127.4529418945312 63.75297546386719 126.6476898193359 C 57.61870193481445 125.6507263183594 50.69569396972656 124.0371627807617 43.17518997192383 121.8515396118164 C 39.56162643432617 120.7261276245117 34.92893600463867 118.2998657226562 30.46441078186035 115.1944122314453 C 25.05527687072754 111.4318923950195 19.95030975341797 106.7514724731445 15.70139312744141 101.6591110229492 C 10.5562105178833 95.49259185791016 6.647976875305176 88.76325988769531 4.085259914398193 81.65802764892578 C 1.09062671661377 73.35526275634766 -0.03568995743989944 64.57660675048828 0.7375933527946472 55.56592559814453 C 1.136026740074158 50.92330932617188 2.05349326133728 46.44644165039062 3.464493274688721 42.25972747802734 C 4.767960071563721 38.39210891723633 6.524526596069336 34.67710876464844 8.685393333435059 31.21790885925293 C 12.45252704620361 25.18734359741211 17.54631042480469 19.75942611694336 23.82521057128906 15.08492565155029 C 28.72302627563477 11.43864250183105 34.35492706298828 8.236776351928711 40.56447601318359 5.568259239196777 C 44.62876129150391 3.821659326553345 48.77816009521484 2.360892772674561 53.24975967407227 1.102492809295654 C 54.67034149169922 0.702709436416626 56.53727722167969 0.5000094175338745 58.7986946105957 0.5000094175338745 C 64.28467559814453 0.5000094175338745 72.14681243896484 1.674459457397461 82.16665649414062 3.990759372711182 C 90.72194671630859 5.968025207519531 106.7683486938477 11.60024929046631 109.5293884277344 12.57741355895996 L 86.45868682861328 126.5623092651367 C 85.73987579345703 126.8712158203125 82.97072601318359 127.8612442016602 77.01839447021484 127.8612442016602 Z" stroke="none"/>
          <path d="M 58.79867935180664 1 C 56.58306121826172 1 54.76171875 1.1964111328125 53.38520812988281 1.583770751953125 C 48.9349365234375 2.836196899414062 44.80580902099609 4.289794921875 40.76187896728516 6.027633666992188 C 34.58817291259766 8.680740356445312 28.99031829833984 11.86299133300781 24.12378692626953 15.48599243164062 C 17.89502716064453 20.12316131591797 12.84346008300781 25.50526428222656 9.109443664550781 31.48281097412109 C 6.969192504882812 34.90902709960938 5.2293701171875 38.58863067626953 3.938316345214844 42.41941070556641 C 2.540046691894531 46.56830596923828 1.630775451660156 51.00582885742188 1.235771179199219 55.60868835449219 C 0.4686965942382812 64.54686737060547 1.585647583007812 73.25406646728516 4.555610656738281 81.48837280273438 C 7.098464965820312 88.53855895996094 10.97760772705078 95.21719360351562 16.08529663085938 101.3387908935547 C 20.30600738525391 106.3973236083984 25.376953125 111.0465774536133 30.74991607666016 114.783935546875 C 35.17233276367188 117.860107421875 39.75290679931641 120.2611694335938 43.31902694702148 121.3726501464844 C 50.81800079345703 123.5518264770508 57.7203483581543 125.1606903076172 63.83319091796875 126.1541595458984 C 68.76136779785156 126.9551239013672 73.19751739501953 127.3612289428711 77.01837158203125 127.3612289428711 C 82.35825347900391 127.3612289428711 85.07637023925781 126.5573196411133 86.02204132080078 126.1991729736328 L 108.9531097412109 12.90415954589844 C 105.2924041748047 11.61386108398438 90.22993469238281 6.367485046386719 82.05404663085938 4.4779052734375 C 72.07108306884766 2.170135498046875 64.24684143066406 1 58.79867935180664 1 M 58.79867935180664 0 C 65.30995941162109 0 74.20213317871094 1.636398315429688 82.27928161621094 3.503593444824219 C 91.75022888183594 5.692481994628906 110.1055145263672 12.25135803222656 110.1055145263672 12.25135803222656 L 86.89897155761719 126.9074096679688 C 86.89897155761719 126.9074096679688 84.31007385253906 128.3612365722656 77.01837158203125 128.3612365722656 C 70.27326965332031 128.3612365722656 59.50429534912109 127.1181564331055 43.03099060058594 122.330322265625 C 29.53138732910156 118.1291046142578 -3.108261108398438 94.53157043457031 0.2394256591796875 55.52317810058594 C 3.587120056152344 16.51479339599609 41.36598968505859 3.927413940429688 53.11431884765625 0.6211700439453125 C 54.65093612670898 0.1887359619140625 56.58779144287109 0 58.79867935180664 0 Z" stroke="none" fill="#832df4"/>
        </g>
        <g id="Ellipse_5" data-name="Ellipse 5" transform="matrix(0.965, 0.101, -0.152, 0.968, 446.616, 245.593)" fill="#fff" stroke="#832df4" stroke-width="1">
          <ellipse cx="54.622" cy="59.173" rx="54.622" ry="59.173" stroke="none"/>
          <ellipse cx="54.622" cy="59.173" rx="54.122" ry="58.673" fill="none"/>
        </g>
        <g id="Path_168" data-name="Path 168" transform="translate(289.434 72.128) rotate(16)" fill="#fff">
          <path d="M 5.584504127502441 96.96932220458984 C 4.255126476287842 96.85642242431641 3.291877269744873 95.16004943847656 2.71124529838562 93.72918701171875 C 2.021113872528076 92.02849578857422 1.709507822990417 90.28057098388672 1.644347786903381 89.88322448730469 C 1.615382194519043 88.43115997314453 1.298335313796997 71.64623260498047 1.712973833084106 53.87005996704102 C 1.966073870658875 43.01938629150391 2.438045263290405 33.93167495727539 3.115773916244507 26.85937309265137 C 4.149331092834473 16.07386016845703 5.478259563446045 11.96910190582275 6.411102294921875 10.42487335205078 C 8.387359619140625 7.15325927734375 11.06014537811279 4.747259140014648 14.35518836975098 3.273687839508057 C 16.98688888549805 2.09675931930542 20.02558898925781 1.500002145767212 23.38685989379883 1.500002145767212 C 27.3561897277832 1.500002145767212 30.7047061920166 2.335875272750854 32.11612701416016 2.74866771697998 L 52.80940246582031 74.9146728515625 L 52.83540344238281 75.00537109375 L 52.87257385253906 75.09208679199219 C 52.9498176574707 75.27234649658203 53.13072967529297 75.6944580078125 52.51320266723633 76.55758666992188 C 51.9444580078125 77.35256195068359 50.86897277832031 78.28305816650391 49.31660079956055 79.32322692871094 C 46.1327018737793 81.45665740966797 41.29724502563477 83.8409423828125 35.69827270507812 86.60171508789062 C 35.14564514160156 86.87419891357422 34.58573150634766 87.15029907226562 34.01931762695312 87.43013000488281 C 22.86454963684082 92.94107055664062 7.43310022354126 96.54833221435547 5.584504127502441 96.96932220458984 Z" stroke="none"/>
          <path d="M 23.38687324523926 2.999984741210938 C 20.2380256652832 2.999984741210938 17.40535736083984 3.552772521972656 14.96755599975586 4.642974853515625 C 11.95698928833008 5.989334106445312 9.510158538818359 8.195587158203125 7.695022583007812 11.20046997070312 C 6.997440338134766 12.35525512695312 5.668972015380859 15.94320678710938 4.609325408935547 26.99837493896484 C 3.935024261474609 34.0333366394043 3.465156555175781 43.08278656005859 3.212791442871094 53.89535522460938 C 2.807136535644531 71.27599334716797 3.1024169921875 87.71295928955078 3.141868591308594 89.74292755126953 C 3.226951599121094 90.23222351074219 3.521312713623047 91.75093841552734 4.117542266845703 93.20533752441406 C 4.707920074462891 94.64542388916016 5.284515380859375 95.26751708984375 5.584995269775391 95.42998504638672 C 8.449691772460938 94.76419067382812 22.85317039489746 91.27362823486328 33.35492324829102 86.08528900146484 C 33.92163848876953 85.80530548095703 34.48185729980469 85.52906799316406 35.03477478027344 85.25643920898438 C 39.82629013061523 82.89382171630859 43.96437454223633 80.85340118408203 47.02624130249023 79.00057220458984 C 48.52400588989258 78.09422302246094 49.67893981933594 77.27873992919922 50.45895767211914 76.57675170898438 C 51.07159042358398 76.02541351318359 51.32007217407227 75.66522216796875 51.41527557373047 75.49476623535156 L 51.36748886108398 75.32814025878906 L 30.9069938659668 3.973854064941406 C 29.31539154052734 3.564521789550781 26.54722785949707 2.999984741210938 23.38687324523926 2.999984741210938 M 23.38687705993652 -7.62939453125e-06 C 28.9506950378418 -7.62939453125e-06 33.33589172363281 1.560554504394531 33.33589172363281 1.560554504394531 L 54.25127410888672 74.501220703125 C 55.96760559082031 78.50600433349609 46.81529235839844 82.78145599365234 34.68372344970703 88.77495574951172 C 22.55218887329102 94.76847076416016 5.725074768066406 98.47527313232422 5.725074768066406 98.47527313232422 C 1.368007659912109 98.47525787353516 0.1467247009277344 90.01545715332031 0.1467247009277344 90.01545715332031 C 0.1467247009277344 90.01545715332031 -1.336257934570312 20.34899139404297 5.127174377441406 9.649284362792969 C 9.831260681152344 1.861885070800781 17.31157684326172 -7.62939453125e-06 23.38687705993652 -7.62939453125e-06 Z" stroke="none" fill="#832df4"/>
        </g>
        <g id="Path_170" data-name="Path 170" transform="translate(347.363 72.595)" fill="#fff">
          <path d="M 8.27381420135498 116.6201934814453 C 4.934909343719482 116.5906600952148 1.800069093704224 115.2765655517578 -0.5641659498214722 112.9123458862305 C -2.955532550811768 110.5209655761719 -4.272515773773193 107.3414840698242 -4.272515773773193 103.9595642089844 L -4.272515773773193 15.45199775695801 C -4.272515773773193 12.07009792327881 -2.955532550811768 8.890598297119141 -0.5641492605209351 6.499231338500977 C 1.82721734046936 4.107848167419434 5.00670051574707 2.790864706039429 8.388617515563965 2.790864706039429 L 8.498717308044434 2.790864706039429 L 8.607617378234863 2.774798154830933 L 49.42606353759766 -3.249443769454956 C 52.76797485351562 -3.221951723098755 55.90556716918945 -1.907651305198669 58.27170181274414 0.4584647715091705 C 60.66306686401367 2.849848031997681 61.98004913330078 6.029331207275391 61.98004913330078 9.411248207092285 L 61.98004913330078 97.47776794433594 C 61.98004913330078 100.8596801757812 60.66306686401367 104.0391616821289 58.27170181274414 106.430549621582 C 55.88031768798828 108.8219146728516 52.70083236694336 110.1389007568359 49.31891632080078 110.1389007568359 L 49.20088577270508 110.1389007568359 L 49.08430099487305 110.1573638916016 L 8.27381420135498 116.6201934814453 Z" stroke="none"/>
          <path d="M 49.52639770507812 -1.748016357421875 L 8.826637268066406 4.258705139160156 L 8.608798980712891 4.290855407714844 L 8.388618469238281 4.290855407714844 C 5.407363891601562 4.290855407714844 2.604564666748047 5.451812744140625 0.496490478515625 7.559867858886719 C -1.611564636230469 9.667945861816406 -2.772525787353516 12.47074127197266 -2.772525787353516 15.45199584960938 L -2.772525787353516 103.9595642089844 C -2.772525787353516 106.9408187866211 -1.611564636230469 109.7436141967773 0.496490478515625 111.8516693115234 C 2.552066802978516 113.9072265625 5.268157958984375 115.0622787475586 8.166194915771484 115.1185302734375 L 48.84967041015625 108.6758346557617 L 49.08283615112305 108.6389083862305 L 49.31890869140625 108.6389083862305 C 52.30016326904297 108.6389083862305 55.10296249389648 107.4779434204102 57.21103668212891 105.3698883056641 C 59.319091796875 103.2618179321289 60.48005294799805 100.4590148925781 60.48005294799805 97.47776031494141 L 60.48005294799805 9.411231994628906 C 60.48005294799805 6.429977416992188 59.319091796875 3.627182006835938 57.21103668212891 1.519126892089844 C 55.15198516845703 -0.5399093627929688 52.4299430847168 -1.695388793945312 49.52639770507812 -1.748016357421875 M 49.31890869140625 -4.749893188476562 C 57.139892578125 -4.749893188476562 63.48005294799805 1.590255737304688 63.48005294799805 9.411231994628906 L 63.48005294799805 97.47776031494141 C 63.48005294799805 105.2987442016602 57.139892578125 111.6389083862305 49.31890869140625 111.6389083862305 L 8.388618469238281 118.1206893920898 C 0.5676345825195312 118.1206893920898 -5.772525787353516 111.7805404663086 -5.772525787353516 103.9595642089844 L -5.772525787353516 15.45199584960938 C -5.772525787353516 7.631019592285156 0.5676345825195312 1.290855407714844 8.388618469238281 1.290855407714844 L 49.31890869140625 -4.749893188476562 Z" stroke="none" fill="#832df4"/>
        </g>
        <path id="Path_180" data-name="Path 180" d="M45.256.186-39.818,91" transform="translate(186.795 203.642)" fill="none" stroke="#832df4" stroke-width="14"/>
        <path id="Path_181" data-name="Path 181" d="M152.224,1.057,59.215,73.007" transform="translate(60.72 178.364)" fill="none" stroke="#832df4" stroke-width="10"/>
        <g id="Path_171" data-name="Path 171" transform="translate(360.579 217.979)" fill="#fff">
          <path d="M 1.000006318092346 131.6950988769531 L 1.000006318092346 -2.885056734085083 L 204.3525390625 -27.3729248046875 L 204.3525390625 103.1682205200195 L 182.4221954345703 107.0376281738281 L 182.4221954345703 42.91723251342773 L 182.4221954345703 42.16383743286133 L 181.6980285644531 41.95602035522461 L 119.9334564208984 24.23159980773926 L 119.5258483886719 24.11462593078613 L 119.1584014892578 24.32633590698242 L 60.22724151611328 58.27799224853516 L 59.7264518737793 58.56649398803711 L 59.7264518737793 59.14446640014648 L 59.7264518737793 123.9410858154297 L 1.000006318092346 131.6950988769531 Z" stroke="none"/>
          <path d="M 203.3525543212891 -26.2452392578125 L 1.999984741210938 -1.99822998046875 L 1.999984741210938 130.5543823242188 L 58.72647094726562 123.0644607543945 L 58.72647094726562 59.14448547363281 L 58.72647094726562 57.98857116699219 L 59.72804260253906 57.41151428222656 L 118.6591873168945 23.45984649658203 L 119.3940734863281 23.03648376464844 L 120.2092666625977 23.27040100097656 L 181.9738464355469 40.99481964111328 L 183.4221801757812 41.41045761108398 L 183.4221801757812 42.917236328125 L 183.4221801757812 105.8457336425781 L 203.3525543212891 102.3291931152344 L 203.3525543212891 -26.2452392578125 M 205.3525543212891 -28.50053405761719 L 205.3525543212891 104.007209777832 L 181.4221801757812 108.2295150756836 L 181.4221801757812 42.917236328125 L 119.657600402832 25.19281768798828 L 60.72647094726562 59.14448547363281 L 60.72647094726562 124.8177337646484 L -1.52587890625e-05 132.8357849121094 L -1.52587890625e-05 -3.7718505859375 L 205.3525543212891 -28.50053405761719 Z" stroke="none" fill="#832df4"/>
        </g>
        <g id="Rectangle_9" data-name="Rectangle 9" transform="translate(130.936 296.402) rotate(-45)" fill="#fff" stroke="#832df4" stroke-width="1">
          <rect width="34.391" height="18.207" stroke="none"/>
          <rect x="0.5" y="0.5" width="33.391" height="17.207" fill="none"/>
        </g>
        <g id="Rectangle_10" data-name="Rectangle 10" transform="translate(108.535 250.764) rotate(-34)" fill="#fff" stroke="#832df4" stroke-width="1">
          <rect width="26.299" height="13.15" stroke="none"/>
          <rect x="0.5" y="0.5" width="25.299" height="12.15" fill="none"/>
        </g>
        <line id="Line_3" data-name="Line 3" x2="18.207" y2="28.322" transform="translate(110.183 265.875) rotate(-11)" fill="none" stroke="#832df4" stroke-width="7" opacity="0.996"/>
        <g id="Path_188" data-name="Path 188" transform="matrix(0.839, -0.545, 0.545, 0.839, 89.437, 260.646)" fill="#fff">
          <path d="M 30.64043235778809 17.24101448059082 L 5.877597808837891 17.24101448059082 C 5.591633319854736 17.13958930969238 4.365991115570068 16.65691184997559 3.170392513275146 15.4632043838501 C 2.377382516860962 14.67146396636963 1.750112414360046 13.72356414794922 1.306002497673035 12.64583396911621 C 0.7467024326324463 11.28860473632812 0.4760924577713013 9.716854095458984 0.501682460308075 7.974244117736816 C 0.5271324515342712 6.240214347839355 0.8258224725723267 4.768464088439941 1.389432430267334 3.599884271621704 C 1.830032467842102 2.68636417388916 2.434272527694702 1.954124331474304 3.185372352600098 1.423514246940613 C 4.474892616271973 0.5125243067741394 5.781902313232422 0.5000243186950684 5.794952392578125 0.5000042915344238 L 30.64043235778809 0.5000042915344238 L 30.64043235778809 9.371034622192383 L 30.64043235778809 17.24101448059082 Z" stroke="none"/>
          <path d="M 5.797100067138672 1.000003814697266 C 5.763191223144531 1.000595092773438 4.583774566650391 1.02940559387207 3.433551788330078 1.86069393157959 C 1.862800598144531 2.995914459228516 1.044582366943359 5.05527400970459 1.001621246337891 7.981584548950195 C 0.9576816558837891 10.97467422485352 1.794450759887695 13.36099433898926 3.488712310791016 15.07425403594971 C 4.535345077514648 16.13262557983398 5.611682891845703 16.60482978820801 5.966911315917969 16.74101448059082 L 30.14043235778809 16.74101448059082 L 30.14043235778809 9.371034622192383 L 30.14043235778809 1.000003814697266 L 5.797100067138672 1.000003814697266 M 5.794879913330078 1.9073486328125e-06 C 5.795713424682617 1.9073486328125e-06 5.796121597290039 3.814697265625e-06 5.796121597290039 3.814697265625e-06 L 31.14043235778809 3.814697265625e-06 L 31.14043235778809 9.371034622192383 L 31.14043235778809 17.74101448059082 L 5.796121597290039 17.74101448059082 C 5.796121597290039 17.74101448059082 -0.1157493591308594 15.96836471557617 0.00173187255859375 7.966904640197754 C 0.1181907653808594 0.03431510925292969 5.698835372924805 1.9073486328125e-06 5.794879913330078 1.9073486328125e-06 Z" stroke="none" fill="#832df4"/>
        </g>
      </g>
      <g id="Path_173" data-name="Path 173" transform="translate(1599.742 202.484)" fill="#fff">
        <path d="M -35.97111892700195 76.74913024902344 L -35.97111892700195 5.989835262298584 L 27.64428901672363 -0.3832246065139771 L 111.0450439453125 57.94566345214844 L -35.97111892700195 76.74913024902344 Z" stroke="none"/>
        <path d="M 27.50966262817383 0.1327743530273438 L -35.47113800048828 6.4422607421875 L -35.47113800048828 76.18110656738281 L 109.6981735229492 57.61385345458984 L 27.50966262817383 0.1327743530273438 M 27.7789421081543 -0.8992080688476562 L 112.3918762207031 58.27747344970703 L -36.47113800048828 77.31715393066406 L -36.47113800048828 5.537429809570312 L 27.7789421081543 -0.8992080688476562 Z" stroke="none" fill="#832df4"/>
      </g>
      <g id="Ellipse_6" data-name="Ellipse 6" transform="matrix(0.966, 0.259, -0.259, 0.966, 1611.379, 325.984)" fill="#fff" stroke="#832df4" stroke-width="1">
        <ellipse cx="38.943" cy="43.495" rx="38.943" ry="43.495" stroke="none"/>
        <ellipse cx="38.943" cy="43.495" rx="38.443" ry="42.995" fill="none"/>
      </g>
      <g id="Path_175" data-name="Path 175" transform="matrix(0.941, 0.235, -0.289, 0.932, 1358.826, 341.783)" fill="#fff">
        <path d="M 70.87790679931641 124.3632965087891 C 67.34067535400391 124.3632965087891 63.23702239990234 123.9664459228516 58.68093872070312 123.1837463378906 C 53.03865051269531 122.2144470214844 46.67007064819336 120.6454391479492 39.75209808349609 118.5203247070312 C 36.43171310424805 117.42724609375 32.17377090454102 115.0697708129883 28.06899070739746 112.0517272949219 C 23.09344100952148 108.3934631347656 18.39745712280273 103.8424301147461 14.48870658874512 98.890625 C 9.754456520080566 92.89305877685547 6.15824031829834 86.34767913818359 3.799923658370972 79.43632507324219 C 1.043590188026428 71.35851287841797 0.006906884722411633 62.81751251220703 0.7187069058418274 54.05059432983398 C 1.425040245056152 45.35076141357422 3.885973453521729 37.38141250610352 8.033123970031738 30.36391258239746 C 11.4987735748291 24.49959564208984 16.18450736999512 19.22164535522461 21.96012306213379 14.67666244506836 C 26.46474075317383 11.13184547424316 31.64448928833008 8.019111633300781 37.35547256469727 5.424895286560059 C 41.09340667724609 3.726962089538574 44.90960693359375 2.306878566741943 49.02219009399414 1.0835120677948 C 50.32379150390625 0.6963286995887756 52.03583908081055 0.4999953508377075 54.11080551147461 0.4999953508377075 C 59.15427398681641 0.4999953508377075 66.38450622558594 1.641845345497131 75.60065460205078 3.893845319747925 C 83.45231628417969 5.811960220336914 98.16547393798828 11.26839447021484 100.7566986083984 12.23753547668457 L 79.52629852294922 123.1114654541016 C 78.85159301757812 123.4151992797852 76.30947875976562 124.3632965087891 70.87790679931641 124.3632965087891 Z" stroke="none"/>
        <path d="M 54.11077499389648 0.9999923706054688 C 52.08412170410156 0.9999923706054688 50.42004013061523 1.1893310546875 49.16474151611328 1.562728881835938 C 45.0743408203125 2.779510498046875 41.27914047241211 4.191726684570312 37.56227493286133 5.880126953125 C 31.88775634765625 8.457763671875 26.74246978759766 11.54954528808594 22.26932525634766 15.069580078125 C 16.54254150390625 19.57614898681641 11.89762115478516 24.80747985839844 8.463577270507812 30.61829376220703 C 4.355293273925781 37.57001495361328 1.917221069335938 45.46737670898438 1.217056274414062 54.09104156494141 C 0.5108566284179688 62.78924560546875 1.539054870605469 71.26229858398438 4.273124694824219 79.27485656738281 C 6.613075256347656 86.13241577148438 10.18213653564453 92.62788391113281 14.88117218017578 98.58082580566406 C 18.76254272460938 103.4979248046875 23.42522430419922 108.0167999267578 28.36517333984375 111.6488800048828 C 32.42716979980469 114.6354751586914 36.63185119628906 116.9658126831055 39.90346908569336 118.0437698364258 C 46.79917907714844 120.1618576049805 53.14560317993164 121.7255020141602 58.76557540893555 122.6909637451172 C 63.29373931884766 123.468864440918 67.36890411376953 123.8632965087891 70.87785339355469 123.8632965087891 C 75.71693420410156 123.8632965087891 78.20101165771484 123.1030731201172 79.08560180664062 122.75439453125 L 100.1861877441406 12.55831146240234 C 96.75579071044922 11.28067016601562 82.97370910644531 6.209739685058594 75.48197174072266 4.379547119140625 C 66.30464172363281 2.137046813964844 59.11434173583984 0.9999923706054688 54.11077499389648 0.9999923706054688 M 54.11077117919922 -7.62939453125e-06 C 60.10293197631836 -7.62939453125e-06 68.28617095947266 1.591819763183594 75.71933746337891 3.408126831054688 C 84.43518829345703 5.537361145019531 101.3270568847656 11.91749572753906 101.3270568847656 11.91749572753906 L 79.97074127197266 123.4490814208984 C 79.97074127197266 123.4490814208984 77.58822631835938 124.8632888793945 70.87786865234375 124.8632888793945 C 64.6705322265625 124.8632888793945 54.76014709472656 123.6540908813477 39.60022354125977 118.9967269897461 C 27.17692565917969 114.9099960327148 -2.860458374023438 91.95551300048828 0.2203369140625 54.0101318359375 C 3.301124572753906 16.06475830078125 38.06798934936523 3.820381164550781 48.87962341308594 0.604248046875 C 50.29373550415039 0.18359375 52.07615280151367 -7.62939453125e-06 54.11077117919922 -7.62939453125e-06 Z" stroke="none" fill="#832df4"/>
      </g>
      <g id="Ellipse_7" data-name="Ellipse 7" transform="matrix(0.912, 0.332, -0.382, 0.902, 1384.586, 348.691)" fill="#fff" stroke="#832df4" stroke-width="1">
        <ellipse cx="54.622" cy="59.173" rx="54.622" ry="59.173" stroke="none"/>
        <ellipse cx="54.622" cy="59.173" rx="54.122" ry="58.673" fill="none"/>
      </g>
      <g id="Ellipse_8" data-name="Ellipse 8" transform="matrix(0.856, 0.514, -0.515, 0.857, 1402.591, 361.87)" fill="#fff" stroke="#832df4" stroke-width="1">
        <ellipse cx="38.943" cy="43.495" rx="38.943" ry="43.495" stroke="none"/>
        <ellipse cx="38.943" cy="43.495" rx="38.443" ry="42.995" fill="none"/>
      </g>
      <g id="Path_184" data-name="Path 184" transform="translate(1193.27 282.377)" fill="#fff">
        <path d="M 116.2407455444336 105.9373016357422 L 48.41947174072266 77.67636108398438 L 48.33967208862305 77.64310455322266 L 48.25332641601562 77.63858032226562 L 21.01794815063477 76.21006774902344 L -22.17074394226074 -1.808622479438782 L -0.3514400720596313 -1.808622479438782 L 58.82128143310547 22.62661361694336 L 116.2407455444336 105.9373016357422 Z" stroke="none"/>
        <path d="M -21.32248687744141 -1.308624267578125 L 21.32105255126953 75.72526550292969 L 48.27951812744141 77.13925170898438 L 48.45217514038086 77.14832305908203 L 48.61177444458008 77.21481323242188 L 114.8650512695312 104.822380065918 L 58.49359893798828 23.03225708007812 L -0.4506301879882812 -1.308624267578125 L -21.32248687744141 -1.308624267578125 M -23.01904296875 -2.308624267578125 L -0.2522811889648438 -2.308624267578125 L 59.14895629882812 22.22097778320312 L 117.6164093017578 107.0522155761719 L 48.22713851928711 78.13788604736328 L 20.71479034423828 76.69485473632812 L -23.01904296875 -2.308624267578125 Z" stroke="none" fill="#832df4"/>
      </g>
      <g id="Path_189" data-name="Path 189" transform="translate(1353.142 279.328) rotate(-30)" fill="#fff">
        <path d="M 5.100192546844482 22.01926612854004 C 4.2010817527771 21.02676582336426 0.4999993741512299 16.70986938476562 0.4999993741512299 12.91811752319336 C 0.4999993741512299 8.973997116088867 4.523357391357422 5.377998352050781 5.164559364318848 4.830258846282959 L 23.50564002990723 0.6092475056648254 L 25.81480598449707 16.75011825561523 L 5.100192546844482 22.01926612854004 Z" stroke="none"/>
        <path d="M 23.08771324157715 1.218507766723633 L 5.396722793579102 5.289907455444336 C 5.035556793212891 5.604890823364258 4.14532470703125 6.422096252441406 3.253528594970703 7.555487632751465 C 2.225479125976562 8.862037658691406 1 10.85298728942871 1 12.91811752319336 C 1 14.57338714599609 1.78849983215332 16.63176727294922 3.28026008605957 18.87073707580566 C 4.046924591064453 20.02142333984375 4.823078155517578 20.95180511474609 5.270475387573242 21.46002769470215 L 25.25623321533203 16.37627792358398 L 23.08771324157715 1.218507766723633 M 23.92356872558594 -1.9073486328125e-06 L 26.37337875366211 17.12395858764648 L 4.935279846191406 22.5771369934082 C 4.935279846191406 22.5771369934082 0 17.46991729736328 0 12.91811752319336 C 0 8.366327285766602 4.935279846191406 4.369956970214844 4.935279846191406 4.369956970214844 L 23.92356872558594 -1.9073486328125e-06 Z" stroke="none" fill="#832df4"/>
      </g>
      <g id="Path_190" data-name="Path 190" transform="matrix(0.899, -0.438, 0.438, 0.899, 1333.655, 252.765)" fill="#fff">
        <path d="M 4.685199737548828 19.3333568572998 C 3.869495630264282 18.43313789367676 0.500001847743988 14.50505256652832 0.500001847743988 11.0608606338501 C 0.500001847743988 7.519397258758545 4.081053733825684 4.282752990722656 4.719614505767822 3.734027147293091 L 23.22833442687988 0.5735155940055847 L 26.48032188415527 15.69848155975342 L 4.685199737548828 19.3333568572998 Z" stroke="none"/>
        <path d="M 22.8402156829834 1.14702033996582 L 4.941246032714844 4.203413009643555 C 4.593105316162109 4.509971618652344 3.816005706787109 5.233415603637695 3.036642074584961 6.223920822143555 C 1.353342056274414 8.36323070526123 1.000001907348633 10.03507041931152 1.000001907348633 11.0608606338501 C 1.000001907348633 14.11946582794189 3.865737915039062 17.64773750305176 4.874578475952148 18.79486656188965 L 25.88138198852539 15.29146194458008 L 22.8402156829834 1.14702033996582 M 23.61645126342773 0 L 27.07926177978516 16.10550117492676 L 4.501501083374023 19.87090110778809 C 4.501501083374023 19.87090110778809 1.9073486328125e-06 15.21258068084717 1.9073486328125e-06 11.0608606338501 C 1.9073486328125e-06 6.909140586853027 4.501501083374023 3.264030456542969 4.501501083374023 3.264030456542969 L 23.61645126342773 0 Z" stroke="none" fill="#832df4"/>
      </g>
      <path id="Path_192" data-name="Path 192" d="M32.337,60.56,2.735,11.337" transform="translate(1266.901 294.166)" fill="none" stroke="#832df4" stroke-width="5"/>
      <line id="Line_5" data-name="Line 5" x1="32.368" y2="29.334" transform="translate(1240.57 306.174)" fill="none" stroke="#832df4" stroke-width="5"/>
      <path id="Path_193" data-name="Path 193" d="M28.552,54.267,2.735,11.337" transform="translate(1242.955 265.057)" fill="none" stroke="#832df4" stroke-width="5"/>
      <g id="Rectangle_12" data-name="Rectangle 12" transform="matrix(0.799, -0.602, 0.602, 0.799, 1264.646, 319.742)" fill="#fff" stroke="#832df4" stroke-width="1">
        <rect width="11.127" height="6.069" stroke="none"/>
        <rect x="0.5" y="0.5" width="10.127" height="5.069" fill="none"/>
      </g>
      <path id="Path_194" data-name="Path 194" d="M28.023.507,0,25.578" transform="translate(1220.34 276.984)" fill="none" stroke="#832df4" stroke-width="5"/>
      <g id="Ellipse_9" data-name="Ellipse 9" transform="translate(1241.076 274.311)" fill="#fff" stroke="#832df4" stroke-width="1">
        <circle cx="4.552" cy="4.552" r="4.552" stroke="none"/>
        <circle cx="4.552" cy="4.552" r="4.052" fill="none"/>
      </g>
      <g id="Ellipse_10" data-name="Ellipse 10" transform="translate(1266.364 303.645)" fill="#fff" stroke="#832df4" stroke-width="1">
        <circle cx="4.552" cy="4.552" r="4.552" stroke="none"/>
        <circle cx="4.552" cy="4.552" r="4.052" fill="none"/>
      </g>
      <g id="Rectangle_11" data-name="Rectangle 11" transform="translate(1293.048 356.592) rotate(-41)" fill="#fff" stroke="#832df4" stroke-width="1">
        <rect width="11.127" height="6.069" stroke="none"/>
        <rect x="0.5" y="0.5" width="10.127" height="5.069" fill="none"/>
      </g>
      <g id="Rectangle_13" data-name="Rectangle 13" transform="translate(1236.018 324.887)" fill="#fff" stroke="#832df4" stroke-width="1">
        <rect width="14.161" height="15.173" stroke="none"/>
        <rect x="0.5" y="0.5" width="13.161" height="14.173" fill="none"/>
      </g>
      <g id="Path_195" data-name="Path 195" transform="translate(1229.989 324.848)" fill="#fff">
        <path d="M 5.529738903045654 13.3537483215332 L 3.916319131851196 10.57378387451172 L 3.916319131851196 -1.892342090606689 L 5.529738903045654 0.2085574716329575 L 5.529738903045654 13.3537483215332 Z" stroke="none"/>
        <path d="M 4.416319370269775 -0.4203548431396484 L 4.416319370269775 10.43921184539795 L 5.029738903045654 11.49615001678467 L 5.029738903045654 0.3784036636352539 L 4.416319370269775 -0.4203548431396484 M 3.416319370269775 -3.364315986633301 L 6.029739379882812 0.03872394561767578 L 6.029739379882812 15.21136379241943 L 3.416319370269775 10.7083740234375 L 3.416319370269775 -3.364315986633301 Z" stroke="none" fill="#832df4"/>
      </g>
      <g id="Path_196" data-name="Path 196" transform="translate(1239.99 320.85)" fill="#fff">
        <path d="M -3.623298645019531 4.541135787963867 L -5.553824424743652 1.337695837020874 L 4.423116207122803 1.684760570526123 L 8.32878303527832 4.241001129150391 L -3.623298645019531 4.541135787963867 Z" stroke="none"/>
        <path d="M -4.649594306945801 1.869455814361572 L -3.345152378082275 4.033995628356934 L 6.713541984558105 3.781407356262207 L 4.266156673431396 2.179605484008789 L -4.649594306945801 1.869455814361572 M -6.458065032958984 0.8059358596801758 L 4.580065250396729 1.189915657043457 L 9.944015502929688 4.700595855712891 L -3.901454925537109 5.048275470733643 L -6.458065032958984 0.8059358596801758 Z" stroke="none" fill="#832df4"/>
      </g>
      <g id="Rectangle_14" data-name="Rectangle 14" transform="translate(1213.765 296.565)" fill="#fff" stroke="#832df4" stroke-width="1">
        <rect width="11.127" height="12.138" stroke="none"/>
        <rect x="0.5" y="0.5" width="10.127" height="11.138" fill="none"/>
      </g>
      <g id="Path_198" data-name="Path 198" transform="translate(1218.295 293.248)" fill="#fff">
        <path d="M 5.466441631317139 3.742301940917969 L -3.623620748519897 3.742301940917969 L -5.433910369873047 1.335697889328003 L 2.658096313476562 1.569175124168396 L 5.466441631317139 3.742301940917969 Z" stroke="none"/>
        <path d="M -4.409751892089844 1.865453720092773 L -3.374062538146973 3.242301940917969 L 4.00328254699707 3.242301940917969 L 2.480902671813965 2.064268589019775 L -4.409751892089844 1.865453720092773 M -6.458065509796143 0.8059420585632324 L 2.835304498672485 1.074081897735596 L 6.929614543914795 4.242301940917969 L -3.873175621032715 4.242301940917969 L -6.458065509796143 0.8059420585632324 Z" stroke="none" fill="#832df4"/>
      </g>
      <g id="Path_197" data-name="Path 197" transform="translate(1208.317 297.279)" fill="#fff">
        <path d="M 5.033237934112549 9.824708938598633 L 3.916317701339722 7.900230884552002 L 3.916317701339722 -1.892348170280457 L 5.033237934112549 -0.4379652142524719 L 5.033237934112549 9.824708938598633 Z" stroke="none"/>
        <path d="M 4.416317462921143 -0.4203643798828125 L 4.416317462921143 7.765658378601074 L 4.533237934112549 7.967113971710205 L 4.533237934112549 -0.2681179046630859 L 4.416317462921143 -0.4203643798828125 M 3.416317462921143 -3.36431884765625 L 5.533237457275391 -0.6077995300292969 L 5.533237457275391 11.6823205947876 L 3.416317462921143 8.034820556640625 L 3.416317462921143 -3.36431884765625 Z" stroke="none" fill="#832df4"/>
      </g>
      <g id="Ellipse_19" data-name="Ellipse 19" transform="matrix(0.97, 0.242, -0.242, 0.97, 1619.111, 343.731)" fill="#fff" stroke="#832df4" stroke-width="2">
        <ellipse cx="26.805" cy="29.84" rx="26.805" ry="29.84" stroke="none"/>
        <ellipse cx="26.805" cy="29.84" rx="25.805" ry="28.84" fill="none"/>
      </g>
      <g id="Ellipse_20" data-name="Ellipse 20" transform="matrix(0.856, 0.514, -0.515, 0.857, 1406.685, 378.996)" fill="#fff" stroke="#832df4" stroke-width="2">
        <ellipse cx="27.817" cy="30.345" rx="27.817" ry="30.345" stroke="none"/>
        <ellipse cx="27.817" cy="30.345" rx="26.817" ry="29.345" fill="none"/>
      </g>
      <g id="Group_130" data-name="Group 130" transform="translate(1599.604 150.662)">
        <g id="Path_224" data-name="Path 224" transform="translate(2.31 7.269)" fill="#fff">
          <path d="M 11.78670120239258 62.87577056884766 C 4.395632266998291 62.87577056884766 1.145128607749939 59.70114517211914 0.5156086087226868 58.99701309204102 L 5.460505485534668 0.5000008344650269 L 18.49215507507324 0.5000008344650269 L 23.35495185852051 58.99330902099609 C 23.07494354248047 59.29948425292969 22.28906440734863 60.0733528137207 20.8830509185791 60.84316253662109 C 19.21616172790527 61.75580215454102 16.31197166442871 62.84918975830078 11.94245147705078 62.87530136108398 C 11.89066123962402 62.8756103515625 11.83809089660645 62.87577056884766 11.78670120239258 62.87577056884766 Z" stroke="none"/>
          <path d="M 5.920019149780273 1 L 1.032617568969727 58.81697463989258 C 1.374271392822266 59.16676712036133 2.095129013061523 59.81597137451172 3.265060424804688 60.45925140380859 C 6.145931243896484 62.04327011108398 9.48927116394043 62.37577056884766 11.78670120239258 62.37577056884766 C 11.83708095550537 62.37577056884766 11.88861083984375 62.3756217956543 11.93946170806885 62.37531280517578 C 16.16702079772949 62.35004043579102 18.97399139404297 61.30702209472656 20.58432197570801 60.43648147583008 C 21.76465225219727 59.79839324951172 22.49181747436523 59.15740966796875 22.83802032470703 58.81038284301758 L 18.03199768066406 1 L 5.920019149780273 1 M 5.000980377197266 0 L 18.95231246948242 0 L 23.87058067321777 59.16057968139648 C 23.87058067321777 59.16057968139648 20.68072128295898 63.32308959960938 11.94544124603271 63.37528991699219 C 11.89265823364258 63.37560653686523 11.83908176422119 63.37576675415039 11.78670120239258 63.37576675415039 C 3.170497894287109 63.37576675415039 1.9073486328125e-06 59.16057968139648 1.9073486328125e-06 59.16057968139648 L 5.000980377197266 0 Z" stroke="none" fill="#832df4"/>
        </g>
        <g id="Rectangle_17" data-name="Rectangle 17" fill="none" stroke="#832df4" stroke-width="1">
          <rect width="28.491" height="8.34" stroke="none"/>
          <rect x="0.5" y="0.5" width="27.491" height="7.34" fill="none"/>
        </g>
      </g>
    </g>
  </g>
</svg>
