<?xml version="1.0" encoding="UTF-8" standalone="no"?>
<svg
   width="1920"
   height="1080"
   viewBox="0 0 1920 1080"
   version="1.1"
   id="svg47"
   sodipodi:docname="logo.svg"
   inkscape:version="1.1.1 (3bf5ae0d25, 2021-09-20)"
   xmlns:inkscape="http://www.inkscape.org/namespaces/inkscape"
   xmlns:sodipodi="http://sodipodi.sourceforge.net/DTD/sodipodi-0.dtd"
   xmlns="http://www.w3.org/2000/svg"
   xmlns:svg="http://www.w3.org/2000/svg">
  <sodipodi:namedview
     id="namedview49"
     pagecolor="#ffffff"
     bordercolor="#666666"
     borderopacity="1.0"
     inkscape:pageshadow="2"
     inkscape:pageopacity="0.0"
     inkscape:pagecheckerboard="0"
     showgrid="false"
     width="1920px"
     inkscape:zoom="0.21694886"
     inkscape:cx="1339.0253"
     inkscape:cy="-719.06348"
     inkscape:window-width="1440"
     inkscape:window-height="2523"
     inkscape:window-x="262"
     inkscape:window-y="0"
     inkscape:window-maximized="1"
     inkscape:current-layer="svg47" />
  <defs
     id="defs5">
    <clipPath
       id="a">
      <path
         d="M 0,0 H 1080 V 1080 H 0 Z"
         id="path2" />
    </clipPath>
  </defs>
  <g
     data-name="Group 198"
     clip-path="url(#a)"
     id="g45"
     transform="translate(417.9285)">
    <path
       data-name="Path 1037 - Outline"
       d="m 984.98,1044 h -13.3 l -18.161,-39.082 h -68 L 867.355,1044 h -13.3 l 60.873,-130.439 h 9.181 z m -93.739,-51.139 h 56.554 L 919.519,932.137 Z M 849.166,1044 H 837.109 V 931.668 l -56.572,56.422 -56.4,-56.4 V 1044 H 712.074 V 913.561 h 10.939 l 57.529,57.686 57.689,-57.686 h 10.935 z m -220.089,0 a 65.035,65.035 0 0 1 -65.22,-65.219 65.035,65.035 0 0 1 65.217,-65.22 65.386,65.386 0 0 1 25.464,5.1 65.131,65.131 0 0 1 39.917,60.117 65.131,65.131 0 0 1 -39.917,60.117 65.386,65.386 0 0 1 -25.464,5.105 z m 0,-118.544 a 53.039,53.039 0 0 0 -53.325,53.325 53.406,53.406 0 1 0 106.812,0 53.177,53.177 0 0 0 -53.49,-53.325 z M 549.945,1044 h -13.9 L 507.338,994.211 H 479.587 V 1044 H 467.692 V 913.561 h 45.435 a 40.118,40.118 0 0 1 28.536,11.872 40.117,40.117 0 0 1 11.872,28.536 39.858,39.858 0 0 1 -11.68,28.262 40.392,40.392 0 0 1 -21.041,11.243 z m -70.358,-61.68 h 33.523 a 28.429,28.429 0 0 0 19.894,-8.343 28.059,28.059 0 0 0 8.312,-20.008 28.586,28.586 0 0 0 -28.206,-28.513 H 479.587 Z M 385.502,1044 H 335.526 V 913.561 h 50.159 a 65.427,65.427 0 0 1 65.036,65.219 65.319,65.319 0 0 1 -39.838,60.09 64.767,64.767 0 0 1 -25.382,5.13 z m -37.919,-12.057 h 37.591 a 53.163,53.163 0 1 0 0,-106.325 H 347.583 Z M 327.716,1044 h -13.3 l -18.161,-39.082 h -68 L 210.091,1044 h -13.3 l 60.873,-130.439 h 9.181 z m -93.742,-51.139 h 56.554 L 262.254,932.137 Z M 128.657,1044 H 116.762 V 913.561 h 84.546 v 12.057 h -72.651 v 45.675 h 67.623 v 12.056 h -67.623 z"
       fill="#65b34c"
       id="path7" />
    <g
       data-name="Group 196"
       id="g43">
      <path
         data-name="Subtraction 11"
         d="m 353.66,852.141 -0.206,-0.27 164.708,-24.255 24.1,-115.029 a 127.984,127.984 0 0 0 7.708,34.139 114.458,114.458 0 0 0 16.407,29.594 101.9,101.9 0 0 0 12.514,13.511 91.652,91.652 0 0 0 14.428,10.617 83.329,83.329 0 0 0 16.016,7.339 78.491,78.491 0 0 0 17.287,3.678 z m -3.873,-5.1 L 135.871,565.2 V 112.847 l 351.9,-48.12 -62.928,9.405 209.472,85.238 v 46.92 l -1.3,0.317 -0.166,2.129 -7.3,-3.255 6.654,2.815 v -48.38 L 429.903,77.97 v 44.7 l 22.884,9.685 -114.461,321.05 -36.769,-29.465 -164.1,22.324 v 2.362 l 0.371,0.368 -0.229,116.4 207.563,275.334 4.791,1.049 -0.163,5.254 z m 314.259,-41.149 h 0.008 a 87.521,87.521 0 0 0 23.483,-14.441 102.626,102.626 0 0 0 18.98,-21.573 123.311,123.311 0 0 0 19.627,-58.775 l 71.012,-18.112 a 119.97,119.97 0 0 0 12.971,31.32 105.085,105.085 0 0 0 20.251,24.757 88.983,88.983 0 0 0 25.913,16.267 79.712,79.712 0 0 0 64.353,-1.943 88.52,88.52 0 0 0 15.189,-9.181 97.548,97.548 0 0 0 13.428,-12.2 107.357,107.357 0 0 0 11.353,-14.849 116.029,116.029 0 0 0 8.961,-17.121 126,126 0 0 0 9.487,-39.557 v 88.471 z M 354.491,695.57 l 0.861,-30.353 0.081,0.08 z m 624.573,-45.438 c -0.1,-1.362 -0.23,-2.735 -0.377,-4.08 V 348.319 l -8.072,1.9 1.549,-2.01 -95.254,-46.476 -5.4,-86.584 -13.071,4 -19.044,-9.439 -7.719,69.949 -24.083,-11.75 0.164,-101.939 24.416,-5.985 v -45.884 l -98.043,22.117 101.167,-24.463 -181.68,-69.709 0.567,-0.078 324.878,124.419 z m -120.919,-450.943 -25.233,6.432 2.1,0.116 26.113,9.209 17.716,-6.777 0.743,0.041 -0.405,-0.171 0.367,-0.14 -0.8,-0.041 -20.6,-8.669 z m -300.381,439.381 1.385,-6.614 -7.761,1.246 7.611,-2.96 -0.458,-0.367 10.46,-7.526 a 110.06,110.06 0 0 0 -11.237,16.221 z"
         fill="#65b34c"
         id="path9" />
      <path
         data-name="Path 997 - Outline"
         d="M 351.729,856.885 350.151,854.806 131.465,566.684 V 109.001 l 518.451,-72.872 1.054,0.4 332.5,126.824 V 762.742 Z M 140.279,563.718 355.593,847.401 974.656,755.152 V 169.42 L 649.364,45.02 140.279,116.692 Z"
         fill="#65b34c"
         id="path11" />
      <path
         data-name="Path 1031 - Outline"
         d="m 133.438,438.162 226.4,224.144 -5.247,185.005 -11.969,-2.621 -0.983,-1.3 L 133.185,566.87 Z M 350.919,665.877 142.21,459.248 142.004,563.927 346.131,834.703 Z"
         fill="#65b34c"
         id="path13" />
      <path
         data-name="Path 1034 - Outline"
         d="m 564.774,626.594 c 0,0 -13.819,28.984 -18.419,50.967 -4.6,21.983 0,36.963 0,36.963 l -24.51,117 -170.2,25.065 -6.352,-6.676 0.057,-1.84 5.805,-187.192 z m -50.3,197.109 23.569,-112.509 c 0,0 -0.8,-22.064 3.071,-40.531 a 127.4,127.4 0 0 1 12.4,-33.337 l -193.775,31.102 -5.527,178.08 0.664,0.7 z"
         fill="#65b34c"
         id="path15" />
      <path
         data-name="Union 3"
         d="m 835.698,202.965 23.119,11.459 16.734,-5.125 5.966,95.593 -24.895,9.2 -31.187,-18.127 z m 22.347,20.913 -14.969,-7.419 -8.251,74.767 22.638,13.157 14.85,-5.487 -4.862,-77.9 z"
         fill="#65b34c"
         id="path17" />
      <path
         data-name="Path 1038 - Outline"
         d="m 634.139,814.234 a 83.165,83.165 0 0 1 -37.954,-9.189 97.53,97.53 0 0 1 -30.756,-24.867 118.267,118.267 0 0 1 -20.569,-36.6 133.852,133.852 0 0 1 -7.511,-44.613 c 0,-23.981 6.118,-46.968 17.693,-66.476 a 109.535,109.535 0 0 1 20.021,-24.86 93.87,93.87 0 0 1 23.223,-15.775 l 30.583,-388.78 183.307,-42.575 -0.377,222.565 171.292,-40.309 v 303.062 a 137.732,137.732 0 0 1 0.765,14.5 132.816,132.816 0 0 1 -7.579,44.628 118.006,118.006 0 0 1 -20.754,36.6 98.212,98.212 0 0 1 -31.018,24.86 84.171,84.171 0 0 1 -69.863,3.012 93.327,93.327 0 0 1 -27.2,-17.065 109.454,109.454 0 0 1 -21.1,-25.791 123.526,123.526 0 0 1 -12.278,-28.237 l -63.8,14.272 c -2.689,27.192 -13.416,52.3 -30.391,71.009 -17.926,19.751 -41.274,30.629 -65.734,30.629 z m 3.018,-604.1 -30.493,387.628 -2.42,1.059 a 84.458,84.458 0 0 0 -23.22,15.3 100.735,100.735 0 0 0 -18.4,22.866 c -10.77,18.146 -16.462,39.578 -16.462,61.978 a 125.063,125.063 0 0 0 7.009,41.689 109.484,109.484 0 0 0 19.028,33.882 88.777,88.777 0 0 0 27.974,22.65 74.433,74.433 0 0 0 33.966,8.235 c 21.946,0 42.973,-9.852 59.207,-27.74 16.32,-17.983 26.408,-42.458 28.405,-68.915 l 0.238,-3.156 78.333,-17.979 1.1,4.251 a 115.5,115.5 0 0 0 12.491,30.171 100.658,100.658 0 0 0 19.4,23.723 84.545,84.545 0 0 0 24.627,15.469 75.359,75.359 0 0 0 62.6,-2.712 89.454,89.454 0 0 0 28.233,-22.658 109.228,109.228 0 0 0 19.2,-33.88 124.028,124.028 0 0 0 7.07,-41.676 128.855,128.855 0 0 0 -0.739,-13.792 l -0.026,-0.236 V 353.884 l -171.312,40.313 0.378,-222.48 z"
         fill="#65b34c"
         id="path19" />
      <path
         data-name="Path 999 - Outline"
         d="m 558.301,635.478 -2.61,-2.083 -221.882,-178.316 117.617,-328.027 187.056,79.367 -31.929,391.451 -24.312,11.327 z m -214.077,-183.365 214.352,172.31 20.006,-18.879 19.642,-12.883 30.987,-380.727 -172.679,-72.956 z"
         fill="#65b34c"
         id="path21" />
      <path
         data-name="Path 1005"
         d="m 416.722,324.789 144.77,89.368 33.433,-191.19 -123.932,-49.349 z"
         fill="none"
         stroke="#65b34c"
         stroke-width="2.5"
         id="path23" />
      <path
         data-name="Path 1005 - Outline"
         d="m 564.713,421.325 -153.345,-94.662 57.019,-158.829 131.5,52.365 z m -142.636,-98.409 136.2,84.075 31.7,-181.255 L 473.6,179.395 Z"
         fill="#65b34c"
         id="path25" />
      <path
         data-name="Path 1006"
         d="M 659.468,230.759 775.32,204.371 v 192 l -126.528,28.931 z"
         fill="none"
         stroke="#65b34c"
         stroke-width="2.5"
         id="path27" />
      <path
         data-name="Path 1006 - Outline"
         d="m 779.726,198.847 v 201.036 l -135.655,31.019 11.174,-203.707 z m -8.813,194.01 V 209.895 l -107.227,24.422 -10.174,185.385 z"
         fill="#65b34c"
         id="path29" />
      <path
         data-name="Path 1039 - Outline"
         d="m 858.283,197.336 20.864,8.778 0.488,0.025 0.094,0.592 0.133,-0.316 0.405,0.17 -0.333,1.441 0.241,1.519 -0.367,0.14 -0.16,-0.419 -0.162,0.7 -0.367,-0.02 -17.972,6.878 -26.486,-9.34 -1.846,-0.1 -0.338,-3.468 z m 16.164,10.626 -16.44,-6.916 -18,4.587 21.088,7.437 z"
         fill="#65b34c"
         id="path31" />
      <path
         data-name="Path 1028"
         d="m 351.717,856.846 -119.163,-14.485 60.176,-44.016 -94.825,-15.7 53.065,-40.836 -88.966,-20.4 46.852,-40.365 -82.182,-20.458 39.372,-36.736 -66.883,-10.089 33.26,-49.122 6.384,6.076 -23.161,38.513 67.878,10.361 -38.968,36.359 82.955,20.65 -46.553,40.108 90.2,20.685 -51.808,39.87 95.511,15.816 -59.1,43.228 97.018,11.8 z"
         fill="#65b34c"
         id="path33" />
      <path
         data-name="Path 1002 - Outline"
         d="M 650.157,36 850.091,112.713 635.499,164.604 408.283,72.151 Z M 820.503,110.8 649.166,45.059 441.403,76.112 636.189,155.369 Z"
         fill="#65b34c"
         id="path35" />
      <path
         data-name="Path 1032 - Outline"
         d="m 836.581,108.591 v 54.852 l -206.672,50.658 v -58.887 z m -8.813,47.938 v -36.915 l -189.045,42.647 v 40.606 z"
         fill="#65b34c"
         id="path37" />
      <path
         data-name="Path 1033 - Outline"
         d="m 636.602,214.943 -211.1,-89.349 V 71.433 l 211.1,85.51 z m -202.29,-95.191 193.476,81.891 v -38.76 L 434.312,84.512 Z"
         fill="#65b34c"
         id="path39" />
      <path
         data-name="Path 1035 - Outline"
         d="m 302.836,419.322 1.476,1.183 259.943,208.4 -13.786,9.383 -0.454,0.075 -195.572,32.168 -1.6,-1.589 -219.796,-218.475 v -8.043 z m 247.444,209.586 -250,-200.342 -155.479,21.15 212.662,211.391 190.672,-31.362 z"
         fill="#65b34c"
         id="path41" />
    </g>
  </g>
</svg>
