<?xml version="1.0" encoding="UTF-8" standalone="no"?>
<svg
   width="1124.068"
   height="168.87799"
   viewBox="0 0 1124.068 168.87799"
   version="1.1"
   id="svg47"
   sodipodi:docname="wordmark.svg"
   inkscape:version="1.2.2 (b0a8486541, 2022-12-01)"
   xmlns:inkscape="http://www.inkscape.org/namespaces/inkscape"
   xmlns:sodipodi="http://sodipodi.sourceforge.net/DTD/sodipodi-0.dtd"
   xmlns="http://www.w3.org/2000/svg"
   xmlns:svg="http://www.w3.org/2000/svg">
  <defs
     id="defs23" />
  <sodipodi:namedview
     id="namedview49"
     pagecolor="#ffffff"
     bordercolor="#666666"
     borderopacity="1.0"
     inkscape:pageshadow="2"
     inkscape:pageopacity="0.0"
     inkscape:pagecheckerboard="0"
     showgrid="false"
     width="1920px"
     inkscape:zoom="0.5"
     inkscape:cx="-67"
     inkscape:cy="78"
     inkscape:window-width="1920"
     inkscape:window-height="1011"
     inkscape:window-x="0"
     inkscape:window-y="0"
     inkscape:window-maximized="1"
     inkscape:current-layer="svg47"
     inkscape:showpageshadow="2"
     inkscape:deskcolor="#d1d1d1" />
  <path
     data-name="Path 1037 - Outline"
     d="m 1124.068,168.87766 h -17.2193 l -23.5128,-50.59888 h -88.03851 l -23.51664,50.59888 h -17.2193 L 1033.3727,3.3066528e-4 h 11.8865 z m -121.3624,-66.20889 h 73.2195 l -36.6085,-78.618389 z m -54.47386,66.20889 h -15.61 V 23.443174 L 859.37887,96.491835 786.35869,23.471657 V 168.87766 H 770.74092 V 3.3066528e-4 h 14.16255 L 859.38535,74.685472 934.07437,3.3066528e-4 h 14.15737 z m -284.94571,0 A 84.199774,84.199774 0 0 1 578.84674,84.439621 84.199774,84.199774 0 0 1 663.28215,3.3066528e-4 84.654208,84.654208 0 0 1 696.24998,6.6032191 a 84.324064,84.324064 0 0 1 51.6799,77.8325179 84.324064,84.324064 0 0 1 -51.6799,77.832553 84.654208,84.654208 0 0 1 -32.96783,6.60937 z m 0,-153.477063 a 68.668745,68.668745 0 0 0 -69.03902,69.039024 69.143895,69.143895 0 1 0 138.28779,0 68.847411,68.847411 0 0 0 -69.25265,-69.039024 z M 560.8351,168.87766 H 542.83899 L 505.6725,104.4166 h -35.92878 v 64.46106 H 454.34346 V 3.3066528e-4 h 58.82396 A 51.940133,51.940133 0 0 1 550.11253,15.370819 51.938838,51.938838 0 0 1 565.48301,52.315922 51.603515,51.603515 0 0 1 550.36111,88.906281 52.294876,52.294876 0 0 1 523.11966,103.46241 Z M 469.74372,89.021508 h 43.40169 A 36.806571,36.806571 0 0 0 538.90186,78.219959 36.327538,36.327538 0 0 0 549.66327,52.315922 37.009837,37.009837 0 0 0 513.14541,15.400597 H 469.74372 Z M 347.93338,168.87766 H 283.23025 V 3.3066528e-4 h 64.94006 A 84.70729,84.70729 0 0 1 432.37137,84.438326 a 84.567464,84.567464 0 0 1 -51.57762,77.797604 83.852799,83.852799 0 0 1 -32.86167,6.64173 z m -49.09312,-15.61001 h 48.66846 a 68.829285,68.829285 0 1 0 0,-137.657314 h -48.66846 z m -25.72149,15.61001 h -17.2193 L 232.38672,118.27878 H 144.3482 l -23.51664,50.59888 H 103.61227 L 182.42356,3.3066528e-4 h 11.8865 z M 151.7525,102.66877 h 73.21956 L 188.36616,24.050381 Z M 15.400266,168.87766 H 0 V 3.3066528e-4 H 109.46035 V 15.610336 H 15.400266 V 74.745027 H 102.95068 V 90.353738 H 15.400266 Z"
     fill="#65b34c"
     id="path7"
     clip-path="url(#clipPath214)"
     style="stroke-width:1.29468" />
</svg>
